<svg xmlns="http://www.w3.org/2000/svg" xmlns:xlink="http://www.w3.org/1999/xlink" viewBox="0 0 48 48"><defs><style>.cls-1{fill:url(#linear-gradient);}.cls-2{fill:url(#linear-gradient-2);}.cls-3{fill:url(#linear-gradient-3);}.cls-4{fill:url(#linear-gradient-4);}.cls-5{fill:url(#linear-gradient-5);}.cls-6{fill:url(#linear-gradient-6);}.cls-7{fill:url(#linear-gradient-7);}.cls-8{fill:url(#linear-gradient-8);}.cls-9{fill:url(#linear-gradient-9);}.cls-10{fill:url(#linear-gradient-10);}.cls-11{fill:url(#linear-gradient-11);}.cls-12{fill:url(#linear-gradient-12);}.cls-13{fill:url(#linear-gradient-13);}.cls-14{fill:url(#linear-gradient-14);}</style><linearGradient id="linear-gradient" x1="27.5" y1="2.375" x2="27.5" y2="46.103" gradientUnits="userSpaceOnUse"><stop offset="0" stop-color="#9aa6e2"/><stop offset="1" stop-color="#7283d6"/></linearGradient><linearGradient id="linear-gradient-2" x1="16.5" y1="20" x2="16.5" y2="23.065" xlink:href="#linear-gradient"/><linearGradient id="linear-gradient-3" x1="16.5" y1="11" x2="16.5" y2="20.303" gradientUnits="userSpaceOnUse"><stop offset="0" stop-color="#eaecf7"/><stop offset="1" stop-color="#cdd3f1"/></linearGradient><linearGradient id="linear-gradient-4" x1="38.5" y1="25.938" x2="38.5" y2="31.197" gradientUnits="userSpaceOnUse"><stop offset="0" stop-color="#3f4c56"/><stop offset="1" stop-color="#27333e"/></linearGradient><linearGradient id="linear-gradient-5" x1="31" y1="28.5" x2="36" y2="28.5" xlink:href="#linear-gradient"/><linearGradient id="linear-gradient-6" x1="10" y1="26.094" x2="10" y2="29.969" gradientUnits="userSpaceOnUse"><stop offset="0" stop-color="#14a5ff"/><stop offset="1" stop-color="#037cff"/></linearGradient><linearGradient id="linear-gradient-7" x1="16" y1="26" x2="16" y2="30" xlink:href="#linear-gradient-6"/><linearGradient id="linear-gradient-8" x1="13" y1="32.031" x2="13" y2="36.128" xlink:href="#linear-gradient-6"/><linearGradient id="linear-gradient-9" x1="19" y1="32.094" x2="19" y2="36.064" xlink:href="#linear-gradient-6"/><linearGradient id="linear-gradient-10" x1="22" y1="26.094" x2="22" y2="30.036" xlink:href="#linear-gradient-6"/><linearGradient id="linear-gradient-11" x1="38.5" y1="36.085" x2="38.5" y2="46.023" gradientUnits="userSpaceOnUse"><stop offset="0" stop-color="#7283d6" stop-opacity="0"/><stop offset="1" stop-color="#4d62cb"/></linearGradient><linearGradient id="linear-gradient-12" x1="16.5" y1="21" x2="16.5" y2="23.043" xlink:href="#linear-gradient-11"/><linearGradient id="linear-gradient-13" x1="16.5" y1="17" x2="16.5" y2="20.667" gradientUnits="userSpaceOnUse"><stop offset="0" stop-color="#e2e5f4" stop-opacity="0"/><stop offset="1" stop-color="#9aa6e2"/></linearGradient><linearGradient id="linear-gradient-14" x1="38.5" y1="27.962" x2="38.5" y2="31.118" gradientUnits="userSpaceOnUse"><stop offset="0" stop-color="#3f4c56" stop-opacity="0"/><stop offset="1" stop-color="#141414"/></linearGradient></defs><title>Furniture Gradient</title><g id="Shower"><path class="cls-1" d="M15,6v6h3V6a1,1,0,0,1,1-1H36a1,1,0,0,1,1,1V45a1,1,0,0,0,1,1h1a1,1,0,0,0,1-1V6a4,4,0,0,0-4-4H19A4,4,0,0,0,15,6Z"/><rect class="cls-2" x="7" y="20" width="19" height="3" rx="1.5" ry="1.5"/><path class="cls-3" d="M18.791,11H14.209a4,4,0,0,0-3.9,3.132L9,20H24l-1.3-5.868A4,4,0,0,0,18.791,11Z"/><rect class="cls-4" x="36" y="26" width="5" height="5" rx="1" ry="1"/><path class="cls-5" d="M32.5,27H36a0,0,0,0,1,0,0v3a0,0,0,0,1,0,0H32.5A1.5,1.5,0,0,1,31,28.5v0A1.5,1.5,0,0,1,32.5,27Z"/><path class="cls-6" d="M10,30a1,1,0,0,1-1-1V27a1,1,0,0,1,2,0v2A1,1,0,0,1,10,30Z"/><path class="cls-7" d="M16,30a1,1,0,0,1-1-1V27a1,1,0,0,1,2,0v2A1,1,0,0,1,16,30Z"/><path class="cls-8" d="M13,36a1,1,0,0,1-1-1V33a1,1,0,0,1,2,0v2A1,1,0,0,1,13,36Z"/><path class="cls-9" d="M19,36a1,1,0,0,1-1-1V33a1,1,0,0,1,2,0v2A1,1,0,0,1,19,36Z"/><path class="cls-10" d="M22,30a1,1,0,0,1-1-1V27a1,1,0,0,1,2,0v2A1,1,0,0,1,22,30Z"/><path class="cls-11" d="M37,36v9a1,1,0,0,0,1,1h1a1,1,0,0,0,1-1V36Z"/><path class="cls-12" d="M7.092,21A1.486,1.486,0,0,0,8.5,23h16a1.486,1.486,0,0,0,1.408-2Z"/><polygon class="cls-13" points="9.667 17 9 20 24 20 23.333 17 9.667 17"/><path class="cls-14" d="M36,28v2a1,1,0,0,0,1,1h3a1,1,0,0,0,1-1V28Z"/></g></svg>