<svg xmlns="http://www.w3.org/2000/svg" xmlns:xlink="http://www.w3.org/1999/xlink" viewBox="0 0 48 48"><defs><style>.cls-1{fill:url(#linear-gradient);}.cls-2{fill:url(#linear-gradient-2);}.cls-3{fill:url(#linear-gradient-3);}.cls-4{fill:url(#linear-gradient-4);}.cls-5{fill:url(#linear-gradient-5);}.cls-6{fill:url(#linear-gradient-6);}.cls-7{fill:url(#linear-gradient-7);}.cls-8{fill:url(#linear-gradient-8);}.cls-9{fill:url(#linear-gradient-9);}.cls-10{fill:url(#linear-gradient-10);}.cls-11{fill:url(#linear-gradient-11);}.cls-12{fill:url(#linear-gradient-12);}.cls-13{fill:url(#linear-gradient-13);}.cls-14{fill:url(#linear-gradient-14);}.cls-15{fill:url(#linear-gradient-15);}.cls-16{fill:url(#linear-gradient-16);}.cls-17{fill:url(#linear-gradient-17);}.cls-18{fill:url(#linear-gradient-18);}.cls-19{fill:url(#linear-gradient-19);}.cls-20{fill:url(#linear-gradient-20);}.cls-21{fill:url(#linear-gradient-21);}</style><linearGradient id="linear-gradient" x1="9" y1="41.125" x2="9" y2="46" gradientUnits="userSpaceOnUse"><stop offset="0" stop-color="#e28b5a"/><stop offset="1" stop-color="#b35e3e"/></linearGradient><linearGradient id="linear-gradient-2" x1="39" x2="39" xlink:href="#linear-gradient"/><linearGradient id="linear-gradient-3" x1="24" y1="2.25" x2="24" y2="42.175" xlink:href="#linear-gradient"/><linearGradient id="linear-gradient-4" x1="24" y1="37.031" x2="24" y2="42.022" gradientUnits="userSpaceOnUse"><stop offset="0" stop-color="#b35e3e" stop-opacity="0"/><stop offset="1" stop-color="#96492d"/></linearGradient><linearGradient id="linear-gradient-5" x1="16" y1="3.868" x2="16" y2="40.087" gradientTransform="translate(-6 38) rotate(-90)" gradientUnits="userSpaceOnUse"><stop offset="0" stop-color="#96492d"/><stop offset="1" stop-color="#b35e3e" stop-opacity="0"/></linearGradient><linearGradient id="linear-gradient-6" x1="16" y1="4.875" x2="16" y2="39.083" gradientUnits="userSpaceOnUse"><stop offset="0" stop-color="#ffca4f"/><stop offset="1" stop-color="#f7ae30"/></linearGradient><linearGradient id="linear-gradient-7" x1="16" y1="28.963" x2="16" y2="39.024" gradientUnits="userSpaceOnUse"><stop offset="0" stop-color="#ffca4f" stop-opacity="0"/><stop offset="1" stop-color="#f4901f"/></linearGradient><linearGradient id="linear-gradient-8" x1="34.5" y1="4.143" x2="34.5" y2="19.715" gradientTransform="translate(22.5 46.5) rotate(-90)" xlink:href="#linear-gradient-5"/><linearGradient id="linear-gradient-9" x1="34.5" y1="5.125" x2="34.5" y2="18.751" gradientUnits="userSpaceOnUse"><stop offset="0" stop-color="#eaecf7"/><stop offset="1" stop-color="#cdd3f1"/></linearGradient><linearGradient id="linear-gradient-10" x1="34.5" y1="14.116" x2="34.5" y2="19.956" gradientUnits="userSpaceOnUse"><stop offset="0" stop-color="#e2e5f4" stop-opacity="0"/><stop offset="1" stop-color="#9aa6e2"/></linearGradient><linearGradient id="linear-gradient-11" x1="34.5" y1="21.214" x2="34.5" y2="29.983" gradientTransform="translate(9 60) rotate(-90)" xlink:href="#linear-gradient-5"/><linearGradient id="linear-gradient-12" x1="34.5" y1="22.167" x2="34.5" y2="28.987" xlink:href="#linear-gradient-6"/><linearGradient id="linear-gradient-13" x1="34.5" y1="31.161" x2="34.5" y2="39.768" gradientTransform="translate(-1 70) rotate(-90)" xlink:href="#linear-gradient-5"/><linearGradient id="linear-gradient-14" x1="34.5" y1="32.125" x2="34.5" y2="38.82" xlink:href="#linear-gradient-6"/><linearGradient id="linear-gradient-15" x1="34.5" y1="36.054" x2="34.5" y2="38.923" xlink:href="#linear-gradient-7"/><linearGradient id="linear-gradient-16" x1="34.5" y1="26.054" x2="34.5" y2="28.923" xlink:href="#linear-gradient-7"/><linearGradient id="linear-gradient-17" x1="34.5" y1="23.906" x2="34.5" y2="27.072" xlink:href="#linear-gradient"/><linearGradient id="linear-gradient-18" x1="34.5" y1="33.969" x2="34.5" y2="37.126" xlink:href="#linear-gradient"/><linearGradient id="linear-gradient-19" x1="20.5" y1="17.75" x2="20.5" y2="26.054" xlink:href="#linear-gradient"/><linearGradient id="linear-gradient-20" x1="39.125" y1="43.075" x2="39.125" y2="46" xlink:href="#linear-gradient-4"/><linearGradient id="linear-gradient-21" x1="8.875" y1="43.075" x2="8.875" y2="46" xlink:href="#linear-gradient-4"/></defs><title>Furniture Gradient</title><g id="Cupboard"><path class="cls-1" d="M9.219,46H8a1,1,0,0,1-1-1V41h4v1l-.811,3.243A1,1,0,0,1,9.219,46Z"/><path class="cls-2" d="M38.781,46H40a1,1,0,0,0,1-1V41H37v1l.811,3.243A1,1,0,0,0,38.781,46Z"/><rect class="cls-3" x="4" y="2" width="40" height="40" rx="2" ry="2"/><path class="cls-4" d="M4,37v3a2,2,0,0,0,2,2H42a2,2,0,0,0,2-2V37Z"/><rect class="cls-5" x="-2" y="12" width="36" height="20" rx="2" ry="2" transform="translate(38 6) rotate(90)"/><rect class="cls-6" x="7" y="5" width="18" height="34" rx="1" ry="1"/><path class="cls-7" d="M7,29H25a0,0,0,0,1,0,0v9a1,1,0,0,1-1,1H8a1,1,0,0,1-1-1V29A0,0,0,0,1,7,29Z"/><rect class="cls-8" x="26.5" y="4.5" width="16" height="15" rx="2" ry="2" transform="translate(46.5 -22.5) rotate(90)"/><rect class="cls-9" x="28" y="5" width="13" height="14" rx="1" ry="1"/><path class="cls-10" d="M28,13H41a0,0,0,0,1,0,0v5a1,1,0,0,1-1,1H29a1,1,0,0,1-1-1V13A0,0,0,0,1,28,13Z"/><rect class="cls-11" x="30" y="18" width="9" height="15" rx="2" ry="2" transform="translate(60 -9) rotate(90)"/><rect class="cls-12" x="28" y="22" width="13" height="7" rx="1" ry="1"/><rect class="cls-13" x="30" y="28" width="9" height="15" rx="2" ry="2" transform="translate(70 1) rotate(90)"/><rect class="cls-14" x="28" y="32" width="13" height="7" rx="1" ry="1"/><path class="cls-15" d="M28,36H41a0,0,0,0,1,0,0v2a1,1,0,0,1-1,1H29a1,1,0,0,1-1-1V36a0,0,0,0,1,0,0Z"/><path class="cls-16" d="M28,26H41a0,0,0,0,1,0,0v2a1,1,0,0,1-1,1H29a1,1,0,0,1-1-1V26A0,0,0,0,1,28,26Z"/><path class="cls-17" d="M36,27H33a2,2,0,0,1-2-2,1,1,0,0,1,2,0v0l3,0a1,1,0,0,1,2,0A2,2,0,0,1,36,27Z"/><path class="cls-18" d="M36,37H33a2,2,0,0,1-2-2,1,1,0,0,1,2,0v0l3,0a1,1,0,0,1,2,0A2,2,0,0,1,36,37Z"/><path class="cls-19" d="M21,26a2,2,0,0,1-2-2V20a2,2,0,0,1,2-2,1,1,0,0,1,0,2v4a1,1,0,0,1,0,2Z"/><path class="cls-20" d="M37.25,43l.561,2.242a1,1,0,0,0,.97.758H40a1,1,0,0,0,1-1V43Z"/><path class="cls-21" d="M7,43v2a1,1,0,0,0,1,1H9.219a1,1,0,0,0,.97-.758L10.75,43Z"/></g></svg>