<svg xmlns="http://www.w3.org/2000/svg" xmlns:xlink="http://www.w3.org/1999/xlink" viewBox="0 0 48 48"><defs><style>.cls-1{fill:url(#linear-gradient);}.cls-2{fill:url(#linear-gradient-2);}</style><linearGradient id="linear-gradient" x1="24" y1="5.5" x2="24" y2="41.525" gradientUnits="userSpaceOnUse"><stop offset="0" stop-color="#14a5ff"/><stop offset="1" stop-color="#037cff"/></linearGradient><linearGradient id="linear-gradient-2" x1="24" y1="24.294" x2="24" y2="41.247" gradientUnits="userSpaceOnUse"><stop offset="0" stop-color="#037cff" stop-opacity="0"/><stop offset="1" stop-color="#0063cc"/></linearGradient></defs><title>Furniture Gradient</title><g id="Pillow"><path class="cls-1" d="M43.3,35.031C43.6,31.958,44,27.176,44,24c0-3.7-.38-8.157-.672-11.033a2.992,2.992,0,1,0-3.216-3.735A72.328,72.328,0,0,0,24,7,72.328,72.328,0,0,0,7.888,9.232a2.993,2.993,0,1,0-3.216,3.735C4.38,15.843,4,20.3,4,24a108.056,108.056,0,0,0,.643,11.036,2.992,2.992,0,1,0,3.245,3.732A72.328,72.328,0,0,0,24,41a66.882,66.882,0,0,0,16.128-2.18A2.992,2.992,0,1,0,43.3,35.031Z"/><path class="cls-2" d="M43.3,35.031c.265-2.767.616-6.912.683-10.031H4.01c.05,3.835.369,7.561.633,10.036a2.992,2.992,0,1,0,3.245,3.732A72.328,72.328,0,0,0,24,41a66.882,66.882,0,0,0,16.128-2.18A2.992,2.992,0,1,0,43.3,35.031Z"/></g></svg>