<svg xmlns="http://www.w3.org/2000/svg" xmlns:xlink="http://www.w3.org/1999/xlink" viewBox="0 0 48 48"><defs><style>.cls-1{fill:url(#linear-gradient);}.cls-2{fill:url(#linear-gradient-2);}.cls-3{fill:url(#linear-gradient-3);}.cls-4{fill:url(#linear-gradient-4);}.cls-5{fill:url(#linear-gradient-5);}.cls-6{fill:url(#linear-gradient-6);}.cls-7{fill:url(#linear-gradient-7);}.cls-8{fill:url(#linear-gradient-8);}</style><linearGradient id="linear-gradient" x1="24" y1="6.979" x2="24" y2="10.004" gradientUnits="userSpaceOnUse"><stop offset="0" stop-color="#e28b5a"/><stop offset="1" stop-color="#b35e3e"/></linearGradient><linearGradient id="linear-gradient-2" y1="17.042" x2="24" y2="20.029" xlink:href="#linear-gradient"/><linearGradient id="linear-gradient-3" y1="27" x2="24" y2="30.042" xlink:href="#linear-gradient"/><linearGradient id="linear-gradient-4" y1="37.031" x2="24" y2="40.031" xlink:href="#linear-gradient"/><linearGradient id="linear-gradient-5" x1="11.5" y1="2.25" x2="11.5" y2="46.25" gradientUnits="userSpaceOnUse"><stop offset="0" stop-color="#ffca4f"/><stop offset="1" stop-color="#f7ae30"/></linearGradient><linearGradient id="linear-gradient-6" x1="36.5" x2="36.5" xlink:href="#linear-gradient-5"/><linearGradient id="linear-gradient-7" x1="36.5" y1="40.034" x2="36.5" y2="46.034" gradientUnits="userSpaceOnUse"><stop offset="0" stop-color="#ffca4f" stop-opacity="0"/><stop offset="1" stop-color="#f4901f"/></linearGradient><linearGradient id="linear-gradient-8" x1="11.5" y1="40.034" x2="11.5" y2="46.034" xlink:href="#linear-gradient-7"/></defs><title>Furniture Gradient</title><g id="Ladder"><rect class="cls-1" x="11.5" y="7" width="25" height="3"/><rect class="cls-2" x="11.5" y="17" width="25" height="3"/><rect class="cls-3" x="11.5" y="27" width="25" height="3"/><rect class="cls-4" x="11.5" y="37" width="25" height="3"/><rect class="cls-5" x="9.5" y="2" width="4" height="44" rx="1" ry="1"/><rect class="cls-6" x="34.5" y="2" width="4" height="44" rx="1" ry="1"/><path class="cls-7" d="M34.5,40v5a1,1,0,0,0,1,1h2a1,1,0,0,0,1-1V40Z"/><path class="cls-8" d="M9.5,40v5a1,1,0,0,0,1,1h2a1,1,0,0,0,1-1V40Z"/></g></svg>