<svg xmlns="http://www.w3.org/2000/svg" xmlns:xlink="http://www.w3.org/1999/xlink" viewBox="0 0 48 48"><defs><style>.cls-1{fill:url(#linear-gradient);}.cls-2{fill:url(#linear-gradient-2);}.cls-3{fill:url(#linear-gradient-3);}.cls-4{fill:url(#linear-gradient-4);}.cls-5{fill:url(#linear-gradient-5);}.cls-6{fill:url(#linear-gradient-6);}.cls-7{fill:url(#linear-gradient-7);}.cls-8{fill:url(#linear-gradient-8);}.cls-9{fill:url(#linear-gradient-9);}.cls-10{fill:url(#linear-gradient-10);}</style><linearGradient id="linear-gradient" x1="34" y1="2.083" x2="34" y2="19.157" gradientUnits="userSpaceOnUse"><stop offset="0" stop-color="#eaecf7"/><stop offset="1" stop-color="#cdd3f1"/></linearGradient><linearGradient id="linear-gradient-2" x1="4" y1="33.5" x2="25.313" y2="33.5" gradientUnits="userSpaceOnUse"><stop offset="0" stop-color="#e28b5a"/><stop offset="1" stop-color="#b35e3e"/></linearGradient><linearGradient id="linear-gradient-3" x1="21.375" x2="43.625" gradientTransform="translate(68 67) rotate(-180)" xlink:href="#linear-gradient-2"/><linearGradient id="linear-gradient-4" x1="24" y1="19.083" x2="24" y2="22.922" gradientUnits="userSpaceOnUse"><stop offset="0" stop-color="#3f4c56"/><stop offset="1" stop-color="#27333e"/></linearGradient><linearGradient id="linear-gradient-5" x1="18.5" y1="30.125" x2="18.5" y2="38.063" gradientUnits="userSpaceOnUse"><stop offset="0" stop-color="#ffca4f"/><stop offset="1" stop-color="#f7ae30"/></linearGradient><linearGradient id="linear-gradient-6" x1="29.5" x2="29.5" y2="38.062" xlink:href="#linear-gradient-5"/><linearGradient id="linear-gradient-7" x1="14.5" y1="14.875" x2="14.5" y2="19.142" xlink:href="#linear-gradient"/><linearGradient id="linear-gradient-8" x1="24" y1="20.715" x2="24" y2="22.955" gradientUnits="userSpaceOnUse"><stop offset="0" stop-color="#3f4c56" stop-opacity="0"/><stop offset="1" stop-color="#141414"/></linearGradient><linearGradient id="linear-gradient-9" x1="14.5" y1="16.937" x2="14.5" y2="19.071" gradientUnits="userSpaceOnUse"><stop offset="0" stop-color="#e2e5f4" stop-opacity="0"/><stop offset="1" stop-color="#9aa6e2"/></linearGradient><linearGradient id="linear-gradient-10" x1="38.5" y1="13.776" x2="38.5" y2="19.048" xlink:href="#linear-gradient-9"/></defs><title>Furniture Gradient</title><g id="Kitchen_Table" data-name="Kitchen Table"><path class="cls-1" d="M28,8V9h3V8a3,3,0,0,1,3-3h0a3,3,0,0,1,3,3V19h3V8a6,6,0,0,0-6-6h0A6,6,0,0,0,28,8Z"/><path class="cls-2" d="M4,21H24a0,0,0,0,1,0,0V46a0,0,0,0,1,0,0H6a2,2,0,0,1-2-2V21A0,0,0,0,1,4,21Z"/><path class="cls-3" d="M26,21H44a0,0,0,0,1,0,0V46a0,0,0,0,1,0,0H24a0,0,0,0,1,0,0V23A2,2,0,0,1,26,21Z" transform="translate(68 67) rotate(180)"/><rect class="cls-4" x="2" y="19" width="44" height="4" rx="1" ry="1"/><path class="cls-5" d="M19,38a2,2,0,0,1-2-2V32a2,2,0,0,1,2-2,1,1,0,0,1,0,2v4a1,1,0,0,1,0,2Z"/><path class="cls-6" d="M29,38a1,1,0,0,1,0-2h0V32a1,1,0,0,1,0-2,2,2,0,0,1,2,2v4A2,2,0,0,1,29,38Z"/><path class="cls-7" d="M8,15H21a2,2,0,0,1,2,2v2a0,0,0,0,1,0,0H6a0,0,0,0,1,0,0V17A2,2,0,0,1,8,15Z"/><path class="cls-8" d="M2,20.667V22a1,1,0,0,0,1,1H45a1,1,0,0,0,1-1V20.667Z"/><rect class="cls-9" x="6" y="17" width="17" height="2"/><rect class="cls-10" x="37" y="13.75" width="3" height="5.25"/></g></svg>