<svg xmlns="http://www.w3.org/2000/svg" xmlns:xlink="http://www.w3.org/1999/xlink" viewBox="0 0 48 48"><defs><style>.cls-1{fill:url(#linear-gradient);}.cls-2{fill:url(#linear-gradient-2);}.cls-3{fill:url(#linear-gradient-3);}.cls-4{fill:url(#linear-gradient-4);}.cls-5{fill:url(#linear-gradient-5);}.cls-6{fill:url(#linear-gradient-6);}.cls-7{fill:url(#linear-gradient-7);}.cls-8{fill:url(#linear-gradient-8);}.cls-9{fill:url(#linear-gradient-9);}.cls-10{fill:url(#linear-gradient-10);}.cls-11{fill:url(#linear-gradient-11);}</style><linearGradient id="linear-gradient" x1="24" y1="10.75" x2="24" y2="42.875" gradientUnits="userSpaceOnUse"><stop offset="0" stop-color="#ff4343"/><stop offset="1" stop-color="#e40000"/></linearGradient><linearGradient id="linear-gradient-2" x1="16.874" y1="17.23" x2="30.86" y2="32.481" gradientUnits="userSpaceOnUse"><stop offset="0" stop-color="#af0000"/><stop offset="1" stop-color="#ff4343" stop-opacity="0"/></linearGradient><linearGradient id="linear-gradient-3" x1="24" y1="35.182" x2="24" y2="42.376" gradientUnits="userSpaceOnUse"><stop offset="0" stop-color="#ff4343" stop-opacity="0"/><stop offset="1" stop-color="#af0000"/></linearGradient><linearGradient id="linear-gradient-4" x1="24" y1="42.063" x2="24" y2="45.946" gradientUnits="userSpaceOnUse"><stop offset="0" stop-color="#3f4c56"/><stop offset="1" stop-color="#27333e"/></linearGradient><linearGradient id="linear-gradient-5" y1="2.083" x2="24" y2="11.842" xlink:href="#linear-gradient-4"/><linearGradient id="linear-gradient-6" y1="17.313" x2="24" y2="40.378" xlink:href="#linear-gradient-3"/><linearGradient id="linear-gradient-7" x1="17.663" y1="18.09" x2="30.101" y2="31.652" gradientUnits="userSpaceOnUse"><stop offset="0" stop-color="#eaecf7"/><stop offset="1" stop-color="#cdd3f1"/></linearGradient><linearGradient id="linear-gradient-8" x1="23.944" y1="24.941" x2="29.486" y2="30.816" gradientUnits="userSpaceOnUse"><stop offset="0" stop-color="#e2e5f4" stop-opacity="0"/><stop offset="1" stop-color="#9aa6e2"/></linearGradient><linearGradient id="linear-gradient-9" x1="23" y1="21.313" x2="23" y2="27.942" xlink:href="#linear-gradient-4"/><linearGradient id="linear-gradient-10" x1="24" y1="9.025" x2="24" y2="11.953" gradientUnits="userSpaceOnUse"><stop offset="0" stop-color="#3f4c56" stop-opacity="0"/><stop offset="1" stop-color="#141414"/></linearGradient><linearGradient id="linear-gradient-11" y1="43.047" x2="24" y2="45.959" xlink:href="#linear-gradient-10"/></defs><title>Furniture Gradient</title><g id="Clock"><rect class="cls-1" x="9" y="10" width="30" height="33"/><circle class="cls-2" cx="24" cy="25" r="9"/><rect class="cls-3" x="9" y="35" width="30" height="8"/><path class="cls-4" d="M9,42H39a2,2,0,0,1,2,2v1a1,1,0,0,1-1,1H8a1,1,0,0,1-1-1V44A2,2,0,0,1,9,42Z"/><path class="cls-5" d="M34,7c-1.536,0-4,0-5.542-2.266A5.5,5.5,0,0,0,24,2a6.47,6.47,0,0,0-5,2.734C17.458,7,15.536,7,14,7H8A1,1,0,0,0,7,8v3a1,1,0,0,0,1,1H40a1,1,0,0,0,1-1V8a1,1,0,0,0-1-1Z"/><rect class="cls-6" x="16" y="25" width="16" height="17"/><circle class="cls-7" cx="24" cy="25" r="8"/><path class="cls-8" d="M29.286,19.006,17.232,29.253A7.994,7.994,0,1,0,29.286,19.006Z"/><path class="cls-9" d="M22,28a1,1,0,0,1-.707-1.707L23,24.586V22a1,1,0,0,1,2,0v3a1,1,0,0,1-.293.707l-2,2A1,1,0,0,1,22,28Z"/><path class="cls-10" d="M7,11a1,1,0,0,0,1,1H40a1,1,0,0,0,1-1V9H7Z"/><path class="cls-11" d="M7.277,43A1.98,1.98,0,0,0,7,44v1a1,1,0,0,0,1,1H40a1,1,0,0,0,1-1V44a1.98,1.98,0,0,0-.277-1Z"/></g></svg>