<svg xmlns="http://www.w3.org/2000/svg" xmlns:xlink="http://www.w3.org/1999/xlink" viewBox="0 0 48 48"><defs><style>.cls-1{fill:url(#linear-gradient);}.cls-2{fill:url(#linear-gradient-2);}.cls-3{fill:url(#linear-gradient-3);}.cls-4{fill:url(#linear-gradient-4);}.cls-5{fill:url(#linear-gradient-5);}.cls-6{fill:url(#linear-gradient-6);}.cls-7{fill:url(#linear-gradient-7);}.cls-8{fill:url(#linear-gradient-8);}.cls-9{fill:url(#linear-gradient-9);}.cls-10{fill:url(#linear-gradient-10);}</style><linearGradient id="linear-gradient" x1="10" y1="36.937" x2="10" y2="42.014" gradientUnits="userSpaceOnUse"><stop offset="0" stop-color="#e28b5a"/><stop offset="1" stop-color="#b35e3e"/></linearGradient><linearGradient id="linear-gradient-2" x1="38" y1="36.937" x2="38" y2="42.014" xlink:href="#linear-gradient"/><linearGradient id="linear-gradient-3" x1="4" y1="23" x2="24" y2="23" gradientUnits="userSpaceOnUse"><stop offset="0" stop-color="#ffca4f"/><stop offset="1" stop-color="#f7ae30"/></linearGradient><linearGradient id="linear-gradient-4" x1="21.25" x2="42.917" gradientTransform="translate(68 46) rotate(-180)" xlink:href="#linear-gradient-3"/><linearGradient id="linear-gradient-5" x1="24" y1="6" x2="24" y2="10" xlink:href="#linear-gradient"/><linearGradient id="linear-gradient-6" x1="24" y1="7" x2="24" y2="10" gradientUnits="userSpaceOnUse"><stop offset="0" stop-color="#b35e3e" stop-opacity="0"/><stop offset="1" stop-color="#96492d"/></linearGradient><linearGradient id="linear-gradient-7" x1="16.391" y1="22.298" x2="19.641" y2="25.735" xlink:href="#linear-gradient"/><linearGradient id="linear-gradient-8" x1="28.477" y1="22.312" x2="31.56" y2="25.729" xlink:href="#linear-gradient"/><linearGradient id="linear-gradient-9" x1="9.875" y1="38.962" x2="9.875" y2="42.008" xlink:href="#linear-gradient-6"/><linearGradient id="linear-gradient-10" x1="38.125" y1="38.962" x2="38.125" y2="42.008" xlink:href="#linear-gradient-6"/></defs><title>Furniture Gradient</title><g id="Bedside_Table" data-name="Bedside Table"><path class="cls-1" d="M10.219,42H8V37h4v1l-.811,3.243A1,1,0,0,1,10.219,42Z"/><path class="cls-2" d="M37.781,42H40V37H36v1l.811,3.243A1,1,0,0,0,37.781,42Z"/><path class="cls-3" d="M4,8H24a0,0,0,0,1,0,0V38a0,0,0,0,1,0,0H6a2,2,0,0,1-2-2V8A0,0,0,0,1,4,8Z"/><path class="cls-4" d="M26,8H44a0,0,0,0,1,0,0V38a0,0,0,0,1,0,0H24a0,0,0,0,1,0,0V10A2,2,0,0,1,26,8Z" transform="translate(68 46) rotate(180)"/><rect class="cls-5" x="2" y="6" width="44" height="4" rx="1" ry="1"/><path class="cls-6" d="M2,7H46a0,0,0,0,1,0,0V9a1,1,0,0,1-1,1H3A1,1,0,0,1,2,9V7A0,0,0,0,1,2,7Z"/><circle class="cls-7" cx="18" cy="24" r="2"/><circle class="cls-8" cx="30" cy="24" r="2"/><path class="cls-9" d="M8,39v3h2.219a1,1,0,0,0,.97-.758L11.75,39Z"/><path class="cls-10" d="M36.25,39l.561,2.242a1,1,0,0,0,.97.758H40V39Z"/></g></svg>