<svg xmlns="http://www.w3.org/2000/svg" xmlns:xlink="http://www.w3.org/1999/xlink" viewBox="0 0 48 48"><defs><style>.cls-1{fill:url(#linear-gradient);}.cls-2{fill:url(#linear-gradient-2);}.cls-3{fill:url(#linear-gradient-3);}.cls-4{fill:url(#linear-gradient-4);}.cls-5{fill:url(#linear-gradient-5);}.cls-6{fill:url(#linear-gradient-6);}.cls-7{fill:url(#linear-gradient-7);}.cls-8{fill:url(#linear-gradient-8);}</style><linearGradient id="linear-gradient" x1="24" y1="1.667" x2="24" y2="23.672" gradientUnits="userSpaceOnUse"><stop offset="0" stop-color="#ff4343"/><stop offset="1" stop-color="#e40000"/></linearGradient><linearGradient id="linear-gradient-2" x1="24" y1="42" x2="24" y2="45.876" gradientUnits="userSpaceOnUse"><stop offset="0" stop-color="#3f4c56"/><stop offset="1" stop-color="#27333e"/></linearGradient><linearGradient id="linear-gradient-3" x1="24" y1="24.875" x2="24" y2="41.912" gradientUnits="userSpaceOnUse"><stop offset="0" stop-color="#ffca4f"/><stop offset="1" stop-color="#f7ae30"/></linearGradient><linearGradient id="linear-gradient-4" x1="24" y1="23" x2="24" y2="26.126" xlink:href="#linear-gradient"/><linearGradient id="linear-gradient-5" x1="24" y1="17.921" x2="24" y2="24.669" gradientUnits="userSpaceOnUse"><stop offset="0" stop-color="#ff4343" stop-opacity="0"/><stop offset="1" stop-color="#af0000"/></linearGradient><linearGradient id="linear-gradient-6" x1="24" y1="36.592" x2="24" y2="41.972" gradientUnits="userSpaceOnUse"><stop offset="0" stop-color="#ffca4f" stop-opacity="0"/><stop offset="1" stop-color="#f4901f"/></linearGradient><linearGradient id="linear-gradient-7" x1="24" y1="44" x2="24" y2="45.938" gradientUnits="userSpaceOnUse"><stop offset="0" stop-color="#3f4c56" stop-opacity="0"/><stop offset="1" stop-color="#141414"/></linearGradient><linearGradient id="linear-gradient-8" y1="24" x2="24" y2="26.084" xlink:href="#linear-gradient-5"/></defs><title>Furniture Gradient</title><g id="Desk_Lamp" data-name="Desk Lamp"><path class="cls-1" d="M38,23H10s6-11,6-17V4a2,2,0,0,1,2-2H30a2,2,0,0,1,2,2V6C32,12,38,23,38,23Z"/><path class="cls-2" d="M34,42H14a2,2,0,0,0-2,2v1a1,1,0,0,0,1,1H35a1,1,0,0,0,1-1V44A2,2,0,0,0,34,42Z"/><path class="cls-3" d="M30,42H18a31,31,0,0,1-2-10,22.283,22.283,0,0,1,2-9H30a22.283,22.283,0,0,1,2,9A31,31,0,0,1,30,42Z"/><rect class="cls-4" x="8" y="23" width="32" height="3" rx="1.5" ry="1.5"/><path class="cls-5" d="M12.451,18C11.155,20.883,10,23,10,23H38s-1.155-2.117-2.451-5Z"/><path class="cls-6" d="M16.37,36A33.274,33.274,0,0,0,18,42H30a33.274,33.274,0,0,0,1.63-6Z"/><path class="cls-7" d="M12,45a1,1,0,0,0,1,1H35a1,1,0,0,0,1-1V44H12Z"/><path class="cls-8" d="M8.092,24A1.486,1.486,0,0,0,9.5,26h29a1.486,1.486,0,0,0,1.408-2Z"/></g></svg>