<svg id="Chest_Of_Drawer" data-name="Chest Of Drawer" xmlns="http://www.w3.org/2000/svg" xmlns:xlink="http://www.w3.org/1999/xlink" viewBox="0 0 48 48"><defs><style>.cls-1{fill:url(#linear-gradient);}.cls-2{fill:url(#linear-gradient-2);}.cls-3{fill:url(#linear-gradient-3);}.cls-4{fill:url(#linear-gradient-4);}.cls-5{fill:url(#linear-gradient-5);}.cls-6{fill:url(#linear-gradient-6);}.cls-7{fill:url(#linear-gradient-7);}.cls-8{fill:url(#linear-gradient-8);}.cls-9{fill:url(#linear-gradient-9);}.cls-10{fill:url(#linear-gradient-10);}.cls-11{fill:url(#linear-gradient-11);}.cls-12{fill:url(#linear-gradient-12);}</style><linearGradient id="linear-gradient" x1="6" y1="38" x2="6" y2="42.004" gradientUnits="userSpaceOnUse"><stop offset="0" stop-color="#e28b5a"/><stop offset="1" stop-color="#b35e3e"/></linearGradient><linearGradient id="linear-gradient-2" x1="42" x2="42" y2="42.004" xlink:href="#linear-gradient"/><linearGradient id="linear-gradient-3" x1="24" y1="6.083" x2="24" y2="38.172" xlink:href="#linear-gradient"/><linearGradient id="linear-gradient-4" x1="24" y1="32.016" x2="24" y2="38.032" gradientUnits="userSpaceOnUse"><stop offset="0" stop-color="#b35e3e" stop-opacity="0"/><stop offset="1" stop-color="#96492d"/></linearGradient><linearGradient id="linear-gradient-5" x1="24" y1="9" x2="24" y2="20.521" gradientTransform="translate(9 39) rotate(-90)" gradientUnits="userSpaceOnUse"><stop offset="0" stop-color="#96492d"/><stop offset="1" stop-color="#b35e3e" stop-opacity="0"/></linearGradient><linearGradient id="linear-gradient-6" x1="24" y1="10" x2="24" y2="19.601" gradientUnits="userSpaceOnUse"><stop offset="0" stop-color="#ffca4f"/><stop offset="1" stop-color="#f7ae30"/></linearGradient><linearGradient id="linear-gradient-7" x1="24" y1="10.042" x2="24" y2="14.192" xlink:href="#linear-gradient"/><linearGradient id="linear-gradient-8" y1="22.9" x2="24" y2="34.815" gradientTransform="translate(-5 53) rotate(-90)" xlink:href="#linear-gradient-5"/><linearGradient id="linear-gradient-9" y1="23.917" x2="24" y2="33.846" xlink:href="#linear-gradient-6"/><linearGradient id="linear-gradient-10" x1="24" y1="24.083" x2="24" y2="28.188" xlink:href="#linear-gradient"/><linearGradient id="linear-gradient-11" x1="42.125" y1="39.082" x2="42.125" y2="42.153" xlink:href="#linear-gradient-4"/><linearGradient id="linear-gradient-12" x1="5.875" y1="39.142" x2="5.875" y2="42.104" xlink:href="#linear-gradient-4"/></defs><title>Furniture Gradient</title><path class="cls-1" d="M6.219,42H4V37H8v1l-.811,3.243A1,1,0,0,1,6.219,42Z"/><path class="cls-2" d="M41.781,42H44V37H40v1l.811,3.243A1,1,0,0,0,41.781,42Z"/><rect class="cls-3" x="2" y="6" width="44" height="32" rx="2" ry="2"/><path class="cls-4" d="M2,32v4a2,2,0,0,0,2,2H44a2,2,0,0,0,2-2V32Z"/><rect class="cls-5" x="18" y="-4" width="12" height="38" rx="2" ry="2" transform="translate(39 -9) rotate(90)"/><rect class="cls-6" x="6" y="10" width="36" height="10" rx="1" ry="1"/><path class="cls-7" d="M27.219,14H20.781a1,1,0,0,1-.97-.757L19,10H29l-.811,3.243A1,1,0,0,1,27.219,14Z"/><rect class="cls-8" x="18" y="10" width="12" height="38" rx="2" ry="2" transform="translate(53 5) rotate(90)"/><rect class="cls-9" x="6" y="24" width="36" height="10" rx="1" ry="1"/><path class="cls-10" d="M27.219,28H20.781a1,1,0,0,1-.97-.757L19,24H29l-.811,3.243A1,1,0,0,1,27.219,28Z"/><path class="cls-11" d="M40.25,39l.561,2.242a1,1,0,0,0,.97.758H44V39Z"/><path class="cls-12" d="M4,39v3H6.219a1,1,0,0,0,.97-.758L7.75,39Z"/></svg>