<svg xmlns="http://www.w3.org/2000/svg" xmlns:xlink="http://www.w3.org/1999/xlink" viewBox="0 0 48 48"><defs><style>.cls-1{fill:url(#linear-gradient);}.cls-2{fill:url(#linear-gradient-2);}.cls-3{fill:url(#linear-gradient-3);}.cls-4{fill:url(#linear-gradient-4);}.cls-5{fill:url(#linear-gradient-5);}.cls-6{fill:url(#linear-gradient-6);}.cls-7{fill:url(#linear-gradient-7);}.cls-8{fill:url(#linear-gradient-8);}.cls-9{fill:url(#linear-gradient-9);}.cls-10{fill:url(#linear-gradient-10);}</style><linearGradient id="linear-gradient" x1="24" y1="6.417" x2="24" y2="30.474" gradientUnits="userSpaceOnUse"><stop offset="0" stop-color="#ffca4f"/><stop offset="1" stop-color="#f7ae30"/></linearGradient><linearGradient id="linear-gradient-2" x1="24" y1="20.183" x2="24" y2="26.079" gradientUnits="userSpaceOnUse"><stop offset="0" stop-color="#ffca4f" stop-opacity="0"/><stop offset="1" stop-color="#f4901f"/></linearGradient><linearGradient id="linear-gradient-3" x1="24" y1="39.063" x2="24" y2="45.985" xlink:href="#linear-gradient"/><linearGradient id="linear-gradient-4" x1="24" y1="1.958" x2="24" y2="8.004" gradientUnits="userSpaceOnUse"><stop offset="0" stop-color="#3f4c56"/><stop offset="1" stop-color="#27333e"/></linearGradient><linearGradient id="linear-gradient-5" x1="24" y1="30.083" x2="24" y2="39.942" gradientUnits="userSpaceOnUse"><stop offset="0" stop-color="#ff4343"/><stop offset="1" stop-color="#e40000"/></linearGradient><linearGradient id="linear-gradient-6" x1="24" y1="25.958" x2="24" y2="30.084" xlink:href="#linear-gradient-5"/><linearGradient id="linear-gradient-7" y1="43.332" x2="24" y2="45.994" xlink:href="#linear-gradient-2"/><linearGradient id="linear-gradient-8" x1="24" y1="35.042" x2="24" y2="39.971" gradientUnits="userSpaceOnUse"><stop offset="0" stop-color="#ff4343" stop-opacity="0"/><stop offset="1" stop-color="#af0000"/></linearGradient><linearGradient id="linear-gradient-9" y1="27.979" x2="24" y2="30.583" xlink:href="#linear-gradient-8"/><linearGradient id="linear-gradient-10" x1="24" y1="3.972" x2="24" y2="8.002" gradientUnits="userSpaceOnUse"><stop offset="0" stop-color="#3f4c56" stop-opacity="0"/><stop offset="1" stop-color="#141414"/></linearGradient></defs><title>Furniture Gradient</title><g id="Chandelier"><rect class="cls-1" x="22" y="6" width="4" height="25"/><rect class="cls-2" x="22" y="20" width="4" height="11"/><ellipse class="cls-3" cx="24" cy="39.5" rx="7" ry="6.5"/><path class="cls-4" d="M26.279,8H21.721a1,1,0,0,1-.949-.684l-1.333-4A1,1,0,0,1,20.387,2h7.225a1,1,0,0,1,.949,1.316l-1.333,4A1,1,0,0,1,26.279,8Z"/><path class="cls-5" d="M20,30h8a9,9,0,0,1,9,9v0a1,1,0,0,1-1,1H12a1,1,0,0,1-1-1v0a9,9,0,0,1,9-9Z"/><path class="cls-6" d="M22,26h4a2,2,0,0,1,2,2v2a0,0,0,0,1,0,0H20a0,0,0,0,1,0,0V28A2,2,0,0,1,22,26Z"/><path class="cls-7" d="M17.195,41A6.91,6.91,0,0,0,24,46a6.91,6.91,0,0,0,6.805-5Z"/><path class="cls-8" d="M11.947,35A8.948,8.948,0,0,0,11,39a1,1,0,0,0,1,1H36a1,1,0,0,0,1-1,8.948,8.948,0,0,0-.947-4Z"/><rect class="cls-9" x="20" y="28" width="8" height="2"/><path class="cls-10" d="M19.667,4l1.105,3.316A1,1,0,0,0,21.721,8h4.558a1,1,0,0,0,.949-.684L28.333,4Z"/></g></svg>