<svg xmlns="http://www.w3.org/2000/svg" xmlns:xlink="http://www.w3.org/1999/xlink" viewBox="0 0 48 48"><defs><style>.cls-1{fill:url(#linear-gradient);}.cls-2{fill:url(#linear-gradient-2);}.cls-3{fill:url(#linear-gradient-3);}.cls-4{fill:url(#linear-gradient-4);}.cls-5{fill:url(#linear-gradient-5);}.cls-6{fill:url(#linear-gradient-6);}.cls-7{fill:url(#linear-gradient-7);}.cls-8{fill:url(#linear-gradient-8);}.cls-9{fill:url(#linear-gradient-9);}.cls-10{fill:url(#linear-gradient-10);}.cls-11{fill:url(#linear-gradient-11);}.cls-12{fill:url(#linear-gradient-12);}.cls-13{fill:url(#linear-gradient-13);}.cls-14{fill:url(#linear-gradient-14);}.cls-15{fill:url(#linear-gradient-15);}.cls-16{fill:url(#linear-gradient-16);}</style><linearGradient id="linear-gradient" x1="7.096" y1="3.893" x2="40.513" y2="43.643" gradientUnits="userSpaceOnUse"><stop offset="0" stop-color="#36db39"/><stop offset="1" stop-color="#20b823"/></linearGradient><linearGradient id="linear-gradient-2" x1="24.868" y1="24.944" x2="40.931" y2="42.882" gradientUnits="userSpaceOnUse"><stop offset="0" stop-color="#20b823" stop-opacity="0"/><stop offset="1" stop-color="#198f1b"/></linearGradient><linearGradient id="linear-gradient-3" x1="10.467" y1="8.289" x2="37.516" y2="39.692" gradientUnits="userSpaceOnUse"><stop offset="0" stop-color="#198f1b"/><stop offset="1" stop-color="#20b823" stop-opacity="0"/></linearGradient><linearGradient id="linear-gradient-4" x1="11.18" y1="9.116" x2="36.805" y2="38.866" gradientUnits="userSpaceOnUse"><stop offset="0" stop-color="#eaecf7"/><stop offset="1" stop-color="#cdd3f1"/></linearGradient><linearGradient id="linear-gradient-5" x1="26.18" y1="26.035" x2="38.68" y2="37.66" gradientUnits="userSpaceOnUse"><stop offset="0" stop-color="#e2e5f4" stop-opacity="0"/><stop offset="1" stop-color="#9aa6e2"/></linearGradient><linearGradient id="linear-gradient-6" x1="23" y1="9" x2="25" y2="9" gradientUnits="userSpaceOnUse"><stop offset="0" stop-color="#3f4c56"/><stop offset="1" stop-color="#27333e"/></linearGradient><linearGradient id="linear-gradient-7" y1="39" y2="39" xlink:href="#linear-gradient-6"/><linearGradient id="linear-gradient-8" x1="8" y1="24" x2="10" y2="24" xlink:href="#linear-gradient-6"/><linearGradient id="linear-gradient-9" x1="38" y1="24" x2="40" y2="24" xlink:href="#linear-gradient-6"/><linearGradient id="linear-gradient-10" x1="12.393" y1="34.607" x2="14.393" y2="34.607" gradientTransform="translate(28.393 0.665) rotate(45)" xlink:href="#linear-gradient-6"/><linearGradient id="linear-gradient-11" x1="33.607" y1="13.393" x2="35.607" y2="13.393" gradientTransform="translate(19.607 -20.548) rotate(45)" xlink:href="#linear-gradient-6"/><linearGradient id="linear-gradient-12" x1="33.607" y1="34.607" x2="35.607" y2="34.607" gradientTransform="translate(34.607 -14.335) rotate(45)" xlink:href="#linear-gradient-6"/><linearGradient id="linear-gradient-13" x1="12.393" y1="13.393" x2="14.393" y2="13.393" gradientTransform="translate(13.393 -5.548) rotate(45)" xlink:href="#linear-gradient-6"/><linearGradient id="linear-gradient-14" x1="24" y1="13.167" x2="24" y2="22.876" xlink:href="#linear-gradient-6"/><linearGradient id="linear-gradient-15" x1="17.458" y1="30.627" x2="24.375" y2="23.544" xlink:href="#linear-gradient-6"/><linearGradient id="linear-gradient-16" x1="22.296" y1="22.267" x2="25.984" y2="26.017" xlink:href="#linear-gradient"/></defs><title>Furniture Gradient</title><g id="Wall_Clock" data-name="Wall Clock"><circle class="cls-1" cx="24" cy="24" r="22"/><path class="cls-2" d="M8.444,39.556A22,22,0,1,0,39.556,8.444Z"/><path class="cls-3" d="M24,43A19,19,0,1,1,43,24,19.022,19.022,0,0,1,24,43Z"/><path class="cls-4" d="M24,42A18,18,0,1,1,42,24,18.021,18.021,0,0,1,24,42Z"/><path class="cls-5" d="M11.278,36.722A17.991,17.991,0,1,0,36.722,11.278Z"/><circle class="cls-6" cx="24" cy="9" r="1"/><circle class="cls-7" cx="24" cy="39" r="1"/><circle class="cls-8" cx="9" cy="24" r="1"/><circle class="cls-9" cx="39" cy="24" r="1"/><circle class="cls-10" cx="13.393" cy="34.607" r="1" transform="translate(-20.548 19.607) rotate(-45)"/><circle class="cls-11" cx="34.607" cy="13.393" r="1" transform="translate(0.665 28.393) rotate(-45)"/><circle class="cls-12" cx="34.607" cy="34.607" r="1" transform="translate(-14.335 34.607) rotate(-45)"/><circle class="cls-13" cx="13.393" cy="13.393" r="1" transform="translate(-5.548 13.393) rotate(-45)"/><path class="cls-14" d="M24,23a1,1,0,0,1-1-1V14a1,1,0,0,1,2,0v8A1,1,0,0,1,24,23Z"/><path class="cls-15" d="M18,31a1,1,0,0,1-.707-1.707l6-6a1,1,0,0,1,1.414,1.414l-6,6A1,1,0,0,1,18,31Z"/><circle class="cls-16" cx="24" cy="24" r="2"/></g></svg>