<svg xmlns="http://www.w3.org/2000/svg" xmlns:xlink="http://www.w3.org/1999/xlink" viewBox="0 0 48 48"><defs><style>.cls-1{fill:url(#linear-gradient);}.cls-2{fill:url(#linear-gradient-2);}.cls-3{fill:url(#linear-gradient-3);}.cls-4{fill:url(#linear-gradient-4);}.cls-5{fill:url(#linear-gradient-5);}.cls-6{fill:url(#linear-gradient-6);}.cls-7{fill:url(#linear-gradient-7);}.cls-8{fill:url(#linear-gradient-8);}.cls-9{fill:url(#linear-gradient-9);}.cls-10{fill:url(#linear-gradient-10);}</style><linearGradient id="linear-gradient" x1="24" y1="4.5" x2="24" y2="16.098" gradientUnits="userSpaceOnUse"><stop offset="0" stop-color="#3f4c56"/><stop offset="1" stop-color="#27333e"/></linearGradient><linearGradient id="linear-gradient-2" x1="22.122" y1="3.035" x2="25.706" y2="6.785" gradientUnits="userSpaceOnUse"><stop offset="0" stop-color="#e28b5a"/><stop offset="1" stop-color="#b35e3e"/></linearGradient><linearGradient id="linear-gradient-3" x1="24" y1="14" x2="24" y2="46" xlink:href="#linear-gradient-2"/><linearGradient id="linear-gradient-4" x1="24" y1="16.538" x2="24" y2="43.892" gradientTransform="translate(-6 54) rotate(-90)" gradientUnits="userSpaceOnUse"><stop offset="0" stop-color="#96492d"/><stop offset="1" stop-color="#b35e3e" stop-opacity="0"/></linearGradient><linearGradient id="linear-gradient-5" x1="24" y1="17.5" x2="24" y2="42.9" gradientTransform="translate(-6 54) rotate(-90)" gradientUnits="userSpaceOnUse"><stop offset="0" stop-color="#eaecf7"/><stop offset="1" stop-color="#cdd3f1"/></linearGradient><linearGradient id="linear-gradient-6" x1="24" y1="31.231" x2="24" y2="42.954" gradientUnits="userSpaceOnUse"><stop offset="0" stop-color="#e2e5f4" stop-opacity="0"/><stop offset="1" stop-color="#9aa6e2"/></linearGradient><linearGradient id="linear-gradient-7" x1="31" y1="27.417" x2="31" y2="43.334" gradientUnits="userSpaceOnUse"><stop offset="0" stop-color="#36db39"/><stop offset="1" stop-color="#20b823"/></linearGradient><linearGradient id="linear-gradient-8" x1="31" y1="37.534" x2="31" y2="43.117" gradientUnits="userSpaceOnUse"><stop offset="0" stop-color="#20b823" stop-opacity="0"/><stop offset="1" stop-color="#198f1b"/></linearGradient><linearGradient id="linear-gradient-9" x1="15" y1="32.917" x2="15" y2="43.589" xlink:href="#linear-gradient-7"/><linearGradient id="linear-gradient-10" x1="17.404" y1="22.052" x2="20.237" y2="25.51" gradientUnits="userSpaceOnUse"><stop offset="0" stop-color="#ff4343"/><stop offset="1" stop-color="#e40000"/></linearGradient></defs><title>Furniture Gradient</title><g id="Picture"><path class="cls-1" d="M41,16a.994.994,0,0,1-.506-.138L24,6.16l-16.493,9.7a1,1,0,0,1-1.014-1.725l17-10a1,1,0,0,1,1.014,0l17,10A1,1,0,0,1,41,16Z"/><circle class="cls-2" cx="24" cy="5" r="2"/><rect class="cls-3" x="2" y="14" width="44" height="32" rx="2" ry="2"/><rect class="cls-4" x="10" y="10" width="28" height="40" rx="2" ry="2" transform="translate(54 6) rotate(90)"/><rect class="cls-5" x="11" y="11" width="26" height="38" rx="1" ry="1" transform="translate(54 6) rotate(90)"/><path class="cls-6" d="M5,31V42a1,1,0,0,0,1,1H42a1,1,0,0,0,1-1V31Z"/><path class="cls-7" d="M29.336,27.5,19,43H43L32.664,27.5A2,2,0,0,0,29.336,27.5Z"/><polygon class="cls-8" points="22.833 37.25 19 43 43 43 39.167 37.25 22.833 37.25"/><path class="cls-9" d="M13.464,32.844,5,43H25L16.536,32.844A2,2,0,0,0,13.464,32.844Z"/><circle class="cls-10" cx="19" cy="24" r="2"/></g></svg>