<svg xmlns="http://www.w3.org/2000/svg" xmlns:xlink="http://www.w3.org/1999/xlink" viewBox="0 0 48 48"><defs><style>.cls-1{fill:url(#linear-gradient);}.cls-2{fill:url(#linear-gradient-2);}.cls-3{fill:url(#linear-gradient-3);}.cls-4{fill:url(#linear-gradient-4);}.cls-5{fill:url(#linear-gradient-5);}.cls-6{fill:url(#linear-gradient-6);}.cls-7{fill:url(#linear-gradient-7);}.cls-8{fill:url(#linear-gradient-8);}</style><linearGradient id="linear-gradient" x1="24" y1="18.958" x2="24" y2="27.149" gradientUnits="userSpaceOnUse"><stop offset="0" stop-color="#e28b5a"/><stop offset="1" stop-color="#b35e3e"/></linearGradient><linearGradient id="linear-gradient-2" x1="24" y1="24.062" x2="24" y2="26.938" gradientUnits="userSpaceOnUse"><stop offset="0" stop-color="#b35e3e" stop-opacity="0"/><stop offset="1" stop-color="#96492d"/></linearGradient><linearGradient id="linear-gradient-3" x1="11.055" y1="7.25" x2="11.055" y2="46.197" xlink:href="#linear-gradient"/><linearGradient id="linear-gradient-4" x1="36.945" y1="7.25" x2="36.945" y2="46.197" xlink:href="#linear-gradient"/><linearGradient id="linear-gradient-5" x1="24" y1="2.219" x2="24" y2="7.679" gradientUnits="userSpaceOnUse"><stop offset="0" stop-color="#ffca4f"/><stop offset="1" stop-color="#f7ae30"/></linearGradient><linearGradient id="linear-gradient-6" x1="24" y1="4.146" x2="24" y2="7.786" gradientUnits="userSpaceOnUse"><stop offset="0" stop-color="#ffca4f" stop-opacity="0"/><stop offset="1" stop-color="#f4901f"/></linearGradient><linearGradient id="linear-gradient-7" x1="38.524" y1="38.051" x2="38.524" y2="46.041" xlink:href="#linear-gradient-2"/><linearGradient id="linear-gradient-8" x1="9.476" y1="38.051" x2="9.476" y2="46.041" xlink:href="#linear-gradient-2"/></defs><title>Furniture Gradient</title><g id="Stool_Stand" data-name="Stool Stand"><rect class="cls-1" x="12" y="23" width="24" height="4"/><rect class="cls-2" x="12" y="24" width="24" height="3"/><path class="cls-3" d="M10.1,46H8.111a1,1,0,0,1-.995-1.1L11,8V7h4V8L11.094,45.1A1,1,0,0,1,10.1,46Z"/><path class="cls-4" d="M37.9,46h1.989a1,1,0,0,0,.995-1.1L37,8V7H33V8l3.906,37.1A1,1,0,0,0,37.9,46Z"/><rect class="cls-5" x="7" y="2" width="34" height="6" rx="1" ry="1"/><path class="cls-6" d="M7,4H41a0,0,0,0,1,0,0V7a1,1,0,0,1-1,1H8A1,1,0,0,1,7,7V4A0,0,0,0,1,7,4Z"/><path class="cls-7" d="M36.158,38l.748,7.1a1,1,0,0,0,.995.9h1.989a1,1,0,0,0,.995-1.1L40.158,38Z"/><path class="cls-8" d="M7.842,38l-.726,6.9A1,1,0,0,0,8.111,46H10.1a1,1,0,0,0,.995-.9l.748-7.1Z"/></g></svg>