<svg xmlns="http://www.w3.org/2000/svg" xmlns:xlink="http://www.w3.org/1999/xlink" viewBox="0 0 48 48"><defs><style>.cls-1{fill:url(#linear-gradient);}.cls-2{fill:url(#linear-gradient-2);}.cls-3{fill:url(#linear-gradient-3);}.cls-4{fill:url(#linear-gradient-4);}.cls-5{fill:url(#linear-gradient-5);}.cls-6{fill:url(#linear-gradient-6);}.cls-7{fill:url(#linear-gradient-7);}.cls-8{fill:url(#linear-gradient-8);}.cls-9{fill:url(#linear-gradient-9);}.cls-10{fill:url(#linear-gradient-10);}</style><linearGradient id="linear-gradient" x1="24" y1="19.125" x2="24" y2="45.628" gradientUnits="userSpaceOnUse"><stop offset="0" stop-color="#ffca4f"/><stop offset="1" stop-color="#f7ae30"/></linearGradient><linearGradient id="linear-gradient-2" x1="24" y1="28" x2="24" y2="36.223" gradientTransform="translate(-8 56) rotate(-90)" gradientUnits="userSpaceOnUse"><stop offset="0" stop-color="#f4901f"/><stop offset="1" stop-color="#ffca4f" stop-opacity="0"/></linearGradient><linearGradient id="linear-gradient-3" y1="2" x2="24" y2="16.758" xlink:href="#linear-gradient"/><linearGradient id="linear-gradient-4" x1="24" y1="11.75" x2="24" y2="16.316" gradientUnits="userSpaceOnUse"><stop offset="0" stop-color="#ffca4f" stop-opacity="0"/><stop offset="1" stop-color="#f4901f"/></linearGradient><linearGradient id="linear-gradient-5" x1="24" y1="2" x2="24" y2="10.59" gradientUnits="userSpaceOnUse"><stop offset="0" stop-color="#ff4343"/><stop offset="1" stop-color="#e40000"/></linearGradient><linearGradient id="linear-gradient-6" x1="24" y1="29" x2="24" y2="35.167" gradientUnits="userSpaceOnUse"><stop offset="0" stop-color="#eaecf7"/><stop offset="1" stop-color="#cdd3f1"/></linearGradient><linearGradient id="linear-gradient-7" y1="16.063" x2="24" y2="20.002" xlink:href="#linear-gradient-5"/><linearGradient id="linear-gradient-8" y1="38.037" x2="24" y2="45.89" xlink:href="#linear-gradient-4"/><linearGradient id="linear-gradient-9" x1="24" y1="17.047" x2="24" y2="20.001" gradientUnits="userSpaceOnUse"><stop offset="0" stop-color="#ff4343" stop-opacity="0"/><stop offset="1" stop-color="#af0000"/></linearGradient><linearGradient id="linear-gradient-10" y1="7" x2="24" y2="11.959" xlink:href="#linear-gradient-9"/></defs><title>Furniture Gradient</title><g id="Bin"><path class="cls-1" d="M34.148,46h-20.3a2,2,0,0,1-1.994-1.847L10,20V19H38v1L36.142,44.153A2,2,0,0,1,34.148,46Z"/><rect class="cls-2" x="20" y="25" width="8" height="14" rx="2" ry="2" transform="translate(56 8) rotate(90)"/><path class="cls-3" d="M20,2h8A10,10,0,0,1,38,12v5a0,0,0,0,1,0,0H10a0,0,0,0,1,0,0V12A10,10,0,0,1,20,2Z"/><path class="cls-4" d="M10.013,11.75c0,.084-.013.166-.013.25v5H38V12c0-.084-.011-.166-.013-.25Z"/><path class="cls-5" d="M19,11H29a1,1,0,0,0,1-1V2.2A10.042,10.042,0,0,0,28,2H20a10.042,10.042,0,0,0-2,.2V10A1,1,0,0,0,19,11Z"/><rect class="cls-6" x="18" y="29" width="12" height="6" rx="1" ry="1"/><rect class="cls-7" x="8" y="16" width="32" height="4" rx="1" ry="1"/><path class="cls-8" d="M11.385,38l.473,6.153A2,2,0,0,0,13.852,46h20.3a2,2,0,0,0,1.994-1.847L36.615,38Z"/><path class="cls-9" d="M8,19a1,1,0,0,0,1,1H39a1,1,0,0,0,1-1V17H8Z"/><path class="cls-10" d="M18,7v3a1,1,0,0,0,1,1H29a1,1,0,0,0,1-1V7Z"/></g></svg>