<svg xmlns="http://www.w3.org/2000/svg" xmlns:xlink="http://www.w3.org/1999/xlink" viewBox="0 0 48 48"><defs><style>.cls-1{fill:url(#linear-gradient);}.cls-2{fill:url(#linear-gradient-2);}.cls-3{fill:url(#linear-gradient-3);}.cls-4{fill:url(#linear-gradient-4);}.cls-5{fill:url(#linear-gradient-5);}.cls-6{fill:url(#linear-gradient-6);}.cls-7{fill:url(#linear-gradient-7);}.cls-8{fill:url(#linear-gradient-8);}.cls-9{fill:url(#linear-gradient-9);}.cls-10{fill:url(#linear-gradient-10);}.cls-11{fill:url(#linear-gradient-11);}.cls-12{fill:url(#linear-gradient-12);}.cls-13{fill:url(#linear-gradient-13);}.cls-14{fill:url(#linear-gradient-14);}.cls-15{fill:url(#linear-gradient-15);}.cls-16{fill:url(#linear-gradient-16);}.cls-17{fill:url(#linear-gradient-17);}.cls-18{fill:url(#linear-gradient-18);}</style><linearGradient id="linear-gradient" x1="24" y1="3.875" x2="24" y2="43.138" gradientUnits="userSpaceOnUse"><stop offset="0" stop-color="#e28b5a"/><stop offset="1" stop-color="#b35e3e"/></linearGradient><linearGradient id="linear-gradient-2" x1="24" y1="32.966" x2="24" y2="43.763" gradientUnits="userSpaceOnUse"><stop offset="0" stop-color="#b35e3e" stop-opacity="0"/><stop offset="1" stop-color="#96492d"/></linearGradient><linearGradient id="linear-gradient-3" x1="24" y1="2" x2="24" y2="4.969" gradientUnits="userSpaceOnUse"><stop offset="0" stop-color="#ffca4f"/><stop offset="1" stop-color="#f7ae30"/></linearGradient><linearGradient id="linear-gradient-4" x1="24" y1="43.167" x2="24" y2="46" xlink:href="#linear-gradient-3"/><linearGradient id="linear-gradient-5" x1="15.5" y1="8.417" x2="15.5" y2="22.994" gradientUnits="userSpaceOnUse"><stop offset="0" stop-color="#96492d"/><stop offset="1" stop-color="#b35e3e" stop-opacity="0"/></linearGradient><linearGradient id="linear-gradient-6" x1="32.5" y1="8.25" x2="32.5" y2="22.888" xlink:href="#linear-gradient-5"/><linearGradient id="linear-gradient-7" x1="32.5" y1="25.188" x2="32.5" y2="39.877" xlink:href="#linear-gradient-5"/><linearGradient id="linear-gradient-8" x1="15.5" y1="25.25" x2="15.5" y2="39.731" xlink:href="#linear-gradient-5"/><linearGradient id="linear-gradient-9" x1="15.5" y1="9.361" x2="15.5" y2="21.995" gradientUnits="userSpaceOnUse"><stop offset="0" stop-color="#eaecf7"/><stop offset="1" stop-color="#cdd3f1"/></linearGradient><linearGradient id="linear-gradient-10" x1="15.5" y1="18.111" x2="15.5" y2="21.998" gradientUnits="userSpaceOnUse"><stop offset="0" stop-color="#e2e5f4" stop-opacity="0"/><stop offset="1" stop-color="#9aa6e2"/></linearGradient><linearGradient id="linear-gradient-11" x1="32.5" y1="9.361" x2="32.5" y2="21.995" xlink:href="#linear-gradient-9"/><linearGradient id="linear-gradient-12" x1="32.5" y1="18.111" x2="32.5" y2="21.998" xlink:href="#linear-gradient-10"/><linearGradient id="linear-gradient-13" x1="15.5" y1="26.361" x2="15.5" y2="38.995" xlink:href="#linear-gradient-9"/><linearGradient id="linear-gradient-14" x1="32.5" y1="26.361" x2="32.5" y2="38.995" xlink:href="#linear-gradient-9"/><linearGradient id="linear-gradient-15" x1="24" y1="3" x2="24" y2="5.417" gradientUnits="userSpaceOnUse"><stop offset="0" stop-color="#ffca4f" stop-opacity="0"/><stop offset="1" stop-color="#f4901f"/></linearGradient><linearGradient id="linear-gradient-16" y1="44" x2="24" y2="46.188" xlink:href="#linear-gradient-15"/><linearGradient id="linear-gradient-17" x1="15.5" y1="35.111" x2="15.5" y2="38.998" xlink:href="#linear-gradient-10"/><linearGradient id="linear-gradient-18" x1="32.5" y1="35.111" x2="32.5" y2="38.998" xlink:href="#linear-gradient-10"/></defs><title>Furniture Gradient</title><g id="Window"><rect class="cls-1" x="5" y="4" width="38" height="40"/><rect class="cls-2" x="5" y="33" width="38" height="11"/><rect class="cls-3" x="2" y="2" width="44" height="3" rx="1" ry="1"/><rect class="cls-4" x="2" y="43" width="44" height="3" rx="1" ry="1"/><rect class="cls-5" x="8" y="8" width="15" height="15" rx="1" ry="1"/><rect class="cls-6" x="25" y="8" width="15" height="15" rx="1" ry="1"/><rect class="cls-7" x="25" y="25" width="15" height="15" rx="1" ry="1"/><rect class="cls-8" x="8" y="25" width="15" height="15" rx="1" ry="1"/><rect class="cls-9" x="9" y="9" width="13" height="13"/><rect class="cls-10" x="9" y="18" width="13" height="4"/><rect class="cls-11" x="26" y="9" width="13" height="13"/><rect class="cls-12" x="26" y="18" width="13" height="4"/><rect class="cls-13" x="9" y="26" width="13" height="13"/><rect class="cls-14" x="26" y="26" width="13" height="13"/><path class="cls-15" d="M2,4A1,1,0,0,0,3,5H45a1,1,0,0,0,1-1V3H2Z"/><path class="cls-16" d="M2,45a1,1,0,0,0,1,1H45a1,1,0,0,0,1-1V44H2Z"/><rect class="cls-17" x="9" y="35" width="13" height="4"/><rect class="cls-18" x="26" y="35" width="13" height="4"/></g></svg>