<svg xmlns="http://www.w3.org/2000/svg" xmlns:xlink="http://www.w3.org/1999/xlink" viewBox="0 0 48 48"><defs><style>.cls-1{fill:url(#linear-gradient);}.cls-2{fill:url(#linear-gradient-2);}.cls-3{fill:url(#linear-gradient-3);}.cls-4{fill:url(#linear-gradient-4);}.cls-5{fill:url(#linear-gradient-5);}.cls-6{fill:url(#linear-gradient-6);}</style><linearGradient id="linear-gradient" x1="10" y1="40.875" x2="10" y2="46.189" gradientUnits="userSpaceOnUse"><stop offset="0" stop-color="#e28b5a"/><stop offset="1" stop-color="#b35e3e"/></linearGradient><linearGradient id="linear-gradient-2" x1="38" x2="38" y2="46.189" xlink:href="#linear-gradient"/><linearGradient id="linear-gradient-3" x1="24" y1="2.25" x2="24" y2="41.63" gradientUnits="userSpaceOnUse"><stop offset="0" stop-color="#ffca4f"/><stop offset="1" stop-color="#f7ae30"/></linearGradient><linearGradient id="linear-gradient-4" x1="24" y1="33.056" x2="24" y2="41.917" gradientUnits="userSpaceOnUse"><stop offset="0" stop-color="#ffca4f" stop-opacity="0"/><stop offset="1" stop-color="#f4901f"/></linearGradient><linearGradient id="linear-gradient-5" x1="38.125" y1="42.925" x2="38.125" y2="46.113" gradientUnits="userSpaceOnUse"><stop offset="0" stop-color="#b35e3e" stop-opacity="0"/><stop offset="1" stop-color="#96492d"/></linearGradient><linearGradient id="linear-gradient-6" x1="9.875" y1="42.925" x2="9.875" y2="46.113" xlink:href="#linear-gradient-5"/></defs><title>Furniture Gradient</title><g id="Rack"><path class="cls-1" d="M10.219,46H8V41h4v1l-.811,3.243A1,1,0,0,1,10.219,46Z"/><path class="cls-2" d="M37.781,46H40V41H36v1l.811,3.243A1,1,0,0,0,37.781,46Z"/><path class="cls-3" d="M42,2H6A4,4,0,0,0,2,6V38a4,4,0,0,0,4,4H42a4,4,0,0,0,4-4V6A4,4,0,0,0,42,2Zm0,36H6V26H42Zm0-16H6V6H42Z"/><path class="cls-4" d="M42,33v5H6V33H2v5a4,4,0,0,0,4,4H42a4,4,0,0,0,4-4V33Z"/><path class="cls-5" d="M36.25,43l.561,2.242a1,1,0,0,0,.97.758H40V43Z"/><path class="cls-6" d="M8,43v3h2.219a1,1,0,0,0,.97-.758L11.75,43Z"/></g></svg>