<svg xmlns="http://www.w3.org/2000/svg" xmlns:xlink="http://www.w3.org/1999/xlink" viewBox="0 0 48 48"><defs><style>.cls-1{fill:url(#linear-gradient);}.cls-2{fill:url(#linear-gradient-2);}.cls-3{fill:url(#linear-gradient-3);}.cls-4{fill:url(#linear-gradient-4);}.cls-5{fill:url(#linear-gradient-5);}.cls-6{fill:url(#linear-gradient-6);}.cls-7{fill:url(#linear-gradient-7);}</style><linearGradient id="linear-gradient" x1="24" y1="2.125" x2="24" y2="43.028" gradientUnits="userSpaceOnUse"><stop offset="0" stop-color="#e28b5a"/><stop offset="1" stop-color="#b35e3e"/></linearGradient><linearGradient id="linear-gradient-2" x1="24" y1="35.027" x2="24" y2="43.792" gradientUnits="userSpaceOnUse"><stop offset="0" stop-color="#b35e3e" stop-opacity="0"/><stop offset="1" stop-color="#96492d"/></linearGradient><linearGradient id="linear-gradient-3" x1="24" y1="3.736" x2="24" y2="42.116" gradientTransform="translate(0.5 47.5) rotate(-90)" gradientUnits="userSpaceOnUse"><stop offset="0" stop-color="#96492d"/><stop offset="1" stop-color="#b35e3e" stop-opacity="0"/></linearGradient><linearGradient id="linear-gradient-4" x1="24" y1="4.75" x2="24" y2="41.161" gradientTransform="translate(0.5 47.5) rotate(-90)" gradientUnits="userSpaceOnUse"><stop offset="0" stop-color="#ffca4f"/><stop offset="1" stop-color="#f7ae30"/></linearGradient><linearGradient id="linear-gradient-5" x1="24" y1="42.042" x2="24" y2="46.13" gradientUnits="userSpaceOnUse"><stop offset="0" stop-color="#3f4c56"/><stop offset="1" stop-color="#27333e"/></linearGradient><linearGradient id="linear-gradient-6" x1="15.5" y1="18.063" x2="15.5" y2="26.519" xlink:href="#linear-gradient"/><linearGradient id="linear-gradient-7" x1="24" y1="43.34" x2="24" y2="46.088" gradientUnits="userSpaceOnUse"><stop offset="0" stop-color="#3f4c56" stop-opacity="0"/><stop offset="1" stop-color="#141414"/></linearGradient></defs><title>Furniture Gradient</title><g id="Door"><path class="cls-1" d="M10,2H38a2,2,0,0,1,2,2V44a0,0,0,0,1,0,0H8a0,0,0,0,1,0,0V4A2,2,0,0,1,10,2Z"/><rect class="cls-2" x="8" y="35" width="32" height="9"/><path class="cls-3" d="M6.5,9.5h37a0,0,0,0,1,0,0v28a0,0,0,0,1,0,0H6.5a2,2,0,0,1-2-2v-24A2,2,0,0,1,6.5,9.5Z" transform="translate(47.5 -0.5) rotate(90)"/><path class="cls-4" d="M6.5,10.5h36a0,0,0,0,1,0,0v26a0,0,0,0,1,0,0H6.5a1,1,0,0,1-1-1v-24A1,1,0,0,1,6.5,10.5Z" transform="translate(47.5 -0.5) rotate(90)"/><rect class="cls-5" x="5" y="42" width="38" height="4" rx="1.241" ry="1.241"/><path class="cls-6" d="M15,26a1,1,0,0,1,0-2h0V20a1,1,0,0,1,0-2,2,2,0,0,1,2,2v4A2,2,0,0,1,15,26Z"/><path class="cls-7" d="M5,43.313v1.447A1.241,1.241,0,0,0,6.241,46H41.759A1.241,1.241,0,0,0,43,44.759V43.313Z"/></g></svg>