<svg xmlns="http://www.w3.org/2000/svg" xmlns:xlink="http://www.w3.org/1999/xlink" viewBox="0 0 48 48"><defs><style>.cls-1{fill:url(#linear-gradient);}.cls-2{fill:url(#linear-gradient-2);}.cls-3{fill:url(#linear-gradient-3);}.cls-4{fill:url(#linear-gradient-4);}.cls-5{fill:url(#linear-gradient-5);}.cls-6{fill:url(#linear-gradient-6);}.cls-7{fill:url(#linear-gradient-7);}.cls-8{fill:url(#linear-gradient-8);}</style><linearGradient id="linear-gradient" x1="13" y1="30.125" x2="13" y2="45.63" gradientUnits="userSpaceOnUse"><stop offset="0" stop-color="#e28b5a"/><stop offset="1" stop-color="#b35e3e"/></linearGradient><linearGradient id="linear-gradient-2" x1="35" x2="35" y2="45.63" xlink:href="#linear-gradient"/><linearGradient id="linear-gradient-3" x1="24" y1="26.083" x2="24" y2="33.512" gradientUnits="userSpaceOnUse"><stop offset="0" stop-color="#36db39"/><stop offset="1" stop-color="#20b823"/></linearGradient><linearGradient id="linear-gradient-4" x1="24" y1="2.5" x2="24" y2="26.027" xlink:href="#linear-gradient-3"/><linearGradient id="linear-gradient-5" x1="24" y1="21.104" x2="24" y2="27.32" gradientUnits="userSpaceOnUse"><stop offset="0" stop-color="#20b823" stop-opacity="0"/><stop offset="1" stop-color="#198f1b"/></linearGradient><linearGradient id="linear-gradient-6" y1="28.06" x2="24" y2="33.365" xlink:href="#linear-gradient-5"/><linearGradient id="linear-gradient-7" x1="11.867" y1="37.318" x2="11.867" y2="45.797" gradientUnits="userSpaceOnUse"><stop offset="0" stop-color="#b35e3e" stop-opacity="0"/><stop offset="1" stop-color="#96492d"/></linearGradient><linearGradient id="linear-gradient-8" x1="36.133" y1="37.318" x2="36.133" y2="45.797" xlink:href="#linear-gradient-7"/></defs><title>Furniture Gradient</title><g id="Chair"><path class="cls-1" d="M17,30H12L9,46h1.53a2,2,0,0,0,1.909-1.4Z"/><path class="cls-2" d="M31,30h5l3,16H37.47a2,2,0,0,1-1.909-1.4Z"/><rect class="cls-3" x="7" y="26" width="34" height="7" rx="2" ry="2"/><path class="cls-4" d="M30.479,2H17.521a6,6,0,0,0-5.979,5.5L10,26H38L36.458,7.5A6,6,0,0,0,30.479,2Z"/><polygon class="cls-5" points="10.417 21 10 26 38 26 37.583 21 10.417 21"/><path class="cls-6" d="M7,31a2,2,0,0,0,2,2H39a2,2,0,0,0,2-2V28H7Z"/><path class="cls-7" d="M10.641,37.25,9,46h1.53a2,2,0,0,0,1.909-1.4l2.3-7.347Z"/><path class="cls-8" d="M33.266,37.25l2.3,7.347A2,2,0,0,0,37.47,46H39l-1.641-8.75Z"/></g></svg>