<svg xmlns="http://www.w3.org/2000/svg" xmlns:xlink="http://www.w3.org/1999/xlink" viewBox="0 0 48 48"><defs><style>.cls-1{fill:url(#linear-gradient);}.cls-2{fill:url(#linear-gradient-2);}.cls-3{fill:url(#linear-gradient-3);}.cls-4{fill:url(#linear-gradient-4);}.cls-5{fill:url(#linear-gradient-5);}.cls-6{fill:url(#linear-gradient-6);}.cls-7{fill:url(#linear-gradient-7);}.cls-8{fill:url(#linear-gradient-8);}</style><linearGradient id="linear-gradient" x1="24" y1="16.938" x2="24" y2="20.318" gradientUnits="userSpaceOnUse"><stop offset="0" stop-color="#ffca4f"/><stop offset="1" stop-color="#f7ae30"/></linearGradient><linearGradient id="linear-gradient-2" x1="24" y1="17.958" x2="24" y2="20.212" gradientUnits="userSpaceOnUse"><stop offset="0" stop-color="#ffca4f" stop-opacity="0"/><stop offset="1" stop-color="#f4901f"/></linearGradient><linearGradient id="linear-gradient-3" x1="24" y1="33.792" x2="24" y2="37.138" xlink:href="#linear-gradient"/><linearGradient id="linear-gradient-4" y1="34.958" x2="24" y2="37.212" xlink:href="#linear-gradient-2"/><linearGradient id="linear-gradient-5" x1="4" y1="6.417" x2="4" y2="41.838" gradientUnits="userSpaceOnUse"><stop offset="0" stop-color="#e28b5a"/><stop offset="1" stop-color="#b35e3e"/></linearGradient><linearGradient id="linear-gradient-6" x1="44" y1="6.417" x2="44" y2="41.838" xlink:href="#linear-gradient-5"/><linearGradient id="linear-gradient-7" x1="44" y1="34.093" x2="44" y2="41.964" gradientUnits="userSpaceOnUse"><stop offset="0" stop-color="#b35e3e" stop-opacity="0"/><stop offset="1" stop-color="#96492d"/></linearGradient><linearGradient id="linear-gradient-8" x1="4" y1="34.093" x2="4" y2="41.964" xlink:href="#linear-gradient-7"/></defs><title>Furniture Gradient</title><g id="Shoe_Rack" data-name="Shoe Rack"><rect class="cls-1" x="5" y="17" width="38" height="3"/><rect class="cls-2" x="5" y="18" width="38" height="2"/><rect class="cls-3" x="5" y="34" width="38" height="3"/><rect class="cls-4" x="5" y="35" width="38" height="2"/><rect class="cls-5" x="2" y="6" width="4" height="36" rx="1" ry="1"/><rect class="cls-6" x="42" y="6" width="4" height="36" rx="1" ry="1"/><path class="cls-7" d="M42,34v7a1,1,0,0,0,1,1h2a1,1,0,0,0,1-1V34Z"/><path class="cls-8" d="M2,34v7a1,1,0,0,0,1,1H5a1,1,0,0,0,1-1V34Z"/></g></svg>