<svg xmlns="http://www.w3.org/2000/svg" xmlns:xlink="http://www.w3.org/1999/xlink" viewBox="0 0 48 48"><defs><style>.cls-1{fill:url(#linear-gradient);}.cls-2{fill:url(#linear-gradient-2);}.cls-3{fill:url(#linear-gradient-3);}.cls-4{fill:url(#linear-gradient-4);}.cls-5{fill:url(#linear-gradient-6);}.cls-6{fill:url(#linear-gradient-7);}.cls-7{fill:url(#linear-gradient-8);}.cls-8{fill:url(#linear-gradient-9);}.cls-9{fill:url(#linear-gradient-10);}.cls-10{fill:url(#linear-gradient-11);}.cls-11{fill:url(#linear-gradient-12);}.cls-12{fill:url(#linear-gradient-13);}.cls-13{fill:url(#linear-gradient-14);}.cls-14{fill:url(#linear-gradient-15);}.cls-15{fill:url(#linear-gradient-16);}</style><linearGradient id="linear-gradient" x1="42.526" y1="19.847" x2="39.401" y2="16.785" gradientTransform="translate(23.352 -22.92) rotate(45)" gradientUnits="userSpaceOnUse"><stop offset="0" stop-color="#ffca4f"/><stop offset="1" stop-color="#f7ae30"/></linearGradient><linearGradient id="linear-gradient-2" x1="7.856" y1="24.659" x2="23.669" y2="39.347" gradientUnits="userSpaceOnUse"><stop offset="0" stop-color="#eaecf7"/><stop offset="1" stop-color="#cdd3f1"/></linearGradient><linearGradient id="linear-gradient-3" x1="17.648" y1="33.708" x2="23.594" y2="39.232" gradientUnits="userSpaceOnUse"><stop offset="0" stop-color="#e2e5f4" stop-opacity="0"/><stop offset="1" stop-color="#9aa6e2"/></linearGradient><linearGradient id="linear-gradient-4" x1="26.666" y1="4.883" x2="7.854" y2="21.571" xlink:href="#linear-gradient-2"/><linearGradient id="linear-gradient-6" x1="14.06" y1="15.902" x2="8.619" y2="20.728" xlink:href="#linear-gradient-3"/><linearGradient id="linear-gradient-7" x1="24" y1="42.125" x2="24" y2="46.125" gradientUnits="userSpaceOnUse"><stop offset="0" stop-color="#ff4343"/><stop offset="1" stop-color="#e40000"/></linearGradient><linearGradient id="linear-gradient-8" x1="3.664" y1="20.025" x2="10.32" y2="26.463" gradientUnits="userSpaceOnUse"><stop offset="0" stop-color="#9aa6e2"/><stop offset="1" stop-color="#7283d6"/></linearGradient><linearGradient id="linear-gradient-9" x1="25.423" y1="2.743" x2="29.215" y2="6.618" gradientTransform="translate(11.685 -18.088) rotate(45)" xlink:href="#linear-gradient-8"/><linearGradient id="linear-gradient-10" x1="26.828" y1="4.178" x2="29.492" y2="6.901" gradientUnits="userSpaceOnUse"><stop offset="0" stop-color="#7283d6" stop-opacity="0"/><stop offset="1" stop-color="#4d62cb"/></linearGradient><linearGradient id="linear-gradient-11" x1="28.813" y1="6.583" x2="39.063" y2="16.458" xlink:href="#linear-gradient-7"/><linearGradient id="linear-gradient-12" x1="24" y1="36.25" x2="24" y2="42.69" xlink:href="#linear-gradient-8"/><linearGradient id="linear-gradient-13" x1="33.857" y1="11.442" x2="41.174" y2="18.492" gradientUnits="userSpaceOnUse"><stop offset="0" stop-color="#ff4343" stop-opacity="0"/><stop offset="1" stop-color="#af0000"/></linearGradient><linearGradient id="linear-gradient-14" x1="24" y1="43.255" x2="24" y2="46.089" xlink:href="#linear-gradient-13"/><linearGradient id="linear-gradient-15" x1="24" y1="39.206" x2="24" y2="42.094" xlink:href="#linear-gradient-10"/><linearGradient id="linear-gradient-16" x1="7.448" y1="23.685" x2="10.303" y2="26.446" xlink:href="#linear-gradient-10"/></defs><title>Furniture Gradient</title><g id="Desk_Lamp-2" data-name="Desk Lamp"><circle class="cls-1" cx="39.343" cy="16.728" r="4" transform="translate(-0.305 32.719) rotate(-45)"/><polygon class="cls-2" points="29.749 42.172 26.92 45 5 24.828 7.828 22 29.749 42.172"/><polygon class="cls-3" points="18.333 31.667 15.505 34.495 26.92 45 29.749 42.172 18.333 31.667"/><polygon class="cls-4" points="26.92 2.251 29.749 5.08 7.828 24 5 21.172 26.92 2.251"/><polygon class="cls-4" points="26.92 2.251 29.749 5.08 7.828 24 5 21.172 26.92 2.251"/><polygon class="cls-5" points="13.126 14.157 5 21.172 7.828 24 16.053 16.901 13.126 14.157"/><path class="cls-6" d="M34,42H14a4,4,0,0,0-4,4H38A4,4,0,0,0,34,42Z"/><circle class="cls-7" cx="7" cy="23.251" r="4"/><path class="cls-8" d="M27.676,1.561h0a2,2,0,0,1,2,2v5a0,0,0,0,1,0,0h-4a0,0,0,0,1,0,0v-5a2,2,0,0,1,2-2Z" transform="translate(4.528 21.052) rotate(-45)"/><polygon class="cls-9" points="25.247 5.461 28.737 8.95 31.565 6.121 28.333 2.889 25.247 5.461"/><path class="cls-10" d="M45,11.071,33.686,22.385l-5.712-8.568a6.1,6.1,0,0,1,.762-7.7h0a6.1,6.1,0,0,1,7.7-.762Z"/><path class="cls-11" d="M24,37h0a5,5,0,0,1,5,5v0a0,0,0,0,1,0,0H19a0,0,0,0,1,0,0v0A5,5,0,0,1,24,37Z"/><polygon class="cls-12" points="38.784 6.927 29.332 15.853 33.686 22.385 45 11.071 38.784 6.927"/><path class="cls-13" d="M36.822,43.167H11.178A3.987,3.987,0,0,0,10,46H38A3.987,3.987,0,0,0,36.822,43.167Z"/><path class="cls-14" d="M20.023,39A4.955,4.955,0,0,0,19,42H29a4.955,4.955,0,0,0-1.023-3Z"/><path class="cls-15" d="M9.691,20.309,4.058,25.942a3.988,3.988,0,1,0,5.633-5.633Z"/></g></svg>