<?xml version="1.0" encoding="utf-8"?>
<!-- Generator: Adobe Illustrator 19.0.0, SVG Export Plug-In . SVG Version: 6.00 Build 0)  -->
<svg version="1.1" xmlns="http://www.w3.org/2000/svg" xmlns:xlink="http://www.w3.org/1999/xlink" x="0px" y="0px"
	 viewBox="0 0 362.2 346.4" style="enable-background:new 0 0 362.2 346.4;" xml:space="preserve">
<style type="text/css">
	.st0{fill:#1D1D1B;}
</style>
<g id="background">
</g>
<g id="icons">
	<path class="st0" d="M68.2,29.6l19.4,181.8l0,0.1l0,0c0,0.1,0,0.1,0,0.2l0,0.3h0c0,0.1,0,0.1,0,0.2l0,0.2l0,0l0,0l1.2,11l0,0
		c0.3,2.7,2.1,5.1,4.8,6.8c3,1.9,7.1,2.8,11.4,2.4c0.1,0,0.2,0,0.4,0l0,0v0l151.9-16.3c4.4-0.5,8.2-2.3,10.8-4.8
		c2.3-2.2,3.5-4.9,3.2-7.6l-1.2-11c-0.3-2.7-2.1-5.1-4.8-6.8c-3.1-1.9-7.2-2.9-11.6-2.4L124,197.6c-2.9,0.3-5.5-1.8-5.8-4.7
		L100.4,26.2c-0.5-4.8-2.8-8.9-6.1-11.7c-3.2-2.7-7.3-4.2-11.6-3.8l-0.2,0l0,0l0,0l-0.1,0l0,0c-4.4,0.5-8.1,2.8-10.7,6.2
		c-2.6,3.4-4,7.9-3.5,12.7L68.2,29.6L68.2,29.6L68.2,29.6L68.2,29.6L68.2,29.6z M250.4,227.7l-143.9,15.4l0,0l-0.1,0l0,0l0,0l-0.1,0
		c-1.9,0.2-3.7,0.2-5.5,0l-37.5,66.7c7.2,3.5,14.6,6.6,22.3,9.4c28.9,10.6,61.4,16.5,95.7,16.5c34.3,0,66.8-5.9,95.7-16.5
		c1.3-0.5,2.6-1,3.9-1.5L250.4,227.7z M124.3,150.6l3.7,35c0.3,0.3,0.6,0.5,0.8,0.8l103.5-11.1c-3.8-9.2-8.4-16.8-16.1-21.9
		c-11.6-7.7-30.8-10.5-65.6-5.8l-0.1,0v0L124.3,150.6z M77.1,212.5L57.7,30.8h0l0,0c0-0.1,0-0.1,0-0.2c-0.8-7.5,1.5-14.7,5.6-20.1
		C67.6,4.8,73.9,1,81.2,0.2l0,0l0,0c0.1,0,0.3,0,0.4,0c7.3-0.7,14.1,1.8,19.4,6.2c5.3,4.5,9,11.1,9.8,18.7l12.3,115.1l26.2-2.9v0
		c37.6-5,59-1.6,72.7,7.5c10.9,7.2,16.6,17.5,21.2,29.5l9.4-1c6.8-0.7,13.4,0.8,18.3,3.9c5.4,3.4,9,8.5,9.7,14.6l1.2,11
		c0.7,6.1-1.8,11.9-6.4,16.3c-3.7,3.6-8.7,6.2-14.4,7.3l29.4,87.3c24.2-10.6,45.5-24.5,62.8-41c2.1-2,5.5-1.9,7.5,0.2
		c2,2.1,1.9,5.5-0.2,7.5c-21.5,20.5-48.8,37.2-80.1,48.7c-30.1,11-63.8,17.2-99.3,17.2c-35.6,0-69.3-6.2-99.3-17.2
		C50.5,317.7,23.1,301,1.6,280.5c-2.1-2-2.2-5.4-0.2-7.5c2-2.1,5.4-2.2,7.5-0.2c12.8,12.3,27.9,23.1,44.8,32.2l36.4-64.7
		c-0.7-0.3-1.4-0.7-2-1.1c-5.3-3.3-9-8.4-9.7-14.5c0-0.1,0-0.2,0-0.3l-1.2-10.8c0-0.1,0-0.2,0-0.3l0,0l0,0h0l0-0.1l0-0.2
		c0-0.1,0-0.2,0-0.3l0,0L77.1,212.5z"/>
</g>
</svg>
