<?xml version="1.0" encoding="utf-8"?>
<!-- Generator: Adobe Illustrator 19.0.0, SVG Export Plug-In . SVG Version: 6.00 Build 0)  -->
<svg version="1.1" xmlns="http://www.w3.org/2000/svg" xmlns:xlink="http://www.w3.org/1999/xlink" x="0px" y="0px"
	 viewBox="0 0 413.4 399.7" style="enable-background:new 0 0 413.4 399.7;" xml:space="preserve">
<style type="text/css">
	.st0{fill:#1D1D1B;}
</style>
<g id="background">
</g>
<g id="icons">
	<path class="st0" d="M273.5,122.1H289V94.9h-15.4V122.1z M289,209.2H175.5v27.2H289V209.2z M211.7,198.3H289v-27.2h-47.9
		c-0.2,0-0.3,0-0.5,0h-28.9V198.3z M289,285.4h-162H97.9v27.2H289V285.4z M68.3,350.7H289v-27.2H88.6H68.3V350.7z M299.8,89.5v38.1
		v0v38.1v38.1v38.1v38.1V318v38.1v32.7h23.9V115.3v-99h-23.9V89.5z M30.8,361.6v27.2H289v-27.2H59.1h0H30.8z M132.5,247.3l0,27.2
		H289v-27.2H170.1H132.5z M235.7,127.5V32L132.4,143.9l0.1,92.6h32.2v-32.7c0-3,2.4-5.4,5.4-5.4h30.8v-32.7c0-3,2.4-5.4,5.4-5.4
		c0.2,0,0.3,0,0.5,0h28.9L235.7,127.5L235.7,127.5z M246.5,157.9L246.5,157.9l0,2.3H289V133h-20.9l-0.1,0h-21.4V157.9z M397.1,16.2
		h-62.5V99L397.1,16.2z M329.3,5.4H408c3,0,5.4,2.4,5.4,5.4c0,1.3-0.5,2.6-1.3,3.5l-77.5,102.7v277.2c0,3-2.4,5.4-5.4,5.4h-34.8
		H25.3c-3,0-5.4-2.4-5.4-5.4v-38.1l0-0.1v-90.5L9.4,276.9c-2,2.2-5.5,2.3-7.7,0.3c-2.2-2-2.3-5.5-0.3-7.7L248.9,1.7
		c2-2.2,5.5-2.3,7.7-0.3c2.2,2,2.3,5.5,0.3,7.7l-10.4,11.2c0,0.2,0,0.4,0,0.6v101.3h16.1V89.5c0-3,2.4-5.4,5.4-5.4H289V10.8
		c0-3,2.4-5.4,5.4-5.4h34.8L329.3,5.4z M121.7,240.6l-0.1-85l-90.8,98.3c0,0.1,0,0.3,0,0.4v96.4h26.7V318c0-3,2.4-5.4,5.4-5.4H87
		v-32.7c0-3,2.4-5.4,5.4-5.4h29.1v-32.7C121.5,241.4,121.6,241,121.7,240.6z"/>
</g>
</svg>
