<?xml version="1.0" encoding="utf-8"?>
<!-- Generator: Adobe Illustrator 19.0.0, SVG Export Plug-In . SVG Version: 6.00 Build 0)  -->
<svg version="1.1" xmlns="http://www.w3.org/2000/svg" xmlns:xlink="http://www.w3.org/1999/xlink" x="0px" y="0px"
	 viewBox="0 0 149.7 400" style="enable-background:new 0 0 149.7 400;" xml:space="preserve">
<style type="text/css">
	.st0{fill:#1D1D1B;}
</style>
<g id="background">
</g>
<g id="icons">
	<path class="st0" d="M50.7,154.7h48.2L89.8,10.6H59.9L50.7,154.7z M40.1,154.7l9.2-144.1H26L11.2,154.7H40.1z M100.4,10.6
		l9.2,144.1h29L123.7,10.6H100.4z M54.9,0h39.8h33.7c2.9,0,5.2,2.3,5.3,5.1l15.9,154.3c0.3,2.9-1.8,5.5-4.7,5.8c-0.2,0-0.4,0-0.5,0
		v0h-19.7v56c0,2.9-2.4,5.3-5.3,5.3c-2.9,0-5.3-2.4-5.3-5.3v-56h-34v199h42.3c1.9-0.1,3.8,0.7,4.9,2.4l15.8,24.9
		c0.6,0.8,0.9,1.9,0.9,3c0,2.9-2.4,5.3-5.3,5.3H11v0c-1,0-2-0.3-2.8-0.8c-2.5-1.6-3.2-4.8-1.6-7.3l15.9-25.1l0,0
		c0.9-1.5,2.6-2.5,4.5-2.5h42.7v-199H5.3c-2.9,0-5.3-2.4-5.3-5.3c0-0.3,0-0.6,0.1-0.9L15.9,4.8C16.2,2,18.5,0,21.2,0v0H54.9z
		 M20.6,389.4h108.5l-9.2-14.5H29.8L20.6,389.4z"/>
</g>
</svg>
