<?xml version="1.0" encoding="utf-8"?>
<!-- Generator: Adobe Illustrator 19.0.0, SVG Export Plug-In . SVG Version: 6.00 Build 0)  -->
<svg version="1.1" xmlns="http://www.w3.org/2000/svg" xmlns:xlink="http://www.w3.org/1999/xlink" x="0px" y="0px"
	 viewBox="0 0 306.1 280.4" style="enable-background:new 0 0 306.1 280.4;" xml:space="preserve">
<style type="text/css">
	.st0{fill:#1D1D1B;}
</style>
<g id="background">
</g>
<g id="icons">
	<path class="st0" d="M142.7,234.8h21.9c4.2-3.4,9.5-12.3,13.6-22.2c2.4-5.7,4.3-11.6,5.3-16.9l-8.5,6c-1.2,1-2.9,1.4-4.6,1
		c-2.8-0.7-4.6-3.5-3.9-6.4c4.7-19.4,3-32.8-1.4-42.6c-2.8-6.1-6.7-11-10.9-14.9c-2,11.2-5.5,20.2-8.6,28.3
		c-4,10.4-7.5,19.3-5.7,29.2c0.4,1.9-0.3,4-1.9,5.3c-2.3,1.8-5.6,1.4-7.4-1l-8.8-11.4c-0.3,6.5,0.8,14.2,3.4,21.7
		C128.5,220.3,134.2,229.2,142.7,234.8L142.7,234.8z M24.3,234.8V45.5h-19c-2.9,0-5.3-2.4-5.3-5.3V5.3C0,2.4,2.4,0,5.3,0h295.5
		c2.9,0,5.3,2.4,5.3,5.3v34.9c0,2.9-2.4,5.3-5.3,5.3h-19v189.3h19c2.9,0,5.3,2.4,5.3,5.3v34.9c0,2.9-2.4,5.3-5.3,5.3H5.3
		c-2.9,0-5.3-2.4-5.3-5.3v-34.9c0-2.9,2.4-5.3,5.3-5.3H24.3z M80.8,234.8V94.1c0-2.9,2.4-5.3,5.3-5.3h134c2.9,0,5.3,2.4,5.3,5.3
		v140.8h45.8V45.5H34.9v189.3H80.8z M295.5,10.6H10.6v24.4h19h246.8h19V10.6z M126.9,234.8c-5.2-6-9.1-13.1-11.6-20.4
		c-5.1-14.6-5.1-30.2-1-39.5c1.2-2.7,4.3-3.9,7-2.7c0.9,0.4,1.6,1,2.1,1.7l6.4,8.3c1.2-6.3,3.5-12.3,6.1-18.9
		c3.8-9.7,8-20.7,9.2-35.3c0.2-2.9,2.8-5.1,5.7-4.9c1.1,0.1,2.1,0.5,2.9,1.1l0,0c7.5,5.8,15.9,13.3,21.3,25.2
		c4.2,9.3,6.4,21,4.5,36.4l7-5c2.4-1.7,5.7-1.1,7.3,1.3c0.5,0.7,0.8,1.5,0.9,2.3l0,0c1.3,8.5-1.9,20.9-6.6,32.3
		c-2.8,6.6-6.2,13-9.7,18.1h36.5V99.4H91.3v135.5H126.9z M220.1,245.4H86H29.6h-19v24.4h284.9v-24.4h-19H220.1z"/>
</g>
</svg>
