<?xml version="1.0" encoding="utf-8"?>
<!-- Generator: Adobe Illustrator 19.0.0, SVG Export Plug-In . SVG Version: 6.00 Build 0)  -->
<svg version="1.1" xmlns="http://www.w3.org/2000/svg" xmlns:xlink="http://www.w3.org/1999/xlink" x="0px" y="0px"
	 viewBox="0 0 363 287.7" style="enable-background:new 0 0 363 287.7;" xml:space="preserve">
<style type="text/css">
	.st0{fill:#1D1D1B;}
</style>
<g id="background">
</g>
<g id="icons">
	<path class="st0" d="M339.5,247.2h-45.4h-90.5h-45.4l46.9,29.9h87.5L339.5,247.2z M339.5,166.3H158.2l46.9,29.9h87.5L339.5,166.3z
		 M205.1,236.6h87.5l46.9-29.9h-45.4h-90.5h-0.1h-45.3L205.1,236.6z M264.3,155.7h93.4c2.9,0,5.3,2.4,5.3,5.3c0,2.1-1.2,3.8-2.9,4.7
		l-47.8,30.5h45.4c2.9,0,5.3,2.4,5.3,5.3c0,2.1-1.2,3.8-2.9,4.7l-47.8,30.4h45.4c2.9,0,5.3,2.4,5.3,5.3c0,2.1-1.2,3.8-2.9,4.7
		L297,286.8c-0.9,0.6-1.9,0.8-2.8,0.8v0h-90.5c-1.2,0-2.4-0.4-3.3-1.1L163,262.8c-9.6,2.2-19.7,3.4-30,3.4
		C59.6,266.2,0,206.6,0,133.1C0,59.6,59.6,0,133.1,0c36.7,0,70,14.9,94.1,39c24.1,24.1,39,57.4,39,94.1
		C266.2,140.8,265.5,148.3,264.3,155.7z M143.2,209.7l-5.9-3.8c-2.5-1.6-3.2-4.8-1.6-7.3c1-1.6,2.7-2.4,4.5-2.4v0h45.4l-48.2-30.7
		c-2.5-1.6-3.2-4.8-1.6-7.3c1-1.6,2.7-2.4,4.5-2.4v0H207c2.2-7.1,3.4-14.7,3.4-22.6h0c0-21.3-8.6-40.6-22.6-54.6
		c-14-14-33.3-22.6-54.6-22.6v0c-21.3,0-40.6,8.6-54.6,22.6c-14,14-22.6,33.3-22.6,54.6h0c0,21.3,8.7,40.6,22.6,54.6
		c14,14,33.3,22.6,54.6,22.6C136.5,210.3,139.9,210.1,143.2,209.7z M140.1,236.6h45.4L156,217.9c-7.3,2-15,3-22.9,3
		c-24.3,0-46.2-9.8-62.1-25.7c-15.9-15.9-25.7-37.8-25.7-62.1h0c0-24.2,9.8-46.2,25.7-62.1c15.9-15.9,37.8-25.7,62.1-25.7v0
		c24.3,0,46.2,9.8,62.1,25.7c15.9,15.9,25.7,37.8,25.7,62.1h0c0,7.8-1,15.4-2.9,22.6h35.5c1.4-7.3,2.1-14.9,2.1-22.6
		c0-33.8-13.7-64.4-35.9-86.6c-22.2-22.2-52.8-35.9-86.6-35.9c-67.6,0-122.5,54.9-122.5,122.5c0,67.6,54.9,122.5,122.5,122.5
		c5.7,0,11.3-0.4,16.8-1.2l-12.7-8.1c-2.5-1.6-3.2-4.8-1.6-7.3C136.6,237.5,138.4,236.6,140.1,236.6L140.1,236.6z M360.1,165.7
		c-0.7,0.4-1.5,0.6-2.4,0.6L360.1,165.7z M360.1,206.2c-0.7,0.4-1.5,0.6-2.4,0.6L360.1,206.2z M360.1,246.6
		c-0.7,0.4-1.5,0.6-2.4,0.6L360.1,246.6z"/>
</g>
</svg>
