<?xml version="1.0" encoding="utf-8"?>
<!-- Generator: Adobe Illustrator 19.0.0, SVG Export Plug-In . SVG Version: 6.00 Build 0)  -->
<svg version="1.1" xmlns="http://www.w3.org/2000/svg" xmlns:xlink="http://www.w3.org/1999/xlink" x="0px" y="0px"
	 viewBox="0 0 250.9 352.8" style="enable-background:new 0 0 250.9 352.8;" xml:space="preserve">
<style type="text/css">
	.st0{fill:#1D1D1B;}
</style>
<g id="background">
</g>
<g id="icons">
	<path class="st0" d="M209.4,145.9c-0.2-0.3-0.4-0.6-0.7-0.9H42.2c-0.3,0.3-0.5,0.6-0.7,0.9c-0.2,0.3-0.3,0.7-0.3,1h0v32.5h0
		c0,1.6,2.4,3.5,6.3,5.3c5.2,2.3,12.5,3.7,20.7,3.7h114.6c1.8,0,3.5-0.1,5.2-0.2l0.1,0c0.2,0,0.5,0,0.7,0c12-0.9,21-4.5,21-8.8h0
		v-32.5h0C209.7,146.6,209.6,146.3,209.4,145.9L209.4,145.9z M40.2,134.4h170.4h29.6v-28.1H10.6v28.1H40.2z M68.6,95.7h113.6V33.9
		c0-6.7-2.1-12.7-5.4-16.9c-3.1-3.9-7.2-6.4-11.7-6.4v0H85.7v0c-9.4,0-17.1,10.5-17.1,23.3V95.7z M47.5,348.2
		c-0.4,2.9-3,4.9-5.9,4.6c-2.9-0.4-4.9-3-4.6-5.9L56.3,198c-4.9-0.8-9.4-2.1-13.1-3.7c-7.8-3.5-12.7-8.7-12.7-14.9h0v-32.5h0
		c0-0.6,0.1-1.3,0.2-1.9H5.3c-2.9,0-5.3-2.4-5.3-5.3V101c0-2.9,2.4-5.3,5.3-5.3H58V33.9C58,15.3,70.5,0,85.7,0v0h79.4v0
		c7.9,0,14.9,4,20,10.4c4.8,6.1,7.7,14.4,7.7,23.4v61.8h52.7c2.9,0,5.3,2.4,5.3,5.3v38.7c0,2.9-2.4,5.3-5.3,5.3h-25.4
		c0.1,0.6,0.2,1.2,0.2,1.9h0v32.5h0c0,8.6-10.8,16-25.8,18.6l19.2,148.9c0.4,2.9-1.7,5.5-4.6,5.9c-2.9,0.4-5.5-1.7-5.9-4.6
		l-19.3-149.3c-0.4,0-0.9,0-1.3,0H68.2c-0.4,0-0.9,0-1.3,0L47.5,348.2z"/>
</g>
</svg>
