<?xml version="1.0" encoding="utf-8"?>
<!-- Generator: Adobe Illustrator 19.0.0, SVG Export Plug-In . SVG Version: 6.00 Build 0)  -->
<svg version="1.1" xmlns="http://www.w3.org/2000/svg" xmlns:xlink="http://www.w3.org/1999/xlink" x="0px" y="0px"
	 viewBox="0 0 401.5 399.8" style="enable-background:new 0 0 401.5 399.8;" xml:space="preserve">
<style type="text/css">
	.st0{fill:#1D1D1B;}
</style>
<g id="background">
</g>
<g id="icons">
	<path class="st0" d="M164,75.3h-28.6c-0.7,0.8-1.4,1.6-2.1,2.4c-6.3,7.3-13.9,16.1-14.7,37.6h62.1c-0.8-21.5-8.4-30.3-14.7-37.6
		C165.4,76.9,164.7,76.1,164,75.3L164,75.3z M142.3,64.8h15c-0.7-1.9-1.3-3.9-1.6-6.2h-11.8C143.5,60.9,143,62.9,142.3,64.8z
		 M171.9,266.9l-53.2,0l-6.5,70.3l66.2,0L171.9,266.9z M173.4,222.3c0.1,0,0.2,0,0.3,0h1.6c1.5,0,2.8-0.6,3.8-1.6
		c1-1,1.6-2.3,1.6-3.8c0-1.5-0.6-2.8-1.6-3.8c-1-1-2.3-1.6-3.8-1.6h-60.2c-1.5,0-2.8,0.6-3.8,1.6c-1,1-1.6,2.3-1.6,3.8
		c0,1.5,0.6,2.8,1.6,3.8l0,0c1,1,2.3,1.6,3.8,1.6h1.6c0.1,0,0.2,0,0.3,0H173.4z M168.7,232.9h-47l-2.2,23.5l51.3,0L168.7,232.9z
		 M317,180.2V167H58.1h-0.6h-47v222.2h42.2V185.5c0-2.9,2.4-5.3,5.3-5.3H317z M339.8,28.3h-12.2v133.4v23.8v203.7h12.2V28.3z
		 M240.3,49.9l-9.1,22.2h18.3L240.3,49.9z M280.2,72.1h18.3l-9.2-22.2 M365.4,10.6c-2.9,0-5.3-2.4-5.3-5.3s2.4-5.3,5.3-5.3l11.5,0v0
		h13.8c2.9,0,5.3,2.4,5.3,5.3s-2.4,5.3-5.3,5.3h-7.4v7.1h12.9c2.9,0,5.3,2.4,5.3,5.3c0,2.9-2.4,5.3-5.3,5.3h-12.9v1.3v5.6l16.6,39.8
		c0.3,0.7,0.5,1.5,0.5,2.3c0,2.9-2.4,5.3-5.3,5.3h-34.2v0c-0.7,0-1.3-0.1-2-0.4c-2.7-1.1-4-4.2-2.9-6.9l16.7-40.5v-5.3v-1.3h-22.4
		v366.2c0,2.9-2.4,5.3-5.3,5.3h-22.8c-2.9,0-5.3-2.4-5.3-5.3V190.8H63.4v203.7c0,2.9-2.4,5.3-5.3,5.3H5.3c-2.9,0-5.3-2.4-5.3-5.3
		V161.7c0-2.9,2.4-5.3,5.3-5.3h52.3h0.6H317V28.3h-15v0h-7.3v1.3v5.6l16.6,39.8c0.3,0.7,0.5,1.5,0.5,2.3c0,2.9-2.4,5.3-5.3,5.3
		h-34.2v0c-0.7,0-1.3-0.1-2-0.4c-2.7-1.1-4-4.2-2.9-6.9L284,34.9v-5.3v-1.3l-38.4,0v1.3v5.6l16.6,39.8c0.3,0.7,0.5,1.5,0.5,2.3
		c0,2.9-2.4,5.3-5.3,5.3h-34.2v0c-0.7,0-1.4-0.1-2-0.4c-2.7-1.1-4-4.2-2.9-6.9L235,34.9v-5.3v-1.3h-11.8c-2.9,0-5.3-2.4-5.3-5.3
		c0-2.9,2.4-5.3,5.3-5.3H235v-7.2h-7.4c-2.9,0-5.3-2.4-5.3-5.3s2.4-5.3,5.3-5.3l11.5,0v0H253c2.9,0,5.3,2.4,5.3,5.3
		s-2.4,5.3-5.3,5.3h-7.4v7.2l38.4,0v-7.2h-7.4c-2.9,0-5.3-2.4-5.3-5.3s2.4-5.3,5.3-5.3l11.5,0v0H302c2.9,0,5.3,2.4,5.3,5.3
		s-2.4,5.3-5.3,5.3h-7.4v7.2h7.3v0h20.3l0,0h22.8l0,0h27.6v-7.2H365.4z M378,49.9l-9.1,22.2h18.3L378,49.9z M115.2,201h60.2
		c4.4,0,8.4,1.8,11.2,4.7l0,0v0c2.9,2.9,4.7,6.9,4.7,11.2c0,4.4-1.8,8.4-4.7,11.3c-2,2-4.5,3.4-7.3,4.2L194.2,394
		c0.3,2.9-1.9,5.5-4.8,5.7c-2.9,0.3-5.5-1.9-5.7-4.8l-4.3-47.2l-68.1,0l-4.3,47.2c-0.3,2.9-2.8,5-5.7,4.8c-2.9-0.3-5-2.8-4.8-5.7
		l14.9-161.7c-2.8-0.7-5.3-2.2-7.3-4.2l0,0l-0.1-0.1c-2.8-2.9-4.6-6.8-4.6-11.2c0-4.4,1.8-8.4,4.7-11.3
		C106.8,202.8,110.8,201,115.2,201z M144.4,48V8.1c0-2.9,2.4-5.3,5.3-5.3c2.9,0,5.3,2.4,5.3,5.3V48h5.7c2.9,0,5.3,2.4,5.3,5.3
		c0,0.2,0,0.4,0,0.6c-0.1,7.4,3.6,11.8,8.1,16.9c8,9.2,17.7,20.5,17.3,49.9c0,2.9-2.4,5.2-5.3,5.2v0h-72.8c-2.9,0-5.3-2.4-5.3-5.3
		c0-0.1,0-0.3,0-0.4c-0.3-29,9.4-40.2,17.3-49.4c4.5-5.3,8.4-9.7,8.1-17.3c-0.1-2.9,2.2-5.4,5.1-5.5l0.2,0v0H144.4z"/>
</g>
</svg>
