<?xml version="1.0" encoding="utf-8"?>
<!-- Generator: Adobe Illustrator 19.0.0, SVG Export Plug-In . SVG Version: 6.00 Build 0)  -->
<svg version="1.1" xmlns="http://www.w3.org/2000/svg" xmlns:xlink="http://www.w3.org/1999/xlink" x="0px" y="0px"
	 viewBox="0 0 320 408" style="enable-background:new 0 0 320 408;" xml:space="preserve">
<style type="text/css">
	.st0{fill:#1D1D1B;}
</style>
<g id="background">
</g>
<g id="icons">
	<path class="st0" d="M143.6,322.2c-2.9,0-5.3-2.4-5.3-5.3c0-2.9,2.4-5.3,5.3-5.3h32.8c2.9,0,5.3,2.4,5.3,5.3c0,2.9-2.4,5.3-5.3,5.3
		H143.6z M126.5,143.5c0-2.9,2.4-5.3,5.3-5.3c2.9,0,5.3,2.4,5.3,5.3v32.8c0,2.9-2.4,5.3-5.3,5.3c-2.9,0-5.3-2.4-5.3-5.3V143.5z
		 M182.9,143.5c0-2.9,2.4-5.3,5.3-5.3c2.9,0,5.3,2.4,5.3,5.3v32.8c0,2.9-2.4,5.3-5.3,5.3c-2.9,0-5.3-2.4-5.3-5.3V143.5z M309.4,10.6
		H10.6v8.6h298.8V10.6z M297.6,300.5H22.4v32.9h275.2V300.5z M297.6,344H22.4v32.9h275.2V344z M45.2,387.5H26.7l1.5,9.9h15.4
		L45.2,387.5z M293.3,387.5h-18.5l1.5,9.9h15.4L293.3,387.5z M165.3,29.8v260h132.3v-260H165.3z M154.7,289.9v-260H22.4v260H154.7z
		 M308.2,29.8v265.4l0,0v43.5v43.5c0,2.6-1.8,4.7-4.2,5.2l-2.5,16.1c-0.4,2.6-2.7,4.5-5.2,4.5v0h-24.4c-2.8,0-5.1-2.2-5.3-4.9
		l-2.4-15.5H55.9l-2.5,16c-0.4,2.6-2.7,4.5-5.2,4.5v0H23.7c-2.8,0-5.1-2.2-5.3-4.9L16,387.4c-2.4-0.5-4.2-2.6-4.2-5.2v-43.5v-43.5v0
		V29.8H5.3c-2.9,0-5.3-2.4-5.3-5.3V5.3C0,2.4,2.4,0,5.3,0h309.4c2.9,0,5.3,2.4,5.3,5.3v19.2c0,2.9-2.4,5.3-5.3,5.3H308.2z
		 M143.6,365.8c-2.9,0-5.3-2.4-5.3-5.3c0-2.9,2.4-5.3,5.3-5.3h32.8c2.9,0,5.3,2.4,5.3,5.3c0,2.9-2.4,5.3-5.3,5.3H143.6z"/>
</g>
</svg>
