<?xml version="1.0" encoding="utf-8"?>
<!-- Generator: Adobe Illustrator 19.0.0, SVG Export Plug-In . SVG Version: 6.00 Build 0)  -->
<svg version="1.1" xmlns="http://www.w3.org/2000/svg" xmlns:xlink="http://www.w3.org/1999/xlink" x="0px" y="0px"
	 viewBox="0 0 182.7 379.8" style="enable-background:new 0 0 182.7 379.8;" xml:space="preserve">
<style type="text/css">
	.st0{fill:#1D1D1B;}
</style>
<g id="background">
</g>
<g id="icons">
	<path class="st0" d="M170.6,28.1c0.4-3.6,0.7-7.3,1.1-11.7c-37.4-5.7-79-7.3-118.7-4.6c-8,0.5-16,1.3-23.9,2.2
		C23,14.7,16.9,15.5,11,16.4c0.4,4.4,0.7,8.1,1.1,11.7c0.4,3.7,0.9,7.5,1.4,11.9c34.3-6.7,77.4-8.5,116.2-5.3
		c7.9,0.6,15.8,1.5,23.3,2.6c5.5,0.8,10.9,1.7,16.1,2.7C169.7,35.6,170.2,31.8,170.6,28.1L170.6,28.1z M170.8,199.9H10.9v13.4h159.9
		V199.9z M67.3,189.3L62.9,44.6c-12.4,0.8-24.5,2-35.8,3.8l13.4,140.8l0,0.1H67.3z M104.9,189.3l4.4-145.2c-11.9-0.5-24-0.5-35.9,0
		l4.4,145.2H104.9z M142.4,189.3l0-0.1l13.4-140.8c-1.4-0.2-2.7-0.4-4.1-0.6c-7.3-1-14.9-1.9-22.7-2.5c-3-0.2-6-0.5-9.1-0.6
		l-4.4,144.7H142.4z M44,264.6h94.7l-0.5-8.8H44.5L44,264.6z M35.6,223.9H22l-3.2,145.3h9.1L35.6,223.9z M136.5,223.9H46.2
		l-1.1,21.4h92.6L136.5,223.9z M160.8,223.9h-13.7l7.8,145.3h9.1L160.8,223.9z M182.7,12.4c-0.5,6.2-1,11.2-1.6,16.8
		c-0.6,5.2-1.2,10.6-2.2,17.8c-0.4,2.9-3,4.9-5.9,4.5c-0.1,0-0.3,0-0.4-0.1l0,0l0,0l0,0l0,0c-2.1-0.5-4.2-0.9-6.4-1.3L153,189.3
		h23.2c2.9,0,5.3,2.4,5.3,5.3v24c0,2.9-2.4,5.3-5.3,5.3h-4.8l3.4,150.5c0.1,2.9-2.3,5.3-5.2,5.4l-0.1,0v0h-19.5
		c-2.9,0-5.3-2.4-5.3-5.3l0-0.1l-5.3-99.2H43.4l-5.3,99.5c-0.1,2.8-2.5,5-5.3,5v0H13.3c-2.9,0-5.3-2.4-5.3-5.3c0-0.2,0-0.4,0-0.6
		l3.4-150H5.6c-2.9,0-5.3-2.4-5.3-5.3v-24c0-2.9,2.4-5.3,5.3-5.3h24.2L16.6,50.2c-2.2,0.4-4.4,0.9-6.5,1.3c-2.9,0.6-5.7-1.2-6.3-4.1
		c-0.1-0.2-0.1-0.5-0.1-0.7c-0.9-7.1-1.6-12.4-2.2-17.5C1,23.7,0.5,18.6,0,12.4C-0.2,9.5,1.9,7,4.8,6.7C12.4,5.5,20.2,4.4,28,3.5
		c8-0.9,16.1-1.6,24.3-2.2c42.1-2.8,86.5-1,125.9,5.5C181,7.2,182.9,9.7,182.7,12.4L182.7,12.4z"/>
</g>
</svg>
