<?xml version="1.0" encoding="utf-8"?>
<!-- Generator: Adobe Illustrator 19.0.0, SVG Export Plug-In . SVG Version: 6.00 Build 0)  -->
<svg version="1.1" xmlns="http://www.w3.org/2000/svg" xmlns:xlink="http://www.w3.org/1999/xlink" x="0px" y="0px"
	 viewBox="0 0 280.2 421.4" style="enable-background:new 0 0 280.2 421.4;" xml:space="preserve">
<style type="text/css">
	.st0{fill:#1D1D1B;}
</style>
<g id="background">
</g>
<g id="icons">
	<path class="st0" d="M235.7,10.6H43.8v367.9h15.9V31.8c0-2.9,2.4-5.3,5.3-5.3h149.5c2.9,0,5.3,2.4,5.3,5.3v346.7h15.9V10.6z
		 M155.6,243.7c0,2.9-2.4,5.3-5.3,5.3c-2.9,0-5.3-2.4-5.3-5.3v-33.2c0-2.9,2.4-5.3,5.3-5.3c2.9,0,5.3,2.4,5.3,5.3V243.7z
		 M209.2,380.1V39.4l-76.4,28.3v340.7L209.2,380.1z M38,389.1H5.3c-2.9,0-5.3-2.4-5.3-5.3c0-2.9,2.4-5.3,5.3-5.3h27.9V5.3
		c0-2.9,2.4-5.3,5.3-5.3H241c2.9,0,5.3,2.4,5.3,5.3v373.2h28.6c2.9,0,5.3,2.4,5.3,5.3c0,2.9-2.4,5.3-5.3,5.3h-33.4
		c-0.2,0-0.3,0-0.5,0h-25.6l-85.8,31.8c-0.7,0.3-1.4,0.4-2.1,0.4c-2.9,0-5.3-2.4-5.3-5.3v-352h0c0-2.2,1.3-4.2,3.5-5l59.3-22H70.3
		v346.7c0,2.9-2.4,5.3-5.3,5.3H38.5C38.3,389.1,38.2,389.1,38,389.1z"/>
</g>
</svg>
