<?xml version="1.0" encoding="utf-8"?>
<!-- Generator: Adobe Illustrator 19.0.0, SVG Export Plug-In . SVG Version: 6.00 Build 0)  -->
<svg version="1.1" xmlns="http://www.w3.org/2000/svg" xmlns:xlink="http://www.w3.org/1999/xlink" x="0px" y="0px"
	 viewBox="0 0 400 246.8" style="enable-background:new 0 0 400 246.8;" xml:space="preserve">
<style type="text/css">
	.st0{fill:#1D1D1B;}
</style>
<g id="background">
</g>
<g id="icons">
	<path class="st0" d="M359,34.6H41c0,67.2,0,134.4,0,201.6h11.6l7.5-185.3l0-0.2c0-2.9,2.4-5.3,5.3-5.3h269.2v0
		c2.8,0,5.2,2.2,5.3,5.1l7.5,185.7H359C359,169,359,101.8,359,34.6L359,34.6z M369.6,34.6c0,69,0,137.9,0,206.9
		c0,2.9-2.4,5.3-5.3,5.3h-22c-2.9,0-5.3-2.4-5.3-5.3l0-0.2L329.5,56h-259L63,241.7c-0.1,2.8-2.5,5.1-5.3,5.1v0h-22
		c-2.9,0-5.3-2.4-5.3-5.3c0-69,0-137.9,0-206.9H5.8c-0.2,0-0.3,0-0.5,0c-2.9,0-5.3-2.4-5.3-5.3v-24h0C0,2.4,2.4,0,5.3,0h388.9
		c0.2,0,0.3,0,0.5,0c2.9,0,5.3,2.4,5.3,5.3v24h0c0,2.9-2.4,5.3-5.3,5.3H369.6z M10.6,24h24.6c0.2,0,0.3,0,0.5,0h328.6
		c0.2,0,0.3,0,0.5,0h24.6V10.6H10.6V24z"/>
</g>
</svg>
