<?xml version="1.0" encoding="utf-8"?>
<!-- Generator: Adobe Illustrator 19.0.0, SVG Export Plug-In . SVG Version: 6.00 Build 0)  -->
<svg version="1.1" xmlns="http://www.w3.org/2000/svg" xmlns:xlink="http://www.w3.org/1999/xlink" x="0px" y="0px"
	 viewBox="0 0 320 378.5" style="enable-background:new 0 0 320 378.5;" xml:space="preserve">
<style type="text/css">
	.st0{fill:#1D1D1B;}
</style>
<g id="background">
</g>
<g id="icons">
	<path class="st0" d="M293.3,358h-18.5l1.5,9.9h15.4L293.3,358z M45.2,358H26.7l1.5,9.9h15.4L45.2,358z M22.4,29.8v317.6h132.3V29.8
		H22.4z M165.3,29.8v317.6h132.3V29.8H165.3z M55.9,358l-2.5,16c-0.4,2.6-2.7,4.5-5.2,4.5v0H23.7c-2.8,0-5.1-2.2-5.3-4.9L16,357.9
		c-2.4-0.5-4.2-2.6-4.2-5.2V29.8H5.3c-2.9,0-5.3-2.4-5.3-5.3V5.3C0,2.4,2.4,0,5.3,0h309.4c2.9,0,5.3,2.4,5.3,5.3v19.2
		c0,2.9-2.4,5.3-5.3,5.3h-6.5v322.9c0,2.6-1.8,4.7-4.2,5.2l-2.5,16.1c-0.4,2.6-2.7,4.5-5.2,4.5v0h-24.4c-2.8,0-5.1-2.2-5.3-4.9
		l-2.4-15.5H160h0H55.9z M126.5,157.1c0-2.9,2.4-5.3,5.3-5.3c2.9,0,5.3,2.4,5.3,5.3v32.8c0,2.9-2.4,5.3-5.3,5.3
		c-2.9,0-5.3-2.4-5.3-5.3V157.1z M182.9,157.1c0-2.9,2.4-5.3,5.3-5.3c2.9,0,5.3,2.4,5.3,5.3v32.8c0,2.9-2.4,5.3-5.3,5.3
		c-2.9,0-5.3-2.4-5.3-5.3V157.1z M160,19.2L160,19.2h142.9l0.1,0h6.4v-8.6H10.6v8.6H17l0.1,0H160z"/>
</g>
</svg>
