<?xml version="1.0" encoding="utf-8"?>
<!-- Generator: Adobe Illustrator 19.0.0, SVG Export Plug-In . SVG Version: 6.00 Build 0)  -->
<svg version="1.1" xmlns="http://www.w3.org/2000/svg" xmlns:xlink="http://www.w3.org/1999/xlink" x="0px" y="0px"
	 viewBox="0 0 285.7 343.5" style="enable-background:new 0 0 285.7 343.5;" xml:space="preserve">
<style type="text/css">
	.st0{fill:#1D1D1B;}
</style>
<g id="background">
</g>
<g id="icons">
	<path class="st0" d="M82.3,171.3V184h183.9c2.2,0,4.2-0.8,5.6-2.1c1.3-1.1,2-2.6,2-4.3c0-3.5-3.5-6.4-7.7-6.4l0,0v0 M204.7,265.4
		c1.2-0.4,2.5-0.7,3.7-1.1c0.1,0,0.2-0.1,0.3-0.1l0,0c10.8-3.6,20.5-8.7,28.7-15c16.2-12.5,26.3-29.7,26.3-48.5
		c0-1.9-0.1-3.6-0.2-5.2c0-0.3-0.1-0.6-0.1-0.9H81.2l0,0l0,0l0,0c0,0.2-0.1,0.4-0.1,0.7v0l0,0.1l0,0l0,0l0,0l0,0l0,0l0,0l0,0l0,0v0
		l0,0l0,0c-0.2,1.6-0.2,3.4-0.2,5.2c0,18.9,10,36,26.3,48.5c16.6,12.8,39.7,20.7,65.2,20.7c0.4,0,0.8,0,1.2,0h0l0.3,0
		c10.6-0.1,20.7-1.6,30.1-4.2l0,0l0.2,0l0.1,0l0.3-0.1L204.7,265.4L204.7,265.4z M71.7,184v-18c0-0.2,0-0.3,0-0.5V28.2H10.6V184
		H71.7z M205.8,276.1c-9.5,2.6-19.7,4.1-30.3,4.4l0,0l-1,0l-0.6,0l-0.3,0h0l-0.3,0c-0.3,0-0.6,0-1,0c-27.9,0-53.2-8.8-71.6-23
		c-18.8-14.5-30.4-34.6-30.4-56.9l0-0.1v0v-0.1v0l0-0.1v0v-0.1v0l0-0.1v0l0-0.1v0l0-0.1v0V200v0l0-0.1v0l0-0.1v0l0-0.1v0l0-0.1
		l0-0.1l0-0.1l0-0.1l0-0.1l0-0.7l0,0l0-0.1l0-0.1l0-0.1l0-0.1l0,0l0-0.2l0-0.1l0-0.1l0,0l0,0l0-0.1l0,0l0-0.1l0-0.1l0-0.1l0,0l0-0.1
		l0,0l0,0l0-0.1l0,0l0,0l0-0.1l0,0l0-0.1l0,0l0-0.1l0-0.1l0,0l0,0l0-0.1l0,0l0,0l0-0.1l0-0.3v0l0-0.2l0,0v0l0-0.1v0l0-0.2l0-0.1
		l0-0.1l0,0v0l0-0.2l0,0l0-0.1l0,0l0-0.1l0,0l0-0.1h-60v16.8l35.5,0.2c2.9,0,5.3,2.4,5.3,5.3l0,0.2h0l-4.7,116h167.3L205.8,276.1z
		 M252.3,92.3V72.7h-83.2v19.6H252.3z M169.1,62.1h83.3V10.6h-83.3V62.1z M262.9,67.4v30.2c0,2.9-2.4,5.3-5.3,5.3h-93.8
		c-2.9,0-5.3-2.4-5.3-5.3V67.4l0,0v0v0v0v0l0,0v0v0v0v0v0v0l0,0l0,0v0l0-0.1v0v0v0l0-0.1v0v0l0-0.1v0V41.6h-17.5
		c-2.9,0-5.3-2.4-5.3-5.3c0-2.9,2.4-5.3,5.3-5.3h17.5V5.3c0-2.9,2.4-5.3,5.3-5.3v0h93.8c2.9,0,5.3,2.4,5.3,5.3c0,0.2,0,0.3,0,0.5V31
		h17.5c2.9,0,5.3,2.4,5.3,5.3c0,2.9-2.4,5.3-5.3,5.3h-17.5v25.3C262.9,67,262.9,67.2,262.9,67.4z M82.2,160.7h184v0
		c10.1,0,18.3,7.6,18.3,16.9c0,4.8-2.1,9.1-5.6,12.2c-1.5,1.3-3.2,2.4-5,3.2c0.1,0.5,0.1,1,0.2,1.5c0.2,2.2,0.3,4.3,0.3,6.3
		c0,22.3-11.6,42.4-30.4,56.9c-8.1,6.2-17.5,11.4-27.9,15.3l9.2,64.7l0,0c0,0.2,0.1,0.5,0.1,0.7c0,2.9-2.4,5.3-5.3,5.3H41.3
		c-0.1,0-0.3,0-0.4,0c-2.9-0.1-5.2-2.6-5.1-5.5l4.7-116l-34.8-0.2c-0.1,0-0.3,0-0.4,0c-2.9,0-5.3-2.4-5.3-5.3v-27.3
		c0-0.2,0-0.4,0-0.6V22.9c0-2.9,2.4-5.3,5.3-5.3v0H77c2.9,0,5.3,2.4,5.3,5.3c0,0.2,0,0.3,0,0.5V160.7z"/>
</g>
</svg>
