<?xml version="1.0" encoding="utf-8"?>
<!-- Generator: Adobe Illustrator 19.0.0, SVG Export Plug-In . SVG Version: 6.00 Build 0)  -->
<svg version="1.1" xmlns="http://www.w3.org/2000/svg" xmlns:xlink="http://www.w3.org/1999/xlink" x="0px" y="0px"
	 viewBox="0 0 321.1 321.2" style="enable-background:new 0 0 321.1 321.2;" xml:space="preserve">
<style type="text/css">
	.st0{fill:#1D1D1B;}
</style>
<g id="background">
</g>
<g id="icons">
	<path class="st0" d="M247.1,74.1c-22.1-22.1-52.7-35.8-86.5-35.8c-33.8,0-64.4,13.7-86.5,35.8c-22.1,22.1-35.8,52.7-35.8,86.5
		c0,33.8,13.7,64.4,35.8,86.5c22.1,22.1,52.7,35.8,86.5,35.8c33.8,0,64.4-13.7,86.5-35.8c22.1-22.1,35.8-52.7,35.8-86.5
		C282.9,126.8,269.2,96.2,247.1,74.1L247.1,74.1z M266.6,54.5c-27.2-27.2-64.7-44-106-44v0c-41.4,0-78.9,16.8-106.1,43.9
		c-27.2,27.2-44,64.7-44,106.1c0,41.4,16.8,78.9,44,106c27.1,27.1,64.6,43.9,106.1,43.9v0c41.4,0,78.9-16.8,106-44
		c27.2-27.2,44-64.7,44-106C310.6,119.2,293.8,81.7,266.6,54.5z M160.6,0c44.3,0,84.5,18,113.5,47c29,29,47,69.2,47,113.5
		c0,44.4-18,84.5-47,113.5c-29,29-69.2,47-113.5,47v0c-44.3,0-84.5-18-113.5-47c-29-29-47-69.2-47-113.5C0,116.2,18,76.1,47,47
		C76.1,18,116.2,0,160.6,0L160.6,0z M167.7,153.4c-1.8-1.8-4.4-3-7.2-3c-2.8,0-5.3,1.1-7.2,3c-1.8,1.8-3,4.4-3,7.2
		c0,2.8,1.1,5.3,3,7.2c1.8,1.8,4.4,3,7.2,3c2.8,0,5.3-1.1,7.2-3c1.8-1.8,3-4.4,3-7.2C170.7,157.8,169.6,155.2,167.7,153.4z
		 M104.8,190.5c-2.7,1.2-5.8-0.1-7-2.8c-1.2-2.7,0.1-5.8,2.8-7l39.4-17c-0.2-1-0.2-2.1-0.2-3.1c0-5.7,2.3-10.9,6.1-14.7
		c1.3-1.3,2.7-2.4,4.2-3.3l-18.7-69.1c-0.8-2.8,0.9-5.7,3.7-6.5c2.8-0.8,5.7,0.9,6.5,3.7l18.7,69.1l0.2,0c5.7,0,10.9,2.3,14.7,6.1
		c3.8,3.8,6.1,8.9,6.1,14.7c0,5.7-2.3,10.9-6.1,14.7c-3.8,3.8-8.9,6.1-14.7,6.1c-5.7,0-10.9-2.3-14.7-6.1c-0.6-0.6-1.1-1.2-1.6-1.8
		L104.8,190.5z M77.2,84.6c-2.1-2.1-2.1-5.4,0-7.5c2.1-2.1,5.4-2.1,7.5,0l17.4,17.4c2.1,2.1,2.1,5.4,0,7.5c-2.1,2.1-5.4,2.1-7.5,0
		L77.2,84.6z M48,165.8c-2.9,0-5.3-2.4-5.3-5.3c0-2.9,2.4-5.3,5.3-5.3h24.6c2.9,0,5.3,2.4,5.3,5.3c0,2.9-2.4,5.3-5.3,5.3H48z
		 M84.7,243.8c-2.1,2.1-5.4,2.1-7.5,0c-2.1-2.1-2.1-5.4,0-7.5l17.4-17.4c2.1-2.1,5.4-2.1,7.5,0c2.1,2.1,2.1,5.4,0,7.5L84.7,243.8z
		 M165.9,273c0,2.9-2.4,5.3-5.3,5.3c-2.9,0-5.3-2.4-5.3-5.3v-24.6c0-2.9,2.4-5.3,5.3-5.3c2.9,0,5.3,2.4,5.3,5.3V273z M243.9,236.3
		c2.1,2.1,2.1,5.4,0,7.5c-2.1,2.1-5.4,2.1-7.5,0L219,226.4c-2.1-2.1-2.1-5.4,0-7.5c2.1-2.1,5.4-2.1,7.5,0L243.9,236.3z M273.1,155.2
		c2.9,0,5.3,2.4,5.3,5.3c0,2.9-2.4,5.3-5.3,5.3h-24.6c-2.9,0-5.3-2.4-5.3-5.3c0-2.9,2.4-5.3,5.3-5.3H273.1z M236.4,77.1
		c2.1-2.1,5.4-2.1,7.5,0c2.1,2.1,2.1,5.4,0,7.5L226.5,102c-2.1,2.1-5.4,2.1-7.5,0c-2.1-2.1-2.1-5.4,0-7.5L236.4,77.1z M155.3,47.9
		c0-2.9,2.4-5.3,5.3-5.3c2.9,0,5.3,2.4,5.3,5.3v24.6c0,2.9-2.4,5.3-5.3,5.3c-2.9,0-5.3-2.4-5.3-5.3V47.9z M160.6,27.6
		c36.7,0,69.9,14.9,94,38.9c24.1,24.1,38.9,57.3,38.9,94c0,36.7-14.9,69.9-38.9,94c-24.1,24.1-57.3,38.9-94,38.9
		c-36.7,0-69.9-14.9-94-38.9c-24.1-24.1-38.9-57.3-38.9-94c0-36.7,14.9-69.9,38.9-94C90.6,42.5,123.9,27.6,160.6,27.6z"/>
</g>
</svg>
