<?xml version="1.0" encoding="utf-8"?>
<!-- Generator: Adobe Illustrator 19.0.0, SVG Export Plug-In . SVG Version: 6.00 Build 0)  -->
<svg version="1.1" xmlns="http://www.w3.org/2000/svg" xmlns:xlink="http://www.w3.org/1999/xlink" x="0px" y="0px"
	 viewBox="0 0 426.1 380.9" style="enable-background:new 0 0 426.1 380.9;" xml:space="preserve">
<style type="text/css">
	.st0{fill:#1D1D1B;}
</style>
<g id="background">
</g>
<g id="icons">
	<path class="st0" d="M283,43.1c-4.7-3.6-11.3-5.8-18.5-5.8c-7.3,0-13.8,2.2-18.5,5.8c-2.7,2-4.8,4.5-6,7.3H289
		C287.8,47.7,285.7,45.2,283,43.1L283,43.1z M198.6,212.7v12.6h200.1h1.1c0.2,0,0.4,0,0.5,0c5.9,0.1,9.8-0.7,12.2-2
		c3.1-1.7,4.1-6.2,1.2-8.6c-2-1.6-4.9-2.1-7.4-2l0,0v0H198.6z M42,262.8v-54.6c0-2.9,2.4-5.3,5.3-5.3c2.9,0,5.3,2.4,5.3,5.3v54.2
		l0,0l0,0l0,0.1l0,0l0,0l0,0c2.6,5.4,10,4.6,13.3,0.7l0,0c0.1-0.2,0.2-0.3,0.3-0.5l0,0l0,0v0V177c0-2.9,2.4-5.3,5.3-5.3
		c2.9,0,5.3,2.4,5.3,5.3v85.3l0.1,0.1v0l0,0.1l0,0.1l0,0c0,0.1,0.1,0.2,0.1,0.3l0,0l0,0.1l0,0l0,0.1l0,0c0.1,0.1,0.1,0.3,0.2,0.4
		l0,0.1l0,0l0,0.1l0,0c1.2,2.1,3.4,3,5.8,3v0c2.2,0,5.3-1.3,6.9-3.2l0,0c0.1-0.1,0.1-0.2,0.2-0.3l0,0l0,0l0,0
		c0.1-0.1,0.1-0.2,0.2-0.3l0,0l0,0v-55.4c0-2.9,2.4-5.3,5.3-5.3c2.9,0,5.3,2.4,5.3,5.3v54.9l0,0.1l0,0l0,0l0,0l0,0l0,0.1l0,0l0,0
		l0,0l0,0.1l0,0l0,0l0,0l0,0l0,0l0,0l0,0l0,0l0,0l0,0l0,0l0,0l0,0l0,0l0,0c0.4,0.9,0.9,1.7,1.7,2.3l0.1,0.1l0,0l0.1,0l0,0l0.1,0.1
		l0,0c3.8,2.4,9.4,0.7,11.5-3.2l0,0V177c0-2.9,2.4-5.3,5.3-5.3c2.9,0,5.3,2.4,5.3,5.3v85.6l0.1,0.1v0l0,0l0,0l0,0l0,0l0,0.1l0,0l0,0
		l0,0l0,0l0,0l0.1,0.1l0,0l0,0l0,0l0,0l0,0c1.2,2.2,4.2,3.4,6.4,3.6h0l0.1,0h0l0.1,0h0l0.1,0h0l0.1,0h0l0.1,0h0l0.1,0h0l0.1,0h0
		l0.1,0h0c2.9,0,5.3-1.8,6.5-4.2l0,0l0-0.1v-55.3c0-2.9,2.4-5.3,5.3-5.3c2.9,0,5.3,2.4,5.3,5.3v55l0,0l0,0l0,0.1l0,0l0,0.1l0,0
		l0,0.1l0,0l0,0.1l0,0l0,0.1l0,0l0,0l0,0l0,0l0,0l0,0l0.1,0.1c0.5,1.2,1.5,2.1,2.7,2.7l0.1,0h0l0.1,0h0l0.1,0h0l0.1,0l0.1,0h0l0.1,0
		h0l0.1,0l0.1,0h0l0.1,0l0.1,0h0l0.1,0h0l0.1,0h0l0.1,0l0.1,0h0l0.1,0h0l0.1,0h0l0.1,0h0l0.1,0l0.1,0l0.1,0h0l0.1,0h0l0.1,0l0.1,0
		l0.1,0h0l0.1,0h0l0.1,0l0.1,0h0l0.1,0l0.1,0h0l0.1,0h0l0.1,0h0l0.1,0h0l0.1,0h0l0.1,0h0l0.1,0l0.1,0h0l0.1,0h0l0.1,0h0l0.1,0l0.1,0
		l0.1,0l0.1,0l0.1,0l0.1,0l0.1,0l0.1,0l0.1,0h0.1l0.1,0c2.7,0,6-1.5,7.5-4l0,0v0V177c0-2.9,2.4-5.3,5.3-5.3c2.9,0,5.3,2.4,5.3,5.3
		v85.5c0.6,1.8,2.1,3,3.9,3.7l0.1,0h0l0.1,0h0l0.1,0h0l0.1,0h0l0.1,0h0l0.1,0h0l0.1,0l0.1,0l0.1,0h0l0.1,0h0l0.1,0l0.1,0h0l0.1,0
		l0.1,0h0l0.1,0h0l0.1,0h0l0.1,0h0l0.1,0l0.1,0h0l0.1,0h0l0.1,0h0l0.1,0h0l0.1,0l0.1,0h0l0.1,0h0l0.1,0l0.1,0h0l0.1,0h0l0.1,0l0.1,0
		h0l0.1,0h0l0.1,0h0l0.1,0h0l0.1,0h0l0.1,0h0l0.1,0h0l0.1,0h0l0.1,0h0v0c1.6,0,4-0.4,5.6-1.4l0,0l0.2-0.1v0l0,0h0l0,0l0,0l0,0l0,0
		l0,0h0l0,0h0l0,0h0l0,0h0l0,0h0l0,0l0,0l0,0h0l0,0h0l0,0h0c0.3-0.3,0.6-0.6,0.7-1.1l0,0l0,0l0,0l0,0l0,0l0,0l0,0l0,0l0,0l0,0l0,0
		l0,0v-32.8v-23.2V32.1h-13.4v37.5c0,2.9-2.4,5.3-5.3,5.3c-2.9,0-5.3-2.4-5.3-5.3V32.1h-13.8v88.9c0,2.9-2.4,5.3-5.3,5.3
		c-2.9,0-5.3-2.4-5.3-5.3V32.1h-13.8v37.5c0,2.9-2.4,5.3-5.3,5.3c-2.9,0-5.3-2.4-5.3-5.3V32.1h-13.8v88.9c0,2.9-2.4,5.3-5.3,5.3
		c-2.9,0-5.3-2.4-5.3-5.3V32.1H77v37.5c0,2.9-2.4,5.3-5.3,5.3c-2.9,0-5.3-2.4-5.3-5.3V32.1H52.6v88.9c0,2.9-2.4,5.3-5.3,5.3
		c-2.9,0-5.3-2.4-5.3-5.3V32.1H31l0,175.4l0,23.2l0,32.1c0.6,2.4,2.7,3.6,5.1,3.6C38.5,266.4,41.1,265.2,42,262.8z M91.7,342
		c-2.5-0.8-5-1.7-7.3-2.7l-5.9,31h3.1L91.7,342z M46,274c5.1,16.2,11.5,31.1,22.4,42.2c4,4.1,8.8,7.7,14.4,10.7
		c0.1,0,0.2,0.1,0.2,0.1l0,0c2.5,1.3,5.1,2.5,7.8,3.5c2.8,1.1,5.8,2,9,2.8c0.1,0,0.2,0.1,0.3,0.1c7.4,1.8,15.9,2.9,25.7,3.1v0H213
		h87.2c0.1,0,0.2,0,0.3,0c62.4-1.5,73.4-40.2,84.9-80.6c1.9-6.6,3.8-13.3,5.9-20H198.6v27.5c0,1.6-0.4,3.2-1,4.7h0l-0.1,0.2h0
		l-0.1,0.2h0l-0.1,0.2l-0.1,0.2h0l-0.1,0.2l0,0l-0.1,0.2v0l-0.1,0.2h0l-0.1,0.2v0l-0.1,0.2v0l-0.1,0.2l0,0l-0.1,0.1v0l-0.1,0.1l0,0
		l-0.1,0.1l0,0l-0.1,0.1l0,0l-0.1,0.1v0l-0.1,0.1v0l-0.1,0.1l0,0l-0.1,0.1l0,0l-0.1,0.1h0l-0.1,0.1l0,0l-0.1,0.1l0,0l-0.1,0.1v0
		l-0.1,0.1l0,0l-0.1,0.1v0l-0.1,0.1h0l-0.1,0.1l0,0L195,272h0l-0.1,0.1v0l-0.1,0.1v0l-0.1,0.1h0l-0.1,0.1h0l-0.1,0.1h0l-0.1,0.1l0,0
		l-0.1,0.1h0l-0.1,0.1v0l-0.1,0.1l0,0l-0.1,0.1h0l-0.1,0.1h0l-0.1,0.1l0,0l-0.1,0.1l0,0l-0.1,0.1l0,0l-0.1,0.1v0l-0.1,0.1l0,0
		l-0.2,0.1c-0.1,0.1-0.2,0.2-0.4,0.2l-0.2,0.1l0,0l-0.2,0.1l0,0l-0.1,0c-6.4,3.8-14.3,3.9-20.5,0v0l-0.2-0.1l-0.2-0.1v0
		c-0.2-0.1-0.4-0.3-0.6-0.4l-0.2-0.1h0l0,0h0c-0.4-0.3-0.8-0.7-1.2-1c-0.1,0.1-0.2,0.1-0.2,0.2l0,0l0,0l0,0l0,0l0,0l0,0l0,0l0,0h0
		l0,0h0l0,0h0l0,0h0l0,0h0l0,0h0l0,0h0l0,0h0l0,0h0l0,0l0,0h0l0,0h0c-4.3,3.3-10,4.5-15.2,3.5h0l-0.2,0h0l-0.2,0h0l-0.2,0l-0.2,0
		l-0.2,0l0,0l-0.2,0l0,0l-0.2,0v0l-0.2,0l0,0l-0.2,0l-0.2,0l0,0l-0.2,0v0l-0.2,0h0l-0.2-0.1l0,0l-0.2-0.1h0l-0.2-0.1l0,0l-0.2-0.1
		l0,0l-0.2-0.1l0,0l-0.2-0.1l0,0l-0.2-0.1l0,0l-0.2-0.1l0,0l-0.2-0.1l0,0l-0.2-0.1l0,0l-0.2-0.1l0,0l-0.2-0.1v0l-0.2-0.1v0l-0.2-0.1
		l0,0l-0.2-0.1v0c-0.9-0.4-1.7-0.9-2.4-1.4h0l0,0c-0.4-0.3-0.8-0.6-1.1-0.9l0,0l0,0c-3.3,2.8-7.4,4.6-11.8,4.6h0l-0.1,0h0l-0.1,0h0
		l-0.1,0h0l-0.2,0h0l-0.2,0h0l-0.2,0h0l-0.2,0h0l-0.2,0c-4.4-0.4-8.1-2-11.3-4.6l0,0v0l0,0h0l0,0l0,0l0,0l0,0l0,0h0l0,0v0l0,0l0,0
		l0,0l0,0l0,0l0,0l-0.1,0.1h0l0,0h0l0,0l0,0h0l0,0h0l0,0h0l0,0l0,0h0l0,0h0c-1.6,1.3-3.5,2.3-5.5,3v0l-0.2,0.1v0l-0.2,0.1l-0.2,0.1
		v0l-0.2,0.1v0l-0.2,0.1v0l-0.2,0v0l-0.2,0l-0.2,0v0l-0.2,0v0l-0.2,0v0l-0.2,0v0l-0.2,0v0l-0.2,0l-0.2,0l-0.2,0l-0.2,0v0l-0.2,0v0
		l-0.2,0l-0.2,0v0c-0.5,0.1-1,0.2-1.5,0.2l-0.2,0l-0.2,0c-4.2,0.3-8.4-0.7-11.9-3.1l0,0l-0.2-0.1l0,0l-0.2-0.1l0,0v0l0,0v0l0,0
		c-0.2-0.1-0.4-0.3-0.5-0.4h0l0,0c-0.2-0.1-0.4-0.3-0.5-0.5h0l0,0h0l0,0l0,0h0l0,0l0,0h0l0,0h0l0,0h0l0,0h0l0,0h0l0,0h0l0,0l-0.1,0
		l0,0l0,0l0,0c-3.7,2.5-7.6,4.3-12.2,4.3v0c-3.7,0-8.3-1.4-11.4-4h0l0,0l0,0h0l0,0h0l0,0h0l0,0h0l0,0h0l0,0h0l0,0l0,0l0,0l0,0h0l0,0
		h0l0,0h0l0,0h0c-0.1-0.1-0.2-0.1-0.3-0.2c-5.1,4.1-12,5.7-18.4,3.4l-0.2-0.1l-0.2-0.1h0l-0.2-0.1h0l-0.2-0.1h0l-0.2-0.1l-0.2-0.1
		l-0.2-0.1l-0.2-0.1l-0.2-0.1h0l-0.2-0.1h0l-0.2-0.1h0L51,275l-0.2-0.1h0l-0.2-0.1l-0.2-0.1l-0.2-0.1h0l-0.2-0.1h0l-0.2-0.1h0
		l-0.2-0.1h0l-0.2-0.1h0c-0.7-0.4-1.3-0.9-2-1.4l0,0l0,0l0,0l0,0l0,0l0,0l0,0l0,0l0,0C47.1,273.2,46.5,273.6,46,274z M334.4,342.1
		l10.1,28.2h3.1l-5.9-30.8C339.3,340.5,336.9,341.3,334.4,342.1z M329.9,202.1c0-20.4,0.3-34.5,0.5-46.6c0.3-19,0.6-32.8-0.4-69
		c0-1.6,0-3.7,0-6.3c0.1-15.2,0.5-46.9-12.6-61.2c-4.1-4.4-9.9-7.1-16.2-8.1c-4.7-0.7-9.6-0.5-14.1,0.7c-4.4,1.1-8.5,3.2-11.8,6.2
		c-2.6,2.4-4.7,5.5-5.9,9.2c7.7,0.8,14.7,3.6,20.1,7.7c6.9,5.2,11.2,12.6,11.5,20.8c0.1,2.9-2.2,5.4-5.1,5.4c-0.1,0-0.2,0-0.3,0
		h-62.1c-2.9,0-5.3-2.4-5.3-5.3l0-0.2h0c0.3-8.2,4.6-15.6,11.5-20.8c5.1-3.9,11.6-6.6,18.8-7.6c1.5-7.1,5-12.8,9.7-17.1
		c4.5-4.2,10.2-7,16.3-8.6c6-1.5,12.3-1.8,18.4-0.9c8.5,1.4,16.5,5.1,22.3,11.4c15.9,17.4,15.6,51.8,15.4,68.4c0,2.4,0,4.4,0,5.9
		c1,36.4,0.8,50.3,0.4,69.4c-0.2,11-0.4,23.9-0.4,46.4h65.9v0c0.7,0,1.4,0,1.9,0c4.8,0.3,9,1.8,12.2,4.4c3.5,2.9,5.6,6.9,5.6,11.9
		c0,0.5,0,0.9,0,1.2c-0.3,5-2.5,9.8-8.4,13c-3.5,1.9-8.4,3.1-15.1,3.3c-2.5,7.5-4.7,15.2-6.9,22.9c-8.6,30.3-17,59.8-44.1,75.8
		l7.6,39.6c0.1,0.4,0.2,0.9,0.2,1.3c0,2.9-2.4,5.3-5.3,5.3h-13.2v0c-2.2,0-4.2-1.3-5-3.5l-11.7-32.7c-6.9,1.4-14.6,2.2-23.2,2.4
		c-0.2,0-0.4,0-0.6,0H213h-87.2v0h-0.1c-8.8-0.2-16.6-1-23.7-2.5l-11.7,32.8c-0.8,2.2-2.8,3.5-5,3.5v0H72.1c-2.9,0-5.3-2.4-5.3-5.3
		c0-0.4,0.1-0.9,0.2-1.3l7.6-39.9c-5.2-3.1-9.7-6.7-13.7-10.8c-12.5-12.7-19.5-29.1-25.1-46.7c-2.9,0-5.7-0.8-8.2-2.2
		c-0.2-0.1-0.3-0.2-0.5-0.3c-3.3-2.1-5.9-5.4-6.7-10c-0.1-0.5-0.1-0.9-0.1-1.3l0-27.3c-5.2-0.4-9.2-1.6-12.2-3.2
		c-5.7-3.2-7.9-7.9-8.2-12.9c0-0.3,0-0.7,0-1.2c0-5,2.1-9,5.6-11.9c3.2-2.6,7.4-4.1,12.2-4.4c0.4,0,0.9,0,1.5,0c0.1,0,0.3,0,0.5,0
		h0.7l0-175.3c0-2.9,2.4-5.3,5.3-5.3h167.6c2.9,0,5.3,2.4,5.3,5.3h0v175.3H329.9z M12.3,214.7c-1.1,0.9-1.7,2.2-1.7,3.7
		c0,2.1,1,3.8,2.8,4.8c1.6,0.9,3.9,1.6,7,1.9l0-12.4C17.6,212.7,14.6,212.9,12.3,214.7z"/>
</g>
</svg>
