<?xml version="1.0" encoding="utf-8"?>
<!-- Generator: Adobe Illustrator 19.0.0, SVG Export Plug-In . SVG Version: 6.00 Build 0)  -->
<svg version="1.1" xmlns="http://www.w3.org/2000/svg" xmlns:xlink="http://www.w3.org/1999/xlink" x="0px" y="0px"
	 viewBox="0 0 422.9 412.8" style="enable-background:new 0 0 422.9 412.8;" xml:space="preserve">
<style type="text/css">
	.st0{fill:#1D1D1B;}
</style>
<g id="background">
</g>
<g id="icons">
	<path class="st0" d="M295.1,57.5h-67.5v162.3h67.5V57.5z M195.3,57.5h-68v162.3h68V57.5z M45.6,10.6h-14v391.6h14V10.6z M93.5,10.6
		h-14v388.2l0,0.1l0,0.1v3.1h14V10.6z M68.9,393.7V10.6H56.3v383.1H68.9z M116.8,52.2v-22c0-0.2,0-0.3,0-0.5V10.6h-12.7v383.1h12.7
		C116.8,279.8,116.8,166,116.8,52.2z M305.7,52.2c0,113.8,0,227.6,0,341.5h12.7V10.6h-12.7v19.1c0,0.2,0,0.3,0,0.5V52.2z
		 M295.1,24.9V10.6H127.3v14.3H295.1z M366.2,10.6h-12.7v383.1h12.7V10.6z M376.8,10.6v391.6h14V10.6H376.8z M348.2,0h23.2l0,0l0,0
		h24.6l0.1,0h21.5c2.9,0,5.3,2.4,5.3,5.3c0,2.9-2.4,5.3-5.3,5.3h-16.2v396.9c0,2.9-2.4,5.3-5.3,5.3h-24.6c-2.9,0-5.3-2.4-5.3-5.3
		v-3.3h-12.7v3.3c0,2.9-2.4,5.3-5.3,5.3h-24.6c-2.9,0-5.3-2.4-5.3-5.3v-3.3h-18c-2.9,0-5.3-2.4-5.3-5.3c0-0.2,0-0.3,0-0.5V252.4
		H127.3v146.1c0,0.2,0,0.3,0,0.5c0,2.9-2.4,5.3-5.3,5.3h-18v3.3c0,2.9-2.4,5.3-5.3,5.3H74.2c-2.9,0-5.3-2.4-5.3-5.3v-3.3H56.2v3.3
		c0,2.9-2.4,5.3-5.3,5.3H26.4c-2.9,0-5.3-2.4-5.3-5.3V10.6H5.3C2.4,10.6,0,8.2,0,5.3C0,2.4,2.4,0,5.3,0h21l0.1,0h24.6l0,0l0,0h23.2
		h0h24.6l0,0l0,0h23.2v0h178.3v0h23.2l0,0l0,0H348.2L348.2,0z M329,10.6v391.6h14v-3.1l0-0.2l0-0.1v0v0v0v0v0v0V10.6H329z
		 M183.2,127c2.1-2,5.4-2,7.5,0.1c2,2.1,2,5.4-0.1,7.5l-46.2,45.1c-2.1,2-5.4,2-7.5-0.1c-2-2.1-2-5.4,0.1-7.5L183.2,127z
		 M177.6,100.8c2.1-2,5.4-2,7.5,0.1c2,2.1,2,5.4-0.1,7.5l-46.2,45.1c-2.1,2-5.4,2-7.5-0.1c-2-2.1-2-5.4,0.1-7.5L177.6,100.8z
		 M171.1,75.3c2.1-2,5.4-2,7.5,0.1c2,2.1,2,5.4-0.1,7.5l-29.6,28.9c-2.1,2-5.4,2-7.5-0.1c-2-2.1-2-5.4,0.1-7.5L171.1,75.3z
		 M272.2,75.3c2.1-2,5.4-2,7.5,0.1c2,2.1,2,5.4-0.1,7.5L250,111.8c-2.1,2-5.4,2-7.5-0.1c-2-2.1-2-5.4,0.1-7.5L272.2,75.3z
		 M278.7,100.8c2.1-2,5.4-2,7.5,0.1c2,2.1,2,5.4-0.1,7.5l-46.2,45.1c-2.1,2-5.4,2-7.5-0.1c-2-2.1-2-5.4,0.1-7.5L278.7,100.8z
		 M284.3,127c2.1-2,5.4-2,7.5,0.1c2,2.1,2,5.4-0.1,7.5l-46.2,45.1c-2.1,2-5.4,2-7.5-0.1c-2-2.1-2-5.4,0.1-7.5L284.3,127z
		 M279.4,165.5c2.1-2,5.4-2,7.5,0.1c2,2.1,2,5.4-0.1,7.5l-29.6,28.9c-2.1,2-5.4,2-7.5-0.1c-2-2.1-2-5.4,0.1-7.5L279.4,165.5z
		 M178.3,165.5c2.1-2,5.4-2,7.5,0.1c2,2.1,2,5.4-0.1,7.5l-29.6,28.9c-2.1,2-5.4,2-7.5-0.1c-2-2.1-2-5.4,0.1-7.5L178.3,165.5z
		 M222.3,46.9h72.8V35.5H127.4v11.4h73.3c2.9,0,5.3,2.4,5.3,5.3v172.9c0,2.9-2.4,5.3-5.3,5.3h-73.3v11.4h167.7v-11.4h-72.8
		c-2.9,0-5.3-2.4-5.3-5.3V52.2C217,49.3,219.4,46.9,222.3,46.9z"/>
</g>
</svg>
