<?xml version="1.0" encoding="utf-8"?>
<!-- Generator: Adobe Illustrator 19.0.0, SVG Export Plug-In . SVG Version: 6.00 Build 0)  -->
<svg version="1.1" xmlns="http://www.w3.org/2000/svg" xmlns:xlink="http://www.w3.org/1999/xlink" x="0px" y="0px"
	 viewBox="0 0 216.5 319.1" style="enable-background:new 0 0 216.5 319.1;" xml:space="preserve">
<style type="text/css">
	.st0{fill:#1D1D1B;}
</style>
<g id="background">
</g>
<g id="icons">
	<path class="st0" d="M88.8,306.4c6.2,1.5,12.8,2.2,19.2,2.2v0c0.1,0,0.3,0,0.4,0c6.4,0,13-0.7,19.2-2.2c9-2.2,17.4-6,23.4-12.1
		c5.8-5.9,9.5-13.9,9.5-24.7h0c0-4.3-0.6-9-1.8-14.2c-3.9-16.5-12.3-26.7-21.3-37.7c-4.6-5.6-9.3-11.3-13.8-18.3h-15.6H92.7
		c-4.5,7-9.2,12.7-13.8,18.3c-9,10.9-17.3,21.2-21.3,37.7c-1.2,5.2-1.8,9.9-1.8,14.2h0c0,10.8,3.7,18.8,9.5,24.7
		C71.4,300.3,79.8,304.2,88.8,306.4L88.8,306.4z M55.9,188.9l31-178.4H73.8L12.7,188.9H55.9z M129.6,10.6l31,178.4h43.2L142.9,10.6
		H129.6z M149.8,188.9l-31-178.4H97.7l-31,178.4h23.1h18.5h18.5H149.8z M108,319.1c-7.1,0-14.5-0.8-21.7-2.5
		c-10.8-2.6-21-7.3-28.5-14.9c-7.7-7.8-12.6-18.3-12.6-32.1h0c0-5.1,0.7-10.6,2.1-16.6c4.5-19,13.6-30.1,23.3-41.9
		c3-3.7,6.1-7.5,9.1-11.6H5.3c-2.9,0-5.3-2.4-5.3-5.3c0-0.7,0.1-1.4,0.4-2L65,3.6c0.8-2.3,3-3.7,5.3-3.6h76.4c2.3,0,4.3,1.5,5,3.6
		l0,0l64.5,188.9c0.9,2.8-0.5,5.8-3.3,6.7c-0.6,0.2-1.1,0.3-1.7,0.3v0h-74.6c3,4.1,6.1,7.9,9.1,11.6c9.7,11.9,18.8,23,23.3,41.9
		c1.4,6.1,2.1,11.6,2.1,16.6h0c0,13.9-4.9,24.4-12.6,32.1c-7.5,7.6-17.6,12.3-28.5,14.9c-7.2,1.7-14.6,2.5-21.7,2.5
		C108.3,319.1,108.2,319.1,108,319.1L108,319.1z"/>
</g>
</svg>
