<?xml version="1.0" encoding="utf-8"?>
<!-- Generator: Adobe Illustrator 19.0.0, SVG Export Plug-In . SVG Version: 6.00 Build 0)  -->
<svg version="1.1" xmlns="http://www.w3.org/2000/svg" xmlns:xlink="http://www.w3.org/1999/xlink" x="0px" y="0px"
	 viewBox="0 0 374.8 194.1" style="enable-background:new 0 0 374.8 194.1;" xml:space="preserve">
<style type="text/css">
	.st0{fill:#1D1D1B;}
</style>
<g id="background">
</g>
<g id="icons">
	<path class="st0" d="M50.7,183.6V49H35.1v134.5H50.7z M339.8,49h-15.7v134.5h15.7V49z M195.5,49h-7.2l0,0h-8.4v134.5h15.7V49z
		 M193.6,38.4h7.2l0,0h117.9l0,0h26.3l0,0h19.1V10.6H193.6V38.4z M29.8,38.4H56h118.5h8.5V10.6H10.6v27.8H29.8z M61.3,49v139.8
		c0,2.9-2.4,5.3-5.3,5.3H29.8c-2.9,0-5.3-2.4-5.3-5.3V49H5.3C2.4,49,0,46.6,0,43.7V5.3C0,2.4,2.4,0,5.3,0h183h181.2
		c2.9,0,5.3,2.4,5.3,5.3v38.4c0,2.9-2.4,5.3-5.3,5.3h-19.2v139.8c0,2.9-2.4,5.3-5.3,5.3h-26.3c-2.9,0-5.3-2.4-5.3-5.3V49H206.1
		v139.8c0,2.9-2.4,5.3-5.3,5.3h-26.3c-2.9,0-5.3-2.4-5.3-5.3V49H61.3z"/>
</g>
</svg>
