<?xml version="1.0" encoding="utf-8"?>
<!-- Generator: Adobe Illustrator 19.0.0, SVG Export Plug-In . SVG Version: 6.00 Build 0)  -->
<svg version="1.1" xmlns="http://www.w3.org/2000/svg" xmlns:xlink="http://www.w3.org/1999/xlink" x="0px" y="0px"
	 viewBox="0 0 435.3 306" style="enable-background:new 0 0 435.3 306;" xml:space="preserve">
<style type="text/css">
	.st0{fill:#1D1D1B;}
</style>
<g id="background">
</g>
<g id="icons">
	<path class="st0" d="M195.6,191h-5.8H10.6v104.4h27.1v-14.6c0-2.9,2.4-5.3,5.3-5.3h152.6h44h152.6c2.9,0,5.3,2.4,5.3,5.3v14.6h27.1
		V191H245.5h-5.8H195.6z M435.3,185.7v115c0,2.9-2.4,5.3-5.3,5.3h-37.7c-2.9,0-5.3-2.4-5.3-5.3v-14.6H239.6h-44H48.3v14.6
		c0,2.9-2.4,5.3-5.3,5.3H5.3c-2.9,0-5.3-2.4-5.3-5.3v-115V57.3c0-1.7,0.8-3.1,2-4.1c4.7-4.2,10.2-8.3,16.5-12.1
		c6.3-3.8,13.2-7.4,20.7-10.6C77.2,13.9,131.3,3.6,188.1,0.8c0.5-0.2,1.1-0.3,1.7-0.3c0.1,0,0.1,0,0.2,0l0.5,0
		c1.1,0,2.4-0.1,3.9-0.1c1.2,0,2.5-0.1,3.9-0.1c6.4-0.2,12.8-0.2,19.3-0.2l0.9,0c1.3,0,2.6,0,3.9,0c1.3,0,2.6,0,3.9,0
		c6.5,0.1,13,0.2,19.3,0.5c0.5,0,1,0.1,1.4,0.3c10.7,0.5,21.2,1.3,31.6,2.4c10.8,1.1,21.4,2.5,31.8,4.1c53.5,8.5,99.1,24.3,123,46.1
		c1.1,1,1.7,2.5,1.7,3.9h0V185.7z M371,119.9c0.9-0.5,1.9-1.1,2.8-1.7c-7.1-4.4-14.7-8.2-22.6-11.2c-2.1-0.8-4.1-1.5-6.1-2.2
		c-12.7-4.1-26.2-6.3-40.1-6.3v0h0c-20.2,0-39.3,4.6-56.3,12.8c-3.3,1.6-6.6,3.3-9.7,5.2c-0.9,0.6-1.9,1.1-2.8,1.7
		c7.1,4.4,14.7,8.2,22.6,11.2c2.1,0.8,4.1,1.5,6.1,2.2c12.7,4.1,26.2,6.3,40.1,6.3v0h0c20.2,0,39.3-4.6,56.3-12.8
		C364.6,123.5,367.8,121.8,371,119.9z M196.4,119.9c0.9-0.5,1.9-1.1,2.8-1.7c-7.1-4.4-14.7-8.2-22.6-11.2c-2.1-0.8-4.1-1.5-6.1-2.2
		c-12.7-4.1-26.2-6.3-40.1-6.3v0h0c-20.2,0-39.3,4.6-56.3,12.8c-3.3,1.6-6.6,3.3-9.7,5.2c-0.9,0.6-1.9,1.1-2.8,1.7
		c7.1,4.4,14.7,8.2,22.6,11.2c2.1,0.8,4.1,1.5,6.1,2.2c12.7,4.1,26.1,6.3,40.1,6.3v0h0c20.2,0,39.3-4.6,56.3-12.8
		C190,123.5,193.2,121.8,196.4,119.9z M35.4,180.4h0.2v0h0h364.1h0v0h0.2c1.1-0.1,2.3-1.3,3.3-3c1.6-2.7,2.6-6.5,2.6-10.7h0v0v0h0
		c0-4.2-1-8-2.6-10.7c-1.1-1.9-2.4-3-3.6-3v0h0H35.6h0v0c-1.1,0-2.4,1.2-3.6,3c-1.6,2.7-2.6,6.5-2.6,10.7h0v0v0h0
		c0,4.2,1,8,2.6,10.7C33.1,179.2,34.3,180.3,35.4,180.4z M35.6,142.4h53.7c-0.8-0.2-1.6-0.5-2.4-0.7c-2.3-0.7-4.5-1.5-6.6-2.3
		c-11.1-4.2-21.7-9.9-31.4-16.8c-2.4-1.7-2.9-5-1.3-7.3c0.4-0.5,0.8-0.9,1.3-1.3l0,0l0,0c0.1-0.1,0.2-0.1,0.3-0.2
		c3.2-2.2,6.4-4.3,9.7-6.3c3.4-2,6.9-3.9,10.5-5.6c18.5-8.9,39.1-13.9,60.9-13.9h0v0c15.1,0,29.7,2.4,43.4,6.8
		c2.3,0.7,4.5,1.5,6.6,2.3c11.1,4.2,21.7,9.9,31.4,16.8c2.4,1.7,2.9,5,1.3,7.3c-0.4,0.5-0.8,0.9-1.2,1.3l0,0l0,0
		c-0.1,0.1-0.2,0.1-0.3,0.2c-3.2,2.2-6.4,4.3-9.7,6.3c-3.4,2-6.9,3.9-10.5,5.6c-6.4,3.1-13,5.7-19.9,7.8h92.6
		c-0.8-0.2-1.6-0.5-2.4-0.7c-2.3-0.7-4.5-1.5-6.6-2.3c-11.2-4.2-21.7-9.9-31.4-16.8c-2.4-1.7-2.9-5-1.3-7.3c0.4-0.5,0.8-0.9,1.3-1.3
		l0,0l0,0c0.1-0.1,0.2-0.1,0.3-0.2c3.2-2.2,6.4-4.3,9.7-6.3c3.4-2,6.9-3.9,10.5-5.6c18.5-8.9,39.1-13.9,60.9-13.9h0v0
		c15.1,0,29.7,2.4,43.4,6.8c2.3,0.7,4.5,1.5,6.6,2.3c11.1,4.2,21.7,9.9,31.4,16.8c2.4,1.7,2.9,5,1.3,7.3c-0.4,0.5-0.8,0.9-1.2,1.3
		l0,0l0,0c-0.1,0.1-0.2,0.1-0.3,0.2c-3.2,2.2-6.4,4.3-9.7,6.3c-3.4,2-6.9,3.9-10.5,5.6c-6.4,3.1-13,5.7-19.9,7.8h53.7h0v0
		c5.1,0,9.6,3.1,12.6,8.1c2.5,4.2,4.1,9.9,4.1,16.2h0v0v0h0c0,5.1-1.1,9.9-2.8,13.7h11.1V59.7c-22.8-19.6-65.5-34-115.8-42
		c-10.1-1.6-20.5-2.9-31.2-4c-10.5-1.1-21.3-1.9-32.1-2.4l-0.1,0c-0.6,0-1.1-0.1-1.7-0.3c-5.9-0.2-11.8-0.4-17.6-0.4
		c-1.3,0-2.6,0-3.8,0c-1.3,0-2.6,0-3.8,0l-0.9,0c-6.3,0-12.7,0.1-19.1,0.2c-1.1,0-2.4,0.1-3.8,0.1c-1,0-2.1,0.1-3.3,0.1
		c-0.4,0.1-0.9,0.2-1.4,0.2C133.9,13.9,80.6,24,43.4,40.1c-7.2,3.1-13.7,6.4-19.5,10c-5,3-9.4,6.2-13.3,9.5v120.8h11.1
		c-1.8-3.9-2.8-8.6-2.8-13.7h0v0v0h0c0-6.2,1.6-12,4.1-16.2C26,145.5,30.4,142.4,35.6,142.4L35.6,142.4L35.6,142.4z"/>
</g>
</svg>
