<?xml version="1.0" encoding="utf-8"?>
<!-- Generator: Adobe Illustrator 19.0.0, SVG Export Plug-In . SVG Version: 6.00 Build 0)  -->
<svg version="1.1" xmlns="http://www.w3.org/2000/svg" xmlns:xlink="http://www.w3.org/1999/xlink" x="0px" y="0px"
	 viewBox="0 0 307.2 380.4" style="enable-background:new 0 0 307.2 380.4;" xml:space="preserve">
<style type="text/css">
	.st0{fill:#1D1D1B;}
</style>
<g id="background">
</g>
<g id="icons">
	<path class="st0" d="M211.1,282.1h-115v13.6h1.5h21.1h69.7h21.1h1.5V282.1z M206.9,380.4h-15.8v0c-2.8,0-5.2-2.2-5.3-5.1l-2.5-69
		h-59.5l-2.5,68.6c0,0.1,0,0.2,0,0.2c0,2.9-2.4,5.3-5.3,5.3h-15.8v0c-2.8,0-5.2-2.2-5.3-5.1l-2.5-69h-1.7c-2.9,0-5.3-2.4-5.3-5.3
		v-24.2c0-2.9,2.4-5.3,5.3-5.3h125.6c2.9,0,5.3,2.4,5.3,5.3V301c0,2.9-2.4,5.3-5.3,5.3h-1.7l-2.5,68.6c0,0.1,0,0.2,0,0.2
		C212.2,378.1,209.9,380.4,206.9,380.4z M196.2,369.8h5.6l2.3-63.5h-10.2L196.2,369.8z M296.6,169.2h-286v7.1h143h132.5h10.5V169.2z
		 M182.8,44.9c2.4-1.7,5.7-1.1,7.4,1.2c1.7,2.4,1.1,5.7-1.2,7.4l-73.4,52.1c-2.4,1.7-5.7,1.1-7.4-1.2c-1.7-2.4-1.1-5.7,1.2-7.4
		L182.8,44.9z M191.7,75.3c2.4-1.7,5.7-1.1,7.4,1.2c1.7,2.4,1.1,5.7-1.2,7.4L124.4,136c-2.4,1.7-5.7,1.1-7.4-1.2
		c-1.7-2.4-1.1-5.7,1.2-7.4L191.7,75.3z M184,117.1c2.4-1.7,5.7-1.1,7.4,1.2c1.7,2.4,1.1,5.7-1.2,7.4l-33.7,23.9
		c-2.4,1.7-5.7,1.1-7.4-1.2c-1.7-2.4-1.1-5.7,1.2-7.4L184,117.1z M164.5,20.4c2.4-1.7,5.7-1.2,7.4,1.2c1.7,2.4,1.2,5.7-1.2,7.4
		l-52.4,37.6c-2.4,1.7-5.7,1.2-7.4-1.2c-1.7-2.4-1.2-5.7,1.2-7.4L164.5,20.4z M90.8,158.6h125.6v-148H90.8V158.6z M73.5,214.3
		c-2.9,0-5.3-2.4-5.3-5.3c0-2.9,2.4-5.3,5.3-5.3h27.7c2.9,0,5.3,2.4,5.3,5.3c0,2.9-2.4,5.3-5.3,5.3H73.5z M206,214.3
		c-2.9,0-5.3-2.4-5.3-5.3c0-2.9,2.4-5.3,5.3-5.3h27.7c2.9,0,5.3,2.4,5.3,5.3c0,2.9-2.4,5.3-5.3,5.3H206z M26.4,231.2h122v-44.3h-122
		V231.2z M28.9,369.8h5.5l2.4-128.1H26.5L28.9,369.8z M283.5,380.4h-15.8v0c-2.9,0-5.2-2.3-5.3-5.2l-2.5-133.4H153.6H47.4l-2.5,133
		c0,0.1,0,0.2,0,0.3c0,2.9-2.4,5.3-5.3,5.3H23.7v0c-2.9,0-5.2-2.3-5.3-5.2L15.8,237c0-0.2,0-0.4,0-0.5v-0.6v0c0-0.2,0-0.3,0-0.5
		c0-0.2,0-0.3,0-0.5v-48.1H5.3c-2.9,0-5.3-2.4-5.3-5.3v-17.7c0-2.9,2.4-5.3,5.3-5.3h74.9V5.3c0-2.9,2.4-5.3,5.3-5.3v0h136.2
		c2.9,0,5.3,2.4,5.3,5.3c0,0.2,0,0.3,0,0.5v152.8h74.9c2.9,0,5.3,2.4,5.3,5.3v17.7c0,2.9-2.4,5.3-5.3,5.3h-10.5v48.6v0.5
		c0,0.2,0,0.3,0,0.5c0,0.3,0,0.5-0.1,0.7l-2.6,137.6c0,0.1,0,0.2,0,0.3C288.8,378.1,286.4,380.4,283.5,380.4z M272.9,369.8h5.5
		l2.4-128.1h-10.3L272.9,369.8z M158.9,231.2h122v-44.3h-122V231.2z M105.4,369.8h5.6l2.3-63.5h-10.2L105.4,369.8z"/>
</g>
</svg>
