<?xml version="1.0" encoding="utf-8"?>
<!-- Generator: Adobe Illustrator 19.0.0, SVG Export Plug-In . SVG Version: 6.00 Build 0)  -->
<svg version="1.1" xmlns="http://www.w3.org/2000/svg" xmlns:xlink="http://www.w3.org/1999/xlink" x="0px" y="0px"
	 viewBox="0 0 362.9 366.3" style="enable-background:new 0 0 362.9 366.3;" xml:space="preserve">
<style type="text/css">
	.st0{fill:#1D1D1B;}
</style>
<g id="background">
</g>
<g id="icons">
	<path class="st0" d="M44.8,350.4c1.8,0.7,3.2,1.7,4.7,2.8c1.6,1.2,3.4,2.5,7.8,2.5c3.6,0,4.8-1.1,5.9-2.1c0.1-0.1,0.2-0.2,0.3-0.3
		c1.7-1.5,3.4-2.9,6.3-3.5V218c-1.7,1.9-3.3,3.7-5,5.5l0,0l-0.1,0.1l-0.1,0.1l-0.1,0.1l-0.1,0.1l-0.1,0.1l0,0l-0.1,0.1l-0.1,0.1
		l-0.1,0.1l-0.1,0.1l-0.1,0.1l-0.1,0.1l-0.1,0.1l-0.1,0.1l-0.1,0.1l-0.1,0.1l-0.1,0.1l-0.1,0.1l-0.1,0.1l-0.1,0.1l-0.1,0.1l-0.1,0.1
		l-0.1,0.1l-0.1,0.1l-0.3,0.3l-0.1,0.1l-0.3,0.3l-0.3,0.3l-0.3,0.3l-0.5,0.5l-0.2,0.2l0,0l-0.3,0.3l-0.8,0.8l-0.3,0.3l-0.1,0.1
		c-0.9,1-1.8,2-2.7,2.9l0,0l0,0l-2.5,2.7l-0.2,0.2l0,0l-0.5,0.5l0,0l-0.3,0.3l-0.3,0.3l-0.9,1l-0.1,0.1l-0.3,0.3l-0.3,0.3l-0.2,0.2
		l-0.1,0.1l-0.3,0.3l-0.3,0.3l-0.3,0.3l-0.3,0.3l-0.3,0.3l0,0l-0.3,0.3l-1,1l0,0l-0.1,0.1l-0.2,0.2l-0.3,0.3l-0.3,0.3l-0.3,0.3
		l-0.3,0.3l-1.5,1.6v0V350.4z M80.3,206v144.4c1.8,0.7,3.2,1.7,4.7,2.8c1.6,1.2,3.4,2.5,7.8,2.5c3.6,0,4.8-1.1,5.9-2.1
		c1.8-1.6,3.5-3.1,6.6-3.8V176.1c-2.7,3.4-5.4,6.8-8.1,10.1c-2.7,3.3-5.4,6.6-8.3,9.9l-0.3,0.3l-0.1,0.1l-0.2,0.2
		C85.7,199.8,83,202.9,80.3,206z M115.8,162.3v188.1c1.8,0.7,3.2,1.7,4.7,2.8c1.6,1.2,3.4,2.5,7.8,2.5c3.6,0,4.8-1.1,5.9-2.1
		c1.8-1.6,3.5-3.1,6.6-3.8V125.7c-2.3,3.8-4.7,7.6-7.1,11.3c-2.7,4.1-5.4,8.1-8.2,12.1l0,0l-0.1,0.2l-0.1,0.2l-0.2,0.2l-0.1,0.1
		C121.9,154,118.9,158.2,115.8,162.3z M151.3,107.4v243c1.8,0.7,3.2,1.7,4.7,2.8c1.6,1.2,3.4,2.5,7.8,2.5c3.6,0,4.8-1.1,5.9-2.1
		c0.1-0.1,0.2-0.2,0.3-0.3c1.7-1.5,3.4-2.9,6.3-3.6V50.4c-1.1,3.4-2.3,6.7-3.5,10C166.8,76.7,159.5,92.3,151.3,107.4z M334.6,242.1
		l-6,2.4v104.9h6V242.1z M352.2,235l-1.6,0.6l-5.4,2.2v111.6h7L352.2,235z M202.7,88.7c-6.1-13-11.5-26.4-15.9-40.2v302
		c1.8,0.7,3.2,1.7,4.7,2.8c1.6,1.2,3.4,2.5,7.8,2.5c3.6,0,4.8-1.1,5.9-2.1c1.8-1.6,3.5-3.1,6.6-3.8V106.6
		c-2.9-5.3-5.6-10.8-8.3-16.3l-0.3-0.6L202.7,88.7z M247.2,162.1c-5.1-6.9-10-13.9-14.8-21.1c-3.5-5.2-6.8-10.5-10.1-15.9v225.3
		c1.8,0.7,3.2,1.7,4.7,2.8c1.6,1.2,3.4,2.5,7.8,2.5c3.6,0,4.8-1,5.9-2l0,0l0,0c1.8-1.6,3.5-3.1,6.6-3.8V162.1z M282.7,206.1
		c-8.4-9.7-16.8-19.7-24.9-30.1v174.4c1.8,0.7,3.2,1.7,4.7,2.8c1.6,1.2,3.4,2.5,7.8,2.5c3.6,0,4.8-1,5.9-2c1.8-1.6,3.5-3.1,6.6-3.8
		V206.1z M362.9,5.8l-0.1,349c0,2.9-2.4,5.3-5.3,5.3v0h-34.1c-0.2,0-0.5,0-0.7,0c-2.2,0-3.1,0.7-4,1.6c-2.6,2.3-5.3,4.7-12.9,4.7
		c-7.8,0-11.1-2.4-14.1-4.6c-1.1-0.8-2.1-1.5-3.5-1.6c-0.1,0-0.1,0-0.2,0c-0.2,0-0.4,0-0.6,0c-2.4-0.1-3.3,0.7-4.2,1.5
		c-2.6,2.3-5.3,4.8-12.9,4.8c-7.8,0-11.1-2.4-14.1-4.6c-1.1-0.8-2.1-1.6-3.6-1.7c-0.1,0-0.2,0-0.4,0c-2.7-0.1-3.6,0.7-4.5,1.5l0,0
		c-2.6,2.3-5.3,4.8-12.9,4.8c-7.8,0-11.1-2.4-14.1-4.6c-1.1-0.8-2-1.5-3.5-1.6c-0.1,0-0.1,0-0.2,0c-0.2,0-0.4,0-0.6,0
		c-2.4-0.1-3.3,0.7-4.2,1.5c-2.6,2.3-5.3,4.7-12.9,4.7c-7.8,0-11.1-2.4-14.1-4.6c-1.1-0.8-2-1.5-3.5-1.6c-0.1,0-0.1,0-0.2,0
		c-0.2,0-0.4,0-0.6,0c-2.2-0.1-3.1,0.6-4,1.3c-0.1,0.1-0.2,0.2-0.3,0.3c-2.6,2.3-5.3,4.7-12.9,4.7c-7.8,0-11.1-2.4-14.1-4.6
		c-1.1-0.8-2.1-1.5-3.5-1.6c-0.1,0-0.1,0-0.2,0c-0.2,0-0.4,0-0.6,0c-2.4-0.1-3.3,0.7-4.2,1.5c-2.6,2.3-5.3,4.7-12.9,4.7
		c-7.8,0-11.1-2.4-14.1-4.6c-1.1-0.8-2.1-1.5-3.5-1.6c-0.1,0-0.1,0-0.2,0c-0.2,0-0.4,0-0.6,0c-2.4-0.1-3.3,0.7-4.2,1.5
		c-2.6,2.3-5.3,4.7-12.9,4.7c-7.8,0-11.1-2.4-14.1-4.6c-1.1-0.8-2.1-1.5-3.5-1.6c-0.1,0-0.1,0-0.2,0c-0.2,0-0.4,0-0.6,0
		c-2.2-0.1-3.1,0.6-4,1.3c-0.1,0.1-0.2,0.2-0.3,0.3c-2.6,2.3-5.3,4.7-12.9,4.7c-7.8,0-11.1-2.4-14.1-4.6c-1.1-0.8-2-1.5-3.5-1.6
		c-0.1,0-0.1,0-0.2,0c-0.1,0-0.3,0-0.4,0H5.4c-2.9,0-5.3-2.4-5.3-5.3L0,5.8c0-0.2,0-0.3,0-0.5C0,2.4,2.4,0,5.3,0H67h53.1h61.7h0.1
		h60.9h53.1h61.7c2.9,0,5.3,2.4,5.3,5.3C362.9,5.5,362.9,5.6,362.9,5.8z M301.2,10.6c0.4,21.8,7,58.2,15.8,95.8
		c10.7,45.9,24.7,93.2,34.5,117.5l0.7-0.3l0.1-213.1H301.2z M266.4,111.2C251.3,73,239.3,35.1,237.7,10.6h-49.5
		c4.1,22.3,10.9,43.5,19.6,63.7l0,0l0,0l0.3,0.7l0.1,0.3c4.1,9.3,8.5,18.3,13.3,27.2c0.1,0.1,0.1,0.2,0.1,0.3
		c4.5,8.3,9.3,16.4,14.2,24.2l0.5,0.7l0.3,0.4l0,0l1.1,1.7l0.1,0.1l0,0c1.1,1.7,2.3,3.5,3.4,5.2c0.8,1.1,1.5,2.3,2.3,3.4l0,0.1l0,0
		l1.1,1.6l0.1,0.1c0.7,1.1,1.4,2.1,2.2,3.1l0.2,0.3l0.1,0.1c2.4,3.4,4.8,6.8,7.2,10.1l0,0c0.7,0.9,1.4,1.9,2.1,2.8
		c0.2,0.2,0.3,0.4,0.5,0.7c0.8,1.1,1.6,2.1,2.4,3.2l0,0c10.4,13.8,21.3,27,32.4,39.6c0.2,0.2,0.3,0.3,0.5,0.5
		c10.4,11.9,21,23.4,31.2,34.3l2.9-1.2C311.7,212,286.3,161.1,266.4,111.2z M248.3,10.6c1.6,23.2,13.2,59.6,28,96.7
		c20.3,51,46.2,102.8,60.2,122.7l5.3-2.1c-10.1-24.9-24.2-72.8-35-119.1c-8.9-38.2-15.6-75.5-16.1-98.2H248.3z M86.6,107.3
		c14.7-37,26.4-73.5,28-96.7H72.3c-0.4,22.9-7.1,60.6-15.9,99.2c-10.6,46.1-24.4,93.6-34.4,118.4l4.5,1.8
		C40.3,210.1,66.3,158.3,86.6,107.3z M13,236l-2.4-1l0,114.5h7V237.9L13,236z M34.2,244.5l-6-2.4v107.4h6V244.5z M36.4,234l3,1.2
		l0,0l0.3-0.3l0.8-0.8l0,0l0.3-0.3l0.3-0.3l1-1c3.7-3.9,7.4-8,11.2-12.1c4-4.3,7.9-8.7,11.8-13l0,0l0.3-0.3l0.3-0.3l0.3-0.3l0.3-0.3
		l0,0l0.3-0.3l0.3-0.3l0.3-0.3l0.3-0.3l0.3-0.3l0,0l0.2-0.3l1-1.1l0.1-0.1l0.1-0.1l0.2-0.2l0.3-0.3l0.8-0.9l0.1-0.2l0.1-0.2l0.3-0.3
		c0.2-0.2,0.3-0.4,0.5-0.6c1.3-1.5,2.6-3,3.9-4.5c4.5-5.2,9-10.6,13.7-16.3c4.6-5.7,9.2-11.3,13.5-17l0.3-0.3l0.3-0.3l0.4-0.5
		l0.1-0.1l0.3-0.3l0.1-0.1l0.1-0.2l0.3-0.3l0.3-0.3l0.1-0.2l0.1-0.2l0.5-0.7l0.1-0.2l0.6-0.8c0.2-0.3,0.3-0.5,0.5-0.7
		c0.8-1.1,1.7-2.2,2.5-3.4l0.2-0.3l0.1-0.1l0.4-0.6l0.1-0.1l0,0l0.2-0.3l0.1-0.1l0.2-0.2l0.1-0.2l0.1-0.2l0.2-0.2
		c4.8-6.5,9.4-13.3,14-20.3c5.8-8.9,11.4-18,16.5-27.4c0.1-0.2,0.2-0.4,0.3-0.5c8.2-14.9,15.4-30.3,21.3-46.5
		c5.4-14.8,9.8-30.2,12.7-46.1h-50.3c-1.6,24.5-13.6,62.4-28.7,100.6C76.6,161.2,51.1,212.1,36.4,234z M10.6,223.6l1.5,0.6
		C21.9,200,35.5,153.1,46,107.4c8.7-37.9,15.3-74.8,15.7-96.8H10.6L10.6,223.6z M293.3,218.1v132.3c1.8,0.7,3.2,1.7,4.7,2.8
		c1.6,1.2,3.4,2.5,7.8,2.5c3.6,0,4.8-1.1,5.9-2.1c1.7-1.6,3.4-3.1,6.4-3.8v-105v0l-0.2-0.3l-0.2-0.3l-0.2-0.3l-0.2-0.3l-0.2-0.3
		l-0.2-0.2l-0.1-0.1l-0.2-0.3l-0.2-0.3l-0.2-0.3C308.5,234.7,300.9,226.5,293.3,218.1z"/>
</g>
</svg>
