<?xml version="1.0" encoding="utf-8"?>
<!-- Generator: Adobe Illustrator 19.0.0, SVG Export Plug-In . SVG Version: 6.00 Build 0)  -->
<svg version="1.1" xmlns="http://www.w3.org/2000/svg" xmlns:xlink="http://www.w3.org/1999/xlink" x="0px" y="0px"
	 viewBox="0 0 330.2 385.4" style="enable-background:new 0 0 330.2 385.4;" xml:space="preserve">
<style type="text/css">
	.st0{fill:#1D1D1B;}
</style>
<g id="background">
</g>
<g id="icons">
	<path class="st0" d="M10.6,335l69.3,16.2v-323L10.6,12C10.6,119.6,10.6,227.3,10.6,335L10.6,335z M159.8,335V12L90.5,28.1
		c0,107.7,0,215.3,0,323L159.8,335z M239.7,28.1L170.4,12v323l69.3,16.2C239.7,243.5,239.7,135.8,239.7,28.1z M330.2,339.2v25
		c0,2.9-2.4,5.3-5.3,5.3c-2.9,0-5.3-2.4-5.3-5.3v-18.3L250.3,362v18.1c0,2.9-2.4,5.3-5.3,5.3c-2.9,0-5.3-2.4-5.3-5.3V362l-69.3-16.2
		v18.3c0,2.9-2.4,5.3-5.3,5.3c-2.9,0-5.3-2.4-5.3-5.3v-18.3L90.5,362v18.1c0,2.9-2.4,5.3-5.3,5.3c-2.9,0-5.3-2.4-5.3-5.3V362
		l-69.3-16.2v18.3c0,2.9-2.4,5.3-5.3,5.3S0,367.1,0,364.2v-25h0V5.3C0,2.4,2.4,0,5.3,0c0.5,0,1,0.1,1.5,0.2l78.4,18.3l78.4-18.3
		c0.1,0,0.3-0.1,0.4-0.1l0,0l0,0l0,0l0,0l0,0l0,0h0l0,0l0,0l0.1,0l0,0l0,0l0,0l0,0l0.1,0l0,0l0,0l0,0l0,0l0.1,0l0,0l0,0l0,0l0,0l0,0
		l0,0l0,0l0,0l0,0h0l0,0l0,0l0,0h0l0,0l0,0h0h0l0,0l0,0l0,0l0,0h0h0l0,0l0,0h0l0,0l0,0l0,0h0l0,0l0,0l0,0l0,0l0,0l0,0l0,0h0l0.1,0h0
		l0,0l0,0l0,0l0,0v0l0.1,0l0,0l0,0l0,0l0,0l0.1,0l0,0l0,0l0,0l0,0l0,0l0,0l0,0l0,0l0,0l0,0l0,0l0,0l0,0l0,0l0,0c0.1,0,0.2,0,0.3,0.1
		L245,18.5l78.4-18.3c0.5-0.1,1-0.2,1.5-0.2c2.9,0,5.3,2.4,5.3,5.3L330.2,339.2L330.2,339.2z M319.6,12l-69.3,16.2v323l69.3-16.2
		C319.6,227.3,319.6,119.6,319.6,12z"/>
</g>
</svg>
