<?xml version="1.0" encoding="utf-8"?>
<!-- Generator: Adobe Illustrator 19.0.0, SVG Export Plug-In . SVG Version: 6.00 Build 0)  -->
<svg version="1.1" xmlns="http://www.w3.org/2000/svg" xmlns:xlink="http://www.w3.org/1999/xlink" x="0px" y="0px"
	 viewBox="0 0 273.8 317.9" style="enable-background:new 0 0 273.8 317.9;" xml:space="preserve">
<style type="text/css">
	.st0{fill:#1D1D1B;}
</style>
<g id="background">
</g>
<g id="icons">
	<path class="st0" d="M149.9,153.9c2.6-1.3,5.8-0.1,7.1,2.5c1.3,2.6,0.1,5.8-2.5,7.1l-30.6,14.6c-2.6,1.3-5.8,0.1-7.1-2.5
		c-1.3-2.6-0.1-5.8,2.5-7.1L149.9,153.9z M157.1,170.2c2.6-1.3,5.8-0.2,7.1,2.4c1.3,2.6,0.2,5.8-2.4,7.1L116,202.6
		c-2.6,1.3-5.8,0.2-7.1-2.4c-1.3-2.6-0.2-5.8,2.4-7.1L157.1,170.2z M170.9,154.2c-8.7-8.7-20.7-14.1-34-14.1
		c-13.3,0-25.3,5.4-34,14.1c-8.7,8.7-14.1,20.7-14.1,34c0,13.3,5.4,25.3,14.1,34c8.7,8.7,20.7,14.1,34,14.1v0
		c13.3,0,25.3-5.4,34-14.1c8.7-8.7,14.1-20.7,14.1-34h0C185,175,179.6,162.9,170.9,154.2z M136.9,129.5c16.2,0,30.9,6.6,41.5,17.2
		c10.6,10.6,17.2,25.3,17.2,41.5h0c0,16.2-6.6,30.9-17.2,41.5c-10.6,10.6-25.3,17.2-41.5,17.2v0c-16.2,0-30.9-6.6-41.5-17.2
		c-10.6-10.6-17.2-25.3-17.2-41.5s6.6-30.9,17.2-41.5C106,136.1,120.7,129.5,136.9,129.5z M195,130.2
		c-14.9-14.9-35.4-24.1-58.1-24.1c-22.7,0-43.2,9.2-58.1,24.1c-14.9,14.9-24.1,35.4-24.1,58.1c0,22.7,9.2,43.2,24.1,58.1
		c14.9,14.9,35.4,24.1,58.1,24.1c22.7,0,43.2-9.2,58.1-24.1c14.9-14.9,24.1-35.4,24.1-58.1C219,165.6,209.8,145,195,130.2z
		 M136.9,95.5c25.6,0,48.8,10.4,65.6,27.2c16.8,16.8,27.2,40,27.2,65.6s-10.4,48.8-27.2,65.6c-16.8,16.8-40,27.2-65.6,27.2
		c-25.6,0-48.8-10.4-65.6-27.2c-16.8-16.8-27.2-40-27.2-65.6c0-25.6,10.4-48.8,27.2-65.6C88.1,105.9,111.3,95.5,136.9,95.5z
		 M10.6,61.3h252.6V10.6H10.6V61.3z M263.2,71.9H10.6v235.5h252.6V71.9z M5.8,0h262.7c2.9,0,5.3,2.4,5.3,5.3h0v61.3v246
		c0,2.9-2.4,5.3-5.3,5.3c-0.2,0-0.3,0-0.5,0H5.3c-2.9,0-5.3-2.4-5.3-5.3h0v-246V5.3C0,2.4,2.4,0,5.3,0C5.5,0,5.6,0,5.8,0z
		 M86.4,28.8h-47v14.2h47V28.8z M129.5,31.3c-1.2-1.2-2.8-1.9-4.6-1.9c-1.7,0-3.3,0.7-4.4,1.7c-0.1,0.1-0.1,0.1-0.2,0.2
		c-1.2,1.2-1.9,2.8-1.9,4.6c0,3.6,2.9,6.6,6.6,6.6c1.8,0,3.4-0.7,4.6-1.9l0,0l0,0l0,0c1.2-1.2,1.9-2.8,1.9-4.6
		C131.4,34.1,130.6,32.5,129.5,31.3z M124.8,18.8c4.7,0,9,1.9,12.1,5c3.1,3.1,5,7.4,5,12.1c0,4.7-1.9,9-5,12.1l0,0l-0.1,0.1
		c-3.1,3.1-7.3,4.9-12,4.9c-9.5,0-17.1-7.7-17.1-17.1c0-4.7,1.9-9,5-12.1c0.1-0.1,0.2-0.2,0.4-0.3C116.1,20.6,120.3,18.8,124.8,18.8
		z M170.3,31.3c-1.2-1.2-2.8-1.9-4.6-1.9c-1.8,0-3.4,0.7-4.6,1.9c-1.2,1.2-1.9,2.8-1.9,4.6c0,1.7,0.6,3.3,1.7,4.4
		c0.1,0.1,0.1,0.1,0.2,0.2c1.2,1.2,2.8,1.9,4.6,1.9c1.8,0,3.4-0.7,4.6-1.9l0,0l0,0l0,0c1.2-1.2,1.9-2.8,1.9-4.6
		C172.2,34.1,171.5,32.5,170.3,31.3z M165.7,18.8c4.7,0,9,1.9,12.1,5c3.1,3.1,5,7.4,5,12.1c0,4.7-1.9,9-5,12.1l0,0l-0.1,0.1
		c-3.1,3.1-7.3,4.9-12,4.9c-4.7,0-9-1.9-12.1-5c-0.1-0.1-0.2-0.2-0.3-0.3c-2.9-3.1-4.7-7.2-4.7-11.8c0-4.7,1.9-9,5-12.1
		C156.7,20.7,161,18.8,165.7,18.8z M234.4,32.9h-35.6v6h35.6V32.9z M193.5,22.3h46.2c2.9,0,5.3,2.4,5.3,5.3c0,0.2,0,0.3,0,0.5v16.1
		c0,2.9-2.4,5.3-5.3,5.3v0h-46.2c-2.9,0-5.3-2.4-5.3-5.3c0-0.2,0-0.3,0-0.5V27.6C188.2,24.7,190.6,22.4,193.5,22.3L193.5,22.3z
		 M34.1,18.2h57.6c2.9,0,5.3,2.4,5.3,5.3v24.8c0,2.9-2.4,5.3-5.3,5.3H34.1c-2.9,0-5.3-2.4-5.3-5.3V23.5
		C28.8,20.6,31.2,18.2,34.1,18.2z M150.8,195.9c2.6-1.3,5.8-0.1,7.1,2.5c1.3,2.6,0.1,5.8-2.5,7.1L123,220.9
		c-2.6,1.3-5.8,0.1-7.1-2.5c-1.3-2.6-0.1-5.8,2.5-7.1L150.8,195.9z"/>
</g>
</svg>
