<?xml version="1.0" encoding="utf-8"?>
<!-- Generator: Adobe Illustrator 19.0.0, SVG Export Plug-In . SVG Version: 6.00 Build 0)  -->
<svg version="1.1" xmlns="http://www.w3.org/2000/svg" xmlns:xlink="http://www.w3.org/1999/xlink" x="0px" y="0px"
	 viewBox="0 0 389 323.3" style="enable-background:new 0 0 389 323.3;" xml:space="preserve">
<style type="text/css">
	.st0{fill:#1D1D1B;}
</style>
<g id="background">
</g>
<g id="icons">
	<path class="st0" d="M212.5,10.6h-36.1l12.2,27.8h11.7L212.5,10.6z M91.8,253.9l-16.4-92.1H28l-16.4,92.1H91.8z M377.4,253.9
		L361,161.7h-47.5l-16.4,92.1H377.4z M234.6,253.9l-16.4-92.1h-47.5l-16.4,92.1H234.6z M58.5,273.9v-9.4H44.9v9.4H58.5z M344,273.9
		v-9.4h-13.6v9.4H344z M187.7,273.9h13.6v-9.4h-13.6V273.9z M168.3,0h52.3c2.9,0,5.3,2.4,5.3,5.3c0,0.9-0.2,1.7-0.6,2.5l-16.6,38
		c-0.9,2-2.8,3.2-4.8,3.2v0h-4l0,100.8c0,0.5-0.1,0.9-0.2,1.3h23.1c2.7,0,4.9,2,5.2,4.5l18.2,102.5c0.5,2.9-1.4,5.6-4.3,6.1
		c-0.5,0.1-0.9,0.1-1.4,0.1h-28.6v9.4h2.6c2.9,0,5.3,2.4,5.3,5.3c0,2.9-2.4,5.3-5.3,5.3h-7.8l-0.1,0h-6.7
		c1.8,12.2,18,20.9,38.3,25.2c9.5,2,19.9,3.1,30.1,3.1c10.2,0,20.4-1.1,29.6-3.2c17.8-4.2,31.7-12.4,33.9-25h-6.7l-0.1,0h-7.8
		c-2.9,0-5.3-2.4-5.3-5.3c0-2.9,2.4-5.3,5.3-5.3h2.6v-9.4h-29.1c-2.9,0-5.3-2.4-5.3-5.3c0-0.3,0-0.6,0.1-0.9l0,0l18.3-102.7
		c0.4-2.6,2.7-4.4,5.2-4.4v0h56.4c2.7,0,4.9,2,5.2,4.5l18.2,102.5c0.5,2.9-1.4,5.6-4.3,6.1c-0.5,0.1-0.9,0.1-1.4,0.1h-28.6v9.4h2.6
		c2.9,0,5.3,2.4,5.3,5.3c0,2.9-2.4,5.3-5.3,5.3h-7.8l-0.1,0h-6.8c-1.9,18.5-19.4,30-42.2,35.4c-9.9,2.3-20.9,3.4-32,3.5
		c-11,0-22.2-1.1-32.3-3.3c-18.3-3.9-33.8-11.3-41.5-22c-7.8,10.7-23.3,18.1-41.5,22c-10.2,2.2-21.3,3.3-32.3,3.3
		c-11.1,0-22.1-1.1-32-3.5c-22.7-5.3-40.2-16.8-42.2-35.4h-6.8l-0.1,0h-7.8c-2.9,0-5.3-2.4-5.3-5.3c0-2.9,2.4-5.3,5.3-5.3h2.6v-9.4
		H5.3c-2.9,0-5.3-2.4-5.3-5.3c0-0.3,0-0.6,0.1-0.9l0,0l18.3-102.7c0.4-2.6,2.7-4.4,5.2-4.4v0h56.4c2.7,0,4.9,2,5.2,4.5l18.2,102.5
		c0.5,2.9-1.4,5.6-4.3,6.1c-0.5,0.1-0.9,0.1-1.4,0.1H69.1v9.4h2.6c2.9,0,5.3,2.4,5.3,5.3c0,2.9-2.4,5.3-5.3,5.3h-7.8l-0.1,0h-6.7
		c2.2,12.6,16.1,20.9,33.9,25c9.2,2.1,19.4,3.2,29.6,3.2c10.3,0,20.6-1,30.1-3.1c20.3-4.3,36.5-13,38.3-25.2h-6.7l-0.1,0h-7.8
		c-2.9,0-5.3-2.4-5.3-5.3c0-2.9,2.4-5.3,5.3-5.3h2.6v-9.4H148c-2.9,0-5.3-2.4-5.3-5.3c0-0.3,0-0.6,0.1-0.9l0,0l18.3-102.7
		c0.4-2.6,2.7-4.4,5.2-4.4v0h23.1c-0.1-0.4-0.2-0.9-0.2-1.3l0-100.8h-4c-2.3,0-4.3-1.5-5-3.6l-16.6-38c-1.2-2.7,0.1-5.8,2.7-7
		C166.9,0.2,167.6,0,168.3,0L168.3,0z"/>
</g>
</svg>
