<?xml version="1.0" encoding="utf-8"?>
<!-- Generator: Adobe Illustrator 19.0.0, SVG Export Plug-In . SVG Version: 6.00 Build 0)  -->
<svg version="1.1" xmlns="http://www.w3.org/2000/svg" xmlns:xlink="http://www.w3.org/1999/xlink" x="0px" y="0px"
	 viewBox="0 0 355.3 408" style="enable-background:new 0 0 355.3 408;" xml:space="preserve">
<style type="text/css">
	.st0{fill:#1D1D1B;}
</style>
<g id="background">
</g>
<g id="icons">
	<path class="st0" d="M215.2,251.2V33.9h-25.6v217.3H215.2z M273.9,251.2V33.9h-25.6v217.3H273.9z M332.6,251.2V33.9H307v217.3
		H332.6z M313.9,46.5h11.8V78h-11.8V46.5z M255.2,46H267v31.4h-11.8V46z M196.6,46h11.8v31.4h-11.8V46z M150.3,33.9H22.8v217.3
		h127.6V33.9z M160.9,33.9v222.6c0,2.9-2.4,5.3-5.3,5.3H17.5c-2.9,0-5.3-2.4-5.3-5.3V33.9H5.3v0c-2.9,0-5.3-2.4-5.3-5.3V5.8
		c0-0.2,0-0.3,0-0.5C0,2.4,2.4,0,5.3,0H350v0c2.9,0,5.3,2.4,5.3,5.3v22.8c0,0.2,0,0.3,0,0.5c0,2.9-2.4,5.3-5.3,5.3h-6.9v222.6
		c0,2.9-2.4,5.3-5.3,5.3h-36.2c-2.9,0-5.3-2.4-5.3-5.3V33.9h-11.9v222.6c0,2.9-2.4,5.3-5.3,5.3H243c-2.9,0-5.3-2.4-5.3-5.3V33.9
		h-11.9v222.6c0,2.9-2.4,5.3-5.3,5.3h-36.2c-2.9,0-5.3-2.4-5.3-5.3V33.9H160.9z M129,123.2c2.2-1.9,5.6-1.6,7.4,0.7
		c1.9,2.2,1.6,5.6-0.7,7.4L54,199.4c-2.2,1.9-5.6,1.6-7.4-0.7c-1.9-2.2-1.6-5.6,0.7-7.4L129,123.2z M98.7,51.6
		c2.2-1.9,5.6-1.6,7.4,0.6c1.9,2.2,1.6,5.6-0.6,7.4l-58.3,49c-2.2,1.9-5.6,1.6-7.4-0.6c-1.9-2.2-1.6-5.6,0.6-7.4L98.7,51.6z
		 M119.1,83.6c2.2-1.9,5.6-1.6,7.4,0.7c1.9,2.2,1.6,5.6-0.7,7.4l-81.8,68.1c-2.2,1.9-5.6,1.6-7.4-0.7c-1.9-2.2-1.6-5.6,0.7-7.4
		L119.1,83.6z M120.4,181.3c2.2-1.9,5.6-1.6,7.4,0.7c1.9,2.2,1.6,5.6-0.7,7.4L74.8,233c-2.2,1.9-5.6,1.6-7.4-0.7
		c-1.9-2.2-1.6-5.6,0.7-7.4L120.4,181.3z M10.6,374.7h161.8v-86.4H10.6V374.7z M182.9,288.3v86.4h161.8v-86.4H182.9z M343.9,385.3
		H322l1.9,12.1H342L343.9,385.3z M33.3,385.3H11.5l1.9,12.1h18.1L33.3,385.3z M240.9,308.9c-2.9,0-5.3-2.4-5.3-5.3
		c0-2.9,2.4-5.3,5.3-5.3h45.9c2.9,0,5.3,2.4,5.3,5.3c0,2.9-2.4,5.3-5.3,5.3H240.9z M68.5,308.9c-2.9,0-5.3-2.4-5.3-5.3
		c0-2.9,2.4-5.3,5.3-5.3h45.9c2.9,0,5.3,2.4,5.3,5.3c0,2.9-2.4,5.3-5.3,5.3H68.5z M355.3,380L355.3,380L355.3,380L355.3,380
		L355.3,380L355.3,380l0,0.2v0l0,0.1v0v0l0,0v0v0l0,0v0l0,0.1l0,0l0,0v0c0,0.1,0,0.3,0,0.4l0,0c0,0.1,0,0.1,0,0.2l-3.5,22.6
		c-0.4,2.7-2.7,4.5-5.4,4.5h-27c-2.6,0-4.8-1.9-5.2-4.5l-2.8-18.2H177.7H44l-2.8,18.2c-0.4,2.7-2.7,4.5-5.4,4.5h-27
		c-2.6,0-4.8-1.9-5.2-4.5l-3.5-22.3C0.1,380.9,0,380.4,0,380c0-0.2,0-0.3,0-0.5V283c0-2.9,2.4-5.3,5.3-5.3v0h172.4H350
		c2.9,0,5.3,2.4,5.3,5.3c0,0.2,0,0.3,0,0.5V380z M10.6,10.6v12.7h334.2V10.6"/>
</g>
</svg>
