<?xml version="1.0" encoding="utf-8"?>
<!-- Generator: Adobe Illustrator 19.0.0, SVG Export Plug-In . SVG Version: 6.00 Build 0)  -->
<svg version="1.1" xmlns="http://www.w3.org/2000/svg" xmlns:xlink="http://www.w3.org/1999/xlink" x="0px" y="0px"
	 viewBox="0 0 230.2 388.7" style="enable-background:new 0 0 230.2 388.7;" xml:space="preserve">
<style type="text/css">
	.st0{fill:#1D1D1B;}
</style>
<g id="background">
</g>
<g id="icons">
	<path class="st0" d="M55.1,366.8c-1.2-1.2-2.9-2-4.7-2v0c-1.8,0-3.5,0.7-4.7,1.9l0,0c-1.2,1.2-1.9,2.9-1.9,4.7h0
		c0,1.8,0.8,3.5,2,4.7l0,0c1.2,1.2,2.9,2,4.7,2c1.8,0,3.5-0.7,4.7-1.9l0,0l0,0c1.2-1.2,1.9-2.9,1.9-4.7c0-1.7-0.7-3.3-1.8-4.5
		C55.3,366.9,55.2,366.8,55.1,366.8L55.1,366.8z M103.8,250.2c0.2,0,0.3,0,0.5,0h21.4c0.2,0,0.3,0,0.5,0h57.8v0
		c2.5,0,4.9-1.2,6.6-3.2c1.9-2.1,3.1-5.2,3.1-8.5V233c0-6.4-4.3-11.7-9.6-11.7v0h-52.4c-0.2,0-0.3,0-0.5,0H98.8v0h0H46.2v0
		c-5.3,0-9.6,5.3-9.6,11.7v5.5c0,6.4,4.3,11.7,9.6,11.7v0H103.8z M179.1,364.8c-1.8,0-3.5,0.7-4.7,1.9l0,0c-1.2,1.2-1.9,2.9-1.9,4.7
		h0c0,1.8,0.8,3.5,2,4.7c0.1,0.1,0.1,0.1,0.2,0.2c1.2,1.1,2.8,1.8,4.5,1.8c1.8,0,3.5-0.7,4.7-1.9l0,0c1.2-1.2,1.9-2.9,1.9-4.7
		c0-1.8-0.7-3.5-2-4.7l0,0C182.5,365.6,180.9,364.8,179.1,364.8L179.1,364.8z M114.9,364.8c-1.8,0-3.5,0.8-4.7,2
		c-0.1,0.1-0.1,0.1-0.2,0.2c-1.1,1.2-1.8,2.8-1.8,4.5c0,1.8,0.8,3.5,2,4.7c1.2,1.2,2.9,2,4.7,2c1.8,0,3.5-0.7,4.7-2l0,0
		c1.2-1.2,2-2.9,2-4.7h0c0-1.8-0.7-3.5-1.9-4.7l0,0l0,0C118.4,365.6,116.8,364.8,114.9,364.8z M204.8,236c0,0.9-0.2,1.8-0.7,2.6
		c0,6-2.2,11.4-5.7,15.4c-3.7,4.2-8.8,6.8-14.5,6.8v0h-53v69.6l53.6,24.5c0.5,0.2,0.9,0.5,1.3,0.8c2.1,0.9,3.9,2.1,5.4,3.7l0,0l0,0
		c3.1,3.1,5,7.4,5,12.2c0,4.7-1.9,9-5,12.2l0,0l0,0l0,0c-3.1,3.1-7.4,5-12.2,5c-4.6,0-8.8-1.8-11.8-4.7c-0.1-0.1-0.2-0.2-0.3-0.3
		c-3.1-3.1-5-7.4-5-12.2h0c0-4.7,1.9-9,5-12.2l0,0l0,0l0,0c0.2-0.2,0.4-0.4,0.7-0.6l-44.9-20.5h-2.6l0.1,16.9c2.7,0.8,5,2.3,7,4.2
		l0,0c3.1,3.1,5.1,7.4,5.1,12.2h0c0,4.8-1.9,9.1-5,12.2l0,0l0,0c-3.1,3.1-7.4,5-12.2,5c-4.8,0-9.1-1.9-12.2-5c-3.1-3.1-5-7.4-5-12.2
		c0-4.6,1.8-8.8,4.7-11.8c0.1-0.1,0.2-0.2,0.3-0.4c1.9-1.9,4.2-3.4,6.9-4.2l-0.1-16.9h-3.1l-44.5,20.5c0.2,0.2,0.5,0.4,0.7,0.7
		c0.1,0.1,0.2,0.2,0.3,0.4c2.9,3.1,4.7,7.2,4.7,11.8c0,4.7-1.9,9.1-5,12.2l0,0l0,0l0,0c-3.1,3.1-7.4,5-12.2,5c-4.8,0-9.1-1.9-12.2-5
		l0,0l0,0c-3.1-3.1-5-7.4-5-12.2h0c0-4.7,1.9-9,5.1-12.2l0,0l0,0l0,0c1.5-1.5,3.4-2.8,5.4-3.6c0.4-0.3,0.8-0.6,1.3-0.8l54-24.9
		v-69.2H46.2v0c-11.1,0-20.2-10-20.2-22.2c-0.4-0.8-0.7-1.6-0.7-2.6v-64h-20c-2.9,0-5.3-2.4-5.3-5.3c0-2.9,2.4-5.3,5.3-5.3h25.3
		c2.9,0,5.3,2.4,5.3,5.3v47.1c3-2,6.6-3.1,10.3-3.1v0h47.3v-23.6H83.4c-10.6,0-21.4-4.7-29.5-12.1c-7.7-7.1-12.8-16.8-12.8-27.5h0
		c0-38.7,0-74.6,8.8-101.3C59.1,18.1,77.6,0.2,114.4,0h0c36.8,0.2,55.3,18.1,64.5,46.3c8.8,26.7,8.8,62.6,8.8,101.3h0
		c0,10.7-5.2,20.4-12.8,27.5c-8,7.4-18.9,12.1-29.5,12.1h-9.1v23.6h47.6v0c3.8,0,7.3,1.1,10.3,3.1v-47.1c0-2.9,2.4-5.3,5.3-5.3h25.3
		c2.9,0,5.3,2.4,5.3,5.3c0,2.9-2.4,5.3-5.3,5.3h-20V236z M109.5,327.6h10.8v-66.8h-10.8 M125.8,210.7v-23.6h-11.4h-10.4v23.6H125.8z
		 M83.4,176.6h31h16.6h14.4c7.9,0,16.2-3.6,22.3-9.2c5.6-5.2,9.4-12.2,9.4-19.7h0c0-37.8,0-72.8-8.3-98.1
		c-7.8-23.8-23.4-38.8-54.5-39c-31.1,0.2-46.7,15.2-54.5,39c-8.3,25.2-8.3,60.3-8.3,98.1h0c0,7.6,3.8,14.5,9.4,19.7
		C67.2,173,75.5,176.6,83.4,176.6z"/>
</g>
</svg>
