<?xml version="1.0" encoding="utf-8"?>
<!-- Generator: Adobe Illustrator 19.0.0, SVG Export Plug-In . SVG Version: 6.00 Build 0)  -->
<svg version="1.1" xmlns="http://www.w3.org/2000/svg" xmlns:xlink="http://www.w3.org/1999/xlink" x="0px" y="0px"
	 viewBox="0 0 314.3 361.3" style="enable-background:new 0 0 314.3 361.3;" xml:space="preserve">
<style type="text/css">
	.st0{fill-rule:evenodd;clip-rule:evenodd;fill:#1D1D1B;}
</style>
<g id="background">
</g>
<g id="icons">
	<path class="st0" d="M255.8,208.7L255.8,208.7l-0.1-0.1c-0.4-0.3-0.7-0.6-1.2-0.8l0,0l-0.1,0c-0.3-0.2-0.6-0.3-1-0.5l-0.1-0.1
		c-1.2-0.5-2.6-0.8-4.1-0.8v0h0H65.1h0v0c-1.5,0-3,0.3-4.2,0.9l0,0l0,0l0,0l0,0l0,0c-0.4,0.2-0.7,0.4-1.1,0.6l0,0l0,0l0,0l0,0l0,0
		l0,0c-0.3,0.2-0.7,0.5-1,0.7l-0.1,0.1h0c-1.3,1.1-2.1,2.6-2.1,4.2v27v0h0c0,1.6,0.9,3.1,2.2,4.3c1.6,1.4,3.9,2.2,6.4,2.2v0h0h184.1
		h0v0c2.5,0,4.8-0.9,6.4-2.2c1.4-1.2,2.2-2.7,2.2-4.3h0v0v-27v0h0c0-0.7-0.2-1.4-0.5-2.1c-0.1-0.2-0.2-0.4-0.4-0.6
		c0-0.1-0.1-0.1-0.1-0.2C256.6,209.5,256.2,209.1,255.8,208.7L255.8,208.7z M40.4,152.7L40.4,152.7c-0.5-0.1-0.9-0.1-1.3-0.2
		c0-19.5-0.8-37.6,4.5-56.7c2.2-8,5.2-15.6,9-22.9c19.6-37.1,59.1-62.4,104.5-62.4h0.1c45.5,0,84.9,25.4,104.5,62.4
		c3.8,7.2,6.9,14.9,9.1,22.9c5.3,19.1,4.5,37.2,4.5,56.7c-0.4,0-0.9,0.1-1.3,0.2v0c-5.7,0.9-10.8,3.2-14.8,6.4
		c-5.5,4.5-8.9,10.7-8.9,17.7h0v0v19c-0.3,0-0.7,0-1,0v0h0H65.1h0v0c-0.3,0-0.7,0-1,0v-19h0v0h0c0-6.9-3.4-13.2-8.9-17.6
		C51.2,155.9,46.1,153.6,40.4,152.7z M157.1,0L157.1,0L157.1,0C107.6,0,64.7,27.7,43.3,68.1c-4.1,7.9-7.5,16.2-9.9,25
		c-5.6,20.1-5,39-4.9,59.3c-1.1,0-2.2,0.1-3.3,0.2c-6.6,0.7-12.7,3.3-17.2,7.1c-4.9,4.1-8,9.6-8,15.8h0c0,0.7,0,1.4,0.1,2l12.9,116
		c0.7,6,1.9,11.6,5.1,16c0.3,0.4,0.5,0.7,0.8,1l6.9,46c0.3,2.7,2.5,4.8,5.3,4.8h16.7v0c2.5,0,4.8-1.8,5.2-4.4l7.7-46.8h193.1
		l7.7,46.8c0.4,2.6,2.7,4.4,5.2,4.4v0h16.7c2.8,0,5-2.1,5.3-4.8l6.9-46c0.3-0.3,0.5-0.7,0.8-1c3.2-4.4,4.4-10,5.1-16l12.9-116
		c0.1-0.6,0.1-1.3,0.1-2c0-6.2-3.1-11.7-8-15.8c-4.5-3.8-10.6-6.4-17.2-7.1c-1.1-0.1-2.3-0.2-3.3-0.2c0.1-20.3,0.7-39.2-4.9-59.3
		c-2.4-8.7-5.8-17.1-9.9-25C249.7,27.7,206.8,0.1,157.3,0v0H157.1L157.1,0z M10.6,176.2l12.9,116c0.5,4.5,1.3,8.5,3.2,11
		c0.2,0.3,0.5,0.6,0.8,0.9c0.1,0,0.1,0.1,0.2,0.2c1,0.9,2.2,1.6,3.9,2l0,0l0,0c1.1,0.2,2.4,0.4,3.8,0.4v0h6.3v0h0
		c3.6,0,6.1-0.8,7.8-2.1l0.1,0l0,0l0.1,0l0,0l0,0c0.2-0.1,0.3-0.3,0.5-0.5l0,0l0,0l0,0h0l0,0l0,0l0,0v0c0.2-0.2,0.4-0.4,0.6-0.7
		c0.2-0.2,0.3-0.4,0.5-0.6c0-0.1,0.1-0.1,0.1-0.2c0.9-1.8,2.7-3,4.8-3h202v0c1.8,0,3.5,0.9,4.5,2.6l0.1,0.2c0.3,0.6,0.7,1.1,1.1,1.5
		l0,0l0,0l0,0l0,0l0.1,0.1l0,0c0.6,0.6,1.2,1.1,2,1.5c0.2,0.1,0.3,0.2,0.4,0.2l0,0c0.2,0.1,0.3,0.1,0.5,0.2c1.3,0.5,2.9,0.8,4.8,0.9
		h0l0.1,0h0l0.1,0h0l0.1,0h0l0.1,0h0l0.1,0h0l0.1,0h0h0.1h0h0.1v0h0h6.3c3.7,0,6.1-0.9,7.7-2.4l0.2-0.1l0,0c0.3-0.3,0.6-0.6,0.8-0.9
		c1.9-2.6,2.7-6.6,3.2-11l12.9-116c0-0.4,0.1-0.6,0.1-0.9c0-2.8-1.6-5.5-4.2-7.6c-3-2.5-7.1-4.2-11.5-4.7c-0.8-0.1-1.7-0.1-2.6-0.1
		v0h-6.3v0h0v0c-5.2,0-9.9,1.7-13.3,4.5c-3.1,2.5-5,5.9-5,9.5h0v0v22.5c1.9,1.3,3.6,2.9,4.9,4.8c0.1,0.1,0.2,0.2,0.2,0.3
		c0.4,0.6,0.7,1.2,1,1.9c0.9,2,1.5,4.2,1.5,6.6h0v0v27v0h0c0,4.9-2.3,9.3-6,12.4c-3.4,2.9-8.1,4.7-13.3,4.7v0h0H65.1h0v0
		c-5.1,0-9.8-1.8-13.3-4.7c-3.7-3.1-6-7.5-6-12.4h0v0v-27c0-4.9,2.3-9.3,6.1-12.5c0.5-0.4,1-0.8,1.5-1.2v-22.5h0v0h0
		c0-3.6-1.9-7-5-9.5c-3.4-2.7-8.1-4.5-13.3-4.5v0h0v0h-6.3v0c-0.9,0-1.8,0-2.6,0.1c-4.5,0.5-8.6,2.2-11.5,4.7
		c-2.6,2.1-4.2,4.8-4.2,7.6h0C10.6,175.6,10.6,175.9,10.6,176.2z M48.8,316.4c-2.1,0.6-4.5,0.9-7.2,0.9h0v0h-6.3v0
		c-1.7,0-3.3-0.1-4.8-0.4l5,33.8h7.6L48.8,316.4z M265.5,316.4l5.7,34.3h7.6l5-33.7c-1.5,0.2-3.1,0.4-4.8,0.4h-6.3h0v0l-0.1,0h0
		h-0.1l-0.1,0h0h0l-0.2,0h0l-0.1,0l0,0c-0.2,0-0.4,0-0.6,0l0,0h0l0,0C269.2,317.2,267.2,316.9,265.5,316.4z"/>
</g>
</svg>
