<?xml version="1.0" encoding="utf-8"?>
<!-- Generator: Adobe Illustrator 19.0.0, SVG Export Plug-In . SVG Version: 6.00 Build 0)  -->
<svg version="1.1" xmlns="http://www.w3.org/2000/svg" xmlns:xlink="http://www.w3.org/1999/xlink" x="0px" y="0px"
	 viewBox="0 0 392.3 333.8" style="enable-background:new 0 0 392.3 333.8;" xml:space="preserve">
<style type="text/css">
	.st0{fill:#1D1D1B;}
</style>
<g id="background">
</g>
<g id="icons">
	<path class="st0" d="M367.9,215H24.4v29.1h343.5V215z M19.1,306.2c-4.7,0-8.5,3.8-8.5,8.5c0,4.7,3.8,8.5,8.5,8.5
		c4.7,0,8.5-3.8,8.5-8.5C27.7,310,23.8,306.2,19.1,306.2z M72.6,58.9H24.4v145.5h48.2V58.9z M131.3,58.9H83.2v145.5h48.2V58.9z
		 M190.1,58.9h-48.2v145.5h48.2V58.9z M248.9,58.9h-48.2v145.5h48.2V58.9z M307.6,58.9h-48.2v145.5h48.2V58.9z M367.9,58.9h-49.7
		v145.5h49.7V58.9z M24.4,48.3h343.5v-43c0-2.9,2.4-5.3,5.3-5.3c2.9,0,5.3,2.4,5.3,5.3v204.4l0,0.1v39.7l0,0.1v46.8
		c8,2.3,13.8,9.7,13.8,18.4c0,10.6-8.6,19.1-19.1,19.1c-10.6,0-19.1-8.6-19.1-19.1c0-8.7,5.9-16.1,13.9-18.4v-41.5H24.4v41.5
		c8,2.3,13.8,9.7,13.8,18.4c0,10.6-8.6,19.1-19.1,19.1C8.6,333.8,0,325.3,0,314.7c0-8.7,5.8-16.1,13.8-18.4v-46.8v-39.7V53.6V5.3
		c0-2.9,2.4-5.3,5.3-5.3c2.9,0,5.3,2.4,5.3,5.3V48.3z M373.2,306.2c-4.7,0-8.5,3.8-8.5,8.5c0,4.7,3.8,8.5,8.5,8.5
		c4.7,0,8.5-3.8,8.5-8.5C381.7,310,377.9,306.2,373.2,306.2z"/>
</g>
</svg>
