<?xml version="1.0" encoding="utf-8"?>
<!-- Generator: Adobe Illustrator 19.0.0, SVG Export Plug-In . SVG Version: 6.00 Build 0)  -->
<svg version="1.1" xmlns="http://www.w3.org/2000/svg" xmlns:xlink="http://www.w3.org/1999/xlink" x="0px" y="0px"
	 viewBox="0 0 395 343.6" style="enable-background:new 0 0 395 343.6;" xml:space="preserve">
<style type="text/css">
	.st0{fill:#1D1D1B;}
</style>
<g id="background">
</g>
<g id="icons">
	<path class="st0" d="M394.7,189.6c-1-7.1-4.1-13.2-8.1-17.5c-3.6-3.7-7.9-6.1-12.6-6.4c0-0.5,0.1-0.9,0.1-1.4
		c0-6.1-3.3-11.5-8.6-15.2c-2.6-1.9-5.8-3.3-9.3-4.3c5.1-4.4,8.5-10,10-15.4c1.7-6.3,0.8-12.5-3.1-17.2c-3.9-4.7-9.8-6.7-16.3-6.3
		c-5.8,0.4-12.1,2.9-17.5,7.4c-0.1,0.1-0.3,0.2-0.4,0.3c-1.7,1.4-3.2,2.9-4.5,4.5c-0.1-0.7-0.3-1.3-0.4-2c-1.5-5.7-5.2-11.5-10.7-16
		l0,0c-5.5-4.5-11.9-7.1-17.7-7.5c-6.5-0.5-12.4,1.6-16.3,6.3l0,0c-1.8,2.2-3,4.8-3.5,7.5c-2.5-3-5.8-5.7-9.6-7.8l0,0
		c-0.6-0.3-1.1-0.6-1.7-0.9c9.6-9.4,16.9-18.4,20.9-25.4c1.4-2.5,0.6-5.8-2-7.2c-1.6-0.9-3.4-0.9-4.9-0.2l0,0
		c-6.5,3.1-14.2,6.5-22.5,10c-14.1,6.1-29.9,12.8-44.8,21c16-27,26.1-56.1,27.4-72.1c0.2-2.9-1.9-5.5-4.8-5.7
		c-1.9-0.2-3.7,0.7-4.7,2.2c-4.4,5.6-10,12-16,18.9c-10.9,12.5-23.1,26.5-33.6,41.5c5.5-30.8,4.9-61.3,0.7-76.7
		c-0.8-2.8-3.7-4.5-6.5-3.7c-1.8,0.5-3.1,1.8-3.6,3.5l0,0c-2.4,7.3-5.4,15.2-8.6,23.8c-6.3,16.8-13.4,35.9-18.2,55.1
		c-4.7-19.2-11.9-38.3-18.2-55.1c-3.2-8.6-6.2-16.5-8.6-23.8l0,0c-0.5-1.6-1.9-3-3.6-3.5c-2.8-0.8-5.7,0.9-6.5,3.7
		c-4.2,15.3-4.8,45.9,0.7,76.7c-10.5-15-22.8-29-33.6-41.5c-6-6.9-11.6-13.3-16-18.8c-1-1.5-2.8-2.4-4.8-2.2
		c-2.9,0.2-5.1,2.8-4.8,5.7c1.4,16,11.4,45.1,27.4,72.1c-14.9-8.1-30.7-14.9-44.8-21c-8.3-3.6-16-6.9-22.5-10l0,0
		c-1.5-0.7-3.3-0.7-4.9,0.2c-2.5,1.4-3.4,4.7-2,7.2c8.1,14.3,30.4,37.1,57.2,54.6c7.8,5.1,16,9.8,24.4,13.7H68.6v0
		c-0.2,0-0.5,0-0.7,0.1c-2.9,0.4-4.9,3.1-4.5,6l13,90.7h-7.8v0c-1.2,0-2.4,0.4-3.4,1.2c-2.2,1.9-2.5,5.2-0.6,7.4l23.9,28.5
		c1,1.4,2.6,2.3,4.4,2.3h100v0c1.5,0,3-0.6,4-1.9l4.8-5.8c0.6,0,1.2-0.1,1.8-0.1c2.6-0.4,4.9-1.3,7-2.7l4.1,36.7h-8.7v0
		c-1.2,0-2.4,0.4-3.4,1.2c-2.2,1.9-2.5,5.2-0.6,7.4l25,29.7c1,1.4,2.6,2.3,4.4,2.3h104.5v0c1.5,0,3-0.6,4-1.9l25-29.7
		c1-1,1.6-2.3,1.6-3.8c0-2.9-2.4-5.3-5.3-5.3h-8.7l10-89.1c4.4,4.2,9.9,6.4,15.6,5.6c6-0.9,10.9-4.9,13.9-10.7
		C394.6,203.4,395.7,196.6,394.7,189.6z M328.5,132.1c1-3.6,3.4-7.3,7-10.4c0.1-0.1,0.3-0.2,0.4-0.3c3.7-3,7.9-4.7,11.6-5
		c3.1-0.2,5.9,0.6,7.4,2.5c1.6,1.9,1.8,4.7,1,7.8c-1,3.7-3.5,7.5-7.2,10.6l0,0c-3.8,3.1-8,4.8-11.7,5.1c-2.6,0.2-4.9-0.3-6.5-1.5v0
		c-0.1-2.2-1.4-5.9-2.1-8.3C328.5,132.3,328.5,132.2,328.5,132.1z M317.4,135.2c1.9,1.5,2.7,4.3,2.5,7.4c-0.2,2.6-1.3,5.3-2.8,8.1
		c-5-2.6-7.9-2.7-9.9-2.7c-5.4,0.2-9,1.6-12.5,6c0.2-0.2-0.8,0.9-0.6,0.7c0-0.4,0-0.8,0-1.3c0.2-3.8,1.9-8,5-11.8
		c3.1-3.8,6.9-6.3,10.5-7.4C312.6,133.4,315.5,133.6,317.4,135.2z M318.4,174.7c0.2,4.9-1,9.3-3.1,12.4c-1.7,2.6-4,4.3-6.5,4.4h0
		c-2.4,0.1-4.9-1.4-6.8-3.9c-2.3-3-3.8-7.2-4-11.9c0-0.2,0-0.3,0-0.5c-0.1-4.8,1.1-9.1,3.1-12.2c1.7-2.6,4-4.3,6.5-4.4
		c2.4-0.1,4.9,1.4,6.8,3.9C316.7,165.5,318.2,169.8,318.4,174.7L318.4,174.7z M287.1,105.7c0.1-0.1,0.2-0.2,0.2-0.3
		c1.6-1.8,4.2-2.5,7.3-2.3c3.8,0.3,8,2,11.7,5.1h0c3.8,3.1,6.2,6.9,7.2,10.6c0.4,1.6,0.5,3.1,0.4,4.4c-4,0.2-4.5,0.1-7.2,0.9
		c-2.5,0.7-5.1,1.9-7.5,3.4c-5.9-2.6-11.4-7.9-13-14.2C285.4,110.3,285.6,107.6,287.1,105.7z M279.6,129.7c0.6-1.1,1.1-2.3,1.4-3.5
		c1.5,2,3.3,4,5.4,5.7c0.1,0.1,0.3,0.2,0.4,0.3c1.3,1,2.6,2,4,2.8l0,0c-2.1,2.6-3.7,5.3-4.9,8.1c-1.5-3.2-3.9-6.1-7.1-8.4
		c-0.6-0.5-1.3-0.9-2-1.3C277.9,132.3,278.8,131.1,279.6,129.7z M277.7,183.3c-1.6,1.9-4.3,2.7-7.4,2.5c-8.2-0.6-16.8-7.8-19-15.7
		c-0.1-0.2-0.1-0.4-0.1-0.6c2.9,0.8,6,1.2,9.2,1.2c5.1,0,9.9-1.1,14-3c2.2,2.5,3.7,5.2,4.4,7.8C279.5,178.6,279.2,181.4,277.7,183.3
		z M276.8,150c0,2.5-1.6,4.8-4.1,6.6c-3.1,2.2-7.4,3.5-12.3,3.5c-7.4,0-10.6-2.3-15.2-6.4c-0.2-0.2-0.3-0.5-0.5-0.8l0.4-0.3
		c0.1-0.1,0.3-0.2,0.4-0.4c1.8-1.5,6.3-7.3,9.1-11.8c1.8-0.4,3.8-0.7,5.8-0.7c4.9,0,9.3,1.4,12.3,3.5
		C275.3,145.1,276.8,147.5,276.8,150z M238.5,144.3L238.5,144.3c-3.8,3.1-8,4.8-11.7,5.1c-3.1,0.2-5.9-0.6-7.4-2.5l0,0
		c-1.6-1.9-1.8-4.7-1-7.7c1-3.6,3.4-7.3,7-10.4c0.1-0.1,0.3-0.2,0.4-0.3c3.7-3,7.9-4.7,11.6-5c3.1-0.2,5.9,0.6,7.4,2.5
		c1.6,1.9,1.8,4.7,1,7.8C244.8,137.4,242.3,141.2,238.5,144.3z M244.5,153.1L244.5,153.1L244.5,153.1L244.5,153.1z M183.7,215.2
		c-3,0.9-5.9,0.6-7.8-0.9c-1.9-1.5-2.7-4.3-2.5-7.4c0.2-3.8,1.9-8,5-11.8c3.1-3.8,6.8-6.3,10.5-7.4c3-0.9,5.9-0.6,7.8,0.9
		c1.9,1.5,2.7,4.3,2.5,7.4c-0.2,3.8-1.9,8-5,11.8C191.1,211.6,187.3,214.2,183.7,215.2z M196.9,175.4c-4.9,0-9.3-1.4-12.3-3.5
		c-2.6-1.8-4.1-4.2-4.1-6.6c0-2.5,1.6-4.8,4.1-6.6c3.1-2.2,7.4-3.5,12.3-3.5c4.9,0,9.3,1.4,12.3,3.5c0.3,0.2,0.6,0.5,0.9,0.7
		c-0.4,0.4-3.2,3.1-2.5,2.6c-5,4.3-6,12.5-6,13C200.2,175.2,198.6,175.4,196.9,175.4z M213.4,183.3c-1.6-1.9-1.8-4.7-1-7.7
		c1-3.6,3.4-7.3,7-10.4c0.1-0.1,0.3-0.2,0.4-0.3c3.7-3,7.9-4.7,11.6-5c2.4-0.2,4.6,0.3,6.2,1.3c0.5,0.7,1.1,1.3,1.8,1.9
		c1.1,1.8,1.2,4.3,0.5,7c-1,3.7-3.5,7.5-7.2,10.6l0,0c-3.8,3.1-8,4.8-11.7,5.1C217.7,186,215,185.2,213.4,183.3z M269.9,116.8
		c1.4,2.8,1.6,5.7,0.5,7.8c-1.2,2.1-3.7,3.4-6.8,3.8c-2.1,0.2-4.5,0.1-6.9-0.6c-0.4-3.2-1.7-6.1-3.7-8.6c-3-3.7-7.3-5.7-12.1-6.2
		c-0.2-1.6,0-3,0.7-4.3c1.2-2.1,3.7-3.4,6.8-3.8c3.7-0.4,8.1,0.4,12.3,2.7c0.2,0.1,0.3,0.2,0.5,0.3
		C265.2,110.2,268.2,113.5,269.9,116.8z M259.8,84.6l4-1.7c-3.4,3.7-7.2,7.6-11.5,11.5c-1.8-0.1-3.6-0.1-5.3,0.1
		c-6.5,0.8-12,3.9-14.9,9.2c-1.5,2.7-2.1,5.7-2,8.8c-2.6,1.9-5.3,3.8-8.1,5.6c-14.6,9.5-30.6,17.4-46.1,21.1
		c7.4-6.4,14.2-13.9,20.5-22C215.5,103.6,239.4,93.3,259.8,84.6z M220.6,46l2.6-3c-4.6,14.7-12.5,32.8-23,49.8
		c-3.5,5.7-7.2,11.2-11.2,16.5c-9.1,6.6-17.3,14-23.7,22.4C172.4,101.4,199.2,70.6,220.6,46z M170.9,31.1l1.4-3.7
		c0.7,15.4-0.5,35.1-4.4,54.8c-3.7,18.7-9.7,37.3-18.8,52.1C144.1,102.9,159,62.9,170.9,31.1z M113.4,27.5l1.4,3.7
		c11.9,31.7,26.8,71.7,21.8,103.2c-9.1-14.8-15.1-33.4-18.8-52.1C113.9,62.6,112.7,42.9,113.4,27.5z M62.5,43.1l2.6,3
		c21.4,24.6,48.2,55.4,55.3,85.8c-6.4-8.4-14.5-15.8-23.7-22.5c-4-5.3-7.7-10.8-11.2-16.5C75,75.8,67.1,57.8,62.5,43.1z M63.6,118
		C47,107.1,32.2,94.2,21.9,82.9l4,1.7c20.3,8.7,44.2,19,63.3,32.5c6.3,8.2,13.2,15.7,20.5,22C94.2,135.4,78.2,127.5,63.6,118z
		 M74.7,151.1c35.5,0,68.2,0,102.3,0c-4.5,3.7-7.2,8.6-7.2,14.1c0,6.1,3.3,11.5,8.6,15.2c0.1,0.1,0.2,0.2,0.4,0.3
		c-3.1,1.9-6.1,4.5-8.7,7.7c-4.5,5.6-6.9,12-7.3,17.8c-0.4,6.5,1.7,12.4,6.5,16.3c3.5,2.8,7.9,4,12.5,3.7c-1.6,3.2-2.6,6.9-2.9,11
		H87.1L74.7,151.1z M95.3,266l-15.3-18.3h99.7c1.3,5.9,4,11.1,7.5,14.7c1.1,1.2,2.3,2.2,3.6,3.1l-0.4,0.4H95.3z M207.9,253.3
		c-1.4,2.8-3.5,4.7-5.9,5.1c-2.4,0.4-5-0.9-7.2-3.1c-2.6-2.7-4.6-6.9-5.3-11.7c-0.7-4.9,0-9.4,1.7-12.7c1.4-2.8,3.5-4.7,5.9-5.1
		c2.4-0.4,5,0.9,7.2,3.1c2.6,2.7,4.5,6.7,5.3,11.4c0,0.2,0,0.4,0.1,0.6C210.3,245.6,209.6,250,207.9,253.3z M333.3,333h-99.6
		l-16.4-19.5h132.4L333.3,333z M341.7,302.8H225.3l-5.7-50.8c0.4-1.7-2.6-23.3-2.6-23.3l-2.8-25l1.1-7.8c2,0.4,4.1,0.6,6.3,0.4
		c5.8-0.4,12.1-2.9,17.5-7.3c0.1-0.1,0.3-0.2,0.4-0.3c1.8-1.5,3.4-3.1,4.8-4.8h2.5c1.4,1.7,3,3.3,4.8,4.8c0.1,0.1,0.3,0.2,0.4,0.3
		c5.4,4.4,11.7,6.9,17.5,7.4c6.5,0.5,12.5-1.6,16.3-6.3c1.4-1.7,2.4-3.5,3-5.5c1.1,3.6,2.7,6.8,4.7,9.5c3.9,5.1,9.3,8.2,15.2,8.1
		c0.2,0,0.4,0,0.6,0c6-0.3,11.1-3.8,14.6-9.1c1.7-2.6,3.1-5.7,3.9-9.2h9.9c2.9,0.8,6,1.2,9.2,1.2c2.8,0,5.6-0.3,8.1-0.9L341.7,302.8
		z M359.3,170.9c-3.1,2.2-7.4,3.5-12.3,3.5c-4.9,0-9.3-1.4-12.3-3.5c-2.6-1.8-4.1-4.2-4.1-6.6c0-2.5,1.6-4.8,4.1-6.6
		c3.1-2.2,7.4-3.5,12.3-3.5c4.9,0,9.3,1.4,12.3,3.5c2.6,1.8,4.1,4.2,4.1,6.6C363.5,166.7,361.9,169.1,359.3,170.9z M382.5,203.8
		c-1.4,2.8-3.5,4.7-5.9,5.1c-2.4,0.4-5-0.9-7.2-3.1c-2.3-2.4-4-5.7-4.9-9.7l1.7-15.4c1.4-2.4,3.4-4,5.6-4.3c2.4-0.4,5,0.9,7.2,3.1
		c2.6,2.7,4.6,6.9,5.3,11.7C384.9,195.9,384.2,200.4,382.5,203.8z"/>
</g>
</svg>
