<?xml version="1.0" encoding="utf-8"?>
<!-- Generator: Adobe Illustrator 19.0.0, SVG Export Plug-In . SVG Version: 6.00 Build 0)  -->
<svg version="1.1" xmlns="http://www.w3.org/2000/svg" xmlns:xlink="http://www.w3.org/1999/xlink" x="0px" y="0px"
	 viewBox="0 0 473.4 203.1" style="enable-background:new 0 0 473.4 203.1;" xml:space="preserve">
<style type="text/css">
	.st0{fill:#1D1D1B;}
</style>
<g id="background">
</g>
<g id="icons">
	<path class="st0" d="M195.7,35.6l-11.6-11.6L100,108.1l8.7,8.7l2.8,2.8L195.7,35.6z M224.8,49.8l-14.2-14.2l-91.5,91.5l14.2,14.2
		L224.8,49.8z M366.9,25.7l-12.9-12.9L282.8,84l7.5,7.5l5.4,5.4L366.9,25.7z M316.1,117.3l24,24l92.6-92.6l-16.6-16.6l-4.1,4.1l0,0
		l-88.5,88.5L316.1,117.3z M307.4,108.5l8.7,8.7l84.8-84.8L388,19.6l-9.9,9.9l0,0l-74.9,74.9L307.4,108.5z M236.3,53.3
		c-0.1,0.1-0.2,0.2-0.3,0.3c-0.1,0.1-0.2,0.2-0.3,0.3l0,0l0,0l0,0h0l-98.5,98.4c-0.1,0.1-0.2,0.2-0.3,0.3c-2.1,2.1-5.4,2.1-7.5,0
		l-21.6-21.6l0,0L29.8,52.9l-17,17l120.5,120.5L233,90.6c2.1-2.1,5.4-2.1,7.5,0l99.7,99.7L460.7,69.9l-17-17l-99.7,99.7
		c-2.1,2.1-5.4,2.1-7.5,0c-0.1-0.1-0.2-0.2-0.3-0.3l-23.5-23.5l0,0l0,0l0,0c-0.1-0.1-0.2-0.2-0.3-0.3c-0.1-0.1-0.2-0.2-0.3-0.3l0,0
		l0,0l-19.9-19.8l0,0l0,0l0,0c-0.1-0.1-0.2-0.2-0.3-0.3c-0.1-0.1-0.2-0.2-0.3-0.3l0,0l0,0l-6.9-6.9l-48.1-48.1L236.3,53.3z
		 M187.8,12.8l15.3,15.3l3.7-3.7c2.1-2.1,5.4-2.1,7.5,0l17.9,17.9l0.7-0.7c2.1-2.1,5.4-2,7.5,0l34.8,34.8l74.9-74.9
		c2.1-2.1,5.4-2.1,7.5,0l16.7,16.7l9.9-9.9c2.1-2.1,5.4-2.1,7.5,0L408.4,25l4.1-4.1c2.1-2.1,5.4-2.1,7.5,0l20.3,20.3
		c2.1-1.7,5.2-1.6,7.1,0.4l24.5,24.5c2.1,2.1,2.1,5.4,0,7.5l-128,128c-2.1,2.1-5.4,2.1-7.5,0l-99.7-99.7L137,201.6
		c-2.1,2.1-5.4,2.1-7.5,0l-128-128c-2.1-2.1-2.1-5.4,0-7.5l24.5-24.5c2.1-2.1,5.4-2.1,7.5,0l59,59l87.8-87.8
		C182.4,10.8,185.8,10.8,187.8,12.8z"/>
</g>
</svg>
