<?xml version="1.0" encoding="utf-8"?>
<!-- Generator: Adobe Illustrator 19.0.0, SVG Export Plug-In . SVG Version: 6.00 Build 0)  -->
<svg version="1.1" xmlns="http://www.w3.org/2000/svg" xmlns:xlink="http://www.w3.org/1999/xlink" x="0px" y="0px"
	 viewBox="0 0 356.7 270.1" style="enable-background:new 0 0 356.7 270.1;" xml:space="preserve">
<style type="text/css">
	.st0{fill-rule:evenodd;clip-rule:evenodd;fill:#1D1D1B;}
</style>
<g id="background">
</g>
<g id="icons">
	<path class="st0" d="M256.4,77.2c-7-7-16.8-11.4-27.5-11.4c-10.7,0-20.4,4.4-27.5,11.4c-7,7-11.4,16.8-11.4,27.5
		c0,2,0.1,3.9,0.4,5.8c0.1,0.6,0.2,1.3,0.3,1.9h76.2c0.1-0.6,0.2-1.2,0.3-1.9c0.3-1.9,0.4-3.8,0.4-5.8
		C267.8,94,263.5,84.3,256.4,77.2L256.4,77.2z M122.7,200.3c-0.3-2.7-0.2-5.4,0-7.4c-5.7-3.4-15.3-11.2-10.3-23.3
		c4.6-11.1,16.5-11.9,23.2-11.4c2.2-4.8,5.9-8,10.3-9.9l0,0c0-0.8-0.2-1.5-0.5-2.3c-3.1-8.6-7.7-7.9-7.7-7.9l0,0
		c-1.8,0.2-3.6-0.5-4.8-1.9c-1.8-2.3-1.4-5.6,0.8-7.4c0,0,5.2-4,4.4-16.6c-0.6-10.1-14.6-9.4-14.6-9.4v0l-0.1,0
		c-2.9,0-5.3-2.3-5.4-5.2c0-0.1-0.2-18.2-5.5-18.4c-4.6-0.2-5.4,9.7-5.5,11.5c0,0.8-0.2,1.6-0.5,2.4c-1.3,2.6-4.5,3.7-7.1,2.4
		c0,0-4.2-2.1-9.6,2.4c-5.1,4.3-2.5,18.1-2,20.4c0.4,1.3,0.2,2.8-0.5,4.1c-1.5,2.5-4.7,3.3-7.2,1.9c0,0-5.2-3.2-10.2,5.9
		c-5.1,9.4,8,16.9,8,16.9l0,0c1,0.6,1.8,1.5,2.3,2.6c1.1,2.7-0.3,5.8-3,6.9c-3.7,1.5-6.6,3.9-8.5,6.8c-1.2,1.9-2,4-2.3,6.1
		c-0.3,2.1,0,4.2,0.8,6.1c1,2.5,2.9,4.9,5.9,6.9c1.6,1,2.6,2.8,2.5,4.8c-0.2,4,0.4,7.1,1.6,9.4c0.8,1.6,2,2.8,3.3,3.6
		c1.4,0.8,3.1,1.3,5.1,1.4c3.5,0.2,7.5-0.8,11.7-3c1.6-0.9,3.6-1,5.3,0C111.6,204,118.2,202.9,122.7,200.3z M195.9,176.9
		c0.2,1.7,0.1,3.3-0.1,4.7c4,1.4,8.3,4.8,8.7,12.5c0.6,11.3-13.4,13.8-20.4,14.4c-2.2,4.9-7.5,12.3-18.8,10.9
		c-6.7-0.8-10.7-3.1-13-5.5c-4,1.6-10,2.9-17.7,1c-3.5-0.9-6-2.5-7.8-4.5c-6.4,3.5-15.3,4.8-27-1.3c-5.1,2.3-10.1,3.3-14.7,3
		c-3.7-0.2-7-1.2-10-2.9c-3-1.8-5.5-4.4-7.2-7.7c-1.7-3.3-2.7-7.2-2.8-11.9c-3.7-2.9-6.2-6.4-7.7-10.2c-1.5-3.7-1.9-7.6-1.5-11.3
		c0.1-0.4,0.1-0.9,0.2-1.3c-7.1-0.1-14.1-0.2-20.9-0.2V235h286.4v-35.8C290.3,190.5,244.9,182.7,195.9,176.9z M176,162
		c4.5-0.6,9.7-0.8,14.3,3.6c50.7,5.8,98.2,13.7,131.3,22.5V123h-50.4h-84.5H148c-0.6,2.6-1.4,4.9-2.3,6.7c3.5,2,7.3,5.7,9.8,12.7
		c0.5,1.4,0.8,2.8,1,4.1c1,0,2,0.2,2.9,0.3c2.8,0.5,5.5,1.4,7.9,2.9C171.8,152.4,175.1,156.5,176,162z M175.8,172.7
		c-2.1,0.3-4,0.6-6.1,0.2c-2.9-0.5-4.8-3.3-4.3-6.1c0.7-3.8-1-6.5-3.5-8c-1.2-0.7-2.7-1.2-4.3-1.5c-1.6-0.3-3.2-0.3-4.9,0
		c-3.9,0.7-7.4,3.2-8.3,7.6c0,0.1,0,0.2-0.1,0.3c-0.7,2.8-3.5,4.6-6.4,4c0,0-12.8-3.1-15.9,4.5c-2.6,6.3,6.5,10.6,8.1,11.3
		c2.5,0.9,4,3.6,3.4,6.3c0,0-3,11.8,3.5,13.4c9,2.3,13.5-1.7,13.5-1.8l0,0c0.9-0.8,2.1-1.3,3.4-1.3c2.9-0.1,5.3,2.2,5.4,5.1
		c0,0-0.1,1.3,7.1,2.2c7,0.9,8.6-6.6,8.6-6.7l0,0c0.5-2.4,2.7-4.1,5.2-4.1c0,0,13.7,0.2,13.5-3.5c-0.2-3.9-4.4-3.6-4.5-3.6l0,0
		c-0.9,0.1-1.8-0.1-2.6-0.5c-2.6-1.3-3.7-4.5-2.4-7.1c0,0,2.6-5.1-0.7-9.3C181.9,171.8,178.5,172.3,175.8,172.7z M321.6,35.2H35.2
		v77.2h41.4c-0.4-7.2,0.3-17.3,6.6-22.6c5.2-4.4,10.4-5.4,14.2-5.3c1.4-6.7,5.3-16.4,15.7-16c11.3,0.5,14.4,15.8,15.3,23.9
		c7.2,0.9,19.6,4.6,20.4,19.1c0,0.3,0,0.6,0,0.9h31.2l-0.1-0.3c-0.4-2.4-0.5-4.9-0.5-7.3c0-13.7,5.5-26,14.5-35
		c9-9,21.3-14.5,35-14.5c13.7,0,26,5.5,35,14.5c9,9,14.5,21.3,14.5,35c0,2.5-0.2,4.9-0.5,7.3l-0.1,0.3h43.7V35.2z M346.1,252.1v-234
		l-14,14v85.6v77.4v43L346.1,252.1z M338.6,10.6H18.1l14,14h292.6L338.6,10.6z M5.3,0h346.1c2.9,0,5.3,2.4,5.3,5.3v259.5
		c0,2.9-2.4,5.3-5.3,5.3H5.3c-2.9,0-5.3-2.4-5.3-5.3V5.3C0,2.4,2.4,0,5.3,0z M10.6,252.1l14-14v-76.7v-43.7V32.1l-14-14V252.1z
		 M32.1,245.6l-14,14h320.5l-14-14H32.1z M35.2,156.1c8.2,0,16.8,0.1,25.5,0.3c1.5-2,3.2-3.8,5.2-5.4c-5.5-5.4-11.5-14.5-5.2-25.9
		c0.4-0.7,0.8-1.4,1.2-2.1H35.2V156.1z"/>
</g>
</svg>
