<?xml version="1.0" encoding="utf-8"?>
<!-- Generator: Adobe Illustrator 19.0.0, SVG Export Plug-In . SVG Version: 6.00 Build 0)  -->
<svg version="1.1" xmlns="http://www.w3.org/2000/svg" xmlns:xlink="http://www.w3.org/1999/xlink" x="0px" y="0px"
	 viewBox="0 0 357.2 371" style="enable-background:new 0 0 357.2 371;" xml:space="preserve">
<style type="text/css">
	.st0{fill:#1D1D1B;}
</style>
<g id="background">
</g>
<g id="icons">
	<path class="st0" d="M27,263.3h125.8V230H27V263.3z M27,307.1h125.8v-33.3H27V307.1z M152.8,186.1H27v33.3h125.8V186.1z
		 M152.8,142.2H27v33.3h125.8V142.2z M152.8,98.4H27v33.3h125.8V98.4z M152.8,54.5H27v33.3h125.8V54.5z M152.8,10.6H27v33.3h125.8
		V10.6z M223.1,158.6c-2.5-2.5-6-4.1-9.9-4.1v0c-3.8,0-7.3,1.6-9.9,4.1c-2.5,2.5-4.1,6-4.1,9.9h0c0,3.9,1.6,7.3,4.1,9.9
		c2.5,2.5,6,4.1,9.9,4.1v0c3.9,0,7.3-1.6,9.9-4.1c2.5-2.5,4.1-6,4.1-9.9h0C227.2,164.6,225.6,161.1,223.1,158.6z M290.3,158.6
		c-2.5-2.5-6-4.1-9.9-4.1v0c-3.8,0-7.3,1.6-9.9,4.1c-2.5,2.5-4.1,6-4.1,9.9h0c0,3.9,1.6,7.3,4.1,9.9c2.5,2.5,6,4.1,9.9,4.1v0
		c3.9,0,7.3-1.6,9.9-4.1c2.5-2.5,4.1-6,4.1-9.9h0C294.4,164.6,292.8,161.1,290.3,158.6z M163.4,224.7L163.4,224.7v43.9v0v43.9v0
		v47.9h11.1c2.9,0,5.3,2.4,5.3,5.3c0,2.9-2.4,5.3-5.3,5.3h-16.4l-0.1,0l-0.1,0h-16.3c-2.9,0-5.3-2.4-5.3-5.3c0-2.9,2.4-5.3,5.3-5.3
		h11v-42.6H27v42.6h11.1c2.9,0,5.3,2.4,5.3,5.3c0,2.9-2.4,5.3-5.3,5.3H21.7l-0.1,0l-0.1,0H5.3c-2.9,0-5.3-2.4-5.3-5.3
		c0-2.9,2.4-5.3,5.3-5.3h11.1v-47.9v0v-43.9v0v-43.9v0v-43.9v0v-43.9v0V93.1v0V49.2v0V5.3c0-2.9,2.4-5.3,5.3-5.3h136.4h177.4
		c2.9,0,5.3,2.4,5.3,5.3v355.1h11.1c2.9,0,5.3,2.4,5.3,5.3c0,2.9-2.4,5.3-5.3,5.3h-32.8c-2.9,0-5.3-2.4-5.3-5.3
		c0-2.9,2.4-5.3,5.3-5.3h11.1V10.6h-44.5l0,0.2v133.6c4.7,1,8.8,3.4,12.1,6.6c4.4,4.4,7.2,10.6,7.2,17.4h0c0,6.8-2.7,12.9-7.2,17.4
		c-4.4,4.4-10.6,7.2-17.4,7.2v0c-6.8,0-12.9-2.7-17.4-7.2c-4.4-4.4-7.2-10.6-7.2-17.4h0c0-6.8,2.7-12.9,7.2-17.4
		c3.2-3.2,7.4-5.6,12.1-6.6V10.8c0-0.1,0-0.1,0-0.2h-56.7l0,0.2v133.6c4.7,1,8.8,3.4,12.1,6.6c4.4,4.4,7.2,10.6,7.2,17.4h0
		c0,6.8-2.7,12.9-7.2,17.4c-4.4,4.4-10.6,7.2-17.4,7.2v0c-6.8,0-12.9-2.7-17.4-7.2c-4.4-4.4-7.2-10.6-7.2-17.4h0
		c0-6.8,2.7-12.9,7.2-17.4c3.2-3.2,7.4-5.6,12.1-6.6V10.8c0-0.1,0-0.1,0-0.2h-44.5v38.6v0v43.9v0v43.9v0v43.9v0V224.7z"/>
</g>
</svg>
