<?xml version="1.0" encoding="utf-8"?>
<!-- Generator: Adobe Illustrator 19.0.0, SVG Export Plug-In . SVG Version: 6.00 Build 0)  -->
<svg version="1.1" xmlns="http://www.w3.org/2000/svg" xmlns:xlink="http://www.w3.org/1999/xlink" x="0px" y="0px"
	 viewBox="0 0 356.6 305" style="enable-background:new 0 0 356.6 305;" xml:space="preserve">
<style type="text/css">
	.st0{fill:#1D1D1B;}
</style>
<g id="background">
</g>
<g id="icons">
	<path class="st0" d="M67.2,62.9c-2.9,0-5.3-2.4-5.3-5.3s2.4-5.3,5.3-5.3h32.4c2.9,0,5.3,2.4,5.3,5.3s-2.4,5.3-5.3,5.3H67.2z
		 M257,126.3c-2.9,0-5.3-2.4-5.3-5.3c0-2.9,2.4-5.3,5.3-5.3h32.4c2.9,0,5.3,2.4,5.3,5.3c0,2.9-2.4,5.3-5.3,5.3H257z M67.2,126.3
		c-2.9,0-5.3-2.4-5.3-5.3c0-2.9,2.4-5.3,5.3-5.3h32.4c2.9,0,5.3,2.4,5.3,5.3c0,2.9-2.4,5.3-5.3,5.3H67.2z M67.2,189.6
		c-2.9,0-5.3-2.4-5.3-5.3c0-2.9,2.4-5.3,5.3-5.3h32.4c2.9,0,5.3,2.4,5.3,5.3c0,2.9-2.4,5.3-5.3,5.3H67.2z M257,189.6
		c-2.9,0-5.3-2.4-5.3-5.3c0-2.9,2.4-5.3,5.3-5.3h32.4c2.9,0,5.3,2.4,5.3,5.3c0,2.9-2.4,5.3-5.3,5.3H257z M257,253
		c-2.9,0-5.3-2.4-5.3-5.3c0-2.9,2.4-5.3,5.3-5.3h32.4c2.9,0,5.3,2.4,5.3,5.3c0,2.9-2.4,5.3-5.3,5.3H257z M67.2,253
		c-2.9,0-5.3-2.4-5.3-5.3c0-2.9,2.4-5.3,5.3-5.3h32.4c2.9,0,5.3,2.4,5.3,5.3c0,2.9-2.4,5.3-5.3,5.3H67.2z M16.4,20.6l0.1,0l0.2,0
		H346v-10H10.6v10H16.4z M21.8,84h313V31.2h-313V84z M334.8,94.6h-313v52.8h313V94.6z M21.8,210.7h313v-52.8h-313V210.7z
		 M333.9,284.7h-18.2l1.5,9.7h15.2L333.9,284.7z M40.9,284.7H22.7l1.5,9.7h15.2L40.9,284.7z M21.8,274.1H47c0.1,0,0.2,0,0.2,0h262.3
		v0h25.2v-52.8h-313V274.1z M5.3,0h346c2.9,0,5.3,2.4,5.3,5.3v20.6c0,2.9-2.4,5.3-5.3,5.3h-5.9v58.1v0v63.4V216v0v63.4
		c0,0.1,0,0.2,0,0.3l0,0c0,0.1,0,0.2,0,0.3l0,0l0,0l0,0l0,0.1l0,0l0,0.1l0,0l0,0l0,0l0,0l0,0l0,0l0,0l0,0l0,0l0,0.1l0,0l0,0l0,0l0,0
		l0,0l0,0l0,0.1l-3.1,19.8c-0.4,2.6-2.7,4.5-5.2,4.5v0h-24.2c-2.8,0-5.1-2.2-5.3-5l-2.4-15.4H51.6l-2.5,15.8
		c-0.4,2.6-2.7,4.5-5.2,4.5v0H19.7c-2.8,0-5.1-2.2-5.3-5l-3.1-19.8c0-0.3-0.1-0.6-0.1-0.8h0V216v0v-63.4V89.3v0V31.2H5.3
		c-2.9,0-5.3-2.4-5.3-5.3V5.3C0,2.4,2.4,0,5.3,0z M257,62.9c-2.9,0-5.3-2.4-5.3-5.3s2.4-5.3,5.3-5.3h32.4c2.9,0,5.3,2.4,5.3,5.3
		s-2.4,5.3-5.3,5.3H257z"/>
</g>
</svg>
