<?xml version="1.0" encoding="utf-8"?>
<!-- Generator: Adobe Illustrator 19.0.0, SVG Export Plug-In . SVG Version: 6.00 Build 0)  -->
<svg version="1.1" xmlns="http://www.w3.org/2000/svg" xmlns:xlink="http://www.w3.org/1999/xlink" x="0px" y="0px"
	 viewBox="0 0 350.6 274.3" style="enable-background:new 0 0 350.6 274.3;" xml:space="preserve">
<style type="text/css">
	.st0{fill:#1D1D1B;}
</style>
<g id="background">
</g>
<g id="icons">
	<path class="st0" d="M64.4,177.6h15.7v-18.9H64.4V177.6z M58.6,148.1c0.2,0,0.3,0,0.5,0h26.3c0.2,0,0.3,0,0.5,0h47.1L108.5,10.6
		H31.8L11.4,148.1H58.6z M170.8,198.4c0-0.1,0.1-0.1,0.1-0.2l0,0l0.1-0.1l0,0c0.1-0.1,0.1-0.2,0.2-0.3l0,0l0,0l0.1-0.1l0,0l0.1-0.1
		l0,0l0,0l0,0l0.1-0.1l0,0c0.5-0.5,1-0.9,1.6-1.1l0,0l0,0l0.1,0l0,0c0.6-0.2,1.1-0.4,1.7-0.4l0,0l0.1,0l0,0l0,0h0l0.1,0l0.1,0h0l0,0
		l0,0l0.1,0l0,0c0.6,0,1.1,0.2,1.7,0.4l0,0l0.1,0l0,0l0,0c0.6,0.3,1.1,0.6,1.6,1.1l0,0l0.1,0.1l0,0l0,0l0,0l0.1,0.1l0,0l0.1,0.1l0,0
		l0,0c0.1,0.1,0.2,0.2,0.2,0.3l0,0l0.1,0.1l0,0c0,0.1,0.1,0.1,0.1,0.2l0,0l0,0l0,0.1l0,0c5.7,10.1,13.1,17.9,21.3,23.6
		c0.8-5.7,1.3-11.8,1.3-18.1c0-17.1-3.4-32.5-8.8-43.6c-4.9-9.9-11.2-16.1-17.9-16.1c-6.6,0-13,6.1-17.9,16.1
		c-5.4,11-8.8,26.4-8.8,43.6c0,6.1,0.4,11.9,1.2,17.4c7.8-5.6,14.9-13.2,20.4-22.9l0,0L170.8,198.4L170.8,198.4L170.8,198.4z
		 M198.9,233.2c-8.8-5.3-16.9-12.7-23.6-22.2c-6.5,9.2-14.3,16.4-22.8,21.7c1.4,5.5,3.2,10.6,5.4,14.9c4.9,9.9,11.2,16.1,17.9,16.1
		c6.6,0,13-6.1,17.9-16.1C195.8,243.4,197.5,238.6,198.9,233.2z M270.5,177.6h15.7v-18.9h-15.7V177.6z M264.8,148.1
		c0.2,0,0.3,0,0.5,0h26.3c0.2,0,0.3,0,0.5,0h47.2L318.8,10.6h-76.7l-24.4,137.5H264.8z M296.8,158.7v18.9h6.2c2.9,0,5.3,2.4,5.3,5.3
		c0,2.9-2.4,5.3-5.3,5.3h-11.4l-0.1,0h-8.4c-0.3,16.9-5.3,29.9-13.3,39c-6.7,7.7-15.4,12.5-25.1,14.7c-9.4,2.1-19.7,1.6-29.8-1.5
		c-2.1-0.6-4.2-1.4-6.3-2.3c-1.5,5.2-3.3,9.9-5.4,14.2c-6.7,13.6-16.3,22-27.4,22c-11,0-20.7-8.4-27.4-22c-2.1-4.3-4-9.2-5.5-14.6
		c-2.4,1-4.8,1.9-7.2,2.7c-10.1,3.1-20.4,3.6-29.8,1.5c-9.6-2.2-18.3-7-25.1-14.7c-8-9.1-13.1-22.1-13.3-39h-8.4l-0.1,0H47.6
		c-2.9,0-5.3-2.4-5.3-5.3c0-2.9,2.4-5.3,5.3-5.3h6.2v-18.9H5.3c-2.9,0-5.3-2.4-5.3-5.3c0-0.3,0-0.5,0.1-0.8l0,0L22,4.5
		C22.4,1.9,24.6,0,27.2,0v0h85.7c2.7,0,4.9,2,5.2,4.5l26.3,147.9c0.5,2.9-1.4,5.6-4.3,6.1c-0.5,0.1-0.9,0.1-1.4,0.1H90.7v18.9h6.2
		c2.9,0,5.3,2.4,5.3,5.3c0,2.9-2.4,5.3-5.3,5.3H85.5l-0.1,0h-7.3c0.2,14.1,4.3,24.8,10.7,32.1c5.2,5.9,11.9,9.6,19.4,11.3
		c7.7,1.7,16.1,1.3,24.5-1.3c2.6-0.8,5.3-1.8,7.9-3c-1.3-7.3-2-15.1-2-23.2c0-18.7,3.8-35.8,9.9-48.2c6.7-13.6,16.3-22,27.4-22
		c11,0,20.7,8.4,27.4,22c6.1,12.4,9.9,29.5,9.9,48.2c0,8.3-0.7,16.2-2.1,23.6c2.3,1,4.6,1.9,7,2.6c8.4,2.6,16.8,3,24.5,1.3
		c7.5-1.7,14.2-5.4,19.4-11.3c6.4-7.3,10.5-17.9,10.7-32.1h-7.3l-0.1,0h-11.4c-2.9,0-5.3-2.4-5.3-5.3c0-2.9,2.4-5.3,5.3-5.3h6.2
		v-18.9h-48.1c-0.4,0-0.9,0-1.4-0.1c-2.9-0.5-4.8-3.2-4.3-6.1L232.5,4.6C232.8,2,235,0,237.7,0h85.7v0c2.6,0,4.9,1.9,5.2,4.5
		l21.9,148.1l0,0c0,0.2,0.1,0.5,0.1,0.8c0,2.9-2.4,5.3-5.3,5.3H296.8z"/>
</g>
</svg>
