<?xml version="1.0" encoding="utf-8"?>
<!-- Generator: Adobe Illustrator 19.0.0, SVG Export Plug-In . SVG Version: 6.00 Build 0)  -->
<svg version="1.1" xmlns="http://www.w3.org/2000/svg" xmlns:xlink="http://www.w3.org/1999/xlink" x="0px" y="0px"
	 viewBox="0 0 300.2 413.6" style="enable-background:new 0 0 300.2 413.6;" xml:space="preserve">
<style type="text/css">
	.st0{fill:#1D1D1B;}
</style>
<g id="background">
</g>
<g id="icons">
	<path class="st0" d="M129.6,190.5v-62.1l0,0v-4.8h-16.1v66.9H129.6z M156.3,190.5v-56.8h-16.1v56.8H156.3z M166.9,128.4
		L166.9,128.4l0,62.1h16.1v-66.9h-16.1V128.4z M209.6,190.5v-55.8h-16.1v55.8H209.6z M236.3,190.5v-57.7h-16.1v57.7H236.3z
		 M263,190.5v-66.9h-16.1v3.9l0,0v63H263z M273.6,123.6v66.9h16.1v-66.9H273.6z M234.2,366.2h-60.7l0,0h-6.2v14.9h66.9V366.2z
		 M241.5,340.8L241.5,340.8h-62.7v14.9h60.7l0,0h6.2v-14.9H241.5z M173.5,330.2L173.5,330.2l62.7,0v-14.9h-66.9v14.9H173.5z
		 M90.6,316.3v64.8h16.1v-64.8H90.6z M63.9,316.3v64.8H80v-64.8H63.9z M26.7,316.3H10.6v64.8h16.1V316.3z M32,391.7H11.5l1.8,11.4
		h17.1l1.8-11.4H32L32,391.7z M288.8,391.7h-20.7l1.8,11.3H287L288.8,391.7z M37.3,316.3v64.8h16.1v-64.8H37.3z M273.6,219.6
		L273.6,219.6l0,66.3h16.1v-66.9h-16.1V219.6z M246.9,224.9v60.9H263v-60.9H246.9z M220.2,222.9L220.2,222.9L220.2,222.9v62.9h16.1
		v-66.2v0v-0.6h-16.1V222.9z M193.5,228.2v57.6h16.1v-57.6H193.5z M166.9,222.4L166.9,222.4l0,63.4h16.1v-66.9h-16.1V222.4z
		 M129.6,218.9h-16.1v66.9h16.1v-63.4l0,0V218.9z M140.2,227.8v58.1h16.1v-58.1H140.2z M36,243.1v16.1h46.9h0h20.1v-16.1H36z
		 M77.5,269.7H30.7l0,0h-20v16.1h66.9V269.7z M88.1,285.8h14.8v-16.1H88.1V285.8z M289.6,201.1h-21.4h0h-26.7h-26.7h-26.7h0h-26.7h0
		h-26.7h0h-26.7H10.6v58h14.8v-21.4c0-2.9,2.4-5.3,5.3-5.3h72.2v-18.9c0-2.9,2.4-5.3,5.3-5.3h26.7c2.9,0,5.3,2.4,5.3,5.3v3.6h16.1
		v-3.6c0-2.9,2.4-5.3,5.3-5.3h26.7c2.9,0,5.3,2.4,5.3,5.3v4h16.1v-4c0-2.9,2.4-5.3,5.3-5.3h26.7c2.9,0,5.3,2.4,5.3,5.3v0.7H263v-0.7
		c0-2.9,2.4-5.3,5.3-5.3h21.4V201.1z M108.2,113h26.7c2.9,0,5.3,2.4,5.3,5.3v4.9h16.1v-4.9c0-2.9,2.4-5.3,5.3-5.3h26.7
		c2.9,0,5.3,2.4,5.3,5.3v5.8h17.3c1-1.2,2.4-1.9,4.1-1.9h21.4v-3.9c0-2.9,2.4-5.3,5.3-5.3h26.7h0h21.4v-7.1H112H85.3h0H58.6h0H32h0
		H10.6v84.7h92.3v-72.2C102.9,115.4,105.3,113,108.2,113z M5.3,0h289.6c2.9,0,5.3,2.4,5.3,5.3v95.3v17.7v77.5v17.7v77.5v95.3v0v0
		l0,0v0v0l0,0v0v0v0l0,0v0l0,0.1l0,0l0,0l0,0l0,0v0l0,0l0,0l0,0l0,0l0,0.2l0,0c0,0.2-0.1,0.4-0.1,0.6l0,0l-3.3,21.5
		c-0.4,2.6-2.7,4.5-5.2,4.5v0h-26.2c-2.8,0-5.1-2.2-5.3-5l-2.6-17H112H85.3h0H58.6h0H42.8l-2.7,17.4c-0.4,2.7-2.7,4.5-5.4,4.5h-26
		c-2.7,0-4.9-2-5.2-4.6l-3.3-21.3c-0.1-0.4-0.1-0.8-0.2-1.2v0l0-0.1v-95.3v-95.3v-95.3V5.3C0,2.4,2.4,0,5.3,0z M203.9,52.5v16.1
		h60.7l0,0h6.2V52.5H203.9z M259.3,79.2h-60.7l0,0h-6.2v16.1h66.9V79.2z M140.3,27.9l-11.2,4l18.5,51.7l11.2-4L140.3,27.9z
		 M117.3,30.4v64.9h25c-1.3-0.6-2.4-1.6-2.9-3.1l-22-61.7L117.3,30.4z M90.6,32L90.6,32v63.2h16.1V28.3H90.6V32z M63.9,37.4v57.9H80
		V37.4H63.9z M26.7,28.3H10.6v66.9h16.1V28.3z M37.3,28.3v66.9h16.1V32.1l0,0v-3.7H37.3z M10.6,17.7H32h0h26.7
		c2.9,0,5.3,2.4,5.3,5.3v3.7H80V23c0-2.9,2.4-5.3,5.3-5.3H112c2.9,0,5.3,2.4,5.3,5.3v4.1c0.5-1.5,1.6-2.8,3.3-3.3l21.2-7.6
		c2.8-1,5.8,0.5,6.8,3.2l22,61.7c1,2.8-0.5,5.8-3.2,6.8l-20.9,7.5h35.3V73.9c0-2.9,2.4-5.3,5.3-5.3h6.2V47.2c0-2.9,2.4-5.3,5.3-5.3
		h77.5c2.9,0,5.3,2.4,5.3,5.3v26.7c0,2.9-2.4,5.3-5.3,5.3h-6.2v16.1h19.7V10.6h-279V17.7z M156.7,381.1v-20.2c0-2.9,2.4-5.3,5.3-5.3
		h6.2v-14.9h-4.3c-2.9,0-5.3-2.4-5.3-5.3V310c0-2.9,2.4-5.3,5.3-5.3h77.5c2.9,0,5.3,2.4,5.3,5.3v20.2h4.3c2.9,0,5.3,2.4,5.3,5.3
		v25.5c0,2.9-2.4,5.3-5.3,5.3h-6.2v14.9h44.8v-84.7h-21.4h0h-26.7h-26.7h-26.7h0h-26.7h0h-26.7h0h-26.7H10.6v9.3H32h0h26.7h0h26.7h0
		H112c2.9,0,5.3,2.4,5.3,5.3v70.1H156.7z"/>
</g>
</svg>
