<?xml version="1.0" encoding="utf-8"?>
<!-- Generator: Adobe Illustrator 19.0.0, SVG Export Plug-In . SVG Version: 6.00 Build 0)  -->
<svg version="1.1" xmlns="http://www.w3.org/2000/svg" xmlns:xlink="http://www.w3.org/1999/xlink" x="0px" y="0px"
	 viewBox="0 0 291.2 376.2" style="enable-background:new 0 0 291.2 376.2;" xml:space="preserve">
<style type="text/css">
	.st0{fill:#1D1D1B;}
</style>
<g id="background">
</g>
<g id="icons">
	<path class="st0" d="M270.1,355.6H21.1c-2.9,0-5.3-2.4-5.3-5.3V25.3c0-2.9,2.4-5.3,5.3-5.3h249.1c2.9,0,5.3,2.4,5.3,5.3v324.9
		C275.4,353.2,273.1,355.6,270.1,355.6L270.1,355.6z M26.4,345h238.5V30.6H26.4V345z"/>
	<g>
		<path class="st0" d="M44.4,136.1c-1.3-2.6-4.5-3.6-7.1-2.3c-2.6,1.3-3.6,4.5-2.3,7.1l33.3,65.2c1.3,2.6,4.5,3.6,7.1,2.3
			c2.6-1.3,3.6-4.5,2.3-7.1L44.4,136.1z"/>
		<path class="st0" d="M43.9,229.7c-1.3-2.6-4.5-3.6-7.1-2.3c-2.6,1.3-3.6,4.5-2.3,7.1l21.3,41.8c1.3,2.6,4.5,3.6,7.1,2.3
			c2.6-1.3,3.6-4.5,2.3-7.1L43.9,229.7z"/>
		<path class="st0" d="M61,145.9c1.3,2.6,4.5,3.6,7.1,2.3c2.6-1.3,3.6-4.5,2.3-7.1L49.1,99.3c-1.3-2.6-4.5-3.6-7.1-2.3
			c-2.6,1.3-3.6,4.5-2.3,7.1L61,145.9z"/>
		<path class="st0" d="M40.4,174.1c-1.3-2.6-4.5-3.6-7.1-2.3c-2.6,1.3-3.6,4.5-2.3,7.1l33.3,65.2c1.3,2.6,4.5,3.6,7.1,2.3
			c2.6-1.3,3.6-4.5,2.3-7.1L40.4,174.1z"/>
		<path class="st0" d="M224.8,136.1c-1.3-2.6-4.5-3.6-7.1-2.3c-2.6,1.3-3.6,4.5-2.3,7.1l33.3,65.2c1.3,2.6,4.5,3.6,7.1,2.3
			c2.6-1.3,3.6-4.5,2.3-7.1L224.8,136.1z"/>
		<path class="st0" d="M220.8,174.1c-1.3-2.6-4.5-3.6-7.1-2.3c-2.6,1.3-3.6,4.5-2.3,7.1l33.3,65.2c1.3,2.6,4.5,3.6,7.1,2.3
			c2.6-1.3,3.6-4.5,2.3-7.1L220.8,174.1z"/>
		<path class="st0" d="M285.9,30.6c2.9,0,5.3-2.4,5.3-5.3V5.3c0-2.9-2.4-5.3-5.3-5.3H5.3C2.4,0,0,2.4,0,5.3v20.1
			c0,2.9,2.4,5.3,5.3,5.3h10.5V345H5.3c-2.9,0-5.3,2.4-5.3,5.3v20.7c0,2.9,2.4,5.3,5.3,5.3h280.6c2.9,0,5.3-2.4,5.3-5.3v-20.7
			c0-2.9-2.4-5.3-5.3-5.3h-10.5V30.6H285.9z M280.6,355.6v10.1h-270v-10.1H21l0,0h70.9l0,0h107.3l0,0h70.9l0,0H280.6z M26.4,345
			V30.6h60.3V345H26.4z M97.2,345V30.6H194V345H97.2z M204.6,345V30.6h60.3V345H204.6z M10.6,20v-9.5h270V20H10.6z"/>
		<path class="st0" d="M178.8,176.6c2.1-3.5,3.5-8.1,3.5-13c0-11.4-6.4-18.6-14.6-21.8c-3.1-1.2-6.4-1.8-9.7-1.8
			c-3.3,0-6.7,0.6-9.8,1.8l0,0c-8.3,3.2-14.8,10.5-14.8,21.8c0,5,0.8,9.1,2.8,12.6c1.6,2.8,3.9,5,7,6.6v6.4h-26.3
			c-2.9,0-5.3,2.4-5.3,5.3c0,2.9,2.4,5.3,5.3,5.3h1.6c-0.2,36.6,5.4,62.1,12.3,73.9c3.2,5.5,7,8.6,11.2,9.1
			c4.7,0.6,8.9-1.7,12.4-7.2c5.1-8.1,9.1-25.1,10.1-52h3.4c2.9,0,5.3-2.4,5.3-5.3v-18.6h0.8c2.9,0,5.3-2.4,5.3-5.3
			c0-2.9-2.4-5.3-5.3-5.3H173v-6.4C175.2,181.5,177.3,179.3,178.8,176.6z M145.3,270c-1,1.6-1.7,2.4-2,2.3c-0.8-0.1-2-1.5-3.5-4
			c-6.1-10.4-11-33.9-10.8-68.5h14.1v18.6c0,2.9,2.4,5.3,5.3,5.3h5.4C152.9,248.2,149.5,263.3,145.3,270z M169.7,171.3
			c-1,1.7-2,2.8-2.7,2.9c-2.6,0.4-4.5,2.6-4.5,5.2h0v2.5v7.3v10.6v13.3l0,0h-8.8v-13.3h0.1v-10.6h-0.1v-9.8c0-2.4-1.6-4.4-3.8-5.1
			c-2.3-0.9-3.8-2-4.6-3.4c-1-1.7-1.3-4.1-1.3-7.3c0-6.2,3.5-10.2,8-11.9l0,0l0,0c1.9-0.7,3.9-1.1,6-1.1c2,0,4.1,0.4,5.9,1.1
			c4.4,1.7,7.8,5.7,7.8,11.9C171.7,166.6,170.9,169.2,169.7,171.3z"/>
		<path class="st0" d="M241.4,145.9c1.3,2.6,4.5,3.6,7.1,2.3c2.6-1.3,3.6-4.5,2.3-7.1l-21.3-41.8c-1.3-2.6-4.5-3.6-7.1-2.3
			c-2.6,1.3-3.6,4.5-2.3,7.1L241.4,145.9z"/>
		<path class="st0" d="M224.3,229.7c-1.3-2.6-4.5-3.6-7.1-2.3c-2.6,1.3-3.6,4.5-2.3,7.1l21.3,41.8c1.3,2.6,4.5,3.6,7.1,2.3
			c2.6-1.3,3.6-4.5,2.3-7.1L224.3,229.7z"/>
	</g>
</g>
</svg>
