<?xml version="1.0" encoding="utf-8"?>
<!-- Generator: Adobe Illustrator 19.0.0, SVG Export Plug-In . SVG Version: 6.00 Build 0)  -->
<svg version="1.1" xmlns="http://www.w3.org/2000/svg" xmlns:xlink="http://www.w3.org/1999/xlink" x="0px" y="0px"
	 viewBox="0 0 388.1 403.6" style="enable-background:new 0 0 388.1 403.6;" xml:space="preserve">
<style type="text/css">
	.st0{fill:#1D1D1B;}
</style>
<g id="background">
</g>
<g id="icons">
	<path class="st0" d="M290.6,278c-2.9,0-5.3-2.4-5.3-5.3c0-2.9,2.4-5.3,5.3-5.3h31.1c2.9,0,5.3,2.4,5.3,5.3c0,2.9-2.4,5.3-5.3,5.3
		H290.6z M290.6,212.5c-2.9,0-5.3-2.4-5.3-5.3c0-2.9,2.4-5.3,5.3-5.3h31.1c2.9,0,5.3,2.4,5.3,5.3c0,2.9-2.4,5.3-5.3,5.3H290.6z
		 M309.2,376.1h-13.1V393h13.1V376.1z M366.1,310.7H245.8v54.8h45h23.7h51.6V310.7z M204.6,127h-21.2v20.3h21.2V127z M246.9,65.6
		c2.3-1.8,5.6-1.5,7.4,0.8c1.8,2.3,1.5,5.6-0.8,7.4L220.1,101c-2.3,1.8-5.6,1.5-7.4-0.8c-1.8-2.3-1.5-5.6,0.8-7.4L246.9,65.6z
		 M230.9,43c2.3-1.8,5.6-1.5,7.4,0.8c1.8,2.3,1.5,5.6-0.8,7.4l-52.3,42.5c-2.3,1.8-5.6,1.5-7.4-0.8c-1.8-2.3-1.5-5.6,0.8-7.4
		L230.9,43z M200.4,32.4c2.3-1.8,5.6-1.5,7.4,0.8c1.8,2.3,1.5,5.6-0.8,7.4L154.7,83c-2.3,1.8-5.6,1.5-7.4-0.8
		c-1.8-2.3-1.5-5.6,0.8-7.4L200.4,32.4z M168.9,27.9c2.3-1.8,5.6-1.5,7.4,0.8c1.8,2.3,1.5,5.6-0.8,7.4L142,63.3
		c-2.3,1.8-5.6,1.5-7.4-0.8c-1.8-2.3-1.5-5.6,0.8-7.4L168.9,27.9z M178.1,116.4h31.8h59.4V10.6H118.7v105.8H178.1z M61.8,179.8v54.8
		h173.4v-54.8 M51.2,240.4c0-0.2,0-0.3,0-0.5v-60.1H38.1V393h13.2V240.4z M235.2,245.2H61.8v153.1c0,2.9-2.4,5.3-5.3,5.3v0H32.8
		c-2.9,0-5.3-2.4-5.3-5.3c0-0.2,0-0.3,0-0.5V179.8H5.3c-2.9,0-5.3-2.4-5.3-5.3v-21.8c0-2.9,2.4-5.3,5.3-5.3h167.6V127h-59.4
		c-2.9,0-5.3-2.4-5.3-5.3V5.3c0-2.9,2.4-5.3,5.3-5.3h161.2c2.9,0,5.3,2.4,5.3,5.3v116.4c0,2.9-2.4,5.3-5.3,5.3h-59.4v20.3h167.6
		c2.9,0,5.3,2.4,5.3,5.3v21.8c0,2.9-2.4,5.3-5.3,5.3h-6.1v60.1v0v65.4v0v65.4c0,2.9-2.4,5.3-5.3,5.3h-51.6v22.2
		c0,2.9-2.4,5.3-5.3,5.3h-23.7c-2.9,0-5.3-2.4-5.3-5.3v-22.2h-45c-2.9,0-5.3-2.4-5.3-5.3v-65.4v0V245.2z M245.8,179.8v54.8h120.3
		v-54.8H245.8z M56.5,169.2h184h130.9l0,0h6.1V158H10.6v11.2h22.2L56.5,169.2L56.5,169.2z M245.8,300.1h120.3v-54.8H245.8V300.1z
		 M290.6,343.4c-2.9,0-5.3-2.4-5.3-5.3c0-2.9,2.4-5.3,5.3-5.3h31.1c2.9,0,5.3,2.4,5.3,5.3c0,2.9-2.4,5.3-5.3,5.3H290.6z"/>
</g>
</svg>
