<?xml version="1.0" encoding="utf-8"?>
<!-- Generator: Adobe Illustrator 19.0.0, SVG Export Plug-In . SVG Version: 6.00 Build 0)  -->
<svg version="1.1" xmlns="http://www.w3.org/2000/svg" xmlns:xlink="http://www.w3.org/1999/xlink" x="0px" y="0px"
	 viewBox="0 0 425.5 381.7" style="enable-background:new 0 0 425.5 381.7;" xml:space="preserve">
<style type="text/css">
	.st0{fill:#1D1D1B;}
</style>
<g id="background">
</g>
<g id="icons">
	<path class="st0" d="M0,134c0,2.9,2.4,5.3,5.3,5.3v0h94.3h0h94.3c2.9,0,5.3-2.4,5.3-5.3c0-0.2,0-0.3,0-0.5v-32.6l0.2,0.3
		c1,1.5,2.7,2.3,4.4,2.3v0h111.1c2,0,3.7-1.1,4.6-2.7l1.1-1.6V134c0,2.9,2.4,5.3,5.3,5.3v0h94.3c2.9,0,5.3-2.4,5.3-5.3
		c0-0.2,0-0.3,0-0.5V5.3c0-2.9-2.4-5.3-5.3-5.3v0h-94.3c-2.9,0-5.3,2.4-5.3,5.3c0,0.2,0,0.3,0,0.5v77.3c-9.8-2.1-19.6-3.9-29.4-5.1
		l-0.1,0V5.3c0-2.9-2.4-5.3-5.3-5.3h-52.8c-2.9,0-5.3,2.4-5.3,5.3V78l-0.1,0c-9.4,1.2-18.9,2.8-28.3,4.8V5.3c0-2.9-2.4-5.3-5.3-5.3
		v0H99.6h0H5.3C2.4,0,0,2.4,0,5.3c0,0.2,0,0.3,0,0.5V134z M331.2,10.6h83.8v118.1h-83.8V10.6z M238.2,10.6h42.2v66.3
		c-7-0.6-14.1-1-21.1-1c-7,0-14.1,0.3-21.1,1V10.6z M228.8,88.5c9.5-1.2,19-1.9,28.5-2l0.2,0h0l0.2,0l0.2,0h0l0.6,0l0.2,0h0.6h0.6
		l0.2,0l0.6,0h0l0.2,0l0.2,0h0l0.2,0c7.8,0.1,15.7,0.6,23.5,1.4l0,0l0,0l0,0l0,0c0.1,0,0.2,0,0.4,0h0l0,0l0,0l0,0
		c1.5,0.2,3,0.3,4.5,0.5c7.7,1,15.3,2.2,22.7,3.7l-0.5,0.8H206.6l-0.5-0.8C213.5,90.7,221.1,89.5,228.8,88.5z M104.9,10.6h83.8
		v118.1h-83.8V10.6z M10.6,10.6h83.8v118.1H10.6V10.6z"/>
	<path class="st0" d="M384.9,109.1h-23.7c-2.9,0-5.3,2.4-5.3,5.3c0,2.9,2.4,5.3,5.3,5.3h23.7c2.9,0,5.3-2.4,5.3-5.3
		C390.2,111.5,387.8,109.1,384.9,109.1z"/>
	<path class="st0" d="M64.3,109.1H40.6c-2.9,0-5.3,2.4-5.3,5.3c0,2.9,2.4,5.3,5.3,5.3h23.7c2.9,0,5.3-2.4,5.3-5.3
		C69.6,111.5,67.2,109.1,64.3,109.1z"/>
	<path class="st0" d="M158.6,109.1H135c-2.9,0-5.3,2.4-5.3,5.3c0,2.9,2.4,5.3,5.3,5.3h23.7c2.9,0,5.3-2.4,5.3-5.3
		C163.9,111.5,161.5,109.1,158.6,109.1z"/>
	<ellipse class="st0" cx="213" cy="239.1" rx="6.5" ry="6.3"/>
	<ellipse class="st0" cx="247.3" cy="239.1" rx="6.5" ry="6.3"/>
	<path class="st0" d="M361.2,247.8h23.7c2.9,0,5.3-2.4,5.3-5.3c0-2.9-2.4-5.3-5.3-5.3h-23.7c-2.9,0-5.3,2.4-5.3,5.3
		C355.9,245.4,358.3,247.8,361.2,247.8z"/>
	<path class="st0" d="M420.2,198.5H65.4l11.1-10.5c2.1-2,2.2-5.4,0.2-7.5c-2-2.1-5.4-2.2-7.5-0.2l-6.3,6c-0.1-12.9,0.8-25,7.7-26.4
		c1.8-0.4,3.3-0.3,4.5,0.2c1.1,0.4,1.9,1.2,2.5,2.3c1.3,2.6,4.5,3.6,7.1,2.2c2.6-1.3,3.6-4.5,2.2-7.1c-1.7-3.3-4.4-5.8-7.7-7.2
		c-3.1-1.3-6.7-1.7-10.6-0.9c-14.3,2.8-16.3,19.2-16.2,36l-5.4-5.2c-2.1-2-5.5-1.9-7.5,0.2c-2,2.1-1.9,5.5,0.2,7.5l11.1,10.5H5.8
		c-0.2,0-0.3,0-0.5,0c-2.9,0-5.3,2.4-5.3,5.3v19.1v153.6c0,2.9,2.4,5.3,5.3,5.3h94.3h0h94.3h131.9h0h94.3c2.9,0,5.3-2.4,5.3-5.3
		V222.9v-19.1h0C425.5,200.8,423.1,198.5,420.2,198.5z M94.3,371.1H10.6v-143h83.7V371.1z M188.6,255.4v93.1v22.7h-83.7v-143h83.7
		V255.4z M320.6,371.1H199.2v-17.4h121.3V371.1z M320.6,343.2H199.2v-82.5h121.3V343.2z M320.6,250.1H199.2v-21.9h121.3V250.1z
		 M414.9,371.1h-83.7v-143h83.7V371.1z M414.9,217.6h-89h0H193.9H99.6h0h-89V209h404.3V217.6z"/>
	<path class="st0" d="M40.6,247.8h23.7c2.9,0,5.3-2.4,5.3-5.3c0-2.9-2.4-5.3-5.3-5.3H40.6c-2.9,0-5.3,2.4-5.3,5.3
		C35.3,245.4,37.7,247.8,40.6,247.8z"/>
	<ellipse class="st0" cx="267" cy="239.1" rx="6.5" ry="6.3"/>
	<path class="st0" d="M212.3,280.3h94.2c2.9,0,5.3-2.4,5.3-5.3c0-2.9-2.4-5.3-5.3-5.3h-94.2c-2.9,0-5.3,2.4-5.3,5.3
		C207,277.9,209.3,280.3,212.3,280.3z"/>
	<path class="st0" d="M135,247.8h23.7c2.9,0,5.3-2.4,5.3-5.3c0-2.9-2.4-5.3-5.3-5.3H135c-2.9,0-5.3,2.4-5.3,5.3
		C129.7,245.4,132,247.8,135,247.8z"/>
	<ellipse class="st0" cx="305.7" cy="239.1" rx="6.5" ry="6.3"/>
	<ellipse class="st0" cx="286" cy="239.1" rx="6.5" ry="6.3"/>
</g>
</svg>
