<?xml version="1.0" encoding="utf-8"?>
<!-- Generator: Adobe Illustrator 19.0.0, SVG Export Plug-In . SVG Version: 6.00 Build 0)  -->
<svg version="1.1" xmlns="http://www.w3.org/2000/svg" xmlns:xlink="http://www.w3.org/1999/xlink" x="0px" y="0px"
	 viewBox="0 0 219.4 400.4" style="enable-background:new 0 0 219.4 400.4;" xml:space="preserve">
<style type="text/css">
	.st0{fill:#1D1D1B;}
</style>
<g id="background">
</g>
<g id="icons">
	<path class="st0" d="M29.5,389.8l14.6-136.3l-7.4,0l-8.4,0l-9.7,136.3H29.5z M171.4,243c-3.2-61.8,9.3-135.1,21.3-179.8
		c2.4-8.9,4.8-16.8,7.1-23.3c2.3-6.5,4.4-11.6,6.3-14.9l0.1-0.2l0,0l0,0c3-5.2,3.3-9.1,1.9-11.5c-0.5-0.8-1.2-1.5-2-2
		c-1-0.5-2.2-0.8-3.4-0.9c-4.1-0.1-9.1,2.5-13,8.4c-8.9,13.9-22.5,61.1-29.1,122.9c-1.3,12.1-2.3,24.7-3,37.7
		c-0.6,13-0.9,26.3-0.8,39.9c0,0.2,0,0.4,0,0.5c0,2.9-2.4,5.3-5.3,5.3H34.8c-1.8,0-5.5-0.1-8.9-0.1c-8.7-0.1-13.1-0.2-14.2,0.9
		c-1.2,1.1-1.1,6-1.1,15.9l0,1C64.2,242.9,117.8,242.6,171.4,243z M172,253.6c-5.2,0-10.4-0.1-15.8-0.1l14.6,136.3h10.9L172,253.6z
		 M150.8,302.8H49.5l-10,92.8c-0.3,2.7-2.6,4.7-5.3,4.7v0H13c-2.9,0-5.3-2.4-5.3-5.3c0-0.2,0-0.5,0-0.7l10-140.9
		c-4.2,0-8.4,0-12.4,0c-2.9,0-5.3-2.4-5.3-5.3h0c0-5.7,0-6,0-6.2c-0.1-13-0.1-19.3,4.3-23.6c4.2-4,10.1-4,21.7-3.8
		c1.9,0,3.9,0.1,8.8,0.1h111.4c-0.1-12.2,0.2-24,0.8-35.6c0.7-13.3,1.7-26.1,3-38.3c6.8-63.4,21.3-112.6,30.7-127.4
		c6-9.5,14.7-13.5,22.1-13.3c3,0.1,5.9,0.8,8.3,2.2c2.6,1.4,4.7,3.5,6.2,6.1c3,5.4,3.1,13.1-2,22l0,0l0,0l0,0l0,0l-0.1,0.1
		c-1.6,2.8-3.5,7.2-5.5,13.1c-2.1,6.1-4.4,13.7-6.8,22.5c-12.1,45.3-24.8,120.4-20.6,182c0,0.3,0,0.6,0,0.9l10.3,145.6
		c0,0.2,0,0.4,0,0.6c0,2.9-2.4,5.3-5.3,5.3H166v0c-2.7,0-5-2-5.3-4.7L150.8,302.8z M50.6,292.3h99.1l-1.1-9.8h-97L50.6,292.3z
		 M54.8,253.4l-2,18.4h94.7l-2-18.4C116.1,253.3,84.7,253.4,54.8,253.4z"/>
</g>
</svg>
