<?xml version="1.0" encoding="utf-8"?>
<!-- Generator: Adobe Illustrator 19.0.0, SVG Export Plug-In . SVG Version: 6.00 Build 0)  -->
<svg version="1.1" xmlns="http://www.w3.org/2000/svg" xmlns:xlink="http://www.w3.org/1999/xlink" x="0px" y="0px"
	 viewBox="0 0 299.6 388.5" style="enable-background:new 0 0 299.6 388.5;" xml:space="preserve">
<style type="text/css">
	.st0{fill-rule:evenodd;clip-rule:evenodd;fill:#1D1D1B;}
</style>
<g id="background">
</g>
<g id="icons">
	<path class="st0" d="M27.8,338.1H55v0c0.1,0,0.2,0,0.2,0h89.2V202H27.8V338.1z M244.5,338.1h27.3V202H155.1v136.1L244.5,338.1
		L244.5,338.1z M270.9,348.7h-20.2l4.7,29.2h10.7L270.9,348.7z M36.4,141.5h-8.6v50h122h122v-50h-8.6h-10.8c-2.5,2.8-5.2,5.5-8,8
		c-3.3,3-7,6-11.1,8.7v0c-20.3,13.9-47.3,22.6-83.4,22.6v0l-0.1,0l-0.1,0v0c-36,0-63.1-8.7-83.3-22.6v0c-4.1-2.8-7.8-5.7-11.1-8.7
		c-2.8-2.5-5.5-5.2-8.1-8H36.4z M26.1,130.9h10.2h13.2c1.7,0,3.2,0.8,4.2,2.1c2.7,3,5.4,5.8,8.5,8.6c3.1,2.9,6.5,5.5,10,7.9l0,0v0
		c18.5,12.8,43.7,20.7,77.4,20.7c33.8,0,58.9-8,77.5-20.7v0l0,0c3.5-2.4,6.9-5.1,10-7.9c3.1-2.7,5.8-5.6,8.5-8.6
		c1-1.3,2.5-2.1,4.2-2.1h13.2h9h0h0.9c0.4,0,0.7,0,1.1-0.1l0,0l0.4,0l0,0c0.5-0.1,1.1-0.1,1.5-0.2c0.5-0.1,1-0.1,1.5-0.1
		c5.2-1.1,8.6-4.1,10.2-7.7c0.8-1.8,1.2-3.6,1.2-5.5c0-1.9-0.3-3.7-1.2-5.4c-2-4.3-6.7-7.7-14.4-7.7c-82.4,0-164.9,0-247.3,0
		c-7.8,0-12.4,3.4-14.4,7.7c-0.8,1.7-1.2,3.6-1.2,5.4c0,1.9,0.4,3.7,1.2,5.5C13.8,127.3,18.6,130.9,26.1,130.9z M143.1,93.5
		l-20.5-22.1c-2-2.1-1.9-5.5,0.3-7.5c2.1-2,5.5-1.9,7.5,0.3L145,80c-1-34-1.9-73.8,22.9-79.3l0,0v0c1.6-0.4,3.1-0.6,4.6-0.6
		c1.5-0.1,3,0,4.5,0.2c7.7,1.1,13.7,5.7,17.1,13.1c1.2,2.7,0.1,5.8-2.6,7c-2.7,1.2-5.8,0.1-7-2.6c-1.8-4-5-6.5-8.9-7
		c-0.8-0.1-1.7-0.1-2.5-0.1c-0.9,0-1.9,0.2-2.9,0.4l0,0c-16.4,3.7-15.5,38.8-14.7,68.8L170,64.2c2-2.1,5.3-2.3,7.5-0.3
		c2.1,2,2.3,5.3,0.3,7.5l-20.5,22.1h116.2c12.6,0,20.5,6.1,24.1,14c1.4,3.1,2,6.4,2,9.8c0,3.4-0.7,6.7-2.1,9.8
		c-2.6,5.9-7.7,10.9-15,13.1v56.1c0,0.2,0,0.3,0,0.5v146.7v0l0,0v0v0l0,0l0,0v0l0,0v0l0,0l0,0l0,0.1l0,0l0,0l0,0l0,0v0l0,0l0,0l0,0
		l0,0l0,0l0,0.1l0,0l0,0v0l0,0l0,0l0,0l0,0.1l0,0l0,0c0,0.1,0,0.2,0,0.3l0,0l0,0l0,0.1l0,0l0,0.1l-6.3,39.4
		c-0.4,2.6-2.7,4.5-5.2,4.5v0H251c-2.8,0-5.1-2.1-5.3-4.9l-5.6-35h-90.3c-0.2,0-0.3,0-0.5,0H59.5l-5.6,34.9
		c-0.2,2.7-2.5,4.9-5.3,4.9H28.9v0c-2.6,0-4.8-1.9-5.2-4.5l-6.3-39.4c-0.1-0.2-0.1-0.5-0.1-0.7l0,0l0,0l0,0l0,0l0,0l0,0l0,0l0,0l0,0
		l0,0v0l0,0l0,0l0,0v0l0,0l0,0c0-0.1,0-0.2,0-0.2v0v0v0V196.7v-56.5C9.8,138,4.7,133,2.1,127.1C0.7,124,0,120.6,0,117.3
		c0-3.4,0.6-6.7,2-9.8c3.6-7.9,11.6-14,24.1-14H143.1z M48.8,348.7H28.7l4.7,29.2h10.7L48.8,348.7z M172.7,226.4
		c0-2.9,2.4-5.3,5.3-5.3c2.9,0,5.3,2.4,5.3,5.3v31.5c0,2.9-2.4,5.3-5.3,5.3c-2.9,0-5.3-2.4-5.3-5.3V226.4z M116.3,226.4
		c0-2.9,2.4-5.3,5.3-5.3c2.9,0,5.3,2.4,5.3,5.3v31.5c0,2.9-2.4,5.3-5.3,5.3c-2.9,0-5.3-2.4-5.3-5.3V226.4z"/>
</g>
</svg>
