<?xml version="1.0" encoding="utf-8"?>
<!-- Generator: Adobe Illustrator 19.0.0, SVG Export Plug-In . SVG Version: 6.00 Build 0)  -->
<svg version="1.1" xmlns="http://www.w3.org/2000/svg" xmlns:xlink="http://www.w3.org/1999/xlink" x="0px" y="0px"
	 viewBox="0 0 244.3 356.9" style="enable-background:new 0 0 244.3 356.9;" xml:space="preserve">
<style type="text/css">
	.st0{fill:#1D1D1B;}
</style>
<g id="background">
</g>
<g id="icons">
	<path class="st0" d="M40.6,334.4H19l1.9,11.9h17.8L40.6,334.4z M225.2,334.4h-21.5l1.9,11.9h17.8L225.2,334.4z M105.9,31.7
		c-5.8-5.8-13.7-9.3-22.5-9.3c-8.8,0-16.7,3.6-22.5,9.3c-5.8,5.8-9.3,13.7-9.3,22.5c0,8.8,3.6,16.7,9.3,22.5
		c5.8,5.8,13.7,9.3,22.5,9.3c8.8,0,16.7-3.6,22.5-9.3c5.8-5.8,9.3-13.7,9.3-22.5C115.2,45.4,111.6,37.4,105.9,31.7z M99.9,15.1
		c5.1,2.1,9.6,5.3,13.5,9.1c1.8,1.8,3.5,3.8,5,6c1.7-2.1,2.8-4.7,2.8-7.6c0-3.3-1.3-6.3-3.5-8.4c-2.2-2.2-5.1-3.5-8.4-3.5
		c-3.3,0-6.3,1.3-8.4,3.5C100.4,14.4,100.1,14.7,99.9,15.1z M66.8,15.1c-0.3-0.3-0.6-0.7-0.9-1c-2.2-2.2-5.1-3.5-8.4-3.5
		c-3.3,0-6.3,1.3-8.4,3.5c-2.2,2.2-3.5,5.1-3.5,8.4c0,2.9,1,5.6,2.8,7.6c1.5-2.1,3.1-4.1,5-6C57.2,20.3,61.8,17.2,66.8,15.1z
		 M59.9,106h46.8l-7-12.7c-5.1,2.1-10.6,3.3-16.4,3.3c-5.8,0-11.4-1.2-16.4-3.3L59.9,106z M226.1,139.5H18.2v86.8h207.9V139.5z
		 M12.9,128.9h218.5l0.1,0h2.1v-12.3H10.6v12.3h2.1L12.9,128.9z M104.1,188.2c-2.9,0-5.3-2.4-5.3-5.3c0-2.9,2.4-5.3,5.3-5.3h36
		c2.9,0,5.3,2.4,5.3,5.3c0,2.9-2.4,5.3-5.3,5.3H104.1z M18.2,236.9v86.8h207.9v-86.8H18.2z M51.3,334.4l-2.8,18
		c-0.4,2.6-2.7,4.5-5.2,4.5v0H16.4c-2.8,0-5.1-2.2-5.3-4.9l-3.4-21.6c-0.1-0.4-0.2-0.8-0.2-1.3v-97.4v-92.1H5.3
		c-2.9,0-5.3-2.4-5.3-5.3v-22.9c0-2.9,2.4-5.3,5.3-5.3h43.5c-0.1-1,0.1-2,0.6-2.9l8.3-15c-1.6-1.2-3-2.5-4.4-3.8
		c-7.7-7.7-12.4-18.3-12.4-30c0-5,0.9-9.8,2.4-14.2c-0.6-0.5-1.2-1-1.7-1.6c-4.1-4.1-6.6-9.7-6.6-15.9c0-6.2,2.5-11.8,6.6-15.9
		C45.7,2.5,51.3,0,57.5,0c6.2,0,11.8,2.5,15.9,6.6c1.6,1.6,3,3.5,4.1,5.5c1.9-0.3,3.9-0.4,5.8-0.4c2,0,3.9,0.1,5.8,0.4
		c1.1-2.1,2.4-3.9,4.1-5.5C97.3,2.5,103,0,109.2,0c6.2,0,11.8,2.5,15.9,6.6c4.1,4.1,6.6,9.7,6.6,15.9s-2.5,11.8-6.6,15.9
		c-0.5,0.5-1.1,1.1-1.7,1.6c1.6,4.4,2.4,9.2,2.4,14.2c0,11.7-4.7,22.3-12.4,30c-1.4,1.4-2.8,2.7-4.4,3.8l8.3,15.1
		c0.5,0.9,0.7,1.9,0.6,2.9H239c2.9,0,5.3,2.4,5.3,5.3v22.9c0,2.9-2.4,5.3-5.3,5.3h-2.3v92.1v97.4c0,0.4-0.1,0.9-0.2,1.3l-3.4,22
		c-0.4,2.6-2.7,4.5-5.2,4.5v0H201c-2.8,0-5.1-2.2-5.3-4.9l-2.7-17.6H51.3z M104.1,285.6c-2.9,0-5.3-2.4-5.3-5.3
		c0-2.9,2.4-5.3,5.3-5.3h36c2.9,0,5.3,2.4,5.3,5.3c0,2.9-2.4,5.3-5.3,5.3H104.1z M72.4,33.7c-0.8-2.8,0.9-5.7,3.7-6.5
		c2.8-0.8,5.7,0.9,6.5,3.7l6,21.8c0.7,2.6-0.6,5.2-3,6.3l0,0l-14.3,6.2c-2.7,1.2-5.8-0.1-7-2.8c-1.2-2.7,0.1-5.8,2.8-7l10.1-4.4
		L72.4,33.7z"/>
</g>
</svg>
