<?xml version="1.0" encoding="utf-8"?>
<!-- Generator: Adobe Illustrator 19.0.0, SVG Export Plug-In . SVG Version: 6.00 Build 0)  -->
<svg version="1.1" xmlns="http://www.w3.org/2000/svg" xmlns:xlink="http://www.w3.org/1999/xlink" x="0px" y="0px"
	 viewBox="0 0 419.5 308" style="enable-background:new 0 0 419.5 308;" xml:space="preserve">
<style type="text/css">
	.st0{fill:#1D1D1B;}
</style>
<g id="background">
</g>
<g id="icons">
	<path class="st0" d="M237.1,10.6H183l17.8,38.3h18.5L237.1,10.6z M366.9,240c-4.9,0.9-9.9,1.5-15.1,1.5c-5.2,0-10.2-0.5-15.1-1.4
		l9.8,21h10.6L366.9,240z M225.1,240c-4.9,0.9-9.9,1.5-15.1,1.5c-5.2,0-10.2-0.5-15.1-1.4l9.8,21h10.6L225.1,240z M82.7,240
		c-4.9,0.9-9.9,1.5-15.1,1.5c-5.2,0-10.2-0.5-15.1-1.4l9.8,21h10.6L82.7,240z M189.2,227.6c0.2,0.1,0.4,0.1,0.6,0.2
		c5.8,1.8,12.1,2.9,18.7,3h0l0.1,0h0l0.5,0h0.1l0.1,0l0.1,0l0.2,0l0.2,0h0.1l0.3,0v0h0c15.9,0,30.3-5.4,40.7-14.1
		c8.9-7.5,14.8-17.4,16.1-28.5H153.3c1.3,11,7.2,21,16.1,28.5C174.9,221.5,181.7,225.2,189.2,227.6z M330.9,227.6
		c0.2,0.1,0.4,0.1,0.6,0.2c6.3,2,13.1,3.1,20.2,3.1c15.9,0,30.3-5.4,40.7-14.1c8.9-7.5,14.8-17.4,16.1-28.5H295
		c1.3,11,7.2,21,16.1,28.5C316.7,221.5,323.4,225.2,330.9,227.6z M357.7,271.7c-5.1,16.5-20.9,27.2-40.4,32.4
		c-9.7,2.6-20.4,3.9-31.2,3.9c-10.8,0-21.6-1.3-31.5-3.8c-20.9-5.2-38.2-15.9-44.1-31.4c-5.9,15.5-23.2,26.2-44.2,31.4
		c-10,2.5-20.8,3.8-31.6,3.8c-10.8,0-21.6-1.3-31.3-3.9c-19.6-5.3-35.4-15.9-40.5-32.4H59c-2.2,0-4.2-1.4-4.9-3.4l-15-32.2
		c-7-2.8-13.4-6.6-18.9-11.2C7.7,214.3,0,199.8,0,183.6c0-0.8,0,0.1,0-0.5v0l0,0l0-0.2c0-2.9,2.4-5.2,5.3-5.2v0H130
		c2.9,0,5.3,2.4,5.3,5.3c0,0.1,0,0.2,0,0.3c0,0.2,0-0.4,0,0.3c0,16.2-7.7,30.7-20.1,41.2c-5.5,4.6-11.9,8.4-18.9,11.2l-15.1,32.5
		c-0.9,1.9-2.8,3.1-4.8,3.1v0h-2.1c5.1,10.9,17.2,18.3,31.8,22.2c8.9,2.4,18.7,3.6,28.6,3.5c9.9,0,19.9-1.2,29.1-3.5
		c16.6-4.1,30.4-11.8,35.8-22.6c-1.4-0.5-2.5-1.6-3.1-3l-15-32.2c-7-2.8-13.4-6.6-18.9-11.2c-12.4-10.5-20.1-25.1-20.1-41.2
		c0-0.8,0,0.1,0-0.5v0l0,0l0-0.2c0-2.9,2.4-5.2,5.3-5.2v0h57.1l0-118.2h-7.3c-2.2,0-4.2-1.4-4.9-3.4L169.9,7.5
		c-1.2-2.7-0.1-5.8,2.6-7c0.7-0.3,1.5-0.5,2.2-0.5v0h70.7c2.9,0,5.3,2.4,5.3,5.3c0,0.9-0.2,1.8-0.7,2.6l-22.6,48.5
		c-0.9,1.9-2.8,3.1-4.8,3.1v0h-7.3l0,118.2h57.1c2.9,0,5.3,2.4,5.3,5.3c0,0.1,0,0.2,0,0.3c0,0.2,0-0.4,0,0.3
		c0,16.2-7.7,30.7-20.1,41.2c-5.5,4.6-11.9,8.4-18.9,11.2l-15.1,32.5c-0.5,1.1-1.3,1.9-2.3,2.4c5.3,10.9,19.2,18.7,35.9,22.9
		c9.2,2.3,19.1,3.5,29,3.5c9.8,0,19.6-1.2,28.5-3.5c14.6-3.9,26.7-11.3,31.7-22.2h-3.2c-2.2,0-4.2-1.4-4.9-3.4l-15-32.2
		c-7-2.8-13.4-6.6-18.9-11.2c-12.4-10.5-20.1-25.1-20.1-41.2c0-0.8,0,0.1,0-0.5v0v0l0-0.2c0-2.9,2.4-5.2,5.3-5.2v0h124.7
		c2.9,0,5.3,2.4,5.3,5.3c0,0.1,0,0.2,0,0.3c0,0.2,0-0.1,0,0.3c0,16.2-7.7,30.7-20.1,41.2c-5.5,4.6-11.9,8.4-18.9,11.2l-15.1,32.5
		c-0.9,1.9-2.8,3.1-4.8,3.1v0H357.7z M66.1,230.9L66.1,230.9L66.1,230.9l0.1,0l0.5,0h0.1l0.1,0l0.1,0l0.2,0l0.2,0h0.1l0.3,0v0
		c15.9,0,30.3-5.4,40.7-14.1c8.9-7.5,14.8-17.4,16.1-28.5H10.9c1.3,11,7.2,21,16.1,28.5C37,225.2,50.8,230.5,66.1,230.9z"/>
</g>
</svg>
