<?xml version="1.0" encoding="utf-8"?>
<!-- Generator: Adobe Illustrator 19.0.0, SVG Export Plug-In . SVG Version: 6.00 Build 0)  -->
<svg version="1.1" xmlns="http://www.w3.org/2000/svg" xmlns:xlink="http://www.w3.org/1999/xlink" x="0px" y="0px"
	 viewBox="0 0 456.7 278.5" style="enable-background:new 0 0 456.7 278.5;" xml:space="preserve">
<style type="text/css">
	.st0{fill-rule:evenodd;clip-rule:evenodd;fill:#1D1D1B;}
</style>
<g id="background">
</g>
<g id="icons">
	<path class="st0" d="M436.9,99.1h-24h-3.6l-0.2,0h0l0,0l-0.2,0h0l0,0c-0.1,0-0.3,0-0.4,0l-0.1,0l-0.1,0c-2.3,0.2-4.3,1-5.8,2.2
		c-1,0.8-1.7,1.7-2,2.7c-0.1,0.5-0.2,0.9-0.2,1.4v21h9.4c3.8,0,7.2,1.6,9.7,4.1c2.4,2.5,3.9,5.9,3.9,9.7v38.9c0,3.8-1.5,7.2-3.9,9.7
		c-2.5,2.5-5.9,4.1-9.7,4.1H54.7c-3.8,0-7.2-1.6-9.7-4.1c-2.4-2.5-3.9-5.9-3.9-9.7v-38.9c0-3.8,1.5-7.2,3.9-9.7
		c2.5-2.5,5.9-4.1,9.7-4.1h1.8v-21c0-0.5-0.1-0.9-0.2-1.4c-0.4-1-1.1-1.9-2-2.7c-1.5-1.2-3.5-2-5.8-2.2l-0.1,0l-0.1,0
		c-0.1,0-0.3,0-0.4,0l0,0h0l-0.2,0l0,0h0l-0.2,0h-3.6h-24c-5,0-9.2,2.9-9.2,6.4v137.7c0,1.5,0.9,3,2.3,4.1c1.7,1.3,4,2.2,6.6,2.2
		h28.1c2.6-0.1,5-0.9,6.6-2.2c1.4-1.1,2.3-2.6,2.3-4.1v-6.2c0-2.9,2.4-5.3,5.3-5.3h333.1c2.9,0,5.3,2.4,5.3,5.3v6.2
		c0,1.5,0.9,3,2.3,4.1c1.7,1.3,4,2.2,6.6,2.2h28.1c2.6-0.1,5-0.9,6.6-2.2c1.4-1.1,2.3-2.6,2.3-4.1h0V105.4h0c0-1.5-0.9-3-2.3-4.1
		C442.1,99.9,439.7,99.1,436.9,99.1L436.9,99.1z M433.8,260.1h-20.6l1.2,7.8h18.2L433.8,260.1z M43.5,260.1H22.9l1.2,7.8h18.2
		L43.5,260.1z M54.7,137c-0.8,0-1.5,0.3-2.1,0.9c-0.6,0.6-0.9,1.4-0.9,2.3v38.9c0,0.9,0.4,1.7,0.9,2.3c0.5,0.5,1.3,0.9,2.1,0.9
		h354.9c0.8,0,1.5-0.3,2.1-0.9c0.6-0.6,0.9-1.4,0.9-2.3v-38.9c0-0.9-0.4-1.7-0.9-2.3c-0.5-0.5-1.3-0.9-2.1-0.9h-14.7H61.8H54.7z
		 M233.6,126.4h156v-21c0-1.9,0.4-3.8,1.1-5.5c1-2.7,2.8-5,5.2-6.9c2-1.6,4.5-2.9,7.2-3.7l0.1,0l0.4-0.1l0,0l0,0l0.1,0l0.2-0.1
		l0.3-0.1l0,0l0.4-0.1l0.2,0l0.1,0l0.1,0l0.2,0l0.2,0l0,0l0.2,0l0,0l0.2,0l0,0l0.4-0.1l0,0c0.3,0,0.5-0.1,0.8-0.1l0,0
		c0.2,0,0.4,0,0.6-0.1V31.2h0c0-5.7-2.3-10.8-6.1-14.5c-3.7-3.7-8.9-6.1-14.5-6.1H233.6V126.4z M49,88.5c4.5,0.3,8.7,2,11.8,4.5
		c2.3,1.8,4,4.1,5.1,6.7c0.7,1.8,1.1,3.7,1.1,5.6v21h156V10.6H69.7c-5.7,0-10.8,2.3-14.5,6.1c-3.7,3.7-6.1,8.9-6.1,14.5h0V88.5z
		 M418.2,88.5h18.7c5.2,0,10,1.8,13.5,4.6c3.8,3.1,6.2,7.5,6.2,12.4h0v137.7h0c0,4.9-2.4,9.3-6.2,12.4c-1.7,1.4-3.6,2.5-5.8,3.2
		l-2.4,15.2c-0.4,2.6-2.7,4.5-5.2,4.5v0h-27.2c-2.8,0-5.1-2.2-5.3-4.9l-2.3-14.6c-2.4-0.8-4.6-2-6.4-3.5c-3.8-3.1-6.2-7.5-6.2-12.4
		v-0.9H67.1v0.9c0,4.9-2.4,9.3-6.2,12.4c-1.8,1.5-4,2.7-6.4,3.5l-2.3,15c-0.4,2.6-2.7,4.5-5.2,4.5v0H19.6c-2.8,0-5.1-2.2-5.3-4.9
		L12,258.8c-2.2-0.8-4.1-1.9-5.8-3.2C2.4,252.4,0,248,0,243.2V105.4c0-9.3,8.9-17,19.8-17h18.7V31.2h0c0-8.6,3.5-16.4,9.2-22
		C53.3,3.5,61.1,0,69.7,0H387c8.6,0,16.4,3.5,22,9.2c5.7,5.7,9.2,13.5,9.2,22h0V88.5z"/>
</g>
</svg>
