<?xml version="1.0" encoding="utf-8"?>
<!-- Generator: Adobe Illustrator 19.0.0, SVG Export Plug-In . SVG Version: 6.00 Build 0)  -->
<svg version="1.1" xmlns="http://www.w3.org/2000/svg" xmlns:xlink="http://www.w3.org/1999/xlink" x="0px" y="0px"
	 viewBox="0 0 310.2 373.6" style="enable-background:new 0 0 310.2 373.6;" xml:space="preserve">
<style type="text/css">
	.st0{fill:#1D1D1B;}
</style>
<g id="background">
</g>
<g id="icons">
	<path class="st0" d="M299.6,346.5H107.9V363h191.7V346.5z M100.2,176.9l-4-1.9l-33.5-15.7c-0.2,1.2-0.3,2.5-0.3,3.7
		c0,5.9,2.4,11.3,6.3,15.2c3.9,3.9,9.2,6.3,15.2,6.3c4.2,0,8.1-1.2,11.4-3.2C97.1,180.1,98.8,178.6,100.2,176.9z M132.9,88.4
		c-7.3-5.4-15.7-9.3-24.5-11.5c-16.6-4.1-34.2-1.9-49.9,4.9c-18.9,8.1-35.6,23-46,42.3l145.4,68.3c8.3-20.6,9-43.2,3-63.1
		c-3.5-11.6-9.4-22.6-17.6-31.6C140,94.2,136.6,91.1,132.9,88.4z M156.1,87.1c25.5,10.6,46.3,23.3,60.3,56.6
		c14.5,34.5,21.1,91.3,17.4,192.1h71.1c2.9,0,5.3,2.4,5.3,5.3h0v27.1c0,2.9-2.4,5.3-5.3,5.3c-0.2,0-0.3,0-0.5,0H102.6
		c-2.9,0-5.3-2.4-5.3-5.3h0v-27.1c0-2.9,2.4-5.3,5.3-5.3c0.2,0,0.3,0,0.5,0h120.1c3.7-99.3-2.7-154.9-16.6-188.1
		c-11.3-27-27.9-39-48.3-48.3c5.6,8,9.8,17,12.7,26.6c7.2,23.8,5.7,51.1-5.7,75.4c-0.3,0.6-0.6,1.1-1,1.5l0,0l0,0
		c-1.7,1.7-4.4,2-6.4,0.8L110,181.5c-2.5,3.5-5.6,6.4-9.2,8.7c-4.9,3.1-10.8,4.9-17,4.9c-8.8,0-16.9-3.6-22.7-9.4
		c-5.8-5.8-9.4-13.8-9.4-22.7c0-2.3,0.3-4.6,0.7-6.8c0.1-0.5,0.2-1,0.4-1.5L3.1,131.3c-1.9-0.9-3-2.8-3-4.8h0v0c0-1,0.3-1.9,0.7-2.7
		C12.1,99.9,31.8,81.7,54.3,72c12-5.2,24.7-7.9,37.4-7.8l24-51.1c2.5-5.4,7-9.4,12.1-11.5c5.2-2.1,11.1-2.3,16.7-0.2
		c7.4,2.8,14.7,6.8,21.9,10.2c5.7,2.7,9.8,7.4,11.8,12.8c2,5.4,1.9,11.6-0.8,17.3L156.1,87.1z M145.4,85l22.3-47.6
		c1.4-3,1.5-6.3,0.4-9.2c-1.1-2.9-3.2-5.4-6.3-6.9c-7-3.3-13.9-7.2-21.1-9.9c-3-1.1-6.2-1-9,0.1c-2.8,1.1-5.2,3.2-6.5,6.1
		c-2.1,4.5-22.5,47.4-21.4,47.6c2.4,0.4,4.7,0.8,7.1,1.4c10.2,2.5,19.8,7.1,28.3,13.3C141.4,81.5,143.4,83.2,145.4,85z"/>
</g>
</svg>
