<?xml version="1.0" encoding="utf-8"?>
<!-- Generator: Adobe Illustrator 19.0.0, SVG Export Plug-In . SVG Version: 6.00 Build 0)  -->
<svg version="1.1" id="Слой_3" xmlns="http://www.w3.org/2000/svg" xmlns:xlink="http://www.w3.org/1999/xlink" x="0px" y="0px"
	 viewBox="0 0 475.8 187.9" style="enable-background:new 0 0 475.8 187.9;" xml:space="preserve">
<style type="text/css">
	.st0{fill-rule:evenodd;clip-rule:evenodd;fill:#1D1D1B;}
</style>
<path class="st0" d="M446.1,37.7l-17-17l-4,4l-94,94l17,17L446.1,37.7z M412.2,20.4L399,7.2l-89.7,89.7l13.2,13.2L412.2,20.4z
	 M375.9,13.2L362.8,0l-75.2,75.2l13.2,13.2L375.9,13.2z M224.6,38.8l-14.5-14.5l-96.9,96.9l14.5,14.5L224.6,38.8z M193.6,23.7
	L181.9,12l-88.9,88.9l11.7,11.7L193.6,23.7z M343.9,148.6L237.9,42.7L132.3,148.2c-0.1,0.1-0.2,0.2-0.3,0.3c-2.4,2.4-6.2,2.4-8.6,0
	L17.5,42.7L0,60.2l127.7,127.7L233.6,82c2.4-2.4,6.2-2.4,8.6,0l105.9,105.9L475.8,60.2l-17.5-17.5L352.4,148.6l0,0
	C350,150.9,346.2,150.9,343.9,148.6z"/>
</svg>
