<?xml version="1.0" encoding="utf-8"?>
<!-- Generator: Adobe Illustrator 19.0.0, SVG Export Plug-In . SVG Version: 6.00 Build 0)  -->
<svg version="1.1" id="Слой_3" xmlns="http://www.w3.org/2000/svg" xmlns:xlink="http://www.w3.org/1999/xlink" x="0px" y="0px"
	 viewBox="0 0 240 382.6" style="enable-background:new 0 0 240 382.6;" xml:space="preserve">
<style type="text/css">
	.st0{fill:#1D1D1B;}
</style>
<path class="st0" d="M68.7,20.4l-0.2,0.1l0,0c-2,0.6-3.9,1.4-5.7,2.3l0,0c-0.6,0.3-1.2,0.6-1.7,1l-0.1,0l-0.1,0l-0.1,0
	c-0.3,0.2-0.6,0.3-0.9,0.5l-0.1,0c-0.6,0.4-1.1,0.7-1.7,1.1l0,0l0,0l0,0c-0.2,0.1-0.4,0.3-0.6,0.5l0,0l0,0l-0.2,0.1l-0.1,0.1
	l-0.3,0.2l0,0l0,0l0,0c-0.3,0.2-0.6,0.5-0.9,0.7l0,0l0,0l0,0l-0.4,0.3l0,0l-0.2,0.2l0,0L55.1,28l0,0l-0.2,0.2l0,0l-0.2,0.2l0,0
	l-0.2,0.2l0,0l-0.2,0.2l-0.2,0.2L54,29.2l-0.1,0.1l0,0l-0.1,0.1l-0.1,0.1l0,0l-0.2,0.3l-0.1,0.1c-0.1,0.1-0.3,0.3-0.4,0.4l-0.1,0.1
	l0,0l-0.2,0.2l0,0l-0.1,0.1l-0.1,0.1L52.3,31l0,0c-0.2,0.2-0.3,0.4-0.5,0.6l-0.2,0.2L51.5,32l0,0.1l-0.1,0.2l-0.1,0.2l0,0l-0.1,0.1
	L51,32.6l0,0l0,0L50.7,33l-0.1,0.2l0,0l0,0l-0.1,0.1l-0.1,0.1l0,0.1l-0.1,0.1l-0.1,0.1L50,34.1l-0.1,0.1l-0.1,0.1l-0.1,0.1l-0.1,0.1
	l0,0l-0.1,0.1l-0.1,0.1l-0.3,0.5l0,0L49,35.6L49,35.7l0,0l-0.1,0.1L48.8,36l-0.1,0.2l-0.1,0.2l0,0l0,0l-0.2,0.3l0,0.1l0,0.1
	l-0.1,0.1l-0.1,0.1l0,0c-2.5,4.7-3.9,10.1-3.9,15.7c0,9.3,3.8,17.8,9.9,23.9c6.1,6.1,14.6,9.9,23.9,9.9c9.3,0,17.8-3.8,23.9-9.9
	c6.1-6.1,9.9-14.6,9.9-23.9c0-5.7-1.4-11-3.9-15.7l0,0l-0.1-0.1l-0.1-0.1l-0.1-0.1l-0.1-0.1l-0.1-0.1l0,0l-0.1-0.1l-0.1-0.1
	l-0.1-0.1l-0.1-0.1l-0.1-0.1c-0.1-0.2-0.2-0.4-0.3-0.5l-0.1-0.1l-0.1-0.1l0,0l-0.1-0.1l-0.1-0.1l0,0l-0.1-0.1l-0.1-0.1l0-0.1l0-0.1
	l-0.1-0.1l-0.2-0.3l-0.1-0.1l-0.1-0.1l-0.2-0.3l0,0l-0.2-0.2l-0.1-0.1l0,0l-0.1-0.1l0,0l-0.3-0.4l0-0.1l0,0l0,0
	c-0.1-0.2-0.2-0.3-0.4-0.5l-0.1-0.1l0,0l0,0c-0.2-0.3-0.5-0.6-0.7-0.8l-0.1-0.1c-0.2-0.3-0.5-0.6-0.7-0.8l-0.1-0.1l-0.2-0.3l0,0
	l-0.1-0.1l-0.1-0.1l0,0l-0.1-0.1l-0.2-0.2l-0.2-0.2l-0.2-0.2l0,0l-0.2-0.2l0,0l-0.2-0.2l0,0l-0.2-0.2l0,0l-0.2-0.2l0,0l-0.2-0.2l0,0
	l-0.4-0.3l0,0l0,0l0,0c-0.3-0.2-0.6-0.5-0.9-0.7l0,0l0,0l0,0l-0.3-0.2l-0.1-0.1L98.6,26l0,0l0,0c-0.2-0.2-0.4-0.3-0.6-0.5l0,0l0,0
	l0,0c-0.5-0.4-1.1-0.8-1.7-1.1l-0.1,0c-0.3-0.2-0.6-0.4-0.9-0.5l-0.1,0l-0.1,0l-0.1,0c-0.6-0.3-1.1-0.7-1.7-1l0,0
	c-1.8-0.9-3.7-1.7-5.7-2.3l0,0l-0.2-0.1c-3-0.9-6.1-1.3-9.4-1.3C74.8,19,71.7,19.5,68.7,20.4L68.7,20.4z M100.5,221
	c-5.3,0-9.5-4.3-9.5-9.5c0-5.3,4.3-9.5,9.5-9.5h38.9c5.3,0,9.5,4.3,9.5,9.5c0,5.3-4.3,9.5-9.5,9.5H100.5z M231.8,165.1H8.2v92.7
	h223.6V165.1z M100.5,326.4c-5.3,0-9.5-4.3-9.5-9.5c0-5.3,4.3-9.5,9.5-9.5h38.9c5.3,0,9.5,4.3,9.5,9.5c0,5.3-4.3,9.5-9.5,9.5H100.5z
	 M231.8,270.5H8.2v93.8l0.7,4.2l2.2,14.1h18.2l2.2-14.1l0.8-5.4h5.4h164.5h5.4l0.8,5.4l2.2,14.1h18.2l2.2-14.1l0.7-4.2V270.5z
	 M240,124.3H0v28.1h240V124.3z M52,111.5c-1.7,3.1-5.5,4.2-8.6,2.5c-3.1-1.7-4.2-5.6-2.5-8.6l8.7-15.8c-1.5-1.2-3-2.5-4.4-3.9
	c-8.4-8.4-13.6-20-13.6-32.9c0-7.7,1.9-15,5.2-21.4c-3.2-3.3-5.2-7.9-5.2-12.9C31.6,8.3,39.9,0,50.2,0c6.4,0,12,3.2,15.3,8.1
	c4-1.1,8.2-1.7,12.6-1.7c4.4,0,8.6,0.6,12.6,1.7C94,3.2,99.6,0,106,0c10.3,0,18.6,8.3,18.6,18.6c0,5-2,9.5-5.2,12.9
	c3.3,6.4,5.2,13.7,5.2,21.4c0,12.8-5.2,24.5-13.6,32.9c-1.4,1.4-2.8,2.7-4.4,3.9l8.7,15.8c1.7,3.1,0.6,6.9-2.5,8.6
	c-3.1,1.7-6.9,0.6-8.6-2.5l-8.6-15.6c-5.4,2.2-11.3,3.4-17.5,3.4c-6.2,0-12.1-1.2-17.5-3.4L52,111.5z M66.2,32.2
	c-0.9-3.4,1-6.9,4.4-7.8c3.4-0.9,6.9,1,7.8,4.4l5.9,21.5c0.9,3.1-0.7,6.3-3.6,7.5l0,0L66.6,64c-3.2,1.4-7-0.1-8.4-3.3
	c-1.4-3.2,0.1-7,3.3-8.4l9.1-3.9L66.2,32.2z"/>
</svg>
