<?xml version="1.0" encoding="utf-8"?>
<!-- Generator: Adobe Illustrator 19.0.0, SVG Export Plug-In . SVG Version: 6.00 Build 0)  -->
<svg version="1.1" id="Слой_3" xmlns="http://www.w3.org/2000/svg" xmlns:xlink="http://www.w3.org/1999/xlink" x="0px" y="0px"
	 viewBox="0 0 452.5 314.3" style="enable-background:new 0 0 452.5 314.3;" xml:space="preserve">
<style type="text/css">
	.st0{fill-rule:evenodd;clip-rule:evenodd;fill:#1D1D1B;}
</style>
<path class="st0" d="M32.6,151.5h387.3c6.7,0,12.2,9.1,12.2,20.2c0,11.1-5.5,20.2-12.2,20.2H32.6c-6.7,0-12.2-9.1-12.2-20.2
	C20.4,160.6,25.9,151.5,32.6,151.5L32.6,151.5z M216.8,113.7c-23.7,16.7-52.4,26.6-83.4,26.6s-59.7-9.8-83.4-26.6
	c23.7-16.7,52.4-26.6,83.4-26.6S193.1,97,216.8,113.7z M402.5,113.7c-23.7,16.7-52.4,26.6-83.4,26.6c-31,0-59.7-9.8-83.4-26.6
	c23.7-16.7,52.4-26.6,83.4-26.6C350.1,87.2,378.8,97,402.5,113.7z M0.4,55.3c74-67.5,353.7-79.8,451.8,0v227.9h0v9.3h0.4v21.9H412
	v-21.1H40.5v21.1H0v-21.9h0.3V192h0V55.3z"/>
</svg>
