<?xml version="1.0" encoding="utf-8"?>
<!-- Generator: Adobe Illustrator 19.0.0, SVG Export Plug-In . SVG Version: 6.00 Build 0)  -->
<svg version="1.1" id="Слой_3" xmlns="http://www.w3.org/2000/svg" xmlns:xlink="http://www.w3.org/1999/xlink" x="0px" y="0px"
	 viewBox="0 0 385.3 368.5" style="enable-background:new 0 0 385.3 368.5;" xml:space="preserve">
<style type="text/css">
	.st0{fill-rule:evenodd;clip-rule:evenodd;fill:#1D1D1B;}
</style>
<path class="st0" d="M107,258.7l-39.9,70.9c7.6,3.7,15.5,7,23.7,10c30.7,11.3,65.3,17.6,101.8,17.6c36.5,0,71-6.3,101.8-17.6
	c1.4-0.5,2.8-1,4.2-1.6l-32.2-95.8l-153.1,16.4l0,0l-0.1,0l0,0l0,0l-0.1,0C110.9,258.8,108.9,258.9,107,258.7L107,258.7z
	 M136.2,197.5c0.3,0.3,0.6,0.6,0.8,0.9l110.1-11.8c-4-9.8-8.9-17.9-17.1-23.3c-12.3-8.1-32.8-11.1-69.8-6.1l-0.1,0l0,0l-27.9,3.1
	L136.2,197.5z M57.1,324.5l38.7-68.9c-0.7-0.4-1.4-0.8-2.1-1.2c-5.7-3.5-9.5-8.9-10.3-15.4c0-0.1,0-0.2,0-0.3l-1.2-11.5
	c0-0.1,0-0.2,0-0.3l0,0l0,0h0l0-0.1l0-0.2c0-0.1,0-0.2,0-0.3l0,0l0-0.2L61.3,32.7h0l0,0c0-0.1,0-0.1,0-0.2c-0.8-8,1.6-15.6,6-21.4
	C71.9,5.1,78.6,1,86.4,0.2l0,0l0,0c0.2,0,0.3,0,0.5,0c7.7-0.7,15,1.9,20.7,6.6c5.6,4.8,9.6,11.8,10.4,19.9L131.1,149L159,146l0,0
	c40-5.4,62.8-1.7,77.3,7.9c11.6,7.7,17.6,18.6,22.6,31.4l10-1.1c7.3-0.8,14.2,0.9,19.5,4.2c5.7,3.6,9.6,9,10.3,15.6l1.3,11.7
	c0.7,6.5-2,12.7-6.8,17.4c-3.9,3.8-9.2,6.6-15.4,7.8l31.3,92.9c25.8-11.2,48.4-26.1,66.8-43.6c2.2-2.1,5.8-2.1,7.9,0.2
	c2.1,2.2,2.1,5.8-0.2,7.9c-22.8,21.8-51.9,39.6-85.2,51.8c-32,11.7-67.8,18.3-105.7,18.3c-37.8,0-73.7-6.6-105.7-18.3
	c-33.3-12.2-62.4-30-85.2-51.8c-2.2-2.1-2.3-5.7-0.2-7.9c2.1-2.2,5.7-2.3,7.9-0.2C23.1,303.3,39.2,314.8,57.1,324.5z"/>
</svg>
