<?xml version="1.0" encoding="utf-8"?>
<!-- Generator: Adobe Illustrator 19.0.0, SVG Export Plug-In . SVG Version: 6.00 Build 0)  -->
<svg version="1.1" id="Слой_3" xmlns="http://www.w3.org/2000/svg" xmlns:xlink="http://www.w3.org/1999/xlink" x="0px" y="0px"
	 viewBox="0 0 361.8 280.5" style="enable-background:new 0 0 361.8 280.5;" xml:space="preserve">
<style type="text/css">
	.st0{fill-rule:evenodd;clip-rule:evenodd;fill:#1D1D1B;}
</style>
<path class="st0" d="M181.4,142.4c18.8,0,34,30.9,34,69.1c0,7.9-0.7,15.4-1.8,22.5c4.1,2.3,8.4,4.1,12.6,5.5
	c8.9,2.7,17.9,3.2,26,1.4c7.9-1.8,15.1-5.8,20.6-12c6.8-7.8,11.1-19.1,11.4-34.1h-20c-3.1,0-5.6-2.5-5.6-5.6c0-3.1,2.5-5.6,5.6-5.6
	h12.2v-25.7h-57.3L247.3,0h91.1l23.3,157.5h-57.3v25.7h12.2c3.1,0,5.6,2.5,5.6,5.6c0,3.1-2.5,5.6-5.6,5.6h-21.1
	c-0.3,18-5.7,31.8-14.2,41.5c-7.1,8.1-16.4,13.3-26.7,15.6c-10,2.2-21,1.7-31.7-1.6c-4-1.2-8-2.8-11.9-4.8
	c-5.8,21-16.9,35.2-29.7,35.2c-12.8,0-24-14.4-29.8-35.7c-4.2,2.2-8.5,4-12.8,5.3c-10.7,3.3-21.7,3.8-31.7,1.6
	c-10.2-2.3-19.5-7.5-26.7-15.6c-8.5-9.7-13.9-23.5-14.2-41.5H45.1c-3.1,0-5.6-2.5-5.6-5.6c0-3.1,2.5-5.6,5.6-5.6h12.2v-25.7H0
	L23.3,0h91.1l28,157.5H85.2v25.7h12.2c3.1,0,5.6,2.5,5.6,5.6c0,3.1-2.5,5.6-5.6,5.6h-20c0.3,15.1,4.6,26.4,11.4,34.1
	c5.5,6.3,12.7,10.3,20.6,12c8.2,1.8,17.1,1.3,26-1.4c4.6-1.4,9.2-3.4,13.6-6c-1.1-6.9-1.8-14.3-1.8-21.9
	C147.4,173.3,162.6,142.4,181.4,142.4L181.4,142.4z"/>
</svg>
