<?xml version="1.0" encoding="utf-8"?>
<!-- Generator: Adobe Illustrator 19.0.0, SVG Export Plug-In . SVG Version: 6.00 Build 0)  -->
<svg version="1.1" id="Слой_3" xmlns="http://www.w3.org/2000/svg" xmlns:xlink="http://www.w3.org/1999/xlink" x="0px" y="0px"
	 viewBox="0 0 421.5 416.9" style="enable-background:new 0 0 421.5 416.9;" xml:space="preserve">
<style type="text/css">
	.st0{fill:#1D1D1B;}
</style>
<path class="st0" d="M55.6,169.2h0.6h281v-142h-21.6v0h-7.8v1.5v6L325.4,77c0.4,0.8,0.6,1.6,0.6,2.5c0,3.1-2.5,5.6-5.6,5.6H284v0
	c-0.7,0-1.4-0.1-2.1-0.4c-2.9-1.2-4.2-4.5-3.1-7.3l17.7-43.1v-5.6v-1.5h-40.9v1.5v6L273.3,77c0.4,0.8,0.6,1.6,0.6,2.5
	c0,3.1-2.5,5.6-5.6,5.6h-36.3v0c-0.7,0-1.4-0.1-2.1-0.4c-2.9-1.2-4.2-4.5-3.1-7.3l17.7-43.1v-5.6v-1.5h-12.5c-3.1,0-5.6-2.5-5.6-5.6
	c0-3.1,2.5-5.6,5.6-5.6h12.5v-4.8h-7.8c-3.1,0-5.6-2.5-5.6-5.6c0-3.1,2.5-5.6,5.6-5.6l12.3,0v0h14.7c3.1,0,5.6,2.5,5.6,5.6
	c0,3.1-2.5,5.6-5.6,5.6h-7.8V16l40.9,0v-4.8h-7.8c-3.1,0-5.6-2.5-5.6-5.6c0-3.1,2.5-5.6,5.6-5.6l12.3,0v0h14.7
	c3.1,0,5.6,2.5,5.6,5.6c0,3.1-2.5,5.6-5.6,5.6h-7.8V16h7.8v0h75.3v-4.7H383c-3.1,0-5.6-2.5-5.6-5.6c0-3.1,2.5-5.6,5.6-5.6l12.3,0v0
	H410c3.1,0,5.6,2.5,5.6,5.6c0,3.1-2.5,5.6-5.6,5.6h-7.8V16h13.7c3.1,0,5.6,2.5,5.6,5.6c0,3.1-2.5,5.6-5.6,5.6h-13.7v1.5v6L419.7,77
	c0.4,0.8,0.6,1.6,0.6,2.5c0,3.1-2.5,5.6-5.6,5.6h-36.3v0c-0.7,0-1.4-0.1-2.1-0.4c-2.9-1.2-4.2-4.5-3.1-7.3l17.7-43.1v-5.6v-1.5
	h-29.4v389.6h-24.2V194.5h-281v222.3H0V169.2H55.6z M120.6,275.5l-6.9,74.8l70.4,0l-6.9-74.8L120.6,275.5z M173.4,234.6h-49.1
	l-2.7,29.7l54.6,0L173.4,234.6z M114.2,210.1h69.3c6.7,0,12.3,5.5,12.3,12.3c0,6.4-4.9,11.6-11.1,12.2l16.2,176.2
	c0.3,3.1-2,5.8-5.1,6.1c-3.1,0.3-5.8-2-6.1-5.1l-4.6-50.2l-72.5,0l-4.6,50.2c-0.3,3.1-3,5.4-6.1,5.1c-3.1-0.3-5.4-3-5.1-6.1
	l16.2-176.2c-6.2-0.6-11.1-5.9-11.1-12.2C101.9,215.6,107.5,210.1,114.2,210.1z M148,53.9V5.8c0-3.1,2.5-5.6,5.6-5.6
	c3.1,0,5.6,2.5,5.6,5.6v48.1h6c-0.9,24.8,27.7,21.7,27,71.6h-77.4c-0.6-49.9,28-46.8,27-71.6H148z"/>
</svg>
