<?xml version="1.0" encoding="utf-8"?>
<!-- Generator: Adobe Illustrator 19.0.0, SVG Export Plug-In . SVG Version: 6.00 Build 0)  -->
<svg version="1.1" id="Слой_3" xmlns="http://www.w3.org/2000/svg" xmlns:xlink="http://www.w3.org/1999/xlink" x="0px" y="0px"
	 viewBox="0 0 183.1 392.8" style="enable-background:new 0 0 183.1 392.8;" xml:space="preserve">
<style type="text/css">
	.st0{fill-rule:evenodd;clip-rule:evenodd;fill:#1D1D1B;}
</style>
<path class="st0" d="M61.1,36.2c-13.3,0.8-26.3,2.1-38.5,4L37,201.4h28.8L61.1,36.2z M110.8,35.7c-12.8-0.5-25.8-0.5-38.6,0
	L77,201.4h29.1L110.8,35.7z M160.6,40.3c-12.2-1.9-25.2-3.2-38.6-4l-4.7,165.2h28.9L160.6,40.3L160.6,40.3z M147.9,281.5H35.3
	l-6,111.2H8.5l3.7-165.8H0.3v-25.5h25.4L11.5,42.1c-2.5,0.5-5.1,1-7.5,1.5C2,28.6,1.2,20.8,0,7.1c57.7-9.5,125.4-9.5,183.1,0
	c-1.2,13.6-2,21.5-4,36.6c-2.4-0.5-4.9-1-7.4-1.5l-14.2,159.2h24.3v25.5h-10.9l3.7,165.8h-20.7L147.9,281.5z M38.2,226.9l-1.8,34
	h110.4l-1.8-34H38.2z"/>
</svg>
