<?xml version="1.0" encoding="utf-8"?>
<!-- Generator: Adobe Illustrator 19.0.0, SVG Export Plug-In . SVG Version: 6.00 Build 0)  -->
<svg version="1.1" id="Слой_3" xmlns="http://www.w3.org/2000/svg" xmlns:xlink="http://www.w3.org/1999/xlink" x="0px" y="0px"
	 viewBox="0 0 244.3 372.5" style="enable-background:new 0 0 244.3 372.5;" xml:space="preserve">
<style type="text/css">
	.st0{fill-rule:evenodd;clip-rule:evenodd;fill:#1D1D1B;}
</style>
<path class="st0" d="M244.3,107.5H0v29.9h244.3V107.5z M219,363c0.6,4.6-2.7,8.8-7.3,9.4c-4.6,0.6-8.8-2.7-9.4-7.3l-21.2-164
	c0-0.3-0.1-0.5-0.1-0.8H63.3c0,0.3,0,0.5-0.1,0.8l-21.2,164c-0.6,4.6-4.8,7.9-9.4,7.3c-4.6-0.6-7.9-4.8-7.3-9.4l21.2-164l0-0.1
	c-11.6-2.4-19.7-7.7-19.7-13.7v-34.6c0-0.7,0.1-1.3,0.3-2h190c0.2,0.7,0.3,1.3,0.3,2v34.6c0,6.1-8.1,11.3-19.7,13.7l0,0.1L219,363z
	 M79.9,0h84.5c13.1,0,23.8,13.7,23.8,30.4v65.8H56.1V30.4C56.1,13.7,66.8,0,79.9,0z"/>
</svg>
