<?xml version="1.0" encoding="utf-8"?>
<!-- Generator: Adobe Illustrator 19.0.0, SVG Export Plug-In . SVG Version: 6.00 Build 0)  -->
<svg version="1.1" id="Слой_3" xmlns="http://www.w3.org/2000/svg" xmlns:xlink="http://www.w3.org/1999/xlink" x="0px" y="0px"
	 viewBox="0 0 404.1 338.2" style="enable-background:new 0 0 404.1 338.2;" xml:space="preserve">
<style type="text/css">
	.st0{fill:#1D1D1B;}
</style>
<path class="st0" d="M56.1,297c2.3,13.4,17.1,22.2,36.1,26.6c9.8,2.3,20.6,3.4,31.5,3.4c10.9,0,21.9-1.1,32-3.3
	c21.6-4.6,38.8-13.8,40.7-26.8h-15.1c-3.1,0-5.6-2.5-5.6-5.6c0-3.1,2.5-5.6,5.6-5.6h8.4V270h-36.5l16.2-109.3h24.7l0-119.9h-4.3
	L171.9,0h55.6l-17.9,40.9h-4.3l0,119.9h27.3L252,270h-36.5v15.6h8.4c3.1,0,5.6,2.5,5.6,5.6c0,3.1-2.5,5.6-5.6,5.6H208
	c2,13,19.2,22.2,40.7,26.8c10.1,2.2,21.1,3.3,32,3.3c10.9,0,21.7-1.1,31.5-3.4c19-4.4,33.8-13.2,36.1-26.6h-14.9
	c-3.1,0-5.6-2.5-5.6-5.6c0-3.1,2.5-5.6,5.6-5.6h8.4V270h-36.5l16.2-109.3h63.2L404.1,270h-36.5v15.6h8.4c3.1,0,5.6,2.5,5.6,5.6
	c0,3.1-2.5,5.6-5.6,5.6h-16.2c-2.1,19.7-20.7,32-44.9,37.6c-10.5,2.5-22.2,3.7-34,3.7c-11.8,0-23.6-1.2-34.4-3.5
	c-19.5-4.2-36-12-44.2-23.4c-8.2,11.4-24.8,19.3-44.2,23.4c-10.8,2.3-22.6,3.5-34.4,3.5c-11.8,0-23.5-1.2-34-3.7
	c-24.2-5.6-42.8-17.9-44.9-37.6H28.1c-3.1,0-5.6-2.5-5.6-5.6c0-3.1,2.5-5.6,5.6-5.6h8.4V270H0l16.2-109.3h63.2L98.8,270H62.3v15.6
	h8.4c3.1,0,5.6,2.5,5.6,5.6c0,3.1-2.5,5.6-5.6,5.6H56.1z"/>
</svg>
