<?xml version="1.0" encoding="utf-8"?>
<!-- Generator: Adobe Illustrator 19.0.0, SVG Export Plug-In . SVG Version: 6.00 Build 0)  -->
<svg version="1.1" id="Слой_3" xmlns="http://www.w3.org/2000/svg" xmlns:xlink="http://www.w3.org/1999/xlink" x="0px" y="0px"
	 viewBox="0 0 301.5 432.5" style="enable-background:new 0 0 301.5 432.5;" xml:space="preserve">
<style type="text/css">
	.st0{fill-rule:evenodd;clip-rule:evenodd;fill:#1D1D1B;}
</style>
<path class="st0" d="M170.2,81.8V63.9h81v17.9H170.2z M198,58V40.1h81V58H198z M33.1,278v-20.7h69.8V278H33.1z M178.8,377.2v-21h81
	v21H178.8z M197.3,350.3v-21h81v21H197.3z M289.5,111.4H12.2v87.7h13.6V124h19.7v75.1h5.9V124h19.7v75.1h5.9V124h19.7v75.1h5.9V124
	h19.7v75.1h5.9V124h19.7v75.1h5.9V124h19.7v75.1h5.9V124h19.7v75.1h5.9V124h19.7v75.1h5.9V124h19.7v75.1h5.9V124h19.7v75.1h13V111.4
	z M289.5,211H12.2v87.7h7.6v-14.8h69.8v14.8h19.2v-75.1h19v75.1h5.9v-75.1h19v75.1h5.9v-75.1h19v75.1h5.9v-75.1h19v75.1h5.9v-75.1
	h19v75.1h5.9v-75.1h19v75.1h5.9v-75.1h19v75.1h12.2V211z M290.2,310.6H11.5v87.7h15.3v-72.9h21.4v72.9h5.9v-72.9h21.4v72.9h5.9
	v-72.9h21.4v72.9h5.9v-72.9h21.4v72.9h5.9v-72.9h21.4v72.9h5.7v-15.1h81v15.1h45.9V310.6z M28.2,24.5h22.8v75.1h5.9V24.5h22.8v75.1
	h5.9V24.5h22.8v75.1h5.9V24.5H137v75.1h5.9V24.5h22.8v75.1h23.8v-12h81v12h19V11.9H12.2v87.7h16V24.5z M297.5,432.5h-27.4l-3.5-22.4
	H34.9l-3.4,22H4.2l-4-22v-5.9c0-8-0.4-105.5,0.2-105.5V211v-11.9v-87.7V99.6V5.9V0h5.9h289.1h5.9v5.9c0,35.2,0,70.3,0,105.5
	c0,33.2,0,66.4,0,99.6c0,31.1,0.2,62.8,0.2,93.6v99.6v5.9L297.5,432.5z"/>
</svg>
