<?xml version="1.0" encoding="utf-8"?>
<!-- Generator: Adobe Illustrator 19.0.0, SVG Export Plug-In . SVG Version: 6.00 Build 0)  -->
<svg version="1.1" id="Слой_3" xmlns="http://www.w3.org/2000/svg" xmlns:xlink="http://www.w3.org/1999/xlink" x="0px" y="0px"
	 viewBox="0 0 278.6 400.1" style="enable-background:new 0 0 278.6 400.1;" xml:space="preserve">
<style type="text/css">
	.st0{fill-rule:evenodd;clip-rule:evenodd;fill:#1D1D1B;}
</style>
<path class="st0" d="M169.1,4.9L185,20.5c6.9,6.7,7,17.8,0.3,24.7l-34.8,35.6l125.7,110.8c2.1,1.7,3,4.7,1.9,7.4l-68.2,172.6h50.2
	v28.6H74.4v-28.6h121.6l68.4-173.1L146.1,94.1c10.6,31.7,1.7,70.5-24.2,97l0,0l-41.9-41c-7,7-17.6,9.8-27.5,6.3
	c-13.9-4.8-21.2-20-16.4-33.8c1.3-3.7,3.3-7,5.9-9.6L0,72l0,0c27.5-28.2,69.4-37.4,102.5-24.3c0.3,0.1,0.3,0.1,0.3,0.1l41.6-42.6
	C151.1-1.6,162.2-1.8,169.1,4.9L169.1,4.9z"/>
</svg>
