<?xml version="1.0" encoding="utf-8"?>
<!-- Generator: Adobe Illustrator 19.0.0, SVG Export Plug-In . SVG Version: 6.00 Build 0)  -->
<svg version="1.1" id="Слой_3" xmlns="http://www.w3.org/2000/svg" xmlns:xlink="http://www.w3.org/1999/xlink" x="0px" y="0px"
	 viewBox="0 0 317.9 417.4" style="enable-background:new 0 0 317.9 417.4;" xml:space="preserve">
<style type="text/css">
	.st0{fill-rule:evenodd;clip-rule:evenodd;fill:#1D1D1B;}
</style>
<path class="st0" d="M305.3,29.9H164.6v276.6h140.8V29.9z M305.3,364.2H12.5v34.3l5.6,19h17l2.1-13.4l0.7-4.8h4.8h232.3h4.8l0.7,4.8
	l2.1,13.4h17l5.6-19V364.2z M305.3,317.9H12.5v35h292.8V317.9z M120.4,150.8c0-4.7,3.8-8.5,8.5-8.5c4.7,0,8.5,3.8,8.5,8.5v34.9
	c0,4.7-3.8,8.5-8.5,8.5c-4.7,0-8.5-3.8-8.5-8.5V150.8z M180.5,150.8c0-4.7,3.8-8.5,8.5-8.5c4.7,0,8.5,3.8,8.5,8.5v34.9
	c0,4.7-3.8,8.5-8.5,8.5c-4.7,0-8.5-3.8-8.5-8.5V150.8z M141.5,390.2c-4.7,0-8.5-3.8-8.5-8.5c0-4.7,3.8-8.5,8.5-8.5h34.9
	c4.7,0,8.5,3.8,8.5,8.5c0,4.7-3.8,8.5-8.5,8.5H141.5z M141.5,343.8c-4.7,0-8.5-3.8-8.5-8.5c0-4.7,3.8-8.5,8.5-8.5h34.9
	c4.7,0,8.5,3.8,8.5,8.5c0,4.7-3.8,8.5-8.5,8.5H141.5z M317.9,0H0v18.7h317.9V0z M153.3,29.9H12.5v276.6h140.8V29.9z M128.9,150.8
	v34.9V150.8z M189,150.8v34.9V150.8z"/>
</svg>
