<?xml version="1.0" encoding="utf-8"?>
<!-- Generator: Adobe Illustrator 19.0.0, SVG Export Plug-In . SVG Version: 6.00 Build 0)  -->
<svg version="1.1" id="Слой_3" xmlns="http://www.w3.org/2000/svg" xmlns:xlink="http://www.w3.org/1999/xlink" x="0px" y="0px"
	 viewBox="0 0 442 403.2" style="enable-background:new 0 0 442 403.2;" xml:space="preserve">
<style type="text/css">
	.st0{fill-rule:evenodd;clip-rule:evenodd;fill:#1D1D1B;}
</style>
<path class="st0" d="M168.8,188.3c0-3.1,2.5-5.6,5.6-5.6c3.1,0,5.6,2.5,5.6,5.6v91c0.5,1.3,1.3,2.2,2.2,2.9c1.5,1.1,3.3,1.6,4.7,1.6
	c1.7,0,4.4-0.4,6.2-1.7c0.6-0.4,1.1-1,1.2-1.8V34.1h-14.3V74c0,3.1-2.5,5.6-5.6,5.6c-3.1,0-5.6-2.5-5.6-5.6V34.1h-14.7v94.5
	c0,3.1-2.5,5.6-5.6,5.6s-5.6-2.5-5.6-5.6V34.1h-14.7V74c0,3.1-2.5,5.6-5.6,5.6c-3.1,0-5.6-2.5-5.6-5.6V34.1h-14.7v94.5
	c0,3.1-2.5,5.6-5.6,5.6s-5.6-2.5-5.6-5.6V34.1H76.3V74c0,3.1-2.5,5.6-5.6,5.6c-3.1,0-5.6-2.5-5.6-5.6V34.1H50.4v94.5
	c0,3.1-2.5,5.6-5.6,5.6c-3.1,0-5.6-2.5-5.6-5.6V34.1H27.4l-0.1,245.4c0.3,1.3,1,2.3,1.9,2.9c0.1,0,0.2,0.1,0.3,0.1
	c1,0.6,2.1,0.8,3.2,0.9c1.2,0,2.5-0.3,3.6-0.8c1.2-0.6,2.2-1.6,2.8-3v-58.1c0-3.1,2.5-5.6,5.6-5.6c3.1,0,5.6,2.5,5.6,5.6v57.7
	c0.5,1.2,1.4,2.2,2.4,2.8c1.6,1.1,3.5,1.6,5,1.6c1.3,0,3.3-0.7,5.1-2c1-0.7,1.8-1.4,2.2-2.1v-91.2c0-3.1,2.5-5.6,5.6-5.6
	c3.1,0,5.6,2.5,5.6,5.6v90.8c0.6,1.4,1.4,2.4,2.3,3.1c1.4,1,3.1,1.3,4.5,1.3v0c1.5,0,3.7-0.6,5.5-1.9c0.9-0.6,1.8-1.4,2.3-2.2v-58.9
	c0-3.1,2.5-5.6,5.6-5.6s5.6,2.5,5.6,5.6v58.4c0.4,1.5,1.1,2.5,2.1,3.2c1.4,1,3.1,1.4,4.5,1.4c1.6,0,3.7-0.4,5.5-1.5
	c1-0.7,2-1.6,2.7-3v-90.7c0-3.1,2.5-5.6,5.6-5.6c3.1,0,5.6,2.5,5.6,5.6v91c0.4,1.1,1.2,2,2.2,2.7c1.8,1.3,4,1.8,5.6,1.8
	c1.4,0,3-0.4,4.4-1.5c1-0.7,1.9-1.7,2.5-3.1v-58.8c0-3.1,2.5-5.6,5.6-5.6s5.6,2.5,5.6,5.6v58.6c0.5,1.4,1.3,2.4,2.2,3
	c1.4,1,3.1,1.3,4.5,1.3c1.6,0,3.7-0.5,5.5-1.7c1-0.6,1.9-1.5,2.5-2.6V188.3z M15.3,220.7c-9-0.1-15.8,4.6-15.3,12.6
	c0.3,5.6,4.1,10.8,16.1,11.8l0,34.7c0,0.5,0,0.9,0.1,1.4c0.9,4.9,3.6,8.5,7.2,10.7c0.2,0.1,0.3,0.2,0.5,0.3c2.6,1.5,5.7,2.3,8.8,2.4
	c1.9,0,3.7-0.2,5.5-0.8c7.8,24.4,18.3,46.4,41.7,58.9l-8.8,45.9h14.1L99,360c8.5,2.1,18.2,3.4,29.3,3.7H221h92.7
	c11.1-0.2,20.8-1.5,29.3-3.7l13.8,38.7h14.1l-8.8-45.9c38.5-20.6,42-66.7,56.4-107.4h1.2c17,0.3,21.9-5.6,22.3-12
	c0.5-8.1-6.3-12.7-15.3-12.6H355c1-1,1.5-2.4,1.5-3.9c0-25.1,0.2-39.1,0.4-51.1c0.4-20.4,0.6-35.2-0.5-73.9c0-1.6,0-3.7,0-6.3
	c0.2-17.6,0.5-54.3-16.4-72.8C334,6.1,325.5,2,316.4,0.6c-6.5-1-13.3-0.7-19.6,0.9c-6.5,1.7-12.5,4.7-17.3,9.1
	c-5,4.6-8.8,10.7-10.3,18.2c-7.7,1.1-14.6,3.9-20,8c-7.3,5.6-11.9,13.4-12.2,22.1h0l0,0.2c0,3.1,2.5,5.6,5.6,5.6h66
	c0.1,0,0.2,0,0.4,0c3.1-0.1,5.5-2.7,5.4-5.8c-0.3-8.8-4.9-16.6-12.2-22.1c-5.7-4.4-13.1-7.3-21.4-8.2c1.3-3.9,3.5-7.2,6.3-9.8
	c3.4-3.1,7.8-5.3,12.5-6.6c4.8-1.3,10.1-1.5,15-0.7c6.7,1.1,12.9,3.9,17.2,8.7c13.9,15.2,13.6,48.9,13.5,65.1c0,2.7,0,5,0,6.7
	c1.1,38.5,0.8,53.2,0.5,73.4c-0.2,13.2-0.5,28.6-0.5,51.3c0,1.5,0.6,2.9,1.5,3.9H205.6V28.5h0c0-3.1-2.5-5.6-5.6-5.6H21.7
	c-3.1,0-5.6,2.5-5.6,5.6l0,192.2H15.3z"/>
</svg>
