<?xml version="1.0" encoding="utf-8"?>
<!-- Generator: Adobe Illustrator 19.0.0, SVG Export Plug-In . SVG Version: 6.00 Build 0)  -->
<svg version="1.1" id="Слой_3" xmlns="http://www.w3.org/2000/svg" xmlns:xlink="http://www.w3.org/1999/xlink" x="0px" y="0px"
	 viewBox="0 0 449.9 433.5" style="enable-background:new 0 0 449.9 433.5;" xml:space="preserve">
<style type="text/css">
	.st0{fill-rule:evenodd;clip-rule:evenodd;fill:#1D1D1B;}
</style>
<path class="st0" d="M194.9,135.1c2.2-2.2,5.8-2.1,7.9,0.1c2.2,2.2,2.1,5.8-0.1,7.9l-49.1,47.9c-2.2,2.2-5.8,2.1-7.9-0.1
	c-2.2-2.2-2.1-5.8,0.1-7.9L194.9,135.1z M188.9,107.2c2.2-2.2,5.8-2.1,7.9,0.1c2.2,2.2,2.1,5.8-0.1,7.9l-49.1,47.9
	c-2.2,2.2-5.8,2.1-7.9-0.1c-2.2-2.2-2.1-5.8,0.1-7.9L188.9,107.2z M182,80.2c2.2-2.2,5.8-2.1,7.9,0.1c2.2,2.2,2.1,5.8-0.1,7.9
	l-31.5,30.7c-2.2,2.2-5.8,2.1-7.9-0.1c-2.2-2.2-2.1-5.8,0.1-7.9L182,80.2z M289.6,80.2c2.2-2.2,5.8-2.1,7.9,0.1
	c2.2,2.2,2.1,5.8-0.1,7.9l-31.5,30.7c-2.2,2.2-5.8,2.1-7.9-0.1c-2.2-2.2-2.1-5.8,0.1-7.9L289.6,80.2z M296.5,107.2
	c2.2-2.2,5.8-2.1,7.9,0.1c2.2,2.2,2.1,5.8-0.1,7.9l-49.1,47.9c-2.2,2.2-5.8,2.1-7.9-0.1c-2.2-2.2-2.1-5.8,0.1-7.9L296.5,107.2z
	 M302.4,135.1c2.2-2.2,5.8-2.1,7.9,0.1c2.2,2.2,2.1,5.8-0.1,7.9l-49.1,47.9c-2.2,2.2-5.8,2.1-7.9-0.1c-2.2-2.2-2.1-5.8,0.1-7.9
	L302.4,135.1z M297.3,176c2.2-2.2,5.8-2.1,7.9,0.1c2.2,2.2,2.1,5.8-0.1,7.9l-31.5,30.7c-2.2,2.2-5.8,2.1-7.9-0.1
	c-2.2-2.2-2.1-5.8,0.1-7.9L297.3,176z M189.7,176c2.2-2.2,5.8-2.1,7.9,0.1c2.2,2.2,2.1,5.8-0.1,7.9l-31.5,30.7
	c-2.2,2.2-5.8,2.1-7.9-0.1c-2.2-2.2-2.1-5.8,0.1-7.9L189.7,176z M129.9,239.4h88.8V55.5h-88.8V239.4z M319.5,254.3H129.9v170.1
	h-24.8v9.1H78.9v-9.1H54.2h-0.1v9.1H28V11.3H5.6C2.5,11.3,0,8.8,0,5.6C0,2.5,2.5,0,5.6,0h438.6c3.1,0,5.6,2.5,5.6,5.6
	c0,3.1-2.5,5.6-5.6,5.6h-22.9v422.2h-26.1v-9.1h-0.1h-24.7v9.1h-26.1v-9.1h-24.8V254.3z M319.5,55.5h-88.8v183.9h88.8V55.5z
	 M129.9,40.7h189.7V11.3H129.9V40.7z"/>
</svg>
