<?xml version="1.0" encoding="utf-8"?>
<!-- Generator: Adobe Illustrator 19.0.0, SVG Export Plug-In . SVG Version: 6.00 Build 0)  -->
<svg version="1.1" id="Слой_3" xmlns="http://www.w3.org/2000/svg" xmlns:xlink="http://www.w3.org/1999/xlink" x="0px" y="0px"
	 viewBox="0 0 463.6 363.3" style="enable-background:new 0 0 463.6 363.3;" xml:space="preserve">
<style type="text/css">
	.st0{fill-rule:evenodd;clip-rule:evenodd;fill:#1D1D1B;}
</style>
<g>
	<path class="st0" d="M214.8,271.7H72.4l17.7,21.1h107L214.8,271.7z M220.3,163.2H66.8l14,97.2h125.6L220.3,163.2z M0,72.2
		C26,84.7,67.5,99,98.3,121.1C72.1,86.8,55.1,42,53.2,20.2c15.7,19.7,41.2,45.6,59.9,73.9c-8.3-37.2-8.1-75.9-3.1-94.1
		c8.8,27,26.4,65.8,33,102.8c6.6-37,24.2-75.8,33-102.8c5.1,18.6,5.3,58.5-3.6,96.4c18.9-29.2,45.3-55.9,61.4-76.1
		C232.1,42,215,86.8,188.8,121.1c30.9-22.1,72.4-36.4,98.3-48.9c-24.7,43.6-64.7,70.3-107.9,79.8h-72C64.5,142.5,24.9,116.1,0,72.2z
		"/>
	<path class="st0" d="M423.4,340.8H273.5l19,22.5h112L423.4,340.8z M266.3,165.8c-3.8-2.7-9.1-4.3-15-4.3c-5.9,0-11.2,1.7-15,4.3
		c-3.4,2.4-5.5,5.6-5.5,9.1c0,3.4,2.1,6.7,5.5,9.1c3.8,2.7,9.1,4.3,15,4.3c2.5,0,4.9-0.3,7.1-0.9c0.1-1.1,0.4-2.3,0.7-3.5
		c1.5-5.5,4.9-11.1,9.9-15.7C268.2,167.4,267.3,166.6,266.3,165.8z M229.1,206.9c-0.1,0.1-0.2,0.3-0.3,0.4
		c-3.6,4.5-5.6,9.6-5.9,14.2c-0.3,4.2,0.9,7.8,3.6,10c2.7,2.2,6.5,2.5,10.5,1.4c4.4-1.2,9-4.2,12.6-8.7c0.1-0.1,0.2-0.3,0.3-0.4
		c3.6-4.5,5.6-9.6,5.8-14.2c0.3-4.2-0.9-7.8-3.6-10c-2.7-2.2-6.5-2.5-10.5-1.4C237.3,199.4,232.8,202.4,229.1,206.9z M334.9,119.7
		c-2-4.2-5.8-8.2-11-11l0,0c-5.2-2.8-10.6-3.9-15.2-3.4c-4.1,0.5-7.5,2.3-9.2,5.3l0,0c-1.7,3-1.4,6.8,0.5,10.6c2,4.2,5.9,8.2,11,11
		l0,0c5.2,2.8,10.6,3.9,15.2,3.4c4.1-0.5,7.5-2.3,9.2-5.3C337,127.3,336.7,123.5,334.9,119.7z M289.8,166.9
		c-4.6,0.3-9.8,2.4-14.3,6.2l0,0c-1.5,1.3-2.9,2.6-4,4l0,0c-1.3,1.6-2.4,3.3-3.3,5l0,0.1l0,0l0,0.1l-0.1,0.3l0,0
		c-0.5,1.2-1,2.3-1.3,3.5c-1.1,4-0.6,7.8,1.5,10.5c2.2,2.6,5.9,3.8,10,3.5c4.6-0.3,9.8-2.4,14.3-6.2l0,0l0,0
		c4.5-3.8,7.6-8.4,8.8-12.9c1.1-4,0.7-7.7-1.4-10.3c-0.1-0.1-0.1-0.2-0.2-0.2C297.5,167.7,293.9,166.6,289.8,166.9z M338.6,175.3
		c-4.6,2.4-10.2,3.8-16.2,3.8c-4.6,0-8.9-0.8-12.7-2.2c0,1.3,0.2,2.6,0.6,4c1.2,4.5,4.2,9.1,8.8,12.9l0,0c4.5,3.8,9.7,5.9,14.3,6.2
		c4.2,0.3,7.8-0.8,10-3.5c2.2-2.6,2.6-6.5,1.5-10.5C344,182.4,341.8,178.6,338.6,175.3z M375.4,109.4c-4.5-3.8-9.7-5.9-14.3-6.2
		c-4.2-0.3-7.8,0.8-10,3.5c-2.2,2.6-2.6,6.5-1.5,10.5c1.2,4.5,4.2,9.1,8.8,12.9l0,0c2.5,2.1,5.3,3.7,8,4.7c2.8-1.9,5.8-3.3,8.8-4.1
		c3.1-0.9,6.2-1.1,9.1-0.7c0.7-2.2,0.7-4.9,0-7.6C382.9,117.8,379.9,113.2,375.4,109.4L375.4,109.4z M337.5,148.7
		c-3.8-2.7-9.1-4.3-15-4.3v0c-11.3,0-20.5,6-20.5,13.4c0,3.4,2.1,6.7,5.5,9.1c3.8,2.7,9.1,4.3,15,4.3c5.9,0,11.2-1.7,15-4.3
		c3.4-2.4,5.5-5.6,5.5-9.1C342.9,154.3,340.8,151.1,337.5,148.7z M434.6,164.7c-3.8-2.7-9.1-4.3-15-4.3c-5.9,0-11.2,1.7-15,4.3
		c-3.4,2.4-5.5,5.6-5.5,9.1c0,3.4,2.1,6.7,5.5,9.1c3.8,2.7,9.1,4.3,15,4.3c5.9,0,11.2-1.7,15-4.3c3.4-2.4,5.5-5.6,5.5-9.1
		C440.1,170.4,438,167.2,434.6,164.7z M399.1,148.4c0-3.6-0.8-7.1-2.4-10c0.1-0.4,0.2-0.8,0.3-1.2c1.2-4.5,4.2-9.1,8.8-12.9l0,0
		c4.5-3.8,9.7-5.9,14.3-6.2c4.2-0.3,7.8,0.8,10,3.5c2.2,2.6,2.6,6.5,1.5,10.5c-1.2,4.5-4.2,9.1-8.8,12.9c-4.5,3.8-9.7,5.9-14.3,6.2
		C404.8,151.5,401.4,150.5,399.1,148.4z M364.5,147c-0.1,0.1-0.2,0.3-0.3,0.4c-3.6,4.5-5.6,9.6-5.8,14.2c-0.3,4.2,0.9,7.8,3.6,10
		c2.7,2.2,6.5,2.5,10.5,1.4c4.5-1.3,9.1-4.3,12.8-8.9l0,0c3.7-4.6,5.7-9.8,6-14.4c0.3-4.2-0.9-7.8-3.6-10c-2.7-2.2-6.5-2.5-10.5-1.4
		C372.7,139.5,368.2,142.5,364.5,147z M370.1,199.3L370.1,199.3L370.1,199.3c0.3,5.8,2.2,10.9,5.1,14.6c2.6,3.3,5.9,5.2,9.3,5.1
		c3.4-0.2,6.5-2.4,8.8-5.9c2.5-3.8,3.9-9.1,3.6-14.9c0-0.2,0-0.3,0-0.5v0h0c-0.3-5.8-2.2-10.9-5.1-14.6c-2.5-3.2-5.7-5.1-9.1-5.1
		c-0.1,0-0.3,0-0.4,0v0c-3.4,0.2-6.4,2.5-8.6,5.9c-2.5,3.8-3.9,9.1-3.6,14.9C370.1,198.9,370.1,199.1,370.1,199.3z M241,262.8
		c0,0.2,0.1,0.3,0.1,0.5c0.9,5.7,3.3,10.7,6.4,14c2.9,3,6.4,4.6,9.8,4.1c3.4-0.5,6.3-3,8.2-6.7c2.1-4.1,3-9.6,2.1-15.5
		c-0.8-5.8-3.3-10.8-6.5-14.2c-2.8-2.9-6.2-4.5-9.5-4.1c-0.1,0-0.3,0-0.4,0.1c-3.3,0.6-6.1,3.1-8,6.7
		C241.1,251.6,240.2,257,241,262.8z M438.9,192c-2.1,4.1-3,9.6-2.1,15.5c0.9,5.8,3.3,10.8,6.5,14.2c2.9,3,6.4,4.6,9.8,4.1
		c3.4-0.5,6.3-3,8.2-6.7c2.1-4.1,3-9.5,2.2-15.2c0-0.1-0.1-0.3-0.1-0.5c-0.9-5.7-3.3-10.7-6.4-14c-2.9-3-6.4-4.6-9.8-4.1
		C443.7,185.8,440.8,188.3,438.9,192z M268.2,131.7c-0.1,0.1-0.2,0.3-0.3,0.4c-3.6,4.5-5.6,9.6-5.9,14.2c-0.3,4.2,0.9,7.8,3.6,10
		c2.7,2.2,6.5,2.5,10.5,1.4c4.5-1.3,9.1-4.3,12.8-8.9l0,0c3.7-4.6,5.7-9.8,6-14.4c0.3-4.2-0.9-7.8-3.6-10c-2.7-2.2-6.5-2.5-10.5-1.4
		C276.4,124.3,271.9,127.3,268.2,131.7z M301.4,195.4c-0.9,1-1.8,2-2.8,2.9c-0.6,0.5-3.1,2.6-3.8,3.1c-5.3,3.8-11.2,6-16.7,6.4
		c-3.2,0.2-6.3-0.1-9.1-1.1l13.8,122.8H414l15.1-134.1h-25.3c0.2,1.2,0.3,2.2,0.3,2.2c0,7-1,13.6-4.9,19.6c-3.6,5.6-8.9,9.2-15,9.5
		c-6.1,0.3-11.8-2.8-15.9-8.1c-3.8-4.9-6.4-11.7-6.7-19.2v0v0l0-0.2h0v0l0-0.1c-0.1-1.3,0-2.5,0-3.7H352c-0.6,2.2-1.7,4.3-3.2,6.1
		c-3.9,4.7-10,6.8-16.6,6.3c-6.1-0.5-12.8-3.1-18.6-7.9c-0.1-0.1-0.2-0.2-0.3-0.3c-1.6-1.3-3-2.8-4.3-4.3H301.4z M432.4,267.3
		c0.4,0,0.8,0.1,1.3,0c3.4-0.2,6.5-2.4,8.8-5.9c2.5-3.8,3.9-9.1,3.6-14.9c0-0.2,0-0.3,0-0.5v0h0c-0.3-5.8-2.2-10.9-5.1-14.6
		c-1.2-1.6-2.6-2.8-4.1-3.7L432.4,267.3z"/>
</g>
</svg>
