<?xml version="1.0" encoding="utf-8"?>
<!-- Generator: Adobe Illustrator 19.0.0, SVG Export Plug-In . SVG Version: 6.00 Build 0)  -->
<svg version="1.1" id="Слой_3" xmlns="http://www.w3.org/2000/svg" xmlns:xlink="http://www.w3.org/1999/xlink" x="0px" y="0px"
	 viewBox="0 0 351.3 410" style="enable-background:new 0 0 351.3 410;" xml:space="preserve">
<style type="text/css">
	.st0{fill:#1D1D1B;}
</style>
<path class="st0" d="M85,373.6V29.9L11.3,12.7v300.4l0,0.1v43.1L85,373.6z M266.3,385.1v19.2c0,3.1-2.5,5.6-5.6,5.6
	c-3.1,0-5.6-2.5-5.6-5.6v-19.2l-73.7-17.2v19.5c0,3.1-2.5,5.6-5.6,5.6c-3.1,0-5.6-2.5-5.6-5.6v-19.5l-73.7,17.2v19.2
	c0,3.1-2.5,5.6-5.6,5.6c-3.1,0-5.6-2.5-5.6-5.6v-19.2l-73.7-17.2v19.5c0,3.1-2.5,5.6-5.6,5.6c-3.1,0-5.6-2.5-5.6-5.6v-26.6h0V5.6
	C0,2.5,2.5,0,5.6,0c0.5,0,1,0.1,1.5,0.2l83.5,19.5l83.4-19.4c0.3-0.1,0.5-0.1,0.8-0.2h0c0.1,0,0.3,0,0.4,0l0,0h0l0,0l0,0l0,0l0.1,0
	h0l0.1,0l0,0h0h0l0,0l0.1,0h0h0l0,0l0.1,0h0l0.2,0l0,0c0.4,0,0.8,0.1,1.2,0.2l83.4,19.4l83.5-19.5c0.5-0.1,1-0.2,1.5-0.2
	c3.1,0,5.6,2.5,5.6,5.6v355.2h0v26.6c0,3.1-2.5,5.6-5.6,5.6c-3.1,0-5.6-2.5-5.6-5.6v-19.5L266.3,385.1z M255,330.2L255,330.2
	l0-300.3l-73.7-17.2v300.5v43.1l73.7,17.2V330.2z"/>
</svg>
