<?xml version="1.0" encoding="utf-8"?>
<!-- Generator: Adobe Illustrator 19.0.0, SVG Export Plug-In . SVG Version: 6.00 Build 0)  -->
<svg version="1.1" id="Слой_3" xmlns="http://www.w3.org/2000/svg" xmlns:xlink="http://www.w3.org/1999/xlink" x="0px" y="0px"
	 viewBox="0 0 356.9 264.8" style="enable-background:new 0 0 356.9 264.8;" xml:space="preserve">
<style type="text/css">
	.st0{fill-rule:evenodd;clip-rule:evenodd;fill:#1D1D1B;}
</style>
<path class="st0" d="M22.8,250L8,264.8h341L334.1,250H22.8z M342.1,196.3V242l14.9,14.9V8l-14.9,14.9V196.3z M14.9,22.8L0,8v248.9
	L14.9,242v-81.6V22.8z M26.1,166v72.7h304.7v-38.1c-33.3-9.1-81.5-17.4-133.7-23.6c0.2,1.8,0.1,3.5-0.1,5c4.2,1.5,8.8,5.1,9.2,13.3
	c0.6,12-14.3,14.7-21.7,15.3c-2.4,5.2-8,13.1-20,11.6c-7.2-0.9-11.4-3.3-13.9-5.8c-4.2,1.7-10.7,3.1-18.8,1
	c-3.7-0.9-6.4-2.6-8.3-4.8c-6.8,3.7-16.3,5.1-28.7-1.4c-5.4,2.4-10.8,3.5-15.7,3.2c-3.9-0.2-7.5-1.2-10.6-3.1
	c-3.2-1.9-5.8-4.6-7.7-8.2c-1.8-3.5-2.9-7.7-3-12.6c-3.9-3.1-6.6-6.9-8.2-10.8c-1.6-3.9-2-8-1.5-12c0.1-0.5,0.1-0.9,0.2-1.4
	C40.8,166.1,33.4,166,26.1,166z M191.2,164.9c53.9,6.1,104.4,14.6,139.6,24v-69.3h-53.6h-89.9h-41.2c-0.6,2.8-1.5,5.2-2.5,7.2
	c3.7,2.1,7.7,6.1,10.4,13.5c0.5,1.5,0.9,2.9,1.1,4.3c1.1,0.1,2.1,0.2,3.1,0.3c3,0.5,5.9,1.5,8.4,3.1c4.8,2.8,8.3,7.2,9.2,13
	C180.7,160.4,186.2,160.2,191.2,164.9z M126.4,157.1L126.4,157.1L126.4,157.1z M26.1,119.6v35.2c8.8,0,17.8,0.1,27.1,0.3
	c1.5-2.1,3.4-4,5.6-5.7c-5.9-5.7-12.2-15.4-5.6-27.6c0.4-0.8,0.9-1.5,1.3-2.2H26.1z M191.7,108.3h81.1c0.1-0.7,0.2-1.3,0.3-2
	c0.3-2,0.5-4,0.5-6.2c0-11.4-4.6-21.8-12.1-29.2c-7.5-7.5-17.8-12.1-29.2-12.1c-11.4,0-21.8,4.6-29.2,12.1
	c-7.5,7.5-12.1,17.8-12.1,29.2c0,2.1,0.2,4.2,0.5,6.2C191.5,107,191.6,107.6,191.7,108.3z M330.8,26.1H26.1v82.1h44
	c-0.5-7.7,0.3-18.4,7.1-24c5.6-4.7,11-5.7,15.1-5.6c1.5-7.1,5.7-17.5,16.7-17c12,0.5,15.4,16.8,16.3,25.4c7.7,1,20.8,4.9,21.7,20.3
	c0,0.3,0,0.6,0,0.9h33.2l-0.1-0.4c-0.4-2.6-0.6-5.2-0.6-7.8c0-14.5,5.9-27.7,15.4-37.2c9.5-9.5,22.7-15.4,37.2-15.4
	c14.5,0,27.7,5.9,37.2,15.4c9.5,9.5,15.4,22.7,15.4,37.2c0,2.6-0.2,5.2-0.6,7.8l-0.1,0.4h46.5V26.1z M131.1,190.1L131.1,190.1
	L131.1,190.1z M121.6,170L121.6,170l0.1-0.1l0,0l0.1-0.1l0.1,0l0.1,0l0,0l0.1,0h0L121.6,170z M121.4,170.2L121.4,170.2L121.4,170.2
	L121.4,170.2L121.4,170.2L121.4,170.2z M121,170.4L121,170.4L121,170.4L121,170.4l0.1-0.1L121,170.4z M120.6,170.8L120.6,170.8
	L120.6,170.8L120.6,170.8L120.6,170.8l0.1-0.1l0,0l0.1-0.1l0,0l0,0L120.6,170.8z M120.1,171.3L120.1,171.3L120.1,171.3L120.1,171.3z
	 M119.9,171.5L119.9,171.5L119.9,171.5L119.9,171.5L119.9,171.5l0.2-0.2L119.9,171.5z M119.7,171.8L119.7,171.8L119.7,171.8l0.2-0.2
	L119.7,171.8z M119.5,172.1L119.5,172.1L119.5,172.1l0.1-0.1l0,0L119.5,172.1z M119.3,172.4L119.3,172.4l0.1-0.1l0,0l0-0.1
	L119.3,172.4z M119.1,172.6L119.1,172.6L119.1,172.6l0.1-0.1L119.1,172.6z M119,172.9L119,172.9L119,172.9L119,172.9L119,172.9z
	 M118.8,173.2L118.8,173.2L118.8,173.2L118.8,173.2L118.8,173.2L118.8,173.2z M127.8,185.7L127.8,185.7L127.8,185.7L127.8,185.7z
	 M128.5,186.1L128.5,186.1L128.5,186.1L128.5,186.1z M131.1,190.1c0-0.3-0.1-0.5-0.2-0.8L131.1,190.1z M126.4,157.1
	c-0.6,0.1-1.1,0.1-1.7,0.2l0,0l-0.4,0.1l0,0c-1,0.2-2,0.4-3,0.7l-0.1,0l-0.4,0.1l0,0l-0.1,0l-0.3,0.1l-0.2,0
	c-4.7,1.6-9.2,4.6-11.7,10.5l0,0.1l0,0l0,0l0,0v0l0,0l0,0l0,0l0,0l0,0l0,0l0,0l0,0v0l0,0l0,0l0,0l0,0l0,0l0,0l0,0l0,0v0l0,0l0,0l0,0
	l0,0l0,0l0,0l0,0l0,0l0,0l0,0l0,0l0,0l0,0l0,0v0l0,0l0,0v0l0,0c-5.3,12.8,4.9,21.1,10.9,24.8l0,0.1l0,0.1l0,0.1l0,0.1l0,0.1l0,0.1
	l0,0.1l0,0.1l0,0.1l0,0.1l0,0.1l0,0.1l0,0.1l0,0.1l0,0.1h0l0,0.1l0,0.1h0l0,0.1h0l0,0.1l0,0c-0.1,1.8-0.1,3.7,0.1,5.8l0,0v0L119,202
	l0,0l-0.2,0.1c-1.4,0.8-2.9,1.4-4.7,1.7l0,0l-0.3,0.1l0,0l-0.3,0.1c-3,0.5-6.4,0.2-10.5-1.3v0l-0.4-0.2l-0.4-0.2l-0.4-0.2l-0.4-0.2
	l-0.4-0.2l-0.4-0.2l-0.4-0.2l-0.4-0.2l-0.4-0.2l-0.4-0.2l-0.4-0.3c-0.1-0.1-0.3-0.2-0.4-0.3c-1.8-1.1-4-1-5.6,0
	c-4.5,2.3-8.8,3.4-12.5,3.2c-2.1-0.1-3.9-0.6-5.4-1.5c-1.4-0.9-2.6-2.1-3.5-3.8c-1.3-2.4-1.9-5.7-1.7-10c0.1-2.1-1-4.1-2.7-5.1
	c-3.2-2.1-5.2-4.7-6.3-7.3c-0.8-2.1-1.1-4.3-0.8-6.5l0-0.1l0,0l0,0l0,0l0-0.2l0,0l0-0.2l0,0l0,0l0,0l0-0.1l0,0c0.3-2,1.1-4,2.3-5.9
	c1.9-2.8,4.7-5.3,8.2-6.9l0,0l0,0l0,0l0,0l0,0l0,0l0,0l0,0l0,0l0,0l0,0l0.2-0.1l0,0l0,0l0,0l0,0l0,0l0,0l0,0l0,0l0,0l0.1,0l0,0l0,0
	l0,0l0,0l0,0l0,0l0,0l0,0l0,0l0,0l0,0l0,0l0,0l0,0l0,0l0,0l0,0l0,0l0.1,0l0,0l0,0l0,0l0,0c2.9-1.1,4.3-4.4,3.1-7.3
	c-0.5-1.2-1.4-2.2-2.4-2.8l0,0c0,0-14-8-8.5-18c5.3-9.7,10.9-6.2,10.9-6.2l0.1,0.1l0,0l0.1,0.1l0,0l0,0c0.1,0,0.1,0.1,0.2,0.1
	l0.2,0.1l0,0l0.1,0l0.1,0l0.1,0l0,0l0,0l0.2,0.1l0,0l0,0l0.1,0l0.1,0l0,0c0.1,0,0.2,0,0.2,0.1l0,0l0.1,0l0.1,0l0,0
	c0.1,0,0.2,0,0.2,0l0.1,0l0.1,0l0,0l0.1,0c1.2,0.1,2.4-0.2,3.5-0.9l0.1-0.1l0,0l0.1-0.1l0,0l0.1-0.1l0,0l0.1-0.1l0,0l0,0l0.1-0.1
	l0.1-0.1l0,0l0.1-0.1l0,0l0,0l0.1-0.1l0,0l0.1-0.1l0,0l0,0l0.1-0.1l0,0l0.1-0.1l0.1-0.1l0,0l0,0l0.1-0.1l0.1-0.1l0,0l0,0
	c0.1-0.2,0.3-0.4,0.4-0.6c0.8-1.4,1-3,0.6-4.4c-0.2-0.9-0.7-3.3-0.9-6.3l0-0.1c-0.2-2-0.3-4.2-0.2-6.4l0-0.1c0-0.3,0-0.6,0.1-1
	l0-0.1l0-0.1l0-0.2l0-0.1l0-0.2c0-0.2,0.1-0.5,0.1-0.7l0,0l0,0l0.1-0.3l0-0.1l0.1-0.3l0,0v0l0,0l0.1-0.3l0-0.1l0,0l0.1-0.2l0-0.1
	l0-0.2l0.1-0.2l0.1-0.2l0-0.2l0.1-0.2l0-0.1c0-0.1,0.1-0.2,0.1-0.3l0-0.1l0.1-0.2l0-0.1l0.1-0.3l0,0c0-0.1,0.1-0.2,0.1-0.3v0
	c0-0.1,0.1-0.2,0.1-0.3l0.1-0.1l0.1-0.2l0.1-0.1l0.1-0.2l0.1-0.1c0.1-0.1,0.1-0.2,0.2-0.2l0,0c0.1-0.1,0.1-0.1,0.2-0.2l0,0
	c0.1-0.1,0.1-0.2,0.2-0.2c0.1-0.2,0.3-0.3,0.5-0.5l0,0c0.1-0.1,0.2-0.1,0.2-0.2c5.8-4.8,10.2-2.6,10.2-2.6c2.8,1.4,6.2,0.2,7.5-2.6
	c0.4-0.8,0.6-1.7,0.6-2.6c0.1-2,1-12.5,5.9-12.3c5.6,0.2,5.9,19.6,5.9,19.6c0,3.1,2.6,5.6,5.7,5.5l0.1,0v0c0,0,14.9-0.7,15.5,10
	c0.3,5.1-0.3,8.8-1.2,11.5l-0.1,0.2l0,0.1l0,0.1l-0.1,0.3l0,0l-0.1,0.3l0,0c-0.1,0.2-0.1,0.4-0.2,0.6l0,0l0,0.1l-0.1,0.2l-0.1,0.2
	l0,0l-0.1,0.2l-0.1,0.2l0,0.1l0,0.1l-0.1,0.2l0,0l-0.1,0.1l0,0l-0.1,0.1l-0.1,0.1l0,0.1l0,0.1l-0.1,0.1l0,0l-0.1,0.1l0,0.1l0,0
	l-0.1,0.1l0,0l0,0l-0.1,0.1l0,0l-0.1,0.1l-0.2,0.3l0,0l-0.1,0.1l0,0.1l0,0l-0.1,0.1l-0.1,0.1l0,0l-0.1,0.1l0,0l-0.1,0.1l0,0l0,0
	l-0.1,0.1l0,0l-0.1,0.1l0,0.1l-0.1,0.1l0,0l-0.1,0.1l0,0l0,0c-0.1,0.2-0.3,0.3-0.4,0.4l0,0l-0.1,0.1l0,0l0,0l0,0l0,0l0,0l0,0l0,0
	l0,0l0,0l0,0l0,0l0,0l0,0l0,0l0,0l0,0l0,0l0,0l0,0l0,0l0,0c-2.4,1.9-2.8,5.5-0.9,7.9c1.3,1.6,3.2,2.3,5.1,2.1l0,0
	c0,0,4.9-0.7,8.2,8.4l0,0l0,0l0,0l0,0l0,0l0,0l0,0l0,0l0,0l0,0l0,0l0,0h0l0,0h0l0,0l0,0h0l0,0h0l0,0h0l0,0l0,0l0,0h0l0,0
	c0.1,0.6,0.2,1.1,0.3,1.7l0,0v0L126.4,157.1z M144,146.6c-1.7,0.7-3.3,1.6-4.7,2.7l0,0l-0.2,0.1l0,0l-0.2,0.1l0,0l-0.2,0.1l0,0
	l-0.2,0.1l0,0l-0.2,0.2l0,0l-0.2,0.2l0,0l-0.2,0.2v0l-0.2,0.2l0,0l-0.2,0.2l0,0l-0.2,0.2l0,0l-0.2,0.2v0l-0.2,0.2l0,0
	c-0.7,0.7-1.4,1.5-2,2.4l-0.1,0.2v0l-0.1,0.2v0l-0.1,0.2v0l-0.1,0.2v0l-0.1,0.2v0l-0.1,0.2v0l-0.1,0.2l-0.1,0.2l-0.1,0.2l-0.1,0.2
	l-0.1,0.2l-0.1,0.2l-0.1,0.2l-0.1,0.2l-0.1,0.2L133,157l-0.3,0l-0.1,0l0,0l-0.2,0l-0.2,0l0,0l-0.2,0l-0.2,0l0,0l-0.1,0l-0.2,0l0,0h0
	l-0.3,0l0,0h0l-0.3,0l-0.1,0l-0.3,0l-0.1,0l-0.3,0l-0.1,0l-0.3,0h-0.1c-0.7,0-1.3,0-2,0.1l-0.1,0l-0.2,0l-0.2,0l-0.1,0L144,146.6z
	 M175.7,172.5c-2.3,0.3-4.3,0.6-6.5,0.2c-3.1-0.5-5.1-3.5-4.5-6.5c0.3-1.5,0.2-2.9-0.2-4.1l0-0.1l0,0c0-0.1-0.1-0.2-0.1-0.3l0,0l0,0
	l0,0c0-0.1-0.1-0.2-0.1-0.3h0l0-0.1c-0.2-0.4-0.4-0.9-0.7-1.3l0,0l-0.1-0.2l0,0l-0.1-0.1l0,0l-0.1-0.1l0,0l0,0l-0.1-0.1l0,0l0,0l0,0
	c-0.1-0.2-0.3-0.3-0.5-0.5l0,0c-0.2-0.2-0.3-0.3-0.5-0.5l0,0l0,0l-0.1-0.1l0,0l-0.2-0.1l0,0l0,0l-0.1-0.1l-0.1,0l0,0l-0.1-0.1l0,0
	l0,0l-0.1-0.1l-0.1,0l-0.1,0l-0.1-0.1l0,0l-0.1-0.1c-1.3-0.8-2.9-1.3-4.5-1.6l0,0l0,0l0,0l-0.2,0l0,0l0,0l-0.1,0l0,0l0,0l0,0l0,0
	l0,0l-0.1,0l0,0l0,0l-0.1,0l0,0l0,0h0l0,0l0,0l0,0l0,0l0,0l0,0l-0.1,0h0l0,0l-0.2,0l0,0l0,0l0,0l0,0l0,0h0l-0.1,0l0,0l0,0l0,0h0
	l-0.1,0h0l0,0l0,0l0,0l0,0h0l0,0l0,0h0l-0.1,0h0l0,0h0l0,0l-0.1,0h0h0l0,0l-0.2,0h0l-0.3,0h0l0,0l0,0h0l-0.1,0l0,0
	c-0.7,0-1.3,0.1-2,0.2c-4.1,0.7-7.8,3.4-8.8,8.1c0,0.1,0,0.2-0.1,0.3c-0.7,3-3.7,4.9-6.8,4.2c0,0-0.9-0.2-2.2-0.4h0
	c-0.7-0.1-1.4-0.2-2.3-0.2l0,0l-0.2,0c-0.7,0-1.5,0-2.3,0l-0.2,0l0,0l-0.2,0l-0.2,0l-0.2,0c-0.2,0-0.4,0-0.6,0.1l-0.1,0
	c-0.2,0-0.4,0.1-0.6,0.1l-0.1,0c-0.3,0-0.6,0.1-0.9,0.2l-0.2,0.1c-0.3,0.1-0.6,0.2-0.9,0.3l0,0l-0.2,0.1l0,0c-0.1,0-0.3,0.1-0.4,0.1
	l-0.1,0c-0.2,0.1-0.4,0.2-0.6,0.3l0,0l-0.2,0.1l0,0c-0.1,0.1-0.3,0.1-0.4,0.2l-0.1,0l-0.2,0.1l-0.1,0.1l-0.2,0.1l-0.2,0.1l-0.2,0.1
	l-0.1,0l0,0l0,0l0,0l0,0l0,0l0,0l0,0l0,0l0,0l0,0l0,0l0,0l0,0l0,0l0,0l0,0l0,0l-0.1,0.1l-0.1,0.1l-0.1,0.1l-0.1,0.1l0,0l0,0l0,0l0,0
	l0,0l-0.1,0.1l0,0l0,0l0,0l0,0l0,0l0,0l0,0l0,0l0,0c-0.1,0.1-0.1,0.1-0.2,0.2l0,0l-0.1,0.1l0,0l-0.2,0.2v0l0,0l0,0l0,0l0,0l0,0l0,0
	l0,0l0,0l0,0l0,0l0,0l-0.2,0.2l0,0l0,0l0,0l0,0l0,0l0,0l0,0l0,0l0,0l0,0l0,0l0,0l0,0l0,0l0,0l-0.1,0.2l0,0l0,0l0,0l0,0l0,0l0,0l0,0
	l0,0l0,0l0,0l0,0l0,0l-0.1,0.2l0,0l0,0l0,0l0,0l0,0l0,0l0,0l0,0l0,0l0,0l0,0l0,0l0,0l0,0l0,0l-0.1,0.1l0,0l0,0.1v0l0,0l0,0l0,0l0,0
	l0,0.1l0,0l0,0l0,0.1l0,0l0,0l0,0l0,0l-0.1,0.1l0,0l0,0l0,0l0,0l0,0l0,0l0,0l0,0.1l0,0.1l0,0l0,0l0,0l-0.1,0.2l0,0l0,0l0,0l0,0l0,0
	c-2.8,6.7,7,11.3,8.7,12.1c0.1,0,0.2,0.1,0.3,0.1l0.1,0l0.1,0l0.1,0l0.1,0l0,0l0.1,0l0,0l0.1,0l0,0l0,0c0.1,0,0.1,0.1,0.2,0.1l0,0
	l0,0c0.3,0.2,0.7,0.5,1,0.8l0,0l0,0l0,0c0.2,0.2,0.3,0.4,0.5,0.6l0,0l0.1,0.1l0,0c0.1,0.1,0.1,0.1,0.2,0.2l0.1,0.1l0,0.1l0,0l0,0
	l0,0.1l0,0.1l0.1,0.2l0,0.1l0,0.1l0,0l0,0.1l0,0.1l0,0.1l0,0l0,0l0,0.1l0,0.1l0,0l0.1,0.2l0,0.1l0,0l0,0.1l0,0.1l0,0.1
	c0.1,0.3,0.1,0.5,0.2,0.8c0.1,0.7,0.1,1.4-0.1,2.1c0,0-2.4,9.5,1.5,13.1l0,0c0.3,0.3,0.6,0.5,0.9,0.7v0l0,0l0,0l0,0l0.1,0.1l0,0l0,0
	l0,0l0,0l0,0l0,0l0.1,0l0,0l0,0l0.1,0.1l0,0l0,0l0.1,0l0,0l0,0l0.2,0.1l0,0l0,0l0,0l0,0l0.2,0.1l0,0c9.6,2.4,14.4-1.9,14.4-1.9l0,0
	c1-0.9,2.2-1.4,3.6-1.4c3.1-0.1,5.7,2.4,5.8,5.5c0,0-0.1,1.4,7.6,2.4c7.4,0.9,9.2-7.1,9.2-7.1h0c0.6-2.5,2.8-4.4,5.5-4.4
	c0,0,14.6,0.2,14.4-3.7c-0.2-4.1-4.7-3.8-4.7-3.8l0,0c-0.9,0.1-1.9-0.1-2.8-0.6c-2.8-1.4-3.9-4.8-2.5-7.5l0,0l0,0l0,0l0,0l0,0l0,0
	l0,0l0,0l0,0l0,0l0,0l0,0l0,0l0,0l0,0l0-0.1l0-0.1l0,0l0-0.1l0,0l0-0.1l0,0l0,0l0-0.1l0-0.1l0,0l0-0.1l0,0l0.1-0.3l0,0l0-0.1l0,0
	l0-0.1l0-0.1l0-0.1c0-0.1,0.1-0.2,0.1-0.3l0,0l0,0l0-0.1l0,0l0-0.1l0,0l0-0.1l0.1-0.3l0,0l0-0.1l0-0.2l0-0.1l0,0l0-0.1l0,0l0,0
	c0-0.2,0.1-0.4,0.1-0.7l0-0.1l0-0.1l0,0l0-0.1l0-0.1l0-0.1l0-0.1l0-0.2v0v0c0-0.2,0-0.4,0-0.6l0-0.1l0,0l0-0.1c0-0.1,0-0.2,0-0.3
	l0-0.1l0-0.2l0,0l0,0c-0.1-0.3-0.1-0.7-0.2-1l0,0c0-0.1-0.1-0.2-0.1-0.4l0-0.1l-0.1-0.2c-0.1-0.2-0.2-0.4-0.2-0.6
	c-0.3-0.5-0.6-1.1-1-1.6C182.3,171.5,178.6,172,175.7,172.5z M349,0H8l14.9,14.9h311.3L349,0z"/>
</svg>
