<?xml version="1.0" encoding="utf-8"?>
<!-- Generator: Adobe Illustrator 19.0.0, SVG Export Plug-In . SVG Version: 6.00 Build 0)  -->
<svg version="1.1" id="Слой_3" xmlns="http://www.w3.org/2000/svg" xmlns:xlink="http://www.w3.org/1999/xlink" x="0px" y="0px"
	 viewBox="0 0 296.2 409.9" style="enable-background:new 0 0 296.2 409.9;" xml:space="preserve">
<style type="text/css">
	.st0{fill-rule:evenodd;clip-rule:evenodd;fill:#1D1D1B;}
</style>
<path class="st0" d="M169.6,240.9c0-4.7,3.8-8.5,8.5-8.5c4.7,0,8.5,3.8,8.5,8.5v33.5c0,4.7-3.8,8.5-8.5,8.5c-4.7,0-8.5-3.8-8.5-8.5
	V240.9z M109.6,240.9c0-4.7,3.8-8.5,8.5-8.5c4.7,0,8.5,3.8,8.5,8.5v33.5c0,4.7-3.8,8.5-8.5,8.5c-4.7,0-8.5-3.8-8.5-8.5V240.9z
	 M153.7,214.9v144.7h89.6l6.8,50.2h21l6.8-50.6V214.9H153.7z M18.3,214.9v144.4l6.8,50.6h21l6.8-50.2h89.6V214.9H18.3z M18.3,150.5
	h19.2c11.6,12.9,26.5,23.6,45.3,31c17.6,6.9,38.7,10.9,63.9,10.9v0l1.3,0v0c25.2,0,46.3-4,63.9-10.9c18.8-7.4,33.7-18.1,45.3-31
	h20.7v53.2H18.3V150.5z M141,99.5L119.1,76c-2.1-2.3-2-5.8,0.3-7.9c2.3-2.1,5.8-2,7.9,0.3L143,85.1c-1-36.2-2-78.5,24.4-84.4
	c6.1-1.4,11.7-0.8,16.5,1.5l0,0l0,0c4.9,2.4,8.9,6.4,11.4,11.9c1.3,2.8,0.1,6.2-2.8,7.5c-2.8,1.3-6.2,0.1-7.5-2.8
	c-1.4-3-3.5-5.2-6-6.4l0,0c-2.5-1.2-5.7-1.5-9.2-0.7c-17.4,3.9-16.5,41.2-15.6,73.2l15.4-16.5c2.1-2.3,5.7-2.4,7.9-0.3
	c2.3,2.1,2.4,5.7,0.3,7.9L156,99.5H141z M207.8,171c17.8-7,31.7-17.2,42.4-29.5c1-1.4,2.7-2.3,4.5-2.3h24.9c8,0,13.1-3.8,15.3-8.6
	c0.8-1.9,1.3-3.9,1.3-5.9c0-2-0.4-3.9-1.2-5.8c-2.1-4.6-7.1-8.2-15.4-8.2H16.4c-8,0-13,3.7-15.1,8.4C0.4,120.9,0,122.9,0,125
	c0,2,0.4,4,1.2,5.8c2.1,4.7,7.1,8.4,15.1,8.4h24.9v0c1.6,0,3.1,0.7,4.3,1.9c10.7,12.4,24.7,22.8,42.6,29.8
	c16.4,6.4,36.1,10.1,59.8,10.1v0C171.7,181.1,191.5,177.4,207.8,171z"/>
</svg>
