<?xml version="1.0" encoding="utf-8"?>
<!-- Generator: Adobe Illustrator 19.0.0, SVG Export Plug-In . SVG Version: 6.00 Build 0)  -->
<svg version="1.1" id="Слой_3" xmlns="http://www.w3.org/2000/svg" xmlns:xlink="http://www.w3.org/1999/xlink" x="0px" y="0px"
	 viewBox="0 0 463.3 269.9" style="enable-background:new 0 0 463.3 269.9;" xml:space="preserve">
<style type="text/css">
	.st0{fill-rule:evenodd;clip-rule:evenodd;fill:#1D1D1B;}
</style>
<path class="st0" d="M226,0H62.8c-6,0-11.5,2.5-15.5,6.4c-4,4-6.4,9.5-6.4,15.5h0v61c10.7,0.8,19.2,8.6,19.2,18v22.3H226V0z
	 M453.5,94.1h-29.3c-5.4,0-9.8,3-9.8,6.8v22.3h10c4,0,7.6,1.7,10.3,4.4c2.6,2.7,4.2,6.3,4.2,10.3v41.4c0,4-1.6,7.7-4.2,10.3
	c-2.6,2.7-6.3,4.4-10.3,4.4H46.9c-4,0-7.6-1.7-10.3-4.4c-2.6-2.7-4.2-6.3-4.2-10.3v-41.4c0-4,1.6-7.7,4.2-10.3
	c2.6-2.7,6.3-4.4,10.3-4.4h1.9v-22.3h0c0-1.6-0.9-3.2-2.4-4.4c-1.8-1.5-4.4-2.4-7.3-2.4H9.8c-5.4,0-9.8,3-9.8,6.8v146.5
	c0,1.4,0.7,2.8,1.9,3.9c1.5,1.4,3.6,2.4,6,2.7l4.1,0.6l0.6,4.1l1.7,11.1h19.4l1.7-11.1l0.7-4.3l4.3-0.4c2.6-0.3,4.8-1.3,6.3-2.7
	c1.2-1.1,2-2.6,2-4v-6.6v-5.6h5.6h354.4h5.6v5.6v6.6c0,1.5,0.8,2.9,2,4c1.6,1.4,3.8,2.4,6.3,2.7l4.3,0.5l0.7,4.3l1.7,11.1h19.4
	l1.7-11.1l0.6-4.1l4.1-0.6c2.4-0.3,4.6-1.3,6-2.7c1.2-1.1,1.9-2.5,1.9-3.9V100.9h0c0-1.6-0.9-3.2-2.4-4.4
	C459.1,95,456.5,94.1,453.5,94.1z M424.4,134.5H46.9c-0.9,0-1.6,0.4-2.2,0.9c-0.6,0.6-1,1.5-1,2.5v41.4c0,1,0.4,1.8,1,2.5
	c0.6,0.6,1.3,0.9,2.2,0.9h377.5c0.9,0,1.6-0.4,2.2-0.9c0.6-0.6,1-1.5,1-2.5v-41.4c0-1-0.4-1.8-1-2.5
	C426.1,134.8,425.3,134.5,424.4,134.5z M400.5,0H237.3v123.2h165.9v-22.3h0c0-5.2,2.5-9.9,6.6-13.1c3.3-2.7,7.7-4.5,12.6-4.8v-61h0
	c0-6-2.5-11.5-6.4-15.5C412,2.5,406.5,0,400.5,0z"/>
</svg>
