<?xml version="1.0" encoding="utf-8"?>
<!-- Generator: Adobe Illustrator 19.0.0, SVG Export Plug-In . SVG Version: 6.00 Build 0)  -->
<svg version="1.1" id="Слой_3" xmlns="http://www.w3.org/2000/svg" xmlns:xlink="http://www.w3.org/1999/xlink" x="0px" y="0px"
	 viewBox="0 0 414.7 437.4" style="enable-background:new 0 0 414.7 437.4;" xml:space="preserve">
<style type="text/css">
	.st0{fill-rule:evenodd;clip-rule:evenodd;fill:#1D1D1B;}
</style>
<path class="st0" d="M313.4,235.9c-4.7,0-8.5-3.8-8.5-8.5c0-4.7,3.8-8.5,8.5-8.5h34.1c4.7,0,8.5,3.8,8.5,8.5c0,4.7-3.8,8.5-8.5,8.5
	H313.4z M313.4,307.8c-4.7,0-8.5-3.8-8.5-8.5c0-4.7,3.8-8.5,8.5-8.5h34.1c4.7,0,8.5,3.8,8.5,8.5c0,4.7-3.8,8.5-8.5,8.5H313.4z
	 M396.6,269.1H264.1v60.6h132.5V269.1z M313.4,379.7c-4.7,0-8.5-3.8-8.5-8.5c0-4.7,3.8-8.5,8.5-8.5h34.1c4.7,0,8.5,3.8,8.5,8.5
	c0,4.7-3.8,8.5-8.5,8.5H313.4z M396.6,341H264.1v60.6h53.2v35.9h26.1v-35.9h53.2V341z M214.4,35.5c2.4-2,5.9-1.6,7.9,0.8
	c2,2.4,1.6,5.9-0.8,7.9l-57.5,46.7c-2.4,2-5.9,1.6-7.9-0.8c-2-2.4-1.6-5.9,0.8-7.9L214.4,35.5z M248,47.2c2.4-2,5.9-1.6,7.9,0.8
	c2,2.4,1.6,5.9-0.8,7.9l-57.5,46.7c-2.4,2-5.9,1.6-7.9-0.8c-2-2.4-1.6-5.9,0.8-7.9L248,47.2z M265.6,72c2.4-2,5.9-1.6,7.9,0.8
	c2,2.4,1.6,5.9-0.8,7.9l-36.8,29.9c-2.4,2-5.9,1.6-7.9-0.8c-2-2.4-1.6-5.9,0.8-7.9L265.6,72z M179.8,30.6c2.4-2,5.9-1.6,7.9,0.8
	c2,2.4,1.6,5.9-0.8,7.9l-36.8,29.9c-2.4,2-5.9,1.6-7.9-0.8c-2-2.4-1.6-5.9,0.8-7.9L179.8,30.6z M0,158.4h180.5v-19.2h-61.8
	c-3.1,0-5.6-2.5-5.6-5.6V5.6c0-3.1,2.5-5.6,5.6-5.6h177.1c3.1,0,5.6,2.5,5.6,5.6v127.9c0,3.1-2.5,5.6-5.6,5.6h-61.8v19.2h180.5v27.2
	H56.3v251.9H30.2V185.6H0V158.4z M124.4,127.9h165.9V11.3H124.4V127.9z M396.6,197.2H264v60.6h132.6V197.2z"/>
</svg>
