<?xml version="1.0" encoding="utf-8"?>
<!-- Generator: Adobe Illustrator 19.0.0, SVG Export Plug-In . SVG Version: 6.00 Build 0)  -->
<svg version="1.1" id="Слой_3" xmlns="http://www.w3.org/2000/svg" xmlns:xlink="http://www.w3.org/1999/xlink" x="0px" y="0px"
	 viewBox="0 0 380 394.6" style="enable-background:new 0 0 380 394.6;" xml:space="preserve">
<style type="text/css">
	.st0{fill:#1D1D1B;}
</style>
<path class="st0" d="M162.5,198H28.7v35.4h133.8V198z M162.5,151.3H28.7v35.4h133.8V151.3z M162.5,104.6H28.7V140h133.8V104.6z
	 M162.5,58H28.7v35.4h133.8V58z M308.8,168.7c-2.7-2.7-6.4-4.3-10.5-4.3v0c-4.1,0-7.8,1.7-10.5,4.4c-2.7,2.7-4.4,6.4-4.4,10.5h0
	c0,4.1,1.7,7.8,4.3,10.5c2.7,2.7,6.4,4.4,10.5,4.4v0c4.1,0,7.8-1.7,10.5-4.3c2.7-2.7,4.3-6.4,4.3-10.5h0
	C313.2,175.1,311.5,171.4,308.8,168.7z M237.3,168.7c-2.7-2.7-6.4-4.3-10.5-4.3v0c-4.1,0-7.8,1.7-10.5,4.4
	c-2.7,2.7-4.4,6.4-4.4,10.5h0c0,4.1,1.7,7.8,4.3,10.5c2.7,2.7,6.4,4.4,10.5,4.4v0c4.1,0,7.8-1.7,10.5-4.3c2.7-2.7,4.3-6.4,4.3-10.5
	h0C241.7,175.1,240,171.4,237.3,168.7z M162.5,46.7V11.3H28.7v35.4H162.5z M28.7,326.7h133.8v-35.4H28.7V326.7z M173.8,285.7v46.7
	v51h11.9c3.1,0,5.6,2.5,5.6,5.6c0,3.1-2.5,5.6-5.6,5.6h-17.4l-0.1,0l-0.1,0h-17.3c-3.1,0-5.6-2.5-5.6-5.6c0-3.1,2.5-5.6,5.6-5.6
	h11.7V338H28.7v45.3h11.8c3.1,0,5.6,2.5,5.6,5.6c0,3.1-2.5,5.6-5.6,5.6H23.1l-0.1,0l-0.1,0H5.6c-3.1,0-5.6-2.5-5.6-5.6
	c0-3.1,2.5-5.6,5.6-5.6h11.8v-51v0v-46.7v0V239v0v-46.7v0v-46.7v0V99v0V52.3v0V5.6C17.4,2.5,20,0,23.1,0h145.1h188.7
	c3.1,0,5.6,2.5,5.6,5.6v377.7h11.8c3.1,0,5.6,2.5,5.6,5.6c0,3.1-2.5,5.6-5.6,5.6h-34.9c-3.1,0-5.6-2.5-5.6-5.6
	c0-3.1,2.5-5.6,5.6-5.6h11.8V11.3h-47.4c0,0.1,0,0.1,0,0.2v142.2c5,1.1,9.4,3.6,12.9,7c4.7,4.7,7.6,11.2,7.6,18.5h0
	c0,7.2-2.9,13.7-7.7,18.5c-4.7,4.7-11.3,7.7-18.5,7.7v0c-7.2,0-13.8-2.9-18.5-7.6c-4.7-4.7-7.7-11.3-7.7-18.5h0
	c0-7.2,2.9-13.8,7.6-18.5c3.5-3.5,7.9-5.9,12.9-7V11.5l0-0.2h-60.3c0,0.1,0,0.1,0,0.2v142.2c5,1.1,9.4,3.6,12.9,7
	c4.7,4.7,7.6,11.2,7.6,18.5h0c0,7.2-2.9,13.7-7.7,18.5c-4.7,4.7-11.3,7.7-18.5,7.7v0c-7.2,0-13.8-2.9-18.5-7.6
	c-4.7-4.7-7.7-11.3-7.7-18.5h0c0-7.2,2.9-13.8,7.6-18.5c3.5-3.5,7.9-5.9,12.9-7V11.5l0-0.2h-47.4v41v0V99v0v46.7v0v46.7v0V239v0
	V285.7z M28.7,280.1h133.8v-35.4H28.7V280.1z"/>
</svg>
