<?xml version="1.0" encoding="utf-8"?>
<!-- Generator: Adobe Illustrator 19.0.0, SVG Export Plug-In . SVG Version: 6.00 Build 0)  -->
<svg version="1.1" id="Слой_3" xmlns="http://www.w3.org/2000/svg" xmlns:xlink="http://www.w3.org/1999/xlink" x="0px" y="0px"
	 viewBox="0 0 349.9 283.5" style="enable-background:new 0 0 349.9 283.5;" xml:space="preserve">
<style type="text/css">
	.st0{fill-rule:evenodd;clip-rule:evenodd;fill:#1D1D1B;}
</style>
<path class="st0" d="M188.4,72.2c-14.9-14.9-35.4-24.1-58.1-24.1v0c-22.7,0-43.2,9.2-58.1,24.1c-14.9,14.9-24.1,35.4-24.1,58.1h0
	c0,22.7,9.2,43.2,24.1,58.1c14.9,14.9,35.4,24.1,58.1,24.1l0.2,0h0.2l0.2,0h0.2l0.2,0l0.2,0l0.2,0l0.2,0l0.2,0l0.2,0l0.2,0l0.2,0
	l0.2,0l0.2,0l0.2,0l0.2,0l0.2,0l0.2,0l0.2,0l0.2,0l0.2,0l0.2,0l0.2,0l0.2,0l0.2,0l0.2,0l0.2,0l0.2,0l0.2,0l0.2,0l0.2,0l0.2,0l0.2,0
	l0.2,0l0.2,0l0.2,0l0.2,0l0.2,0l0.2,0l0.2,0l0.2,0l0.2,0l0.2,0l0.2,0l0.2,0l0.2,0l0.2,0l0.2,0l0.2,0l0.2,0l0.2,0l0.2,0l0.2,0l0.2,0
	l0.2,0l0.2,0l0.2,0l0.2,0l0.2,0l0.2,0l0.2,0l0.2,0l0.2,0l0.2,0l-6.3-4c-2.6-1.7-3.4-5.1-1.7-7.8c1.1-1.7,2.9-2.6,4.7-2.6v0h40h0
	c1.3-0.9,2.6-1.9,3.8-2.9l-46.8-29.8c-2.6-1.7-3.4-5.1-1.7-7.8c1.1-1.7,2.9-2.6,4.7-2.6v0h71.1h0c2.1-6.9,3.3-14.2,3.5-21.7v0l0-0.4
	v0l0-0.4v0l0-0.4v0l0-0.4l0-0.4l0-0.4h0C212.5,107.6,203.3,87.1,188.4,72.2L188.4,72.2z M349.9,165.6H204.5h-47.4l49.9,31.8H300
	L349.9,165.6z M349.9,208.7H157.1l49.9,31.8H300L349.9,208.7z M349.9,251.7H157.1l49.9,31.8H300L349.9,251.7z M222.4,38.2
	C198.9,14.6,166.3,0,130.3,0C58.4,0,0,58.4,0,130.3c0,72,58.4,130.3,130.3,130.3c6.1,0,12.1-0.4,17.9-1.2l-13.5-8.6
	c-2.6-1.7-3.4-5.1-1.7-7.8c1.1-1.7,2.9-2.6,4.7-2.6v0h48.3l-31.3-20c-7.8,2.1-16,3.2-24.4,3.2c-25.8,0-49.2-10.5-66.1-27.3
	c-16.9-16.9-27.3-40.2-27.3-66.1h0c0-25.8,10.5-49.1,27.4-66.1c16.9-16.9,40.3-27.4,66.1-27.4v0c25.8,0,49.2,10.5,66.1,27.3
	c16.9,16.9,27.4,40.3,27.4,66.1h0c0,8.3-1.1,16.4-3.1,24h37.8c1.5-7.8,2.2-15.8,2.2-24C260.6,94.3,246,61.8,222.4,38.2z"/>
</svg>
