<?xml version="1.0" encoding="utf-8"?>
<!-- Generator: Adobe Illustrator 19.0.0, SVG Export Plug-In . SVG Version: 6.00 Build 0)  -->
<svg version="1.1" id="Слой_3" xmlns="http://www.w3.org/2000/svg" xmlns:xlink="http://www.w3.org/1999/xlink" x="0px" y="0px"
	 viewBox="0 0 437.3 322" style="enable-background:new 0 0 437.3 322;" xml:space="preserve">
<style type="text/css">
	.st0{fill:#1D1D1B;}
</style>
<path class="st0" d="M71.4,277.7c3.5,14.8,17.8,24.4,35.8,29.3c9.5,2.5,19.9,3.8,30.4,3.8c10.5,0,21.1-1.3,30.9-3.7
	c20.2-5,36.6-15.1,40.1-29.3h0l-16.1-34.7c-24-8.4-41-28.4-41-51.7c0-0.2,0-0.4,0-0.7h61c-0.2-0.5-0.3-1.1-0.3-1.7l0-137h-7.8
	L180.2,0h75.2l-24.2,52h-7.8l0,137c0,0.6-0.1,1.1-0.2,1.7h61c0,0.2,0,0.4,0,0.7c0,23.3-16.9,43.3-41,51.7l-15.6,33.5
	c2.8,14.9,19.5,25.4,40.3,30.6c9.8,2.4,20.3,3.7,30.8,3.7c10.5,0,20.9-1.2,30.3-3.8c18.7-5,33.4-15.3,36.1-31.2h-3.3l-15.1-32.4
	c-24.6-8.2-42-28.4-42-52.1c0-0.2,0-0.4,0-0.7h132.6c0,0.2,0,0.4,0,0.7c0,23.7-17.4,43.9-42,52.1l-15.1,32.4h-3.7
	c-2.5,22-20.9,35.7-44.6,42c-10.3,2.8-21.7,4.1-33.2,4.1c-11.5,0-23-1.4-33.5-4c-22.3-5.6-40.7-16.9-46.9-33.4
	c-6.3,16.5-24.7,27.8-47.1,33.4c-10.6,2.6-22.1,4-33.6,4c-11.5,0-22.9-1.3-33.3-4.1c-23-6.2-41.1-19.3-44.4-40.1h-2.7L41,243.1
	c-24-8.4-41-28.4-41-51.7c0-0.2,0-0.4,0-0.7h132.6c0,0.2,0,0.4,0,0.7c0,23.3-16.9,43.3-41,51.7l-16.1,34.7H71.4z"/>
</svg>
