<?xml version="1.0" encoding="utf-8"?>
<!-- Generator: Adobe Illustrator 19.0.0, SVG Export Plug-In . SVG Version: 6.00 Build 0)  -->
<svg version="1.1" id="Слой_3" xmlns="http://www.w3.org/2000/svg" xmlns:xlink="http://www.w3.org/1999/xlink" x="0px" y="0px"
	 viewBox="0 0 334.2 334.2" style="enable-background:new 0 0 334.2 334.2;" xml:space="preserve">
<style type="text/css">
	.st0{fill-rule:evenodd;clip-rule:evenodd;fill:#1D1D1B;}
</style>
<path class="st0" d="M257.4,248c2.6,2.6,2.6,6.7,0,9.3c-2.6,2.6-6.7,2.6-9.3,0l-18.7-18.7c-2.6-2.6-2.6-6.7,0-9.3
	c2.6-2.6,6.7-2.6,9.3,0L257.4,248z M173.7,288.2c0,3.6-2.9,6.6-6.6,6.6c-3.6,0-6.6-2.9-6.6-6.6v-26.5c0-3.6,2.9-6.6,6.6-6.6
	c3.6,0,6.6,2.9,6.6,6.6V288.2z M86.1,257.3c-2.6,2.6-6.7,2.6-9.3,0c-2.6-2.6-2.6-6.7,0-9.3l18.7-18.7c2.6-2.6,6.7-2.6,9.3,0
	c2.6,2.6,2.6,6.7,0,9.3L86.1,257.3z M46,173.6c-3.6,0-6.6-2.9-6.6-6.6c0-3.6,2.9-6.6,6.6-6.6h26.5c3.6,0,6.6,2.9,6.6,6.6
	c0,3.6-2.9,6.6-6.6,6.6H46z M76.8,86c-2.6-2.6-2.6-6.7,0-9.3c2.6-2.6,6.7-2.6,9.3,0l18.7,18.7c2.6,2.6,2.6,6.7,0,9.3
	c-2.6,2.6-6.7,2.6-9.3,0L76.8,86z M160.6,45.9c0-3.6,2.9-6.6,6.6-6.6c3.6,0,6.6,2.9,6.6,6.6v26.5c0,3.6-2.9,6.6-6.6,6.6
	c-3.6,0-6.6-2.9-6.6-6.6V45.9z M248.1,76.7c2.6-2.6,6.7-2.6,9.3,0c2.6,2.6,2.6,6.7,0,9.3l-18.7,18.7c-2.6,2.6-6.7,2.6-9.3,0
	c-2.6-2.6-2.6-6.7,0-9.3L248.1,76.7z M288.3,160.4c3.6,0,6.6,2.9,6.6,6.6c0,3.6-2.9,6.6-6.6,6.6h-26.5c-3.6,0-6.6-2.9-6.6-6.6
	c0-3.6,2.9-6.6,6.6-6.6H288.3z M167.1,29.7c75.9,0,137.4,61.5,137.4,137.4c0,75.9-61.5,137.4-137.4,137.4
	c-75.9,0-137.4-61.5-137.4-137.4C29.7,91.3,91.3,29.7,167.1,29.7z M167.1,0c92.3,0,167.1,74.8,167.1,167.1
	c0,92.3-74.8,167.1-167.1,167.1C74.8,334.2,0,259.4,0,167.1C0,74.8,74.8,0,167.1,0z M169.3,150.6c8.1,1.1,14.4,8,14.4,16.5
	c0,9.2-7.4,16.6-16.6,16.6c-4.4,0-8.4-1.7-11.4-4.5l-48.3,20.8c-3.3,1.4-7.2-0.1-8.6-3.4c-1.4-3.3,0.1-7.2,3.4-8.6l48.2-20.8l0-0.1
	c0-5.2,2.4-9.9,6.2-12.9l-21.8-80.5c-0.9-3.5,1.1-7.1,4.6-8c3.5-0.9,7.1,1.1,8,4.6L169.3,150.6z"/>
</svg>
