<?xml version="1.0" encoding="utf-8"?>
<!-- Generator: Adobe Illustrator 19.0.0, SVG Export Plug-In . SVG Version: 6.00 Build 0)  -->
<svg version="1.1" id="Слой_3" xmlns="http://www.w3.org/2000/svg" xmlns:xlink="http://www.w3.org/1999/xlink" x="0px" y="0px"
	 viewBox="0 0 244.8 413.5" style="enable-background:new 0 0 244.8 413.5;" xml:space="preserve">
<style type="text/css">
	.st0{fill:#1D1D1B;}
</style>
<path class="st0" d="M122.3,388.1c-1.9,0-3.7,0.8-5,2.1c-0.1,0.1-0.1,0.1-0.2,0.2c-1.2,1.3-1.9,3-1.9,4.8c0,2,0.8,3.7,2.1,5l0,0h0
	c1.3,1.3,3,2.1,5,2.1c1.9,0,3.7-0.8,5-2.1l0,0c1.3-1.3,2.1-3.1,2.1-5h0c0-2-0.8-3.7-2-5l0,0C126,388.9,124.2,388.1,122.3,388.1
	L122.3,388.1z M58.7,390.2c-1.3-1.3-3.1-2.1-5-2.1c-1.9,0-3.7,0.8-5,2.1l0,0l0,0c-1.3,1.3-2,3-2,5h0c0,1.9,0.8,3.7,2.1,5l0,0
	c1.3,1.3,3.1,2.1,5,2.1c1.9,0,3.7-0.8,5-2.1s2.1-3.1,2.1-5c0-1.8-0.7-3.5-1.9-4.8C58.8,390.3,58.7,390.3,58.7,390.2z M217.9,251
	c0,1-0.3,1.9-0.7,2.7c0,6.3-2.3,12.1-6.1,16.4c-3.9,4.5-9.4,7.2-15.5,7.2v0h-56.4v74l0.2,0.1l56.8,25.9c0.5,0.2,0.9,0.5,1.3,0.9
	c2.2,0.9,4.1,2.3,5.8,3.9l0,0l0,0c3.3,3.3,5.4,7.9,5.4,12.9c0,5.1-2,9.7-5.4,13c-3.3,3.3-7.9,5.4-13,5.4c-4.9,0-9.3-1.9-12.6-5
	c-0.1-0.1-0.3-0.2-0.4-0.3c-3.3-3.3-5.4-7.9-5.4-13h0c0-4.9,1.9-9.3,5-12.6c0.1-0.1,0.2-0.3,0.3-0.4c0.2-0.2,0.5-0.5,0.7-0.7
	l-49.9-22.8c-0.2-0.1-0.4-0.2-0.6-0.3l0.1,19.3c2.8,0.9,5.3,2.5,7.4,4.5l0,0l0,0l0,0c3.3,3.3,5.4,7.9,5.4,12.9h0c0,5.1-2,9.7-5.4,13
	l0,0l0,0c-3.3,3.3-7.9,5.4-12.9,5.4c-5.1,0-9.6-2-12.9-5.3l0,0l0,0l0,0c-3.3-3.3-5.4-7.9-5.4-12.9c0-4.9,1.9-9.3,5-12.6
	c0.1-0.1,0.2-0.3,0.3-0.4c2-2,4.5-3.6,7.3-4.5l-0.1-19.6c-0.3,0.2-0.5,0.3-0.8,0.5l-49.8,22.9c0.3,0.2,0.5,0.5,0.7,0.7
	c0.1,0.1,0.2,0.2,0.3,0.4c3.1,3.3,5,7.7,5,12.6c0,5.1-2,9.7-5.4,13c-3.3,3.3-7.9,5.4-13,5.4c-5.1,0-9.6-2-12.9-5.4l0,0l0,0
	c-3.3-3.3-5.4-7.9-5.4-13h0c0-5,2.1-9.6,5.4-13l0,0c1.6-1.6,3.6-3,5.8-3.9c0.4-0.3,0.8-0.6,1.3-0.9l57.2-26.3l0.3-0.1v-73.6H49.2v0
	c-11.8,0-21.5-10.6-21.5-23.6c-0.5-0.8-0.7-1.7-0.7-2.7v-68H5.6c-3.1,0-5.6-2.5-5.6-5.6c0-3.1,2.5-5.6,5.6-5.6h26.9
	c3.1,0,5.6,2.5,5.6,5.6v50.2c3.2-2.1,7-3.3,11-3.3v0h50.3v-25.1H88.7c-11.2,0-22.8-4.9-31.4-12.9c-8.2-7.6-13.7-17.9-13.7-29.2h0
	c0-41.2,0-79.4,9.4-107.8c9.8-30,29.5-49,68.7-49.2v0l0,0c39.2,0.2,58.8,19.2,68.7,49.2c9.3,28.4,9.4,66.6,9.4,107.8h0
	c0,11.4-5.5,21.7-13.7,29.2c-8.5,7.9-20.1,12.9-31.4,12.9h-9.7v25.1h50.6v0c4,0,7.8,1.2,11,3.3v-50.2c0-3.1,2.5-5.6,5.6-5.6h26.9
	c3.1,0,5.6,2.5,5.6,5.6c0,3.1-2.5,5.6-5.6,5.6h-21.3V251z M190.5,388.1c-1.9,0-3.7,0.8-5,2.1c-0.1,0.1-0.2,0.1-0.2,0.2
	c-1.1,1.2-1.8,2.9-1.8,4.8h0c0,1.9,0.8,3.7,2.1,5c0.1,0.1,0.1,0.1,0.2,0.2c1.3,1.2,3,1.9,4.8,1.9c1.9,0,3.7-0.8,5-2.1s2.1-3.1,2.1-5
	c0-1.9-0.8-3.7-2.1-5l0,0C194.2,388.9,192.4,388.1,190.5,388.1z"/>
</svg>
