<?xml version="1.0" encoding="utf-8"?>
<!-- Generator: Adobe Illustrator 19.0.0, SVG Export Plug-In . SVG Version: 6.00 Build 0)  -->
<svg version="1.1" id="Слой_3" xmlns="http://www.w3.org/2000/svg" xmlns:xlink="http://www.w3.org/1999/xlink" x="0px" y="0px"
	 viewBox="0 0 383.4 387.2" style="enable-background:new 0 0 383.4 387.2;" xml:space="preserve">
<style type="text/css">
	.st0{fill-rule:evenodd;clip-rule:evenodd;fill:#1D1D1B;}
</style>
<path class="st0" d="M85.8,108.7C102.3,67,115.4,26,117.1,0h-48c-0.4,25.6-7.9,68-17.8,111.3c-11.9,51.8-27.4,105.2-38.6,132.9
	l5.5,2.2C33.7,224.3,63,166.1,85.8,108.7L85.8,108.7z M2.2,240c11-27.1,26.3-79.9,38.1-131.2C50.1,66.1,57.5,24.6,57.9,0H0
	l0.1,239.1L2.2,240z M8.5,254.7l-5.4-2.2l0,0l-3.1-1.2l0,128.9h8.4V254.7z M19.8,259.2v121h7.3v-118L19.8,259.2z M363.5,259.2v121
	h-7.3v-118L363.5,259.2z M374.8,380.2V254.7l6.3-2.5l2.2-0.9l0,128.9H374.8z M354.5,250.7l-3.8,1.5l-0.7-0.8l0,0l0,0l-0.1-0.1
	c-13.4-14.3-27.3-29.4-40.8-45.3l-0.3-0.4l-1.1-1.3l-0.4-0.4l-1.2-1.4l-0.2-0.3l-1.3-1.5l-0.2-0.2l-1.3-1.6l-0.1-0.1l-1.2-1.4
	l-0.6-0.7l-0.8-0.9l-0.7-0.8l-0.8-1l-1-1.2l-0.3-0.3l-1-1.2l-0.8-0.9l-0.4-0.6l-1-1.3l-0.4-0.5l-1.1-1.3l0,0l-1.2-1.5l-0.2-0.3
	l-0.4-0.4l-1.1-1.3l-1.4-1.7l-0.1-0.1l-0.5-0.6c-0.7-0.9-1.3-1.7-2-2.6l-0.4-0.5l-0.1-0.1l-0.2-0.2l-1.3-1.6l0,0l-1.3-1.6l-0.1-0.1
	l-0.9-1.2l-0.5-0.6l-0.8-1.1l-0.7-0.9l-0.5-0.6l-1-1.4l-0.4-0.5l-0.9-1.2l-0.6-0.8l-0.8-1.1l-0.7-0.9l-0.7-1l-0.7-1l-0.6-0.8
	l-0.9-1.2l-0.5-0.6l-1-1.4l-0.4-0.5l-0.9-1.2l-0.8-1.1l-0.5-0.7l-0.8-1.2l-0.6-0.9l-0.9-1.2l-0.5-0.7l-0.8-1.1l-0.6-0.9l-0.9-1.3
	l-0.4-0.6l-0.7-1l-0.8-1.1l0,0c-0.4-0.6-0.8-1.2-1.2-1.8l-0.1-0.1c-0.4-0.6-0.9-1.3-1.3-1.9c-27.7-41.7-50.1-88.1-59.6-140H255
	c1.7,27.4,15.1,69.9,32.2,112.9C309.5,169,338.1,226.3,354.5,250.7z M369.6,244.7l-4.4,1.8c-15.6-22.2-44.8-80.4-67.6-137.7
	C281,67,268,26,266.2,0h48c0.4,25.4,8,67.3,18,110.2c12.2,52,28,105.8,39.3,133.6L369.6,244.7z M383.3,239.1l-1.3,0.5
	c-11.1-27.2-26.7-80.4-38.8-131.9C333.3,65.4,325.9,24.4,325.5,0h57.9L383.3,239.1z M316.7,231.9v149.2c2.1,0.8,3.7,1.9,5.4,3.2
	c1.8,1.4,3.9,2.9,8.9,2.9v0c4.1,0,5.5-1.2,6.8-2.4c2-1.8,3.9-3.4,7.3-4.2V262.7c-5.7-6-11.7-12.5-18.2-19.6
	C323.4,239.4,320,235.6,316.7,231.9z M276.9,184.7v196.4c2.1,0.8,3.7,1.9,5.4,3.2c1.8,1.4,3.9,2.9,8.9,2.9c4.1,0,5.5-1.2,6.8-2.4
	l0,0l0,0c2-1.8,3.9-3.5,7.5-4.3V219.1c-6.4-7.3-12.7-14.8-18.9-22.4C283.3,192.7,280.1,188.7,276.9,184.7z M237.2,127.5v253.7
	c2.1,0.8,3.7,1.9,5.4,3.2c1.8,1.4,3.9,2.9,8.9,2.9c4.1,0,5.5-1.2,6.8-2.4l0,0l0,0c2-1.8,3.9-3.5,7.5-4.3V169.9
	c-6.9-9.3-13.6-18.9-20-28.8C242.8,136.6,239.9,132,237.2,127.5z M197.4,40.8v340.4c2.1,0.8,3.7,1.9,5.4,3.2
	c1.8,1.4,3.9,2.9,8.9,2.9v0c4.1,0,5.5-1.2,6.8-2.4l0,0l0,0c2-1.8,3.9-3.5,7.5-4.3V107.8c-9.1-16.9-17.2-34.6-23.8-53.2
	C200.4,50,198.9,45.4,197.4,40.8z M157.6,108.6v272.5c2.1,0.8,3.7,1.9,5.4,3.2c1.8,1.4,3.9,2.9,8.9,2.9v0c4.1,0,5.5-1.2,6.8-2.4
	c0.1-0.1,0.2-0.2,0.3-0.3c1.9-1.7,3.8-3.3,7.1-4V43c-1.4,4.4-2.9,8.7-4.5,13C175,74.2,166.8,91.8,157.6,108.6z M117.9,170.1v211
	c2.1,0.8,3.7,1.9,5.4,3.2c1.8,1.4,3.9,2.9,8.9,2.9v0c4.1,0,5.5-1.2,6.8-2.4l0,0l0,0c2-1.8,3.9-3.5,7.5-4.3V128.1
	c-2.8,4.6-5.6,9.1-8.6,13.5C131.5,151.2,124.8,160.7,117.9,170.1z M78.1,219.1v162.1c2.1,0.8,3.7,1.9,5.4,3.2
	c1.8,1.4,3.9,2.9,8.9,2.9c4.1,0,5.5-1.2,6.8-2.4c2-1.8,3.9-3.5,7.5-4.3V184.8c-3.2,4.1-6.4,8.1-9.6,12
	C91,204.2,84.6,211.6,78.1,219.1z M38.4,381.1c2.1,0.8,3.7,1.9,5.3,3.2c1.8,1.4,3.9,2.9,8.9,2.9c4.1,0,5.5-1.2,6.8-2.4
	c0.1-0.1,0.2-0.2,0.3-0.3c1.9-1.7,3.8-3.3,7.1-4V231.8c-3.5,3.8-6.9,7.6-10.2,11.3c-6.1,6.6-12.2,13.1-18.2,19.6V381.1z M128.4,0
	c-1.7,27.4-15.1,69.9-32.2,112.8c-22.3,56.2-51,113.5-67.4,137.9l3.9,1.6C63.9,219,97.4,181.8,125.4,140c27.9-41.7,50.5-88.1,60-140
	H128.4z"/>
</svg>
