<?xml version="1.0" encoding="utf-8"?>
<!-- Generator: Adobe Illustrator 19.0.0, SVG Export Plug-In . SVG Version: 6.00 Build 0)  -->
<svg version="1.1" id="Слой_3" xmlns="http://www.w3.org/2000/svg" xmlns:xlink="http://www.w3.org/1999/xlink" x="0px" y="0px"
	 viewBox="0 0 222.7 281.1" style="enable-background:new 0 0 222.7 281.1;" xml:space="preserve">
<style type="text/css">
	.st0{fill-rule:evenodd;clip-rule:evenodd;fill:#1D1D1B;}
</style>
<path class="st0" d="M137.8,108.2l-26.5-30.8l-26.5,30.8l26.5,31.8L137.8,108.2z M85.5,188.7l25.9,30.1l25.9-30.1l-25.9-31.1
	L85.5,188.7z M165.7,155.5c2-2.4,5.6-2.6,7.9-0.6c2.4,2,2.6,5.6,0.6,7.9l-22.3,26l15.7,18.9c2,2.4,1.7,5.9-0.7,7.9
	c-2.4,2-5.9,1.7-7.9-0.7l-14.5-17.4l-25.8,30l12.4,14.4c2,2.4,1.7,5.9-0.6,7.9c-2.4,2-5.9,1.7-7.9-0.6l-11.3-13.1l-11.3,13.1
	c-2,2.4-5.6,2.6-7.9,0.6c-2.4-2-2.6-5.6-0.6-7.9l12.4-14.4l-25.8-30l-14.5,17.4c-2,2.4-5.5,2.7-7.9,0.7c-2.4-2-2.7-5.5-0.7-7.9
	l15.7-18.9l-22.3-26c-2-2.4-1.7-5.9,0.6-7.9c2.4-2,5.9-1.7,7.9,0.6L78,180.1l26-31.3l-26.6-32l-23,26.8c-2,2.4-5.6,2.6-7.9,0.6
	c-2.4-2-2.6-5.6-0.6-7.9L70.2,108L55,89.8c-2-2.4-1.7-5.9,0.7-7.9c2.4-2,5.9-1.7,7.9,0.7l13.9,16.7l26.3-30.7l-5.8-6.8
	c-2-2.4-1.7-5.9,0.6-7.9c2.4-2,5.9-1.7,7.9,0.6l4.7,5.5l4.7-5.5c2-2.4,5.6-2.6,7.9-0.6c2.4,2,2.6,5.6,0.6,7.9l-5.8,6.8l26.3,30.7
	L159,82.7c2-2.4,5.5-2.7,7.9-0.7c2.4,2,2.7,5.5,0.7,7.9L152.5,108l24.3,28.3c2,2.4,1.7,5.9-0.6,7.9c-2.4,2-5.9,1.7-7.9-0.6l-23-26.8
	l-26.6,32l26,31.3L165.7,155.5z M30,281.1h162.6l25.7-254.2H4.3L30,281.1z M219,0H3.6L0,15.6h222.7L219,0z"/>
</svg>
