<?xml version="1.0" encoding="utf-8"?>
<!-- Generator: Adobe Illustrator 19.0.0, SVG Export Plug-In . SVG Version: 6.00 Build 0)  -->
<svg version="1.1" id="Слой_3" xmlns="http://www.w3.org/2000/svg" xmlns:xlink="http://www.w3.org/1999/xlink" x="0px" y="0px"
	 viewBox="0 0 378 428.4" style="enable-background:new 0 0 378 428.4;" xml:space="preserve">
<style type="text/css">
	.st0{fill:#1D1D1B;}
</style>
<path class="st0" d="M159.9,36.1H24.2v225.5h135.7V36.1z M137.3,126.1c2.4-2,5.9-1.7,7.9,0.7c2,2.4,1.7,5.9-0.7,7.9l-87,72.4
	c-2.4,2-5.9,1.7-7.9-0.7c-2-2.4-1.7-5.9,0.7-7.9L137.3,126.1z M128.1,187.9c2.4-2,5.9-1.7,7.9,0.7c2,2.4,1.7,5.9-0.7,7.9l-55.8,46.4
	c-2.4,2-5.9,1.7-7.9-0.7c-2-2.4-1.7-5.9,0.7-7.9L128.1,187.9z M105,49.9c2.4-2,5.9-1.7,7.9,0.7c2,2.4,1.7,5.9-0.7,7.9l-62.1,52.2
	c-2.4,2-5.9,1.7-7.9-0.7c-2-2.4-1.7-5.9,0.7-7.9L105,49.9z M126.7,83.9c2.4-2,5.9-1.7,7.9,0.7c2,2.4,1.7,5.9-0.7,7.9l-87,72.4
	c-2.4,2-5.9,1.7-7.9-0.7c-2-2.4-1.7-5.9,0.7-7.9L126.7,83.9z M346.4,49.5h-12.5h0V83h0h12.5v-0.5h0V49.5z M209.2,82.4h12.5V49h-12.5
	V82.4z M284,49h-12.5v33.4H284C284,71.3,284,60.1,284,49z M121.7,333.7c4.7,0,8.5-3.8,8.5-8.5c0-4.7-3.8-8.5-8.5-8.5H72.9
	c-4.7,0-8.5,3.8-8.5,8.5c0,4.7,3.8,8.5,8.5,8.5H121.7z M183.4,398.6H47.5l-3.6,29.8H15l-3.8-29.8v-1.1v-90.7h172.1V398.6z
	 M256.3,333.7c-4.7,0-8.5-3.8-8.5-8.5c0-4.7,3.8-8.5,8.5-8.5h48.9c4.7,0,8.5,3.8,8.5,8.5c0,4.7-3.8,8.5-8.5,8.5H256.3z M194.6,398.6
	h135.9l3.6,29.8H363l3.8-29.8v-1.1v-90.7H194.6V398.6z M171.2,36.1v231.1c0,3.1-2.5,5.6-5.6,5.6h-147c-3.1,0-5.6-2.5-5.6-5.6V36.1
	H5.6v0c-3.1,0-5.6-2.5-5.6-5.6V6.1C0,6,0,5.8,0,5.6C0,2.5,2.5,0,5.6,0h366.7v0c3.1,0,5.6,2.5,5.6,5.6V30c0,0.2,0,0.3,0,0.5
	c0,3.1-2.5,5.6-5.6,5.6h-12.9V49h0v33.4h0v190.4H321V36.1h-24c0,78.7,0,157.8,0,236.8h-38.5V36.1h-24v236.8h-38.5
	c0-78.9,0-157.9,0-236.8H171.2z"/>
</svg>
