<?xml version="1.0" encoding="utf-8"?>
<!-- Generator: Adobe Illustrator 19.0.0, SVG Export Plug-In . SVG Version: 6.00 Build 0)  -->
<svg version="1.1" id="Слой_3" xmlns="http://www.w3.org/2000/svg" xmlns:xlink="http://www.w3.org/1999/xlink" x="0px" y="0px"
	 viewBox="0 0 344.5 326" style="enable-background:new 0 0 344.5 326;" xml:space="preserve">
<style type="text/css">
	.st0{fill-rule:evenodd;clip-rule:evenodd;fill:#1D1D1B;}
</style>
<path class="st0" d="M86.1,0h172.2c23.9,0,43.4,18.3,43.4,40.7v72.6h-3.1c-6.2,0-11.9,2.1-16,5.4c-4.5,3.6-7.3,8.8-7.3,14.5v36.3
	c-1.9-0.6-3.9-0.9-6-0.9v0H76.2v0c-2.5,0-4.8,0.5-7,1.3v-36.6c0-5.7-2.8-10.8-7.3-14.5c-4.2-3.4-9.8-5.4-16-5.4h-3.1V40.7
	C42.7,18.3,62.3,0,86.1,0L86.1,0z M57.9,175.2L57.9,175.2l0-42c0-2.1-1.2-4.2-3.1-5.7c-2.2-1.8-5.4-2.9-9-2.9H12.1
	c-3.6,0-6.7,1.1-9,2.9C1.2,129,0,131.1,0,133.2v168.6c0,2.1,1.2,4.2,3.1,5.7c1.8,1.5,4.2,2.5,6.9,2.8l4.9,15.8h25.8l4.9-15.6h0.1
	c8.5,0,10.7-8.8,16.3-8.8h220.3v0c5.7,0,7.8,8.7,16.3,8.7h0.1l4.9,15.6h25.8l4.9-15.8c2.7-0.3,5.1-1.4,6.9-2.8
	c1.9-1.5,3.1-3.6,3.1-5.7V133.2c0-2.1-1.2-4.2-3.1-5.7c-2.2-1.8-5.4-2.9-9-2.9h-33.7c-3.6,0-6.7,1.1-9,2.9c-1.9,1.5-3.1,3.6-3.1,5.7
	v42h-0.1v54.5c-0.1,8.6-3.8,16.8-16.3,17.7c-0.9,0.1-1.9,0-2.8,0H82.8c-3.6,0-7.3,0.2-10.8-0.1c-10.6-0.9-14.1-6.6-14.1-17.1V175.2z
	 M269.4,179.8L269.4,179.8l-193.3,0v0c-2.2,0-4.2,0.8-5.7,2.1c-1.3,1.2-2.1,2.8-2.1,4.6v42.9c0,1.8,0.8,3.4,2.1,4.6
	c1.4,1.3,3.4,2.1,5.7,2.1h193.3v0c4.3,0,7.8-3.1,7.8-6.8v-42.9c0-1.8-0.8-3.4-2.1-4.6C273.7,180.6,271.7,179.8,269.4,179.8z"/>
</svg>
