<?xml version="1.0" encoding="utf-8"?>
<!-- Generator: Adobe Illustrator 19.0.0, SVG Export Plug-In . SVG Version: 6.00 Build 0)  -->
<svg version="1.1" id="Слой_3" xmlns="http://www.w3.org/2000/svg" xmlns:xlink="http://www.w3.org/1999/xlink" x="0px" y="0px"
	 viewBox="0 0 304.3 418.1" style="enable-background:new 0 0 304.3 418.1;" xml:space="preserve">
<style type="text/css">
	.st0{fill-rule:evenodd;clip-rule:evenodd;fill:#1D1D1B;}
</style>
<path class="st0" d="M157.7,270.6h113l2.8,147.5h16.8c1.3-66.8,2.8-133.5,2.8-200.3H157.7V270.6z M14,418.1h16.8l2.8-147.5h112.8
	v-52.8H11.1C11.1,284.7,12.7,351.3,14,418.1z M304.3,191.4H0v15.2h304.3V191.4z M192.7,80.1c2.5-1.8,6-1.2,7.8,1.3
	c1.8,2.5,1.2,6-1.3,7.8l-78.1,55.5c-2.5,1.8-6,1.2-7.8-1.3c-1.8-2.5-1.2-6,1.3-7.8L192.7,80.1z M183.2,47.8c2.5-1.8,6-1.2,7.8,1.3
	c1.8,2.5,1.2,6-1.3,7.8l-78.1,55.5c-2.5,1.8-6,1.2-7.8-1.3c-1.8-2.5-1.2-6,1.3-7.8L183.2,47.8z M163.7,21.7c2.5-1.8,6-1.2,7.9,1.3
	c1.8,2.5,1.2,6-1.3,7.9l-55.7,40c-2.5,1.8-6,1.2-7.9-1.3c-1.8-2.5-1.2-6,1.3-7.9L163.7,21.7z M184.4,124.6c2.5-1.8,6-1.2,7.8,1.3
	c1.8,2.5,1.2,6-1.3,7.8l-35.8,25.4c-2.5,1.8-6,1.2-7.8-1.3c-1.8-2.5-1.2-6,1.3-7.8L184.4,124.6z M206.5,251.9
	c-4.7,0-8.4-3.8-8.4-8.4c0-4.7,3.8-8.4,8.4-8.4l32.3,0c4.7,0,8.4,3.8,8.4,8.4c0,4.7-3.8,8.4-8.4,8.4L206.5,251.9z M65.5,251.9
	c-4.7,0-8.4-3.8-8.4-8.4c0-4.7,3.8-8.4,8.4-8.4l32.3,0c4.7,0,8.4,3.8,8.4,8.4c0,4.7-3.8,8.4-8.4,8.4L65.5,251.9z M79.7,0h144.9
	c3.1,0,5.6,2.5,5.6,5.6v174.5h-11.3V11.3H85.3v168.9H74.1V5.6C74.1,2.5,76.6,0,79.7,0z M95.4,418.1h16.8l2.8-78.9h74.2l2.8,78.9
	h16.8l2.8-78.9h7.2v-25.7H85.4v25.7h7.2L95.4,418.1z"/>
</svg>
