<?xml version="1.0" encoding="utf-8"?>
<!-- Generator: Adobe Illustrator 19.0.0, SVG Export Plug-In . SVG Version: 6.00 Build 0)  -->
<svg version="1.1" id="Слой_3" xmlns="http://www.w3.org/2000/svg" xmlns:xlink="http://www.w3.org/1999/xlink" x="0px" y="0px"
	 viewBox="0 0 336.1 402.1" style="enable-background:new 0 0 336.1 402.1;" xml:space="preserve">
<style type="text/css">
	.st0{fill-rule:evenodd;clip-rule:evenodd;fill:#1D1D1B;}
</style>
<path class="st0" d="M88,334.3h211.9v28.3h-233v-28.3H88z M299.9,294.8H93.6v28.3h206.3V294.8z M299.9,215.7H182.2V244h117.7V215.7z
	 M299.9,176.2h-80.2v28.3h80.2V176.2z M299.9,97.1h-16v28.3h16V97.1z M336.1,2.4h-24.9v399.7h24.9V2.4z M299.9,373.9H42.9V250.2
	L137,148c0.1,45.1,0.4,90.4,0.4,135.5h162.5v-28.3H148.4l-0.2-119.4L255.9,19.2c0,48.6,0,97.1,0,145.7h44.1v-28.3h-21.7l-0.1,0h-11
	V5.7c0-3-2.4-5.5-5.4-5.6c-1.8-0.3-3.8,0.3-5.1,1.7L1.5,278.4c-2.1,2.3-2,5.8,0.3,7.9c2.3,2.1,5.8,2,7.9-0.3l21.8-23.7
	c0,48.7,0.3,95.6,0.3,139.8c89.3,0,178.7,0,268,0V373.9z"/>
</svg>
