<?xml version="1.0" encoding="utf-8"?>
<!-- Generator: Adobe Illustrator 19.0.0, SVG Export Plug-In . SVG Version: 6.00 Build 0)  -->
<svg version="1.1" id="Слой_3" xmlns="http://www.w3.org/2000/svg" xmlns:xlink="http://www.w3.org/1999/xlink" x="0px" y="0px"
	 viewBox="0 0 292.6 343" style="enable-background:new 0 0 292.6 343;" xml:space="preserve">
<style type="text/css">
	.st0{fill-rule:evenodd;clip-rule:evenodd;fill:#1D1D1B;}
</style>
<path class="st0" d="M268.4,21.7H287c3.1,0,5.6,2.5,5.6,5.6c0,3.1-2.5,5.6-5.6,5.6h-18.6v-5.6v-0.1V21.7z M138.8,33
	c-3.1,0-5.6-2.5-5.6-5.6c0-3.1,2.5-5.6,5.6-5.6h18.6v5.1v0.5V33H138.8z M257.2,0h-88.6v21.7v5.2v0.5V33v21.7h88.6V33v-5.6v-0.1v-5.5
	V0z M38.3,343h178l-8.6-60.5c-4.6,1.2-9.3,2.2-14.2,3c-7,1.1-14.2,1.7-21.5,1.7c-29.7,0-56.6-9.3-76.2-24.4
	c-20-15.4-32.4-36.8-32.4-60.5c0-2.1,0.1-4.3,0.3-6.5H0v17.9l37.8,0.2c3.1,0,5.6,2.5,5.6,5.6l0,0.2h0L38.3,343z M269,196.7
	c0-0.3-0.1-0.6-0.1-1H75.1c0,0.3-0.1,0.7-0.1,1c-0.2,1.7-0.3,3.6-0.3,5.6c0,20.1,10.7,38.3,27.9,51.6c17.7,13.6,42.2,22,69.3,22
	c27.2,0,51.7-8.4,69.3-22c17.3-13.3,27.9-31.6,27.9-51.6C269.3,200.2,269.2,198.4,269,196.7z M0,184.4h65V18.7H0V184.4z
	 M271.9,170.9L271.9,170.9l-195.7,0v13.5h195.7c2.4,0,4.5-0.8,6-2.2c1.3-1.2,2.2-2.8,2.2-4.6C280.1,174,276.4,170.9,271.9,170.9z
	 M257.2,86.9V66h-88.5v20.9H257.2z M257.2,27.4h11.2H257.2z M157.4,27.4h11.2H157.4z"/>
</svg>
