<?xml version="1.0" encoding="utf-8"?>
<!-- Generator: Adobe Illustrator 19.0.0, SVG Export Plug-In . SVG Version: 6.00 Build 0)  -->
<svg version="1.1" id="Слой_3" xmlns="http://www.w3.org/2000/svg" xmlns:xlink="http://www.w3.org/1999/xlink" x="0px" y="0px"
	 viewBox="0 0 417.3 355.1" style="enable-background:new 0 0 417.3 355.1;" xml:space="preserve">
<style type="text/css">
	.st0{fill:#1D1D1B;}
</style>
<path class="st0" d="M397,325.7c-5,0-9.1,4.1-9.1,9.1c0,5,4.1,9.1,9.1,9.1c5,0,9.1-4.1,9.1-9.1C406.1,329.8,402,325.7,397,325.7
	L397,325.7z M402.7,223L402.7,223l0,42.3l0,0.1v49.8c8.5,2.5,14.7,10.3,14.7,19.5c0,11.2-9.1,20.4-20.4,20.4
	c-11.2,0-20.4-9.1-20.4-20.4c0-9.3,6.2-17.1,14.8-19.6V271H26v44.2c8.5,2.4,14.7,10.3,14.7,19.6c0,11.2-9.1,20.4-20.4,20.4
	S0,346,0,334.8c0-9.3,6.2-17.1,14.7-19.6v-49.8v-42.3V57V5.6c0-3.1,2.5-5.6,5.6-5.6C23.5,0,26,2.5,26,5.6v45.8h365.4V5.6
	c0-3.1,2.5-5.6,5.6-5.6c3.1,0,5.6,2.5,5.6,5.6V223z M338.5,217.5h52.9V62.7h-52.9V217.5z M276,217.5h51.2V62.7H276V217.5z
	 M213.5,217.5h51.2V62.7h-51.2V217.5z M151,217.5h51.2V62.7H151V217.5z M88.5,217.5h51.2V62.7H88.5V217.5z M26,217.5h51.2V62.7H26
	V217.5z M20.4,325.7c-5,0-9.1,4.1-9.1,9.1c0,5,4.1,9.1,9.1,9.1c5,0,9.1-4.1,9.1-9.1C29.4,329.8,25.4,325.7,20.4,325.7z"/>
</svg>
