<?xml version="1.0" encoding="utf-8"?>
<!-- Generator: Adobe Illustrator 19.0.0, SVG Export Plug-In . SVG Version: 6.00 Build 0)  -->
<svg version="1.1" id="Слой_3" xmlns="http://www.w3.org/2000/svg" xmlns:xlink="http://www.w3.org/1999/xlink" x="0px" y="0px"
	 viewBox="0 0 428.5 384.4" style="enable-background:new 0 0 428.5 384.4;" xml:space="preserve">
<style type="text/css">
	.st0{fill-rule:evenodd;clip-rule:evenodd;fill:#1D1D1B;}
</style>
<path class="st0" d="M119.3,362.6h189.6v-26.6H119.3V362.6z M119.3,324.8h189.6v-26.6H119.3V324.8z M119.3,286.9h189.6v-26.6H119.3
	V286.9z M320.2,362.9h44.7h4.8l0.7,4.8l2.6,16.8h16.1l2.6-16.8l0.7-4.8h4.8h31.2V260.3H320.2V362.9z M369.6,11.3h-311V200h311V11.3z
	 M282.2,75.2c2.4-2,5.9-1.6,7.9,0.8c2,2.4,1.6,5.9-0.8,7.9l-95.5,77.6c-2.4,2-5.9,1.6-7.9-0.8c-2-2.4-1.6-5.9,0.8-7.9L282.2,75.2z
	 M227.2,51.4c2.4-2,5.9-1.6,7.9,0.8c2,2.4,1.6,5.9-0.8,7.9l-95.5,77.6c-2.4,2-5.9,1.6-7.9-0.8c-2-2.4-1.6-5.9,0.8-7.9L227.2,51.4z
	 M155.8,44.2c2.4-2,5.9-1.6,7.9,0.8c2,2.4,1.6,5.9-0.8,7.9l-61.2,49.7c-2.4,2-5.9,1.6-7.9-0.8c-2-2.4-1.6-5.9,0.8-7.9L155.8,44.2z
	 M326.9,108.6c2.4-2,5.9-1.6,7.9,0.8c2,2.4,1.6,5.9-0.8,7.9l-61.2,49.7c-2.4,2-5.9,1.6-7.9-0.8c-2-2.4-1.6-5.9,0.8-7.9L326.9,108.6z
	 M53,0h322.3c3.1,0,5.6,2.5,5.6,5.6v200c0,3.1-2.5,5.6-5.6,5.6H53c-3.1,0-5.6-2.5-5.6-5.6V5.6C47.3,2.5,49.9,0,53,0z M0,362.9h30.8
	h4.8l0.7,4.8l2.6,16.8h16.1l2.6-16.8l0.7-4.8h4.8h44.8V260.3H0V362.9z"/>
</svg>
