<?xml version="1.0" encoding="utf-8"?>
<!-- Generator: Adobe Illustrator 19.0.0, SVG Export Plug-In . SVG Version: 6.00 Build 0)  -->
<svg version="1.1" id="Слой_3" xmlns="http://www.w3.org/2000/svg" xmlns:xlink="http://www.w3.org/1999/xlink" x="0px" y="0px"
	 viewBox="0 0 311.9 362.2" style="enable-background:new 0 0 311.9 362.2;" xml:space="preserve">
<style type="text/css">
	.st0{fill-rule:evenodd;clip-rule:evenodd;fill:#1D1D1B;}
</style>
<path class="st0" d="M253.9,213.9H58c-2.7,0-5.1,0.9-6.8,2.4c-1.5,1.2-2.4,2.9-2.4,4.6v28.7c0,1.7,0.9,3.4,2.4,4.6
	c1.7,1.4,4.1,2.4,6.8,2.4h195.9c2.7,0,5.1-0.9,6.8-2.4c1.5-1.2,2.4-2.9,2.4-4.6v-28.7c0-1.7-0.9-3.4-2.4-4.6
	C259,214.8,256.6,213.9,253.9,213.9L253.9,213.9z M45.6,206.3c-0.6,0.4-1.1,0.8-1.6,1.2l0,0l0,0l-0.1,0l0,0l0,0l-0.1,0.1l0,0
	l-0.2,0.1l0,0c-0.9,0.8-1.7,1.7-2.4,2.6l0,0l-0.1,0.1l-0.1,0.1c-1.7,2.2-2.8,4.8-3.3,7.6l0,0.1l0,0.1l0,0.2l0,0l0,0l0,0.4l0,0.1v0
	l0,0.2l0,0.1l0,0.1l0,0.1l0,0l0,0.2l0,0l0,0.1l0,0.1l0,0l0,0.2l0,0l0,0.1l0,0.1v0l0,0.2v28.7c0,5.2,2.4,9.8,6.4,13.2
	c3.7,3.1,8.7,5,14.1,5h195.9c5.4,0,10.4-1.9,14.1-5c3.9-3.3,6.4-8,6.4-13.2v-28.7l0-0.2l0-0.1l0-0.1l0-0.1l0,0l0-0.2l0,0l0-0.1
	l0-0.2l0-0.2l0,0l0-0.2l0-0.3v0c0-0.2,0-0.3-0.1-0.5l0-0.2l0-0.2l0-0.1l0,0c-0.4-2.6-1.5-5-3-7.1l0,0l0,0l0,0l-0.1-0.1v0
	c-0.2-0.3-0.4-0.5-0.6-0.8l0,0l-0.1-0.1l-0.1-0.1l0,0l-0.1-0.1l-0.1-0.1l0,0l0,0l-0.1-0.1l-0.1-0.1l-0.1-0.1l-0.1-0.1l0,0l-0.1-0.1
	l0,0c-0.5-0.5-1-1-1.5-1.4c-0.6-0.5-1.1-0.9-1.7-1.3v-23.9c0-3.8,2-7.4,5.3-10.1c3.6-2.9,8.6-4.7,14.2-4.7v0h6.7v0
	c1,0,1.9,0,2.8,0.1c4.8,0.5,9.1,2.3,12.3,5c2.7,2.3,4.5,5.1,4.5,8.1c0,0.2,0,0.5-0.1,0.9l-13.7,123.1l-12.6,57.3h-8.5l-8.2-44.7
	c-0.5-2.7-2.9-4.6-5.5-4.6v0H48.5c-2.9,0-5.3,2.2-5.6,5.1l-8.1,44.2h-8.5l-12.6-57.3L0.1,181.8c0-0.4-0.1-0.7-0.1-0.9h0
	c0-3,1.7-5.9,4.4-8.1c3.1-2.6,7.5-4.5,12.3-5c0.9-0.1,1.8-0.1,2.8-0.1v0h6.7v0c5.6,0,10.6,1.8,14.1,4.7c3.3,2.6,5.3,6.2,5.3,10.1h0
	V206.3z M155.9,0c70.2,0,127.6,54.4,130.8,122.7c0.3,3.1,0.5,6.2,0.5,9.4v24.3h-1.6v0c-8.2,0-15.7,2.8-21.2,7.3
	c-5.8,4.8-9.5,11.4-9.5,18.8v20.2c-0.4,0-0.7,0-1.1,0H58c-0.4,0-0.7,0-1.1,0v-20.2h0c0-7.4-3.6-14-9.5-18.8
	c-5.5-4.5-13-7.3-21.2-7.3v0h-1.6v-24.3c0-3.2,0.2-6.4,0.5-9.5C28.4,54.4,85.7,0,155.9,0z"/>
</svg>
