<?xml version="1.0" encoding="utf-8"?>
<!-- Generator: Adobe Illustrator 19.0.0, SVG Export Plug-In . SVG Version: 6.00 Build 0)  -->
<svg version="1.1" id="Слой_3" xmlns="http://www.w3.org/2000/svg" xmlns:xlink="http://www.w3.org/1999/xlink" x="0px" y="0px"
	 viewBox="0 0 430.1 389.2" style="enable-background:new 0 0 430.1 389.2;" xml:space="preserve">
<style type="text/css">
	.st0{fill-rule:evenodd;clip-rule:evenodd;fill:#1D1D1B;}
</style>
<path class="st0" d="M132.3,257.9c-3.1,0-5.6-2.5-5.6-5.6c0-3.1,2.5-5.6,5.6-5.6h25.2c3.1,0,5.6,2.5,5.6,5.6c0,3.1-2.5,5.6-5.6,5.6
	H132.3z M236.6,82.3V0h56.2v82.3c12.8,1.4,25.5,3.6,37.8,6.3l-6.8,10.3H205.6l-6.8-10.3C211.1,85.9,223.8,83.7,236.6,82.3z
	 M32,121.7c-3.1,0-5.6-2.5-5.6-5.6c0-3.1,2.5-5.6,5.6-5.6h25.2c3.1,0,5.6,2.5,5.6,5.6c0,3.1-2.5,5.6-5.6,5.6H32z M89.1,5.6H0v125.7
	h89.1V5.6z M132.3,121.7c-3.1,0-5.6-2.5-5.6-5.6c0-3.1,2.5-5.6,5.6-5.6h25.2c3.1,0,5.6,2.5,5.6,5.6c0,3.1-2.5,5.6-5.6,5.6H132.3z
	 M189.4,5.6h-89.1v125.7h89.1V5.6z M373,121.7c-3.1,0-5.6-2.5-5.6-5.6c0-3.1,2.5-5.6,5.6-5.6h25.2c3.1,0,5.6,2.5,5.6,5.6
	c0,3.1-2.5,5.6-5.6,5.6H373z M430.1,5.6H341v125.7h89.1V5.6z M373,257.9c-3.1,0-5.6-2.5-5.6-5.6c0-3.1,2.5-5.6,5.6-5.6h25.2
	c3.1,0,5.6,2.5,5.6,5.6c0,3.1-2.5,5.6-5.6,5.6H373z M430.1,237.1h-89.1v152.1h89.1V237.1z M430.1,206.4H57.4l12.7-12.1
	c2.3-2.1,2.3-5.7,0.2-7.9c-2.1-2.2-5.7-2.3-7.9-0.2l-6.7,6.4c-0.2-13.7,0.9-26.6,8.2-28.1c1.9-0.4,3.5-0.3,4.8,0.3
	c1.1,0.5,2,1.3,2.6,2.5c1.4,2.7,4.8,3.8,7.6,2.4c2.7-1.4,3.8-4.8,2.4-7.6c-1.8-3.5-4.7-6.1-8.2-7.6c-3.3-1.4-7.2-1.8-11.3-1
	c-15.2,3-17.4,20.4-17.3,38.2l-5.8-5.5c-2.2-2.1-5.8-2.1-7.9,0.2c-2.1,2.2-2.1,5.8,0.2,7.9l12.7,12.1H0v19.5h430.1V206.4z
	 M214.5,292.5c-3.1,0-5.6-2.5-5.6-5.6c0-3.1,2.5-5.6,5.6-5.6h100.2c3.1,0,5.6,2.5,5.6,5.6c0,3.1-2.5,5.6-5.6,5.6H214.5z
	 M329.8,271.6H200.7v87.8h129.1V271.6z M251.9,242c3.8,0,6.9,3,6.9,6.7c0,3.7-3.1,6.7-6.9,6.7c-3.8,0-6.9-3-6.9-6.7
	C245,245,248,242,251.9,242z M272.8,242c3.8,0,6.9,3,6.9,6.7c0,3.7-3.1,6.7-6.9,6.7c-3.8,0-6.9-3-6.9-6.7
	C265.9,245,269,242,272.8,242z M293,242c3.8,0,6.9,3,6.9,6.7c0,3.7-3.1,6.7-6.9,6.7c-3.8,0-6.9-3-6.9-6.7
	C286.2,245,289.2,242,293,242z M314,242c3.8,0,6.9,3,6.9,6.7c0,3.7-3.1,6.7-6.9,6.7c-3.8,0-6.9-3-6.9-6.7
	C307.1,245,310.2,242,314,242z M215.3,242c3.8,0,6.9,3,6.9,6.7c0,3.7-3.1,6.7-6.9,6.7c-3.8,0-6.9-3-6.9-6.7
	C208.4,245,211.5,242,215.3,242z M200.7,260.4h129.1v-23.3H200.7V260.4z M200.7,389.2h129.1v-18.5H200.7V389.2z M32,257.9
	c-3.1,0-5.6-2.5-5.6-5.6c0-3.1,2.5-5.6,5.6-5.6h25.2c3.1,0,5.6,2.5,5.6,5.6c0,3.1-2.5,5.6-5.6,5.6H32z M89.1,237.1H0v152.1h89.1
	V237.1z M189.4,237.1h-89.1v152.1h89.1V237.1z"/>
</svg>
