<?xml version="1.0" encoding="utf-8"?>
<!-- Generator: Adobe Illustrator 19.0.0, SVG Export Plug-In . SVG Version: 6.00 Build 0)  -->
<svg version="1.1" id="Слой_3" xmlns="http://www.w3.org/2000/svg" xmlns:xlink="http://www.w3.org/1999/xlink" x="0px" y="0px"
	 viewBox="0 0 304.4 390.8" style="enable-background:new 0 0 304.4 390.8;" xml:space="preserve">
<style type="text/css">
	.st0{fill-rule:evenodd;clip-rule:evenodd;fill:#1D1D1B;}
</style>
<path class="st0" d="M156.5,208.1h-22c-0.2,36.8,5,61.9,11.5,72.9c1.6,2.7,2.9,4.1,3.7,4.3c0.3,0,1.1-0.8,2.1-2.5
	c4.8-7.6,8.5-25.4,9.2-54.9h-4.6V208.1z M182.3,196.9c3.1,0,5.6,2.5,5.6,5.6c0,3.1-2.5,5.6-5.6,5.6h-5.2v19.7h-4.8
	c-0.7,31.9-5.2,51.8-10.9,60.9c-3.7,5.8-8.2,8.3-13.1,7.6c-4.4-0.6-8.5-3.9-11.9-9.7c-7.3-12.5-13.2-39.7-13-78.6h-1.7
	c-3.1,0-5.6-2.5-5.6-5.6c0-3.1,2.5-5.6,5.6-5.6h34.9v-10.4c-8-2.8-10.4-8.1-10.4-16.8c0-25.6,40.8-26.2,40.8,0
	c0,8.7-5.3,16.2-9.9,16.8v10.4H182.3z M34,245.1c-1.4-2.8-0.3-6.2,2.5-7.6c2.8-1.4,6.2-0.3,7.6,2.5l22.7,44.5
	c1.4,2.8,0.3,6.2-2.5,7.6c-2.8,1.4-6.2,0.3-7.6-2.5L34,245.1z M30.3,185.9c-1.4-2.8-0.3-6.2,2.5-7.6c2.8-1.4,6.2-0.3,7.6,2.5
	l35.4,69.4c1.4,2.8,0.3,6.2-2.5,7.6c-2.8,1.4-6.2,0.3-7.6-2.5L30.3,185.9z M34.5,145.5c-1.4-2.8-0.3-6.2,2.5-7.6
	c2.8-1.4,6.2-0.3,7.6,2.5L80,209.8c1.4,2.8,0.3,6.2-2.5,7.6c-2.8,1.4-6.2,0.3-7.6-2.5L34.5,145.5z M39.5,106.3
	c-1.4-2.8-0.3-6.2,2.5-7.6c2.8-1.4,6.2-0.3,7.6,2.5l22.7,44.5c1.4,2.8,0.3,6.2-2.5,7.6c-2.8,1.4-6.2,0.3-7.6-2.5L39.5,106.3z
	 M25.4,362.6h64.1V28.2H25.4V362.6z M231.4,106.3c-1.4-2.8-0.3-6.2,2.5-7.6c2.8-1.4,6.2-0.3,7.6,2.5l22.7,44.5
	c1.4,2.8,0.3,6.2-2.5,7.6c-2.8,1.4-6.2,0.3-7.6-2.5L231.4,106.3z M225.9,245.1c-1.4-2.8-0.3-6.2,2.5-7.6c2.8-1.4,6.2-0.3,7.6,2.5
	l22.7,44.5c1.4,2.8,0.3,6.2-2.5,7.6c-2.8,1.4-6.2,0.3-7.6-2.5L225.9,245.1z M222.1,185.9c-1.4-2.8-0.3-6.2,2.5-7.6
	c2.8-1.4,6.2-0.3,7.6,2.5l35.4,69.4c1.4,2.8,0.3,6.2-2.5,7.6c-2.8,1.4-6.2,0.3-7.6-2.5L222.1,185.9z M226.4,145.5
	c-1.4-2.8-0.3-6.2,2.5-7.6c2.8-1.4,6.2-0.3,7.6,2.5l35.4,69.4c1.4,2.8,0.3,6.2-2.5,7.6c-2.8,1.4-6.2,0.3-7.6-2.5L226.4,145.5z
	 M215,362.6h64.1V28.2H215V362.6z M304.4,0H0v16.9h304.4V0z M304.4,373.8H0v16.9h304.4V373.8z M203.7,362.6V28.2H100.7v334.4H203.7z
	"/>
</svg>
