<?xml version="1.0" encoding="utf-8"?>
<!-- Generator: Adobe Illustrator 19.0.0, SVG Export Plug-In . SVG Version: 6.00 Build 0)  -->
<svg version="1.1" id="Слой_3" xmlns="http://www.w3.org/2000/svg" xmlns:xlink="http://www.w3.org/1999/xlink" x="0px" y="0px"
	 viewBox="0 0 317.9 382.7" style="enable-background:new 0 0 317.9 382.7;" xml:space="preserve">
<style type="text/css">
	.st0{fill-rule:evenodd;clip-rule:evenodd;fill:#1D1D1B;}
</style>
<path class="st0" d="M120.4,161.2c0-4.7,3.8-8.5,8.5-8.5c4.7,0,8.5,3.8,8.5,8.5v34.9c0,4.7-3.8,8.5-8.5,8.5c-4.7,0-8.5-3.8-8.5-8.5
	V161.2z M180.5,161.2c0-4.7,3.8-8.5,8.5-8.5c4.7,0,8.5,3.8,8.5,8.5v34.9c0,4.7-3.8,8.5-8.5,8.5c-4.7,0-8.5-3.8-8.5-8.5V161.2z
	 M305.3,25.8H164.6v337.9h114.1h4.8l0.7,4.8l2.2,14.2h16.4l2.2-14.2l0.4-2.3V25.8z M317.9,0H0v14.6h317.9V0z M153.3,25.8H12.5v340.4
	l0.4,2.3l2.2,14.2h16.4l2.2-14.2l0.7-4.8h4.8h114.1V25.8z"/>
</svg>
