<?xml version="1.0" encoding="utf-8"?>
<!-- Generator: Adobe Illustrator 19.0.0, SVG Export Plug-In . SVG Version: 6.00 Build 0)  -->
<svg version="1.1" id="Слой_3" xmlns="http://www.w3.org/2000/svg" xmlns:xlink="http://www.w3.org/1999/xlink" x="0px" y="0px"
	 viewBox="0 0 394.6 267.2" style="enable-background:new 0 0 394.6 267.2;" xml:space="preserve">
<style type="text/css">
	.st0{fill-rule:evenodd;clip-rule:evenodd;fill:#1D1D1B;}
</style>
<path class="st0" d="M280.7,72.6c-23.7,16.7-52.4,26.6-83.4,26.6s-59.7-9.8-83.4-26.6C137.6,55.8,166.3,46,197.3,46
	S257,55.8,280.7,72.6L280.7,72.6z M27.6,110.4h339.5v35.7H27.6V110.4z M61.5,0h271.7c33.8,0,61.5,27.7,61.5,61.5v84.7V247l-3.4,20.2
	h-26.3l-3.1-20.2H32.9l-3.1,20.2H3.4L0,245.1v-99V61.5C0,27.7,27.7,0,61.5,0z"/>
</svg>
