<svg xmlns="http://www.w3.org/2000/svg" version="1.1" viewBox="0 0 3000 3000" width="3000" height="3000">
<defs/><!--ITEM: Illustration component 1--><g transform="translate(2877.777777777778 583.3333333333333) rotate(0.0 -656.9444444444445 1137.5)  scale(-1.9339243864185356 1.9345238095238095)"><svg width="679.39" height="1176.0" viewBox="0.0 0.0 679.39 1176.0"><title>FLAME</title><path d="M591.59,1157.63c30.77-2.34,54.25-29.41,65.83-45.93a48.19,48.19,0,0,0,8.67-25c18.84-338.3,17.62-693.13-3.41-999.91,0,0,.22-55.15-66.65-67.84C596,95,591.59,1157.63,591.59,1157.63Z" style="fill:#10294c;"/><path d="M596,1157a1930.73,1930.73,0,0,1-540.14,0A51,51,0,0,1,12,1108.79Q-12,588,12,67.21A51,51,0,0,1,55.89,19,1930.74,1930.74,0,0,1,596,19a51,51,0,0,1,43.86,48.23q24,520.79,0,1041.58A51,51,0,0,1,596,1157Z" style="fill:#f04e23;"/><path d="M102,1127l-.36,0c-13.61-1.62-27.34-3.4-40.82-5.29a15.38,15.38,0,0,1-13.19-14.54c-15.91-344.48-15.91-693.81,0-1038.29A15.39,15.39,0,0,1,60.85,54.31,1911.38,1911.38,0,0,1,326,35.68c61.65,0,124.41,3.11,186.55,9.24a3.06,3.06,0,1,1-.6,6.09C450,44.89,387.41,41.79,326,41.79A1905.28,1905.28,0,0,0,61.71,60.37a9.27,9.27,0,0,0-7.93,8.77c-15.9,344.29-15.9,693.43,0,1037.73a9.26,9.26,0,0,0,7.93,8.77c13.43,1.89,27.12,3.66,40.68,5.27A3.06,3.06,0,0,1,102,1127Z" style="fill:#10294c;"/><path d="M326,1140.32c-60.73,0-122.57-3-183.8-9a3.06,3.06,0,1,1,.59-6.09c61,5.93,122.68,8.95,183.21,8.95a1905.28,1905.28,0,0,0,264.25-18.57,9.27,9.27,0,0,0,7.93-8.77c15.9-344.29,15.9-693.43,0-1037.73a9.27,9.27,0,0,0-7.93-8.77c-14.2-2-28.67-3.86-43-5.55a3.06,3.06,0,0,1,.71-6.07c14.4,1.69,28.92,3.56,43.16,5.57a15.38,15.38,0,0,1,13.19,14.54c15.91,344.48,15.91,693.81,0,1038.29a15.38,15.38,0,0,1-13.19,14.54A1911.36,1911.36,0,0,1,326,1140.32Z" style="fill:#10294c;"/><path d="M107.18,669.25A79.48,79.48,0,0,1,87.3,666.7c-3.11-.8-5.28-4.47-5.4-9.13-1.13-44.84-1.13-90.31,0-135.16.12-4.66,2.29-8.33,5.4-9.13a78.82,78.82,0,0,1,39.75,0c3.11.8,5.28,4.47,5.4,9.14,1.13,44.84,1.13,90.31,0,135.16-.12,4.66-2.29,8.33-5.4,9.13h0A79.48,79.48,0,0,1,107.18,669.25ZM89,660.82a72.73,72.73,0,0,0,36.39,0,5.63,5.63,0,0,0,1-3.4c1.13-44.74,1.13-90.11,0-134.85a5.64,5.64,0,0,0-1-3.41,72.75,72.75,0,0,0-36.39,0,5.64,5.64,0,0,0-1,3.4c-1.13,44.74-1.13,90.11,0,134.85A5.63,5.63,0,0,0,89,660.82Zm36.55,0h0ZM89,519.12h0Z" style="fill:#10294c;"/><circle cx="85.77" cy="589.97" r="30.28" style="fill:#10294c;"/><ellipse cx="270.23" cy="117.43" rx="3.5" ry="43.18" style="fill:#10294c;"/><ellipse cx="270.23" cy="204.57" rx="3.5" ry="21.59" style="fill:#10294c;"/><ellipse cx="130.24" cy="397.56" rx="3.5" ry="21.59" style="fill:#10294c;"/><ellipse cx="130.24" cy="229.71" rx="3.5" ry="21.59" style="fill:#10294c;"/><ellipse cx="130.24" cy="313.98" rx="3.5" ry="39.94" style="fill:#10294c;"/><ellipse cx="219.94" cy="784.48" rx="3.5" ry="43.18" style="fill:#10294c;"/><ellipse cx="122.09" cy="1101.16" rx="3.5" ry="43.18" style="fill:#10294c;"/><ellipse cx="373.53" cy="516.58" rx="3.5" ry="140.6" style="fill:#10294c;"/><ellipse cx="403.43" cy="1030.76" rx="3.5" ry="43.18" style="fill:#10294c;"/><ellipse cx="219.94" cy="871.62" rx="3.5" ry="21.59" style="fill:#10294c;"/><ellipse cx="529.83" cy="138.81" rx="3.5" ry="43.18" style="fill:#10294c;"/><ellipse cx="529.83" cy="55.74" rx="3.5" ry="21.59" style="fill:#10294c;"/><ellipse cx="510.8" cy="657.18" rx="3.5" ry="84.13" style="fill:#10294c;"/><ellipse cx="510.8" cy="826.96" rx="3.5" ry="42.06" style="fill:#10294c;"/></svg></g><!--ITEM: Illustration component 2--><g transform="translate(1725.0 175.0) rotate(-13.011966797746256 -391.6666666666667 294.44444444444446)  scale(-2.891595914851729 2.900930487137384)"><svg width="270.9" height="203.0" viewBox="0.0 0.0 270.9 203.0"><g>
	<path fill="#FAB316" d="M215.6,198c-7.3-7.3-9.5-17.5-9.6-27.1c-15,1.5-21.5-2.2-12.6-3c4.4-0.4,8.7-1.1,13-1.9   c54.4-13.2,64.5-43.9,64.5-79.6C270.9,38.7,252.6,0,135.5,0S0,38.7,0,86.5s18,86.4,135.5,86.4c4.9,0,9.7-0.1,14.3-0.2   c18.6,25.7,49,29.9,63.7,30.3c1.6,0,2.9-1.2,3-2.8C216.5,199.4,216.2,198.6,215.6,198z"/>
</g>
</svg></g><!--ITEM: Illustration component 3--><g transform="translate(122.22222222222221 816.6666666666666) rotate(0.0 961.1111111111111 1029.1666666666667)  scale(1.7295269743725092 1.730616811449929)"><svg width="1111.415" height="1189.364" viewBox="0.0 0.0 1111.415 1189.364"><g>
	<g>
		<path style="fill:#04294F;" d="M225.493,981.445c-10.497-6.059-14.095-19.481-8.036-29.978l146.251-253.366    c6.059-10.497,19.481-14.095,29.978-8.036c10.497,6.059,14.095,19.481,8.036,29.978L255.471,973.41    C249.412,983.907,235.99,987.505,225.493,981.445z"/>
		<path style="fill:#04294F;" d="M336.301,789.48l-96.555-55.735c-10.497-6.059-14.095-19.481-8.036-29.978    c6.059-10.497,19.481-14.095,29.978-8.036l96.555,55.735c10.497,6.059,14.095,19.481,8.036,29.978S346.798,795.54,336.301,789.48z    "/>
	</g>
	<path style="fill:#FFB400;" d="M116.757,728.846c6.344,9.759,15.644,17.178,23.196,26.036s13.565,20.383,11.22,31.784   c-1.58,7.682-6.688,14.078-10.22,21.081c-3.532,7.002-5.287,16.084-0.452,22.259c5.679,7.253,17.069,6.365,25.468,2.579   c18.882-8.512,31.879-28.697,31.814-49.408c-0.028-8.879-2.237-17.59-4.431-26.194c-3.507-13.752-7.015-27.503-10.522-41.255   c-3.421-13.412-7.301-27.617-17.493-36.982c-8.562-7.867-21.332-11.153-32.412-7.63   C110.357,678.293,105.025,710.797,116.757,728.846z"/>
	<path style="fill:#FFB400;" d="M70.458,713.817c0.074,9.234,2.303,18.358,2.252,27.592c-0.05,9.234-2.972,19.241-10.646,24.376   c-6.517,4.361-14.996,4.293-22.769,3.255s-15.643-2.885-23.366-1.53s-15.423,7.083-15.905,14.91   c-0.328,5.333,2.799,10.429,7.009,13.721c4.209,3.291,9.391,5.059,14.528,6.528c14.094,4.031,29.382,6.202,43.271,1.513   c15.171-5.121,26.772-17.927,33.949-32.241s10.5-30.197,13.754-45.876c1.811-8.727,3.63-17.67,2.347-26.49   c-1.283-8.82-6.318-17.64-14.598-20.938C81.482,671.15,70.345,699.659,70.458,713.817z"/>
	<path style="fill:#FFB400;" d="M96.12,711.784c-3.816,17.03-3.932,34.935-9.952,51.315c-6.02,16.381-20.518,31.668-37.948,30.801   c-5.924-0.295-11.61-2.423-17.503-3.094c-5.893-0.671-12.621,0.534-16.099,5.338c-4.541,6.271-1.3,15.311,3.78,21.154   c10.326,11.879,27.314,16.834,42.874,14.463s29.61-11.386,40.078-23.14c10.468-11.754,17.619-26.119,23.014-40.905   c7.364-20.18,11.669-41.473,12.722-62.928c0.616-12.548-3.461-32.978-20.94-29.738C103.225,677.445,98.453,701.373,96.12,711.784z"/>
	<path style="fill:#FFB400;" d="M115.681,718.494c-2.389,31.416-17.962,61.621-42.169,81.788   c-4.543,3.785-9.405,7.262-13.262,11.744s-6.679,10.238-6.169,16.13c0.961,11.093,13.138,18.015,24.253,18.685   c14.137,0.852,28.065-5.211,38.95-14.271s19.065-20.932,26.217-33.156c6.973-11.918,13.212-24.663,14.701-38.39   c1.489-13.727-2.514-28.695-13.117-37.539c-10.604-8.844-28.291-9.297-37.396,1.083"/>
	<path style="fill:#FFB400;" d="M75.998,735.63c-5.417,5.507-13.349,8.435-21.045,7.77c-4.253-0.368-8.569-1.761-12.701-0.691   c-6.581,1.705-10.214,9.614-8.709,16.243c1.505,6.629,6.994,11.774,13.148,14.662c11.232,5.271,25.668,3.651,34.722-4.832   c9.054-8.483,11.414-23.627,4.478-33.914"/>
	<path style="fill:#FFB400;" d="M646.734,337.192c-8.39,1.405-14.816,9.829-23.234,11.009c-7.819,1.096-15.893-5.381-17.379-13.941   c-1.486-8.561,3.844-17.884,11.474-20.069c4.874-1.396,10.008-0.138,15.043-0.136c5.035,0.002,10.769-1.894,12.76-7.009   c2.077-5.335-0.813-11.902,1.409-17.166c2.089-4.948,8.023-6.585,12.802-5.212c4.779,1.373,8.731,4.963,12.718,8.183   c0.545,0.44,1.081,0.854,1.61,1.242c2.832,2.081,6.843,0.084,6.901-3.43c0.294-17.801,0.259-35.602-0.118-53.402   c-2.531-70.602-69.665-142.148-140.746-143.17c-71.083,1.021-138.215,72.567-140.746,143.17   c-1.212,57.25,1.036,114.498,6.746,171.748c1.146,11.133,11.271,21.8,22.414,23.464c74.391,10.826,148.781,10.826,223.172,0   c11.145-1.666,21.266-12.331,22.414-23.464c1.504-15.077,2.761-30.154,3.782-45.23c0.536-7.915-3.442-15.446-10.264-19.495   C660.724,340.266,654.087,335.961,646.734,337.192z"/>
	<path style="fill:#FFB400;" d="M897.03,244.85c-6.858-7.537-12.745-16.493-14.095-26.593c-1.35-10.1,2.818-21.42,11.854-26.128   c-3.407-10.197-0.989-22.126,6.118-30.192c7.107-8.066,18.637-11.965,29.182-9.869c-1.559-9.006,2.001-18.723,9.009-24.59   s17.2-7.663,25.791-4.544c11.174-9.653,28.533-9.102,41.656-2.333c13.123,6.769,22.843,18.576,31.592,30.471   c11.693,15.898,22.708,33.547,23.91,53.246c1.274,20.875-9.227,41.541-25.314,54.906C996.553,292.603,930.98,282.165,897.03,244.85   z"/>
	<path style="fill:#FFB400;" d="M928.741,292.928c-9.63-2.57-19.278-6.624-25.876-14.095c-6.598-7.471-9.346-19.017-4.367-27.652   c6.11-10.595,20.313-12.747,32.543-12.836c19.283-0.142,38.581,1.95,57.385,6.219c7.792,1.769,15.7,4.006,22.119,8.764   c6.418,4.759,11.122,12.557,10.162,20.489c-1.758,14.535-26.19,18.041-37.701,20.463   C965.141,298.038,946.389,297.638,928.741,292.928z"/>
	<path style="fill:#FFB400;" d="M1005.062,331.258c0.952,1.228,1.986,2.517,3.467,3.057c2.309,0.843,4.788-0.404,6.883-1.612   c23.538-13.567,47.076-27.133,70.613-40.7c-17.309-23.739-29.943-50.616-37.009-78.733c-14.186,11.516-32.456,17.322-47.582,27.67   c-12.168,8.324-22.108,19.607-28.805,32.493c-2.776,5.341-4.827,9.36-1.102,14.662c4.664,6.639,10.081,12.91,15.063,19.336   C992.747,315.375,998.904,323.316,1005.062,331.258z"/>
	<path style="fill:#04294F;" d="M771.359,1186.208c-10.306,0.736-29.784,3.156-73.074,3.156c-40.661,0-54.684-1.716-62.119-2.926   c-3.475-0.726-6.038-3.662-6.269-7.204c-0.847-7.853-0.462-12.01,0.55-23.119c0.341-3.893,0.781-7.952,1.265-11.779   c0.066-2.464,0.088-4.916,0.088-7.38v-1.276c-0.033-7.215-0.33-14.408-0.869-21.59h113.9c-0.044,0.33-0.077,0.649-0.121,0.979   c-0.363,7.732-0.813,8.985,1.09,14.738c1.1,3.387,2.673,6.291,4.795,8.568c4.146,4.312,20.373,1.216,25.377,5.716   C805.388,1176.591,791.586,1184.763,771.359,1186.208z"/>
	<path style="fill:#04294F;" d="M363.741,1179.249c-7.365-7.247-22.056-20.262-50.672-52.745   c-26.878-30.51-34.861-42.167-38.868-48.546c-1.753-3.088-1.243-6.952,1.262-9.466c5.333-5.826,8.707-8.286,17.711-14.87   c3.147-2.318,6.483-4.67,9.675-6.837c1.892-1.579,3.747-3.184,5.596-4.812l0.957-0.843c5.392-4.794,10.593-9.772,15.626-14.924   l75.291,85.466c-0.277,0.185-0.538,0.371-0.815,0.556c-6.042,4.839-7.28,5.33-10.338,10.56c-1.815,3.065-2.954,6.164-3.259,9.262   c-0.494,5.961,12.554,16.091,12.486,22.82C393.452,1198.426,378.196,1193.472,363.741,1179.249z"/>
	<path style="fill-rule:evenodd;clip-rule:evenodd;fill:#04294F;" d="M672.471,756.758h-152.06v128.667   c49.725,27.775,100.393,36.305,152.06,23.517V756.758z"/>
	<path style="fill-rule:evenodd;clip-rule:evenodd;fill:#04294F;" d="M400.319,756.758v148.796   c53.692,16.777,108.478,10.916,164.426-20.13V756.758H400.319z"/>
	<path style="fill:#04294F;" d="M745.352,828.673c-131.96,19.01-263.921,19.01-395.881,0c-2.208-0.318-4.238-2.376-4.528-4.582   c-18.143-138.667-18.143-277.333,0-416c0.291-2.206,2.321-4.263,4.528-4.582c131.96-19.01,263.921-19.01,395.881,0   c2.208,0.319,4.238,2.374,4.528,4.582c18.143,138.667,18.143,277.333,0,416C749.592,826.298,747.559,828.354,745.352,828.673z"/>
	<path style="fill:#04294F;" d="M745.352,1128.587c-38.627,13.965-77.254,13.965-115.881,0c-2.208-0.802-4.09-3.291-4.2-5.496   c-5.514-111.333-5.514-222.667,0-334c0.11-2.203,1.993-4.696,4.2-5.496c38.627-13.965,77.254-13.965,115.881,0   c2.209,0.802,4.09,3.291,4.2,5.496c5.514,111.333,5.514,222.667,0,334C749.441,1125.296,747.56,1127.785,745.352,1128.587z"/>
	<path style="fill:#04294F;" d="M308.714,1044.139c-0.758-1.554-0.401-3.427,0.844-4.629c12.517-12.072,27.674-20.665,39.568-33.397   c11.162-11.949,21.848-27.617,25.886-43.686c4.661-18.55,1.36-38.18-4.025-56.158c-6.315-21.088-10.94-42.505-18.366-63.31   c-2.338-5.961-4.653-11.942-6.873-17.982c0,0,105.998-49.518,106.003-49.52c4.019-1.878,34.822,82.142,37.246,90.322   c16.759,56.541,18.424,122.837-10.546,175.803c-17.101,31.267-41.954,52.398-70.98,72.009l-8.341,5.548l-1.971,1.298l-1.752,1.181   l-1.734,1.167l-0.869,0.582l-0.717,0.505c0,0-2.839,1.937-2.861,1.953c-1.291,0.954-3.053,1-4.419,0.158   C348.878,1103.828,324.332,1076.149,308.714,1044.139z"/>
	<path style="fill-rule:evenodd;clip-rule:evenodd;fill:#00AEE0;" d="M745.351,807.022c-143.25,27.182-252.628,27.182-395.879,0   c-5.971-1.118-12.779-6.548-14.389-12.065c-3.486-11.844-4.5-23.689-3.034-35.533c0.709-5.519,6.241-9.144,11.666-8.146   c131.178,24.528,276.216,24.528,407.394,0c5.426-0.998,10.958,2.625,11.667,8.146c1.464,11.846,0.453,23.688-3.034,35.533   C758.131,800.476,751.324,805.902,745.351,807.022z"/>
	<g>
		<path style="fill:#00AEE0;" d="M522.443,837.088c1.229,0.14,1.839,3.335,2.77,8.132c0.115,0.598,0.235,1.225,0.36,1.878    c0.12,0.65,0.3,1.32,0.441,2.014c0.26,1.391,0.667,2.851,1.021,4.388c0.814,3.057,1.801,6.365,3.054,9.767    c1.292,3.387,2.724,6.528,4.12,9.367c0.744,1.391,1.397,2.758,2.116,3.978c0.35,0.616,0.655,1.239,0.992,1.808    c0.335,0.574,0.656,1.125,0.963,1.652c2.453,4.226,4.094,7.034,3.26,7.948c-0.752,0.84-3.96-0.453-7.974-4.119    c-0.493-0.462-1.004-0.955-1.531-1.477c-0.523-0.524-1.01-1.116-1.537-1.715c-1.073-1.187-2.058-2.575-3.1-4.042    c-1.99-2.987-3.873-6.495-5.352-10.382c-1.441-3.901-2.329-7.782-2.794-11.341c-0.18-1.79-0.351-3.484-0.322-5.084    c0.003-0.798-0.019-1.564,0.03-2.303c0.053-0.74,0.114-1.447,0.182-2.119C519.757,840.033,521.324,836.949,522.443,837.088z"/>
		<path style="fill:#00AEE0;" d="M388.75,829.042c1.26-0.335,3.737,6.667,9.411,16.832c1.409,2.544,3.075,5.252,4.923,8.105    c1.91,2.814,3.976,5.793,6.373,8.753c4.736,5.957,10.564,11.983,17.357,17.477c6.837,5.439,13.984,9.821,20.827,13.151    c3.409,1.697,6.766,3.068,9.927,4.321c3.185,1.184,6.19,2.223,8.98,3.046c11.154,3.333,18.526,4.23,18.473,5.534    c-0.02,0.573-1.897,1.093-5.33,1.32c-3.431,0.233-8.417,0.05-14.507-0.936c-3.046-0.483-6.346-1.237-9.855-2.203    c-3.485-1.035-7.191-2.255-10.962-3.877c-7.563-3.178-15.48-7.726-22.928-13.656c-7.405-5.983-13.562-12.724-18.307-19.417    c-2.402-3.329-4.397-6.683-6.163-9.859c-1.705-3.215-3.157-6.273-4.29-9.142c-2.284-5.73-3.545-10.558-4.062-13.958    C388.095,831.131,388.195,829.186,388.75,829.042z"/>
		<path style="fill:#00AEE0;" d="M661.776,898.282c0.972,0.583,0.724,3.268-1.388,6.832c-0.53,0.882-1.158,1.826-1.942,2.747    c-0.743,0.966-1.664,1.871-2.646,2.826c-2.016,1.835-4.483,3.604-7.305,5.028c-2.837,1.395-5.734,2.298-8.413,2.803    c-1.353,0.208-2.63,0.399-3.849,0.41c-1.207,0.072-2.339,0.004-3.362-0.104c-4.118-0.46-6.41-1.879-6.29-3.006    c0.117-1.224,2.447-1.997,5.783-3.045c0.838-0.266,1.742-0.527,2.694-0.868c0.961-0.281,1.956-0.685,3.007-1.039    c2.082-0.798,4.317-1.72,6.6-2.838c2.268-1.15,4.35-2.379,6.241-3.56c0.915-0.626,1.837-1.177,2.64-1.775    c0.846-0.554,1.599-1.12,2.316-1.628C658.708,899.033,660.729,897.638,661.776,898.282z"/>
		<path style="fill:#00AEE0;" d="M493.813,471.037c0.591,0.045,0.901,3.874,0.957,10.745c0,3.431,0.001,7.629,0.002,12.502    c0.001,4.87-0.124,10.407-0.083,16.531c-0.01,3.06-0.021,6.266-0.033,9.606c-0.014,3.339,0.053,6.814,0.065,10.41    c-0.01,7.192,0.185,14.874,0.307,22.956c0.397,16.162,1.058,33.917,2.187,52.533c1.188,18.612,2.734,36.313,4.344,52.398    c0.881,8.034,1.64,15.681,2.542,22.817c0.435,3.57,0.798,7.026,1.227,10.338c0.426,3.313,0.834,6.493,1.224,9.528    c0.719,6.082,1.529,11.56,2.132,16.393c0.604,4.836,1.123,9.001,1.548,12.406c0.797,6.824,0.964,10.662,0.383,10.78    s-1.856-3.498-3.667-10.153c-0.437-1.667-0.924-3.521-1.456-5.55c-0.501-2.035-0.997-4.257-1.536-6.643    c-1.056-4.776-2.292-10.214-3.4-16.271c-0.567-3.027-1.162-6.199-1.781-9.504c-0.605-3.308-1.135-6.765-1.727-10.339    c-1.214-7.144-2.245-14.817-3.349-22.89c-2.056-16.165-3.857-34.003-5.055-52.778c-1.139-18.778-1.564-36.702-1.528-52.997    c0.095-8.148,0.166-15.889,0.485-23.129c0.143-3.62,0.241-7.116,0.431-10.473c0.205-3.356,0.401-6.577,0.589-9.651    c0.349-6.148,0.9-11.697,1.356-16.567c0.24-2.435,0.456-4.7,0.701-6.782c0.277-2.079,0.529-3.979,0.757-5.688    C492.405,474.738,493.222,470.992,493.813,471.037z"/>
	</g>
	<path style="fill:#04294F;" d="M377.141,402.261v115c-15.16,0-29.45,0.66-42.87,1.98c-8.85,0.87-17.32,2.02-25.4,3.47   c-40.42,7.19-71.21,21.51-91.93,42.83c-37.52,38.61-35.92,94.45-35.16,121.28c0.1,3.57,0.19,6.66,0.19,9.6h-115   c0-1.31-0.07-3.74-0.14-6.32c-1.03-35.9-3.74-131.25,67.65-204.71C188.091,430.231,269.731,402.261,377.141,402.261z"/>
	<path style="fill:#04294F;" d="M1101.781,416.351c-21.72,63.76-77.04,114.37-147.99,135.37c-21.46,6.36-42.32,8.93-62.26,8.94   c-34.76,0-66.75-7.83-94.35-17.13c-13.06-4.39-25.13-9.11-36.06-13.48c-2.1-0.84-4.16-1.67-6.17-2.48   c-12.1-4.87-28.64-11.53-34.55-12.35c0.21,0.02,0.57,0.04,1.07,0.04v-115c25.16,0,48.91,9.56,76.41,20.62   c38.3,15.42,81.7,32.88,123.27,20.58c34.7-10.28,62.21-34.11,71.78-62.2c4.81-14.13,7.07-35.79-9.5-58.69l93.18-67.41   C1111.501,301.401,1120.681,360.881,1101.781,416.351z"/>
	<path style="fill:#10294C;" d="M540.658,250.185c-0.985-1.129-1.692-2.38-2.087-3.694c-0.386-1.211-0.589-2.45-0.605-3.694   c-0.023-1.242,0.152-2.482,0.522-3.694c0.36-1.307,1.023-2.557,1.961-3.694c1.314-1.562,4.081-2.038,6.183-1.062l0.077,0.037   c0.549,0.268,1.017,0.616,1.377,1.024c0.982,1.131,1.688,2.381,2.087,3.694c0.352,1.213,0.52,2.452,0.501,3.694   c-0.019,1.243-0.215,2.481-0.584,3.694c-0.413,1.309-1.119,2.558-2.087,3.694c-1.301,1.487-3.977,1.908-5.976,0.941   c-0.505-0.244-0.936-0.565-1.264-0.941H540.658z"/>
	<g>
		<path style="fill:#10294C;" d="M661.441,233.164c0,14.147-5.048,25.611-11.282,25.611c-6.223,0-11.271-11.464-11.271-25.611    c0-2.815,0.201-5.534,0.571-8.074h21.412C661.24,227.63,661.441,230.35,661.441,233.164z"/>
		<ellipse style="fill:#04294F;" cx="636.166" cy="225.091" rx="27.385" ry="4.294"/>
	</g>
	<path style="fill:#FFFFFF;" d="M448.94,336.524c3.542-3.17,6.792-6.77,10.946-9.081c4.154-2.311,9.603-3.082,13.532-0.407   c3.736,2.544,5.112,7.628,4.303,12.075s-3.426,8.353-6.325,11.821c-14.51,17.358-38.047,26.715-60.514,24.058   c-6.089-0.72-12.512-2.528-16.389-7.278c-2.764-3.387-4.587-12.48,0.518-14.961c2.085-1.013,5.861,0.245,8.124,0.316   c3.322,0.104,6.652-0.052,9.951-0.456C426.281,350.997,439.019,345.405,448.94,336.524z"/>
	<path style="fill:#FFFFFF;" d="M654.805,50.424c-4-18.667-20-38.667-54.667-18.5c-25-44.167-84.667-41.833-125.333,2.834   c-85.333-17.333-81.667,49.667-83,70.667c-55-8.667-64.667,28-62,61.333c-43.667,23.333-19.333,75.333,6,100.583   c2.333,34.25,25.667,62.417,66.478,72.083c40.812,9.667,45.188-52.333,80.52-37.825c35.331,14.508,45.336-18.008,45.336-34.258   v-30.378c0-8.929,7.238-16.167,16.167-16.167h0c8.929,0,16.167,7.238,16.167,16.167v40.999c0,3.474,2.556,6.431,5.998,6.906   c8.953,1.235,18.963-0.236,18.963-7.955c-8.702-124.392,8.4-111.468,80.854-92.49C750.805,206.562,773.471,57.424,654.805,50.424z"/>
	<ellipse style="fill:#04294F;" cx="124.471" cy="696.424" rx="57.333" ry="11.583"/>
	
		<ellipse transform="matrix(0.8099 -0.5866 0.5866 0.8099 27.5322 658.7664)" style="fill:#04294F;" cx="1030.063" cy="286.909" rx="57.477" ry="11.583"/>
	<path style="fill:#F04E23;" d="M959.846,221.335c-0.844,0.57-3.453-2.035-7.793-5.71c-0.544-0.456-1.113-0.934-1.706-1.432   c-0.59-0.497-1.256-0.957-1.906-1.471c-1.281-1.051-2.766-2.022-4.272-3.099c-3.098-2.043-6.596-4.114-10.442-5.959   c-3.87-1.797-7.692-3.182-11.238-4.274c-1.789-0.478-3.482-1.007-5.108-1.328c-0.81-0.175-1.588-0.397-2.347-0.537   c-0.761-0.142-1.492-0.278-2.19-0.407c-5.596-1.015-9.265-1.373-9.361-2.387c-0.043-0.472,0.831-0.972,2.499-1.474   c0.417-0.125,0.883-0.25,1.397-0.375c0.514-0.109,1.075-0.181,1.681-0.267c1.211-0.15,2.605-0.358,4.144-0.342   c0.773-0.005,1.582-0.01,2.426-0.016c0.845,0.009,1.714,0.109,2.623,0.174c1.823,0.102,3.735,0.457,5.758,0.813   c4.009,0.848,8.347,2.204,12.65,4.207c4.282,2.05,8.085,4.537,11.288,7.093c1.561,1.335,3.049,2.586,4.287,3.928   c0.628,0.66,1.258,1.267,1.802,1.914c0.532,0.655,1.042,1.283,1.529,1.883c0.99,1.177,1.716,2.386,2.37,3.416   c0.318,0.522,0.62,1.001,0.862,1.467c0.23,0.476,0.43,0.916,0.598,1.317C960.069,220.075,960.238,221.068,959.846,221.335z"/>
	<path style="fill:#F04E23;" d="M982.594,184.018c-0.869,0.507-3.184-2.006-6.932-5.697c-0.469-0.459-0.96-0.941-1.471-1.442   c-0.508-0.501-1.082-0.981-1.64-1.505c-1.099-1.067-2.377-2.093-3.668-3.217c-2.661-2.163-5.666-4.414-8.987-6.536   c-3.345-2.084-6.67-3.826-9.768-5.297c-1.57-0.681-3.047-1.392-4.483-1.925c-0.714-0.278-1.393-0.59-2.065-0.832   c-0.673-0.246-1.319-0.482-1.935-0.707c-4.945-1.793-8.21-2.801-8.126-3.803c0.061-0.884,3.578-1.603,9.249-0.924   c0.705,0.102,1.444,0.209,2.214,0.32c0.769,0.124,1.55,0.328,2.369,0.51c1.648,0.341,3.349,0.905,5.149,1.491   c3.554,1.279,7.352,3.04,11.064,5.356c3.689,2.353,6.913,5.022,9.598,7.679c1.304,1.372,2.546,2.664,3.563,4.005   c0.517,0.661,1.037,1.278,1.48,1.919c0.432,0.647,0.846,1.268,1.242,1.86C982.501,180.099,983.366,183.583,982.594,184.018z"/>
	<path style="fill:#F04E23;" d="M1007.521,164.684c-0.987,0.198-2.329-2.765-4.634-7.179c-0.289-0.55-0.592-1.126-0.907-1.726   c-0.312-0.599-0.694-1.195-1.046-1.828c-0.682-1.278-1.545-2.566-2.387-3.947c-1.789-2.704-3.87-5.576-6.286-8.408   c-2.451-2.803-4.991-5.279-7.406-7.441c-1.244-1.034-2.392-2.075-3.558-2.935c-0.575-0.44-1.11-0.905-1.657-1.3   c-0.548-0.399-1.074-0.782-1.576-1.148c-4.032-2.922-6.769-4.68-6.429-5.628c0.285-0.837,3.722-0.682,8.783,1.378   c0.624,0.273,1.278,0.56,1.96,0.858c0.677,0.311,1.342,0.702,2.05,1.081c1.431,0.739,2.845,1.708,4.345,2.722   c2.926,2.121,5.934,4.769,8.687,7.922c2.72,3.182,4.903,6.543,6.576,9.746c0.786,1.632,1.539,3.171,2.062,4.694   c0.273,0.755,0.563,1.47,0.772,2.186c0.196,0.718,0.384,1.406,0.564,2.063C1008.736,161.101,1008.39,164.523,1007.521,164.684z"/>
	<path style="fill:#F04E23;" d="M931.768,241.504c0.004,0.237-0.48,0.481-1.418,0.719c-0.94,0.232-2.333,0.481-4.201,0.56   c-1.858,0.057-4.249-0.019-6.971-1c-1.342-0.495-2.746-1.206-4.074-2.254c-1.332-1.039-2.581-2.414-3.513-4.142   c-0.949-1.762-1.479-3.771-1.53-5.934c-0.033-2.144,0.402-4.558,1.952-6.76c0.772-1.081,1.79-2.031,2.957-2.712   c1.16-0.692,2.418-1.136,3.652-1.391c1.241-0.267,2.463-0.346,3.664-0.346c0.604-0.001,1.177,0.056,1.763,0.102   c0.582,0.063,1.181,0.064,1.76,0.186c2.357,0.321,4.689,1.026,6.974,1.94c2.278,0.941,4.447,2.209,6.516,3.675   c4.097,2.986,7.654,6.96,10.25,11.632c1.341,2.323,2.286,4.782,3.087,7.289c0.761,2.572,1.152,5.172,1.187,7.782   c0.047,2.603-0.297,5.239-1.199,7.786c-0.879,2.532-2.526,5.003-4.804,6.687c-2.296,1.718-5.145,2.412-7.64,2.36   c-2.522-0.051-4.778-0.709-6.756-1.611c-2.008-0.917-3.659-2.093-5.108-3.241c-1.457-1.16-2.715-2.334-3.886-3.433   c-2.322-2.205-4.308-4.131-6.191-5.502c-1.89-1.389-3.669-2.328-5.196-2.839c-3.062-1.056-5.038-0.6-5.188-1.121   c-0.067-0.203,0.325-0.626,1.281-1.004c0.943-0.374,2.493-0.71,4.454-0.492c1.966,0.181,4.28,0.918,6.68,2.197   c2.43,1.284,4.822,3.131,7.32,5.073c1.25,0.964,2.53,1.957,3.871,2.855c1.347,0.902,2.742,1.725,4.186,2.263   c1.456,0.555,3.03,0.874,4.502,0.816c1.473-0.071,2.79-0.499,3.848-1.364c1.058-0.886,1.914-2.153,2.428-3.791   c0.517-1.625,0.752-3.519,0.669-5.489c-0.063-1.967-0.4-4.011-1.004-5.966c-0.665-1.979-1.445-4.029-2.544-5.912   c-4.223-7.662-11.523-13.043-18.755-14.34c-0.447-0.122-0.902-0.127-1.349-0.2c-0.448-0.056-0.9-0.128-1.321-0.146   c-0.846-0.041-1.656-0.025-2.373,0.091c-1.461,0.219-2.475,0.755-3.175,1.587c-0.703,0.815-1.13,2.102-1.208,3.407   c-0.087,1.307,0.135,2.641,0.592,3.732c0.937,2.294,2.846,3.973,4.772,5.015c1.929,1.047,3.942,1.518,5.614,1.848   c1.684,0.321,3.058,0.508,3.99,0.723C931.265,241.048,931.764,241.267,931.768,241.504z"/>
	<path style="fill:#F04E23;" d="M929.008,161.221c0.257,0.944-1.037,2.13-2.886,3.7c-0.936,0.776-1.997,1.699-3.138,2.714   c-1.122,1.044-2.313,2.194-3.496,3.474c-1.164,1.297-2.198,2.59-3.133,3.804c-0.904,1.23-1.724,2.373-2.41,3.377   c-1.391,1.988-2.451,3.387-3.415,3.219c-0.899-0.147-1.539-1.984-1.141-4.906c0.189-1.456,0.694-3.135,1.508-4.898   c0.841-1.743,2.009-3.556,3.511-5.223c1.52-1.651,3.215-2.982,4.873-3.982c1.679-0.974,3.304-1.634,4.736-1.958   C926.889,159.873,928.777,160.34,929.008,161.221z"/>
	<path style="fill:#F04E23;" d="M967.948,131.224c-0.18,0.959-1.642,1.512-3.617,2.144c-0.994,0.303-2.127,0.673-3.348,1.073   c-1.217,0.432-2.52,0.911-3.864,1.484c-1.335,0.595-2.573,1.223-3.718,1.821c-1.124,0.622-2.166,1.201-3.065,1.722   c-1.807,1.016-3.208,1.711-4.033,1.19c-0.777-0.481-0.778-2.24,0.5-4.526c0.628-1.141,1.606-2.351,2.877-3.509   c1.286-1.132,2.876-2.193,4.692-2.996c1.825-0.784,3.684-1.226,5.389-1.398c1.713-0.143,3.265-0.036,4.529,0.281   C966.837,129.13,968.124,130.328,967.948,131.224z"/>
	<path style="fill:#F04E23;" d="M998.472,281.841c0.845,0.814,0.774,2.473-0.283,4.447c-1.044,1.966-3.114,4.2-5.924,5.896   c-2.812,1.692-5.754,2.479-7.98,2.483c-2.239,0.012-3.739-0.7-4.064-1.828c-0.332-1.149,0.501-2.488,1.91-3.85   c1.422-1.365,3.412-2.787,5.702-4.161c2.285-1.382,4.472-2.478,6.343-3.097C996.039,281.122,997.611,281.01,998.472,281.841z"/>
	<path style="fill:#F04E23;" d="M149.404,778.014c-0.992,0.135-2.105-3.502-6.261-7.586c-2.031-2.088-4.782-4.21-8.118-6.651   c-1.66-1.229-3.452-2.545-5.282-4.083c-1.828-1.517-3.697-3.334-5.346-5.373c-0.86-0.994-1.575-2.074-2.318-3.11   c-0.663-1.087-1.359-2.133-1.904-3.237c-1.18-2.16-2.042-4.375-2.743-6.508c-1.345-4.293-1.816-8.338-1.748-11.694   c0.069-3.364,0.638-6.03,1.249-7.792c0.654-1.761,1.286-2.639,1.741-2.549c1.004,0.196,0.821,4.117,1.855,9.983   c0.524,2.929,1.406,6.338,2.859,9.906c0.755,1.77,1.597,3.604,2.672,5.385c0.494,0.916,1.115,1.772,1.684,2.678   c0.646,0.851,1.246,1.757,1.967,2.581c2.696,3.388,6.107,6.083,9.286,8.882c3.177,2.753,6.074,5.655,7.94,8.545   c1.913,2.856,2.835,5.61,3.053,7.535C150.206,776.873,149.851,777.948,149.404,778.014z"/>
	<path style="fill:#F04E23;" d="M42.941,773.759c-0.228-0.939,2.378-2.354,6.513-4.091c4.103-1.779,9.719-3.909,14.548-7.707   c2.394-1.89,4.335-4.011,5.652-6.15c1.333-2.146,2.126-4.362,2.56-6.288c0.876-3.867,0.282-6.611,1.197-7.032   c0.409-0.188,1.168,0.261,1.958,1.485c0.787,1.212,1.533,3.234,1.694,5.851c0.147,2.603-0.33,5.772-1.815,8.949   c-1.478,3.192-3.946,6.18-6.995,8.584c-3.056,2.393-6.347,4.008-9.382,5.063c-3.038,1.061-5.819,1.62-8.146,1.935   C46.067,774.945,43.161,774.663,42.941,773.759z"/>
	<path style="fill:#F04E23;" d="M87.243,745.795c0.455-0.05,1.042,0.992,1.531,3.014c0.494,2.018,0.782,5.03,0.492,8.758   c-0.282,3.723-1.258,8.146-3.25,12.737c-1.979,4.585-5.054,9.299-9.232,13.386c-4.22,4.044-9.031,6.965-13.678,8.794   c-4.653,1.842-9.105,2.674-12.835,2.835c-3.735,0.17-6.736-0.216-8.737-0.775c-2.005-0.554-3.028-1.176-2.962-1.628   c0.14-1.032,4.528-0.932,11.056-2.412c3.26-0.726,7.039-1.927,10.938-3.819c3.899-1.883,7.877-4.526,11.438-7.931   c3.519-3.449,6.289-7.34,8.298-11.176c2.017-3.836,3.34-7.574,4.171-10.809C86.165,750.291,86.207,745.902,87.243,745.795z"/>
	<path style="fill:#F04E23;" d="M105.731,749.629c0.436-0.12,1.204,0.885,1.997,2.951c0.803,2.06,1.481,5.226,1.574,9.204   c0.108,3.976-0.533,8.729-2.096,13.74c-1.569,5.006-4.107,10.231-7.545,15.181c-3.45,4.898-7.323,9.053-11.065,12.491   c-3.747,3.443-7.343,6.217-10.444,8.398c-6.216,4.343-10.404,6.471-10.986,5.747c-0.607-0.754,2.556-4.265,7.871-9.476   c5.265-5.24,12.717-12.196,18.992-21.097c3.079-4.438,5.499-9.004,7.203-13.342c1.695-4.341,2.731-8.428,3.219-11.93   C105.485,754.486,104.706,749.899,105.731,749.629z"/>
	<path style="fill:#F04E23;" d="M195.306,775.087c-0.333,0.907-1.605,1.323-3.239,1.645c-1.649,0.313-3.692,0.572-5.924,0.937   c-2.229,0.383-4.245,0.803-5.906,1.046c-1.65,0.229-2.987,0.25-3.598-0.499c-0.588-0.713-0.255-2.166,1.193-3.722   c0.716-0.778,1.715-1.534,2.934-2.185c1.224-0.631,2.671-1.145,4.242-1.415c1.574-0.256,3.109-0.243,4.472-0.045   c1.365,0.219,2.556,0.607,3.487,1.109C194.841,772.956,195.63,774.221,195.306,775.087z"/>
	<path style="fill-rule:evenodd;clip-rule:evenodd;fill:#F04E23;" d="M158.727,822.481c-0.889,1.977-0.62,4.658,1.185,5.859   c1.346,0.896,3.124,0.748,4.693,0.359c3.674-0.911,7.051-2.984,9.525-5.849c1.125-1.302,2.106-2.911,1.955-4.625   c-0.163-1.837-1.677-3.378-3.441-3.918c-1.764-0.54-3.704-0.206-5.385,0.553C164.177,816.251,160.14,819.339,158.727,822.481z"/>
	<path style="fill:#F04E23;" d="M194.084,794.007c-0.786,0.567-2.021,0.273-3.451-0.184c-1.44-0.476-3.129-1.114-5.022-1.717   c-1.901-0.581-3.652-1.017-5.107-1.444c-1.437-0.438-2.62-0.899-2.944-1.812c-0.314-0.863,0.439-2.117,2.315-3.006   c0.928-0.448,2.116-0.745,3.462-0.837c1.341-0.068,2.834,0.086,4.32,0.541c1.481,0.471,2.797,1.194,3.861,2.012   c1.054,0.841,1.863,1.762,2.371,2.658C194.927,792.015,194.834,793.475,194.084,794.007z"/>
	<path style="fill:#F04E23;" d="M119.906,736.067c0.344,0.301,0.191,1.197-0.584,2.489c-0.761,1.303-2.207,2.943-4.34,4.562   c-2.126,1.627-4.979,3.134-8.363,4.22c-3.385,1.059-7.323,1.649-11.469,1.38c-4.148-0.271-7.994-1.38-11.211-2.922   c-3.223-1.544-5.813-3.529-7.675-5.468c-1.862-1.953-2.986-3.861-3.498-5.285c-0.527-1.421-0.493-2.334-0.099-2.56   c0.891-0.503,2.884,1.752,6.705,4.111c1.914,1.172,4.27,2.397,7.022,3.367c2.751,0.968,5.884,1.684,9.205,1.901   c3.322,0.216,6.54-0.082,9.418-0.649c2.873-0.593,5.429-1.407,7.512-2.289C116.716,737.202,119.139,735.403,119.906,736.067z"/>
	<path style="fill:#04294F;" d="M21.494,831.686c0.839-0.021,1.121,4.253,3.606,11.149c1.283,3.426,3.22,7.465,6.148,11.666   c0.674,1.086,1.574,2.074,2.39,3.159c0.831,1.077,1.842,2.064,2.784,3.149c2.051,2.023,4.272,4.105,6.883,5.912   c5.127,3.731,11.464,6.694,18.676,7.958c3.596,0.692,7.42,0.836,11.319,0.609c3.899-0.25,7.905-0.907,11.862-2.123   c7.896-2.417,15.688-6.775,21.977-13.064c6.286-6.267,11.057-14.575,13.614-23.788c2.57-9.216,2.862-18.839,1.133-27.68   c-1.748-8.842-5.544-16.968-10.363-23.851c-4.802-6.932-10.739-12.546-16.84-16.989c-6.164-4.356-12.563-7.591-18.666-9.568   c-6.095-2.016-11.889-2.762-16.937-2.61c-5.056,0.169-9.376,1.237-12.77,2.468c-3.395,1.258-5.889,2.665-7.589,3.654   c-0.852,0.495-1.52,0.873-1.996,1.108c-0.485,0.226-0.801,0.285-0.927,0.16c-0.127-0.125-0.062-0.431,0.196-0.918   c0.248-0.497,0.71-1.151,1.398-1.946c1.37-1.586,3.707-3.697,7.222-5.694c3.512-1.966,8.215-3.792,13.969-4.573   c5.74-0.767,12.441-0.45,19.449,1.347c7.017,1.76,14.305,4.932,21.458,9.506c7.07,4.656,14.007,10.737,19.723,18.484   c5.728,7.698,10.353,16.991,12.566,27.405c2.18,10.384,1.919,21.628-1.1,32.468c-3.007,10.831-8.727,20.714-16.449,28.204   c-7.72,7.498-17.068,12.429-26.464,15.009c-4.708,1.294-9.464,1.923-14.088,2.044c-4.624,0.098-9.146-0.275-13.392-1.288   c-1.073-0.186-2.104-0.528-3.134-0.817c-1.028-0.3-2.052-0.571-3.029-0.979c-0.982-0.379-1.955-0.755-2.918-1.127   c-0.928-0.446-1.846-0.888-2.756-1.326c-3.575-1.853-6.825-3.952-9.606-6.324c-2.851-2.288-5.212-4.847-7.328-7.327   c-0.974-1.314-1.998-2.523-2.826-3.817c-0.813-1.304-1.69-2.499-2.33-3.788c-2.786-5.01-4.342-9.722-5.121-13.631   c-0.724-3.931-0.813-7.021-0.625-9.094C20.842,832.743,21.138,831.687,21.494,831.686z"/>
	<path style="fill:#04294F;" d="M32.876,905.444c-0.278,0.222-0.873-0.018-1.785-0.726c-0.439-0.365-1.026-0.799-1.562-1.439   c-0.532-0.643-1.129-1.412-1.781-2.312c-0.516-0.967-1.183-2.033-1.691-3.305c-0.23-0.651-0.47-1.329-0.72-2.035   c-0.266-0.709-0.349-1.49-0.53-2.288c-0.597-3.197-0.555-7.07,0.602-11.066c1.137-3.995,3.342-8.064,6.521-11.687   c0.402-0.45,0.807-0.905,1.215-1.363c0.444-0.42,0.892-0.843,1.343-1.27c0.885-0.882,1.883-1.65,2.9-2.43   c0.988-0.826,2.124-1.457,3.222-2.188c0.511-0.366,1.245-0.679,1.894-1.009l1.01-0.485c0.334-0.172,0.681-0.315,1.048-0.42   c2.85-1.089,6.012-1.46,9.133-1.329c3.139,0.156,6.16,1.012,9.021,2.181c2.88,1.168,5.479,2.854,7.926,4.755   c2.449,1.906,4.637,4.169,6.568,6.707c1.924,2.556,3.564,5.27,4.717,8.375c1.131,3.05,1.716,6.194,1.836,9.286   c0.235,6.175-1.376,12.216-4.615,17.095c-1.612,2.435-3.636,4.549-5.893,6.208c-2.253,1.618-4.656,2.786-7.032,3.557   c-4.77,1.546-9.357,1.7-13.374,1.165c-4.027-0.546-7.491-1.78-10.275-3.264c-2.792-1.483-4.929-3.172-6.452-4.745   C33.077,908.22,32.354,905.834,32.876,905.444c0.591-0.474,2.371,0.967,5.693,2.792c1.664,0.904,3.753,1.853,6.244,2.613   c2.484,0.764,5.404,1.293,8.58,1.305c3.163,0.014,6.643-0.531,9.861-1.913c1.61-0.685,3.126-1.603,4.473-2.725   c1.305-1.131,2.46-2.502,3.393-4.103c1.874-3.187,2.837-7.307,2.556-11.508c-0.137-2.096-0.581-4.204-1.345-6.177   c-0.734-1.927-1.941-3.924-3.328-5.755c-1.4-1.842-3.011-3.545-4.784-4.951c-1.762-1.401-3.614-2.67-5.543-3.494   c-1.914-0.833-3.849-1.46-5.714-1.62c-1.854-0.132-3.649-0.043-5.308,0.491c-0.217,0.036-0.422,0.108-0.618,0.207l-0.603,0.253   c-0.409,0.186-0.79,0.267-1.245,0.557c-0.863,0.515-1.79,0.923-2.576,1.509c-0.818,0.543-1.637,1.067-2.355,1.689   c-0.374,0.296-0.744,0.59-1.112,0.881c-0.338,0.322-0.672,0.641-1.004,0.958c-2.661,2.538-4.625,5.389-5.852,8.214   c-2.497,5.697-1.867,11.036-0.899,14.622c0.303,0.879,0.56,1.687,0.765,2.413c0.21,0.724,0.492,1.296,0.632,1.819   C33.104,904.55,33.153,905.222,32.876,905.444z"/>
	
		<ellipse transform="matrix(0.3135 -0.9496 0.9496 0.3135 -873.3804 684.9612)" style="fill:#04294F;" cx="37.052" cy="946.54" rx="32.57" ry="5.153"/>
	<path style="fill:#04294F;" d="M31.631,956.209c-0.009,1.413-1.458,2.713-3.923,3.488c-2.451,0.778-5.915,0.979-9.587,0.237   c-3.672-0.746-6.784-2.28-8.739-3.95c-1.968-1.673-2.797-3.435-2.255-4.74c0.548-1.323,2.308-1.97,4.638-2.147   c2.341-0.171,5.266,0.097,8.403,0.737c3.138,0.632,5.937,1.523,8.027,2.592C30.272,953.496,31.641,954.776,31.631,956.209z"/>
	<path style="fill:#04294F;" d="M90.625,870.027c0.739,0.138,0.835,2.702,1.144,7.109c0.313,4.396,0.975,10.706,3.262,18.02   c1.153,3.646,2.694,7.537,4.799,11.456c0.55,0.967,1.067,1.97,1.686,2.936c0.298,0.473,0.601,1.015,0.898,1.444   c0.303,0.408,0.573,0.839,0.894,1.242c1.266,1.624,2.834,3.12,4.569,4.253c1.73,1.136,3.63,1.873,5.361,2.01   c1.741,0.151,3.28-0.24,4.806-1.33l0.567-0.439c0.194-0.136,0.39-0.275,0.564-0.484c0.347-0.385,0.764-0.726,1.084-1.123   c0.651-0.776,1.22-1.656,1.692-2.659c0.947-2.002,1.529-4.449,1.812-7.116c0.295-2.659,0.265-5.5,0.153-8.351   c-0.118-2.831-0.372-5.617-0.745-8.34c-0.745-5.447-1.969-10.636-3.519-15.462c-0.772-2.39-1.666-4.779-2.548-6.905   c-0.904-2.089-1.91-4.031-3.054-5.647c-1.128-1.64-2.383-2.943-3.67-3.83c-1.275-0.902-2.636-1.325-3.98-1.462   c-2.723-0.221-5.596,1.163-7.597,2.883c-2.02,1.728-3.429,3.898-4.466,5.733c-1.038,1.861-1.75,3.446-2.336,4.506   C91.425,869.538,90.978,870.094,90.625,870.027c-0.345-0.065-0.583-0.745-0.649-2.008c-0.053-1.261,0.046-3.113,0.618-5.49   c0.6-2.359,1.634-5.31,4.051-8.282c1.213-1.455,2.742-2.855,4.67-4.006c1.929-1.123,4.288-2.041,7.006-2.178   c2.693-0.128,5.603,0.503,8.112,1.905c2.52,1.378,4.64,3.317,6.393,5.463c1.781,2.147,3.214,4.521,4.485,7.01   c1.224,2.49,2.293,4.945,3.303,7.606c1.987,5.282,3.566,11.032,4.544,17.114c0.49,3.04,0.83,6.163,1,9.343   c0.158,3.157,0.23,6.443-0.146,9.934c-0.375,3.466-1.164,7.063-2.834,10.497c-0.832,1.71-1.908,3.356-3.19,4.824   c-0.632,0.739-1.345,1.36-2.024,2.025c-0.325,0.335-0.719,0.632-1.122,0.921l-1.195,0.862c-0.381,0.298-0.842,0.525-1.288,0.761   l-1.347,0.684c-0.927,0.399-1.923,0.695-2.89,0.979c-1.002,0.159-2.008,0.396-3.004,0.408c-0.995,0.007-2.002,0.056-2.945-0.117   c-3.854-0.49-7.104-2.099-9.747-4.02c-2.652-1.943-4.773-4.247-6.472-6.734c-0.428-0.619-0.799-1.277-1.189-1.908   c-0.368-0.628-0.634-1.192-0.949-1.785c-0.628-1.158-1.142-2.349-1.678-3.501c-2.051-4.656-3.367-9.216-4.179-13.422   c-1.602-8.444-1.125-15.427-0.192-20.037C88.713,872.24,89.969,869.898,90.625,870.027z"/>
	
		<ellipse transform="matrix(0.9771 -0.213 0.213 0.9771 -205.2307 49.5518)" style="fill:#04294F;" cx="127.381" cy="977.363" rx="5.153" ry="58.057"/>
	<path style="fill:#04294F;" d="M166.582,1011.94c0.002,1.438-3.065,2.701-7.925,3.837c-4.867,1.134-11.525,2.198-18.889,3.201   c-7.363,1.011-14.063,1.773-19.055,1.988c-4.986,0.21-8.28-0.183-8.664-1.569c-0.376-1.356,2.27-3.46,7.01-5.529   c4.73-2.069,11.572-4.039,19.312-5.101c7.742-1.055,14.861-0.994,19.973-0.271C163.467,1009.217,166.581,1010.532,166.582,1011.94z   "/>
	
		<ellipse transform="matrix(0.9816 -0.191 0.191 0.9816 -188.6523 43.5842)" style="fill:#04294F;" cx="131.764" cy="1000.414" rx="14.022" ry="5.153"/>
	<path style="fill:#F04E23;" d="M748.931,693.511c-4.445-1.258-9.223-0.398-12.95,2.332l-46.256,33.882   c-3.857,2.825-6.136,7.32-6.136,12.101v117.757c0,6.715,4.463,12.612,10.926,14.436l30.912,8.724   c4.442,1.254,9.214,0.392,12.938-2.335l46.262-33.887c3.857-2.825,6.136-7.32,6.136-12.101V713.637   c0-4.925-3.274-9.25-8.014-10.587L748.931,693.511z"/>
	<path style="fill:#FFB400;" d="M721.441,738.757c-4.971,0-9-4.029-9-9v-50c0-4.971,4.029-9,9-9s9,4.029,9,9v50   C730.441,734.728,726.411,738.757,721.441,738.757z"/>
	
		<ellipse transform="matrix(0.8017 -0.5977 0.5977 0.8017 -289.6136 599.6177)" style="fill:#FFB400;" cx="758.96" cy="736.326" rx="32.351" ry="4.294"/>
	<ellipse style="fill:#FFB400;" cx="732.471" cy="811.346" rx="4.294" ry="54.256"/>
	
		<ellipse transform="matrix(0.4004 -0.9164 0.9164 0.4004 -260.9666 1100.0353)" style="fill:#FFB400;" cx="710.046" cy="749.42" rx="4.294" ry="22.389"/>
	<path style="fill:#00AEE0;" d="M1090.685,297.009c0.208,1.234-4.881,3.029-12.817,6.018c-0.99,0.374-2.028,0.766-3.109,1.175   c-1.08,0.404-2.181,0.891-3.335,1.344c-2.317,0.881-4.728,1.98-7.286,3.061c-5.068,2.284-10.554,4.94-16.157,8.027   c-5.578,3.132-10.727,6.393-15.341,9.494c-2.267,1.603-4.473,3.072-6.443,4.576c-0.994,0.741-1.988,1.42-2.901,2.124   c-0.917,0.703-1.798,1.378-2.638,2.022c-6.724,5.166-10.934,8.542-11.872,7.716c-0.444-0.393,0.043-1.75,1.331-3.894   c0.322-0.536,0.694-1.121,1.114-1.753c0.43-0.622,0.931-1.266,1.468-1.963c1.088-1.38,2.319-2.975,3.846-4.573   c0.759-0.808,1.553-1.655,2.382-2.537c0.839-0.873,1.771-1.716,2.716-2.616c1.871-1.823,4.026-3.591,6.292-5.463   c4.608-3.638,9.949-7.314,15.872-10.637c5.946-3.279,11.887-5.879,17.408-7.876c2.785-0.938,5.424-1.836,7.96-2.464   c1.263-0.327,2.471-0.675,3.655-0.927c1.186-0.238,2.325-0.467,3.411-0.686c2.164-0.455,4.168-0.66,5.915-0.856   c0.875-0.088,1.688-0.174,2.442-0.212c0.758-0.024,1.451-0.031,2.076-0.022C1089.175,296.123,1090.585,296.424,1090.685,297.009z"/>
	<path style="fill:#00AEE0;" d="M163.848,664.802c0.339,1.072-3.948,3.664-11.604,5.984c-0.961,0.271-1.968,0.556-3.017,0.852   c-1.054,0.283-2.165,0.499-3.313,0.753c-2.293,0.533-4.779,0.888-7.399,1.269c-5.25,0.643-11.085,0.961-17.199,0.721   c-6.112-0.284-11.899-1.099-17.075-2.188c-2.578-0.603-5.024-1.169-7.264-1.896c-1.122-0.351-2.211-0.661-3.237-1.033   c-1.02-0.385-1.999-0.754-2.933-1.107c-7.43-2.965-11.48-5.914-11.051-6.953c0.466-1.153,5.242-0.242,12.723,1.115   c0.934,0.169,1.912,0.347,2.932,0.531c1.016,0.189,2.087,0.324,3.181,0.511c2.185,0.397,4.542,0.674,7.002,1.035   c4.94,0.607,10.369,1.137,16.088,1.405c5.721,0.222,11.175,0.158,16.149-0.025c2.481-0.15,4.854-0.224,7.065-0.433   c1.106-0.092,2.185-0.136,3.213-0.237c1.031-0.097,2.021-0.19,2.967-0.279C158.645,664.113,163.482,663.613,163.848,664.802z"/>
	
		<ellipse transform="matrix(0.9963 -0.0862 0.0862 0.9963 -58.5851 16.711)" style="fill:#00AEE0;" cx="164.241" cy="686.842" rx="4.294" ry="9.031"/>
	
		<ellipse transform="matrix(0.9138 -0.4061 0.4061 0.9138 -43.6265 434.6079)" style="fill:#00AEE0;" cx="1002.161" cy="320.092" rx="4.294" ry="7.386"/>
	<path style="fill:#00AEE0;" d="M692.167,411.181c0.245,0.916-3.593,2.801-10.791,5.436c-1.799,0.659-3.808,1.364-6.016,2.113   c-2.215,0.715-4.646,1.395-7.256,2.148c-5.229,1.458-11.179,3.212-17.87,4.627c-3.342,0.74-6.843,1.515-10.49,2.323   c-3.655,0.781-7.493,1.39-11.455,2.112c-1.984,0.346-4.002,0.698-6.052,1.055c-1.026,0.172-2.059,0.366-3.104,0.522   c-1.047,0.143-2.102,0.288-3.164,0.433c-4.255,0.567-8.634,1.15-13.124,1.748c-18.005,2.036-37.928,3.355-58.864,3.334   c-20.935-0.146-40.847-1.624-58.835-3.803c-4.486-0.634-8.86-1.252-13.11-1.853c-1.061-0.154-2.115-0.307-3.16-0.459   c-1.044-0.165-2.074-0.366-3.099-0.547c-2.048-0.374-4.063-0.741-6.044-1.103c-3.956-0.754-7.789-1.393-11.438-2.203   c-3.641-0.837-7.136-1.64-10.471-2.406c-6.679-1.468-12.615-3.27-17.832-4.769c-2.604-0.774-5.029-1.473-7.239-2.206   c-2.201-0.766-4.205-1.488-5.999-2.161c-7.177-2.692-10.999-4.608-10.747-5.522c0.252-0.914,4.549-0.744,12.056,0.336   c1.877,0.27,3.954,0.597,6.22,0.978c2.275,0.332,4.747,0.693,7.403,1.081c5.307,0.77,11.289,1.885,17.971,2.721   c3.326,0.478,6.811,0.978,10.442,1.499c3.628,0.523,7.43,0.889,11.343,1.386c1.958,0.24,3.949,0.484,5.973,0.732   c1.012,0.121,2.029,0.264,3.058,0.371c1.031,0.096,2.07,0.192,3.116,0.289c4.18,0.404,8.483,0.819,12.895,1.245   c17.667,1.446,37.114,2.509,57.552,2.653c20.439,0.019,39.893-0.889,57.571-2.194c4.416-0.391,8.721-0.772,12.905-1.142   c1.047-0.089,2.086-0.177,3.118-0.264c1.03-0.099,2.048-0.234,3.061-0.346c2.025-0.232,4.019-0.46,5.978-0.684   c3.918-0.466,7.722-0.802,11.354-1.296c3.635-0.492,7.124-0.965,10.454-1.416c6.688-0.783,12.679-1.85,17.992-2.578   c2.659-0.367,5.134-0.708,7.411-1.022c2.269-0.363,4.349-0.674,6.228-0.929C687.625,410.401,691.923,410.265,692.167,411.181z"/>
	<path style="fill:#04294F;" d="M429.917,835.716c-1.258,0.664-2.998,0.202-5.115-1.307c-0.529-0.377-1.082-0.819-1.655-1.325   c-0.559-0.512-1.105-1.102-1.684-1.746c-1.137-1.297-2.409-2.817-3.529-4.637c-0.58-0.902-1.169-1.862-1.762-2.875   c-0.588-1.015-1.099-2.111-1.655-3.244c-1.142-2.258-2.071-4.777-3.019-7.454c-1.756-5.383-3.074-11.526-3.578-18.063   c-0.451-6.54-0.04-12.81,0.916-18.391c0.55-2.786,1.103-5.413,1.904-7.813c0.385-1.201,0.731-2.36,1.166-3.45   c0.44-1.089,0.883-2.124,1.326-3.101c0.844-1.963,1.881-3.652,2.818-5.101c0.479-0.722,0.934-1.385,1.413-1.973   c0.494-0.583,0.976-1.101,1.445-1.551c1.875-1.801,3.529-2.511,4.871-2.037c1.341,0.474,2.251,2.073,2.782,4.445   c0.132,0.593,0.241,1.236,0.326,1.922c0.099,0.691,0.211,1.437,0.284,2.218c0.167,1.568,0.178,3.28,0.303,5.174   c0.042,0.942,0.065,1.917,0.067,2.922c0.03,1.005,0.06,2.051,0.092,3.133c-0.012,2.142,0.121,4.426,0.129,6.794   c0.163,4.753,0.35,9.902,0.716,15.305c0.423,5.398,0.986,10.52,1.516,15.247c0.335,2.345,0.536,4.624,0.859,6.741   c0.126,1.076,0.248,2.115,0.365,3.113c0.143,0.995,0.263,1.963,0.358,2.901c0.151,1.892,0.389,3.587,0.452,5.163   c0.042,0.783,0.04,1.538,0.041,2.236c0.016,0.691,0.002,1.343-0.043,1.949C431.844,833.338,431.176,835.052,429.917,835.716z"/>
	<path style="fill:#04294F;" d="M617.188,841.778c-1.233,0.71-3.008,0.269-5.22-1.251c-0.553-0.38-1.132-0.826-1.736-1.338   c-0.588-0.519-1.163-1.122-1.775-1.781c-1.201-1.326-2.558-2.879-3.749-4.755c-0.618-0.929-1.247-1.917-1.883-2.962   c-0.63-1.047-1.173-2.182-1.769-3.353c-1.226-2.334-2.218-4.949-3.238-7.728c-1.881-5.593-3.295-11.992-3.827-18.807   c-0.471-6.819-0.008-13.356,1.035-19.164c0.603-2.898,1.202-5.63,2.073-8.119c0.418-1.246,0.79-2.448,1.26-3.576   c0.476-1.127,0.954-2.197,1.429-3.206c0.904-2.03,2.019-3.764,3.014-5.252c0.51-0.741,0.99-1.421,1.495-2.021   c0.523-0.595,1.031-1.121,1.522-1.578c1.966-1.827,3.657-2.523,4.981-2.001s2.163,2.197,2.59,4.657   c0.106,0.615,0.187,1.28,0.241,1.99c0.071,0.715,0.157,1.489,0.199,2.297c0.11,1.624,0.049,3.388,0.121,5.348   c0.013,0.974,0.005,1.981-0.024,3.019c-0.022,1.039,0.031,2.131,0.012,3.239c-0.071,2.212,0.026,4.576-0.01,7.024   c0.092,4.917,0.238,10.243,0.616,15.831c0.443,5.583,1.078,10.874,1.705,15.751c0.393,2.417,0.643,4.77,1.037,6.947   c0.18,1.093,0.287,2.181,0.461,3.206c0.18,1.023,0.335,2.018,0.465,2.983c0.215,1.95,0.534,3.686,0.663,5.308   c0.076,0.805,0.104,1.583,0.138,2.301c0.05,0.71,0.068,1.379,0.053,2.004C619.007,839.289,618.421,841.068,617.188,841.778z"/>
	<path style="fill:#00AEE0;" d="M738.048,1131.403c0.28,1.106-4.274,3.449-12.16,5.6c-1.97,0.532-4.143,1.069-6.501,1.516   c-2.35,0.504-4.888,0.875-7.563,1.264c-5.357,0.69-11.297,1.13-17.54,1.138c-6.242-0.026-12.181-0.485-17.536-1.191   c-2.674-0.396-5.21-0.776-7.559-1.287c-2.356-0.454-4.527-0.998-6.496-1.535c-7.88-2.175-12.426-4.532-12.143-5.637   c0.64-2.412,19.92,1.126,43.747,1.062C718.125,1132.469,737.416,1128.989,738.048,1131.403z"/>
	<path style="fill:#00AEE0;" d="M362.139,1117.021c-0.686,0.904-5.226-1.079-11.565-5.801c-0.781-0.603-1.6-1.235-2.452-1.894   c-0.845-0.669-1.679-1.415-2.561-2.171c-1.778-1.499-3.55-3.234-5.418-5.063c-3.664-3.724-7.453-8.07-11.038-12.931   c-3.554-4.883-6.555-9.807-9.001-14.423c-1.181-2.333-2.301-4.545-3.194-6.692c-0.456-1.068-0.915-2.088-1.298-3.096   c-0.371-1.012-0.727-1.983-1.066-2.909c-2.591-7.468-3.114-12.395-2.044-12.776c2.364-0.827,9.935,16.453,23.533,34.821   C349.446,1102.588,363.64,1115.016,362.139,1117.021z"/>
	<path style="fill:#00AEE0;" d="M381.437,124.365c-0.165,1.236-3.43,1.675-8.063,3.036c-4.623,1.319-10.722,3.825-15.966,8.4   c-5.235,4.586-8.534,10.295-10.459,14.7c-1.969,4.41-2.841,7.587-4.087,7.585c-0.581-0.003-1.155-0.825-1.559-2.398   c-0.407-1.57-0.569-3.894-0.223-6.748c0.34-2.85,1.266-6.211,2.993-9.661c1.717-3.446,4.289-6.951,7.682-9.944   c3.419-2.962,7.237-5.043,10.882-6.284c3.65-1.25,7.105-1.719,9.975-1.674c2.874,0.039,5.156,0.51,6.657,1.123   C380.774,123.11,381.512,123.789,381.437,124.365z"/>
	<path style="fill:#00AEE0;" d="M446.418,56.336c-0.274,1.223-3.577,1.348-8.25,2.472c-4.65,1.069-10.827,3.432-15.865,8.091   c-5.022,4.677-7.839,10.661-9.252,15.218c-1.469,4.576-1.841,7.861-3.081,8.043c-0.573,0.082-1.265-0.654-1.882-2.179   c-0.62-1.521-1.078-3.845-1.043-6.768c0.028-2.918,0.642-6.422,2.132-10.062c1.478-3.634,3.902-7.376,7.283-10.546   c3.413-3.135,7.326-5.273,11.06-6.477c3.741-1.215,7.281-1.565,10.193-1.375c2.917,0.183,5.201,0.813,6.672,1.545   C445.861,55.026,446.543,55.771,446.418,56.336z"/>
	<path style="fill:#00AEE0;" d="M575.014,31.504c-0.858,0.919-4.327-1.198-9.985-3.561c-5.619-2.388-13.699-4.818-22.71-4.686   c-9.011,0.143-17.014,2.819-22.557,5.377c-5.583,2.534-8.986,4.757-9.872,3.864c-0.408-0.412-0.094-1.537,0.984-3.17   c1.073-1.633,2.972-3.717,5.71-5.869c2.731-2.154,6.352-4.301,10.711-5.947c4.35-1.651,9.457-2.737,14.893-2.843   c5.436-0.061,10.574,0.869,14.973,2.386c4.408,1.513,8.092,3.548,10.888,5.617c2.802,2.067,4.763,4.092,5.886,5.692   C575.061,29.965,575.409,31.08,575.014,31.504z"/>
	<path style="fill:#00AEE0;" d="M332.752,243.759c-0.381,0.453-1.355,0.319-2.853-0.377c-0.374-0.174-0.781-0.383-1.217-0.626   c-0.424-0.256-0.842-0.579-1.304-0.922c-0.902-0.703-1.981-1.494-2.941-2.573c-0.501-0.523-1.02-1.082-1.555-1.674   c-0.528-0.597-0.984-1.28-1.498-1.967c-1.062-1.36-1.931-2.969-2.869-4.664c-1.718-3.454-3.136-7.511-3.869-11.922   c-0.672-4.421-0.584-8.718-0.023-12.534c0.366-1.903,0.693-3.701,1.28-5.324c0.275-0.813,0.497-1.604,0.813-2.335   c0.325-0.729,0.645-1.421,0.958-2.074c0.578-1.323,1.357-2.41,1.997-3.358c0.333-0.469,0.63-0.906,0.953-1.281   c0.34-0.367,0.661-0.692,0.963-0.973c1.208-1.127,2.091-1.557,2.594-1.244c0.503,0.313,0.589,1.33,0.353,2.822   c-0.059,0.373-0.139,0.776-0.239,1.206c-0.073,0.438-0.154,0.915-0.24,1.426c-0.168,1.014-0.486,2.095-0.631,3.353   c-0.097,0.619-0.207,1.259-0.33,1.919c-0.115,0.662-0.146,1.374-0.241,2.087c-0.226,1.422-0.241,2.971-0.358,4.569   c-0.062,3.22,0.082,6.736,0.631,10.392c0.613,3.646,1.567,7.033,2.626,10.075c0.607,1.483,1.102,2.951,1.758,4.232   c0.312,0.649,0.563,1.315,0.877,1.909c0.322,0.589,0.625,1.163,0.909,1.722c0.529,1.15,1.166,2.079,1.641,2.991   c0.24,0.46,0.464,0.887,0.671,1.281c0.228,0.378,0.429,0.736,0.601,1.072C332.898,242.312,333.133,243.306,332.752,243.759z"/>
	<path style="fill:#00AEE0;" d="M393.621,323.685c-0.372,1.063-4.154,0.985-9.766-1.063c-0.693-0.273-1.42-0.559-2.177-0.857   c-0.752-0.312-1.5-0.702-2.289-1.085c-1.593-0.745-3.191-1.721-4.881-2.75c-3.313-2.147-6.76-4.84-9.998-8.067   c-3.209-3.256-5.882-6.718-8.011-10.043c-1.02-1.695-1.986-3.299-2.722-4.896c-0.378-0.792-0.764-1.541-1.072-2.295   c-0.294-0.758-0.576-1.486-0.845-2.181c-2.017-5.624-2.073-9.406-1.008-9.772c1.168-0.415,3.229,2.523,6.396,6.972   c0.395,0.555,0.808,1.137,1.238,1.743c0.425,0.606,0.916,1.206,1.383,1.847c0.915,1.296,2.003,2.598,3.082,4.001   c2.249,2.743,4.793,5.668,7.648,8.569c2.885,2.871,5.796,5.432,8.526,7.697c1.397,1.087,2.693,2.182,3.984,3.104   c0.639,0.471,1.236,0.965,1.839,1.393c0.604,0.434,1.183,0.85,1.736,1.248C391.115,320.442,394.042,322.519,393.621,323.685z"/>
	<path style="fill:#00AEE0;" d="M697.891,163.854c-0.63-1.137,3.429-4.102,8.122-10.057c1.182-1.477,2.351-3.178,3.531-5.026   c1.118-1.892,2.279-3.918,3.243-6.166c1.988-4.458,3.423-9.65,3.83-15.162c0.329-5.517-0.403-10.853-1.78-15.536   c-0.657-2.356-1.537-4.519-2.395-6.543c-0.924-1.989-1.857-3.831-2.832-5.451c-3.859-6.526-7.488-10.005-6.712-11.048   c0.337-0.461,1.703-0.19,3.819,0.955c2.117,1.137,4.903,3.264,7.785,6.494c1.448,1.608,2.853,3.529,4.221,5.695   c1.301,2.199,2.596,4.634,3.606,7.354c2.083,5.402,3.271,11.858,2.856,18.652c-0.491,6.79-2.528,13.03-5.311,18.107   c-1.362,2.561-2.97,4.802-4.552,6.809c-1.644,1.964-3.292,3.681-4.941,5.083c-3.286,2.818-6.33,4.555-8.579,5.401   C699.554,164.269,698.164,164.356,697.891,163.854z"/>
	<path style="fill:#00AEE0;" d="M639.945,47.214c-1.197,0.262-2.559-1.474-4.652-3.546c-2.06-2.092-5.027-4.565-8.697-5.979   c-3.675-1.402-7.534-1.547-10.465-1.369c-2.941,0.141-5.115,0.521-5.83-0.474c-0.335-0.478-0.23-1.256,0.399-2.227   c0.625-0.97,1.807-2.086,3.541-3.071c1.728-0.987,4.027-1.784,6.706-2.05c2.67-0.271,5.728,0.039,8.723,1.171   c2.984,1.16,5.465,2.974,7.269,4.961c1.814,1.989,2.991,4.119,3.616,6.008c0.631,1.892,0.764,3.513,0.58,4.651   C640.956,46.434,640.514,47.083,639.945,47.214z"/>
	<path style="fill:#00AEE0;" d="M419.829,368.289c0.09,1.175-1.288,2.397-3.788,3.329c-2.48,0.889-6.285,1.584-10.744,0.494   c-2.188-0.547-4.232-1.517-5.874-2.773c-1.646-1.249-2.859-2.784-3.535-4.199c-0.683-1.417-0.872-2.692-0.767-3.613   c0.106-0.927,0.501-1.507,1.046-1.726c1.117-0.435,2.578,0.515,4.367,1.429c1.781,0.919,3.953,1.83,6.86,2.555   c2.838,0.722,5.913,1.123,8.305,1.771C418.097,366.187,419.738,367.1,419.829,368.289z"/>
	<path style="fill-rule:evenodd;clip-rule:evenodd;fill:#00AEE0;" d="M334.281,519.231c0,0,0,0-0.01,0.01   c-8.85,0.87-17.32,2.02-25.4,3.47c1.69-43.38,12.49-6.63,22.46-58.37C338.731,426.001,335.721,500.841,334.281,519.231z"/>
	<path style="fill:#00AEE0;" d="M260.409,703.211c-0.917,1.691-2.78,2.616-4.54,3.479c-0.45,0.212-0.896,0.395-1.36,0.608   c-0.451,0.164-0.922,0.395-1.386,0.541c-0.94,0.371-1.899,0.675-2.93,0.949c-1.023,0.303-2,0.544-2.995,0.716   c-0.473,0.117-0.994,0.164-1.465,0.259c-0.507,0.06-0.983,0.136-1.477,0.189c-1.952,0.18-4.024,0.361-5.687-0.605   c-0.812-0.49-1.387-1.254-1.641-2.34c-0.133-0.547-0.176-1.164-0.087-1.814c0.082-0.654,0.232-1.405,0.553-2.12   c0.302-0.739,0.71-1.516,1.266-2.243c0.529-0.771,1.216-1.457,1.981-2.157c1.56-1.331,3.564-2.463,5.835-3.114   c2.278-0.627,4.578-0.705,6.604-0.381c1.018,0.199,1.961,0.427,2.814,0.81c0.853,0.332,1.606,0.782,2.249,1.256   c0.647,0.442,1.166,1.006,1.576,1.521c0.414,0.508,0.699,1.058,0.871,1.594C260.941,701.418,260.847,702.37,260.409,703.211z"/>
	<path style="fill:#00AEE0;" d="M236.943,971.82c0.101,0.937-0.13,1.881-0.81,2.728c-0.675,0.846-1.804,1.562-3.316,1.936   c-1.506,0.376-3.384,0.369-5.363-0.217c-1.973-0.579-4.04-1.772-5.746-3.598c-1.695-1.836-2.733-3.985-3.165-5.995   c-0.439-2.017-0.307-3.89,0.178-5.364c0.483-1.48,1.281-2.554,2.174-3.164c0.895-0.616,1.853-0.777,2.78-0.607   c1.871,0.378,3.339,1.739,4.715,2.812c1.351,1.131,2.557,2.074,3.386,2.967c0.83,0.892,1.682,2.164,2.71,3.595   C235.455,968.362,236.704,969.927,236.943,971.82z"/>
	<path style="fill:#00AEE0;" d="M435.107,307.38c0.34,0.485,0.107,1.301-0.681,2.404c-0.197,0.276-0.428,0.569-0.693,0.878   c-0.272,0.297-0.595,0.578-0.943,0.887c-0.705,0.599-1.521,1.313-2.536,1.884c-0.5,0.304-1.032,0.614-1.594,0.929   c-0.564,0.309-1.181,0.548-1.815,0.828c-1.263,0.588-2.683,0.983-4.189,1.407c-3.028,0.719-6.481,1.078-10.081,0.824   c-3.596-0.301-6.953-1.185-9.835-2.36c-1.423-0.65-2.765-1.258-3.924-2.033c-0.583-0.374-1.156-0.705-1.667-1.096   c-0.507-0.397-0.985-0.786-1.433-1.162c-0.915-0.719-1.612-1.55-2.217-2.25c-0.297-0.359-0.573-0.686-0.796-1.022   c-0.215-0.346-0.398-0.672-0.551-0.974c-0.61-1.211-0.715-2.053-0.305-2.48c0.873-0.892,3.359,0.203,7.021,1.536   c0.464,0.16,0.942,0.334,1.43,0.522c0.491,0.182,1.032,0.312,1.563,0.49c1.051,0.382,2.229,0.634,3.421,0.977   c2.433,0.561,5.106,1.046,7.952,1.291c2.85,0.195,5.565,0.126,8.056-0.056c1.231-0.155,2.433-0.224,3.53-0.441   c0.552-0.095,1.106-0.14,1.62-0.245c0.511-0.111,1.009-0.21,1.493-0.296C431.757,307.066,434.382,306.365,435.107,307.38z"/>
	<path style="fill:#00AEE0;" d="M683.05,163.934c0.263,0.511-0.114,1.381-1.204,2.379c-1.082,0.997-2.887,2.123-5.325,2.992   c-2.432,0.861-5.482,1.468-8.858,1.538c-3.381,0.089-7.067-0.357-10.718-1.242c-3.661-0.884-6.957-2.085-9.839-3.292   c-2.882-1.216-5.364-2.428-7.436-3.559c-4.13-2.265-6.49-4.226-6.099-5.346s3.458-1.186,8.101-0.388   c2.317,0.394,5.051,1.028,7.982,1.8c2.933,0.767,6.07,1.656,9.304,2.435c3.239,0.782,6.261,1.361,9.021,1.684   c2.766,0.339,5.26,0.416,7.389,0.407C679.604,163.311,682.473,162.847,683.05,163.934z"/>
	<path style="fill:#00AEE0;" d="M698.333,122.774c0.578-0.07,1.229,0.508,1.797,1.731c0.57,1.219,0.988,3.095,0.978,5.46   c-0.005,2.361-0.51,5.198-1.756,8.134c-1.235,2.93-3.266,5.935-6.091,8.439c-2.849,2.476-6.093,4.099-9.158,4.944   c-3.073,0.854-5.952,0.987-8.293,0.685c-2.347-0.297-4.152-0.954-5.287-1.678c-1.14-0.722-1.627-1.443-1.484-2.007   c0.315-1.195,2.94-1.45,6.507-2.382c3.559-0.888,8.201-2.651,12.049-6.016c3.837-3.379,6.188-7.752,7.53-11.166   C696.514,125.5,697.107,122.931,698.333,122.774z"/>
	<path style="fill:#FFFFFF;" d="M583.189,296.865c0.51,1.045-0.239,2.659-2.24,4.14c-1.975,1.477-5.236,2.698-8.96,2.78   c-3.724,0.076-7.034-1.005-9.07-2.397c-2.063-1.395-2.879-2.975-2.414-4.041c0.478-1.105,2.04-1.566,4.046-1.808   c2.022-0.233,4.519-0.29,7.255-0.34c2.736-0.066,5.233-0.115,7.264,0.032C581.084,295.387,582.665,295.781,583.189,296.865z"/>
	<g>
		<g>
			<path style="fill:#00AEE0;" d="M405.241,1078.459c1.348,1.932-2.505,6.948-9.011,10.536c-6.5,3.602-12.805,4.19-13.719,2.017     c-0.93-2.197,3.5-6.168,9.565-9.534C398.152,1078.132,403.881,1076.499,405.241,1078.459z"/>
		</g>
		<g>
			<path style="fill:#00AEE0;" d="M436.432,1050.518c1.824,1.492-0.517,7.367-5.784,12.598c-5.256,5.242-11.141,7.557-12.625,5.726     c-1.507-1.85,1.65-6.905,6.566-11.813C429.52,1052.137,434.588,1049.003,436.432,1050.518z"/>
		</g>
		<g>
			<path style="fill:#00AEE0;" d="M458.723,1015.08c1.084,0.479,1.439,2.24,1.112,4.747c-0.302,2.513-1.352,5.746-3.164,8.971     c-3.61,6.499-8.637,10.337-10.568,8.98c-1.952-1.366-0.301-7.09,3.063-13.155c1.707-3.036,3.52-5.645,5.186-7.406     C456.038,1015.471,457.639,1014.601,458.723,1015.08z"/>
		</g>
		<g>
			<path style="fill:#00AEE0;" d="M470.184,974.812c2.339,0.286,3.501,6.502,1.845,13.739c-1.641,7.242-5.383,12.342-7.615,11.585     c-2.261-0.761-2.29-6.718-0.759-13.492C465.207,979.875,467.816,974.516,470.184,974.812z"/>
		</g>
		<g>
			<path style="fill:#00AEE0;" d="M470.188,932.94c2.328-0.369,5.153,5.294,5.535,12.712c0.397,7.416-1.812,13.341-4.165,13.223     c-2.383-0.114-4.036-5.84-4.411-12.772C466.794,939.17,467.83,933.307,470.188,932.94z"/>
		</g>
	</g>
	<g>
		<g>
			<path style="fill:#00AEE0;" d="M641.25,963.185c-2.371-0.072-4.048-5.968-3.747-13.169c0.301-7.2,2.466-12.935,4.834-12.81     c2.368,0.126,4.046,6.022,3.747,13.169C645.785,957.522,643.621,963.257,641.25,963.185z"/>
		</g>
		<g>
			<path style="fill:#00AEE0;" d="M640.552,1002.178c-2.372-0.004-4.218-5.85-4.123-13.055c0.094-7.206,2.094-13.001,4.464-12.943     c2.371,0.058,4.217,5.903,4.123,13.055S642.923,1002.183,640.552,1002.178z"/>
		</g>
		<g>
			<path style="fill:#00AEE0;" d="M640.971,1041.175c-2.371,0.064-4.384-5.726-4.495-12.932s1.72-13.055,4.092-13.065     s4.384,5.78,4.495,12.932C645.174,1035.262,643.341,1041.112,640.971,1041.175z"/>
		</g>
		<g>
			<path style="fill:#00AEE0;" d="M642.507,1080.145c-2.368,0.131-4.546-5.598-4.864-12.798c-0.318-7.199,1.346-13.099,3.716-13.177     c2.37-0.078,4.548,5.652,4.864,12.798C646.538,1074.114,644.875,1080.013,642.507,1080.145z"/>
		</g>
		<g>
			<path style="fill:#00AEE0;" d="M645.159,1119.054c-2.363,0.199-4.704-5.466-5.229-12.653c-0.524-7.187,0.969-13.132,3.337-13.278     c2.367-0.146,4.708,5.519,5.229,12.653C649.016,1112.91,647.523,1118.855,645.159,1119.054z"/>
		</g>
	</g>
</g>
</svg></g><!--ITEM: Illustration component 4--><g transform="translate(1758.3333333333333 850.0) rotate(45.50048594054877 287.4999999999999 126.38888888888891) translate(0.0 0.0) scale(0.6991484979250486 0.6989724030333253)"><svg width="822.429" height="361.6419999999999" viewBox="0.0 0.0 822.429 361.6419999999999"><g>
	
		<ellipse transform="matrix(0.9994 -0.0347 0.0347 0.9994 -5.0046 13.8704)" style="fill:#ffffff;" cx="396.774" cy="150.998" rx="27.026" ry="151.086"/>
	
		<ellipse transform="matrix(0.7303 -0.6831 0.6831 0.7303 -153.1533 134.8812)" style="fill:#ffffff;" cx="94.248" cy="261.406" rx="27.026" ry="134.879"/>
	
		<ellipse transform="matrix(0.6495 -0.7604 0.7604 0.6495 73.3869 638.98)" style="fill:#ffffff;" cx="729.776" cy="239.889" rx="139.069" ry="27.026"/>
</g>
</svg></g><!--ITEM: Illustration component 5--><g transform="translate(486.1111111111111 333.3333333333333) rotate(-12.99712016199632 484.7222222222222 180.55555555555557) translate(656.6323758240823 0.0) scale(7.84651232644369 7.830495080039707)"><svg width="39.86638338235292" height="45.76126153846153" viewBox="83.68461661764708 0.0 39.86638338235292 45.76126153846153"><title>Asset 32</title><g id="Layer_2-i5" data-name="Layer 2"><g id="Layer_1-2-i5" data-name="Layer 1"><path d="M35.728,10.447a50.56,50.56,0,0,1-.462,6.84q-.463,3.377-1.1,6.666-.172.866-.52,2.8t-.836,4.3q-.492,2.367-1.184,4.906A42.149,42.149,0,0,1,30.1,40.576a15.424,15.424,0,0,1-1.847,3.434,2.785,2.785,0,0,1-2.165,1.356,3.057,3.057,0,0,1-2.222-1.154A12.808,12.808,0,0,1,21.9,41.3a30.552,30.552,0,0,1-1.644-3.954q-.751-2.193-1.3-4.242t-.923-3.751q-.376-1.7-.549-2.569-.231.752-.721,2.395T15.526,32.87q-.751,2.049-1.673,4.185a41.739,41.739,0,0,1-1.934,3.924,14.909,14.909,0,0,1-2.107,2.944,3.107,3.107,0,0,1-2.194,1.155,3.279,3.279,0,0,1-2.539-1.27,10.71,10.71,0,0,1-1.847-3.261A30.628,30.628,0,0,1,1.962,36.1q-.519-2.454-.808-4.849T.692,26.781Q.52,24.7.462,23.491.29,20.72.145,18.066T0,12.64q0-.981.058-2.683A17.7,17.7,0,0,1,.49,6.609,9.241,9.241,0,0,1,1.645,3.723a2.8,2.8,0,0,1,2.28-1.356A2.621,2.621,0,0,1,6.118,3.405,9.249,9.249,0,0,1,7.677,6.32a24.91,24.91,0,0,1,1.01,4.04q.375,2.223.577,4.3t.259,3.81q.058,1.731,0,2.539l-.057,1.5q.173-.75.605-2.366t1.069-3.665q.634-2.049,1.356-4.214a41.367,41.367,0,0,1,1.529-3.953,19.6,19.6,0,0,1,1.617-2.973Q16.449,4.157,17.2,4.1a2.259,2.259,0,0,1,1.875,1.154A12.909,12.909,0,0,1,20.691,8.4a38.424,38.424,0,0,1,1.3,4.3q.576,2.367,1.01,4.589t.664,4.011q.229,1.79.347,2.539.055-.922.288-2.914t.635-4.444q.4-2.454,1.01-5.022a37.722,37.722,0,0,1,1.414-4.7,13.748,13.748,0,0,1,1.847-3.492,2.926,2.926,0,0,1,2.309-1.356,2.967,2.967,0,0,1,2.308.952,5.878,5.878,0,0,1,1.27,2.309,13.628,13.628,0,0,1,.519,2.828Q35.727,9.465,35.728,10.447Z" fill="#ffffff"/><path d="M63.027,4.906A3.727,3.727,0,0,1,61.9,7.532,11.508,11.508,0,0,1,59.189,9.61a19.64,19.64,0,0,1-3.26,1.472,23.93,23.93,0,0,1-2.771.808q-.462,4.446-.721,8.86t-.26,8.859q0,2.368.115,4.675t.115,4.618a14.357,14.357,0,0,1-.2,2.28,9.439,9.439,0,0,1-.693,2.337,5.239,5.239,0,0,1-1.357,1.847,3.146,3.146,0,0,1-2.135.75,3.364,3.364,0,0,1-2.4-.837A5.654,5.654,0,0,1,44.24,43.23a10.269,10.269,0,0,1-.663-2.568,19.443,19.443,0,0,1-.174-2.453q-.115-3.464-.173-6.955t-.057-7.013q0-2.943.029-5.771T43.23,12.7q-.808.116-1.644.173t-1.7.058a15.015,15.015,0,0,1-1.819-.144,10.1,10.1,0,0,1-2.164-.52,5.464,5.464,0,0,1-1.789-1.039,2.17,2.17,0,0,1-.75-1.7,4.071,4.071,0,0,1,1.356-3.03,12.243,12.243,0,0,1,3.464-2.251,28.884,28.884,0,0,1,4.674-1.616,50.226,50.226,0,0,1,5.08-1.039q2.509-.375,4.617-.548T55.813.866q1.095,0,2.337.087a8.4,8.4,0,0,1,2.338.49,4.483,4.483,0,0,1,1.819,1.212A3.269,3.269,0,0,1,63.027,4.906Z" fill="#ffffff"/><path d="M83.575,2.655a6.049,6.049,0,0,1-1.5,3.983,16.54,16.54,0,0,1-3.665,3.2,31.2,31.2,0,0,1-4.531,2.453q-2.367,1.038-4.1,1.731c0,.808-.019,1.637-.057,2.482s-.1,1.694-.173,2.54a35.7,35.7,0,0,1,4.155-1.732,13.3,13.3,0,0,1,4.387-.808,4.951,4.951,0,0,1,2.741.693A2.667,2.667,0,0,1,81.9,19.624a4.944,4.944,0,0,1-1.356,3.405,14.441,14.441,0,0,1-3.261,2.656A25.471,25.471,0,0,1,73.3,27.647q-2.078.809-3.521,1.27,0,1.905-.057,3.78T69.55,36.42q-.058.924-.2,2.309a12.68,12.68,0,0,1-.577,2.684,6.762,6.762,0,0,1-1.242,2.251,2.6,2.6,0,0,1-2.078.952,2.525,2.525,0,0,1-2.077-1.183A10.836,10.836,0,0,1,61.9,40.4a27.644,27.644,0,0,1-.981-4.127Q60.545,34,60.344,31.8t-.232-4.04q-.029-1.847-.028-2.828c0-.5.009-1.241.028-2.222s.038-2.068.059-3.261.058-2.443.115-3.752.124-2.548.2-3.722.182-2.213.318-3.117a7.9,7.9,0,0,1,.49-1.991,6.715,6.715,0,0,1,3.03-2.511,34.984,34.984,0,0,1,5.339-2.193q2.943-.953,5.743-1.559A21.988,21.988,0,0,1,79.708,0a10.424,10.424,0,0,1,1.356.087,3.9,3.9,0,0,1,1.241.375,2.359,2.359,0,0,1,.924.808A2.46,2.46,0,0,1,83.575,2.655Z" fill="#ffffff"/><path d="M109.778,13.275a6.552,6.552,0,0,1-.952,3.434,14.2,14.2,0,0,1-2.366,2.944,17.054,17.054,0,0,1-3.116,2.367,22.977,22.977,0,0,1-3.147,1.586,45.845,45.845,0,0,1,.347,5.715q0,.981-.029,2.193a8.756,8.756,0,0,1-.346,2.28,4.388,4.388,0,0,1-1.039,1.818,2.712,2.712,0,0,1-2.049.75,3.079,3.079,0,0,1-3.117-2.309,12.145,12.145,0,0,1-.462-2.337q-.172-1.472-.259-3.059t-.087-3.088V23.087q0-.807.087-1.9a3.705,3.705,0,0,1,.548-1.79,5.525,5.525,0,0,1,1.731-1.472q1.213-.72,2.511-1.529a12.673,12.673,0,0,0,2.28-1.789,3.158,3.158,0,0,0,.981-2.309,3.55,3.55,0,0,0-.461-1.789,4.5,4.5,0,0,0-1.184-1.357,5.955,5.955,0,0,0-1.616-.865,5.393,5.393,0,0,0-1.818-.318,7.023,7.023,0,0,0-3.463.722,11.393,11.393,0,0,0-2.164,1.558c-.6.558-1.154,1.078-1.674,1.558a2.812,2.812,0,0,1-1.991.722,3.723,3.723,0,0,1-2.511-.982,3.028,3.028,0,0,1-1.126-2.366,5.788,5.788,0,0,1,1.328-3.838A9.815,9.815,0,0,1,87.9,2.8,17.069,17.069,0,0,1,92.06,1.414,20.451,20.451,0,0,1,95.984.981a12.484,12.484,0,0,1,4.762,1.01,16.855,16.855,0,0,1,4.444,2.684A14.667,14.667,0,0,1,108.48,8.6,9.229,9.229,0,0,1,109.778,13.275Zm-8.542,28.051a2.829,2.829,0,0,1-.49,1.674,4.329,4.329,0,0,1-1.212,1.154,5.6,5.6,0,0,1-1.616.693,6.865,6.865,0,0,1-1.7.231,4.9,4.9,0,0,1-2.453-.636,2.2,2.2,0,0,1-1.125-2.077,2.858,2.858,0,0,1,.49-1.645,4.739,4.739,0,0,1,1.241-1.241,5.618,5.618,0,0,1,1.645-.779,6.077,6.077,0,0,1,1.7-.26,4.448,4.448,0,0,1,2.424.693A2.4,2.4,0,0,1,101.236,41.326Z" fill="#ffffff"/><path d="M123.516,20.144q0,.923-.117,2.51t-.345,3.406q-.233,1.817-.664,3.693a26.612,26.612,0,0,1-1.01,3.406,8.4,8.4,0,0,1-1.386,2.482,2.382,2.382,0,0,1-1.847.952,2.612,2.612,0,0,1-2.164-1.241,11.087,11.087,0,0,1-1.5-3.174,27.925,27.925,0,0,1-.952-4.3q-.346-2.365-.519-4.646t-.2-4.213q-.03-1.934-.03-2.973V13.419q0-1.587.145-3.376t.462-3.55a14.118,14.118,0,0,1,.952-3.2A6.449,6.449,0,0,1,116.012.953a3.835,3.835,0,0,1,2.6-.895,2.747,2.747,0,0,1,2.28,1.183A9.452,9.452,0,0,1,122.332,4.3a24.915,24.915,0,0,1,.808,4.184q.26,2.31.346,4.532t.058,4.126Q123.514,19.047,123.516,20.144Zm-1.1,21.932a3.088,3.088,0,0,1-.462,1.7,4.071,4.071,0,0,1-1.212,1.212,5.586,5.586,0,0,1-1.616.721,6.69,6.69,0,0,1-1.732.231,4.8,4.8,0,0,1-2.424-.664,2.251,2.251,0,0,1-1.155-2.106,2.755,2.755,0,0,1,.492-1.588,4.747,4.747,0,0,1,1.24-1.24,6.22,6.22,0,0,1,1.645-.808,5.553,5.553,0,0,1,1.7-.289,4.6,4.6,0,0,1,2.425.664A2.334,2.334,0,0,1,122.419,42.076Z" fill="#ffffff"/></g></g></svg></g></svg>