<svg xmlns="http://www.w3.org/2000/svg" width="128" height="128" viewBox="0 0 128 128">
  <title>AIR CONDITIONER</title>
  <g>
    <rect x="6.5" y="24.192" width="115" height="45.811" rx="6" fill="#ededf9"/>
    <path d="M12.5,40.876a1.749,1.749,0,0,0-1.75,1.75V48.5a1.75,1.75,0,0,0,3.5,0V42.626A1.749,1.749,0,0,0,12.5,40.876Z" fill="#dddde3"/>
    <path d="M113.25,31.442h-24a1.75,1.75,0,0,0,0,3.5h24a1.75,1.75,0,0,0,0-3.5Z" fill="#3ea7fb"/>
    <rect x="14.75" y="58.004" width="98.5" height="12" fill="#537980"/>
    <rect x="14.75" y="64.004" width="98.5" height="6" fill="#385b60"/>
    <g>
      <circle cx="17.75" cy="33.192" r="3" fill="#3ea7fb"/>
      <circle cx="29.75" cy="33.192" r="3" fill="#3ea7fb"/>
      <circle cx="41.75" cy="33.192" r="3" fill="#3ea7fb"/>
    </g>
    <g>
      <path d="M95.5,105.558a6.257,6.257,0,0,1-6.25-6.25V76a1.75,1.75,0,0,1,3.5,0v23.3a2.75,2.75,0,0,0,5.5,0,1.75,1.75,0,1,1,3.5,0A6.257,6.257,0,0,1,95.5,105.558Z" fill="#ededf9"/>
      <path d="M79.97,100.555a6.257,6.257,0,0,1-6.25-6.25V76a1.75,1.75,0,1,1,3.5,0v18.3a2.75,2.75,0,0,0,5.5,0,1.75,1.75,0,0,1,3.5,0A6.257,6.257,0,0,1,79.97,100.555Z" fill="#ededf9"/>
      <path d="M32.5,105.558a6.257,6.257,0,0,1-6.25-6.25,1.75,1.75,0,0,1,3.5,0,2.75,2.75,0,0,0,5.5,0V76a1.75,1.75,0,0,1,3.5,0v23.3A6.257,6.257,0,0,1,32.5,105.558Z" fill="#ededf9"/>
      <path d="M48.03,100.555a6.257,6.257,0,0,1-6.25-6.25,1.75,1.75,0,0,1,3.5,0,2.75,2.75,0,0,0,5.5,0V76a1.75,1.75,0,1,1,3.5,0v18.3A6.257,6.257,0,0,1,48.03,100.555Z" fill="#ededf9"/>
      <path d="M64,96.055a1.75,1.75,0,0,1-1.75-1.75V76a1.75,1.75,0,0,1,3.5,0v18.3A1.75,1.75,0,0,1,64,96.055Z" fill="#ededf9"/>
    </g>
  </g>
</svg>
