<svg xmlns="http://www.w3.org/2000/svg" width="128" height="128" viewBox="0 0 128 128">
  <title>AIR PURIFIER</title>
  <g>
    <rect x="34.888" y="112.5" width="58.224" height="9" fill="#0f89cc"/>
    <rect x="30.192" y="6.5" width="67.615" height="109" rx="6" fill="#3ea7fb"/>
    <path d="M91.808,72.813a1.75,1.75,0,0,1-1.75-1.75v-6a1.75,1.75,0,0,1,3.5,0v6A1.751,1.751,0,0,1,91.808,72.813Z" fill="#0f89cc"/>
    <path d="M36.192,6.5H91.808a6,6,0,0,1,6,6v42a0,0,0,0,1,0,0H30.192a0,0,0,0,1,0,0v-42A6,6,0,0,1,36.192,6.5Z" fill="#e4ffff"/>
    <g>
      <circle cx="41.5" cy="17" r="3.25" fill="#3ea7fb"/>
      <circle cx="50.5" cy="17" r="3.25" fill="#3ea7fb"/>
      <circle cx="59.5" cy="17" r="3.25" fill="#3ea7fb"/>
      <circle cx="68.5" cy="17" r="3.25" fill="#3ea7fb"/>
      <circle cx="77.5" cy="17" r="3.25" fill="#3ea7fb"/>
      <circle cx="86.5" cy="17" r="3.25" fill="#3ea7fb"/>
      <circle cx="41.5" cy="26" r="3.25" fill="#3ea7fb"/>
      <circle cx="50.5" cy="26" r="3.25" fill="#3ea7fb"/>
      <circle cx="59.5" cy="26" r="3.25" fill="#3ea7fb"/>
      <circle cx="68.5" cy="26" r="3.25" fill="#3ea7fb"/>
      <circle cx="77.5" cy="26" r="3.25" fill="#3ea7fb"/>
      <circle cx="86.5" cy="26" r="3.25" fill="#3ea7fb"/>
      <circle cx="41.5" cy="35" r="3.25" fill="#3ea7fb"/>
      <circle cx="50.5" cy="35" r="3.25" fill="#3ea7fb"/>
      <circle cx="59.5" cy="35" r="3.25" fill="#3ea7fb"/>
      <circle cx="68.5" cy="35" r="3.25" fill="#3ea7fb"/>
      <circle cx="77.5" cy="35" r="3.25" fill="#3ea7fb"/>
      <circle cx="86.5" cy="35" r="3.25" fill="#3ea7fb"/>
      <circle cx="41.5" cy="44" r="3.25" fill="#3ea7fb"/>
      <circle cx="50.5" cy="44" r="3.25" fill="#3ea7fb"/>
      <circle cx="59.5" cy="44" r="3.25" fill="#3ea7fb"/>
      <circle cx="68.5" cy="44" r="3.25" fill="#3ea7fb"/>
      <circle cx="77.5" cy="44" r="3.25" fill="#3ea7fb"/>
      <circle cx="86.5" cy="44" r="3.25" fill="#3ea7fb"/>
    </g>
    <circle cx="64" cy="68.5" r="4.5" fill="#e4ffff"/>
    <g>
      <path d="M86.5,93.25h-45a1.75,1.75,0,0,1,0-3.5h45a1.75,1.75,0,0,1,0,3.5Z" fill="#e4ffff"/>
      <path d="M86.5,99.25h-45a1.75,1.75,0,0,1,0-3.5h45a1.75,1.75,0,0,1,0,3.5Z" fill="#e4ffff"/>
      <path d="M86.5,105.25h-45a1.75,1.75,0,0,1,0-3.5h45a1.75,1.75,0,0,1,0,3.5Z" fill="#e4ffff"/>
    </g>
    <g>
      <path d="M118.5,26.25H103.808a1.75,1.75,0,1,1,0-3.5H118.5a1.25,1.25,0,0,0,0-2.5,1.75,1.75,0,0,1,0-3.5,4.75,4.75,0,0,1,0,9.5Z" fill="#3ea7fb"/>
      <path d="M112.5,44.25a1.75,1.75,0,1,1,0-3.5,1.25,1.25,0,0,0,0-2.5h-8.688a1.75,1.75,0,1,1,0-3.5H112.5a4.75,4.75,0,0,1,0,9.5Z" fill="#3ea7fb"/>
      <path d="M118.5,32.25H103.808a1.75,1.75,0,1,1,0-3.5H118.5a1.75,1.75,0,0,1,0,3.5Z" fill="#3ea7fb"/>
      <path d="M24.192,26.25H9.5a4.75,4.75,0,0,1,0-9.5,1.75,1.75,0,0,1,0,3.5,1.25,1.25,0,0,0,0,2.5H24.192a1.75,1.75,0,0,1,0,3.5Z" fill="#3ea7fb"/>
      <path d="M15.5,44.25a4.75,4.75,0,0,1,0-9.5h8.689a1.75,1.75,0,0,1,0,3.5H15.5a1.25,1.25,0,0,0,0,2.5,1.75,1.75,0,0,1,0,3.5Z" fill="#3ea7fb"/>
      <path d="M24.192,32.25H9.5a1.75,1.75,0,0,1,0-3.5H24.192a1.75,1.75,0,0,1,0,3.5Z" fill="#3ea7fb"/>
    </g>
  </g>
</svg>
