<svg xmlns="http://www.w3.org/2000/svg" width="128" height="128" viewBox="0 0 128 128">
  <title>ALARM</title>
  <g>
    <path d="M86.9,24.192h13.9a3,3,0,0,1,3,3v9.141a0,0,0,0,1,0,0H83.9a0,0,0,0,1,0,0V27.192A3,3,0,0,1,86.9,24.192Z" fill="#537980"/>
    <rect x="24.192" y="24.192" width="6" height="12.141" fill="#537980"/>
    <rect x="36.192" y="24.192" width="6" height="12.141" fill="#537980"/>
    <rect x="48.192" y="24.192" width="6" height="12.141" fill="#537980"/>
    <rect x="6.5" y="30.192" width="115" height="73.615" rx="6" fill="#f5502f"/>
    <rect x="36.263" y="15.5" width="55.474" height="103" transform="translate(131 3) rotate(90)" fill="#ededf9"/>
    <path d="M100.75,47.013H95.5a1.75,1.75,0,0,1,0-3.5h5.25a1.75,1.75,0,0,1,0,3.5Z" fill="#dddde3"/>
    <path d="M109.5,84.487h-91a1.75,1.75,0,0,1,0-3.5h91a1.75,1.75,0,0,1,0,3.5Z" fill="#537980"/>
    <g>
      <path d="M23.074,60.988c0-5.094,3.111-8.694,7.543-8.694s7.568,3.6,7.568,8.694c0,5.118-3.135,8.718-7.568,8.718S23.074,66.106,23.074,60.988Zm11.388,0c0-3.16-1.567-5.413-3.845-5.413-2.253,0-3.845,2.253-3.845,5.413s1.592,5.437,3.845,5.437C32.9,66.425,34.462,64.147,34.462,60.988Z" fill="#537980"/>
      <path d="M42.587,64.906a4.564,4.564,0,0,1,3.307-4.187,4.121,4.121,0,0,1-2.866-3.846c0-2.963,3.037-4.579,6.319-4.579,3.355,0,6.342,1.69,6.342,4.579A4.158,4.158,0,0,1,52.8,60.719c1.983.783,3.306,2.252,3.306,4.187,0,3.062-3.062,4.8-6.759,4.8C45.624,69.706,42.587,67.943,42.587,64.906Zm9.87-.392c0-1.322-1.665-2.155-3.11-2.2-1.445.049-3.086.882-3.086,2.2,0,1.274,1.3,2.155,3.086,2.155S52.457,65.788,52.457,64.514Zm-.368-7.175c0-1.151-1.126-2.009-2.742-2.009s-2.719.858-2.719,2.009c0,1.3,1.4,2.032,2.719,2.13C50.669,59.371,52.089,58.588,52.089,57.339Z" fill="#537980"/>
      <path d="M60.754,58.588a2.255,2.255,0,0,1,2.278-2.18,2.229,2.229,0,0,1,0,4.457A2.273,2.273,0,0,1,60.754,58.588Zm0,8.84a2.255,2.255,0,0,1,2.278-2.179,2.229,2.229,0,0,1,0,4.457A2.274,2.274,0,0,1,60.754,67.428Z" fill="#537980"/>
      <path d="M70.082,60.988c0-5.094,3.11-8.694,7.543-8.694s7.567,3.6,7.567,8.694c0,5.118-3.134,8.718-7.567,8.718S70.082,66.106,70.082,60.988Zm11.388,0c0-3.16-1.567-5.413-3.845-5.413-2.253,0-3.845,2.253-3.845,5.413s1.592,5.437,3.845,5.437C79.9,66.425,81.47,64.147,81.47,60.988Z" fill="#537980"/>
      <path d="M89.815,60.988c0-5.094,3.111-8.694,7.543-8.694s7.568,3.6,7.568,8.694c0,5.118-3.135,8.718-7.568,8.718S89.815,66.106,89.815,60.988Zm11.389,0c0-3.16-1.568-5.413-3.846-5.413-2.253,0-3.844,2.253-3.844,5.413s1.591,5.437,3.844,5.437C99.636,66.425,101.2,64.147,101.2,60.988Z" fill="#537980"/>
    </g>
  </g>
</svg>
