<svg xmlns="http://www.w3.org/2000/svg" width="128" height="128" viewBox="0 0 128 128">
  <title>BABY CRIB</title>
  <g>
    <path d="M15.5,80.519h97a0,0,0,0,1,0,0v7.288a6,6,0,0,1-6,6h-85a6,6,0,0,1-6-6V80.519a0,0,0,0,1,0,0Z" transform="translate(128 174.327) rotate(180)" fill="#ededf9"/>
    <rect x="24.192" y="92.5" width="6" height="26" fill="#663325"/>
    <rect x="97.808" y="92.5" width="6" height="26" fill="#663325"/>
    <g>
      <rect x="97.808" y="58.712" width="6" height="39.096" fill="#663325"/>
      <rect x="83.085" y="58.712" width="6" height="39.096" fill="#663325"/>
      <rect x="68.362" y="58.712" width="6" height="39.096" fill="#663325"/>
      <rect x="53.638" y="58.712" width="6" height="39.096" fill="#663325"/>
      <rect x="38.915" y="58.712" width="6" height="39.096" fill="#663325"/>
      <rect x="24.192" y="58.712" width="6" height="39.096" fill="#663325"/>
    </g>
    <path d="M12.5,115.5h103a0,0,0,0,1,0,0v3a3,3,0,0,1-3,3h-97a3,3,0,0,1-3-3v-3a0,0,0,0,1,0,0Z" transform="translate(128 237) rotate(180)" fill="#4f2217"/>
    <rect x="12.5" y="89.519" width="103" height="9" transform="translate(128 188.038) rotate(180)" fill="#f2a66c"/>
    <rect x="11" y="55.712" width="106" height="6" fill="#f2a66c"/>
    <path d="M77.167,36.167a1.75,1.75,0,0,1-1.75-1.75V11.083a1.75,1.75,0,1,1,3.5,0V34.417A1.751,1.751,0,0,1,77.167,36.167Z" fill="#fb9401"/>
    <path d="M50.833,36.167a1.751,1.751,0,0,1-1.75-1.75V11.083a1.75,1.75,0,1,1,3.5,0V34.417A1.75,1.75,0,0,1,50.833,36.167Z" fill="#fb9401"/>
    <path d="M64,28.083a1.751,1.751,0,0,1-1.75-1.75V9.5a1.75,1.75,0,0,1,3.5,0V26.333A1.751,1.751,0,0,1,64,28.083Z" fill="#fb9401"/>
    <g>
      <path d="M86.5,16.064a72.8,72.8,0,0,0-45,0l-1.854-5.707a78.812,78.812,0,0,1,48.708,0Z" fill="#f9d42f"/>
      <path d="M86.5,16.064a72.8,72.8,0,0,0-45,0l-1.854-5.707a78.812,78.812,0,0,1,48.708,0Z" fill="#f9d42f"/>
    </g>
    <circle cx="64" cy="27.192" r="3" fill="#f9d42f"/>
    <polygon points="77.167 30.192 79.021 33.949 83.167 34.552 80.167 37.476 80.875 41.605 77.167 39.655 73.458 41.605 74.167 37.476 71.167 34.552 75.313 33.949 77.167 30.192" fill="#f9d42f"/>
    <polygon points="50.833 30.192 52.687 33.949 56.833 34.552 53.833 37.476 54.542 41.605 50.833 39.655 47.125 41.605 47.833 37.476 44.833 34.552 48.979 33.949 50.833 30.192" fill="#f9d42f"/>
    <path d="M115.5,46.711h6a0,0,0,0,1,0,0V98.519a0,0,0,0,1,0,0h-9a0,0,0,0,1,0,0V49.711A3,3,0,0,1,115.5,46.711Z" transform="translate(234 145.23) rotate(180)" fill="#663325"/>
    <path d="M6.5,46.711h6a3,3,0,0,1,3,3V98.519a0,0,0,0,1,0,0h-9a0,0,0,0,1,0,0V46.711A0,0,0,0,1,6.5,46.711Z" transform="translate(22 145.23) rotate(180)" fill="#663325"/>
  </g>
</svg>
