<svg xmlns="http://www.w3.org/2000/svg" width="128" height="128" viewBox="0 0 128 128">
  <title>BASKET</title>
  <g>
    <path d="M118.5,55.154l-7.146,54.887a3,3,0,0,1-2.975,2.613H19.621a3,3,0,0,1-2.975-2.613L9.5,55.154Z" fill="#3ea7fb"/>
    <path d="M106.572,102.058a1.753,1.753,0,0,1-1.738-1.976l.752-5.772a1.75,1.75,0,1,1,3.471.451l-.752,5.772A1.751,1.751,0,0,1,106.572,102.058Z" fill="#0f89cc"/>
    <g>
      <rect x="82.173" y="80.904" width="24.072" height="6" rx="3" transform="translate(3.259 171.331) rotate(-85.557)" fill="#e4ffff"/>
      <rect x="30.791" y="71.868" width="6" height="24.072" rx="3" transform="translate(-6.388 2.865) rotate(-4.436)" fill="#e4ffff"/>
      <rect x="62.794" y="80.904" width="24.009" height="6" rx="3" transform="translate(-11.167 156.325) rotate(-88.396)" fill="#e4ffff"/>
      <rect x="50.201" y="71.9" width="6" height="24.009" rx="3" transform="translate(-2.312 1.511) rotate(-1.593)" fill="#e4ffff"/>
    </g>
    <rect x="6.5" y="50.889" width="115" height="9" rx="3" fill="#e4ffff"/>
    <g>
      <rect x="86.5" y="13.589" width="6" height="43.558" rx="3" transform="translate(-6.562 41.123) rotate(-24.991)" fill="#3ea7fb"/>
      <rect x="35.5" y="13.589" width="6" height="43.558" rx="3" transform="translate(58.454 83.689) rotate(-155.009)" fill="#3ea7fb"/>
    </g>
  </g>
</svg>
