<svg xmlns="http://www.w3.org/2000/svg" width="128" height="128" viewBox="0 0 128 128">
  <title>BLANKET</title>
  <g>
    <g>
      <path d="M30.192,22.875a1.751,1.751,0,0,1-1.75-1.75V6.5a1.75,1.75,0,0,1,3.5,0V21.125A1.75,1.75,0,0,1,30.192,22.875Z" fill="#d63922"/>
      <path d="M38.645,22.875a1.75,1.75,0,0,1-1.75-1.75V6.5a1.75,1.75,0,0,1,3.5,0V21.125A1.751,1.751,0,0,1,38.645,22.875Z" fill="#d63922"/>
      <path d="M47.1,22.875a1.75,1.75,0,0,1-1.75-1.75V6.5a1.75,1.75,0,0,1,3.5,0V21.125A1.751,1.751,0,0,1,47.1,22.875Z" fill="#d63922"/>
      <path d="M55.548,22.875a1.75,1.75,0,0,1-1.75-1.75V6.5a1.75,1.75,0,0,1,3.5,0V21.125A1.75,1.75,0,0,1,55.548,22.875Z" fill="#d63922"/>
      <path d="M64,22.875a1.75,1.75,0,0,1-1.75-1.75V6.5a1.75,1.75,0,0,1,3.5,0V21.125A1.75,1.75,0,0,1,64,22.875Z" fill="#d63922"/>
      <path d="M72.452,22.875a1.75,1.75,0,0,1-1.75-1.75V6.5a1.75,1.75,0,0,1,3.5,0V21.125A1.75,1.75,0,0,1,72.452,22.875Z" fill="#d63922"/>
      <path d="M80.9,22.875a1.751,1.751,0,0,1-1.75-1.75V6.5a1.75,1.75,0,0,1,3.5,0V21.125A1.75,1.75,0,0,1,80.9,22.875Z" fill="#d63922"/>
      <path d="M89.355,22.875a1.751,1.751,0,0,1-1.75-1.75V6.5a1.75,1.75,0,0,1,3.5,0V21.125A1.75,1.75,0,0,1,89.355,22.875Z" fill="#d63922"/>
      <path d="M97.808,22.875a1.75,1.75,0,0,1-1.75-1.75V6.5a1.75,1.75,0,0,1,3.5,0V21.125A1.751,1.751,0,0,1,97.808,22.875Z" fill="#d63922"/>
    </g>
    <g>
      <path d="M30.192,123.25a1.751,1.751,0,0,1-1.75-1.75V106.875a1.75,1.75,0,0,1,3.5,0V121.5A1.75,1.75,0,0,1,30.192,123.25Z" fill="#d63922"/>
      <path d="M38.645,123.25a1.75,1.75,0,0,1-1.75-1.75V106.875a1.75,1.75,0,0,1,3.5,0V121.5A1.751,1.751,0,0,1,38.645,123.25Z" fill="#d63922"/>
      <path d="M47.1,123.25a1.75,1.75,0,0,1-1.75-1.75V106.875a1.75,1.75,0,0,1,3.5,0V121.5A1.751,1.751,0,0,1,47.1,123.25Z" fill="#d63922"/>
      <path d="M55.548,123.25a1.75,1.75,0,0,1-1.75-1.75V106.875a1.75,1.75,0,0,1,3.5,0V121.5A1.75,1.75,0,0,1,55.548,123.25Z" fill="#d63922"/>
      <path d="M64,123.25a1.75,1.75,0,0,1-1.75-1.75V106.875a1.75,1.75,0,0,1,3.5,0V121.5A1.75,1.75,0,0,1,64,123.25Z" fill="#d63922"/>
      <path d="M72.452,123.25a1.75,1.75,0,0,1-1.75-1.75V106.875a1.75,1.75,0,0,1,3.5,0V121.5A1.75,1.75,0,0,1,72.452,123.25Z" fill="#d63922"/>
      <path d="M80.9,123.25a1.751,1.751,0,0,1-1.75-1.75V106.875a1.75,1.75,0,0,1,3.5,0V121.5A1.75,1.75,0,0,1,80.9,123.25Z" fill="#d63922"/>
      <path d="M89.355,123.25a1.751,1.751,0,0,1-1.75-1.75V106.875a1.75,1.75,0,0,1,3.5,0V121.5A1.75,1.75,0,0,1,89.355,123.25Z" fill="#d63922"/>
      <path d="M97.808,123.25a1.75,1.75,0,0,1-1.75-1.75V106.875a1.75,1.75,0,0,1,3.5,0V121.5A1.751,1.751,0,0,1,97.808,123.25Z" fill="#d63922"/>
    </g>
    <rect x="24.192" y="12.5" width="79.615" height="103" rx="3" fill="#f9d42f"/>
    <g>
      <path d="M100.808,115.5H27.192a3,3,0,0,1-3-3v-3h79.616v3A3,3,0,0,1,100.808,115.5Z" fill="#f5502f"/>
      <rect x="24.192" y="93.333" width="79.615" height="6" fill="#f5502f"/>
      <rect x="24.192" y="77.167" width="79.615" height="6" fill="#f5502f"/>
      <rect x="24.192" y="61" width="79.615" height="6" fill="#f5502f"/>
      <rect x="24.192" y="44.833" width="79.615" height="6" fill="#f5502f"/>
      <rect x="24.192" y="28.667" width="79.615" height="6" fill="#f5502f"/>
      <path d="M103.808,18.5H24.192v-3a3,3,0,0,1,3-3h73.616a3,3,0,0,1,3,3Z" fill="#f5502f"/>
    </g>
  </g>
</svg>
