<svg xmlns="http://www.w3.org/2000/svg" width="128" height="128" viewBox="0 0 128 128">
  <title>BOLSTER</title>
  <g>
    <path d="M20,73.25l-9.815,2.3A3,3,0,0,1,6.5,72.632V56.2a3,3,0,0,1,3.685-2.921L20,55.583Z" fill="#3ea7fb"/>
    <path d="M108,73.25l9.815,2.3a3,3,0,0,0,3.685-2.92V56.2a3,3,0,0,0-3.685-2.921L108,55.583Z" fill="#3ea7fb"/>
    <rect x="15.5" y="44.096" width="97" height="39.808" rx="9" fill="#e4ffff"/>
    <path d="M21.5,73.333a1.751,1.751,0,0,1-1.75-1.75V66.167a1.75,1.75,0,0,1,3.5,0v5.416A1.751,1.751,0,0,1,21.5,73.333Z" fill="#addddc"/>
    <rect x="88.5" y="44.096" width="12" height="39.808" fill="#3ea7fb"/>
    <rect x="58" y="44.096" width="12" height="39.808" fill="#3ea7fb"/>
    <rect x="27.5" y="44.096" width="12" height="39.808" transform="translate(67 128) rotate(180)" fill="#3ea7fb"/>
  </g>
</svg>
