<svg xmlns="http://www.w3.org/2000/svg" width="128" height="128" viewBox="0 0 128 128">
  <title>BOOK</title>
  <g>
    <path d="M33.192,6.5h70.615a0,0,0,0,1,0,0v106a0,0,0,0,1,0,0H24.192a0,0,0,0,1,0,0v-97A9,9,0,0,1,33.192,6.5Z" fill="#b360e6"/>
    <path d="M30.192,63.458a1.751,1.751,0,0,1-1.75-1.75v-6a1.75,1.75,0,0,1,3.5,0v6A1.75,1.75,0,0,1,30.192,63.458Z" fill="#934acb"/>
    <path d="M33.192,103.5h70.615a0,0,0,0,1,0,0v18a0,0,0,0,1,0,0H33.192a9,9,0,0,1-9-9v0a9,9,0,0,1,9-9Z" fill="#934acb"/>
    <path d="M33.192,115.5a3,3,0,0,1,0-6h70.616v6Z" fill="#ededf9"/>
    <rect x="36.192" y="22.692" width="55.615" height="12" fill="#ededf9"/>
    <g>
      <path d="M86.5,81.25h-45a1.75,1.75,0,0,1,0-3.5h45a1.75,1.75,0,0,1,0,3.5Z" fill="#ededf9"/>
      <path d="M86.5,87.25h-45a1.75,1.75,0,0,1,0-3.5h45a1.75,1.75,0,0,1,0,3.5Z" fill="#ededf9"/>
      <path d="M86.5,93.25h-45a1.75,1.75,0,0,1,0-3.5h45a1.75,1.75,0,0,1,0,3.5Z" fill="#ededf9"/>
    </g>
  </g>
</svg>
