<svg xmlns="http://www.w3.org/2000/svg" width="128" height="128" viewBox="0 0 128 128">
  <title>BUNK BED</title>
  <g>
    <rect x="9.5" y="37.581" width="109" height="12" fill="#f2a66c"/>
    <path d="M12.5,25.581h15a3,3,0,0,1,3,3v5.375a0,0,0,0,1,0,0H9.5a0,0,0,0,1,0,0V28.581A3,3,0,0,1,12.5,25.581Z" fill="#dddde3"/>
    <path d="M12.5,31.581h97a6,6,0,0,1,6,6v0a0,0,0,0,1,0,0H12.5a0,0,0,0,1,0,0v-6A0,0,0,0,1,12.5,31.581Z" fill="#ededf9"/>
    <rect x="9.5" y="84.727" width="109" height="12" fill="#f2a66c"/>
    <path d="M12.5,72.727h15a3,3,0,0,1,3,3V81.1a0,0,0,0,1,0,0H9.5a0,0,0,0,1,0,0V75.727A3,3,0,0,1,12.5,72.727Z" fill="#dddde3"/>
    <path d="M9.5,78.727h100a6,6,0,0,1,6,6v0a0,0,0,0,1,0,0H9.5a0,0,0,0,1,0,0v-6A0,0,0,0,1,9.5,78.727Z" fill="#ededf9"/>
    <rect x="6.5" y="15.346" width="6" height="97.308" fill="#663325"/>
    <rect x="115.5" y="15.346" width="6" height="97.308" fill="#663325"/>
    <path d="M95.305,19.369V31.581h-19V19.369h-6v93.285h6V100.442h19v12.212h6V19.369Zm0,75.073h-19V84.727h19Zm0-15.715h-19V69.011h19Zm0-15.716h-19V53.3h19Zm0-15.715h-19V37.581h19Z" fill="#663325"/>
  </g>
</svg>
