<svg xmlns="http://www.w3.org/2000/svg" width="128" height="128" viewBox="0 0 128 128">
  <title>CALENDAR</title>
  <g>
    <rect x="6.5" y="21.346" width="115" height="91.308" fill="#f5502f"/>
    <path d="M6.5,21.346V97.654a6,6,0,0,0,6,6h103a6,6,0,0,0,6-6V21.346Z" fill="#ededf9"/>
    <path d="M115.5,55.863a1.749,1.749,0,0,1-1.75-1.75v-6a1.75,1.75,0,0,1,3.5,0v6A1.749,1.749,0,0,1,115.5,55.863Z" fill="#dddde3"/>
    <g>
      <g>
        <rect x="22.692" y="51.346" width="9" height="6" fill="#537980"/>
        <rect x="22.692" y="62.782" width="9" height="6" fill="#537980"/>
        <rect x="22.692" y="74.218" width="9" height="6" fill="#537980"/>
        <rect x="22.692" y="85.654" width="9" height="6" fill="#537980"/>
      </g>
      <g>
        <rect x="41.096" y="51.346" width="9" height="6" fill="#537980"/>
        <rect x="41.096" y="62.782" width="9" height="6" fill="#537980"/>
        <rect x="41.096" y="74.218" width="9" height="6" fill="#537980"/>
        <rect x="41.096" y="85.654" width="9" height="6" fill="#537980"/>
      </g>
      <g>
        <rect x="59.5" y="51.346" width="9" height="6" fill="#537980"/>
        <rect x="59.5" y="62.782" width="9" height="6" fill="#537980"/>
        <rect x="59.5" y="74.218" width="9" height="6" fill="#537980"/>
        <rect x="59.5" y="85.654" width="9" height="6" fill="#537980"/>
      </g>
      <g>
        <rect x="77.904" y="51.346" width="9" height="6" fill="#537980"/>
        <rect x="77.904" y="62.782" width="9" height="6" fill="#537980"/>
        <rect x="77.904" y="74.218" width="9" height="6" fill="#537980"/>
      </g>
      <g>
        <rect x="96.308" y="51.346" width="9" height="6" fill="#537980"/>
        <rect x="96.308" y="62.782" width="9" height="6" fill="#537980"/>
        <rect x="96.308" y="74.218" width="9" height="6" fill="#537980"/>
      </g>
    </g>
    <rect x="6.5" y="21.346" width="115" height="18" fill="#f5502f"/>
    <rect x="24.192" y="15.346" width="6" height="15" fill="#537980"/>
    <rect x="42.596" y="15.346" width="6" height="15" fill="#537980"/>
    <rect x="61" y="15.346" width="6" height="15" fill="#537980"/>
    <rect x="79.404" y="15.346" width="6" height="15" fill="#537980"/>
    <rect x="97.808" y="15.346" width="6" height="15" fill="#537980"/>
  </g>
</svg>
