<svg xmlns="http://www.w3.org/2000/svg" width="128" height="128" viewBox="0 0 128 128">
  <title>CANDLESTICK</title>
  <g>
    <path d="M93.308,49.581V67.335a9.022,9.022,0,0,1-6.626,8.682L67,81.4V37.581H61V81.4L41.318,76.017a9.022,9.022,0,0,1-6.626-8.682V49.581h-6V67.335A15.034,15.034,0,0,0,39.736,81.8L61,87.618v32.1h6v-32.1L88.264,81.8A15.034,15.034,0,0,0,99.308,67.335V49.581Z" fill="#b360e6"/>
    <path d="M58,109.654H70a3,3,0,0,1,3,3V118.5a0,0,0,0,1,0,0H55a0,0,0,0,1,0,0v-5.846A3,3,0,0,1,58,109.654Z" fill="#934acb"/>
    <path d="M64,25.039a1.75,1.75,0,0,1-1.75-1.75v-8.6a1.75,1.75,0,1,1,3.5,0v8.6A1.75,1.75,0,0,1,64,25.039Z" fill="#dddde3"/>
    <rect x="59.5" y="20.689" width="9" height="25.389" fill="#ededf9"/>
    <path d="M56.5,46.078h15a0,0,0,0,1,0,0v0a6,6,0,0,1-6,6h-3a6,6,0,0,1-6-6v0a0,0,0,0,1,0,0Z" fill="#f9d42f"/>
    <path d="M88.808,55.042h15a0,0,0,0,1,0,0v0a6,6,0,0,1-6,6h-3a6,6,0,0,1-6-6v0a0,0,0,0,1,0,0Z" fill="#f9d42f"/>
    <path d="M24.192,55.042h15a0,0,0,0,1,0,0v0a6,6,0,0,1-6,6h-3a6,6,0,0,1-6-6v0a0,0,0,0,1,0,0Z" fill="#f9d42f"/>
    <path d="M61,12.95c0-3.22,3-6.45,3-6.45s3,3.23,3,6.45a3,3,0,1,1-6,0Z" fill="#f9d42f"/>
    <path d="M96.308,34a1.75,1.75,0,0,1-1.75-1.75v-8.6a1.75,1.75,0,1,1,3.5,0v8.6A1.751,1.751,0,0,1,96.308,34Z" fill="#dddde3"/>
    <path d="M74.5,44.328h-21a1.75,1.75,0,0,0,0,3.5h21a1.75,1.75,0,0,0,0-3.5Z" fill="#fb9401"/>
    <rect x="91.808" y="29.654" width="9" height="25.389" fill="#ededf9"/>
    <path d="M93.308,21.915c0-3.22,3-6.45,3-6.45s3,3.23,3,6.45a3,3,0,1,1-6,0Z" fill="#f9d42f"/>
    <path d="M31.692,34a1.751,1.751,0,0,1-1.75-1.75v-8.6a1.75,1.75,0,0,1,3.5,0v8.6A1.75,1.75,0,0,1,31.692,34Z" fill="#dddde3"/>
    <rect x="27.192" y="29.654" width="9" height="25.389" transform="translate(63.384 84.696) rotate(180)" fill="#ededf9"/>
    <path d="M34.692,21.915c0-3.22-3-6.45-3-6.45s-3,3.23-3,6.45a3,3,0,0,0,6,0Z" fill="#f9d42f"/>
    <path d="M52,115.5H76a3,3,0,0,1,3,3v3a0,0,0,0,1,0,0H49a0,0,0,0,1,0,0v-3A3,3,0,0,1,52,115.5Z" fill="#b360e6"/>
  </g>
</svg>
