<svg xmlns="http://www.w3.org/2000/svg" width="128" height="128" viewBox="0 0 128 128">
  <title>CHAIR</title>
  <g>
    <path d="M64,99.38a226.772,226.772,0,0,1-26.054-1.662l.776-5.949A225.391,225.391,0,0,0,64,93.38,225,225,0,0,0,89.28,91.769l.776,5.949A226.8,226.8,0,0,1,64,99.38Z" fill="#d58559"/>
    <path d="M36.25,72s-.519-13.75-.519-26.736c0-6.972-.571-17.632-1.1-26.009A12,12,0,0,1,46.606,6.5H81.394A12,12,0,0,1,93.37,19.255c-.53,8.377-1.1,19.037-1.1,26.009C92.269,58.25,91.75,72,91.75,72Z" fill="#3ea7fb"/>
    <path d="M41.9,61.12a1.75,1.75,0,0,1-1.749-1.713c-.04-1.86-.076-3.843-.1-5.884a1.75,1.75,0,0,1,3.5-.048c.028,2.033.064,4,.1,5.858a1.752,1.752,0,0,1-1.713,1.787Z" fill="#0f89cc"/>
    <g>
      <path d="M36.646,121.492h0a3.116,3.116,0,0,0,3.3-2.649L47.3,69.522l-10.058-.71-3.485,49.352A3.116,3.116,0,0,0,36.646,121.492Z" fill="#f2a66c"/>
      <path d="M91.354,121.492h0a3.116,3.116,0,0,1-3.3-2.649L80.7,69.522l10.058-.71,3.485,49.352A3.116,3.116,0,0,1,91.354,121.492Z" fill="#f2a66c"/>
    </g>
    <path d="M64,66H32.721a3,3,0,0,0-3,3h0a9.283,9.283,0,0,0,7.36,9.075A133.667,133.667,0,0,0,64,81.167a133.667,133.667,0,0,0,26.919-3.092A9.283,9.283,0,0,0,98.279,69h0a3,3,0,0,0-3-3Z" fill="#0f89cc"/>
  </g>
</svg>
