<svg xmlns="http://www.w3.org/2000/svg" width="128" height="128" viewBox="0 0 128 128">
  <title>CHANDELIER</title>
  <g>
    <path d="M64,118.75A1.75,1.75,0,0,1,62.25,117V10.25a1.75,1.75,0,0,1,3.5,0V117A1.75,1.75,0,0,1,64,118.75Z" fill="#dddde3"/>
    <path d="M53.506,6.5H74.494l-1.522,4.054A3,3,0,0,1,70.163,12.5H57.837a3,3,0,0,1-2.809-1.946Z" fill="#f9d42f"/>
    <circle cx="64" cy="117" r="4.5" fill="#f9d42f"/>
    <circle cx="64" cy="103.808" r="3" fill="#f9d42f"/>
    <path d="M76.375,85.5A14.141,14.141,0,0,1,62.25,71.375V43.5a1.75,1.75,0,0,1,3.5,0V71.375a10.625,10.625,0,0,0,21.25,0V55.442a1.75,1.75,0,0,1,3.5,0V71.375A14.141,14.141,0,0,1,76.375,85.5Z" fill="#dddde3"/>
    <path d="M88.75,104.167a26.53,26.53,0,0,1-26.5-26.5V43.5a1.75,1.75,0,0,1,3.5,0V77.667a23,23,0,0,0,46,0V60.98a1.75,1.75,0,1,1,3.5,0V77.667A26.53,26.53,0,0,1,88.75,104.167Z" fill="#dddde3"/>
    <path d="M58,12.5H70a0,0,0,0,1,0,0v0a6,6,0,0,1-6,6h0a6,6,0,0,1-6-6v0a0,0,0,0,1,0,0Z" fill="#fb9401"/>
    <path d="M92.837,36.462c0,4.387-4.087,8.788-4.087,8.788s-4.087-4.4-4.087-8.788a4.087,4.087,0,1,1,8.174,0Z" fill="#f9d42f"/>
    <rect x="84.25" y="42.828" width="9" height="12" fill="#ededf9"/>
    <path d="M82.75,54.828h12a0,0,0,0,1,0,0v0a6,6,0,0,1-6,6h0a6,6,0,0,1-6-6v0A0,0,0,0,1,82.75,54.828Z" fill="#ededf9"/>
    <path d="M96.75,56.577h-16a1.75,1.75,0,0,1,0-3.5h16a1.75,1.75,0,0,1,0,3.5Z" fill="#dddde3"/>
    <path d="M117.587,43.335c0,4.388-4.087,8.788-4.087,8.788s-4.087-4.4-4.087-8.788a4.087,4.087,0,1,1,8.174,0Z" fill="#f9d42f"/>
    <rect x="109" y="49.701" width="9" height="12" fill="#ededf9"/>
    <path d="M107.5,61.7h12a0,0,0,0,1,0,0v0a6,6,0,0,1-6,6h0a6,6,0,0,1-6-6v0A0,0,0,0,1,107.5,61.7Z" fill="#ededf9"/>
    <path d="M121.5,63.451h-16a1.75,1.75,0,0,1,0-3.5h16a1.75,1.75,0,0,1,0,3.5Z" fill="#dddde3"/>
    <path d="M51.625,85.5A14.141,14.141,0,0,1,37.5,71.375V55.442a1.75,1.75,0,0,1,3.5,0V71.375a10.625,10.625,0,0,0,21.25,0V43.5a1.75,1.75,0,0,1,3.5,0V71.375A14.141,14.141,0,0,1,51.625,85.5Z" fill="#dddde3"/>
    <path d="M39.25,104.167a26.53,26.53,0,0,1-26.5-26.5V60.98a1.75,1.75,0,1,1,3.5,0V77.667a23,23,0,0,0,46,0V43.5a1.75,1.75,0,0,1,3.5,0V77.667A26.53,26.53,0,0,1,39.25,104.167Z" fill="#dddde3"/>
    <path d="M35.163,36.462c0,4.387,4.087,8.788,4.087,8.788s4.087-4.4,4.087-8.788a4.087,4.087,0,0,0-8.174,0Z" fill="#f9d42f"/>
    <rect x="34.75" y="42.828" width="9" height="12" transform="translate(78.5 97.655) rotate(180)" fill="#ededf9"/>
    <path d="M39.25,54.828h0a6,6,0,0,1,6,6v0a0,0,0,0,1,0,0h-12a0,0,0,0,1,0,0v0a6,6,0,0,1,6-6Z" transform="translate(78.5 115.655) rotate(180)" fill="#ededf9"/>
    <path d="M47.25,56.577h-16a1.75,1.75,0,0,1,0-3.5h16a1.75,1.75,0,0,1,0,3.5Z" fill="#dddde3"/>
    <path d="M10.413,43.335c0,4.388,4.087,8.788,4.087,8.788s4.087-4.4,4.087-8.788a4.087,4.087,0,1,0-8.174,0Z" fill="#f9d42f"/>
    <rect x="10" y="49.701" width="9" height="12" transform="translate(29 111.402) rotate(180)" fill="#ededf9"/>
    <path d="M14.5,61.7h0a6,6,0,0,1,6,6v0a0,0,0,0,1,0,0H8.5a0,0,0,0,1,0,0v0a6,6,0,0,1,6-6Z" transform="translate(29 129.402) rotate(180)" fill="#ededf9"/>
    <path d="M22.5,63.451H6.5a1.75,1.75,0,1,1,0-3.5h16a1.75,1.75,0,0,1,0,3.5Z" fill="#dddde3"/>
    <circle cx="64" cy="53.328" r="4.5" fill="#f9d42f"/>
    <circle cx="64" cy="40.135" r="3" fill="#f9d42f"/>
  </g>
</svg>
