<svg xmlns="http://www.w3.org/2000/svg" width="128" height="128" viewBox="0 0 128 128">
  <title>CLOCK</title>
  <g>
    <circle cx="64" cy="64" r="57.5" fill="#3ea7fb"/>
    <circle cx="64" cy="64" r="48.5" fill="#ededf9"/>
    <path d="M77.875,79.625a1.741,1.741,0,0,1-1.237-.513L62.763,65.237A1.75,1.75,0,0,1,62.25,64V36a1.75,1.75,0,0,1,3.5,0V63.275L79.112,76.638a1.75,1.75,0,0,1-1.237,2.987Z" fill="#385b60"/>
    <circle cx="64" cy="64" r="4.5" fill="#3ea7fb"/>
    <path d="M64,26.25a1.749,1.749,0,0,1-1.75-1.75v-9a1.75,1.75,0,0,1,3.5,0v9A1.749,1.749,0,0,1,64,26.25Z" fill="#385b60"/>
    <path d="M52.223,21.8a1.751,1.751,0,0,1-1.69-1.3l-.776-2.9a1.75,1.75,0,0,1,3.381-.906l.776,2.9a1.751,1.751,0,0,1-1.691,2.2Z" fill="#385b60"/>
    <path d="M41.252,26.346a1.751,1.751,0,0,1-1.518-.875l-1.5-2.6a1.75,1.75,0,0,1,3.032-1.75l1.5,2.6a1.75,1.75,0,0,1-.641,2.39A1.73,1.73,0,0,1,41.252,26.346Z" fill="#385b60"/>
    <path d="M24.594,43a1.739,1.739,0,0,1-.873-.234l-2.6-1.5a1.75,1.75,0,1,1,1.75-3.032l2.6,1.5A1.75,1.75,0,0,1,24.594,43Z" fill="#385b60"/>
    <path d="M20.052,53.974a1.738,1.738,0,0,1-.454-.06l-2.9-.776a1.75,1.75,0,0,1,.906-3.381l2.9.776a1.75,1.75,0,0,1-.452,3.441Z" fill="#385b60"/>
    <path d="M17.151,78.3a1.75,1.75,0,0,1-.452-3.441l2.9-.776a1.75,1.75,0,0,1,.906,3.381l-2.9.776A1.738,1.738,0,0,1,17.151,78.3Z" fill="#385b60"/>
    <path d="M22,90a1.75,1.75,0,0,1-.877-3.266l2.6-1.5a1.75,1.75,0,0,1,1.75,3.032l-2.6,1.5A1.739,1.739,0,0,1,22,90Z" fill="#385b60"/>
    <path d="M39.748,107.752a1.75,1.75,0,0,1-1.514-2.625l1.5-2.6a1.75,1.75,0,0,1,3.032,1.75l-1.5,2.6A1.751,1.751,0,0,1,39.748,107.752Z" fill="#385b60"/>
    <path d="M51.448,112.6a1.751,1.751,0,0,1-1.691-2.2l.776-2.9a1.75,1.75,0,0,1,3.381.906l-.776,2.9A1.751,1.751,0,0,1,51.448,112.6Z" fill="#385b60"/>
    <path d="M76.552,112.6a1.752,1.752,0,0,1-1.69-1.3l-.776-2.9a1.75,1.75,0,0,1,3.381-.906l.776,2.9a1.751,1.751,0,0,1-1.691,2.2Z" fill="#385b60"/>
    <path d="M88.252,107.752a1.751,1.751,0,0,1-1.518-.875l-1.5-2.6a1.75,1.75,0,0,1,3.032-1.75l1.5,2.6a1.75,1.75,0,0,1-1.514,2.625Z" fill="#385b60"/>
    <path d="M106,90a1.739,1.739,0,0,1-.873-.234l-2.6-1.5a1.75,1.75,0,0,1,1.75-3.032l2.6,1.5A1.75,1.75,0,0,1,106,90Z" fill="#385b60"/>
    <path d="M110.849,78.3a1.738,1.738,0,0,1-.454-.06l-2.9-.776a1.75,1.75,0,0,1,.906-3.381l2.9.776a1.75,1.75,0,0,1-.452,3.441Z" fill="#385b60"/>
    <path d="M107.948,53.974a1.75,1.75,0,0,1-.452-3.441l2.9-.776a1.75,1.75,0,0,1,.906,3.381l-2.9.776A1.738,1.738,0,0,1,107.948,53.974Z" fill="#385b60"/>
    <path d="M103.406,43a1.75,1.75,0,0,1-.877-3.266l2.6-1.5a1.75,1.75,0,0,1,1.75,3.032l-2.6,1.5A1.739,1.739,0,0,1,103.406,43Z" fill="#385b60"/>
    <path d="M86.748,26.346a1.73,1.73,0,0,1-.873-.235,1.75,1.75,0,0,1-.641-2.39l1.5-2.6a1.75,1.75,0,1,1,3.032,1.75l-1.5,2.6A1.751,1.751,0,0,1,86.748,26.346Z" fill="#385b60"/>
    <path d="M75.777,21.8a1.751,1.751,0,0,1-1.691-2.2l.776-2.9a1.75,1.75,0,0,1,3.381.906l-.776,2.9A1.751,1.751,0,0,1,75.777,21.8Z" fill="#385b60"/>
    <path d="M64,114.25a1.749,1.749,0,0,1-1.75-1.75v-9a1.75,1.75,0,0,1,3.5,0v9A1.749,1.749,0,0,1,64,114.25Z" fill="#385b60"/>
    <path d="M91.931,37.819a1.75,1.75,0,0,1-1.238-2.987l6.365-6.364a1.749,1.749,0,1,1,2.474,2.474l-6.364,6.365A1.746,1.746,0,0,1,91.931,37.819Z" fill="#385b60"/>
    <path d="M29.705,100.045a1.75,1.75,0,0,1-1.237-2.987l6.364-6.365a1.75,1.75,0,1,1,2.475,2.475l-6.365,6.364A1.741,1.741,0,0,1,29.705,100.045Z" fill="#385b60"/>
    <path d="M112.5,65.75h-9a1.75,1.75,0,0,1,0-3.5h9a1.75,1.75,0,0,1,0,3.5Z" fill="#385b60"/>
    <path d="M24.5,65.75h-9a1.75,1.75,0,0,1,0-3.5h9a1.75,1.75,0,0,1,0,3.5Z" fill="#385b60"/>
    <path d="M98.3,100.045a1.741,1.741,0,0,1-1.237-.513l-6.365-6.364a1.75,1.75,0,1,1,2.475-2.475l6.364,6.365a1.75,1.75,0,0,1-1.237,2.987Z" fill="#385b60"/>
    <path d="M36.069,37.819a1.746,1.746,0,0,1-1.237-.512l-6.364-6.365a1.749,1.749,0,1,1,2.474-2.474l6.365,6.364a1.75,1.75,0,0,1-1.238,2.987Z" fill="#385b60"/>
  </g>
</svg>
