<svg xmlns="http://www.w3.org/2000/svg" width="128" height="128" viewBox="0 0 128 128">
  <title>CLOSET</title>
  <g>
    <rect x="58.33" y="12.5" width="51.339" height="107" transform="translate(167.999 132) rotate(180)" fill="#d58559"/>
    <rect x="67.33" y="21.5" width="33.34" height="48.62" fill="#ededf9"/>
    <g>
      <path d="M74.365,48.709a1.75,1.75,0,0,1-1.237-2.987L83.912,34.938a1.75,1.75,0,0,1,2.475,2.475L75.6,48.2A1.745,1.745,0,0,1,74.365,48.709Z" fill="#dddde3"/>
      <path d="M75.515,56.045a1.75,1.75,0,0,1-1.238-2.987l16.971-16.97a1.75,1.75,0,0,1,2.475,2.475L76.752,55.532A1.743,1.743,0,0,1,75.515,56.045Z" fill="#dddde3"/>
      <path d="M82.851,57.194a1.75,1.75,0,0,1-1.238-2.987L92.4,43.424A1.75,1.75,0,0,1,94.872,45.9L84.088,56.682A1.746,1.746,0,0,1,82.851,57.194Z" fill="#dddde3"/>
    </g>
    <rect x="18.33" y="8.5" width="40" height="111" fill="#f2a66c"/>
    <path d="M24.33,102.083a1.75,1.75,0,0,1-1.75-1.75V95.167a1.75,1.75,0,0,1,3.5,0v5.166A1.75,1.75,0,0,1,24.33,102.083Z" fill="#d58559"/>
    <path d="M18.331,115.5h91.338a3,3,0,0,1,3,3v3a0,0,0,0,1,0,0H15.331a0,0,0,0,1,0,0v-3A3,3,0,0,1,18.331,115.5Z" fill="#663325"/>
    <path d="M18.331,6.5h91.338a3,3,0,0,1,3,3v3a0,0,0,0,1,0,0H15.331a0,0,0,0,1,0,0v-3A3,3,0,0,1,18.331,6.5Z" transform="translate(128 19) rotate(180)" fill="#663325"/>
    <path d="M88.5,92.958h-9a1.75,1.75,0,0,1,0-3.5h9a1.75,1.75,0,0,1,0,3.5Z" fill="#663325"/>
    <rect x="58.33" y="79.208" width="51.34" height="6" fill="#663325"/>
    <circle cx="46.331" cy="64" r="3" fill="#663325"/>
  </g>
</svg>
