<svg xmlns="http://www.w3.org/2000/svg" width="128" height="128" viewBox="0 0 128 128">
  <title>DIGITAL CLOCK</title>
  <g>
    <path d="M86.9,38.1h13.9a3,3,0,0,1,3,3v9.141a0,0,0,0,1,0,0H83.9a0,0,0,0,1,0,0V41.1A3,3,0,0,1,86.9,38.1Z" fill="#385b60"/>
    <rect x="24.192" y="38.096" width="6" height="10.404" fill="#385b60"/>
    <rect x="36.192" y="38.096" width="6" height="10.404" fill="#385b60"/>
    <rect x="48.192" y="38.096" width="6" height="10.404" fill="#385b60"/>
    <rect x="12.5" y="79" width="103" height="10.904" fill="#385b60"/>
    <rect x="6.5" y="44.096" width="115" height="39.808" rx="3" fill="#537980"/>
    <path d="M115.5,74.456a1.75,1.75,0,0,1-1.75-1.75V66.833a1.75,1.75,0,0,1,3.5,0v5.873A1.75,1.75,0,0,1,115.5,74.456Z" fill="#385b60"/>
    <g>
      <path d="M23.074,63.988c0-5.094,3.111-8.694,7.543-8.694s7.568,3.6,7.568,8.694c0,5.118-3.135,8.718-7.568,8.718S23.074,69.106,23.074,63.988Zm11.388,0c0-3.16-1.567-5.413-3.845-5.413-2.253,0-3.845,2.253-3.845,5.413s1.592,5.437,3.845,5.437C32.9,69.425,34.462,67.147,34.462,63.988Z" fill="#95d70b"/>
      <path d="M42.587,67.906a4.564,4.564,0,0,1,3.307-4.187,4.121,4.121,0,0,1-2.866-3.846c0-2.963,3.037-4.579,6.319-4.579,3.355,0,6.342,1.69,6.342,4.579A4.158,4.158,0,0,1,52.8,63.719c1.983.783,3.306,2.252,3.306,4.187,0,3.062-3.062,4.8-6.759,4.8C45.624,72.706,42.587,70.943,42.587,67.906Zm9.87-.392c0-1.322-1.665-2.155-3.11-2.2-1.445.049-3.086.882-3.086,2.2,0,1.274,1.3,2.155,3.086,2.155S52.457,68.788,52.457,67.514Zm-.368-7.175c0-1.151-1.126-2.009-2.742-2.009s-2.719.858-2.719,2.009c0,1.3,1.4,2.032,2.719,2.13C50.669,62.371,52.089,61.588,52.089,60.339Z" fill="#95d70b"/>
      <path d="M60.754,61.588a2.255,2.255,0,0,1,2.278-2.18,2.229,2.229,0,0,1,0,4.457A2.273,2.273,0,0,1,60.754,61.588Zm0,8.84a2.255,2.255,0,0,1,2.278-2.179,2.229,2.229,0,0,1,0,4.457A2.274,2.274,0,0,1,60.754,70.428Z" fill="#95d70b"/>
      <path d="M70.082,63.988c0-5.094,3.11-8.694,7.543-8.694s7.567,3.6,7.567,8.694c0,5.118-3.134,8.718-7.567,8.718S70.082,69.106,70.082,63.988Zm11.388,0c0-3.16-1.567-5.413-3.845-5.413-2.253,0-3.845,2.253-3.845,5.413s1.592,5.437,3.845,5.437C79.9,69.425,81.47,67.147,81.47,63.988Z" fill="#95d70b"/>
      <path d="M89.815,63.988c0-5.094,3.111-8.694,7.543-8.694s7.568,3.6,7.568,8.694c0,5.118-3.135,8.718-7.568,8.718S89.815,69.106,89.815,63.988Zm11.389,0c0-3.16-1.568-5.413-3.846-5.413-2.253,0-3.844,2.253-3.844,5.413s1.591,5.437,3.844,5.437C99.636,69.425,101.2,67.147,101.2,63.988Z" fill="#95d70b"/>
    </g>
  </g>
</svg>
