<svg xmlns="http://www.w3.org/2000/svg" width="128" height="128" viewBox="0 0 128 128">
  <title>DRESSING TABLE</title>
  <g>
    <path d="M55.25,8.5h41.5a0,0,0,0,1,0,0V70a0,0,0,0,1,0,0H55.25a24,24,0,0,1-24-24V32.5A24,24,0,0,1,55.25,8.5Z" transform="translate(103.25 -24.75) rotate(90)" fill="#f2a66c"/>
    <path d="M55.25,14.5h35.5a0,0,0,0,1,0,0V64a0,0,0,0,1,0,0H55.25a18,18,0,0,1-18-18V32.5A18,18,0,0,1,55.25,14.5Z" transform="translate(103.25 -24.75) rotate(90)" fill="#ededf9"/>
    <path d="M82.75,54.333A1.749,1.749,0,0,1,81,52.583V47.5a1.75,1.75,0,0,1,3.5,0v5.083A1.749,1.749,0,0,1,82.75,54.333Z" fill="#dddde3"/>
    <g>
      <polygon points="94.808 121.5 88.808 121.5 84.724 72 94.808 72 94.808 121.5" fill="#663325"/>
      <polygon points="33.192 121.5 39.192 121.5 43.276 72 33.192 72 33.192 121.5" fill="#663325"/>
    </g>
    <path d="M27.192,68.5h73.615a0,0,0,0,1,0,0V76a3,3,0,0,1-3,3H30.192a3,3,0,0,1-3-3V68.5A0,0,0,0,1,27.192,68.5Z" fill="#4f2217"/>
    <rect x="24.192" y="64" width="79.615" height="9" fill="#663325"/>
    <g>
      <path d="M54.366,41.149a1.75,1.75,0,0,1-1.238-2.987L63.912,27.378a1.75,1.75,0,1,1,2.475,2.475L55.6,40.637A1.742,1.742,0,0,1,54.366,41.149Z" fill="#dddde3"/>
      <path d="M55.515,48.485A1.75,1.75,0,0,1,54.277,45.5L71.248,28.527A1.75,1.75,0,1,1,73.723,31L56.752,47.973A1.748,1.748,0,0,1,55.515,48.485Z" fill="#dddde3"/>
      <path d="M62.851,49.635a1.751,1.751,0,0,1-1.237-2.988L72.4,35.863a1.75,1.75,0,1,1,2.475,2.475L64.088,49.122A1.741,1.741,0,0,1,62.851,49.635Z" fill="#dddde3"/>
    </g>
  </g>
</svg>
