<svg xmlns="http://www.w3.org/2000/svg" width="128" height="128" viewBox="0 0 128 128">
  <title>FAN</title>
  <g>
    <polygon points="76 117.833 52 117.833 56.438 77.5 71.562 77.5 76 117.833" fill="#e4ffff"/>
    <path d="M60.192,100.009c-.063,0-.128,0-.193-.01a1.751,1.751,0,0,1-1.548-1.932l.51-4.632a1.749,1.749,0,1,1,3.478.382L61.93,98.45A1.751,1.751,0,0,1,60.192,100.009Z" fill="#addddc"/>
    <circle cx="64" cy="46.308" r="39.808" fill="#385b60"/>
    <circle cx="64" cy="46.308" r="33.808" fill="#537980"/>
    <path d="M74.744,30.015A46.666,46.666,0,0,1,66.88,45.75h-5.5c-.074-4.316-2.108-12.022-5.293-18.544a5.977,5.977,0,0,1,4.691-8.52,27.959,27.959,0,0,1,6.343-.011A8.975,8.975,0,0,1,74.744,30.015Z" fill="#e4ffff"/>
    <path d="M44.518,45.149a46.68,46.68,0,0,1,17.559-1.057l2.75,4.764c-3.7,2.222-9.357,7.836-13.413,13.856a5.977,5.977,0,0,1-9.724.2,28.005,28.005,0,0,1-3.182-5.488A8.977,8.977,0,0,1,44.518,45.149Z" fill="#e4ffff"/>
    <path d="M72.738,63.759a46.665,46.665,0,0,1-9.695-14.678l2.75-4.763C69.568,46.411,77.258,48.5,84.5,49.005a5.978,5.978,0,0,1,5.033,8.324,27.962,27.962,0,0,1-3.162,5.5A8.975,8.975,0,0,1,72.738,63.759Z" fill="#e4ffff"/>
    <circle cx="64" cy="46.308" r="10.5" fill="#3ea7fb"/>
    <circle cx="64" cy="46.308" r="4.5" fill="#0f89cc"/>
    <g>
      <path d="M76,106.5h0a3,3,0,0,1,3,3v5.125a0,0,0,0,1,0,0H73a0,0,0,0,1,0,0V109.5a3,3,0,0,1,3-3Z" fill="#537980"/>
      <path d="M64,106.5h0a3,3,0,0,1,3,3v5.125a0,0,0,0,1,0,0H61a0,0,0,0,1,0,0V109.5A3,3,0,0,1,64,106.5Z" fill="#537980"/>
      <path d="M52,106.5h0a3,3,0,0,1,3,3v5.125a0,0,0,0,1,0,0H49a0,0,0,0,1,0,0V109.5A3,3,0,0,1,52,106.5Z" fill="#537980"/>
    </g>
    <path d="M92.75,121.5H35.25l1-2.917a9,9,0,0,1,8.515-6.083H83.236a9,9,0,0,1,8.515,6.083Z" fill="#385b60"/>
    <path d="M40.738,41.615a1.725,1.725,0,0,0,.473.066A1.753,1.753,0,0,0,42.9,40.4a22.093,22.093,0,0,1,7.965-11.624,1.75,1.75,0,0,0-2.1-2.8,25.619,25.619,0,0,0-9.234,13.477A1.751,1.751,0,0,0,40.738,41.615Z" fill="#addddc"/>
    <path d="M70.3,70.926a1.75,1.75,0,0,0-.866-3.392,21.921,21.921,0,0,1-14.055-1.081A1.749,1.749,0,1,0,54,69.667,25.146,25.146,0,0,0,64,71.72,25.512,25.512,0,0,0,70.3,70.926Z" fill="#addddc"/>
    <path d="M85.762,43.706A1.75,1.75,0,0,0,87.5,45.25a1.84,1.84,0,0,0,.208-.012,1.751,1.751,0,0,0,1.532-1.944,25.488,25.488,0,0,0-7.067-14.738A1.75,1.75,0,0,0,79.669,31,21.684,21.684,0,0,1,85.762,43.706Z" fill="#addddc"/>
    <path d="M46.691,37.5a1.751,1.751,0,0,0,.763,2.354,1.731,1.731,0,0,0,.8.192,1.749,1.749,0,0,0,1.56-.955,16.407,16.407,0,0,1,3.545-4.626,1.75,1.75,0,0,0-2.368-2.578A19.89,19.89,0,0,0,46.691,37.5Z" fill="#addddc"/>
    <path d="M79.567,42.979a1.752,1.752,0,0,0,1.711,1.392,1.786,1.786,0,0,0,.361-.038,1.75,1.75,0,0,0,1.354-2.072,18.866,18.866,0,0,0-2.722-6.532,1.749,1.749,0,1,0-2.923,1.922A15.394,15.394,0,0,1,79.567,42.979Z" fill="#addddc"/>
    <path d="M63.907,65.722q.557,0,1.118-.033a1.75,1.75,0,1,0-.2-3.494,15.443,15.443,0,0,1-5.722-.741,1.75,1.75,0,1,0-1.092,3.325A18.846,18.846,0,0,0,63.907,65.722Z" fill="#addddc"/>
  </g>
</svg>
