<svg xmlns="http://www.w3.org/2000/svg" width="128" height="128" viewBox="0 0 128 128">
  <title>FIREPLACE</title>
  <g>
    <rect x="21.331" y="39.25" width="85.338" height="79.25" transform="translate(128 157.75) rotate(180)" fill="#f2a66c"/>
    <path d="M100.669,61.583a1.75,1.75,0,0,1-1.75-1.75V54.917a1.75,1.75,0,0,1,3.5,0v4.916A1.75,1.75,0,0,1,100.669,61.583Z" fill="#d58559"/>
    <path d="M92.5,86.5v32h-57v-32a28.5,28.5,0,0,1,57,0Z" fill="#dddde3"/>
    <path d="M86.5,86.5v32h-45v-32a22.5,22.5,0,0,1,45,0Z" fill="#ededf9"/>
    <rect x="21.331" y="9.5" width="85.338" height="21.885" transform="translate(128 40.885) rotate(180)" fill="#4f2217"/>
    <path d="M18.331,115.5h91.338a3,3,0,0,1,3,3v3a0,0,0,0,1,0,0H15.331a0,0,0,0,1,0,0v-3A3,3,0,0,1,18.331,115.5Z" fill="#663325"/>
    <rect x="18.331" y="32.167" width="91.338" height="9.718" fill="#4f2217"/>
    <rect x="18.331" y="6.5" width="91.338" height="6" fill="#663325"/>
    <rect x="15.331" y="26.885" width="97.338" height="9" fill="#663325"/>
    <path d="M63.06,109.5c-5.449,0-11.726-6.553-5.587-16.21S63.75,82.667,63.75,82.667A20.017,20.017,0,0,1,68.51,94.6c1.655-.483,3.407-3.35,3.407-3.35C75.78,99.183,74.1,109.5,63.06,109.5Z" fill="#f5502f"/>
    <path d="M64.906,109.5c2.234,0,4.807-2.686,2.29-6.645S64.623,98.5,64.623,98.5a8.207,8.207,0,0,0-1.951,4.892c-.679-.2-2.168-1.934-2.168-1.934C58.833,105.292,60.381,109.5,64.906,109.5Z" fill="#d63922"/>
  </g>
</svg>
