<svg xmlns="http://www.w3.org/2000/svg" width="128" height="128" viewBox="0 0 128 128">
  <title>HANGER</title>
  <g>
    <path d="M64,57.917a1.75,1.75,0,0,1-1.75-1.75V49.73a4.779,4.779,0,0,1,3.183-4.477,4.262,4.262,0,0,0,2.719-4.937,4.253,4.253,0,0,0-8.4.934,1.75,1.75,0,0,1-3.5,0,7.752,7.752,0,1,1,10.361,7.3,1.257,1.257,0,0,0-.861,1.181v6.437A1.75,1.75,0,0,1,64,57.917Z" fill="#ededf9"/>
    <path d="M115.25,92.318H12.75a1.75,1.75,0,0,1,0-3.5h102.5a1.75,1.75,0,0,1,0,3.5Z" fill="#ededf9"/>
    <path d="M73.021,67.638l-2.115-10.49a3,3,0,0,0-2.941-2.407H60.877a3,3,0,0,0-2.941,2.408L55.9,67.248,6.5,88.151l1.171,2.767A3,3,0,0,0,11.6,92.512L64,70.341l52.4,22.171a3,3,0,0,0,3.932-1.594l1.171-2.767Z" fill="#663325"/>
  </g>
</svg>
