<svg xmlns="http://www.w3.org/2000/svg" width="128" height="128" viewBox="0 0 128 128">
  <title>HEADPHONES</title>
  <g>
    <path d="M108.863,86.75l1.362-14.7a46.423,46.423,0,1,0-92.45,0l1.362,14.7-5.47,6L11.8,72.6A52.422,52.422,0,0,1,64,15.346h0A52.422,52.422,0,0,1,116.2,72.6L114.333,92.75Z" fill="#0f89cc"/>
    <path d="M110.641,89.582h7.5a3,3,0,0,1,3,3v6a3,3,0,0,1-3,3h-7.5a0,0,0,0,1,0,0v-12A0,0,0,0,1,110.641,89.582Z" transform="translate(12.891 -13.769) rotate(7.199)" fill="#e4ffff"/>
    <path d="M94.441,77.281h8.788a12,12,0,0,1,12,12v9.808a12,12,0,0,1-12,12H94.441a0,0,0,0,1,0,0V77.281A0,0,0,0,1,94.441,77.281Z" transform="matrix(0.992, 0.125, -0.125, 0.992, 12.629, -12.394)" fill="#3ea7fb"/>
    <path d="M91.523,72.979h3a3,3,0,0,1,3,3v33.808a3,3,0,0,1-3,3h-3a0,0,0,0,1,0,0V72.979a0,0,0,0,1,0,0Z" transform="translate(12.384 -11.112) rotate(7.199)" fill="#e4ffff"/>
    <path d="M6.859,89.582h7.5a3,3,0,0,1,3,3v6a3,3,0,0,1-3,3h-7.5a0,0,0,0,1,0,0v-12a0,0,0,0,1,0,0Z" transform="translate(36.099 188.893) rotate(172.801)" fill="#e4ffff"/>
    <path d="M12.771,77.281h8.788a12,12,0,0,1,12,12v9.808a12,12,0,0,1-12,12H12.771a0,0,0,0,1,0,0V77.281a0,0,0,0,1,0,0Z" transform="translate(57.949 184.726) rotate(172.801)" fill="#3ea7fb"/>
    <path d="M18.983,97.912a1.749,1.749,0,0,1-1.734-1.531l-.576-4.565a1.75,1.75,0,1,1,3.473-.437l.576,4.564A1.751,1.751,0,0,1,19.2,97.9,1.64,1.64,0,0,1,18.983,97.912Z" fill="#0f89cc"/>
    <path d="M30.477,72.979h3a3,3,0,0,1,3,3v33.808a3,3,0,0,1-3,3h-3a0,0,0,0,1,0,0V72.979a0,0,0,0,1,0,0Z" transform="matrix(-0.992, 0.125, -0.125, -0.992, 78.329, 180.839)" fill="#e4ffff"/>
    <path d="M110.59,43.726l-4.768,3.154a6,6,0,0,1-8.286-1.668A40.412,40.412,0,0,0,34.13,40.536a40.112,40.112,0,0,0-3.667,4.672,5.993,5.993,0,0,1-8.287,1.67L17.41,43.726a52.432,52.432,0,0,1,93.18,0Z" fill="#3ea7fb"/>
  </g>
</svg>
