<svg xmlns="http://www.w3.org/2000/svg" width="128" height="128" viewBox="0 0 128 128">
  <title>HOT TEA</title>
  <g>
    <path d="M95.74,56.5H79.24v35h16.5a12,12,0,0,0,12-12v-11A12,12,0,0,0,95.74,56.5Zm6,23a6,6,0,0,1-6,6H85.24v-23h10.5a6,6,0,0,1,6,6Z" fill="#d58559"/>
    <path d="M76.707,117.218H36.172A12,12,0,0,1,24.2,106.01L20.262,46.5H92.616L88.68,106.01A12,12,0,0,1,76.707,117.218Z" fill="#f2a66c"/>
    <path d="M85.116,70.766c-.039,0-.078,0-.117,0A1.751,1.751,0,0,1,83.368,68.9l.381-5.766a1.75,1.75,0,0,1,3.492.23l-.381,5.767A1.749,1.749,0,0,1,85.116,70.766Z" fill="#d58559"/>
    <g>
      <path d="M41.939,32.25a1.75,1.75,0,0,1-1.75-1.75,9.507,9.507,0,0,1,1.185-4.783,6.069,6.069,0,0,0,.815-3.219,6.069,6.069,0,0,0-.815-3.219A9.507,9.507,0,0,1,40.189,14.5a9.5,9.5,0,0,1,1.185-4.781A6.056,6.056,0,0,0,42.189,6.5a1.75,1.75,0,0,1,3.5,0,9.5,9.5,0,0,1-1.184,4.781,6.056,6.056,0,0,0-.816,3.215,6.068,6.068,0,0,0,.816,3.219A9.512,9.512,0,0,1,45.689,22.5a9.509,9.509,0,0,1-1.184,4.783,6.068,6.068,0,0,0-.816,3.219A1.749,1.749,0,0,1,41.939,32.25Z" fill="#ededf9"/>
      <path d="M50.939,32.25a1.75,1.75,0,0,1-1.75-1.75,9.507,9.507,0,0,1,1.185-4.783,6.069,6.069,0,0,0,.815-3.219,6.069,6.069,0,0,0-.815-3.219A9.507,9.507,0,0,1,49.189,14.5a9.5,9.5,0,0,1,1.185-4.781A6.056,6.056,0,0,0,51.189,6.5a1.75,1.75,0,0,1,3.5,0,9.5,9.5,0,0,1-1.184,4.781,6.056,6.056,0,0,0-.816,3.215,6.068,6.068,0,0,0,.816,3.219A9.512,9.512,0,0,1,54.689,22.5a9.509,9.509,0,0,1-1.184,4.783,6.068,6.068,0,0,0-.816,3.219A1.749,1.749,0,0,1,50.939,32.25Z" fill="#ededf9"/>
      <path d="M59.939,32.25a1.75,1.75,0,0,1-1.75-1.75,9.507,9.507,0,0,1,1.185-4.783,6.069,6.069,0,0,0,.815-3.219,6.069,6.069,0,0,0-.815-3.219A9.507,9.507,0,0,1,58.189,14.5a9.5,9.5,0,0,1,1.185-4.781A6.056,6.056,0,0,0,60.189,6.5a1.75,1.75,0,1,1,3.5,0,9.5,9.5,0,0,1-1.184,4.781,6.056,6.056,0,0,0-.816,3.215,6.068,6.068,0,0,0,.816,3.219A9.512,9.512,0,0,1,63.689,22.5a9.509,9.509,0,0,1-1.184,4.783,6.068,6.068,0,0,0-.816,3.219A1.749,1.749,0,0,1,59.939,32.25Z" fill="#ededf9"/>
      <path d="M68.939,32.25a1.75,1.75,0,0,1-1.75-1.75,9.507,9.507,0,0,1,1.185-4.783,6.069,6.069,0,0,0,.815-3.219,6.069,6.069,0,0,0-.815-3.219A9.507,9.507,0,0,1,67.189,14.5a9.5,9.5,0,0,1,1.185-4.781A6.056,6.056,0,0,0,69.189,6.5a1.75,1.75,0,0,1,3.5,0,9.5,9.5,0,0,1-1.184,4.781,6.056,6.056,0,0,0-.816,3.215,6.068,6.068,0,0,0,.816,3.219A9.512,9.512,0,0,1,72.689,22.5a9.509,9.509,0,0,1-1.184,4.783,6.068,6.068,0,0,0-.816,3.219A1.749,1.749,0,0,1,68.939,32.25Z" fill="#ededf9"/>
    </g>
    <path d="M87.433,108.336c5.631,2.161,8.539,8.231,8.539,8.231s-6.222,2.566-11.853.405-8.539-8.231-8.539-8.231S81.8,106.175,87.433,108.336Z" fill="#95d70b"/>
    <path d="M93.929,105.8c2.744,5.371.848,11.83.848,11.83s-6.342-2.252-9.086-7.623-.848-11.83-.848-11.83S91.186,100.426,93.929,105.8Z" fill="#90c202"/>
    <path d="M100.674,108.826c-1.836,5.746-7.729,9-7.729,9s-2.918-6.065-1.083-11.811,7.729-9,7.729-9S102.509,103.08,100.674,108.826Z" fill="#95d70b"/>
    <path d="M18.331,115.5h91.338a3,3,0,0,1,3,3v3a0,0,0,0,1,0,0H15.331a0,0,0,0,1,0,0v-3A3,3,0,0,1,18.331,115.5Z" transform="translate(128 237) rotate(180)" fill="#663325"/>
    <g>
      <path d="M40.125,68.75A1.749,1.749,0,0,1,38.375,67V46.5a1.75,1.75,0,0,1,3.5,0V67A1.749,1.749,0,0,1,40.125,68.75Z" fill="#4f2217"/>
      <polygon points="44.625 73.875 44.625 61.874 40.125 60.125 35.625 61.874 35.625 73.875 44.625 73.875" fill="#663325"/>
    </g>
  </g>
</svg>
