<svg xmlns="http://www.w3.org/2000/svg" width="128" height="128" viewBox="0 0 128 128">
  <title>LAMP</title>
  <g>
    <path d="M67,75.195V61H61V75.195c0,7.778-4.125,12.93-4.125,19.555s2.172,17.583,2.172,17.583h9.906s2.172-10.958,2.172-17.583S67,82.973,67,75.195Z" fill="#f2a66c"/>
    <rect x="55" y="109.375" width="18" height="7.875" fill="#663325"/>
    <path d="M85,121.5H43l1.522-4.054A3,3,0,0,1,47.33,115.5H80.67a3,3,0,0,1,2.808,1.946Z" fill="#4f2217"/>
    <path d="M83.75,78.708A1.749,1.749,0,0,1,82,76.958V61a1.75,1.75,0,0,1,3.5,0V76.958A1.749,1.749,0,0,1,83.75,78.708Z" fill="#f2a66c"/>
    <circle cx="83.75" cy="78.196" r="3" fill="#663325"/>
    <path d="M81.62,12.5c-.109-1.2-.2-2.279-.259-3.209A2.993,2.993,0,0,0,78.368,6.5H49.632a2.993,2.993,0,0,0-2.993,2.791c-.06.93-.15,2.01-.259,3.209C45.34,23.75,42.11,39.95,35.25,64h57.5C85.89,39.95,82.66,23.75,81.62,12.5Z" fill="#f9d42f"/>
    <path d="M44.949,52.987a1.752,1.752,0,0,1-1.7-2.189q.693-2.68,1.322-5.241a1.75,1.75,0,1,1,3.4.835q-.633,2.58-1.332,5.282A1.752,1.752,0,0,1,44.949,52.987Z" fill="#fb9401"/>
    <path d="M81.62,12.5H46.38c.11-1.2.2-2.28.26-3.21A2.988,2.988,0,0,1,49.63,6.5H78.37a2.988,2.988,0,0,1,2.99,2.79C81.42,10.22,81.51,11.3,81.62,12.5Z" fill="#fb9401"/>
  </g>
</svg>
