<svg xmlns="http://www.w3.org/2000/svg" width="128" height="128" viewBox="0 0 128 128">
  <title>LIGHT BULB</title>
  <g>
    <path d="M96.12,56.32a31.974,31.974,0,0,1-8.39,21.64A44.534,44.534,0,0,0,76.21,103.5a41.957,41.957,0,0,0-.22,4.35v4.65a3,3,0,0,1-3,3h-18a3,3,0,0,1-3-3v-4.68a38.817,38.817,0,0,0-.23-4.32A45.653,45.653,0,0,0,40.08,77.76,32.122,32.122,0,1,1,96.12,56.32Z" fill="#f9d42f"/>
    <path d="M88.926,50.253a1.75,1.75,0,0,1-1.669-1.226,24.422,24.422,0,0,0-2.133-4.855,1.749,1.749,0,1,1,3.031-1.748A27.835,27.835,0,0,1,90.6,47.979a1.749,1.749,0,0,1-1.67,2.274Z" fill="#fb9401"/>
    <path d="M61,112.125h6a3,3,0,0,1,3,3V121.5a0,0,0,0,1,0,0H58a0,0,0,0,1,0,0v-6.375A3,3,0,0,1,61,112.125Z" transform="translate(128 233.625) rotate(180)" fill="#385b60"/>
    <path d="M73.782,59.747A6.257,6.257,0,0,0,67.532,66v2.75H60.468V66a6.25,6.25,0,1,0-6.25,6.25h2.75v37.16a1.75,1.75,0,0,0,3.5,0V72.247h7.064v37.16a1.75,1.75,0,0,0,3.5,0V72.247h2.75a6.25,6.25,0,0,0,0-12.5ZM51.468,66a2.75,2.75,0,0,1,5.5,0v2.75h-2.75A2.753,2.753,0,0,1,51.468,66Zm22.314,2.75h-2.75V66a2.75,2.75,0,1,1,2.75,2.75Z" fill="#fb9401"/>
    <path d="M76.21,103.5a41.957,41.957,0,0,0-.22,4.35v4.65a3,3,0,0,1-3,3h-18a3,3,0,0,1-3-3v-4.68a38.817,38.817,0,0,0-.23-4.32Z" fill="#537980"/>
    <path d="M64,17.25a1.75,1.75,0,0,1-1.75-1.75v-9a1.75,1.75,0,0,1,3.5,0v9A1.75,1.75,0,0,1,64,17.25Z" fill="#fb9401"/>
    <path d="M43.594,22.717a1.749,1.749,0,0,1-1.517-.875l-4.5-7.794a1.75,1.75,0,1,1,3.031-1.75l4.5,7.794a1.75,1.75,0,0,1-.641,2.39A1.73,1.73,0,0,1,43.594,22.717Z" fill="#fb9401"/>
    <path d="M28.65,37.655a1.744,1.744,0,0,1-.873-.234l-7.8-4.5a1.75,1.75,0,0,1,1.75-3.031l7.8,4.5a1.75,1.75,0,0,1-.877,3.265Z" fill="#fb9401"/>
    <path d="M23.182,58.063h-9a1.75,1.75,0,0,1,0-3.5h9a1.75,1.75,0,1,1,0,3.5Z" fill="#fb9401"/>
    <path d="M20.856,82.971a1.75,1.75,0,0,1-.877-3.266l7.8-4.5a1.75,1.75,0,1,1,1.75,3.031l-7.8,4.5A1.73,1.73,0,0,1,20.856,82.971Z" fill="#fb9401"/>
    <path d="M84.406,22.717a1.73,1.73,0,0,1-.873-.235,1.75,1.75,0,0,1-.641-2.39l4.5-7.794a1.75,1.75,0,1,1,3.031,1.75l-4.5,7.794A1.749,1.749,0,0,1,84.406,22.717Z" fill="#fb9401"/>
    <path d="M99.35,37.655a1.75,1.75,0,0,1-.877-3.265l7.8-4.5a1.75,1.75,0,0,1,1.75,3.031l-7.8,4.5A1.742,1.742,0,0,1,99.35,37.655Z" fill="#fb9401"/>
    <path d="M113.818,58.063h-9a1.75,1.75,0,0,1,0-3.5h9a1.75,1.75,0,0,1,0,3.5Z" fill="#fb9401"/>
    <path d="M107.144,82.971a1.73,1.73,0,0,1-.873-.235l-7.8-4.5a1.75,1.75,0,1,1,1.75-3.031l7.8,4.5a1.75,1.75,0,0,1-.877,3.266Z" fill="#fb9401"/>
  </g>
</svg>
