<svg xmlns="http://www.w3.org/2000/svg" width="128" height="128" viewBox="0 0 128 128">
  <title>LOCKER</title>
  <g>
    <rect x="24.192" y="9.5" width="79.615" height="109" fill="#ededf9"/>
    <path d="M97.808,82.125a1.749,1.749,0,0,1-1.75-1.75v-6.5a1.75,1.75,0,0,1,3.5,0v6.5A1.75,1.75,0,0,1,97.808,82.125Z" fill="#dddde3"/>
    <path d="M70,68.75A1.75,1.75,0,0,1,68.25,67V61a1.75,1.75,0,0,1,3.5,0v6A1.75,1.75,0,0,1,70,68.75Z" fill="#537980"/>
    <g>
      <path d="M92.9,37.125h-18a1.75,1.75,0,0,1,0-3.5h18a1.75,1.75,0,0,1,0,3.5Z" fill="#537980"/>
      <path d="M92.9,31.125h-18a1.75,1.75,0,0,1,0-3.5h18a1.75,1.75,0,0,1,0,3.5Z" fill="#537980"/>
      <path d="M92.9,43.125h-18a1.75,1.75,0,0,1,0-3.5h18a1.75,1.75,0,0,1,0,3.5Z" fill="#537980"/>
    </g>
    <g>
      <path d="M92.9,100.375h-18a1.75,1.75,0,0,1,0-3.5h18a1.75,1.75,0,0,1,0,3.5Z" fill="#537980"/>
      <path d="M92.9,106.375h-18a1.75,1.75,0,0,1,0-3.5h18a1.75,1.75,0,0,1,0,3.5Z" fill="#537980"/>
      <path d="M92.9,94.375h-18a1.75,1.75,0,0,1,0-3.5h18a1.75,1.75,0,0,1,0,3.5Z" fill="#537980"/>
    </g>
    <path d="M58,68.75A1.75,1.75,0,0,1,56.25,67V61a1.75,1.75,0,0,1,3.5,0v6A1.75,1.75,0,0,1,58,68.75Z" fill="#537980"/>
    <g>
      <path d="M53.1,37.125h-18a1.75,1.75,0,0,1,0-3.5h18a1.75,1.75,0,1,1,0,3.5Z" fill="#537980"/>
      <path d="M53.1,31.125h-18a1.75,1.75,0,0,1,0-3.5h18a1.75,1.75,0,1,1,0,3.5Z" fill="#537980"/>
      <path d="M53.1,43.125h-18a1.75,1.75,0,0,1,0-3.5h18a1.75,1.75,0,1,1,0,3.5Z" fill="#537980"/>
    </g>
    <g>
      <path d="M53.1,100.375h-18a1.75,1.75,0,0,1,0-3.5h18a1.75,1.75,0,1,1,0,3.5Z" fill="#537980"/>
      <path d="M53.1,106.375h-18a1.75,1.75,0,0,1,0-3.5h18a1.75,1.75,0,1,1,0,3.5Z" fill="#537980"/>
      <path d="M53.1,94.375h-18a1.75,1.75,0,0,1,0-3.5h18a1.75,1.75,0,1,1,0,3.5Z" fill="#537980"/>
    </g>
    <path d="M64,120.25a1.75,1.75,0,0,1-1.75-1.75V9.5a1.75,1.75,0,0,1,3.5,0v109A1.75,1.75,0,0,1,64,120.25Z" fill="#385b60"/>
    <rect x="24.192" y="6.5" width="79.615" height="6" fill="#537980"/>
    <rect x="24.192" y="115.5" width="79.615" height="6" fill="#537980"/>
  </g>
</svg>
