<svg xmlns="http://www.w3.org/2000/svg" width="128" height="128" viewBox="0 0 128 128">
  <title>MINERAL WATER</title>
  <g>
    <path d="M86.75,53.849V42.484a12,12,0,0,0-6.392-10.609h0A12.873,12.873,0,0,1,73.5,20.493v-8.3h-19v8.3a12.873,12.873,0,0,1-6.858,11.382h0A12,12,0,0,0,41.25,42.484V53.849a5.323,5.323,0,0,0,1.5,3.7h0a5.323,5.323,0,0,1,1.5,3.7V91.945a5.323,5.323,0,0,1-1.5,3.7h0a5.323,5.323,0,0,0-1.5,3.7V115.5a6,6,0,0,0,6,6h33.5a6,6,0,0,0,6-6V99.353a5.323,5.323,0,0,0-1.5-3.7h0a5.323,5.323,0,0,1-1.5-3.7V61.257a5.323,5.323,0,0,1,1.5-3.7h0A5.323,5.323,0,0,0,86.75,53.849Z" fill="#ededf9"/>
    <path d="M74.139,36.619a1.744,1.744,0,0,1-1.132-.416,20.481,20.481,0,0,1-3.88-4.389A1.75,1.75,0,0,1,72.053,29.9a17.035,17.035,0,0,0,3.219,3.64,1.75,1.75,0,0,1-1.133,3.084Z" fill="#dddde3"/>
    <rect x="51.5" y="6.5" width="25" height="12" rx="3" fill="#dddde3"/>
    <rect x="44.25" y="59.101" width="39.5" height="35" fill="#3ea7fb"/>
    <path d="M70,79.1a6,6,0,0,1-12,0c0-4.66,6-11,6-11S70,74.441,70,79.1Z" fill="#ededf9"/>
  </g>
</svg>
