<svg xmlns="http://www.w3.org/2000/svg" width="128" height="128" viewBox="0 0 128 128">
  <title>MIRROR</title>
  <g>
    <path d="M24.19,55.15V118.5h6V58.15H97.87V118.5h6V55.15a3,3,0,0,0-3-3H27.19A3,3,0,0,0,24.19,55.15Z" fill="#537980"/>
    <rect x="36.125" y="6.5" width="55.75" height="97.308" rx="27.875" fill="#385b60"/>
    <path d="M64,97.808A21.9,21.9,0,0,1,42.125,75.933V34.375a21.875,21.875,0,0,1,43.75,0V75.933A21.9,21.9,0,0,1,64,97.808Z" fill="#ededf9"/>
    <path d="M51.5,26.351a1.751,1.751,0,0,1-1.376-2.83,17.727,17.727,0,0,1,4.124-3.82,1.75,1.75,0,0,1,1.941,2.912,14.24,14.24,0,0,0-3.311,3.067A1.745,1.745,0,0,1,51.5,26.351Z" fill="#dddde3"/>
    <path d="M18.331,115.5h91.338a3,3,0,0,1,3,3v3a0,0,0,0,1,0,0H15.331a0,0,0,0,1,0,0v-3A3,3,0,0,1,18.331,115.5Z" fill="#385b60"/>
    <g>
      <path d="M51.272,61.146a1.75,1.75,0,0,1-1.237-2.987l16.97-16.971a1.75,1.75,0,1,1,2.475,2.475L52.509,60.634A1.742,1.742,0,0,1,51.272,61.146Z" fill="#dddde3"/>
      <path d="M51.625,69.278a1.75,1.75,0,0,1-1.237-2.987L75.137,41.542a1.75,1.75,0,1,1,2.475,2.475L52.863,68.766A1.748,1.748,0,0,1,51.625,69.278Z" fill="#dddde3"/>
      <path d="M59.757,69.632a1.75,1.75,0,0,1-1.237-2.987L75.491,49.674a1.749,1.749,0,1,1,2.474,2.474L61,69.119A1.745,1.745,0,0,1,59.757,69.632Z" fill="#dddde3"/>
    </g>
  </g>
</svg>
