<svg xmlns="http://www.w3.org/2000/svg" width="128" height="128" viewBox="0 0 128 128">
  <title>MOSQUITO</title>
  <g>
    <g>
      <g>
        <path d="M101.127,97.67a1.6,1.6,0,0,1-.248-.018l-5.25-.746a1.755,1.755,0,0,1-1.309-.928L86.346,80.56,67.715,64.06a1.75,1.75,0,1,1,2.32-2.62L88.91,78.156a1.784,1.784,0,0,1,.4.506l7.71,14.906,4.356.62a1.75,1.75,0,0,1-.244,3.482Z" fill="#385b60"/>
        <path d="M90.056,123.25a1.748,1.748,0,0,1-1.28-.556l-5.25-5.625a1.753,1.753,0,0,1-.464-1.044L80.6,87.32,67.391,66.177a1.75,1.75,0,1,1,2.968-1.854l13.431,21.5a1.749,1.749,0,0,1,.259.777L86.5,115.123l4.838,5.183a1.75,1.75,0,0,1-1.279,2.944Z" fill="#385b60"/>
      </g>
      <g>
        <path d="M26.873,97.67a1.75,1.75,0,0,1-.244-3.482l4.356-.62L38.7,78.662a1.784,1.784,0,0,1,.4-.506L57.965,61.44a1.75,1.75,0,1,1,2.32,2.62L41.654,80.56,33.68,95.978a1.755,1.755,0,0,1-1.309.928l-5.25.746A1.6,1.6,0,0,1,26.873,97.67Z" fill="#385b60"/>
        <path d="M37.944,123.25a1.75,1.75,0,0,1-1.279-2.944l4.838-5.183L43.951,86.6a1.749,1.749,0,0,1,.259-.777l13.431-21.5a1.75,1.75,0,0,1,2.968,1.854L47.4,87.32l-2.465,28.705a1.746,1.746,0,0,1-.463,1.044l-5.25,5.625A1.748,1.748,0,0,1,37.944,123.25Z" fill="#385b60"/>
      </g>
    </g>
    <g>
      <path d="M67.751,44.1a1.75,1.75,0,0,1-1.15-3.07L79.883,29.463l2.768-15.917a1.742,1.742,0,0,1,.492-.942l3.375-3.347a1.75,1.75,0,1,1,2.464,2.486L86,14.7l-2.78,15.979a1.751,1.751,0,0,1-.575,1.02L68.9,43.666A1.742,1.742,0,0,1,67.751,44.1Z" fill="#385b60"/>
      <path d="M60.249,44.1a1.742,1.742,0,0,1-1.148-.43L45.351,31.7a1.751,1.751,0,0,1-.575-1.02L42,14.7l-2.978-2.953a1.75,1.75,0,1,1,2.464-2.486L44.857,12.6a1.742,1.742,0,0,1,.492.942l2.768,15.917L61.4,41.026a1.75,1.75,0,0,1-1.15,3.07Z" fill="#385b60"/>
    </g>
    <path d="M67.75,43.073l38.034-4.842a6,6,0,0,1,6.56,7.482h0a12.969,12.969,0,0,1-14.095,9.569L68.565,51.7Z" fill="#537980"/>
    <path d="M60.143,43.073,22.108,38.231a6,6,0,0,0-6.559,7.482h0a12.969,12.969,0,0,0,14.1,9.569L59.327,51.7Z" fill="#537980"/>
    <path d="M67.149,47.141l36.107,9.476a6,6,0,0,1,3.774,8.621h0a13.284,13.284,0,0,1-18.781,5.019l-23.624-14.8Z" fill="#537980"/>
    <path d="M95.286,68.037a9,9,0,0,1-4.781-1.382,1.75,1.75,0,0,1,1.859-2.966,5.494,5.494,0,0,0,2.922.848,1.75,1.75,0,0,1,0,3.5Z" fill="#385b60"/>
    <path d="M60.851,47.141,24.744,56.617a6,6,0,0,0-3.774,8.621h0a13.284,13.284,0,0,0,18.781,5.019l23.624-14.8Z" fill="#537980"/>
    <path d="M60.228,52.744C57.2,59.76,55.96,81.089,56.194,96.15a7.791,7.791,0,0,0,5.807,7.4h0a7.807,7.807,0,0,0,4,0h0a7.791,7.791,0,0,0,5.807-7.4c.234-15.061-1.009-36.39-4.034-43.406Z" fill="#537980"/>
    <path d="M64,74.84c-2.52,0-4.96-.1-7.24-.3.08-1.18.16-2.34.26-3.48h.01a87.672,87.672,0,0,0,13.94,0h.01c.1,1.14.18,2.3.26,3.48C68.96,74.74,66.52,74.84,64,74.84Z" fill="#385b60"/>
    <path d="M64,82.45c-2.7,0-5.28-.11-7.64-.33.04-1.16.1-2.33.16-3.49.02-.01.05,0,.07,0,2.29.21,4.78.32,7.41.32s5.12-.11,7.41-.32c.02,0,.05-.01.07,0,.06,1.16.12,2.33.16,3.49C69.28,82.34,66.7,82.45,64,82.45Z" fill="#385b60"/>
    <path d="M64,90.06c-2.74,0-5.37-.12-7.82-.35.01-1.15.03-2.32.05-3.5a.66.66,0,0,1,.14.01c2.38.22,4.94.34,7.63.34s5.25-.12,7.63-.34a.66.66,0,0,1,.14-.01c.02,1.18.04,2.35.05,3.5C69.37,89.94,66.74,90.06,64,90.06Z" fill="#385b60"/>
    <path d="M71.83,93.82c0,.79-.01,1.57-.02,2.33a6.65,6.65,0,0,1-.12,1.18v.01c-2.41.22-5,.33-7.69.33s-5.28-.11-7.69-.33v-.01a6.65,6.65,0,0,1-.12-1.18c-.01-.76-.02-1.54-.02-2.33a1.087,1.087,0,0,1,.18.01c2.38.22,4.96.34,7.65.34s5.27-.12,7.65-.34A1.087,1.087,0,0,1,71.83,93.82Z" fill="#385b60"/>
    <path d="M62,35c-3.659,4.014-5.979,13.343-6.634,21.54a8.67,8.67,0,0,0,7.428,9.29h0a8.623,8.623,0,0,0,2.412,0h0a8.671,8.671,0,0,0,7.428-9.29C71.979,48.343,69.659,39.014,66,35Z" fill="#385b60"/>
    <path d="M64,32.125a1.75,1.75,0,0,1-1.75-1.75V6.5a1.75,1.75,0,0,1,3.5,0V30.375A1.75,1.75,0,0,1,64,32.125Z" fill="#385b60"/>
    <path d="M64,39.433c-3.308,0-6-1.312-6-4.62s2.692-7.38,6-7.38,6,4.071,6,7.38S67.308,39.433,64,39.433Z" fill="#537980"/>
  </g>
</svg>
