<svg xmlns="http://www.w3.org/2000/svg" width="128" height="128" viewBox="0 0 128 128">
  <title>NECK PILLOW</title>
  <g>
    <path d="M121.5,62.845c0,11.251-5.539,27.087-11.195,40.326a14.916,14.916,0,0,1-13.725,9.044h0A14.923,14.923,0,0,1,82.8,91.526c4.944-11.717,8.7-23.128,8.7-28.681,0-3.64-.54-8.53-3.14-11.19-3.6-3.67-12.7-5.87-24.36-5.87s-20.76,2.2-24.36,5.87c-2.6,2.66-3.14,7.55-3.14,11.19,0,5.554,3.753,16.962,8.7,28.681a14.923,14.923,0,0,1-13.779,20.689h0a14.916,14.916,0,0,1-13.725-9.043C12.038,89.936,6.5,74.1,6.5,62.845c0-23,12-47.06,57.5-47.06S121.5,39.845,121.5,62.845Z" fill="#b360e6"/>
    <path d="M23.079,35.914a1.75,1.75,0,0,1-1.215-3.009,35.563,35.563,0,0,1,3.91-3.259,1.75,1.75,0,1,1,2.045,2.84,32.3,32.3,0,0,0-3.525,2.937A1.741,1.741,0,0,1,23.079,35.914Z" fill="#934acb"/>
    <path d="M22.24,62.657a12.015,12.015,0,0,1-12,12.025,12.672,12.672,0,0,1-2.32-.22,55.164,55.164,0,0,1-1.42-11.5A57.643,57.643,0,0,1,7.72,50.893a12.237,12.237,0,0,1,2.52-.261A12.016,12.016,0,0,1,22.24,62.657Z" fill="#f9d42f"/>
    <path d="M89.69,19.127a6.421,6.421,0,0,1,.05.882,9,9,0,1,1-17.12-3.888A79.159,79.159,0,0,1,89.69,19.127Z" fill="#f9d42f"/>
    <path d="M121.21,67.718a92.226,92.226,0,0,1-4.03,17.4,9.018,9.018,0,0,1,.81-18A8.758,8.758,0,0,1,121.21,67.718Z" fill="#f9d42f"/>
    <path d="M45.2,91.53a14.936,14.936,0,0,1-22,18.22,14.755,14.755,0,0,1-5.51-6.58c-.86-2-1.71-4.07-2.53-6.17,7-5.21,16.35-8.64,28.3-9.7Q44.3,89.4,45.2,91.53Z" fill="#f9d42f"/>
    <path d="M112.84,97c-.82,2.1-1.67,4.16-2.53,6.17A14.955,14.955,0,0,1,81.62,97.3a14.748,14.748,0,0,1,1.18-5.77c.6-1.42,1.18-2.83,1.73-4.23C96.48,88.36,105.84,91.79,112.84,97Z" fill="#f9d42f"/>
    <path d="M91.454,65.754a1.848,1.848,0,0,1-.337-.032,1.752,1.752,0,0,1-1.383-2.053c1.074-5.495-.9-14.984-6.047-21.354a1.749,1.749,0,1,1,2.72-2.2c6.013,7.434,7.972,18.03,6.763,24.225A1.75,1.75,0,0,1,91.454,65.754Z" fill="#934acb"/>
    <path d="M36.546,65.754a1.75,1.75,0,0,1-1.716-1.415c-1.209-6.195.75-16.791,6.763-24.225a1.749,1.749,0,1,1,2.72,2.2c-5.151,6.37-7.121,15.859-6.047,21.354a1.752,1.752,0,0,1-1.383,2.053A1.848,1.848,0,0,1,36.546,65.754Z" fill="#934acb"/>
    <circle cx="108.308" cy="47.098" r="4.5" fill="#f9d42f"/>
    <circle cx="50.881" cy="27.598" r="4.5" fill="#f9d42f"/>
  </g>
</svg>
