<svg xmlns="http://www.w3.org/2000/svg" width="128" height="128" viewBox="0 0 128 128">
  <title>NIGHT</title>
  <g>
    <path d="M75.04,86.353A47.1,47.1,0,0,1,36.072,12.8a51.018,51.018,0,1,0,70.041,61.839A46.906,46.906,0,0,1,75.04,86.353Z" fill="#f9d42f"/>
    <path d="M16.713,79.842a1.749,1.749,0,0,1-1.586-1.009,46.654,46.654,0,0,1-2.2-5.646,1.75,1.75,0,1,1,3.336-1.059A43.253,43.253,0,0,0,18.3,77.351a1.75,1.75,0,0,1-1.584,2.491Z" fill="#fb9401"/>
    <path d="M68.42,121.5a13.244,13.244,0,0,1-6.834-24.594,13.3,13.3,0,0,1,14.426-9.755,15.1,15.1,0,0,1,23.35,2.6c.326-.023.652-.05.984-.05a13.694,13.694,0,0,1,13.671,13.029,9.494,9.494,0,0,1-2.012,18.772Z" fill="#3ea7fb"/>
    <polygon points="98.167 6.5 100.948 12.135 107.167 13.039 102.667 17.425 103.729 23.619 98.167 20.695 92.604 23.619 93.667 17.425 89.167 13.039 95.386 12.135 98.167 6.5" fill="#f9d42f"/>
    <polygon points="65.306 29.325 68.088 34.96 74.306 35.864 69.806 40.25 70.869 46.444 65.306 43.519 59.744 46.444 60.806 40.25 56.306 35.864 62.525 34.96 65.306 29.325" fill="#f9d42f"/>
  </g>
</svg>
