<svg xmlns="http://www.w3.org/2000/svg" width="128" height="128" viewBox="0 0 128 128">
  <title>PILLOWS</title>
  <g>
    <path d="M97.454,73.326A175.844,175.844,0,0,0,92.5,49.643c1.2-3.2.733-8.331.262-11.507a2.632,2.632,0,0,0-3.515-2.075,22.638,22.638,0,0,0-8.493,6.173,290.973,290.973,0,0,0-30.412,1.851,291.014,291.014,0,0,0-29.918,5.767,22.631,22.631,0,0,0-9.761-3.868,2.632,2.632,0,0,0-2.889,2.884c.333,3.193,1.152,8.278,3.114,11.08a175.882,175.882,0,0,0,1.09,24.171A175.844,175.844,0,0,0,16.932,107.8c-1.2,3.2-.734,8.331-.262,11.507a2.631,2.631,0,0,0,3.515,2.075,22.636,22.636,0,0,0,8.493-6.172,291.422,291.422,0,0,0,30.412-1.852,291.242,291.242,0,0,0,29.918-5.766,22.643,22.643,0,0,0,9.761,3.867,2.631,2.631,0,0,0,2.888-2.884c-.332-3.193-1.151-8.278-3.114-11.08A175.94,175.94,0,0,0,97.454,73.326Z" fill="#e4ffff"/>
    <path d="M86.254,100.8a1.75,1.75,0,0,1-1.57-.975c-5.066-10.252-6.833-23.446-6.907-24-.069-.572-1.636-13.792.722-24.982a1.75,1.75,0,1,1,3.424.722c-2.236,10.611-.689,23.691-.673,23.822.015.115,1.769,13.168,6.572,22.891a1.75,1.75,0,0,1-1.568,2.525Z" fill="#0f89cc"/>
    <path d="M113.54,62.721a175.875,175.875,0,0,0,3.635-23.92c2.248-2.579,3.6-7.549,4.267-10.69a2.633,2.633,0,0,0-2.569-3.173,22.637,22.637,0,0,0-10.114,2.816,291.331,291.331,0,0,0-29.142-8.893A291.3,291.3,0,0,0,49.57,13.809a22.646,22.646,0,0,0-7.793-7.035,2.632,2.632,0,0,0-3.715,1.693c-.8,3.108-1.814,8.159-.954,11.47a175.875,175.875,0,0,0-7.426,23.027,175.872,175.872,0,0,0-3.635,23.921c-2.248,2.579-3.6,7.549-4.267,10.689a2.632,2.632,0,0,0,2.569,3.173,22.637,22.637,0,0,0,10.114-2.816,290.93,290.93,0,0,0,29.142,8.893,290.9,290.9,0,0,0,30.047,5.052,22.627,22.627,0,0,0,7.793,7.035,2.632,2.632,0,0,0,3.715-1.693c.8-3.108,1.814-8.158.954-11.469A175.866,175.866,0,0,0,113.54,62.721Z" fill="#3ea7fb"/>
    <path d="M60.649,23.125a1.639,1.639,0,0,1-.268-.021c-1.87-.287-3.691-.549-5.43-.788a1.75,1.75,0,0,1,.477-3.468c1.756.242,3.6.507,5.485.8a1.75,1.75,0,0,1-.264,3.479Z" fill="#0f89cc"/>
    <path d="M94.055,84.656a1.752,1.752,0,0,1-1.74-1.573c-1.162-11.375,1.792-24.355,1.918-24.9s3.286-13.495,9.405-23.156A1.75,1.75,0,0,1,106.6,36.9c-5.8,9.162-8.924,21.957-8.955,22.085C97.614,59.1,94.7,71.939,95.8,82.728a1.75,1.75,0,0,1-1.564,1.918A1.546,1.546,0,0,1,94.055,84.656Z" fill="#e4ffff"/>
  </g>
</svg>
