<svg xmlns="http://www.w3.org/2000/svg" width="128" height="128" viewBox="0 0 128 128">
  <title>PLANT POT</title>
  <g>
    <path d="M63.5,79.837c7.339-22.149,25.311-42.4,40.311-48.66-2.946,22.948-22.84,53.22-33.4,59.73Z" fill="#95d70b"/>
    <path d="M61.9,71.559c1.98-23.249,13.549-45.184,26.958-56.786C91,42.125,79.233,71.864,70.8,80.681Z" fill="#90c202"/>
    <path d="M64.5,79.837c-7.339-22.149-25.311-42.4-40.311-48.66,2.946,22.948,22.84,53.22,33.4,59.73Z" fill="#95d70b"/>
    <path d="M66.1,71.559C64.121,48.31,52.552,26.375,39.143,14.773,37,42.125,48.767,71.864,57.2,80.681Z" fill="#90c202"/>
    <path d="M74.25,47.727A78.764,78.764,0,0,1,64,86,78.764,78.764,0,0,1,53.75,47.727C53.75,25.773,64,6.5,64,6.5S74.25,25.773,74.25,47.727Z" fill="#95d70b"/>
    <g>
      <rect x="43.25" y="105.75" width="6" height="15.75" fill="#663325"/>
      <rect x="61" y="105.75" width="6" height="15.75" fill="#663325"/>
      <rect x="78.75" y="105.75" width="6" height="15.75" fill="#663325"/>
    </g>
    <path d="M92.75,69.749l-5.71,36.73a6,6,0,0,1-5.929,5.079H46.889a6,6,0,0,1-5.929-5.079l-5.71-36.73Z" fill="#f2a66c"/>
    <path d="M82.344,99.39a1.789,1.789,0,0,1-.271-.022,1.75,1.75,0,0,1-1.461-2l1.047-6.732a1.75,1.75,0,0,1,3.459.538l-1.047,6.732A1.751,1.751,0,0,1,82.344,99.39Z" fill="#d58559"/>
    <path d="M92.75,72.749H35.25a3,3,0,0,1-3-3v-3h63.5v3A3,3,0,0,1,92.75,72.749Z" fill="#663325"/>
  </g>
</svg>
