<svg xmlns="http://www.w3.org/2000/svg" width="128" height="128" viewBox="0 0 128 128">
  <title>RACK</title>
  <g>
    <rect x="31" y="50.002" width="18" height="17" fill="#d58559"/>
    <rect x="55" y="50.002" width="18" height="17" fill="#d58559"/>
    <rect x="79" y="50.002" width="18" height="17" fill="#d58559"/>
    <rect x="31" y="85.309" width="18" height="17" fill="#d58559"/>
    <rect x="55" y="85.309" width="18" height="17" fill="#d58559"/>
    <rect x="79" y="85.309" width="18" height="17" fill="#d58559"/>
    <rect x="11" y="99.309" width="106" height="6" fill="#f2a66c"/>
    <rect x="11" y="64.002" width="106" height="6" fill="#f2a66c"/>
    <rect x="37" y="50.002" width="6" height="6" fill="#663325"/>
    <rect x="11" y="28.694" width="106" height="6" fill="#f2a66c"/>
    <rect x="8" y="6.5" width="6" height="112.875" fill="#663325"/>
    <path d="M9.5,115.5h3a3,3,0,0,1,3,3v3a0,0,0,0,1,0,0h-9a0,0,0,0,1,0,0v-3A3,3,0,0,1,9.5,115.5Z" fill="#4f2217"/>
    <rect x="114" y="6.5" width="6" height="112.875" fill="#663325"/>
    <path d="M115.5,115.5h3a3,3,0,0,1,3,3v3a0,0,0,0,1,0,0h-9a0,0,0,0,1,0,0v-3A3,3,0,0,1,115.5,115.5Z" fill="#4f2217"/>
    <rect x="61" y="50.002" width="6" height="6" fill="#663325"/>
    <rect x="85" y="50.002" width="6" height="6" fill="#663325"/>
    <rect x="37" y="85.309" width="6" height="6" fill="#663325"/>
    <rect x="61" y="85.309" width="6" height="6" fill="#663325"/>
    <rect x="85" y="85.309" width="6" height="6" fill="#663325"/>
  </g>
</svg>
