<svg xmlns="http://www.w3.org/2000/svg" width="128" height="128" viewBox="0 0 128 128">
  <title>ROCKING CHAIR</title>
  <g>
    <g>
      <rect x="93.81" y="81.494" width="6" height="35.083" transform="translate(-11.391 12.59) rotate(-7.029)" fill="#4f2217"/>
      <rect x="16.979" y="93.586" width="35.083" height="6" transform="translate(-67.017 111.097) rotate(-78.466)" fill="#4f2217"/>
    </g>
    <path d="M97.286,80.328l-.09-4.494a8.992,8.992,0,0,0-8.343-8.8c-13.859-.995-41.76-1.416-55.848,1.7l.852,13.844Z" fill="#3ea7fb"/>
    <path d="M87.62,81.456l-5.99-.39c.02-.21,1.12-17.98-2.17-31.57,2.21-.05,4.26-.09,6.13-.11C88.73,63.626,87.68,80.606,87.62,81.456Z" fill="#4f2217"/>
    <path d="M35.259,54.654,34.087,45.73C58.86,42.477,94.69,42.7,96.205,42.7l-.022,3.055a5.993,5.993,0,0,1-5.951,5.957C78.887,51.794,53.564,52.251,35.259,54.654Z" fill="#4f2217"/>
    <path d="M33.536,85.482a3,3,0,0,1-3.186-3.023l.015-1.612c.312-32.5-5.168-55.99-8.014-65.939a5.99,5.99,0,0,1,3.683-7.257L29.13,6.5c.42,1.13,9.951,27.26,10.241,69.658,24.161-.97,60.9.908,62.556.99l-.157,3.03a5.994,5.994,0,0,1-6.243,5.685c-12.605-.542-42.357-1.6-60.382-.482Z" fill="#663325"/>
    <path d="M64,121.5c-.3,0-31.295-.456-47.486-6.123l1.1-3.157a5.983,5.983,0,0,1,7.024-3.859C38.635,111.694,60.1,112.5,64,112.5s25.365-.806,39.358-4.139a5.983,5.983,0,0,1,7.024,3.859l1.1,3.157C95.3,121.044,64.3,121.5,64,121.5Z" fill="#663325"/>
  </g>
</svg>
