<svg xmlns="http://www.w3.org/2000/svg" width="128" height="128" viewBox="0 0 128 128">
  <title>SHIRT</title>
  <g>
    <path d="M112.5,49.33l-16-7.5L98,121.5H30l1.5-79.67-16,7.5L6.13,24.19,35.55,7.99A11.942,11.942,0,0,1,41.34,6.5H49A44.6,44.6,0,0,0,58.44,8c3.1.23,5.56.25,5.56.25s2.46-.02,5.56-.25A44.6,44.6,0,0,0,79,6.5h7.66a11.942,11.942,0,0,1,5.79,1.49l29.42,16.2Z" fill="#f5502f"/>
    <path d="M36.293,107.762H36.26a1.75,1.75,0,0,1-1.717-1.783l.109-5.761a1.75,1.75,0,0,1,3.5.065l-.109,5.762A1.749,1.749,0,0,1,36.293,107.762Z" fill="#d63922"/>
    <path d="M96.5,43.58a1.751,1.751,0,0,1-1.75-1.717l-.122-6.494a1.75,1.75,0,0,1,3.5-.067L98.25,41.8a1.75,1.75,0,0,1-1.717,1.783Z" fill="#d63922"/>
    <path d="M31.5,43.58h-.033A1.75,1.75,0,0,1,29.75,41.8l.123-6.495a1.75,1.75,0,0,1,3.5.067l-.122,6.494A1.751,1.751,0,0,1,31.5,43.58Z" fill="#d63922"/>
    <path d="M85,6.5a20.02,20.02,0,0,1-20,20H63a20.02,20.02,0,0,1-20-20h6A44.6,44.6,0,0,0,58.44,8c3.1.23,5.56.25,5.56.25s2.46-.02,5.56-.25A44.6,44.6,0,0,0,79,6.5Z" fill="#ededf9"/>
    <path d="M79,6.5a14,14,0,0,1-14,14H63a14,14,0,0,1-14-14A44.6,44.6,0,0,0,58.44,8c3.1.23,5.56.25,5.56.25s2.46-.02,5.56-.25A44.6,44.6,0,0,0,79,6.5Z" fill="#d63922"/>
  </g>
</svg>
