<svg xmlns="http://www.w3.org/2000/svg" width="128" height="128" viewBox="0 0 128 128">
  <title>SINGLE BED</title>
  <g>
    <rect x="21.75" y="31.192" width="84.5" height="34.975" fill="#4f2217"/>
    <path d="M49,49.808H79a3,3,0,0,1,3,3V67.833a0,0,0,0,1,0,0H46a0,0,0,0,1,0,0V52.808A3,3,0,0,1,49,49.808Z" fill="#dddde3"/>
    <rect x="103.808" y="24.192" width="6" height="44.787" fill="#663325"/>
    <rect x="18.192" y="24.192" width="6" height="44.787" fill="#663325"/>
    <rect x="103.808" y="88.808" width="9" height="15" fill="#663325"/>
    <rect x="15.192" y="88.808" width="9" height="15" fill="#663325"/>
    <path d="M6.5,70.808v21h115v-21a9,9,0,0,0-9-9h-97A9,9,0,0,0,6.5,70.808Z" fill="#ededf9"/>
    <path d="M12.5,80.958a1.75,1.75,0,0,1-1.75-1.75V74.625a1.75,1.75,0,0,1,3.5,0v4.583A1.75,1.75,0,0,1,12.5,80.958Z" fill="#dddde3"/>
    <rect x="6.5" y="85.808" width="115" height="6" fill="#dddde3"/>
  </g>
</svg>
