<svg xmlns="http://www.w3.org/2000/svg" width="128" height="128" viewBox="0 0 128 128">
  <title>SLEEPING HAT</title>
  <g>
    <path d="M18.137,103.427C28.979,25.68,54.25,6.5,75.048,6.5c14,0,22.661,9.791,32.031,22.311l-4.415,2.506C96.33,27.94,83.5,30.816,85.4,43.312s17.133,47.62,24.467,60.115V109H18.137Z" fill="#b360e6"/>
    <path d="M42.64,39.19a8.95,8.95,0,0,1-6.25-2.54,79.513,79.513,0,0,1,9.53-14.84,9,9,0,0,1-3.28,17.38Z" fill="#f9d42f"/>
    <path d="M66.64,103.5a11.976,11.976,0,0,1-1.33,5.5H43.97a12,12,0,1,1,22.67-5.5Z" fill="#f9d42f"/>
    <path d="M94.08,69.7A12,12,0,1,1,85.81,49c.3,0,.6.01.9.04A216.161,216.161,0,0,0,94.08,69.7Z" fill="#f9d42f"/>
    <path d="M97.846,95.138a1.751,1.751,0,0,1-1.579-.992c-.772-1.606-1.561-3.281-2.359-5.006a1.75,1.75,0,1,1,3.177-1.469c.79,1.709,1.572,3.368,2.336,4.959a1.75,1.75,0,0,1-1.575,2.508Z" fill="#934acb"/>
    <circle cx="105.363" cy="30.192" r="6" fill="#ededf9"/>
    <circle cx="44.015" cy="70.417" r="6" fill="#f9d42f"/>
    <circle cx="67.31" cy="39.937" r="4.5" fill="#f9d42f"/>
    <path d="M85.177,45.115a1.75,1.75,0,0,1-1.7-1.342c-1.732-7.213-3.33-16.98-1.1-22.548a1.75,1.75,0,0,1,3.25,1.3C84.153,26.2,84.6,33.458,86.88,42.956a1.752,1.752,0,0,1-1.7,2.159Z" fill="#934acb"/>
    <rect x="15.346" y="103.5" width="97.308" height="18" rx="3" fill="#ededf9"/>
    <g>
      <path d="M27.51,117.25a1.75,1.75,0,0,1-1.75-1.75v-6a1.75,1.75,0,0,1,3.5,0v6A1.751,1.751,0,0,1,27.51,117.25Z" fill="#b360e6"/>
      <path d="M39.673,117.25a1.751,1.751,0,0,1-1.75-1.75v-6a1.75,1.75,0,0,1,3.5,0v6A1.751,1.751,0,0,1,39.673,117.25Z" fill="#b360e6"/>
      <path d="M51.836,117.25a1.751,1.751,0,0,1-1.75-1.75v-6a1.75,1.75,0,0,1,3.5,0v6A1.75,1.75,0,0,1,51.836,117.25Z" fill="#b360e6"/>
      <path d="M64,117.25a1.751,1.751,0,0,1-1.75-1.75v-6a1.75,1.75,0,0,1,3.5,0v6A1.751,1.751,0,0,1,64,117.25Z" fill="#b360e6"/>
      <path d="M76.164,117.25a1.75,1.75,0,0,1-1.75-1.75v-6a1.75,1.75,0,0,1,3.5,0v6A1.751,1.751,0,0,1,76.164,117.25Z" fill="#b360e6"/>
      <path d="M88.327,117.25a1.751,1.751,0,0,1-1.75-1.75v-6a1.75,1.75,0,0,1,3.5,0v6A1.751,1.751,0,0,1,88.327,117.25Z" fill="#b360e6"/>
      <path d="M100.49,117.25a1.751,1.751,0,0,1-1.75-1.75v-6a1.75,1.75,0,0,1,3.5,0v6A1.75,1.75,0,0,1,100.49,117.25Z" fill="#b360e6"/>
    </g>
  </g>
</svg>
