<svg xmlns="http://www.w3.org/2000/svg" width="128" height="128" viewBox="0 0 128 128">
  <title>SLEEPING PILLS</title>
  <g>
    <path d="M86.75,31.2V11H30.192V31.2l-4.6,8.669a12,12,0,0,0-1.4,5.625V115.5a6,6,0,0,0,6,6H86.75a6,6,0,0,0,6-6V45.491a12,12,0,0,0-1.4-5.625Z" fill="#3ea7fb"/>
    <path d="M30.192,110.083a1.751,1.751,0,0,1-1.75-1.75v-4.525a1.75,1.75,0,0,1,3.5,0v4.525A1.75,1.75,0,0,1,30.192,110.083Z" fill="#0f89cc"/>
    <rect x="30.191" y="51.88" width="56.56" height="39.8" fill="#ededf9"/>
    <rect x="27.192" y="6.5" width="62.558" height="12" rx="3" fill="#ededf9"/>
    <g>
      <path d="M37.619,15.75A1.75,1.75,0,0,1,35.869,14V11a1.75,1.75,0,0,1,3.5,0v3A1.751,1.751,0,0,1,37.619,15.75Z" fill="#0f89cc"/>
      <path d="M48.045,15.75A1.751,1.751,0,0,1,46.3,14V11a1.75,1.75,0,0,1,3.5,0v3A1.751,1.751,0,0,1,48.045,15.75Z" fill="#0f89cc"/>
      <path d="M58.471,15.75A1.751,1.751,0,0,1,56.721,14V11a1.75,1.75,0,0,1,3.5,0v3A1.75,1.75,0,0,1,58.471,15.75Z" fill="#0f89cc"/>
      <path d="M68.9,15.75A1.751,1.751,0,0,1,67.147,14V11a1.75,1.75,0,0,1,3.5,0v3A1.75,1.75,0,0,1,68.9,15.75Z" fill="#0f89cc"/>
      <path d="M79.324,15.75A1.75,1.75,0,0,1,77.574,14V11a1.75,1.75,0,0,1,3.5,0v3A1.751,1.751,0,0,1,79.324,15.75Z" fill="#0f89cc"/>
    </g>
    <rect x="30.192" y="18.5" width="56.558" height="6" fill="#0f89cc"/>
    <g>
      <path d="M40.781,80.04l3.579-3.992H40.878V74.342h6.1v1.417L43.4,79.751H47v1.706H40.781Z" fill="#f5502f"/>
      <path d="M50.856,72.014l6.225-6.943H51.024V62.1H61.63v2.465l-6.225,6.943h6.272V74.48H50.856Z" fill="#f5502f"/>
      <path d="M65.34,78.037l6.224-6.943H65.508V68.125H76.113v2.466l-6.225,6.943h6.273V80.5H65.34Z" fill="#f5502f"/>
    </g>
  </g>
</svg>
