<svg xmlns="http://www.w3.org/2000/svg" width="128" height="128" viewBox="0 0 128 128">
  <title>SLEEPING MASK</title>
  <g>
    <path d="M101.878,84.018l-5.4-2.619,6.448-13.29A28.92,28.92,0,0,0,103.982,45.6a34.445,34.445,0,0,1-.947-20.532l1.953-7.479a3,3,0,0,1,3.661-2.145h0a3,3,0,0,1,2.145,3.661l-1.906,7.3a28.261,28.261,0,0,0,.7,17.057,34.78,34.78,0,0,1-1.262,27.267Z" fill="#f9d42f"/>
    <path d="M26.122,84.018l5.4-2.619-6.448-13.29A28.92,28.92,0,0,1,24.018,45.6a34.445,34.445,0,0,0,.947-20.532l-1.953-7.479a3,3,0,0,0-3.661-2.145h0a3,3,0,0,0-2.145,3.661l1.906,7.3a28.261,28.261,0,0,1-.7,17.057,34.78,34.78,0,0,0,1.262,27.267Z" fill="#f9d42f"/>
    <path d="M64,62.7c-17.816,0-31.2.726-40.555,1.528A18.5,18.5,0,0,0,6.5,82.654h0a30.088,30.088,0,0,0,30,30h5.8a13.519,13.519,0,0,0,11.628-6.623h0A11.708,11.708,0,0,1,64,100.294h0a11.708,11.708,0,0,1,10.072,5.737h0A13.519,13.519,0,0,0,85.7,112.654h5.8a30.088,30.088,0,0,0,30-30h0a18.5,18.5,0,0,0-16.945-18.427C95.2,63.425,81.816,62.7,64,62.7Z" fill="#b360e6"/>
    <path d="M86.372,70.871H86.3q-2.8-.113-5.687-.194a1.75,1.75,0,0,1,.049-3.5h.051q2.91.081,5.727.194a1.75,1.75,0,0,1-.069,3.5Z" fill="#934acb"/>
    <g>
      <path d="M102.935,87.642a1.749,1.749,0,0,0-2.373-.7,19.2,19.2,0,0,1-16.321,0A1.75,1.75,0,1,0,82.554,90a15.575,15.575,0,0,0,1.815.836l-1.5,3.9a1.75,1.75,0,0,0,3.268,1.254l1.606-4.181a23.415,23.415,0,0,0,2.9.383v4.318a1.75,1.75,0,0,0,3.5,0V92.19a23.658,23.658,0,0,0,2.9-.383l1.607,4.182a1.751,1.751,0,0,0,3.268-1.256l-1.5-3.894a15.8,15.8,0,0,0,1.806-.824A1.75,1.75,0,0,0,102.935,87.642Z" fill="#f9d42f"/>
      <path d="M43.759,86.935A17.538,17.538,0,0,1,35.6,88.758a17.694,17.694,0,0,1-8.165-1.818,1.75,1.75,0,1,0-1.671,3.075,15.8,15.8,0,0,0,1.806.824l-1.5,3.894a1.751,1.751,0,0,0,3.268,1.256l1.607-4.182a23.658,23.658,0,0,0,2.9.383v4.318a1.75,1.75,0,0,0,3.5,0V92.19a23.415,23.415,0,0,0,2.9-.383l1.606,4.181a1.75,1.75,0,0,0,3.268-1.254l-1.5-3.9A15.575,15.575,0,0,0,45.446,90a1.75,1.75,0,1,0-1.687-3.066Z" fill="#f9d42f"/>
    </g>
  </g>
</svg>
