<svg xmlns="http://www.w3.org/2000/svg" width="128" height="128" viewBox="0 0 128 128">
  <title>SLEEP</title>
  <g>
    <rect x="115.5" y="96.154" width="6" height="16.5" fill="#f2a66c"/>
    <rect x="115.5" y="73.987" width="6" height="20.442" fill="#f2a66c"/>
    <rect x="6.5" y="61.179" width="6" height="37.333" fill="#f2a66c"/>
    <rect x="6.5" y="96.154" width="6" height="16.5" fill="#f2a66c"/>
    <g>
      <path d="M38.7,62.613l3.578-3.992H38.792V56.914h6.1v1.418L41.31,62.324h3.606V64.03H38.7Z" fill="#3ea7fb"/>
      <path d="M48.77,54.587,55,47.644H48.938V44.675h10.6v2.466l-6.224,6.943h6.272v2.969H48.77Z" fill="#3ea7fb"/>
      <path d="M63.253,60.61l6.225-6.943H63.421V50.7H74.027v2.466L67.8,60.107h6.273v2.968H63.253Z" fill="#3ea7fb"/>
    </g>
    <circle cx="96.94" cy="32.846" r="17.5" fill="#3ea7fb"/>
    <path d="M103.184,36.615l-2.676-2.676a3.7,3.7,0,0,0,.181-1.093,3.74,3.74,0,0,0-2-3.3V22.743a1.75,1.75,0,1,0-3.5,0v6.806a3.738,3.738,0,0,0,1.75,7.047,3.7,3.7,0,0,0,1.094-.182l2.676,2.676a1.75,1.75,0,1,0,2.475-2.475Z" fill="#ededf9"/>
    <path d="M18.5,79.987H32.348a6,6,0,0,1,6,6v8a0,0,0,0,1,0,0H12.5a0,0,0,0,1,0,0v-8A6,6,0,0,1,18.5,79.987Z" fill="#dddde3"/>
    <rect x="6.5" y="91.987" width="115" height="9" fill="#663325"/>
    <path d="M44.348,79.987h65.063a6,6,0,0,1,6,6v15a0,0,0,0,1,0,0H38.348a0,0,0,0,1,0,0v-15a6,6,0,0,1,6-6Z" fill="#ededf9"/>
    <path d="M103.808,96.737H98.75a1.75,1.75,0,0,1,0-3.5h5.058a1.75,1.75,0,1,1,0,3.5Z" fill="#dddde3"/>
  </g>
</svg>
