<svg xmlns="http://www.w3.org/2000/svg" width="128" height="128" viewBox="0 0 128 128">
  <title>SLEEPING BAG</title>
  <g>
    <path d="M53.72,6.5H74.28a24,24,0,0,1,24,24v79a12,12,0,0,1-12,12H41.72a12,12,0,0,1-12-12v-79a24,24,0,0,1,24-24Z" fill="#b360e6"/>
    <path d="M92.28,30.5V40.51H35.72V30.5a18.021,18.021,0,0,1,18-18H74.28A18.021,18.021,0,0,1,92.28,30.5Z" fill="#f5502f"/>
    <rect x="35.72" y="99.577" width="56.561" height="15.923" rx="6" fill="#d63922"/>
    <rect x="35.72" y="83.654" width="56.561" height="15.923" rx="6" fill="#f5502f"/>
    <path d="M79.562,95.327h-6a1.75,1.75,0,0,1,0-3.5h6a1.75,1.75,0,1,1,0,3.5Z" fill="#d63922"/>
    <rect x="35.72" y="67.731" width="56.561" height="15.923" rx="6" fill="#d63922"/>
    <rect x="35.72" y="51.808" width="56.561" height="15.923" rx="6" fill="#f5502f"/>
    <path d="M80.28,30.5V40.51H47.72V30.5a6,6,0,0,1,6-6H74.28A6,6,0,0,1,80.28,30.5Z" fill="#934acb"/>
    <rect x="35.72" y="35.885" width="56.561" height="15.923" rx="6" fill="#d63922"/>
  </g>
</svg>
