<svg xmlns="http://www.w3.org/2000/svg" width="128" height="128" viewBox="0 0 128 128">
  <title>SLIPPER</title>
  <g>
    <path d="M118.483,32.833,108.74,94.182a17.083,17.083,0,0,1-15.247,14.326h0a17.081,17.081,0,0,1-18.7-16.58l-1.547-62.1A22.762,22.762,0,0,1,96,6.5h0A22.763,22.763,0,0,1,118.483,32.833Z" fill="#f5502f"/>
    <path d="M118.194,28.873a3.867,3.867,0,0,1,3.257,4.389l-.006.038-2.754,17.335a3,3,0,0,1-3.376,2.5c-11.781-1.679-28.511-3.119-41.479-2.482a3,3,0,0,1-3.149-2.918L70.245,29.9v-.038a3.819,3.819,0,0,1,3.646-3.9C87.946,25.284,106.409,27.03,118.194,28.873Z" fill="#d63922"/>
    <circle cx="94.917" cy="38.99" r="6" fill="#f9d42f"/>
    <path d="M9.517,45.746,19.26,107.1a17.081,17.081,0,0,0,15.247,14.325h0a17.081,17.081,0,0,0,18.7-16.579l1.547-62.1A22.763,22.763,0,0,0,32,19.413h0A22.763,22.763,0,0,0,9.517,45.746Z" fill="#f5502f"/>
    <path d="M47.438,97.254h-.044a1.751,1.751,0,0,1-1.706-1.794l.138-5.5a1.75,1.75,0,1,1,3.5.088l-.137,5.5A1.749,1.749,0,0,1,47.438,97.254Z" fill="#d63922"/>
    <path d="M9.806,41.786a3.867,3.867,0,0,0-3.257,4.389l.006.038L9.309,63.548a3,3,0,0,0,3.376,2.5C24.466,64.37,41.2,62.929,54.164,63.567a3,3,0,0,0,3.149-2.918l.442-17.836v-.037a3.82,3.82,0,0,0-3.646-3.9C40.054,38.2,21.591,39.943,9.806,41.786Z" fill="#d63922"/>
    <circle cx="33.083" cy="51.903" r="6" fill="#f9d42f"/>
  </g>
</svg>
