<svg xmlns="http://www.w3.org/2000/svg" width="128" height="128" viewBox="0 0 128 128">
  <title>TISSUE</title>
  <g>
    <polygon points="115.667 55.154 12.333 55.154 6.5 88.654 6.5 112.654 121.5 112.654 121.5 88.654 115.667 55.154" fill="#934acb"/>
    <polygon points="12.333 55.154 6.5 88.654 121.5 88.654 115.667 55.154 12.333 55.154" fill="#b360e6"/>
    <path d="M112.146,71.673a1.75,1.75,0,0,1-1.721-1.45l-.923-5.3a1.749,1.749,0,1,1,3.447-.6l.923,5.3a1.749,1.749,0,0,1-1.424,2.023A1.63,1.63,0,0,1,112.146,71.673Z" fill="#934acb"/>
    <path d="M36.876,31.841,43.5,75.667h41l6.624-43.826a6,6,0,0,0-5.932-6.9H42.808A6,6,0,0,0,36.876,31.841Z" fill="#dddde3"/>
    <path d="M47.813,21.932l5.272,53.735h21.83l5.272-53.735a6,6,0,0,0-5.971-6.586H53.784A6,6,0,0,0,47.813,21.932Z" fill="#ededf9"/>
    <rect x="46.5" y="96.154" width="35" height="9" rx="4.5" fill="#f9d42f"/>
    <path d="M89.5,73.917h-51a1.75,1.75,0,0,0,0,3.5h51a1.75,1.75,0,0,0,0-3.5Z" fill="#ededf9"/>
  </g>
</svg>
