<svg xmlns="http://www.w3.org/2000/svg" width="128" height="128" viewBox="0 0 128 128">
  <title>TOILET</title>
  <g>
    <rect x="24.194" y="6.5" width="79.613" height="62.335" rx="3" fill="#537980"/>
    <ellipse cx="64" cy="48.917" rx="25.5" ry="33.911" fill="#ededf9"/>
    <path d="M64,76.827c-10.57,0-19.5-12.781-19.5-27.91S53.43,21.006,64,21.006,83.5,33.787,83.5,48.917,74.57,76.827,64,76.827Z" fill="#dddde3"/>
    <polygon points="76 117.75 52 117.75 53.5 91.5 74.5 91.5 76 117.75" fill="#dddde3"/>
    <path d="M64,106.444h0A25.676,25.676,0,0,1,38.425,83.036l-1.258-14.2H90.833l-1.258,14.2A25.676,25.676,0,0,1,64,106.444Z" fill="#ededf9"/>
    <path d="M48.2,94.3A1.747,1.747,0,0,1,46.8,93.6a21.218,21.218,0,0,1-2.654-4.733,1.75,1.75,0,1,1,3.246-1.308,17.74,17.74,0,0,0,2.216,3.953A1.75,1.75,0,0,1,48.2,94.3Z" fill="#dddde3"/>
    <path d="M93.833,71.835H34.167v-3a3,3,0,0,1,3-3H90.833a3,3,0,0,1,3,3Z" fill="#385b60"/>
    <path d="M47.1,115.5H80.9a3,3,0,0,1,3,3v3a0,0,0,0,1,0,0H44.1a0,0,0,0,1,0,0v-3A3,3,0,0,1,47.1,115.5Z" fill="#ededf9"/>
    <circle cx="94.808" cy="15.5" r="3" fill="#ededf9"/>
  </g>
</svg>
