<svg xmlns="http://www.w3.org/2000/svg" width="128" height="128" viewBox="0 0 128 128">
  <title>TV</title>
  <g>
    <path d="M80.5,89.808v-6H47.5v6a8,8,0,0,1-8,8h0v6H88.5v-6h0A8,8,0,0,1,80.5,89.808Z" fill="#0f89cc"/>
    <rect x="35.25" y="97.808" width="57.5" height="6" fill="#3ea7fb"/>
    <rect x="6.5" y="6.5" width="115" height="79.615" rx="3" fill="#ededf9"/>
    <path d="M12.5,36.841a1.75,1.75,0,0,1-1.75-1.75v-6a1.75,1.75,0,0,1,3.5,0v6A1.75,1.75,0,0,1,12.5,36.841Z" fill="#dddde3"/>
    <path d="M6.5,77.115h115a0,0,0,0,1,0,0v6a3,3,0,0,1-3,3H9.5a3,3,0,0,1-3-3v-6A0,0,0,0,1,6.5,77.115Z" fill="#3ea7fb"/>
    <rect x="76.808" y="71.115" width="24" height="50.385" rx="3" fill="#f5502f"/>
    <path d="M100.81,115.5v3a3,3,0,0,1-3,3h-18a3,3,0,0,1-3-3v-3Z" fill="#d63922"/>
    <g>
      <g>
        <path d="M85.808,84.25h-3a1.75,1.75,0,1,1,0-3.5h3a1.75,1.75,0,0,1,0,3.5Z" fill="#ededf9"/>
        <path d="M94.808,84.25h-3a1.75,1.75,0,1,1,0-3.5h3a1.75,1.75,0,0,1,0,3.5Z" fill="#ededf9"/>
      </g>
      <g>
        <path d="M85.808,90.25h-3a1.75,1.75,0,1,1,0-3.5h3a1.75,1.75,0,0,1,0,3.5Z" fill="#ededf9"/>
        <path d="M94.808,90.25h-3a1.75,1.75,0,1,1,0-3.5h3a1.75,1.75,0,0,1,0,3.5Z" fill="#ededf9"/>
      </g>
      <g>
        <path d="M85.808,96.25h-3a1.75,1.75,0,1,1,0-3.5h3a1.75,1.75,0,0,1,0,3.5Z" fill="#ededf9"/>
        <path d="M94.808,96.25h-3a1.75,1.75,0,1,1,0-3.5h3a1.75,1.75,0,0,1,0,3.5Z" fill="#ededf9"/>
      </g>
      <g>
        <path d="M85.808,102.25h-3a1.75,1.75,0,1,1,0-3.5h3a1.75,1.75,0,0,1,0,3.5Z" fill="#ededf9"/>
        <path d="M94.808,102.25h-3a1.75,1.75,0,1,1,0-3.5h3a1.75,1.75,0,0,1,0,3.5Z" fill="#ededf9"/>
      </g>
      <path d="M94.808,108.25h-3a1.75,1.75,0,1,1,0-3.5h3a1.75,1.75,0,0,1,0,3.5Z" fill="#ededf9"/>
    </g>
  </g>
</svg>
