<svg xmlns="http://www.w3.org/2000/svg" width="128" height="128" viewBox="0 0 128 128">
  <title>WALL CLOCK</title>
  <g>
    <path d="M39,56.5v62a3,3,0,0,0,3,3H86a3,3,0,0,0,3-3v-62Z" fill="#d58559"/>
    <rect x="45" y="62.5" width="38" height="53" fill="#663325"/>
    <path d="M51,92.7a1.75,1.75,0,0,1-1.75-1.75v-6a1.75,1.75,0,0,1,3.5,0v6A1.75,1.75,0,0,1,51,92.7Z" fill="#4f2217"/>
    <path d="M64,98.25a1.75,1.75,0,0,1-1.75-1.75V72.917a1.75,1.75,0,0,1,3.5,0V96.5A1.75,1.75,0,0,1,64,98.25Z" fill="#ededf9"/>
    <circle cx="64" cy="95.808" r="4.5" fill="#dddde3"/>
    <circle cx="64" cy="40.308" r="33.808" fill="#f2a66c"/>
    <circle cx="64" cy="40.308" r="27.808" fill="#663325"/>
    <path d="M71.805,49.862a1.747,1.747,0,0,1-1.238-.512l-7.8-7.8a1.75,1.75,0,0,1-.513-1.237V22.75a1.75,1.75,0,0,1,3.5,0V39.583l7.292,7.292a1.75,1.75,0,0,1-1.237,2.987Z" fill="#4f2217"/>
    <circle cx="64" cy="40.308" r="3" fill="#f2a66c"/>
    <path d="M64,17.25a1.75,1.75,0,0,1-1.75-1.75v-3a1.75,1.75,0,0,1,3.5,0v3A1.75,1.75,0,0,1,64,17.25Z" fill="#4f2217"/>
    <path d="M64,69.865a1.749,1.749,0,0,1-1.75-1.75v-3a1.75,1.75,0,0,1,3.5,0v3A1.749,1.749,0,0,1,64,69.865Z" fill="#4f2217"/>
    <path d="M81.542,24.516a1.75,1.75,0,0,1-1.237-2.987l2.121-2.122A1.75,1.75,0,1,1,84.9,21.882L82.779,24A1.743,1.743,0,0,1,81.542,24.516Z" fill="#4f2217"/>
    <path d="M44.337,61.721A1.751,1.751,0,0,1,43.1,58.733l2.121-2.121A1.749,1.749,0,1,1,47.7,59.086l-2.121,2.122A1.743,1.743,0,0,1,44.337,61.721Z" fill="#4f2217"/>
    <path d="M91.808,42.058h-3a1.75,1.75,0,0,1,0-3.5h3a1.75,1.75,0,0,1,0,3.5Z" fill="#4f2217"/>
    <path d="M39.192,42.058h-3a1.75,1.75,0,0,1,0-3.5h3a1.75,1.75,0,0,1,0,3.5Z" fill="#4f2217"/>
    <path d="M83.663,61.721a1.743,1.743,0,0,1-1.237-.513l-2.121-2.122a1.749,1.749,0,1,1,2.474-2.474L84.9,58.733a1.751,1.751,0,0,1-1.237,2.988Z" fill="#4f2217"/>
    <path d="M46.458,24.516A1.741,1.741,0,0,1,45.221,24L43.1,21.882a1.75,1.75,0,0,1,2.474-2.475L47.7,21.529a1.75,1.75,0,0,1-1.237,2.987Z" fill="#4f2217"/>
  </g>
</svg>
