<svg xmlns="http://www.w3.org/2000/svg" width="128" height="128" viewBox="0 0 128 128">
  <title>AIR CONDITIONER</title>
  <g>
    <g>
      <rect x="6.5" y="24.192" width="115" height="45.811" rx="6" fill="#ededf9"/>
      <rect x="14.75" y="58.004" width="98.5" height="12" fill="#537980"/>
      <rect x="14.75" y="64.004" width="98.5" height="6" fill="#385b60"/>
      <g>
        <circle cx="17.75" cy="33.192" r="3" fill="#3ea7fb"/>
        <circle cx="29.75" cy="33.192" r="3" fill="#3ea7fb"/>
        <circle cx="41.75" cy="33.192" r="3" fill="#3ea7fb"/>
      </g>
    </g>
    <g>
      <path d="M121.5,45.083a1.749,1.749,0,0,0,1.75-1.75V30.192a7.759,7.759,0,0,0-7.75-7.75H12.5a7.759,7.759,0,0,0-7.75,7.75V64a7.759,7.759,0,0,0,7.75,7.75H97a1.75,1.75,0,0,0,0-3.5H16.5v-2.5h95v2.5h-4.625a1.75,1.75,0,0,0,0,3.5H115.5A7.759,7.759,0,0,0,123.25,64V52.667a1.75,1.75,0,0,0-3.5,0V64a4.254,4.254,0,0,1-4.25,4.25H115V58a1.749,1.749,0,0,0-1.75-1.75H50.833a1.75,1.75,0,0,0,0,3.5H111.5v2.5h-95v-2.5H34.167a1.75,1.75,0,0,0,0-3.5H14.75A1.749,1.749,0,0,0,13,58v10.25h-.5A4.254,4.254,0,0,1,8.25,64V30.192a4.255,4.255,0,0,1,4.25-4.25h103a4.255,4.255,0,0,1,4.25,4.25V43.333A1.749,1.749,0,0,0,121.5,45.083Z" fill="#061720"/>
      <path d="M10.75,42.626V48.5a1.75,1.75,0,0,0,3.5,0V42.626a1.75,1.75,0,0,0-3.5,0Z" fill="#061720"/>
      <path d="M89.25,31.442a1.75,1.75,0,0,0,0,3.5h24a1.75,1.75,0,0,0,0-3.5Z" fill="#061720"/>
      <path d="M39.917,56.254a1.75,1.75,0,0,0,0,3.5h4.166a1.75,1.75,0,0,0,0-3.5Z" fill="#061720"/>
      <path d="M17.75,37.942A4.75,4.75,0,1,0,13,33.192,4.755,4.755,0,0,0,17.75,37.942Zm0-6a1.25,1.25,0,1,1-1.25,1.25A1.252,1.252,0,0,1,17.75,31.942Z" fill="#061720"/>
      <path d="M25,33.192a4.75,4.75,0,1,0,4.75-4.75A4.755,4.755,0,0,0,25,33.192Zm6,0a1.25,1.25,0,1,1-1.25-1.25A1.251,1.251,0,0,1,31,33.192Z" fill="#061720"/>
      <path d="M41.75,28.442a4.75,4.75,0,1,0,4.75,4.75A4.756,4.756,0,0,0,41.75,28.442Zm0,6A1.25,1.25,0,1,1,43,33.192,1.251,1.251,0,0,1,41.75,34.442Z" fill="#061720"/>
      <path d="M100,97.558a1.749,1.749,0,0,0-1.75,1.75,2.75,2.75,0,0,1-5.5,0V76a1.75,1.75,0,0,0-3.5,0v23.3a6.25,6.25,0,0,0,12.5,0A1.749,1.749,0,0,0,100,97.558Z" fill="#061720"/>
      <path d="M84.47,92.555a1.749,1.749,0,0,0-1.75,1.75,2.75,2.75,0,0,1-5.5,0V76a1.75,1.75,0,1,0-3.5,0v18.3a6.25,6.25,0,0,0,12.5,0A1.749,1.749,0,0,0,84.47,92.555Z" fill="#061720"/>
      <path d="M37,74.254A1.749,1.749,0,0,0,35.25,76v23.3a2.75,2.75,0,0,1-5.5,0,1.75,1.75,0,0,0-3.5,0,6.25,6.25,0,0,0,12.5,0V76A1.749,1.749,0,0,0,37,74.254Z" fill="#061720"/>
      <path d="M52.53,74.254A1.749,1.749,0,0,0,50.78,76v18.3a2.75,2.75,0,0,1-5.5,0,1.75,1.75,0,0,0-3.5,0,6.25,6.25,0,0,0,12.5,0V76A1.749,1.749,0,0,0,52.53,74.254Z" fill="#061720"/>
      <path d="M64,74.254A1.749,1.749,0,0,0,62.25,76v18.3a1.75,1.75,0,0,0,3.5,0V76A1.749,1.749,0,0,0,64,74.254Z" fill="#061720"/>
    </g>
  </g>
</svg>
