<svg xmlns="http://www.w3.org/2000/svg" width="128" height="128" viewBox="0 0 128 128">
  <title>AIR PURIFIER</title>
  <g>
    <g>
      <rect x="34.888" y="112.5" width="58.224" height="9" fill="#0f89cc"/>
      <rect x="30.192" y="6.5" width="67.615" height="109" rx="6" fill="#3ea7fb"/>
      <path d="M36.192,6.5H91.808a6,6,0,0,1,6,6v42a0,0,0,0,1,0,0H30.192a0,0,0,0,1,0,0v-42A6,6,0,0,1,36.192,6.5Z" fill="#e4ffff"/>
      <circle cx="64" cy="68.5" r="4.5" fill="#e4ffff"/>
    </g>
    <g>
      <path d="M91.808,4.75H88a1.75,1.75,0,0,0,0,3.5h3.808a4.255,4.255,0,0,1,4.25,4.25V52.75H31.942V12.5a4.255,4.255,0,0,1,4.25-4.25H77.5a1.75,1.75,0,0,0,0-3.5H36.192a7.759,7.759,0,0,0-7.75,7.75V80.875a1.75,1.75,0,0,0,3.5,0V56.25H96.058V109.5a4.255,4.255,0,0,1-4.25,4.25H36.192a4.255,4.255,0,0,1-4.25-4.25V96.875a1.75,1.75,0,0,0-3.5,0V109.5a7.759,7.759,0,0,0,4.7,7.121V121.5a1.751,1.751,0,0,0,1.75,1.75H77.917a1.75,1.75,0,0,0,0-3.5H36.64v-2.5H91.36v2.5H87.417a1.75,1.75,0,0,0,0,3.5H93.11a1.75,1.75,0,0,0,1.75-1.75v-4.879a7.759,7.759,0,0,0,4.7-7.121v-97A7.759,7.759,0,0,0,91.808,4.75Z" fill="#061720"/>
      <path d="M30.192,92.75A1.749,1.749,0,0,0,31.942,91V86.875a1.75,1.75,0,0,0-3.5,0V91A1.75,1.75,0,0,0,30.192,92.75Z" fill="#061720"/>
      <path d="M93.558,71.063v-6a1.75,1.75,0,0,0-3.5,0v6a1.75,1.75,0,0,0,3.5,0Z" fill="#061720"/>
      <g>
        <circle cx="41.5" cy="17" r="3.25" fill="#061720"/>
        <circle cx="50.5" cy="17" r="3.25" fill="#061720"/>
        <circle cx="59.5" cy="17" r="3.25" fill="#061720"/>
        <circle cx="68.5" cy="17" r="3.25" fill="#061720"/>
        <circle cx="77.5" cy="17" r="3.25" fill="#061720"/>
        <circle cx="86.5" cy="17" r="3.25" fill="#061720"/>
        <circle cx="41.5" cy="26" r="3.25" fill="#061720"/>
        <circle cx="50.5" cy="26" r="3.25" fill="#061720"/>
        <circle cx="59.5" cy="26" r="3.25" fill="#061720"/>
        <circle cx="68.5" cy="26" r="3.25" fill="#061720"/>
        <circle cx="77.5" cy="26" r="3.25" fill="#061720"/>
        <circle cx="86.5" cy="26" r="3.25" fill="#061720"/>
        <circle cx="41.5" cy="35" r="3.25" fill="#061720"/>
        <circle cx="50.5" cy="35" r="3.25" fill="#061720"/>
        <circle cx="59.5" cy="35" r="3.25" fill="#061720"/>
        <circle cx="68.5" cy="35" r="3.25" fill="#061720"/>
        <circle cx="77.5" cy="35" r="3.25" fill="#061720"/>
        <circle cx="86.5" cy="35" r="3.25" fill="#061720"/>
        <circle cx="41.5" cy="44" r="3.25" fill="#061720"/>
        <circle cx="50.5" cy="44" r="3.25" fill="#061720"/>
        <circle cx="59.5" cy="44" r="3.25" fill="#061720"/>
        <circle cx="68.5" cy="44" r="3.25" fill="#061720"/>
        <circle cx="77.5" cy="44" r="3.25" fill="#061720"/>
        <circle cx="86.5" cy="44" r="3.25" fill="#061720"/>
      </g>
      <path d="M70.25,68.5A6.25,6.25,0,1,0,64,74.75,6.257,6.257,0,0,0,70.25,68.5Zm-9,0A2.75,2.75,0,1,1,64,71.25,2.752,2.752,0,0,1,61.25,68.5Z" fill="#061720"/>
      <path d="M39.75,91.5a1.751,1.751,0,0,0,1.75,1.75h45a1.75,1.75,0,0,0,0-3.5h-45A1.751,1.751,0,0,0,39.75,91.5Z" fill="#061720"/>
      <path d="M41.5,99.25h45a1.75,1.75,0,0,0,0-3.5h-45a1.75,1.75,0,0,0,0,3.5Z" fill="#061720"/>
      <path d="M41.5,105.25h45a1.75,1.75,0,0,0,0-3.5h-45a1.75,1.75,0,0,0,0,3.5Z" fill="#061720"/>
      <path d="M118.5,16.75a1.75,1.75,0,0,0,0,3.5,1.25,1.25,0,0,1,0,2.5H103.808a1.75,1.75,0,1,0,0,3.5H118.5a4.75,4.75,0,0,0,0-9.5Z" fill="#061720"/>
      <path d="M112.5,34.75h-8.688a1.75,1.75,0,1,0,0,3.5H112.5a1.25,1.25,0,0,1,0,2.5,1.75,1.75,0,1,0,0,3.5,4.75,4.75,0,0,0,0-9.5Z" fill="#061720"/>
      <path d="M118.5,28.75H103.808a1.75,1.75,0,1,0,0,3.5H118.5a1.75,1.75,0,0,0,0-3.5Z" fill="#061720"/>
      <path d="M24.192,22.75H9.5a1.25,1.25,0,0,1,0-2.5,1.75,1.75,0,0,0,0-3.5,4.75,4.75,0,0,0,0,9.5H24.192a1.75,1.75,0,0,0,0-3.5Z" fill="#061720"/>
      <path d="M24.192,34.75H15.5a4.75,4.75,0,0,0,0,9.5,1.75,1.75,0,0,0,0-3.5,1.25,1.25,0,0,1,0-2.5h8.689a1.75,1.75,0,0,0,0-3.5Z" fill="#061720"/>
      <path d="M24.192,28.75H9.5a1.75,1.75,0,0,0,0,3.5H24.192a1.75,1.75,0,0,0,0-3.5Z" fill="#061720"/>
    </g>
  </g>
</svg>
