<svg xmlns="http://www.w3.org/2000/svg" width="128" height="128" viewBox="0 0 128 128">
  <title>ALARM</title>
  <g>
    <g>
      <path d="M86.9,24.192h13.9a3,3,0,0,1,3,3v9.141a0,0,0,0,1,0,0H83.9a0,0,0,0,1,0,0V27.192A3,3,0,0,1,86.9,24.192Z" fill="#537980"/>
      <rect x="24.192" y="24.192" width="6" height="12.141" fill="#537980"/>
      <rect x="36.192" y="24.192" width="6" height="12.141" fill="#537980"/>
      <rect x="48.192" y="24.192" width="6" height="12.141" fill="#537980"/>
      <rect x="6.5" y="30.192" width="115" height="73.615" rx="6" fill="#f5502f"/>
      <rect x="36.263" y="15.5" width="55.474" height="103" transform="translate(131 3) rotate(90)" fill="#ededf9"/>
    </g>
    <g>
      <path d="M121.5,76.625a1.75,1.75,0,0,0-1.75,1.75v3.75a1.75,1.75,0,0,0,3.5,0v-3.75A1.75,1.75,0,0,0,121.5,76.625Z" fill="#061720"/>
      <path d="M115.5,28.442h-9.94V27.19a4.756,4.756,0,0,0-4.75-4.75H86.9a4.756,4.756,0,0,0-4.75,4.75v1.252H55.94V24.19a1.751,1.751,0,0,0-1.75-1.75h-6a1.751,1.751,0,0,0-1.75,1.75v4.252h-2.5V24.19a1.751,1.751,0,0,0-1.75-1.75h-6a1.751,1.751,0,0,0-1.75,1.75v4.252h-2.5V24.19a1.751,1.751,0,0,0-1.75-1.75h-6a1.751,1.751,0,0,0-1.75,1.75v4.252H12.5a7.759,7.759,0,0,0-7.75,7.75V97.808a7.759,7.759,0,0,0,7.75,7.75h8.167a1.75,1.75,0,0,0,0-3.5H12.5a4.255,4.255,0,0,1-4.25-4.25V36.192a4.255,4.255,0,0,1,4.25-4.25h103a4.255,4.255,0,0,1,4.25,4.25V72.75a1.75,1.75,0,0,0,3.5,0V36.192A7.759,7.759,0,0,0,115.5,28.442ZM85.65,27.19a1.266,1.266,0,0,1,1.25-1.25h13.91a1.266,1.266,0,0,1,1.25,1.25v1.252H85.65ZM49.94,25.94h2.5v2.5h-2.5Zm-12,0h2.5v2.5h-2.5Zm-12,0h2.5v2.5h-2.5Z" fill="#061720"/>
      <path d="M121.5,86.375a1.751,1.751,0,0,0-1.75,1.75v9.683a4.255,4.255,0,0,1-4.25,4.25H31a1.75,1.75,0,1,0,0,3.5h84.5a7.759,7.759,0,0,0,7.75-7.75V88.125A1.751,1.751,0,0,0,121.5,86.375Z" fill="#061720"/>
      <path d="M24.19,37.513H12.5a1.751,1.751,0,0,0-1.75,1.75V94.737a1.751,1.751,0,0,0,1.75,1.75h103a1.751,1.751,0,0,0,1.75-1.75V39.263a1.751,1.751,0,0,0-1.75-1.75H35a1.75,1.75,0,0,0,0,3.5h78.75V92.987H14.25V41.013h9.94a1.75,1.75,0,1,0,0-3.5Z" fill="#061720"/>
      <path d="M100.75,47.013a1.75,1.75,0,0,0,0-3.5H95.5a1.75,1.75,0,0,0,0,3.5Z" fill="#061720"/>
      <path d="M16.75,82.737a1.751,1.751,0,0,0,1.75,1.75h91a1.75,1.75,0,0,0,0-3.5h-91A1.751,1.751,0,0,0,16.75,82.737Z" fill="#061720"/>
      <path d="M30.617,52.294c-4.432,0-7.543,3.6-7.543,8.694,0,5.118,3.111,8.718,7.543,8.718s7.568-3.6,7.568-8.718C38.185,55.894,35.05,52.294,30.617,52.294Zm0,14.131c-2.253,0-3.845-2.278-3.845-5.437s1.592-5.413,3.845-5.413c2.278,0,3.845,2.253,3.845,5.413S32.9,66.425,30.617,66.425Z" fill="#061720"/>
      <path d="M42.587,64.906c0,3.037,3.037,4.8,6.76,4.8,3.7,0,6.759-1.738,6.759-4.8,0-1.935-1.323-3.4-3.306-4.187a4.158,4.158,0,0,0,2.889-3.846c0-2.889-2.987-4.579-6.342-4.579-3.282,0-6.319,1.616-6.319,4.579a4.121,4.121,0,0,0,2.866,3.846A4.564,4.564,0,0,0,42.587,64.906Zm6.76-9.576c1.616,0,2.742.858,2.742,2.009,0,1.249-1.42,2.032-2.742,2.13-1.323-.1-2.719-.833-2.719-2.13C46.628,56.188,47.73,55.33,49.347,55.33Zm0,6.98c1.445.049,3.11.882,3.11,2.2,0,1.274-1.323,2.155-3.11,2.155s-3.086-.881-3.086-2.155C46.261,63.192,47.9,62.359,49.347,62.31Z" fill="#061720"/>
      <path d="M63.032,60.865a2.229,2.229,0,1,0-2.278-2.277A2.273,2.273,0,0,0,63.032,60.865Z" fill="#061720"/>
      <path d="M63.032,69.706a2.229,2.229,0,1,0-2.278-2.278A2.274,2.274,0,0,0,63.032,69.706Z" fill="#061720"/>
      <path d="M85.192,60.988c0-5.094-3.134-8.694-7.567-8.694s-7.543,3.6-7.543,8.694c0,5.118,3.11,8.718,7.543,8.718S85.192,66.106,85.192,60.988Zm-11.412,0c0-3.16,1.592-5.413,3.845-5.413,2.278,0,3.845,2.253,3.845,5.413s-1.567,5.437-3.845,5.437C75.372,66.425,73.78,64.147,73.78,60.988Z" fill="#061720"/>
      <path d="M89.815,60.988c0,5.118,3.111,8.718,7.543,8.718s7.568-3.6,7.568-8.718c0-5.094-3.135-8.694-7.568-8.694S89.815,55.894,89.815,60.988Zm7.543-5.413c2.278,0,3.846,2.253,3.846,5.413s-1.568,5.437-3.846,5.437c-2.253,0-3.844-2.278-3.844-5.437S95.105,55.575,97.358,55.575Z" fill="#061720"/>
    </g>
  </g>
</svg>
