<svg xmlns="http://www.w3.org/2000/svg" width="128" height="128" viewBox="0 0 128 128">
  <title>BABY CRIB</title>
  <g>
    <g>
      <path d="M15.5,80.519h97a0,0,0,0,1,0,0v7.288a6,6,0,0,1-6,6h-85a6,6,0,0,1-6-6V80.519a0,0,0,0,1,0,0Z" transform="translate(128 174.327) rotate(180)" fill="#ededf9"/>
      <rect x="24.192" y="92.5" width="6" height="26" fill="#663325"/>
      <rect x="97.808" y="92.5" width="6" height="26" fill="#663325"/>
      <g>
        <rect x="97.808" y="58.712" width="6" height="39.096" fill="#663325"/>
        <rect x="83.085" y="58.712" width="6" height="39.096" fill="#663325"/>
        <rect x="68.362" y="58.712" width="6" height="39.096" fill="#663325"/>
        <rect x="53.638" y="58.712" width="6" height="39.096" fill="#663325"/>
        <rect x="38.915" y="58.712" width="6" height="39.096" fill="#663325"/>
        <rect x="24.192" y="58.712" width="6" height="39.096" fill="#663325"/>
      </g>
      <path d="M12.5,115.5h103a0,0,0,0,1,0,0v3a3,3,0,0,1-3,3h-97a3,3,0,0,1-3-3v-3a0,0,0,0,1,0,0Z" transform="translate(128 237) rotate(180)" fill="#4f2217"/>
      <rect x="12.5" y="89.519" width="103" height="9" transform="translate(128 188.038) rotate(180)" fill="#f2a66c"/>
      <rect x="11" y="55.712" width="106" height="6" fill="#f2a66c"/>
      <g>
        <path d="M86.5,16.064a72.8,72.8,0,0,0-45,0l-1.854-5.707a78.812,78.812,0,0,1,48.708,0Z" fill="#f9d42f"/>
        <path d="M86.5,16.064a72.8,72.8,0,0,0-45,0l-1.854-5.707a78.812,78.812,0,0,1,48.708,0Z" fill="#f9d42f"/>
      </g>
      <circle cx="64" cy="27.192" r="3" fill="#f9d42f"/>
      <polygon points="77.167 30.192 79.021 33.949 83.167 34.552 80.167 37.476 80.875 41.605 77.167 39.655 73.458 41.605 74.167 37.476 71.167 34.552 75.313 33.949 77.167 30.192" fill="#f9d42f"/>
      <polygon points="50.833 30.192 52.687 33.949 56.833 34.552 53.833 37.476 54.542 41.605 50.833 39.655 47.125 41.605 47.833 37.476 44.833 34.552 48.979 33.949 50.833 30.192" fill="#f9d42f"/>
      <path d="M115.5,46.711h6a0,0,0,0,1,0,0V98.519a0,0,0,0,1,0,0h-9a0,0,0,0,1,0,0V49.711A3,3,0,0,1,115.5,46.711Z" transform="translate(234 145.23) rotate(180)" fill="#663325"/>
      <path d="M6.5,46.711h6a3,3,0,0,1,3,3V98.519a0,0,0,0,1,0,0h-9a0,0,0,0,1,0,0V46.711A0,0,0,0,1,6.5,46.711Z" transform="translate(22 145.23) rotate(180)" fill="#663325"/>
    </g>
    <g>
      <path d="M30.189,57.46h4.978a1.75,1.75,0,0,0,0-3.5H30.189a1.75,1.75,0,0,0,0,3.5Z" fill="#061720"/>
      <path d="M39.836,16.6a1.753,1.753,0,0,0,2.2,1.124,72.018,72.018,0,0,1,7.039-1.887v13.95L47.817,32.35l-3.235.47a1.75,1.75,0,0,0-.97,2.985l2.341,2.282L45.4,41.309a1.75,1.75,0,0,0,2.539,1.845l2.894-1.522,2.894,1.522a1.75,1.75,0,0,0,2.539-1.845l-.552-3.222,2.341-2.282a1.75,1.75,0,0,0-.97-2.985l-3.235-.47-1.27-2.573V15.167a70.394,70.394,0,0,1,9.67-.9v8.524a4.75,4.75,0,1,0,3.5,0V14.262a70.394,70.394,0,0,1,9.67.9v14.61L74.15,32.35l-3.235.47a1.75,1.75,0,0,0-.97,2.985l2.341,2.282-.552,3.222a1.75,1.75,0,0,0,2.539,1.845l2.894-1.522,2.894,1.522A1.75,1.75,0,0,0,82.6,41.309l-.553-3.222,2.341-2.282a1.75,1.75,0,0,0-.97-2.985l-3.235-.47L78.92,29.791V15.841a72.018,72.018,0,0,1,7.039,1.887,1.748,1.748,0,0,0,2.2-1.124L90.018,10.9a1.75,1.75,0,0,0-1.123-2.2,80.074,80.074,0,0,0-49.79,0A1.75,1.75,0,0,0,37.982,10.9ZM52.612,36.223a1.749,1.749,0,0,0-.5,1.549l.108.634-.569-.3a1.751,1.751,0,0,0-1.629,0l-.569.3.108-.634a1.749,1.749,0,0,0-.5-1.549l-.461-.45.637-.092a1.75,1.75,0,0,0,1.317-.957l.285-.578.285.578a1.752,1.752,0,0,0,1.318.957l.637.092Zm26.333,0a1.749,1.749,0,0,0-.5,1.549l.108.634-.569-.3a1.751,1.751,0,0,0-1.629,0l-.569.3.108-.634a1.749,1.749,0,0,0-.5-1.549l-.461-.45.637-.092a1.752,1.752,0,0,0,1.318-.957l.285-.578.285.578a1.75,1.75,0,0,0,1.317.957l.637.092ZM64,28.442a1.25,1.25,0,1,1,1.25-1.25A1.251,1.251,0,0,1,64,28.442ZM86.143,11.5l-.773,2.377a74.041,74.041,0,0,0-42.74,0L41.857,11.5A76.489,76.489,0,0,1,86.143,11.5Z" fill="#061720"/>
      <path d="M121.5,79.708a1.751,1.751,0,0,0,1.75-1.75V46.711a1.751,1.751,0,0,0-1.75-1.75h-9a1.751,1.751,0,0,0-1.75,1.75V53.96H41.833a1.75,1.75,0,0,0,0,3.5H110.75v2.5H17.25v-2.5h6.94a1.75,1.75,0,1,0,0-3.5H17.25V46.711a1.751,1.751,0,0,0-1.75-1.75h-9a1.751,1.751,0,0,0-1.75,1.75V95.519a4.756,4.756,0,0,0,4.75,4.75H22.44v13.48H15.5a4.756,4.756,0,0,0-4.75,4.75v3a1.751,1.751,0,0,0,1.75,1.75h103a1.751,1.751,0,0,0,1.75-1.75v-3a4.756,4.756,0,0,0-4.75-4.75h-6.94V100.27H118.5a4.756,4.756,0,0,0,4.75-4.75V87.25a1.75,1.75,0,0,0-3.5,0v8.269a1.252,1.252,0,0,1-1.25,1.25h-4.25V48.461h5.5v29.5A1.751,1.751,0,0,0,121.5,79.708ZM110.75,96.77H17.25v-5.5h93.5Zm-64.08-9v-5.5h5.22v5.5Zm5.22-9H46.67V63.46h5.22Zm-8.72,9h-2.5V63.46h2.5Zm-11.23,0v-5.5h5.23v5.5Zm5.23-9H31.94V63.46h5.23Zm-8.73,9h-2.5V63.46h2.5Zm-6,0H17.25V86.52a4.255,4.255,0,0,1,4.25-4.25h.94Zm79.62,0h-2.5V63.46h2.5Zm-11.23,0v-5.5h5.23v5.5Zm5.23-9H90.83V63.46h5.23Zm-8.73,9h-2.5V63.46h2.5Zm-11.22,0v-5.5h5.22v5.5Zm5.22-9H76.11V63.46h5.22Zm-8.72,9h-2.5V63.46h2.5Zm-6-9H61.39V63.46h5.22Zm-5.22,3.5h5.22v5.5H61.39Zm49.36,5.5h-5.19v-5.5h.94a4.255,4.255,0,0,1,4.25,4.25Zm-4.25-9h-.94V63.46h5.19V80.047A7.7,7.7,0,0,0,106.5,78.77ZM57.89,63.46V87.77h-2.5V63.46Zm-35.45,0V78.77H21.5a7.7,7.7,0,0,0-4.25,1.277V63.46ZM8.25,95.519V48.461h5.5V96.769H9.5A1.252,1.252,0,0,1,8.25,95.519Zm17.69,4.751h2.5v13.48h-2.5Zm87.81,18.23v1.25H14.25V118.5a1.252,1.252,0,0,1,1.25-1.25h24a1.75,1.75,0,0,0,0-3.5H31.94V100.27H96.06v13.48H49.625a1.75,1.75,0,0,0,0,3.5H112.5A1.252,1.252,0,0,1,113.75,118.5Zm-11.69-4.75h-2.5V100.27h2.5Z" fill="#061720"/>
    </g>
  </g>
</svg>
