<svg xmlns="http://www.w3.org/2000/svg" width="128" height="128" viewBox="0 0 128 128">
  <title>BASKET</title>
  <g>
    <g>
      <path d="M118.5,55.154l-7.146,54.887a3,3,0,0,1-2.975,2.613H19.621a3,3,0,0,1-2.975-2.613L9.5,55.154Z" fill="#3ea7fb"/>
      <g>
        <rect x="82.173" y="80.904" width="24.072" height="6" rx="3" transform="translate(3.259 171.331) rotate(-85.557)" fill="#e4ffff"/>
        <rect x="30.791" y="71.868" width="6" height="24.072" rx="3" transform="translate(-6.388 2.865) rotate(-4.436)" fill="#e4ffff"/>
        <rect x="62.794" y="80.904" width="24.009" height="6" rx="3" transform="translate(-11.167 156.325) rotate(-88.396)" fill="#e4ffff"/>
        <rect x="50.201" y="71.9" width="6" height="24.009" rx="3" transform="translate(-2.312 1.511) rotate(-1.593)" fill="#e4ffff"/>
      </g>
      <rect x="6.5" y="50.889" width="115" height="9" rx="3" fill="#e4ffff"/>
      <g>
        <rect x="86.5" y="13.589" width="6" height="43.558" rx="3" transform="translate(-6.562 41.123) rotate(-24.991)" fill="#3ea7fb"/>
        <rect x="35.5" y="13.589" width="6" height="43.558" rx="3" transform="translate(58.454 83.689) rotate(-155.009)" fill="#3ea7fb"/>
      </g>
    </g>
    <g>
      <path d="M15.036,97.64a1.75,1.75,0,0,0,1.509-1.961l-.608-4.664a1.75,1.75,0,1,0-3.47.451l.607,4.664a1.75,1.75,0,0,0,1.734,1.524A1.965,1.965,0,0,0,15.036,97.64Z" fill="#061720"/>
      <path d="M106.572,102.058a1.751,1.751,0,0,0,1.733-1.525l.752-5.772a1.75,1.75,0,1,0-3.471-.451l-.752,5.772a1.753,1.753,0,0,0,1.738,1.976Z" fill="#061720"/>
      <path d="M93.513,97.663a4.756,4.756,0,0,0,4.733-4.382l1.4-18.018a4.75,4.75,0,1,0-9.472-.736l-1.4,18.019a4.756,4.756,0,0,0,4.369,5.1C93.267,97.659,93.39,97.663,93.513,97.663Zm-1.249-4.847,1.4-18.018a1.25,1.25,0,0,1,2.493.194l-1.4,18.019a1.25,1.25,0,0,1-2.493-.195Z" fill="#061720"/>
      <path d="M34.487,97.663c.122,0,.246,0,.37-.014a4.757,4.757,0,0,0,4.369-5.1l-1.4-18.017a4.75,4.75,0,1,0-9.472.736l1.4,18.017h0A4.755,4.755,0,0,0,34.487,97.663ZM32.995,73.649c.032,0,.065,0,.1,0A1.252,1.252,0,0,1,34.338,74.8l1.4,18.016a1.25,1.25,0,0,1-2.493.2h0l-1.4-18.017A1.252,1.252,0,0,1,32.995,73.649Z" fill="#061720"/>
      <path d="M77.854,82a1.758,1.758,0,0,0,1.8-1.7l.146-5.26a4.75,4.75,0,0,0-9.5-.264l-.5,18a4.755,4.755,0,0,0,4.616,4.88c.044,0,.089,0,.133,0A4.758,4.758,0,0,0,79.3,93.037l.093-3.362a1.75,1.75,0,0,0-3.5-.1L75.8,92.939a1.25,1.25,0,1,1-2.5-.068l.5-18a1.236,1.236,0,0,1,1.284-1.216,1.252,1.252,0,0,1,.875.391,1.239,1.239,0,0,1,.34.894L76.152,80.2A1.749,1.749,0,0,0,77.854,82Z" fill="#061720"/>
      <path d="M53.45,97.655c.044,0,.089,0,.133,0a4.749,4.749,0,0,0,4.617-4.88l-.5-18a4.757,4.757,0,0,0-4.747-4.618c-.044,0-.089,0-.133,0a4.749,4.749,0,0,0-4.617,4.88l.5,18A4.756,4.756,0,0,0,53.45,97.655ZM52.042,74.044a1.251,1.251,0,0,1,2.159.825l.5,18a1.248,1.248,0,0,1-1.215,1.284A1.288,1.288,0,0,1,52.2,92.939l-.5-18A1.239,1.239,0,0,1,52.042,74.044Z" fill="#061720"/>
      <path d="M118.5,49.14H101.16l-15.288-32.8a4.751,4.751,0,0,0-8.611,4.015L90.679,49.14H37.321l7.12-15.276a1.749,1.749,0,1,0-3.171-1.478L31.7,52.916a1.25,1.25,0,0,1-2.267-1.056L45.3,17.819a1.25,1.25,0,0,1,2.267,1.056L45.076,24.22A1.75,1.75,0,1,0,48.248,25.7l2.491-5.344a4.75,4.75,0,0,0-8.611-4.014L26.84,49.14H9.5a4.756,4.756,0,0,0-4.75,4.75v3a4.757,4.757,0,0,0,3.821,4.656L11.75,85.961a1.75,1.75,0,0,0,1.733,1.524,1.938,1.938,0,0,0,.228-.014,1.75,1.75,0,0,0,1.51-1.961L12.113,61.64H115.887l-6.273,48.18a1.227,1.227,0,0,1-1.234,1.08H19.62a1.229,1.229,0,0,1-1.235-1.086l-1.174-9.021a1.75,1.75,0,0,0-3.471.451l1.174,9.016a4.749,4.749,0,0,0,4.706,4.14h88.76a4.747,4.747,0,0,0,4.7-4.134l6.344-48.72a4.757,4.757,0,0,0,3.821-4.656v-3A4.756,4.756,0,0,0,118.5,49.14ZM81.038,17.214a1.252,1.252,0,0,1,1.662.6L98.566,51.86A1.25,1.25,0,1,1,96.3,52.916L80.434,18.875A1.252,1.252,0,0,1,81.038,17.214ZM119.75,56.89a1.252,1.252,0,0,1-1.25,1.25H9.5a1.252,1.252,0,0,1-1.25-1.25v-3A1.251,1.251,0,0,1,9.5,52.64H25.846A4.736,4.736,0,0,0,34.872,54.4l.818-1.755H92.31l.818,1.755a4.749,4.749,0,0,0,6.312,2.3h0a4.735,4.735,0,0,0,2.713-4.053H118.5a1.251,1.251,0,0,1,1.25,1.25Z" fill="#061720"/>
    </g>
  </g>
</svg>
