<svg xmlns="http://www.w3.org/2000/svg" width="128" height="128" viewBox="0 0 128 128">
  <title>BLANKET</title>
  <g>
    <g>
      <rect x="24.192" y="12.5" width="79.615" height="103" rx="3" fill="#f9d42f"/>
      <g>
        <path d="M100.808,115.5H27.192a3,3,0,0,1-3-3v-3h79.616v3A3,3,0,0,1,100.808,115.5Z" fill="#f5502f"/>
        <rect x="24.192" y="93.333" width="79.615" height="6" fill="#f5502f"/>
        <rect x="24.192" y="77.167" width="79.615" height="6" fill="#f5502f"/>
        <rect x="24.192" y="61" width="79.615" height="6" fill="#f5502f"/>
        <rect x="24.192" y="44.833" width="79.615" height="6" fill="#f5502f"/>
        <rect x="24.192" y="28.667" width="79.615" height="6" fill="#f5502f"/>
        <path d="M103.808,18.5H24.192v-3a3,3,0,0,1,3-3h73.616a3,3,0,0,1,3,3Z" fill="#f5502f"/>
      </g>
    </g>
    <g>
      <path d="M25.942,36.417h76.171A1.747,1.747,0,0,0,105.558,36V15.5a4.756,4.756,0,0,0-4.75-4.75h-1.25V6.5a1.75,1.75,0,0,0-3.5,0v4.25H91.105V6.5a1.75,1.75,0,0,0-3.5,0v4.25H82.653V6.5a1.75,1.75,0,0,0-3.5,0v4.25H74.2V6.5a1.75,1.75,0,0,0-3.5,0v4.25H65.75V6.5a1.75,1.75,0,0,0-3.5,0v4.25H57.3V6.5a1.75,1.75,0,0,0-3.5,0v4.25H48.847V6.5a1.75,1.75,0,0,0-3.5,0v4.25H40.4V6.5a1.75,1.75,0,0,0-3.5,0v4.25H31.942V6.5a1.75,1.75,0,0,0-3.5,0v4.25h-1.25a4.756,4.756,0,0,0-4.75,4.75v97a4.756,4.756,0,0,0,4.75,4.75h1.25v4.25a1.75,1.75,0,0,0,3.5,0v-4.25H36.9v4.25a1.75,1.75,0,0,0,3.5,0v-4.25h4.952v4.25a1.75,1.75,0,0,0,3.5,0v-4.25H53.8v4.25a1.75,1.75,0,0,0,3.5,0v-4.25H62.25v4.25a1.75,1.75,0,0,0,3.5,0v-4.25H70.7v4.25a1.75,1.75,0,0,0,3.5,0v-4.25h4.951v4.25a1.75,1.75,0,0,0,3.5,0v-4.25h4.952v4.25a1.75,1.75,0,0,0,3.5,0v-4.25h4.953v4.25a1.75,1.75,0,0,0,3.5,0v-4.25h1.25a4.756,4.756,0,0,0,4.75-4.75V43.167a1.747,1.747,0,0,0-3.492-.084H25.942Zm76.116,39H25.942V68.75h76.116ZM51.5,95.083h50.558v2.5H25.942v-2.5h8.183a1.75,1.75,0,0,0,0-3.5H25.942V84.917h76.116v6.666H51.5a1.75,1.75,0,0,0,0,3.5Zm50.558-13.666H25.942v-2.5h76.116Zm0-16.167H25.942v-2.5h76.116ZM25.942,101.083h76.116v6.667H25.942ZM102.058,59.25H25.942V52.583h76.116ZM25.942,30.417h76.116v2.5H25.942Zm1.25-16.167h73.616a1.252,1.252,0,0,1,1.25,1.25v1.25H43.667a1.75,1.75,0,0,0,0,3.5h58.391v6.667H25.942V20.25H34.5a1.75,1.75,0,0,0,0-3.5H25.942V15.5A1.252,1.252,0,0,1,27.192,14.25Zm73.616,99.5H27.192a1.252,1.252,0,0,1-1.25-1.25v-1.25h76.116v1.25A1.252,1.252,0,0,1,100.808,113.75Zm1.25-67.167v2.5H25.942v-2.5Z" fill="#061720"/>
      <path d="M45.75,91.583H40.917a1.75,1.75,0,0,0,0,3.5H45.75a1.75,1.75,0,0,0,0-3.5Z" fill="#061720"/>
    </g>
  </g>
</svg>
