<svg xmlns="http://www.w3.org/2000/svg" width="128" height="128" viewBox="0 0 128 128">
  <title>BOLSTER</title>
  <g>
    <g>
      <path d="M20,73.25l-9.815,2.3A3,3,0,0,1,6.5,72.632V56.2a3,3,0,0,1,3.685-2.921L20,55.583Z" fill="#3ea7fb"/>
      <path d="M108,73.25l9.815,2.3a3,3,0,0,0,3.685-2.92V56.2a3,3,0,0,0-3.685-2.921L108,55.583Z" fill="#3ea7fb"/>
      <rect x="15.5" y="44.096" width="97" height="39.808" rx="9" fill="#e4ffff"/>
      <rect x="88.5" y="44.096" width="12" height="39.808" fill="#3ea7fb"/>
      <rect x="58" y="44.096" width="12" height="39.808" fill="#3ea7fb"/>
      <rect x="27.5" y="44.096" width="12" height="39.808" transform="translate(67 128) rotate(180)" fill="#3ea7fb"/>
    </g>
    <g>
      <path d="M121.454,52.482a4.738,4.738,0,0,0-4.042-.906l-3.2.747A10.756,10.756,0,0,0,103.5,42.346h-50a1.75,1.75,0,0,0,0,3.5h2.75V82.154h-15V45.846h3.083a1.75,1.75,0,0,0,0-3.5H24.5a10.756,10.756,0,0,0-10.711,9.977l-3.2-.748A4.753,4.753,0,0,0,4.75,56.2V72.63a4.756,4.756,0,0,0,4.163,4.715,1.75,1.75,0,1,0,.43-3.474A1.251,1.251,0,0,1,8.25,72.63V56.2a1.254,1.254,0,0,1,1.542-1.216l3.958.924v19A10.762,10.762,0,0,0,24.5,85.654h79a10.757,10.757,0,0,0,10.62-9.169l3.293.769a4.813,4.813,0,0,0,1.095.127,4.747,4.747,0,0,0,4.742-4.751V56.2A4.726,4.726,0,0,0,121.454,52.482Zm-34.7-6.636V82.154h-15V45.846Zm-27,0h8.5V82.154h-8.5Zm-22,36.308h-8.5V45.846h8.5ZM17.25,74.9V53.1a7.258,7.258,0,0,1,7.25-7.25h1.25V82.154H24.5A7.258,7.258,0,0,1,17.25,74.9Zm93.5,0a7.258,7.258,0,0,1-7.25,7.25h-1.25v-5.4a1.75,1.75,0,0,0-3.5,0v5.4h-8.5V45.846h8.5V62.438a1.75,1.75,0,0,0,3.5,0V45.846h1.25a7.258,7.258,0,0,1,7.25,7.25Zm9-2.274a1.224,1.224,0,0,1-.47.978,1.243,1.243,0,0,1-1.072.238l-3.958-.924V55.908l3.957-.924A1.254,1.254,0,0,1,119.75,56.2Z" fill="#061720"/>
      <path d="M21.5,64.417a1.751,1.751,0,0,0-1.75,1.75v5.416a1.75,1.75,0,0,0,3.5,0V66.167A1.751,1.751,0,0,0,21.5,64.417Z" fill="#061720"/>
      <path d="M100.5,66a1.751,1.751,0,0,0-1.75,1.75v3.833a1.75,1.75,0,0,0,3.5,0V67.75A1.751,1.751,0,0,0,100.5,66Z" fill="#061720"/>
    </g>
  </g>
</svg>
