<svg xmlns="http://www.w3.org/2000/svg" width="128" height="128" viewBox="0 0 128 128">
  <title>BOOK</title>
  <g>
    <g>
      <path d="M33.192,6.5h70.615a0,0,0,0,1,0,0v106a0,0,0,0,1,0,0H24.192a0,0,0,0,1,0,0v-97A9,9,0,0,1,33.192,6.5Z" fill="#b360e6"/>
      <path d="M33.192,103.5h70.615a0,0,0,0,1,0,0v18a0,0,0,0,1,0,0H33.192a9,9,0,0,1-9-9v0a9,9,0,0,1,9-9Z" fill="#934acb"/>
      <path d="M33.192,115.5a3,3,0,0,1,0-6h70.616v6Z" fill="#ededf9"/>
      <rect x="36.192" y="22.692" width="55.615" height="12" fill="#ededf9"/>
    </g>
    <g>
      <path d="M103.808,62.25a1.749,1.749,0,0,0-1.75,1.75v4.75a1.75,1.75,0,0,0,3.5,0V64A1.75,1.75,0,0,0,103.808,62.25Z" fill="#061720"/>
      <path d="M103.808,4.75H33.192A10.762,10.762,0,0,0,22.442,15.5v97a10.762,10.762,0,0,0,10.75,10.75h70.616a1.751,1.751,0,0,0,1.75-1.75V74.125a1.75,1.75,0,0,0-3.5,0V101.75H33.192a10.7,10.7,0,0,0-7.25,2.836V15.5a7.258,7.258,0,0,1,7.25-7.25h68.866V58a1.75,1.75,0,0,0,3.5,0V6.5A1.751,1.751,0,0,0,103.808,4.75ZM33.192,105.25h68.866v2.5H33.192a4.75,4.75,0,0,0,0,9.5H48.375a1.75,1.75,0,0,0,0-3.5H33.192a1.25,1.25,0,0,1,0-2.5h68.866v2.5H58.5a1.75,1.75,0,0,0,0,3.5h43.558v2.5H33.192a7.25,7.25,0,0,1,0-14.5Z" fill="#061720"/>
      <path d="M28.442,55.708v6a1.75,1.75,0,0,0,3.5,0v-6a1.75,1.75,0,0,0-3.5,0Z" fill="#061720"/>
      <path d="M93.558,34.692v-12a1.751,1.751,0,0,0-1.75-1.75H84.375a1.75,1.75,0,0,0,0,3.5h5.683v8.5H37.942v-8.5H73.625a1.75,1.75,0,0,0,0-3.5H36.192a1.751,1.751,0,0,0-1.75,1.75v12a1.75,1.75,0,0,0,1.75,1.75H91.808A1.75,1.75,0,0,0,93.558,34.692Z" fill="#061720"/>
      <path d="M86.5,77.75h-45a1.75,1.75,0,0,0,0,3.5h45a1.75,1.75,0,0,0,0-3.5Z" fill="#061720"/>
      <path d="M86.5,83.75h-45a1.75,1.75,0,0,0,0,3.5h45a1.75,1.75,0,0,0,0-3.5Z" fill="#061720"/>
      <path d="M86.5,89.75h-45a1.75,1.75,0,0,0,0,3.5h45a1.75,1.75,0,0,0,0-3.5Z" fill="#061720"/>
    </g>
  </g>
</svg>
