<svg xmlns="http://www.w3.org/2000/svg" width="128" height="128" viewBox="0 0 128 128">
  <title>BUNK BED</title>
  <g>
    <g>
      <rect x="9.5" y="37.581" width="109" height="12" fill="#f2a66c"/>
      <path d="M12.5,25.581h15a3,3,0,0,1,3,3v5.375a0,0,0,0,1,0,0H9.5a0,0,0,0,1,0,0V28.581A3,3,0,0,1,12.5,25.581Z" fill="#dddde3"/>
      <path d="M12.5,31.581h97a6,6,0,0,1,6,6v0a0,0,0,0,1,0,0H12.5a0,0,0,0,1,0,0v-6A0,0,0,0,1,12.5,31.581Z" fill="#ededf9"/>
      <rect x="9.5" y="84.727" width="109" height="12" fill="#f2a66c"/>
      <path d="M12.5,72.727h15a3,3,0,0,1,3,3V81.1a0,0,0,0,1,0,0H9.5a0,0,0,0,1,0,0V75.727A3,3,0,0,1,12.5,72.727Z" fill="#dddde3"/>
      <path d="M9.5,78.727h100a6,6,0,0,1,6,6v0a0,0,0,0,1,0,0H9.5a0,0,0,0,1,0,0v-6A0,0,0,0,1,9.5,78.727Z" fill="#ededf9"/>
      <rect x="6.5" y="15.346" width="6" height="97.308" fill="#663325"/>
      <rect x="115.5" y="15.346" width="6" height="97.308" fill="#663325"/>
      <path d="M95.305,19.369V31.581h-19V19.369h-6v93.285h6V100.442h19v12.212h6V19.369Zm0,75.073h-19V84.727h19Zm0-15.715h-19V69.011h19Zm0-15.716h-19V53.3h19Zm0-15.715h-19V37.581h19Z" fill="#663325"/>
    </g>
    <g>
      <path d="M121.5,65.958a1.75,1.75,0,0,0-1.75,1.75v4.334a1.75,1.75,0,0,0,3.5,0V67.708A1.75,1.75,0,0,0,121.5,65.958Z" fill="#061720"/>
      <path d="M121.5,13.6h-6a1.75,1.75,0,0,0-1.75,1.75V31.107a7.7,7.7,0,0,0-4.25-1.277h-6.445V19.369a1.751,1.751,0,0,0-1.75-1.75h-6a1.75,1.75,0,0,0-1.75,1.75V29.831h-15.5V19.369a1.751,1.751,0,0,0-1.75-1.75h-6a1.75,1.75,0,0,0-1.75,1.75V29.83H32.25V28.58a4.756,4.756,0,0,0-4.75-4.75H14.25V15.346A1.75,1.75,0,0,0,12.5,13.6h-6a1.75,1.75,0,0,0-1.75,1.75v97.308A1.75,1.75,0,0,0,6.5,114.4h6a1.75,1.75,0,0,0,1.75-1.75V98.48h11.5a1.75,1.75,0,0,0,0-3.5H14.25v-8.5H68.558v8.5H35.625a1.75,1.75,0,0,0,0,3.5H68.558v14.174a1.75,1.75,0,0,0,1.75,1.75h6a1.751,1.751,0,0,0,1.75-1.75V102.192h15.5v10.462a1.75,1.75,0,0,0,1.75,1.75h6a1.751,1.751,0,0,0,1.75-1.75V98.48H113.75v14.174a1.75,1.75,0,0,0,1.75,1.75h6a1.75,1.75,0,0,0,1.75-1.75V77.833a1.75,1.75,0,0,0-3.5,0V110.9h-2.5V17.1h2.5V62.167a1.75,1.75,0,0,0,3.5,0V15.346A1.75,1.75,0,0,0,121.5,13.6ZM103.055,39.33H113.75v8.5H103.055Zm0,41.15H109.5a4.251,4.251,0,0,1,3.863,2.5H103.055Zm6.445-3.5h-6.445V51.33H113.75V78.257A7.7,7.7,0,0,0,109.5,76.98Zm0-43.65a4.251,4.251,0,0,1,3.863,2.5H103.055v-2.5ZM14.25,76.98v-2.5H27.5a1.252,1.252,0,0,1,1.25,1.25v1.25Zm13.25-6H14.25V51.33H52.167a1.75,1.75,0,0,0,0-3.5H14.25v-8.5H68.558v8.5H62.167a1.75,1.75,0,0,0,0,3.5h6.391V76.98H32.25V75.73A4.756,4.756,0,0,0,27.5,70.98ZM68.558,35.83H14.25v-2.5H68.558ZM27.5,27.33a1.252,1.252,0,0,1,1.25,1.25v1.25H14.25v-2.5ZM10.75,110.9H8.25V17.1h2.5Zm3.5-27.924v-2.5H68.558v2.5ZM97.055,110.9V100.442a1.751,1.751,0,0,0-1.75-1.75h-19a1.75,1.75,0,0,0-1.75,1.75V110.9h-2.5V21.119h2.5V31.581a1.75,1.75,0,0,0,1.75,1.75h19a1.751,1.751,0,0,0,1.75-1.75V21.119h2.5V110.9Zm6-15.924v-8.5H113.75v8.5Z" fill="#061720"/>
      <path d="M95.305,67.262h-19a1.749,1.749,0,0,0-1.75,1.75v9.715a1.75,1.75,0,0,0,1.75,1.75h19a1.751,1.751,0,0,0,1.75-1.75V69.012A1.75,1.75,0,0,0,95.305,67.262Zm-1.75,9.715h-15.5V70.762h15.5Z" fill="#061720"/>
      <path d="M95.305,35.831h-19a1.75,1.75,0,0,0-1.75,1.75V47.3a1.749,1.749,0,0,0,1.75,1.75h19a1.75,1.75,0,0,0,1.75-1.75V37.581A1.751,1.751,0,0,0,95.305,35.831Zm-1.75,9.715h-15.5V39.331h15.5Z" fill="#061720"/>
      <path d="M95.305,82.977h-19a1.749,1.749,0,0,0-1.75,1.75v9.715a1.75,1.75,0,0,0,1.75,1.75h19a1.751,1.751,0,0,0,1.75-1.75V84.727A1.75,1.75,0,0,0,95.305,82.977Zm-1.75,9.715h-15.5V86.477h15.5Z" fill="#061720"/>
      <path d="M95.305,51.546h-19a1.75,1.75,0,0,0-1.75,1.75v9.716a1.75,1.75,0,0,0,1.75,1.75h19a1.751,1.751,0,0,0,1.75-1.75V53.3A1.751,1.751,0,0,0,95.305,51.546Zm-1.75,9.716h-15.5V55.046h15.5Z" fill="#061720"/>
    </g>
  </g>
</svg>
