<svg xmlns="http://www.w3.org/2000/svg" width="128" height="128" viewBox="0 0 128 128">
  <title>CALENDAR</title>
  <g>
    <g>
      <rect x="6.5" y="21.346" width="115" height="91.308" fill="#f5502f"/>
      <path d="M6.5,21.346V97.654a6,6,0,0,0,6,6h103a6,6,0,0,0,6-6V21.346Z" fill="#ededf9"/>
      <path d="M115.5,55.863a1.749,1.749,0,0,1-1.75-1.75v-6a1.75,1.75,0,0,1,3.5,0v6A1.749,1.749,0,0,1,115.5,55.863Z" fill="#dddde3"/>
      <g>
        <g>
          <rect x="22.692" y="51.346" width="9" height="6" fill="#537980"/>
          <rect x="22.692" y="62.782" width="9" height="6" fill="#537980"/>
          <rect x="22.692" y="74.218" width="9" height="6" fill="#537980"/>
          <rect x="22.692" y="85.654" width="9" height="6" fill="#537980"/>
        </g>
        <g>
          <rect x="41.096" y="51.346" width="9" height="6" fill="#537980"/>
          <rect x="41.096" y="62.782" width="9" height="6" fill="#537980"/>
          <rect x="41.096" y="74.218" width="9" height="6" fill="#537980"/>
          <rect x="41.096" y="85.654" width="9" height="6" fill="#537980"/>
        </g>
        <g>
          <rect x="59.5" y="51.346" width="9" height="6" fill="#537980"/>
          <rect x="59.5" y="62.782" width="9" height="6" fill="#537980"/>
          <rect x="59.5" y="74.218" width="9" height="6" fill="#537980"/>
          <rect x="59.5" y="85.654" width="9" height="6" fill="#537980"/>
        </g>
        <g>
          <rect x="77.904" y="51.346" width="9" height="6" fill="#537980"/>
          <rect x="77.904" y="62.782" width="9" height="6" fill="#537980"/>
          <rect x="77.904" y="74.218" width="9" height="6" fill="#537980"/>
        </g>
        <g>
          <rect x="96.308" y="51.346" width="9" height="6" fill="#537980"/>
          <rect x="96.308" y="62.782" width="9" height="6" fill="#537980"/>
          <rect x="96.308" y="74.218" width="9" height="6" fill="#537980"/>
        </g>
      </g>
      <rect x="6.5" y="21.346" width="115" height="18" fill="#f5502f"/>
      <rect x="24.192" y="15.346" width="6" height="15" fill="#537980"/>
      <rect x="42.596" y="15.346" width="6" height="15" fill="#537980"/>
      <rect x="61" y="15.346" width="6" height="15" fill="#537980"/>
      <rect x="79.404" y="15.346" width="6" height="15" fill="#537980"/>
      <rect x="97.808" y="15.346" width="6" height="15" fill="#537980"/>
    </g>
    <g>
      <path d="M121.5,19.6h-7.125a1.75,1.75,0,0,0,0,3.5h5.375V37.6H8.25V23.1H22.442v7.246a1.75,1.75,0,0,0,1.75,1.75h6a1.749,1.749,0,0,0,1.75-1.75V23.1h8.9v7.246A1.75,1.75,0,0,0,42.6,32.1h6a1.75,1.75,0,0,0,1.75-1.75V23.1h8.9v7.246A1.75,1.75,0,0,0,61,32.1h6a1.749,1.749,0,0,0,1.75-1.75V23.1h8.9v7.246A1.749,1.749,0,0,0,79.4,32.1h6a1.749,1.749,0,0,0,1.75-1.75V23.1h8.9v7.246a1.749,1.749,0,0,0,1.75,1.75h6a1.75,1.75,0,0,0,1.75-1.75v-15a1.75,1.75,0,0,0-1.75-1.75h-6a1.749,1.749,0,0,0-1.75,1.75V19.6h-8.9V15.346A1.749,1.749,0,0,0,85.4,13.6h-6a1.749,1.749,0,0,0-1.75,1.75V19.6h-8.9V15.346A1.749,1.749,0,0,0,67,13.6H61a1.75,1.75,0,0,0-1.75,1.75V19.6h-8.9V15.346A1.75,1.75,0,0,0,48.6,13.6h-6a1.75,1.75,0,0,0-1.75,1.75V19.6h-8.9V15.346a1.749,1.749,0,0,0-1.75-1.75h-6a1.75,1.75,0,0,0-1.75,1.75V19.6H6.5a1.75,1.75,0,0,0-1.75,1.75V65.782a1.75,1.75,0,0,0,3.5,0V41.1h111.5V97.654a4.254,4.254,0,0,1-4.25,4.25h-6.167a1.75,1.75,0,0,0,0,3.5H115.5a7.707,7.707,0,0,0,4.25-1.276V110.9H8.25v-6.772A7.707,7.707,0,0,0,12.5,105.4H91.167a1.75,1.75,0,0,0,0-3.5H12.5a4.255,4.255,0,0,1-4.25-4.25V74.833a1.75,1.75,0,0,0-3.5,0V112.65A1.75,1.75,0,0,0,6.5,114.4h115a1.749,1.749,0,0,0,1.75-1.75V21.35A1.749,1.749,0,0,0,121.5,19.6Zm-19.442-2.5V28.6h-2.5V17.1Zm-20.9,0h2.5V28.6h-2.5Zm-18.4,0h2.5V28.6h-2.5Zm-15.9,0V28.6h-2.5V17.1Zm-20.9,0h2.5V28.6h-2.5Z" fill="#061720"/>
      <path d="M97.808,101.9a1.75,1.75,0,1,0,0,3.5h4.525a1.75,1.75,0,0,0,0-3.5Z" fill="#061720"/>
      <path d="M117.25,54.113v-6a1.75,1.75,0,0,0-3.5,0v6a1.75,1.75,0,0,0,3.5,0Z" fill="#061720"/>
      <path d="M22.692,59.1h9a1.749,1.749,0,0,0,1.75-1.75v-6a1.749,1.749,0,0,0-1.75-1.75h-9a1.75,1.75,0,0,0-1.75,1.75v6A1.75,1.75,0,0,0,22.692,59.1Zm1.75-6h5.5v2.5h-5.5Z" fill="#061720"/>
      <path d="M20.942,68.782a1.75,1.75,0,0,0,1.75,1.75h9a1.749,1.749,0,0,0,1.75-1.75v-6a1.749,1.749,0,0,0-1.75-1.75h-9a1.75,1.75,0,0,0-1.75,1.75Zm3.5-4.25h5.5v2.5h-5.5Z" fill="#061720"/>
      <path d="M20.942,80.218a1.75,1.75,0,0,0,1.75,1.75h9a1.749,1.749,0,0,0,1.75-1.75v-6a1.749,1.749,0,0,0-1.75-1.75h-9a1.75,1.75,0,0,0-1.75,1.75Zm3.5-4.25h5.5v2.5h-5.5Z" fill="#061720"/>
      <path d="M20.942,91.654a1.75,1.75,0,0,0,1.75,1.75h9a1.749,1.749,0,0,0,1.75-1.75v-6a1.75,1.75,0,0,0-1.75-1.75h-9a1.751,1.751,0,0,0-1.75,1.75Zm3.5-4.25h5.5v2.5h-5.5Z" fill="#061720"/>
      <path d="M41.1,59.1h9a1.75,1.75,0,0,0,1.75-1.75v-6A1.75,1.75,0,0,0,50.1,49.6h-9a1.75,1.75,0,0,0-1.75,1.75v6A1.75,1.75,0,0,0,41.1,59.1Zm1.75-6h5.5v2.5h-5.5Z" fill="#061720"/>
      <path d="M39.346,68.782a1.75,1.75,0,0,0,1.75,1.75h9a1.75,1.75,0,0,0,1.75-1.75v-6a1.75,1.75,0,0,0-1.75-1.75h-9a1.75,1.75,0,0,0-1.75,1.75Zm3.5-4.25h5.5v2.5h-5.5Z" fill="#061720"/>
      <path d="M39.346,80.218a1.75,1.75,0,0,0,1.75,1.75h9a1.75,1.75,0,0,0,1.75-1.75v-6a1.75,1.75,0,0,0-1.75-1.75h-9a1.75,1.75,0,0,0-1.75,1.75Zm3.5-4.25h5.5v2.5h-5.5Z" fill="#061720"/>
      <path d="M39.346,91.654A1.75,1.75,0,0,0,41.1,93.4h9a1.75,1.75,0,0,0,1.75-1.75v-6A1.751,1.751,0,0,0,50.1,83.9h-9a1.751,1.751,0,0,0-1.75,1.75Zm3.5-4.25h5.5v2.5h-5.5Z" fill="#061720"/>
      <path d="M59.5,59.1h9a1.749,1.749,0,0,0,1.75-1.75v-6A1.749,1.749,0,0,0,68.5,49.6h-9a1.75,1.75,0,0,0-1.75,1.75v6A1.75,1.75,0,0,0,59.5,59.1Zm1.75-6h5.5v2.5h-5.5Z" fill="#061720"/>
      <path d="M57.75,68.782a1.75,1.75,0,0,0,1.75,1.75h9a1.749,1.749,0,0,0,1.75-1.75v-6a1.749,1.749,0,0,0-1.75-1.75h-9a1.75,1.75,0,0,0-1.75,1.75Zm3.5-4.25h5.5v2.5h-5.5Z" fill="#061720"/>
      <path d="M57.75,80.218a1.75,1.75,0,0,0,1.75,1.75h9a1.749,1.749,0,0,0,1.75-1.75v-6a1.749,1.749,0,0,0-1.75-1.75h-9a1.75,1.75,0,0,0-1.75,1.75Zm3.5-4.25h5.5v2.5h-5.5Z" fill="#061720"/>
      <path d="M57.75,91.654A1.75,1.75,0,0,0,59.5,93.4h9a1.749,1.749,0,0,0,1.75-1.75v-6A1.75,1.75,0,0,0,68.5,83.9h-9a1.751,1.751,0,0,0-1.75,1.75Zm3.5-4.25h5.5v2.5h-5.5Z" fill="#061720"/>
      <path d="M77.9,59.1h9a1.749,1.749,0,0,0,1.75-1.75v-6A1.749,1.749,0,0,0,86.9,49.6h-9a1.749,1.749,0,0,0-1.75,1.75v6A1.749,1.749,0,0,0,77.9,59.1Zm1.75-6h5.5v2.5h-5.5Z" fill="#061720"/>
      <path d="M76.154,68.782a1.749,1.749,0,0,0,1.75,1.75h9a1.749,1.749,0,0,0,1.75-1.75v-6a1.749,1.749,0,0,0-1.75-1.75h-9a1.749,1.749,0,0,0-1.75,1.75Zm3.5-4.25h5.5v2.5h-5.5Z" fill="#061720"/>
      <path d="M76.154,80.218a1.749,1.749,0,0,0,1.75,1.75h9a1.749,1.749,0,0,0,1.75-1.75v-6a1.749,1.749,0,0,0-1.75-1.75h-9a1.749,1.749,0,0,0-1.75,1.75Zm3.5-4.25h5.5v2.5h-5.5Z" fill="#061720"/>
      <path d="M96.308,59.1h9a1.75,1.75,0,0,0,1.75-1.75v-6a1.75,1.75,0,0,0-1.75-1.75h-9a1.749,1.749,0,0,0-1.75,1.75v6A1.749,1.749,0,0,0,96.308,59.1Zm1.75-6h5.5v2.5h-5.5Z" fill="#061720"/>
      <path d="M94.558,68.782a1.749,1.749,0,0,0,1.75,1.75h9a1.75,1.75,0,0,0,1.75-1.75v-6a1.75,1.75,0,0,0-1.75-1.75h-9a1.749,1.749,0,0,0-1.75,1.75Zm3.5-4.25h5.5v2.5h-5.5Z" fill="#061720"/>
      <path d="M94.558,80.218a1.749,1.749,0,0,0,1.75,1.75h9a1.75,1.75,0,0,0,1.75-1.75v-6a1.75,1.75,0,0,0-1.75-1.75h-9a1.749,1.749,0,0,0-1.75,1.75Zm3.5-4.25h5.5v2.5h-5.5Z" fill="#061720"/>
    </g>
  </g>
</svg>
