<svg xmlns="http://www.w3.org/2000/svg" width="128" height="128" viewBox="0 0 128 128">
  <title>CANDLESTICK</title>
  <g>
    <g>
      <path d="M93.308,49.581V67.335a9.022,9.022,0,0,1-6.626,8.682L67,81.4V37.581H61V81.4L41.318,76.017a9.022,9.022,0,0,1-6.626-8.682V49.581h-6V67.335A15.034,15.034,0,0,0,39.736,81.8L61,87.618v32.1h6v-32.1L88.264,81.8A15.034,15.034,0,0,0,99.308,67.335V49.581Z" fill="#b360e6"/>
      <path d="M58,109.654H70a3,3,0,0,1,3,3V118.5a0,0,0,0,1,0,0H55a0,0,0,0,1,0,0v-5.846A3,3,0,0,1,58,109.654Z" fill="#934acb"/>
      <path d="M64,25.039a1.75,1.75,0,0,1-1.75-1.75v-8.6a1.75,1.75,0,1,1,3.5,0v8.6A1.75,1.75,0,0,1,64,25.039Z" fill="#dddde3"/>
      <rect x="59.5" y="20.689" width="9" height="25.389" fill="#ededf9"/>
      <path d="M56.5,46.078h15a0,0,0,0,1,0,0v0a6,6,0,0,1-6,6h-3a6,6,0,0,1-6-6v0a0,0,0,0,1,0,0Z" fill="#f9d42f"/>
      <path d="M88.808,55.042h15a0,0,0,0,1,0,0v0a6,6,0,0,1-6,6h-3a6,6,0,0,1-6-6v0a0,0,0,0,1,0,0Z" fill="#f9d42f"/>
      <path d="M24.192,55.042h15a0,0,0,0,1,0,0v0a6,6,0,0,1-6,6h-3a6,6,0,0,1-6-6v0a0,0,0,0,1,0,0Z" fill="#f9d42f"/>
      <path d="M61,12.95c0-3.22,3-6.45,3-6.45s3,3.23,3,6.45a3,3,0,1,1-6,0Z" fill="#f9d42f"/>
      <path d="M96.308,34a1.75,1.75,0,0,1-1.75-1.75v-8.6a1.75,1.75,0,1,1,3.5,0v8.6A1.751,1.751,0,0,1,96.308,34Z" fill="#dddde3"/>
      <path d="M74.5,44.328h-21a1.75,1.75,0,0,0,0,3.5h21a1.75,1.75,0,0,0,0-3.5Z" fill="#fb9401"/>
      <rect x="91.808" y="29.654" width="9" height="25.389" fill="#ededf9"/>
      <path d="M93.308,21.915c0-3.22,3-6.45,3-6.45s3,3.23,3,6.45a3,3,0,1,1-6,0Z" fill="#f9d42f"/>
      <path d="M31.692,34a1.751,1.751,0,0,1-1.75-1.75v-8.6a1.75,1.75,0,0,1,3.5,0v8.6A1.75,1.75,0,0,1,31.692,34Z" fill="#dddde3"/>
      <rect x="27.192" y="29.654" width="9" height="25.389" transform="translate(63.384 84.696) rotate(180)" fill="#ededf9"/>
      <path d="M34.692,21.915c0-3.22-3-6.45-3-6.45s-3,3.23-3,6.45a3,3,0,0,0,6,0Z" fill="#f9d42f"/>
      <path d="M52,115.5H76a3,3,0,0,1,3,3v3a0,0,0,0,1,0,0H49a0,0,0,0,1,0,0v-3A3,3,0,0,1,52,115.5Z" fill="#b360e6"/>
    </g>
    <g>
      <path d="M80.7,82.051l-2.728.748a1.75,1.75,0,0,0,.925,3.376l2.729-.748a1.75,1.75,0,0,0-.926-3.376Z" fill="#061720"/>
      <path d="M105.558,55.042a1.751,1.751,0,0,0-1.75-1.75h-1.25V29.654a1.751,1.751,0,0,0-1.75-1.75H98.06V26.32a4.75,4.75,0,0,0,3-4.405c0-3.8-3.114-7.259-3.468-7.642a1.807,1.807,0,0,0-2.565,0c-.354.383-3.467,3.844-3.467,7.642a4.748,4.748,0,0,0,3,4.406V27.9H91.808a1.75,1.75,0,0,0-1.75,1.75V53.292H88.809a1.75,1.75,0,0,0-1.75,1.75,7.755,7.755,0,0,0,4.5,7.027V67.33a7.28,7.28,0,0,1-5.342,7L68.75,79.107v-26a7.769,7.769,0,0,0,4.293-5.276H74.5a1.75,1.75,0,0,0,0-3.5H70.25V20.689a1.75,1.75,0,0,0-1.75-1.75H65.75V17.357a4.751,4.751,0,0,0,3-4.407c0-3.8-3.113-7.259-3.468-7.641a1.8,1.8,0,0,0-2.564,0c-.355.382-3.468,3.843-3.468,7.641a4.751,4.751,0,0,0,3,4.407v1.582H59.5a1.75,1.75,0,0,0-1.75,1.75v7.686a1.75,1.75,0,0,0,3.5,0V22.439h5.5V44.328h-5.5v-6.7a1.75,1.75,0,0,0-3.5,0v6.7H53.5a1.75,1.75,0,0,0,0,3.5h1.457A7.769,7.769,0,0,0,59.25,53.1v26L47.135,75.8a1.75,1.75,0,1,0-.924,3.376l14.327,3.917A1.778,1.778,0,0,0,61,83.15a1.75,1.75,0,0,0,1.75-1.75V53.828h2.5V81.4A1.75,1.75,0,0,0,67,83.15a1.778,1.778,0,0,0,.462-.062l19.681-5.38A10.789,10.789,0,0,0,95.06,67.33V62.792h2.5V67.33a13.266,13.266,0,0,1-9.754,12.78l-2.423.659a1.751,1.751,0,0,0,.461,3.439,1.768,1.768,0,0,0,.463-.063l2.412-.657A16.774,16.774,0,0,0,101.06,67.33V62.067A7.753,7.753,0,0,0,105.558,55.042Zm-9.25-36.66a7.258,7.258,0,0,1,1.25,3.533,1.248,1.248,0,0,1-1.235,1.246H96.31l-.016,0a1.249,1.249,0,0,1-1.236-1.247A7.258,7.258,0,0,1,96.308,18.382ZM64,9.418a7.258,7.258,0,0,1,1.25,3.532,1.25,1.25,0,1,1-2.5,0A7.264,7.264,0,0,1,64,9.418Zm5.373,38.41a4.256,4.256,0,0,1-3.873,2.5h-3a4.256,4.256,0,0,1-3.873-2.5ZM93.558,31.4h5.5V53.292h-5.5ZM98.98,59.123l-.057.013a4.234,4.234,0,0,1-1.115.156h-3a4.256,4.256,0,0,1-3.873-2.5h10.745A4.268,4.268,0,0,1,98.98,59.123Z" fill="#061720"/>
      <path d="M76,113.75H74.75v-1.1A4.756,4.756,0,0,0,70,107.9H68.75V88.955L73.1,87.762a1.75,1.75,0,0,0-.925-3.376l-5.642,1.546A1.751,1.751,0,0,0,65.25,87.62V107.9h-2.5V87.62a1.751,1.751,0,0,0-1.287-1.688l-20.449-5.6-.815-.219A13.266,13.266,0,0,1,30.44,67.33V62.792h2.5V67.33a10.826,10.826,0,0,0,4.315,8.611,1.75,1.75,0,1,0,2.1-2.8A7.307,7.307,0,0,1,36.44,67.33V62.069a7.755,7.755,0,0,0,4.5-7.027,1.75,1.75,0,0,0-1.75-1.75H37.942V29.654a1.75,1.75,0,0,0-1.75-1.75H33.44V26.321a4.748,4.748,0,0,0,3-4.406c0-3.8-3.113-7.259-3.467-7.642a1.807,1.807,0,0,0-2.565,0c-.354.383-3.468,3.844-3.468,7.642a4.75,4.75,0,0,0,3,4.405V27.9H27.192a1.751,1.751,0,0,0-1.75,1.75V53.292h-1.25a1.751,1.751,0,0,0-1.75,1.75,7.753,7.753,0,0,0,4.5,7.025V67.33A16.776,16.776,0,0,0,39.286,83.49L59.25,88.955V107.9H58a4.756,4.756,0,0,0-4.75,4.75v1.1H52a4.756,4.756,0,0,0-4.75,4.75v3A1.75,1.75,0,0,0,49,123.25H79a1.75,1.75,0,0,0,1.75-1.75v-3A4.756,4.756,0,0,0,76,113.75ZM31.692,18.382a7.248,7.248,0,0,1,1.25,3.533,1.249,1.249,0,0,1-1.236,1.247l-.016,0h-.013a1.248,1.248,0,0,1-1.235-1.246A7.268,7.268,0,0,1,31.692,18.382ZM28.942,31.4h5.5V53.292h-5.5Zm8.122,25.388a4.256,4.256,0,0,1-3.873,2.5h-3a4.234,4.234,0,0,1-1.115-.156l-.057-.013a4.268,4.268,0,0,1-2.7-2.331ZM56.75,112.65A1.251,1.251,0,0,1,58,111.4H70a1.251,1.251,0,0,1,1.25,1.25v1.1H56.75Zm20.5,7.1H50.75V118.5A1.252,1.252,0,0,1,52,117.25H76a1.252,1.252,0,0,1,1.25,1.25Z" fill="#061720"/>
    </g>
  </g>
</svg>
