<svg xmlns="http://www.w3.org/2000/svg" width="128" height="128" viewBox="0 0 128 128">
  <title>CHAIR</title>
  <g>
    <g>
      <path d="M64,99.38a226.772,226.772,0,0,1-26.054-1.662l.776-5.949A225.391,225.391,0,0,0,64,93.38,225,225,0,0,0,89.28,91.769l.776,5.949A226.8,226.8,0,0,1,64,99.38Z" fill="#d58559"/>
      <path d="M36.25,72s-.519-13.75-.519-26.736c0-6.972-.571-17.632-1.1-26.009A12,12,0,0,1,46.606,6.5H81.394A12,12,0,0,1,93.37,19.255c-.53,8.377-1.1,19.037-1.1,26.009C92.269,58.25,91.75,72,91.75,72Z" fill="#3ea7fb"/>
      <g>
        <path d="M36.646,121.492h0a3.116,3.116,0,0,0,3.3-2.649L47.3,69.522l-10.058-.71-3.485,49.352A3.116,3.116,0,0,0,36.646,121.492Z" fill="#f2a66c"/>
        <path d="M91.354,121.492h0a3.116,3.116,0,0,1-3.3-2.649L80.7,69.522l10.058-.71,3.485,49.352A3.116,3.116,0,0,1,91.354,121.492Z" fill="#f2a66c"/>
      </g>
      <path d="M64,66H32.721a3,3,0,0,0-3,3h0a9.283,9.283,0,0,0,7.36,9.075A133.667,133.667,0,0,0,64,81.167a133.667,133.667,0,0,0,26.919-3.092A9.283,9.283,0,0,0,98.279,69h0a3,3,0,0,0-3-3Z" fill="#0f89cc"/>
    </g>
    <g>
      <path d="M41.768,51.749a1.75,1.75,0,0,0-1.726,1.774c.028,2.041.064,4.024.1,5.884A1.75,1.75,0,0,0,41.9,61.12h.038a1.752,1.752,0,0,0,1.713-1.787c-.04-1.853-.076-3.825-.1-5.858A1.759,1.759,0,0,0,41.768,51.749Z" fill="#061720"/>
      <path d="M34.662,105.373c.043,0,.084,0,.126,0a1.75,1.75,0,0,0,1.744-1.626l.3-4.25a1.75,1.75,0,1,0-3.492-.248l-.3,4.25A1.751,1.751,0,0,0,34.662,105.373Z" fill="#061720"/>
      <path d="M100.029,69a4.756,4.756,0,0,0-4.75-4.75h-1.54c.121-4.51.25-10.609.276-16.74a1.751,1.751,0,0,0-1.743-1.758h-.007a1.75,1.75,0,0,0-1.75,1.742c-.026,6.144-.156,12.255-.277,16.756H37.762c-.138-5.141-.282-12.14-.282-18.99,0-7.168-.6-18.161-1.1-26.121A10.244,10.244,0,0,1,46.61,8.25H81.39A10.244,10.244,0,0,1,91.624,19.14c-.462,7.29-.783,13.571-.956,18.669a1.75,1.75,0,0,0,1.689,1.808h.061a1.75,1.75,0,0,0,1.748-1.69c.172-5.064.491-11.311.95-18.567A13.743,13.743,0,0,0,81.39,4.75H46.61A13.743,13.743,0,0,0,32.884,19.36c.5,7.91,1.1,18.824,1.1,25.9,0,6.845.143,13.835.281,18.99h-1.54A4.756,4.756,0,0,0,27.971,69a11.1,11.1,0,0,0,6.788,10.166l-1.031,14.6a1.752,1.752,0,0,0,1.623,1.869c.042,0,.083,0,.125,0a1.751,1.751,0,0,0,1.744-1.627L38.2,80.1c1.7.346,3.579.7,5.6,1.034,0,0-2.534,16.948-2.537,16.981,0,.011,0,.022,0,.033L38.22,118.582a1.369,1.369,0,0,1-1.448,1.162,1.364,1.364,0,0,1-1.266-1.461l.63-8.91a1.75,1.75,0,1,0-3.492-.246l-.63,8.911a4.864,4.864,0,0,0,4.507,5.2c.12.009.238.014.356.014a4.884,4.884,0,0,0,4.8-4.151l2.821-18.92c5.12.466,12.208.952,19.5.952,1.774,0,3.645-.029,5.558-.088a1.75,1.75,0,1,0-.106-3.5c-1.879.057-3.713.086-5.452.086-7.067,0-13.955-.467-18.981-.92l.37-2.476c4.943.438,11.737.9,18.611.9s13.668-.458,18.611-.9l.37,2.479c-1.541.136-3.081.264-4.6.371a1.75,1.75,0,0,0,.121,3.5c.042,0,.083,0,.125,0,1.6-.114,3.236-.249,4.867-.395L86.319,119.1a4.883,4.883,0,0,0,4.8,4.151c.117,0,.236,0,.355-.013a4.865,4.865,0,0,0,4.514-5.2L93.241,79.166A11.1,11.1,0,0,0,100.029,69ZM64,91.63c-6.653,0-13.245-.438-18.094-.864l1.358-9.107A121.14,121.14,0,0,0,64,82.917a121.14,121.14,0,0,0,16.736-1.258l1.358,9.107C77.245,91.192,70.653,91.63,64,91.63Zm28.163,27.648a1.353,1.353,0,0,1-.943.467,1.379,1.379,0,0,1-1.44-1.163L84.2,81.129c2.023-.335,3.9-.688,5.6-1.034l2.7,38.187A1.359,1.359,0,0,1,92.163,119.278ZM90.554,76.364A131.7,131.7,0,0,1,64,79.417a131.7,131.7,0,0,1-26.554-3.053A7.578,7.578,0,0,1,31.471,69a1.251,1.251,0,0,1,1.25-1.25H95.279A1.251,1.251,0,0,1,96.529,69,7.578,7.578,0,0,1,90.554,76.364Z" fill="#061720"/>
    </g>
  </g>
</svg>
