<svg xmlns="http://www.w3.org/2000/svg" width="128" height="128" viewBox="0 0 128 128">
  <title>CHANDELIER</title>
  <g>
    <g>
      <path d="M53.506,6.5H74.494l-1.522,4.054A3,3,0,0,1,70.163,12.5H57.837a3,3,0,0,1-2.809-1.946Z" fill="#f9d42f"/>
      <circle cx="64" cy="117" r="4.5" fill="#f9d42f"/>
      <circle cx="64" cy="103.808" r="3" fill="#f9d42f"/>
      <path d="M58,12.5H70a0,0,0,0,1,0,0v0a6,6,0,0,1-6,6h0a6,6,0,0,1-6-6v0a0,0,0,0,1,0,0Z" fill="#fb9401"/>
      <path d="M92.837,36.462c0,4.387-4.087,8.788-4.087,8.788s-4.087-4.4-4.087-8.788a4.087,4.087,0,1,1,8.174,0Z" fill="#f9d42f"/>
      <rect x="84.25" y="42.828" width="9" height="12" fill="#ededf9"/>
      <path d="M82.75,54.828h12a0,0,0,0,1,0,0v0a6,6,0,0,1-6,6h0a6,6,0,0,1-6-6v0A0,0,0,0,1,82.75,54.828Z" fill="#ededf9"/>
      <path d="M117.587,43.335c0,4.388-4.087,8.788-4.087,8.788s-4.087-4.4-4.087-8.788a4.087,4.087,0,1,1,8.174,0Z" fill="#f9d42f"/>
      <rect x="109" y="49.701" width="9" height="12" fill="#ededf9"/>
      <path d="M107.5,61.7h12a0,0,0,0,1,0,0v0a6,6,0,0,1-6,6h0a6,6,0,0,1-6-6v0A0,0,0,0,1,107.5,61.7Z" fill="#ededf9"/>
      <path d="M35.163,36.462c0,4.387,4.087,8.788,4.087,8.788s4.087-4.4,4.087-8.788a4.087,4.087,0,0,0-8.174,0Z" fill="#f9d42f"/>
      <rect x="34.75" y="42.828" width="9" height="12" transform="translate(78.5 97.655) rotate(180)" fill="#ededf9"/>
      <path d="M39.25,54.828h0a6,6,0,0,1,6,6v0a0,0,0,0,1,0,0h-12a0,0,0,0,1,0,0v0a6,6,0,0,1,6-6Z" transform="translate(78.5 115.655) rotate(180)" fill="#ededf9"/>
      <path d="M10.413,43.335c0,4.388,4.087,8.788,4.087,8.788s4.087-4.4,4.087-8.788a4.087,4.087,0,1,0-8.174,0Z" fill="#f9d42f"/>
      <rect x="10" y="49.701" width="9" height="12" transform="translate(29 111.402) rotate(180)" fill="#ededf9"/>
      <path d="M14.5,61.7h0a6,6,0,0,1,6,6v0a0,0,0,0,1,0,0H8.5a0,0,0,0,1,0,0v0a6,6,0,0,1,6-6Z" transform="translate(29 129.402) rotate(180)" fill="#ededf9"/>
      <circle cx="64" cy="53.328" r="4.5" fill="#f9d42f"/>
      <circle cx="64" cy="40.135" r="3" fill="#f9d42f"/>
    </g>
    <g>
      <path d="M63.542,8.25H67a1.75,1.75,0,0,0,0-3.5H63.542a1.75,1.75,0,0,0,0,3.5Z" fill="#061720"/>
      <path d="M121.5,59.951H110.75v-8.5h5.5v2.3a1.75,1.75,0,0,0,3.5,0V49.7a1.744,1.744,0,0,0-1.5-1.724,11.656,11.656,0,0,0,1.089-4.637,5.84,5.84,0,0,0-11.68,0,11.656,11.656,0,0,0,1.089,4.637,1.744,1.744,0,0,0-1.5,1.724v10.25H105.5a1.75,1.75,0,0,0,0,3.5h.457a7.762,7.762,0,0,0,5.793,5.793V77.67a22.986,22.986,0,0,1-45.744,3.266A14.105,14.105,0,0,0,90.5,71.38V62.37a7.762,7.762,0,0,0,5.793-5.793h.457a1.75,1.75,0,0,0,0-3.5H95V42.827A1.744,1.744,0,0,0,93.5,41.1,11.725,11.725,0,0,0,94.59,36.46a5.84,5.84,0,0,0-11.68,0A11.725,11.725,0,0,0,84,41.1a1.744,1.744,0,0,0-1.5,1.724v10.25H80.75a1.75,1.75,0,0,0,0,3.5h.457A7.762,7.762,0,0,0,87,62.37v9.01a10.625,10.625,0,0,1-21.25,0V59.323a6.245,6.245,0,0,0,0-11.992V44.542a4.736,4.736,0,0,0,0-8.813V20.043A7.769,7.769,0,0,0,71.6,14.025,4.775,4.775,0,0,0,74.61,11.17l1.522-4.055A1.751,1.751,0,0,0,74.494,4.75h-2.7a1.75,1.75,0,0,0,0,3.5h.176l-.635,1.689a1.254,1.254,0,0,1-1.17.811H57.837a1.254,1.254,0,0,1-1.17-.811L56.032,8.25h1.8a1.75,1.75,0,0,0,0-3.5H53.506a1.751,1.751,0,0,0-1.638,2.365L53.39,11.17A4.773,4.773,0,0,0,56.4,14.025a7.769,7.769,0,0,0,5.848,6.018V35.729a4.736,4.736,0,0,0,0,8.813v2.789a6.245,6.245,0,0,0,0,11.992V71.38a10.625,10.625,0,0,1-21.25,0V62.37a7.762,7.762,0,0,0,5.793-5.793h.457a1.75,1.75,0,0,0,0-3.5H45.5V42.827A1.744,1.744,0,0,0,44,41.1,11.725,11.725,0,0,0,45.09,36.46a5.84,5.84,0,0,0-11.68,0A11.725,11.725,0,0,0,34.5,41.1,1.744,1.744,0,0,0,33,42.827v2.006a1.75,1.75,0,0,0,3.5,0v-.256H42v8.5H36.5v-.41a1.75,1.75,0,0,0-3.5,0v.41H31.25a1.75,1.75,0,0,0,0,3.5h.457A7.762,7.762,0,0,0,37.5,62.37v9.01a14.106,14.106,0,0,0,24.494,9.557A22.988,22.988,0,0,1,16.25,77.67V69.244a7.762,7.762,0,0,0,5.793-5.793H22.5a1.75,1.75,0,0,0,0-3.5H20.75V49.7a1.744,1.744,0,0,0-1.5-1.724A11.656,11.656,0,0,0,20.34,43.34a5.84,5.84,0,0,0-11.68,0,11.656,11.656,0,0,0,1.089,4.637A1.744,1.744,0,0,0,8.25,49.7v10.25H6.5a1.75,1.75,0,1,0,0,3.5h.457a7.762,7.762,0,0,0,5.793,5.793V77.67a26.507,26.507,0,0,0,49.5,13.169V99.4a4.736,4.736,0,0,0,0,8.813V111a6.25,6.25,0,1,0,3.5,0v-2.79a4.736,4.736,0,0,0,0-8.813V90.839a26.638,26.638,0,0,0,4.263,5.568A26.5,26.5,0,0,0,115.25,77.67V69.244a7.762,7.762,0,0,0,5.793-5.793h.457a1.75,1.75,0,0,0,0-3.5ZM86,44.577h5.5v8.5H86ZM88.75,34.12a2.343,2.343,0,0,1,2.34,2.34,9.808,9.808,0,0,1-1.484,4.617H87.894A9.808,9.808,0,0,1,86.41,36.46,2.343,2.343,0,0,1,88.75,34.12ZM84.877,56.577h7.746a4.25,4.25,0,0,1-7.746,0ZM39.25,34.13a2.338,2.338,0,0,1,2.34,2.33,9.808,9.808,0,0,1-1.484,4.617H38.394A9.808,9.808,0,0,1,36.91,36.46,2.338,2.338,0,0,1,39.25,34.13ZM35.377,56.577h7.746a4.25,4.25,0,0,1-7.746,0ZM11.75,51.451h5.5v8.5h-5.5ZM14.5,41a2.343,2.343,0,0,1,2.34,2.34,9.738,9.738,0,0,1-1.491,4.611h-1.7A9.738,9.738,0,0,1,12.16,43.34,2.343,2.343,0,0,1,14.5,41ZM10.627,63.451h7.746a4.259,4.259,0,0,1-3.867,2.5h-.012A4.259,4.259,0,0,1,10.627,63.451Zm53.36-24.563.013,0,.013,0a1.25,1.25,0,1,1-.026,0ZM60.127,14.25h7.746a4.25,4.25,0,0,1-7.746,0ZM61.25,53.327a2.751,2.751,0,0,1,2.735-2.748h.03a2.749,2.749,0,1,1-2.765,2.748Zm4,50.481a1.25,1.25,0,1,1-1.256-1.249h.012A1.25,1.25,0,0,1,65.25,103.808ZM66.75,117A2.75,2.75,0,1,1,64,114.25,2.752,2.752,0,0,1,66.75,117ZM113.5,41a2.343,2.343,0,0,1,2.34,2.34,9.738,9.738,0,0,1-1.491,4.611h-1.7a9.738,9.738,0,0,1-1.491-4.611A2.343,2.343,0,0,1,113.5,41Zm.006,24.951h-.012a4.259,4.259,0,0,1-3.867-2.5h7.746A4.259,4.259,0,0,1,113.506,65.951Z" fill="#061720"/>
    </g>
  </g>
</svg>
