<svg xmlns="http://www.w3.org/2000/svg" width="128" height="128" viewBox="0 0 128 128">
  <title>CLOCK</title>
  <g>
    <g>
      <circle cx="64" cy="64" r="57.5" fill="#3ea7fb"/>
      <circle cx="64" cy="64" r="48.5" fill="#ededf9"/>
      <circle cx="64" cy="64" r="4.5" fill="#3ea7fb"/>
    </g>
    <g>
      <path d="M108.89,30.934c.712.964,1.4,1.962,2.044,2.964a1.75,1.75,0,1,0,2.945-1.89c-.686-1.068-1.416-2.128-2.173-3.153a1.75,1.75,0,1,0-2.816,2.079Z" fill="#061720"/>
      <path d="M31.411,18.762a55.762,55.762,0,0,1,74.359,8.312,1.749,1.749,0,1,0,2.621-2.318,59.261,59.261,0,0,0-79.029-8.832,1.75,1.75,0,0,0,2.049,2.838Z" fill="#061720"/>
      <path d="M116.535,36.577a1.75,1.75,0,1,0-3.1,1.623,55.757,55.757,0,1,1-88.9-13.577,1.75,1.75,0,1,0-2.476-2.473,59.238,59.238,0,1,0,94.476,14.427Z" fill="#061720"/>
      <path d="M30.388,101.324a1.75,1.75,0,1,0,2.343-2.6c-.172-.156-.333-.321-.5-.479l5.079-5.078a1.75,1.75,0,1,0-2.475-2.475L29.755,95.77a46.841,46.841,0,0,1-5.306-6.914l1.022-.59a1.75,1.75,0,0,0-1.75-3.032l-1.023.591a46.956,46.956,0,0,1-3.345-8.05l1.151-.308a1.75,1.75,0,0,0-.906-3.381l-1.156.309A46.528,46.528,0,0,1,17.3,65.75h7.2a1.75,1.75,0,0,0,0-3.5H17.294A46.653,46.653,0,0,1,18.43,53.6l1.168.313a1.75,1.75,0,0,0,.906-3.381l-1.178-.315a46.334,46.334,0,0,1,3.354-8.053l1.041.6a1.75,1.75,0,0,0,1.75-3.032l-1.033-.6a47.055,47.055,0,0,1,5.312-6.913l5.082,5.082a1.75,1.75,0,1,0,2.475-2.475L32.225,29.75a47.055,47.055,0,0,1,6.913-5.312l.6,1.033a1.751,1.751,0,0,0,1.518.875,1.73,1.73,0,0,0,.873-.235,1.75,1.75,0,0,0,.641-2.39l-.6-1.041a46.334,46.334,0,0,1,8.053-3.354l.315,1.178a1.75,1.75,0,0,0,3.381-.906L53.6,18.43a46.653,46.653,0,0,1,8.649-1.136V24.5a1.75,1.75,0,0,0,3.5,0V17.294A46.653,46.653,0,0,1,74.4,18.43L74.086,19.6a1.75,1.75,0,0,0,3.381.906l.315-1.178a46.334,46.334,0,0,1,8.053,3.354l-.6,1.041a1.75,1.75,0,0,0,.641,2.39,1.73,1.73,0,0,0,.873.235,1.751,1.751,0,0,0,1.518-.875l.6-1.033a47.055,47.055,0,0,1,6.913,5.312l-5.082,5.082a1.75,1.75,0,0,0,2.475,2.475l5.082-5.082a47.055,47.055,0,0,1,5.312,6.913l-1.033.6a1.75,1.75,0,0,0,1.75,3.032l1.041-.6a46.334,46.334,0,0,1,3.354,8.053l-1.178.315a1.75,1.75,0,1,0,.906,3.381l1.168-.313a46.653,46.653,0,0,1,1.136,8.649H103.5a1.75,1.75,0,0,0,0,3.5h7.206A46.653,46.653,0,0,1,109.57,74.4l-1.168-.313a1.75,1.75,0,0,0-.906,3.381l1.178.315a46.334,46.334,0,0,1-3.354,8.053l-1.041-.6a1.75,1.75,0,0,0-1.75,3.032l1.033.6a47.055,47.055,0,0,1-5.312,6.913l-5.082-5.082a1.75,1.75,0,1,0-2.475,2.475l5.082,5.082a47.055,47.055,0,0,1-6.913,5.312l-.6-1.033a1.75,1.75,0,0,0-3.032,1.75l.6,1.041a46.334,46.334,0,0,1-8.053,3.354l-.315-1.178a1.75,1.75,0,0,0-3.381.906l.313,1.168a46.653,46.653,0,0,1-8.649,1.136V103.5a1.75,1.75,0,0,0-3.5,0v7.216a46.6,46.6,0,0,1-8.65-1.14l.314-1.174a1.75,1.75,0,0,0-3.381-.906l-.314,1.173a46.529,46.529,0,0,1-8.055-3.348l.6-1.042a1.75,1.75,0,0,0-3.032-1.75l-.6,1.037c-.175-.11-.352-.215-.526-.328a1.75,1.75,0,0,0-1.906,2.936,50.389,50.389,0,1,0-6.316-4.85Z" fill="#061720"/>
      <path d="M64,34.25A1.749,1.749,0,0,0,62.25,36V58A6.247,6.247,0,1,0,67,69.478l9.639,9.639a1.749,1.749,0,0,0,2.474-2.474L69.478,67a6.241,6.241,0,0,0-3.728-9V36A1.749,1.749,0,0,0,64,34.25ZM66.75,64A2.75,2.75,0,1,1,64,61.25,2.752,2.752,0,0,1,66.75,64Z" fill="#061720"/>
    </g>
  </g>
</svg>
