<svg xmlns="http://www.w3.org/2000/svg" width="128" height="128" viewBox="0 0 128 128">
  <title>CLOSET</title>
  <g>
    <g>
      <rect x="58.33" y="12.5" width="51.339" height="107" transform="translate(167.999 132) rotate(180)" fill="#d58559"/>
      <rect x="67.33" y="21.5" width="33.34" height="48.62" fill="#ededf9"/>
      <rect x="18.33" y="8.5" width="40" height="111" fill="#f2a66c"/>
      <path d="M18.331,115.5h91.338a3,3,0,0,1,3,3v3a0,0,0,0,1,0,0H15.331a0,0,0,0,1,0,0v-3A3,3,0,0,1,18.331,115.5Z" fill="#663325"/>
      <path d="M18.331,6.5h91.338a3,3,0,0,1,3,3v3a0,0,0,0,1,0,0H15.331a0,0,0,0,1,0,0v-3A3,3,0,0,1,18.331,6.5Z" transform="translate(128 19) rotate(180)" fill="#663325"/>
      <rect x="58.33" y="79.208" width="51.34" height="6" fill="#663325"/>
      <circle cx="46.331" cy="64" r="3" fill="#663325"/>
    </g>
    <g>
      <path d="M67.33,71.87h33.34a1.749,1.749,0,0,0,1.75-1.75V61a1.75,1.75,0,0,0-3.5,0v7.37H69.08V23.25H98.92V52.333a1.75,1.75,0,0,0,3.5,0V21.5a1.749,1.749,0,0,0-1.75-1.75H67.33a1.749,1.749,0,0,0-1.75,1.75V70.12A1.749,1.749,0,0,0,67.33,71.87Z" fill="#061720"/>
      <path d="M75.6,48.2,86.387,37.413a1.75,1.75,0,0,0-2.475-2.475L73.128,45.722A1.75,1.75,0,1,0,75.6,48.2Z" fill="#061720"/>
      <path d="M75.515,56.045a1.743,1.743,0,0,0,1.237-.513L93.723,38.563a1.75,1.75,0,0,0-2.475-2.475L74.277,53.058a1.75,1.75,0,0,0,1.238,2.987Z" fill="#061720"/>
      <path d="M82.851,57.194a1.746,1.746,0,0,0,1.237-.512L94.872,45.9A1.75,1.75,0,0,0,92.4,43.424L81.613,54.207a1.75,1.75,0,0,0,1.238,2.987Z" fill="#061720"/>
      <path d="M18.33,33.583a1.75,1.75,0,0,0,1.75-1.75V26.917a1.75,1.75,0,0,0-3.5,0v4.916A1.75,1.75,0,0,0,18.33,33.583Z" fill="#061720"/>
      <path d="M26.08,100.333V95.167a1.75,1.75,0,0,0-3.5,0v5.166a1.75,1.75,0,0,0,3.5,0Z" fill="#061720"/>
      <path d="M79.5,92.958h9a1.75,1.75,0,0,0,0-3.5h-9a1.75,1.75,0,0,0,0,3.5Z" fill="#061720"/>
      <path d="M111.42,13.906a4.75,4.75,0,0,0,3-4.406v-3a1.749,1.749,0,0,0-1.75-1.75H15.331a1.75,1.75,0,0,0-1.75,1.75v3a4.75,4.75,0,0,0,3,4.406V21.5a1.75,1.75,0,0,0,3.5,0V14.25h36.5v99.5H20.08V37.5a1.75,1.75,0,0,0-3.5,0v76.594a4.75,4.75,0,0,0-3,4.406v3a1.75,1.75,0,0,0,1.75,1.75h97.338a1.749,1.749,0,0,0,1.75-1.75v-3a4.75,4.75,0,0,0-3-4.406ZM60.08,80.958h47.84v2.5H60.08Zm-43-72.708h93.838V9.5a1.252,1.252,0,0,1-1.25,1.25H18.331a1.252,1.252,0,0,1-1.25-1.25Zm90.839,6V77.458H60.08V14.25Zm3,105.5H17.081V118.5a1.252,1.252,0,0,1,1.25-1.25H69.667a1.75,1.75,0,0,0,0-3.5H60.08V86.958h47.84V113.75H79.5a1.75,1.75,0,0,0,0,3.5h30.169a1.252,1.252,0,0,1,1.25,1.25Z" fill="#061720"/>
      <path d="M51.081,64a4.75,4.75,0,1,0-4.75,4.75A4.756,4.756,0,0,0,51.081,64Zm-6,0a1.25,1.25,0,1,1,1.25,1.25A1.252,1.252,0,0,1,45.081,64Z" fill="#061720"/>
    </g>
  </g>
</svg>
