<svg xmlns="http://www.w3.org/2000/svg" width="128" height="128" viewBox="0 0 128 128">
  <title>COMPUTER</title>
  <g>
    <g>
      <path d="M76,98.654v-6H52v6a8,8,0,0,1-8,8h0v6H84v-6h0A8,8,0,0,1,76,98.654Z" fill="#dddde3"/>
      <rect x="44" y="106.654" width="40" height="6" fill="#ededf9"/>
      <rect x="6.5" y="15.346" width="115" height="79.615" rx="3" fill="#3ea7fb"/>
      <path d="M6.5,76.962h115a0,0,0,0,1,0,0v15a3,3,0,0,1-3,3H9.5a3,3,0,0,1-3-3v-15a0,0,0,0,1,0,0Z" fill="#ededf9"/>
      <circle cx="64" cy="85.962" r="3" fill="#3ea7fb"/>
    </g>
    <g>
      <path d="M121.5,25.064a1.751,1.751,0,0,0-1.75,1.75v3.834a1.75,1.75,0,1,0,3.5,0V26.814A1.751,1.751,0,0,0,121.5,25.064Z" fill="#061720"/>
      <path d="M118.5,13.6H9.5a4.756,4.756,0,0,0-4.75,4.75V91.961a4.755,4.755,0,0,0,4.75,4.75H20.167a1.75,1.75,0,0,0,0-3.5H9.5a1.251,1.251,0,0,1-1.25-1.25V78.711h111.5v13.25a1.251,1.251,0,0,1-1.25,1.25h-89a1.75,1.75,0,0,0,0,3.5H50.25V98.65A6.257,6.257,0,0,1,44,104.9a1.751,1.751,0,0,0-1.75,1.75v6A1.751,1.751,0,0,0,44,114.4H69.875a1.75,1.75,0,0,0,0-3.5H45.75v-2.5h36.5v2.5h-4a1.75,1.75,0,0,0,0,3.5H84a1.751,1.751,0,0,0,1.75-1.75v-6A1.751,1.751,0,0,0,84,104.9a6.239,6.239,0,0,1-6.25-6.25V96.711H118.5a4.755,4.755,0,0,0,4.75-4.75V36.314a1.75,1.75,0,1,0-3.5,0v38.9H8.25V18.346A1.252,1.252,0,0,1,9.5,17.1h109a1.252,1.252,0,0,1,1.25,1.25v3.218a1.75,1.75,0,0,0,3.5,0V18.346A4.756,4.756,0,0,0,118.5,13.6ZM76.522,104.9H51.473A9.706,9.706,0,0,0,53.75,98.65V96.711h20.5V98.65A9.708,9.708,0,0,0,76.522,104.9Z" fill="#061720"/>
      <path d="M10.75,37.938v6a1.75,1.75,0,0,0,3.5,0v-6a1.75,1.75,0,0,0-3.5,0Z" fill="#061720"/>
      <path d="M68.75,85.961A4.75,4.75,0,1,0,64,90.711,4.756,4.756,0,0,0,68.75,85.961Zm-6,0A1.25,1.25,0,1,1,64,87.211,1.252,1.252,0,0,1,62.75,85.961Z" fill="#061720"/>
    </g>
  </g>
</svg>
