<svg xmlns="http://www.w3.org/2000/svg" width="128" height="128" viewBox="0 0 128 128">
  <title>DIGITAL CLOCK</title>
  <g>
    <g>
      <path d="M86.9,38.1h13.9a3,3,0,0,1,3,3v9.141a0,0,0,0,1,0,0H83.9a0,0,0,0,1,0,0V41.1A3,3,0,0,1,86.9,38.1Z" fill="#385b60"/>
      <rect x="24.192" y="38.096" width="6" height="10.404" fill="#385b60"/>
      <rect x="36.192" y="38.096" width="6" height="10.404" fill="#385b60"/>
      <rect x="48.192" y="38.096" width="6" height="10.404" fill="#385b60"/>
      <rect x="12.5" y="79" width="103" height="10.904" fill="#385b60"/>
      <rect x="6.5" y="44.096" width="115" height="39.808" rx="3" fill="#537980"/>
    </g>
    <g>
      <path d="M22.5,88.15H14.25v-2.5H90.875a1.75,1.75,0,0,0,0-3.5H12.539c-.013,0-.026,0-.039,0s-.026,0-.039,0H9.5A1.251,1.251,0,0,1,8.25,80.9V47.1a1.251,1.251,0,0,1,1.25-1.25h1a1.75,1.75,0,0,0,0-3.5h-1A4.756,4.756,0,0,0,4.75,47.1V80.9a4.756,4.756,0,0,0,4.75,4.75h1.25V89.9a1.75,1.75,0,0,0,1.75,1.75h10a1.75,1.75,0,0,0,0-3.5Z" fill="#061720"/>
      <path d="M34.25,88.15H29.191a1.75,1.75,0,0,0,0,3.5H34.25a1.75,1.75,0,0,0,0-3.5Z" fill="#061720"/>
      <path d="M118.5,42.346H105.56V41.1a4.755,4.755,0,0,0-4.75-4.75H86.9a4.755,4.755,0,0,0-4.75,4.75v1.246H55.94V38.1a1.75,1.75,0,0,0-1.75-1.75h-6a1.75,1.75,0,0,0-1.75,1.75v4.246h-2.5V38.1a1.75,1.75,0,0,0-1.75-1.75h-6a1.75,1.75,0,0,0-1.75,1.75v4.246h-2.5V38.1a1.75,1.75,0,0,0-1.75-1.75h-6a1.75,1.75,0,0,0-1.75,1.75v4.246H20.625a1.75,1.75,0,0,0,0,3.5H118.5a1.251,1.251,0,0,1,1.25,1.25V80.9a1.251,1.251,0,0,1-1.25,1.25h-2.961c-.013,0-.026,0-.039,0s-.026,0-.039,0H100.75a1.75,1.75,0,0,0,0,3.5h13v2.5H41.333a1.75,1.75,0,0,0,0,3.5H115.5a1.75,1.75,0,0,0,1.75-1.75V85.654h1.25a4.756,4.756,0,0,0,4.75-4.75V47.1A4.756,4.756,0,0,0,118.5,42.346ZM85.65,41.1a1.25,1.25,0,0,1,1.25-1.25h13.91a1.25,1.25,0,0,1,1.25,1.25v1.246H85.65ZM49.94,39.85h2.5v2.5h-2.5Zm-12,0h2.5v2.5h-2.5Zm-12,0h2.5v2.5h-2.5Z" fill="#061720"/>
      <path d="M117.25,72.706V66.833a1.75,1.75,0,0,0-3.5,0v5.873a1.75,1.75,0,1,0,3.5,0Z" fill="#061720"/>
      <path d="M38.185,63.988c0-5.094-3.135-8.694-7.568-8.694s-7.543,3.6-7.543,8.694c0,5.118,3.111,8.718,7.543,8.718S38.185,69.106,38.185,63.988Zm-11.413,0c0-3.16,1.592-5.413,3.845-5.413,2.278,0,3.845,2.253,3.845,5.413s-1.567,5.437-3.845,5.437C28.364,69.425,26.772,67.147,26.772,63.988Z" fill="#061720"/>
      <path d="M42.587,67.906c0,3.037,3.037,4.8,6.76,4.8,3.7,0,6.759-1.738,6.759-4.8,0-1.935-1.323-3.4-3.306-4.187a4.158,4.158,0,0,0,2.889-3.846c0-2.889-2.987-4.579-6.342-4.579-3.282,0-6.319,1.616-6.319,4.579a4.121,4.121,0,0,0,2.866,3.846A4.564,4.564,0,0,0,42.587,67.906Zm6.76-9.576c1.616,0,2.742.858,2.742,2.009,0,1.249-1.42,2.032-2.742,2.13-1.323-.1-2.719-.833-2.719-2.13C46.628,59.188,47.73,58.33,49.347,58.33Zm0,6.98c1.445.049,3.11.882,3.11,2.2,0,1.274-1.323,2.155-3.11,2.155s-3.086-.881-3.086-2.155C46.261,66.192,47.9,65.359,49.347,65.31Z" fill="#061720"/>
      <path d="M63.032,63.865a2.229,2.229,0,1,0-2.278-2.277A2.273,2.273,0,0,0,63.032,63.865Z" fill="#061720"/>
      <path d="M63.032,72.706a2.229,2.229,0,1,0-2.278-2.278A2.274,2.274,0,0,0,63.032,72.706Z" fill="#061720"/>
      <path d="M85.192,63.988c0-5.094-3.134-8.694-7.567-8.694s-7.543,3.6-7.543,8.694c0,5.118,3.11,8.718,7.543,8.718S85.192,69.106,85.192,63.988Zm-11.412,0c0-3.16,1.592-5.413,3.845-5.413,2.278,0,3.845,2.253,3.845,5.413s-1.567,5.437-3.845,5.437C75.372,69.425,73.78,67.147,73.78,63.988Z" fill="#061720"/>
      <path d="M97.358,72.706c4.433,0,7.568-3.6,7.568-8.718,0-5.094-3.135-8.694-7.568-8.694s-7.543,3.6-7.543,8.694C89.815,69.106,92.926,72.706,97.358,72.706Zm0-14.131c2.278,0,3.846,2.253,3.846,5.413s-1.568,5.437-3.846,5.437c-2.253,0-3.844-2.278-3.844-5.437S95.105,58.575,97.358,58.575Z" fill="#061720"/>
    </g>
  </g>
</svg>
