<svg xmlns="http://www.w3.org/2000/svg" width="128" height="128" viewBox="0 0 128 128">
  <title>DOOR</title>
  <g>
    <g>
      <rect x="24.192" y="6.5" width="79.615" height="113.125" fill="#663325"/>
      <rect x="11.875" y="30.817" width="104.25" height="67.615" transform="translate(128.625 0.625) rotate(90)" fill="#f2a66c"/>
      <rect x="52" y="8.692" width="24" height="49.615" transform="translate(97.5 -30.5) rotate(90)" fill="#ededf9"/>
      <path d="M18.331,115.5h91.338a3,3,0,0,1,3,3v3a0,0,0,0,1,0,0H15.331a0,0,0,0,1,0,0v-3A3,3,0,0,1,18.331,115.5Z" fill="#4f2217"/>
      <circle cx="42.192" cy="70.625" r="3" fill="#ededf9"/>
    </g>
    <g>
      <path d="M97.81,91.241a1.75,1.75,0,0,0-1.75,1.75v4.5a1.75,1.75,0,0,0,3.5,0v-4.5A1.75,1.75,0,0,0,97.81,91.241Z" fill="#061720"/>
      <path d="M53.5,45.5a1.75,1.75,0,0,0,1.75,1.75H88.808a1.75,1.75,0,0,0,1.75-1.75v-24a1.75,1.75,0,0,0-1.75-1.75H39.192a1.75,1.75,0,0,0-1.75,1.75v24a1.75,1.75,0,0,0,1.75,1.75H45.75a1.75,1.75,0,0,0,0-3.5H40.942V23.25H87.058v20.5H55.25A1.75,1.75,0,0,0,53.5,45.5Z" fill="#061720"/>
      <path d="M76.833,41.25a1.75,1.75,0,0,0,0-3.5H70.75a1.75,1.75,0,0,0,0,3.5Z" fill="#061720"/>
      <path d="M109.669,113.75H105.56V6.5a1.75,1.75,0,0,0-1.75-1.75H24.19A1.75,1.75,0,0,0,22.44,6.5V73.625a1.75,1.75,0,0,0,3.5,0V8.25h76.12v105.5h-2.5v-10.5a1.75,1.75,0,0,0-3.5,0v10.5H31.94V14.25H96.06V87.583a1.75,1.75,0,0,0,3.5,0V12.5a1.75,1.75,0,0,0-1.75-1.75H30.19a1.75,1.75,0,0,0-1.75,1.75V113.75h-2.5V82.5a1.75,1.75,0,0,0-3.5,0v31.25H18.331a4.756,4.756,0,0,0-4.75,4.75v3a1.75,1.75,0,0,0,1.75,1.75h97.338a1.75,1.75,0,0,0,1.75-1.75v-3A4.756,4.756,0,0,0,109.669,113.75Zm1.25,6H17.081V118.5a1.252,1.252,0,0,1,1.25-1.25h91.338a1.252,1.252,0,0,1,1.25,1.25Z" fill="#061720"/>
      <path d="M42.192,65.875a4.75,4.75,0,1,0,4.75,4.75A4.756,4.756,0,0,0,42.192,65.875Zm0,6a1.25,1.25,0,1,1,1.25-1.25A1.252,1.252,0,0,1,42.192,71.875Z" fill="#061720"/>
    </g>
  </g>
</svg>
