<svg xmlns="http://www.w3.org/2000/svg" width="128" height="128" viewBox="0 0 128 128">
  <title>DRESSING TABLE</title>
  <g>
    <g>
      <path d="M55.25,8.5h41.5a0,0,0,0,1,0,0V70a0,0,0,0,1,0,0H55.25a24,24,0,0,1-24-24V32.5A24,24,0,0,1,55.25,8.5Z" transform="translate(103.25 -24.75) rotate(90)" fill="#f2a66c"/>
      <path d="M55.25,14.5h35.5a0,0,0,0,1,0,0V64a0,0,0,0,1,0,0H55.25a18,18,0,0,1-18-18V32.5A18,18,0,0,1,55.25,14.5Z" transform="translate(103.25 -24.75) rotate(90)" fill="#ededf9"/>
      <g>
        <polygon points="94.808 121.5 88.808 121.5 84.724 72 94.808 72 94.808 121.5" fill="#663325"/>
        <polygon points="33.192 121.5 39.192 121.5 43.276 72 33.192 72 33.192 121.5" fill="#663325"/>
      </g>
      <path d="M27.192,68.5h73.615a0,0,0,0,1,0,0V76a3,3,0,0,1-3,3H30.192a3,3,0,0,1-3-3V68.5A0,0,0,0,1,27.192,68.5Z" fill="#4f2217"/>
      <rect x="24.192" y="64" width="79.615" height="9" fill="#663325"/>
    </g>
    <g>
      <path d="M82.75,45.75A1.749,1.749,0,0,0,81,47.5v5.083a1.75,1.75,0,0,0,3.5,0V47.5A1.749,1.749,0,0,0,82.75,45.75Z" fill="#061720"/>
      <path d="M33.19,106.167a1.75,1.75,0,0,0,1.75-1.75V101a1.75,1.75,0,0,0-3.5,0v3.417A1.75,1.75,0,0,0,33.19,106.167Z" fill="#061720"/>
      <path d="M103.808,62.25H96.5V43.167a1.75,1.75,0,0,0-3.5,0V62.25H90.5V30.5A19.771,19.771,0,0,0,70.75,10.75H57.25A19.772,19.772,0,0,0,37.5,30.5V62.25H35V30.5A22.275,22.275,0,0,1,57.25,8.25h13.5A22.275,22.275,0,0,1,93,30.5v3.507a1.75,1.75,0,1,0,3.5,0V30.5A25.78,25.78,0,0,0,70.75,4.75H57.25A25.779,25.779,0,0,0,31.5,30.5V62.25H24.192A1.75,1.75,0,0,0,22.442,64v9a1.75,1.75,0,0,0,1.75,1.75H25.44V76a4.756,4.756,0,0,0,4.75,4.75h1.25V94.833a1.75,1.75,0,0,0,3.5,0V80.75H40.8l-3.221,39H34.94V110a1.75,1.75,0,0,0-3.5,0v11.5a1.75,1.75,0,0,0,1.75,1.75h6a1.749,1.749,0,0,0,1.744-1.605L44.312,80.75H68.243a1.75,1.75,0,0,0,0-3.5H30.19A1.251,1.251,0,0,1,28.94,76V74.75H99.06V76a1.252,1.252,0,0,1-1.25,1.25H78.5a1.75,1.75,0,0,0,0,3.5h5.188l3.377,40.894a1.75,1.75,0,0,0,1.745,1.606h6a1.75,1.75,0,0,0,1.75-1.75V80.75h1.25A4.756,4.756,0,0,0,102.56,76V74.75h1.248a1.75,1.75,0,0,0,1.75-1.75V64A1.75,1.75,0,0,0,103.808,62.25ZM93.06,119.75H90.421l-3.221-39h5.86ZM41,30.5A16.269,16.269,0,0,1,57.25,14.25h13.5A16.269,16.269,0,0,1,87,30.5V62.25H41ZM25.942,65.75h76.116v5.5H25.942Z" fill="#061720"/>
      <path d="M55.6,40.637,66.387,29.853a1.75,1.75,0,1,0-2.475-2.475L53.128,38.162A1.75,1.75,0,0,0,55.6,40.637Z" fill="#061720"/>
      <path d="M73.723,28.527a1.751,1.751,0,0,0-2.475,0L54.277,45.5a1.75,1.75,0,0,0,2.475,2.475L73.723,31A1.751,1.751,0,0,0,73.723,28.527Z" fill="#061720"/>
      <path d="M72.4,35.863,61.614,46.647a1.75,1.75,0,1,0,2.474,2.475L74.872,38.338A1.75,1.75,0,1,0,72.4,35.863Z" fill="#061720"/>
    </g>
  </g>
</svg>
