<svg xmlns="http://www.w3.org/2000/svg" width="128" height="128" viewBox="0 0 128 128">
  <title>FAN</title>
  <g>
    <g>
      <polygon points="76 117.833 52 117.833 56.438 77.5 71.562 77.5 76 117.833" fill="#e4ffff"/>
      <circle cx="64" cy="46.308" r="39.808" fill="#385b60"/>
      <circle cx="64" cy="46.308" r="33.808" fill="#537980"/>
      <path d="M74.744,30.015A46.666,46.666,0,0,1,66.88,45.75h-5.5c-.074-4.316-2.108-12.022-5.293-18.544a5.977,5.977,0,0,1,4.691-8.52,27.959,27.959,0,0,1,6.343-.011A8.975,8.975,0,0,1,74.744,30.015Z" fill="#e4ffff"/>
      <path d="M44.518,45.149a46.68,46.68,0,0,1,17.559-1.057l2.75,4.764c-3.7,2.222-9.357,7.836-13.413,13.856a5.977,5.977,0,0,1-9.724.2,28.005,28.005,0,0,1-3.182-5.488A8.977,8.977,0,0,1,44.518,45.149Z" fill="#e4ffff"/>
      <path d="M72.738,63.759a46.665,46.665,0,0,1-9.695-14.678l2.75-4.763C69.568,46.411,77.258,48.5,84.5,49.005a5.978,5.978,0,0,1,5.033,8.324,27.962,27.962,0,0,1-3.162,5.5A8.975,8.975,0,0,1,72.738,63.759Z" fill="#e4ffff"/>
      <circle cx="64" cy="46.308" r="10.5" fill="#3ea7fb"/>
      <circle cx="64" cy="46.308" r="4.5" fill="#0f89cc"/>
      <g>
        <path d="M76,106.5h0a3,3,0,0,1,3,3v5.125a0,0,0,0,1,0,0H73a0,0,0,0,1,0,0V109.5a3,3,0,0,1,3-3Z" fill="#537980"/>
        <path d="M64,106.5h0a3,3,0,0,1,3,3v5.125a0,0,0,0,1,0,0H61a0,0,0,0,1,0,0V109.5A3,3,0,0,1,64,106.5Z" fill="#537980"/>
        <path d="M52,106.5h0a3,3,0,0,1,3,3v5.125a0,0,0,0,1,0,0H49a0,0,0,0,1,0,0V109.5A3,3,0,0,1,52,106.5Z" fill="#537980"/>
      </g>
      <path d="M92.75,121.5H35.25l1-2.917a9,9,0,0,1,8.515-6.083H83.236a9,9,0,0,1,8.515,6.083Z" fill="#385b60"/>
    </g>
    <g>
      <path d="M60,100c.065.006.13.01.193.01A1.751,1.751,0,0,0,61.93,98.45l.509-4.633a1.749,1.749,0,1,0-3.478-.382l-.51,4.632A1.751,1.751,0,0,0,60,100Z" fill="#061720"/>
      <path d="M40.081,80.3a1.733,1.733,0,0,0,1.006.32,1.749,1.749,0,0,0,1.01-3.18,38.663,38.663,0,0,1-3.187-2.51A1.75,1.75,0,1,0,36.6,77.556,41.66,41.66,0,0,0,40.081,80.3Z" fill="#061720"/>
      <path d="M64,81.865A35.558,35.558,0,1,0,28.442,46.308,35.6,35.6,0,0,0,64,81.865ZM64,14.25A32.058,32.058,0,1,1,31.942,46.308,32.094,32.094,0,0,1,64,14.25Z" fill="#061720"/>
      <path d="M85.762,43.706A1.75,1.75,0,0,0,87.5,45.25a1.84,1.84,0,0,0,.208-.012,1.751,1.751,0,0,0,1.532-1.944,25.488,25.488,0,0,0-7.067-14.738A1.75,1.75,0,0,0,79.669,31,21.684,21.684,0,0,1,85.762,43.706Z" fill="#061720"/>
      <path d="M79.567,42.979a1.752,1.752,0,0,0,1.711,1.392,1.786,1.786,0,0,0,.361-.038,1.75,1.75,0,0,0,1.354-2.072,18.866,18.866,0,0,0-2.722-6.532,1.749,1.749,0,1,0-2.923,1.922A15.394,15.394,0,0,1,79.567,42.979Z" fill="#061720"/>
      <path d="M40.755,41.6a1.749,1.749,0,0,0,2.157-1.214,21.681,21.681,0,0,1,7.954-11.628,1.75,1.75,0,0,0-2.095-2.8,25.492,25.492,0,0,0-9.23,13.489A1.751,1.751,0,0,0,40.755,41.6Z" fill="#061720"/>
      <path d="M46.7,37.5a1.75,1.75,0,1,0,3.127,1.573,15.421,15.421,0,0,1,3.5-4.586A1.75,1.75,0,0,0,51,31.882,18.924,18.924,0,0,0,46.7,37.5Z" fill="#061720"/>
      <path d="M69.419,67.529a21.667,21.667,0,0,1-14.047-1.074,1.75,1.75,0,1,0-1.381,3.216,25.5,25.5,0,0,0,16.3,1.249,1.75,1.75,0,0,0-.869-3.391Z" fill="#061720"/>
      <path d="M63.907,65.722q.557,0,1.118-.033a1.75,1.75,0,1,0-.2-3.494,15.443,15.443,0,0,1-5.722-.741,1.75,1.75,0,1,0-1.092,3.325A18.846,18.846,0,0,0,63.907,65.722Z" fill="#061720"/>
      <path d="M46.676,67.06a7.572,7.572,0,0,0,6.184-3.371,57.513,57.513,0,0,1,5.269-6.634,12.025,12.025,0,0,0,7.968,1.31,49.755,49.755,0,0,0,5.388,6.614,10.67,10.67,0,0,0,7.666,3.233q.369,0,.74-.025a10.681,10.681,0,0,0,7.889-4.32,31.268,31.268,0,0,0,1.811-2.773,27.887,27.887,0,0,0,1.546-3.07,7.745,7.745,0,0,0-.5-7.09,7.572,7.572,0,0,0-6.014-3.67c-.747-.051-1.5-.119-2.251-.205a1.75,1.75,0,1,0-.394,3.478c.8.091,1.609.165,2.407.219a4.118,4.118,0,0,1,3.264,2,4.19,4.19,0,0,1,.278,3.887,24.477,24.477,0,0,1-1.354,2.688,27.617,27.617,0,0,1-1.607,2.463A7.225,7.225,0,0,1,74,62.54a46.492,46.492,0,0,1-4.447-5.325,12.221,12.221,0,0,0,3.845-18.757A49.566,49.566,0,0,0,76.424,30.5,10.73,10.73,0,0,0,67.308,16.93a29.92,29.92,0,0,0-6.729.022,7.743,7.743,0,0,0-5.89,3.978,7.581,7.581,0,0,0-.171,7.048,57.956,57.956,0,0,1,3.112,7.886,12.291,12.291,0,0,0-5.123,6.245,48.509,48.509,0,0,0-8.416,1.344A10.72,10.72,0,0,0,36.9,58.113a29.974,29.974,0,0,0,3.383,5.842,7.74,7.74,0,0,0,6.206,3.108ZM64,55.058a8.75,8.75,0,1,1,8.75-8.75A8.76,8.76,0,0,1,64,55.058ZM57.662,26.441a4.121,4.121,0,0,1,.1-3.832,4.187,4.187,0,0,1,3.233-2.182,26.261,26.261,0,0,1,5.93-.018,7.23,7.23,0,0,1,6.134,9.134,46.234,46.234,0,0,1-2.386,6.5,12.085,12.085,0,0,0-9.808-1.567A60.973,60.973,0,0,0,57.662,26.441ZM43.094,61.865a26.524,26.524,0,0,1-2.981-5.147,7.222,7.222,0,0,1,4.836-9.872,44.894,44.894,0,0,1,6.833-1.177c-.011.213-.032.423-.032.639a12.211,12.211,0,0,0,3.568,8.632,61.048,61.048,0,0,0-5.36,6.793,4.12,4.12,0,0,1-3.365,1.828A4.163,4.163,0,0,1,43.094,61.865Z" fill="#061720"/>
      <path d="M64,40.058a6.25,6.25,0,1,0,6.25,6.25A6.257,6.257,0,0,0,64,40.058Zm0,9a2.75,2.75,0,1,1,2.75-2.75A2.753,2.753,0,0,1,64,49.058Z" fill="#061720"/>
      <path d="M93.406,118.016a10.751,10.751,0,0,0-10.17-7.266H80.75V109.5a4.741,4.741,0,0,0-4.427-4.717l-2-18.215A41.562,41.562,0,1,0,31.765,72.537a1.75,1.75,0,1,0,2.713-2.211A38.059,38.059,0,1,1,64,84.365a37.668,37.668,0,0,1-16.829-3.913A1.75,1.75,0,1,0,45.62,83.59a41.185,41.185,0,0,0,8.063,2.974l-2.006,18.219A4.741,4.741,0,0,0,47.25,109.5v1.25H44.764a10.751,10.751,0,0,0-10.17,7.266l-1,2.917a1.749,1.749,0,0,0,1.655,2.317H70.583a1.75,1.75,0,0,0,0-3.5H37.7l.205-.6a7.253,7.253,0,0,1,6.86-4.9H83.236a7.253,7.253,0,0,1,6.86,4.9l.2.6H80.833a1.75,1.75,0,0,0,0,3.5H92.75a1.749,1.749,0,0,0,1.655-2.317ZM77.25,109.5v1.25h-2.5V109.5a1.25,1.25,0,0,1,2.5,0ZM64,87.865a41.673,41.673,0,0,0,6.876-.579l2.05,18.623A4.719,4.719,0,0,0,71.25,109.5v1.25h-2.5V109.5a4.75,4.75,0,0,0-9.5,0v1.25h-2.5V109.5a4.719,4.719,0,0,0-1.676-3.591L57.123,87.3A41.923,41.923,0,0,0,64,87.865Zm1.25,22.885h-2.5V109.5a1.25,1.25,0,0,1,2.5,0Zm-14.5-1.25a1.25,1.25,0,0,1,2.5,0v1.25h-2.5Z" fill="#061720"/>
    </g>
  </g>
</svg>
