<svg xmlns="http://www.w3.org/2000/svg" width="128" height="128" viewBox="0 0 128 128">
  <title>FIREPLACE</title>
  <g>
    <g>
      <rect x="21.331" y="39.25" width="85.338" height="79.25" transform="translate(128 157.75) rotate(180)" fill="#f2a66c"/>
      <path d="M92.5,86.5v32h-57v-32a28.5,28.5,0,0,1,57,0Z" fill="#dddde3"/>
      <path d="M86.5,86.5v32h-45v-32a22.5,22.5,0,0,1,45,0Z" fill="#ededf9"/>
      <rect x="21.331" y="9.5" width="85.338" height="21.885" transform="translate(128 40.885) rotate(180)" fill="#4f2217"/>
      <path d="M18.331,115.5h91.338a3,3,0,0,1,3,3v3a0,0,0,0,1,0,0H15.331a0,0,0,0,1,0,0v-3A3,3,0,0,1,18.331,115.5Z" fill="#663325"/>
      <rect x="18.331" y="32.167" width="91.338" height="9.718" fill="#4f2217"/>
      <rect x="18.331" y="6.5" width="91.338" height="6" fill="#663325"/>
      <rect x="15.331" y="26.885" width="97.338" height="9" fill="#663325"/>
      <path d="M63.06,109.5c-5.449,0-11.726-6.553-5.587-16.21S63.75,82.667,63.75,82.667A20.017,20.017,0,0,1,68.51,94.6c1.655-.483,3.407-3.35,3.407-3.35C75.78,99.183,74.1,109.5,63.06,109.5Z" fill="#f5502f"/>
      <path d="M64.906,109.5c2.234,0,4.807-2.686,2.29-6.645S64.623,98.5,64.623,98.5a8.207,8.207,0,0,0-1.951,4.892c-.679-.2-2.168-1.934-2.168-1.934C58.833,105.292,60.381,109.5,64.906,109.5Z" fill="#d63922"/>
    </g>
    <g>
      <path d="M100.669,61.583a1.75,1.75,0,0,0,1.75-1.75V54.917a1.75,1.75,0,0,0-3.5,0v4.916A1.75,1.75,0,0,0,100.669,61.583Z" fill="#061720"/>
      <path d="M35.5,103.75A1.75,1.75,0,0,0,37.25,102V97.5a1.75,1.75,0,0,0-3.5,0V102A1.75,1.75,0,0,0,35.5,103.75Z" fill="#061720"/>
      <path d="M109.67,43.63a1.75,1.75,0,0,0,1.75-1.75V37.635h1.249a1.75,1.75,0,0,0,1.75-1.75v-9a1.75,1.75,0,0,0-1.75-1.75H108.42V14.25h1.249a1.75,1.75,0,0,0,1.75-1.75v-6a1.75,1.75,0,0,0-1.75-1.75h-66.5a1.75,1.75,0,0,0,0,3.5h64.752v2.5H20.081V8.25H33.5a1.75,1.75,0,0,0,0-3.5H18.331a1.75,1.75,0,0,0-1.75,1.75v6a1.75,1.75,0,0,0,1.75,1.75H19.58V25.135H15.331a1.75,1.75,0,0,0-1.75,1.75v9a1.75,1.75,0,0,0,1.75,1.75H16.58V41.88a1.75,1.75,0,0,0,1.75,1.75h1.25v70.12H18.331a4.756,4.756,0,0,0-4.75,4.75v3a1.75,1.75,0,0,0,1.75,1.75h97.338a1.75,1.75,0,0,0,1.75-1.75v-3a4.756,4.756,0,0,0-4.75-4.75H108.42V43.63ZM23.08,14.25h81.84V25.135H23.08Zm67.8,23.385a1.75,1.75,0,0,0,0-3.5H17.081v-5.5h93.838v5.5h-10.25a1.75,1.75,0,0,0,0,3.5h7.251v2.5H20.08v-2.5ZM110.919,118.5v1.25H17.081V118.5a1.252,1.252,0,0,1,1.25-1.25h91.338A1.252,1.252,0,0,1,110.919,118.5ZM84.75,113.75H43.25V86.5a20.75,20.75,0,0,1,41.5,0Zm20.17,0H94.25V86.5a30.25,30.25,0,0,0-60.5,0v5.083a1.75,1.75,0,0,0,3.5,0V86.5a26.75,26.75,0,0,1,53.5,0v27.25h-2.5V86.5a24.25,24.25,0,0,0-48.5,0v27.25h-2.5v-6.083a1.75,1.75,0,0,0-3.5,0v6.083H23.08V43.63h81.84Z" fill="#061720"/>
      <path d="M72,89.5a1.751,1.751,0,0,0-1.577.836c-.17.278-.373.572-.591.859a21.829,21.829,0,0,0-4.757-9.673,1.749,1.749,0,0,0-3,.648c-.11.27-.931,2.086-6.076,10.18-4.215,6.629-2.764,11.409-1.523,13.668a10.007,10.007,0,0,0,8.588,5.23c.4,0,.78-.013,1.152-.036.228.018.456.036.693.036a4.866,4.866,0,0,0,1.982-.434,10.731,10.731,0,0,0,6.8-4.76c2.559-4.093,2.481-10.06-.2-15.573A1.75,1.75,0,0,0,72,89.5Zm-8.289,15.29a1.765,1.765,0,0,0,.711-1.386,5.809,5.809,0,0,1,.229-1.315c.3.486.653,1.05,1.068,1.7.776,1.221.969,2.318.544,3.093a1.666,1.666,0,0,1-.592.616,12,12,0,0,1-1.362.2,2.858,2.858,0,0,1-2.17-1.222,3.474,3.474,0,0,1-.526-1.653,2.6,2.6,0,0,0,.571.25A1.743,1.743,0,0,0,63.711,104.792Zm7.014-.592a7.014,7.014,0,0,1-.786,1.014,7.984,7.984,0,0,0-1.266-3.3c-1.9-2.983-2.319-3.824-2.4-3.99a1.749,1.749,0,0,0-2.978-.569,9.731,9.731,0,0,0-1.667,2.762,1.751,1.751,0,0,0-2.731.64,9.064,9.064,0,0,0-.754,4.47,6.464,6.464,0,0,1-.605-.894c-1.5-2.73-1-6.318,1.409-10.106,2.572-4.046,4.124-6.612,5.063-8.255A18.468,18.468,0,0,1,66.76,94.6,1.749,1.749,0,0,0,69,96.28a6.02,6.02,0,0,0,2.4-1.558C72.447,98.263,72.234,101.786,70.725,104.2Z" fill="#061720"/>
    </g>
  </g>
</svg>
