<svg xmlns="http://www.w3.org/2000/svg" width="128" height="128" viewBox="0 0 128 128">
  <title>HANGER</title>
  <g>
    <path d="M73.021,67.638l-2.115-10.49a3,3,0,0,0-2.941-2.407H60.877a3,3,0,0,0-2.941,2.408L55.9,67.248,6.5,88.151l1.171,2.767A3,3,0,0,0,11.6,92.512L64,70.341l52.4,22.171a3,3,0,0,0,3.932-1.594l1.171-2.767Z" fill="#663325"/>
    <g>
      <path d="M72.479,64.953a1.751,1.751,0,0,0-1.37,2.061l.2.97a1.75,1.75,0,0,0,1.034,1.266l30.817,13.04a1.75,1.75,0,0,0,1.364-3.224L74.554,66.387l-.013-.064A1.744,1.744,0,0,0,72.479,64.953Z" fill="#061720"/>
      <path d="M122.182,86.54,113,82.654a1.75,1.75,0,1,0-1.363,3.223l7.57,3.2-.488,1.156a1.25,1.25,0,0,1-1.639.663l-52.4-22.171a1.754,1.754,0,0,0-1.364,0l-18.439,7.8a1.75,1.75,0,1,0,1.363,3.223L64,72.242,103.18,88.82H24.82L32.9,85.4a1.75,1.75,0,1,0-1.363-3.223L10.921,90.9a1.249,1.249,0,0,1-1.639-.664l-.488-1.155L56.582,68.86a1.748,1.748,0,0,0,1.034-1.266l2.035-10.1a1.255,1.255,0,0,1,1.226-1h7.089a1.252,1.252,0,0,1,1.224,1l.3,1.476a1.751,1.751,0,0,0,3.432-.692l-.3-1.476a4.764,4.764,0,0,0-4.656-3.812H65.75V49.73a1.273,1.273,0,0,1,.855-1.181,7.753,7.753,0,0,0-.961-14.883,7.814,7.814,0,0,0-6.539,1.573A7.725,7.725,0,0,0,56.25,41.25a1.75,1.75,0,0,0,3.5,0,4.254,4.254,0,1,1,5.679,4A4.783,4.783,0,0,0,62.25,49.73v3.261H60.877A4.765,4.765,0,0,0,56.22,56.8L54.367,66,5.818,86.54a1.748,1.748,0,0,0-.929,2.293L6.06,91.6a4.74,4.74,0,0,0,6.224,2.524l4.264-1.8h94.9l4.264,1.8A4.75,4.75,0,0,0,121.94,91.6l1.171-2.768A1.749,1.749,0,0,0,122.182,86.54Z" fill="#061720"/>
      <path d="M39.513,78.8l-3.2,1.356a1.75,1.75,0,1,0,1.363,3.224l3.2-1.356A1.75,1.75,0,0,0,39.513,78.8Z" fill="#061720"/>
    </g>
  </g>
</svg>
