<svg xmlns="http://www.w3.org/2000/svg" width="128" height="128" viewBox="0 0 128 128">
  <title>HEADPHONES</title>
  <g>
    <g>
      <path d="M108.863,86.75l1.362-14.7a46.423,46.423,0,1,0-92.45,0l1.362,14.7-5.47,6L11.8,72.6A52.422,52.422,0,0,1,64,15.346h0A52.422,52.422,0,0,1,116.2,72.6L114.333,92.75Z" fill="#0f89cc"/>
      <path d="M110.641,89.582h7.5a3,3,0,0,1,3,3v6a3,3,0,0,1-3,3h-7.5a0,0,0,0,1,0,0v-12A0,0,0,0,1,110.641,89.582Z" transform="translate(12.891 -13.769) rotate(7.199)" fill="#e4ffff"/>
      <path d="M94.441,77.281h8.788a12,12,0,0,1,12,12v9.808a12,12,0,0,1-12,12H94.441a0,0,0,0,1,0,0V77.281A0,0,0,0,1,94.441,77.281Z" transform="matrix(0.992, 0.125, -0.125, 0.992, 12.629, -12.394)" fill="#3ea7fb"/>
      <path d="M91.523,72.979h3a3,3,0,0,1,3,3v33.808a3,3,0,0,1-3,3h-3a0,0,0,0,1,0,0V72.979a0,0,0,0,1,0,0Z" transform="translate(12.384 -11.112) rotate(7.199)" fill="#e4ffff"/>
      <path d="M6.859,89.582h7.5a3,3,0,0,1,3,3v6a3,3,0,0,1-3,3h-7.5a0,0,0,0,1,0,0v-12a0,0,0,0,1,0,0Z" transform="translate(36.099 188.893) rotate(172.801)" fill="#e4ffff"/>
      <path d="M12.771,77.281h8.788a12,12,0,0,1,12,12v9.808a12,12,0,0,1-12,12H12.771a0,0,0,0,1,0,0V77.281a0,0,0,0,1,0,0Z" transform="translate(57.949 184.726) rotate(172.801)" fill="#3ea7fb"/>
      <path d="M30.477,72.979h3a3,3,0,0,1,3,3v33.808a3,3,0,0,1-3,3h-3a0,0,0,0,1,0,0V72.979a0,0,0,0,1,0,0Z" transform="matrix(-0.992, 0.125, -0.125, -0.992, 78.329, 180.839)" fill="#e4ffff"/>
      <path d="M110.59,43.726l-4.768,3.154a6,6,0,0,1-8.286-1.668A40.412,40.412,0,0,0,34.13,40.536a40.112,40.112,0,0,0-3.667,4.672,5.993,5.993,0,0,1-8.287,1.67L17.41,43.726a52.432,52.432,0,0,1,93.18,0Z" fill="#3ea7fb"/>
    </g>
    <g>
      <path d="M114.57,64.354c.073,1.106.11,2.232.11,3.346a1.75,1.75,0,0,0,3.5,0c0-1.19-.039-2.393-.118-3.575a1.75,1.75,0,1,0-3.492.229Z" fill="#061720"/>
      <path d="M119.1,88.174l-1.541-.193a13.622,13.622,0,0,0-.71-3.347l1.1-11.873a1.749,1.749,0,1,0-3.484-.323l-.663,7.177a13.723,13.723,0,0,0-2.341-1.952l.508-5.45a48.078,48.078,0,0,0-4.19-24.525l2.127-1.407a50.084,50.084,0,0,1,4.015,12.646,1.75,1.75,0,1,0,3.447-.608A54.232,54.232,0,0,0,64,13.6,54.16,54.16,0,0,0,10.058,72.761l1.1,11.873a13.622,13.622,0,0,0-.71,3.347L8.9,88.175a4.771,4.771,0,0,0-4.114,5.306l.76,5.951a4.756,4.756,0,0,0,4.725,4.16,4.988,4.988,0,0,0,.581-.035l1.54-.194A13.734,13.734,0,0,0,25.333,112.6a13.819,13.819,0,0,0,1.765-.113l4.339-.544a4.736,4.736,0,0,0,4.753,2.424l2.977-.376a1.752,1.752,0,0,0,1.517-1.956l-.884-7a1.75,1.75,0,1,0-3.473.44l.665,5.259-1.241.157a1.248,1.248,0,0,1-1.395-1.081h0v-.006L30.119,76.269a1.249,1.249,0,0,1,1.083-1.4l1.24-.157L35.23,96.8a1.75,1.75,0,1,0,3.473-.44L35.7,72.54a1.748,1.748,0,0,0-.664-1.163,1.77,1.77,0,0,0-1.292-.354l-2.976.376a4.732,4.732,0,0,0-4,3.53l-4.342.545a13.842,13.842,0,0,0-2.512.562l-.387-4.149a44.576,44.576,0,0,1,3.836-22.569,7.753,7.753,0,0,0,8.558-3.134,38.263,38.263,0,0,1,3.507-4.468,1.75,1.75,0,1,0-2.586-2.36,41.912,41.912,0,0,0-3.827,4.876,4.257,4.257,0,0,1-5.869,1.186l-3.43-2.268a50.674,50.674,0,0,1,88.578,0l-3.434,2.271a4.258,4.258,0,0,1-5.867-1.186A42.119,42.119,0,0,0,64,25.6a42.018,42.018,0,0,0-24.214,7.652,1.75,1.75,0,1,0,2.008,2.867,38.653,38.653,0,0,1,50.781,5.6,38.939,38.939,0,0,1,3.509,4.474,7.75,7.75,0,0,0,8.558,3.131,44.587,44.587,0,0,1,3.836,22.569l-.387,4.148a13.853,13.853,0,0,0-2.513-.562l-4.341-.545a4.732,4.732,0,0,0-4-3.53l-2.976-.376a1.771,1.771,0,0,0-1.292.354,1.748,1.748,0,0,0-.664,1.163l-4.989,39.494a1.751,1.751,0,0,0,1.517,1.956l2.977.376a4.738,4.738,0,0,0,4.753-2.424l4.335.544a13.878,13.878,0,0,0,1.768.113,13.734,13.734,0,0,0,12.945-9.236l1.549.2a4.907,4.907,0,0,0,.577.035,4.754,4.754,0,0,0,4.719-4.152l.762-5.97A4.771,4.771,0,0,0,119.1,88.174ZM10.42,100.083A1.264,1.264,0,0,1,9.017,99l-.76-5.949a1.261,1.261,0,0,1,1.08-1.4l1.249-.156,1.066,8.438ZM22.857,78.946l4.009-.5,3.8,30.068-4.006.5a10.237,10.237,0,0,1-11.452-8.884L13.977,90.4a10.247,10.247,0,0,1,8.88-11.454Zm-6.819-6.734.508,5.451a13.677,13.677,0,0,0-2.341,1.952l-.663-7.177A50.46,50.46,0,0,1,18.1,46.283l2.123,1.405A48.086,48.086,0,0,0,16.038,72.212Zm76.211,38.682-1.241-.157,4.55-36.022,1.24.157a1.249,1.249,0,0,1,1.083,1.4l-4.236,33.536v.008h0a1.248,1.248,0,0,1-1.4,1.081Zm16.654-3.94a10.17,10.17,0,0,1-7.565,2.06l-4-.5,3.8-30.068,4.008.5A10.247,10.247,0,0,1,114.023,90.4l-1.229,9.731A10.191,10.191,0,0,1,108.9,106.954Zm10.079-7.946a1.252,1.252,0,0,1-1.393,1.076l-1.241-.156,1.066-8.438,1.243.156a1.258,1.258,0,0,1,1.087,1.392Z" fill="#061720"/>
      <path d="M16.673,91.816l.576,4.565a1.749,1.749,0,0,0,1.734,1.531A1.64,1.64,0,0,0,19.2,97.9a1.751,1.751,0,0,0,1.518-1.955l-.576-4.564a1.75,1.75,0,1,0-3.473.437Z" fill="#061720"/>
    </g>
  </g>
</svg>
