<svg xmlns="http://www.w3.org/2000/svg" width="128" height="128" viewBox="0 0 128 128">
  <title>HOT TEA</title>
  <g>
    <g>
      <path d="M95.74,56.5H79.24v35h16.5a12,12,0,0,0,12-12v-11A12,12,0,0,0,95.74,56.5Zm6,23a6,6,0,0,1-6,6H85.24v-23h10.5a6,6,0,0,1,6,6Z" fill="#d58559"/>
      <path d="M76.707,117.218H36.172A12,12,0,0,1,24.2,106.01L20.262,46.5H92.616L88.68,106.01A12,12,0,0,1,76.707,117.218Z" fill="#f2a66c"/>
      <path d="M87.433,108.336c5.631,2.161,8.539,8.231,8.539,8.231s-6.222,2.566-11.853.405-8.539-8.231-8.539-8.231S81.8,106.175,87.433,108.336Z" fill="#95d70b"/>
      <path d="M93.929,105.8c2.744,5.371.848,11.83.848,11.83s-6.342-2.252-9.086-7.623-.848-11.83-.848-11.83S91.186,100.426,93.929,105.8Z" fill="#90c202"/>
      <path d="M100.674,108.826c-1.836,5.746-7.729,9-7.729,9s-2.918-6.065-1.083-11.811,7.729-9,7.729-9S102.509,103.08,100.674,108.826Z" fill="#95d70b"/>
      <path d="M18.331,115.5h91.338a3,3,0,0,1,3,3v3a0,0,0,0,1,0,0H15.331a0,0,0,0,1,0,0v-3A3,3,0,0,1,18.331,115.5Z" transform="translate(128 237) rotate(180)" fill="#663325"/>
      <polygon points="44.625 73.875 44.625 61.874 40.125 60.125 35.625 61.874 35.625 73.875 44.625 73.875" fill="#663325"/>
    </g>
    <g>
      <path d="M23.552,98c.039,0,.078,0,.117,0A1.75,1.75,0,0,0,25.3,96.138l-.223-3.372a1.75,1.75,0,0,0-3.492.23l.223,3.372A1.749,1.749,0,0,0,23.552,98Z" fill="#061720"/>
      <path d="M85,70.762c.039,0,.078,0,.117,0a1.749,1.749,0,0,0,1.744-1.635l.381-5.767a1.75,1.75,0,0,0-3.492-.23L83.368,68.9A1.751,1.751,0,0,0,85,70.762Z" fill="#061720"/>
      <path d="M40.189,30.5a1.75,1.75,0,0,0,3.5,0,6.068,6.068,0,0,1,.816-3.219A9.509,9.509,0,0,0,45.689,22.5a9.512,9.512,0,0,0-1.184-4.783,6.068,6.068,0,0,1-.816-3.219,6.056,6.056,0,0,1,.816-3.215A9.5,9.5,0,0,0,45.689,6.5a1.75,1.75,0,0,0-3.5,0,6.056,6.056,0,0,1-.815,3.215A9.5,9.5,0,0,0,40.189,14.5a9.507,9.507,0,0,0,1.185,4.783,6.069,6.069,0,0,1,.815,3.219,6.069,6.069,0,0,1-.815,3.219A9.507,9.507,0,0,0,40.189,30.5Z" fill="#061720"/>
      <path d="M49.189,30.5a1.75,1.75,0,0,0,3.5,0,6.068,6.068,0,0,1,.816-3.219A9.509,9.509,0,0,0,54.689,22.5a9.512,9.512,0,0,0-1.184-4.783,6.068,6.068,0,0,1-.816-3.219,6.056,6.056,0,0,1,.816-3.215A9.5,9.5,0,0,0,54.689,6.5a1.75,1.75,0,0,0-3.5,0,6.056,6.056,0,0,1-.815,3.215A9.5,9.5,0,0,0,49.189,14.5a9.507,9.507,0,0,0,1.185,4.783,6.069,6.069,0,0,1,.815,3.219,6.069,6.069,0,0,1-.815,3.219A9.507,9.507,0,0,0,49.189,30.5Z" fill="#061720"/>
      <path d="M58.189,30.5a1.75,1.75,0,0,0,3.5,0,6.068,6.068,0,0,1,.816-3.219A9.509,9.509,0,0,0,63.689,22.5a9.512,9.512,0,0,0-1.184-4.783,6.068,6.068,0,0,1-.816-3.219,6.056,6.056,0,0,1,.816-3.215A9.5,9.5,0,0,0,63.689,6.5a1.75,1.75,0,1,0-3.5,0,6.056,6.056,0,0,1-.815,3.215A9.5,9.5,0,0,0,58.189,14.5a9.507,9.507,0,0,0,1.185,4.783,6.069,6.069,0,0,1,.815,3.219,6.069,6.069,0,0,1-.815,3.219A9.507,9.507,0,0,0,58.189,30.5Z" fill="#061720"/>
      <path d="M67.189,30.5a1.75,1.75,0,0,0,3.5,0,6.068,6.068,0,0,1,.816-3.219A9.509,9.509,0,0,0,72.689,22.5a9.512,9.512,0,0,0-1.184-4.783,6.068,6.068,0,0,1-.816-3.219,6.056,6.056,0,0,1,.816-3.215A9.5,9.5,0,0,0,72.689,6.5a1.75,1.75,0,0,0-3.5,0,6.056,6.056,0,0,1-.815,3.215A9.5,9.5,0,0,0,67.189,14.5a9.507,9.507,0,0,0,1.185,4.783,6.069,6.069,0,0,1,.815,3.219,6.069,6.069,0,0,1-.815,3.219A9.507,9.507,0,0,0,67.189,30.5Z" fill="#061720"/>
      <path d="M112.669,113.75H100.048a15.535,15.535,0,0,0,2.075-3.77,1.75,1.75,0,1,0-3.279-1.222,13.891,13.891,0,0,1-3.432,4.992H93.443a14,14,0,0,1,.083-7.206,14.91,14.91,0,0,1,5.2-6.829c.066.213.131.439.2.68a1.75,1.75,0,0,0,3.381-.905,20.015,20.015,0,0,0-1.141-3.229,1.752,1.752,0,0,0-2.423-.774,21.689,21.689,0,0,0-6.226,5.557A19.229,19.229,0,0,0,90.859,99.6l.42-6.349H95.74A13.765,13.765,0,0,0,109.49,79.5v-11a13.664,13.664,0,0,0-1.082-5.354,1.749,1.749,0,1,0-3.222,1.364,10.184,10.184,0,0,1,.8,3.99v11A10.261,10.261,0,0,1,95.74,89.75H91.511l.165-2.5H95.74a7.759,7.759,0,0,0,7.75-7.75v-11a7.759,7.759,0,0,0-7.75-7.75H93.43l.166-2.5H95.74a10.275,10.275,0,0,1,4.923,1.256,1.75,1.75,0,1,0,1.682-3.07A13.781,13.781,0,0,0,95.74,54.75H93.828l.538-8.135A1.75,1.75,0,0,0,92.62,44.75H20.26a1.749,1.749,0,0,0-1.746,1.865l2.724,41.154a1.75,1.75,0,0,0,3.492-.231L22.13,48.25H38.37V58.93l-3.379,1.313a1.75,1.75,0,0,0-1.116,1.631v12a1.749,1.749,0,0,0,1.75,1.75h9a1.749,1.749,0,0,0,1.75-1.75v-12a1.75,1.75,0,0,0-1.116-1.631L41.87,58.926V48.25H90.75l-3.257,49.2a18.166,18.166,0,0,0-2.066-.932,1.75,1.75,0,0,0-2.267,1.158,21.764,21.764,0,0,0-.541,8.045,21.683,21.683,0,0,0-7.707,1.4A1.749,1.749,0,0,0,74,109.5a21.376,21.376,0,0,0,2.881,4.255H30.512a10.247,10.247,0,0,1-4.566-7.855l-.306-4.636a1.75,1.75,0,0,0-3.493.23l.307,4.633a13.722,13.722,0,0,0,2.937,7.628H15.331a1.749,1.749,0,0,0-1.75,1.75v3a4.756,4.756,0,0,0,4.75,4.75h91.338a4.756,4.756,0,0,0,4.75-4.75v-3A1.749,1.749,0,0,0,112.669,113.75ZM42.875,72.125h-5.5V63.071L40.125,62l2.75,1.068ZM95.74,64.25a4.254,4.254,0,0,1,4.25,4.25v11a4.254,4.254,0,0,1-4.25,4.25H91.908L93.2,64.25Zm-9.61,36.438a16.985,16.985,0,0,1,4.557,3.494c-.181.419-.35.848-.494,1.3a16.164,16.164,0,0,0-.547,6.875,11.864,11.864,0,0,1-2.4-3.148A14.908,14.908,0,0,1,86.13,100.688Zm-7.909,9.066a17.369,17.369,0,0,1,5.251-.5,14.088,14.088,0,0,0,.658,1.535,14.722,14.722,0,0,0,2.012,2.957H81.974A17.305,17.305,0,0,1,78.221,109.754Zm32.7,8.746a1.252,1.252,0,0,1-1.25,1.25H18.331a1.252,1.252,0,0,1-1.25-1.25v-1.25h93.838Z" fill="#061720"/>
    </g>
  </g>
</svg>
