<svg xmlns="http://www.w3.org/2000/svg" width="128" height="128" viewBox="0 0 128 128">
  <title>LAMP</title>
  <g>
    <g>
      <path d="M67,75.195V61H61V75.195c0,7.778-4.125,12.93-4.125,19.555s2.172,17.583,2.172,17.583h9.906s2.172-10.958,2.172-17.583S67,82.973,67,75.195Z" fill="#f2a66c"/>
      <rect x="55" y="109.375" width="18" height="7.875" fill="#663325"/>
      <path d="M85,121.5H43l1.522-4.054A3,3,0,0,1,47.33,115.5H80.67a3,3,0,0,1,2.808,1.946Z" fill="#4f2217"/>
      <circle cx="83.75" cy="78.196" r="3" fill="#663325"/>
      <path d="M81.62,12.5c-.109-1.2-.2-2.279-.259-3.209A2.993,2.993,0,0,0,78.368,6.5H49.632a2.993,2.993,0,0,0-2.993,2.791c-.06.93-.15,2.01-.259,3.209C45.34,23.75,42.11,39.95,35.25,64h57.5C85.89,39.95,82.66,23.75,81.62,12.5Z" fill="#f9d42f"/>
      <path d="M81.62,12.5H46.38c.11-1.2.2-2.28.26-3.21A2.988,2.988,0,0,1,49.63,6.5H78.37a2.988,2.988,0,0,1,2.99,2.79C81.42,10.22,81.51,11.3,81.62,12.5Z" fill="#fb9401"/>
    </g>
    <g>
      <path d="M83.03,23.159a1.751,1.751,0,0,0-1.421,2.027q.27,1.536.579,3.159a1.75,1.75,0,1,0,3.438-.654q-.3-1.6-.569-3.111A1.751,1.751,0,0,0,83.03,23.159Z" fill="#061720"/>
      <path d="M94.433,63.52c-3.285-11.513-5.89-21.8-7.746-30.564a1.75,1.75,0,1,0-3.424.724c1.752,8.276,4.162,17.878,7.173,28.57H37.565c5.725-20.325,9.13-36.062,10.4-48H80.036c.191,1.8.432,3.7.72,5.658a1.75,1.75,0,0,0,3.463-.509c-.365-2.484-.654-4.859-.856-7.058-.108-1.182-.2-2.247-.257-3.163A4.751,4.751,0,0,0,78.368,4.75H49.632a4.75,4.75,0,0,0-4.738,4.427c-.06.917-.149,1.982-.256,3.162C43.5,24.657,39.878,41.4,33.567,63.52a1.751,1.751,0,0,0,1.683,2.23h24V75.2a30.605,30.605,0,0,1-2.093,10.014,47.064,47.064,0,0,0-1.62,5.626,1.751,1.751,0,0,0,1.372,2.06,1.781,1.781,0,0,0,.346.035,1.752,1.752,0,0,0,1.714-1.407,43.253,43.253,0,0,1,1.509-5.2A33.46,33.46,0,0,0,62.75,75.2V65.75h2.5V75.2a33.455,33.455,0,0,0,2.272,11.124A26.534,26.534,0,0,1,69.37,94.75a91.79,91.79,0,0,1-1.36,12.88H59.991c-.4-2.414-.845-5.475-1.116-8.377a1.75,1.75,0,1,0-3.484.325c.258,2.771.672,5.674,1.054,8.052H55a1.75,1.75,0,0,0-1.75,1.75v4.37H47.33a4.773,4.773,0,0,0-4.447,3.081l-1.522,4.054A1.751,1.751,0,0,0,43,123.25H69.061a1.75,1.75,0,0,0,0-3.5H45.526l.634-1.689a1.256,1.256,0,0,1,1.17-.811H80.67a1.257,1.257,0,0,1,1.17.811l.634,1.689H77.75a1.75,1.75,0,0,0,0,3.5H85a1.751,1.751,0,0,0,1.639-2.365l-1.522-4.054a4.773,4.773,0,0,0-4.447-3.081H74.75v-4.37A1.75,1.75,0,0,0,73,107.63H71.554A90.026,90.026,0,0,0,72.87,94.75a29.632,29.632,0,0,0-2.028-9.536A30.625,30.625,0,0,1,68.75,75.2V65.75H82v8.039a4.75,4.75,0,1,0,3.5,0V65.75h7.25a1.751,1.751,0,0,0,1.683-2.23ZM49.632,8.25H78.368A1.245,1.245,0,0,1,79.614,9.4c.027.416.062.872.1,1.345H48.286c.038-.473.073-.93.1-1.346A1.244,1.244,0,0,1,49.632,8.25Zm7.118,105.5v-2.62h14.5v2.62Zm27-34.305a1.248,1.248,0,0,1-.016-2.5h.032a1.248,1.248,0,0,1-.016,2.5Z" fill="#061720"/>
      <path d="M44.576,45.557q-.63,2.561-1.322,5.241a1.75,1.75,0,1,0,3.389.876q.7-2.7,1.332-5.282a1.75,1.75,0,1,0-3.4-.835Z" fill="#061720"/>
    </g>
  </g>
</svg>
