<svg xmlns="http://www.w3.org/2000/svg" width="128" height="128" viewBox="0 0 128 128">
  <title>LIGHT BULB</title>
  <g>
    <g>
      <path d="M96.12,56.32a31.974,31.974,0,0,1-8.39,21.64A44.534,44.534,0,0,0,76.21,103.5a41.957,41.957,0,0,0-.22,4.35v4.65a3,3,0,0,1-3,3h-18a3,3,0,0,1-3-3v-4.68a38.817,38.817,0,0,0-.23-4.32A45.653,45.653,0,0,0,40.08,77.76,32.122,32.122,0,1,1,96.12,56.32Z" fill="#f9d42f"/>
      <path d="M61,112.125h6a3,3,0,0,1,3,3V121.5a0,0,0,0,1,0,0H58a0,0,0,0,1,0,0v-6.375A3,3,0,0,1,61,112.125Z" transform="translate(128 233.625) rotate(180)" fill="#385b60"/>
      <path d="M76.21,103.5a41.957,41.957,0,0,0-.22,4.35v4.65a3,3,0,0,1-3,3h-18a3,3,0,0,1-3-3v-4.68a38.817,38.817,0,0,0-.23-4.32Z" fill="#537980"/>
    </g>
    <g>
      <path d="M97.87,56.32A33.87,33.87,0,0,0,63,22.461,33.869,33.869,0,0,0,38.778,78.929a47.088,47.088,0,0,1,4.981,6.639,1.749,1.749,0,1,0,2.975-1.841,50.532,50.532,0,0,0-5.351-7.136A30.373,30.373,0,1,1,94.37,56.32a30.808,30.808,0,0,1-.181,3.333,1.75,1.75,0,0,0,3.479.381A34.282,34.282,0,0,0,97.87,56.32Z" fill="#061720"/>
      <path d="M49.619,93.725a1.75,1.75,0,0,0,.99-2.268c-.437-1.115-.925-2.231-1.449-3.317a1.75,1.75,0,0,0-3.152,1.523c.486,1.005.938,2.039,1.343,3.071a1.749,1.749,0,0,0,2.268.991Z" fill="#061720"/>
      <path d="M94.151,67.555a1.749,1.749,0,0,0-2.3.9,30.222,30.222,0,0,1-5.409,8.321A46.014,46.014,0,0,0,74.66,101.75H71.03v-29.5h2.752A6.25,6.25,0,1,0,67.532,66V68.75H60.468V66a6.25,6.25,0,1,0-6.25,6.25H56.97v29.5H53.31a44.736,44.736,0,0,0-.929-4.768,1.75,1.75,0,1,0-3.393.856,41.384,41.384,0,0,1,1.033,5.856,37.215,37.215,0,0,1,.219,4.126v4.68a4.756,4.756,0,0,0,4.75,4.75h1.26v1.25A4.756,4.756,0,0,0,61,123.25h6a4.756,4.756,0,0,0,4.75-4.75v-1.25h1.24a1.75,1.75,0,1,0,0-3.5h-18a1.252,1.252,0,0,1-1.25-1.25v-4.68c0-.877-.031-1.733-.082-2.57H74.321c-.049.856-.081,1.722-.081,2.6v1.358a1.75,1.75,0,0,0,3.5,0V107.85a40.477,40.477,0,0,1,.211-4.174,42.5,42.5,0,0,1,11.07-24.535,33.744,33.744,0,0,0,6.034-9.283A1.749,1.749,0,0,0,94.151,67.555ZM68.25,118.5A1.252,1.252,0,0,1,67,119.75H61a1.252,1.252,0,0,1-1.25-1.25v-1.25h8.5ZM71.032,66a2.75,2.75,0,1,1,2.75,2.75h-2.75Zm-14.064,2.75h-2.75A2.75,2.75,0,1,1,56.968,66Zm3.5,3.5h7.06v29.5H60.47Z" fill="#061720"/>
      <path d="M88.926,50.253a1.749,1.749,0,0,0,1.67-2.274,27.835,27.835,0,0,0-2.441-5.555,1.749,1.749,0,1,0-3.031,1.748,24.422,24.422,0,0,1,2.133,4.855A1.75,1.75,0,0,0,88.926,50.253Z" fill="#061720"/>
      <path d="M64,17.25a1.75,1.75,0,0,0,1.75-1.75v-9a1.75,1.75,0,0,0-3.5,0v9A1.75,1.75,0,0,0,64,17.25Z" fill="#061720"/>
      <path d="M42.077,21.842a1.749,1.749,0,0,0,1.517.875,1.73,1.73,0,0,0,.873-.235,1.75,1.75,0,0,0,.641-2.39l-4.5-7.794a1.75,1.75,0,1,0-3.031,1.75Z" fill="#061720"/>
      <path d="M19.982,32.921l7.8,4.5a1.75,1.75,0,0,0,1.75-3.031l-7.8-4.5a1.75,1.75,0,0,0-1.75,3.031Z" fill="#061720"/>
      <path d="M24.932,56.313a1.75,1.75,0,0,0-1.75-1.75h-9a1.75,1.75,0,0,0,0,3.5h9A1.751,1.751,0,0,0,24.932,56.313Z" fill="#061720"/>
      <path d="M27.774,75.205l-7.8,4.5a1.75,1.75,0,0,0,.877,3.266,1.73,1.73,0,0,0,.873-.235l7.8-4.5a1.75,1.75,0,1,0-1.75-3.031Z" fill="#061720"/>
      <path d="M83.533,22.482a1.73,1.73,0,0,0,.873.235,1.749,1.749,0,0,0,1.517-.875l4.5-7.794a1.75,1.75,0,1,0-3.031-1.75l-4.5,7.794A1.75,1.75,0,0,0,83.533,22.482Z" fill="#061720"/>
      <path d="M99.35,37.655a1.742,1.742,0,0,0,.873-.234l7.8-4.5a1.75,1.75,0,0,0-1.75-3.031l-7.8,4.5a1.75,1.75,0,0,0,.877,3.265Z" fill="#061720"/>
      <path d="M113.818,54.563h-9a1.75,1.75,0,0,0,0,3.5h9a1.75,1.75,0,0,0,0-3.5Z" fill="#061720"/>
      <path d="M108.021,79.705l-7.8-4.5a1.75,1.75,0,1,0-1.75,3.031l7.8,4.5a1.73,1.73,0,0,0,.873.235,1.75,1.75,0,0,0,.877-3.266Z" fill="#061720"/>
    </g>
  </g>
</svg>
