<svg xmlns="http://www.w3.org/2000/svg" width="128" height="128" viewBox="0 0 128 128">
  <title>LOCKER</title>
  <g>
    <g>
      <rect x="24.192" y="9.5" width="79.615" height="109" fill="#ededf9"/>
      <path d="M97.808,82.125a1.749,1.749,0,0,1-1.75-1.75v-6.5a1.75,1.75,0,0,1,3.5,0v6.5A1.75,1.75,0,0,1,97.808,82.125Z" fill="#dddde3"/>
      <path d="M70,68.75A1.75,1.75,0,0,1,68.25,67V61a1.75,1.75,0,0,1,3.5,0v6A1.75,1.75,0,0,1,70,68.75Z" fill="#537980"/>
      <g>
        <path d="M92.9,37.125h-18a1.75,1.75,0,0,1,0-3.5h18a1.75,1.75,0,0,1,0,3.5Z" fill="#537980"/>
        <path d="M92.9,31.125h-18a1.75,1.75,0,0,1,0-3.5h18a1.75,1.75,0,0,1,0,3.5Z" fill="#537980"/>
        <path d="M92.9,43.125h-18a1.75,1.75,0,0,1,0-3.5h18a1.75,1.75,0,0,1,0,3.5Z" fill="#537980"/>
      </g>
      <g>
        <path d="M92.9,100.375h-18a1.75,1.75,0,0,1,0-3.5h18a1.75,1.75,0,0,1,0,3.5Z" fill="#537980"/>
        <path d="M92.9,106.375h-18a1.75,1.75,0,0,1,0-3.5h18a1.75,1.75,0,0,1,0,3.5Z" fill="#537980"/>
        <path d="M92.9,94.375h-18a1.75,1.75,0,0,1,0-3.5h18a1.75,1.75,0,0,1,0,3.5Z" fill="#537980"/>
      </g>
      <path d="M58,68.75A1.75,1.75,0,0,1,56.25,67V61a1.75,1.75,0,0,1,3.5,0v6A1.75,1.75,0,0,1,58,68.75Z" fill="#537980"/>
      <g>
        <path d="M53.1,37.125h-18a1.75,1.75,0,0,1,0-3.5h18a1.75,1.75,0,1,1,0,3.5Z" fill="#537980"/>
        <path d="M53.1,31.125h-18a1.75,1.75,0,0,1,0-3.5h18a1.75,1.75,0,1,1,0,3.5Z" fill="#537980"/>
        <path d="M53.1,43.125h-18a1.75,1.75,0,0,1,0-3.5h18a1.75,1.75,0,1,1,0,3.5Z" fill="#537980"/>
      </g>
      <g>
        <path d="M53.1,100.375h-18a1.75,1.75,0,0,1,0-3.5h18a1.75,1.75,0,1,1,0,3.5Z" fill="#537980"/>
        <path d="M53.1,106.375h-18a1.75,1.75,0,0,1,0-3.5h18a1.75,1.75,0,1,1,0,3.5Z" fill="#537980"/>
        <path d="M53.1,94.375h-18a1.75,1.75,0,0,1,0-3.5h18a1.75,1.75,0,1,1,0,3.5Z" fill="#537980"/>
      </g>
      <path d="M64,120.25a1.75,1.75,0,0,1-1.75-1.75V9.5a1.75,1.75,0,0,1,3.5,0v109A1.75,1.75,0,0,1,64,120.25Z" fill="#385b60"/>
      <rect x="24.192" y="6.5" width="79.615" height="6" fill="#537980"/>
      <rect x="24.192" y="115.5" width="79.615" height="6" fill="#537980"/>
    </g>
    <g>
      <path d="M24.192,90.4a1.749,1.749,0,0,0,1.75-1.75v-4.9a1.75,1.75,0,0,0-3.5,0v4.9A1.75,1.75,0,0,0,24.192,90.4Z" fill="#061720"/>
      <path d="M96.058,73.875v6.5a1.75,1.75,0,0,0,3.5,0v-6.5a1.75,1.75,0,0,0-3.5,0Z" fill="#061720"/>
      <path d="M68.25,61v6a1.75,1.75,0,0,0,3.5,0V61a1.75,1.75,0,0,0-3.5,0Z" fill="#061720"/>
      <path d="M92.9,33.625h-18a1.75,1.75,0,0,0,0,3.5h18a1.75,1.75,0,0,0,0-3.5Z" fill="#061720"/>
      <path d="M92.9,27.625h-18a1.75,1.75,0,0,0,0,3.5h18a1.75,1.75,0,0,0,0-3.5Z" fill="#061720"/>
      <path d="M92.9,39.625h-18a1.75,1.75,0,0,0,0,3.5h18a1.75,1.75,0,0,0,0-3.5Z" fill="#061720"/>
      <path d="M92.9,96.875h-18a1.75,1.75,0,0,0,0,3.5h18a1.75,1.75,0,0,0,0-3.5Z" fill="#061720"/>
      <path d="M92.9,102.875h-18a1.75,1.75,0,0,0,0,3.5h18a1.75,1.75,0,0,0,0-3.5Z" fill="#061720"/>
      <path d="M92.9,90.875h-18a1.75,1.75,0,0,0,0,3.5h18a1.75,1.75,0,0,0,0-3.5Z" fill="#061720"/>
      <path d="M59.75,67V61a1.75,1.75,0,0,0-3.5,0v6a1.75,1.75,0,0,0,3.5,0Z" fill="#061720"/>
      <path d="M35.1,37.125h18a1.75,1.75,0,1,0,0-3.5h-18a1.75,1.75,0,0,0,0,3.5Z" fill="#061720"/>
      <path d="M35.1,31.125h18a1.75,1.75,0,1,0,0-3.5h-18a1.75,1.75,0,0,0,0,3.5Z" fill="#061720"/>
      <path d="M35.1,43.125h18a1.75,1.75,0,1,0,0-3.5h-18a1.75,1.75,0,0,0,0,3.5Z" fill="#061720"/>
      <path d="M35.1,100.375h18a1.75,1.75,0,1,0,0-3.5h-18a1.75,1.75,0,0,0,0,3.5Z" fill="#061720"/>
      <path d="M35.1,106.375h18a1.75,1.75,0,1,0,0-3.5h-18a1.75,1.75,0,0,0,0,3.5Z" fill="#061720"/>
      <path d="M35.1,94.375h18a1.75,1.75,0,1,0,0-3.5h-18a1.75,1.75,0,0,0,0,3.5Z" fill="#061720"/>
      <path d="M103.808,4.75H54a1.75,1.75,0,0,0,0,3.5h48.058v2.5H25.942V8.25H44.75a1.75,1.75,0,0,0,0-3.5H24.192a1.75,1.75,0,0,0-1.75,1.75V77.125a1.75,1.75,0,0,0,3.5,0V14.25H62.25v99.5H25.942V94.083a1.75,1.75,0,0,0-3.5,0V121.5a1.75,1.75,0,0,0,1.75,1.75h79.616a1.75,1.75,0,0,0,1.75-1.75V34.667a1.75,1.75,0,0,0-3.5,0V113.75H65.75V14.25h36.308V25.167a1.75,1.75,0,1,0,3.5,0V6.5A1.75,1.75,0,0,0,103.808,4.75Zm-1.75,115H25.942v-2.5h76.116Z" fill="#061720"/>
    </g>
  </g>
</svg>
