<svg xmlns="http://www.w3.org/2000/svg" width="128" height="128" viewBox="0 0 128 128">
  <title>MINERAL WATER</title>
  <g>
    <g>
      <path d="M86.75,53.849V42.484a12,12,0,0,0-6.392-10.609h0A12.873,12.873,0,0,1,73.5,20.493v-8.3h-19v8.3a12.873,12.873,0,0,1-6.858,11.382h0A12,12,0,0,0,41.25,42.484V53.849a5.323,5.323,0,0,0,1.5,3.7h0a5.323,5.323,0,0,1,1.5,3.7V91.945a5.323,5.323,0,0,1-1.5,3.7h0a5.323,5.323,0,0,0-1.5,3.7V115.5a6,6,0,0,0,6,6h33.5a6,6,0,0,0,6-6V99.353a5.323,5.323,0,0,0-1.5-3.7h0a5.323,5.323,0,0,1-1.5-3.7V61.257a5.323,5.323,0,0,1,1.5-3.7h0A5.323,5.323,0,0,0,86.75,53.849Z" fill="#ededf9"/>
      <rect x="51.5" y="6.5" width="25" height="12" rx="3" fill="#dddde3"/>
      <rect x="44.25" y="59.101" width="39.5" height="35" fill="#3ea7fb"/>
      <path d="M70,79.1a6,6,0,0,1-12,0c0-4.66,6-11,6-11S70,74.441,70,79.1Z" fill="#ededf9"/>
    </g>
    <g>
      <path d="M86.75,104.167a1.749,1.749,0,0,0-1.75,1.75V109.5a1.75,1.75,0,0,0,3.5,0v-3.583A1.749,1.749,0,0,0,86.75,104.167Z" fill="#061720"/>
      <path d="M86.507,58.768A7.035,7.035,0,0,0,88.5,53.85V42.48a13.694,13.694,0,0,0-7.319-12.146A11.143,11.143,0,0,1,75.25,20.49v-.584a4.749,4.749,0,0,0,3-4.406v-6A4.756,4.756,0,0,0,73.5,4.75h-19A4.756,4.756,0,0,0,49.75,9.5v6a4.756,4.756,0,0,0,4.75,4.75H71.75v.24a14.64,14.64,0,0,0,7.8,12.938A10.2,10.2,0,0,1,85,42.48V53.85a3.552,3.552,0,0,1-1.013,2.488,7.217,7.217,0,0,0-.807,1.013H44.819a7.217,7.217,0,0,0-.812-1.019A3.547,3.547,0,0,1,43,53.85V42.48A10.234,10.234,0,0,1,44.466,37.2a10.353,10.353,0,0,1,3.991-3.771,14.528,14.528,0,0,0,6.33-6.56,1.75,1.75,0,1,0-3.15-1.525,11.057,11.057,0,0,1-4.818,4.992A13.729,13.729,0,0,0,39.5,42.48V53.85a7.03,7.03,0,0,0,1.987,4.912,3.588,3.588,0,0,1,1.013,2.5V91.95a3.6,3.6,0,0,1-1.006,2.482A7.024,7.024,0,0,0,39.5,99.35V115.5a7.759,7.759,0,0,0,7.75,7.75h33.5a7.759,7.759,0,0,0,7.75-7.75v-.917a1.75,1.75,0,0,0-3.5,0v.917a4.254,4.254,0,0,1-4.25,4.25H47.25A4.254,4.254,0,0,1,43,115.5V99.35a3.591,3.591,0,0,1,1.007-2.482,7.18,7.18,0,0,0,.817-1.017H83.176a7.2,7.2,0,0,0,.818,1.018A3.59,3.59,0,0,1,85,99.35v1.15a1.75,1.75,0,0,0,3.5,0V99.35a7.023,7.023,0,0,0-1.993-4.917A3.6,3.6,0,0,1,85.5,91.95V61.26A3.583,3.583,0,0,1,86.507,58.768ZM53.25,15.5v-6A1.252,1.252,0,0,1,54.5,8.25h19A1.252,1.252,0,0,1,74.75,9.5v6a1.252,1.252,0,0,1-1.25,1.25h-19A1.252,1.252,0,0,1,53.25,15.5ZM45.981,92.351c.007-.134.007-31.364,0-31.5H82.02c-.008.136-.008,31.366,0,31.5Z" fill="#061720"/>
      <path d="M73.007,36.2a1.75,1.75,0,1,0,2.265-2.668,17.035,17.035,0,0,1-3.219-3.64,1.75,1.75,0,0,0-2.926,1.919A20.481,20.481,0,0,0,73.007,36.2Z" fill="#061720"/>
      <path d="M62.729,66.9c-.035.037-.853.9-1.893,2.232a1.75,1.75,0,0,0,2.756,2.158c.141-.181.278-.352.409-.513,1.773,2.194,4.249,5.809,4.249,8.326a4.25,4.25,0,0,1-8.5,0,4.746,4.746,0,0,1,.093-.9,1.75,1.75,0,0,0-3.438-.66A8.379,8.379,0,0,0,56.25,79.1a7.75,7.75,0,0,0,15.5,0c0-5.206-5.815-11.5-6.479-12.2A1.8,1.8,0,0,0,62.729,66.9Z" fill="#061720"/>
    </g>
  </g>
</svg>
