<svg xmlns="http://www.w3.org/2000/svg" width="128" height="128" viewBox="0 0 128 128">
  <title>MIRROR</title>
  <g>
    <g>
      <path d="M24.19,55.15V118.5h6V58.15H97.87V118.5h6V55.15a3,3,0,0,0-3-3H27.19A3,3,0,0,0,24.19,55.15Z" fill="#537980"/>
      <rect x="36.125" y="6.5" width="55.75" height="97.308" rx="27.875" fill="#385b60"/>
      <path d="M64,97.808A21.9,21.9,0,0,1,42.125,75.933V34.375a21.875,21.875,0,0,1,43.75,0V75.933A21.9,21.9,0,0,1,64,97.808Z" fill="#ededf9"/>
      <path d="M18.331,115.5h91.338a3,3,0,0,1,3,3v3a0,0,0,0,1,0,0H15.331a0,0,0,0,1,0,0v-3A3,3,0,0,1,18.331,115.5Z" fill="#385b60"/>
    </g>
    <g>
      <path d="M103.87,92.125a1.75,1.75,0,0,0-1.75,1.75v3.563a1.75,1.75,0,0,0,3.5,0V93.875A1.75,1.75,0,0,0,103.87,92.125Z" fill="#061720"/>
      <path d="M45.623,87.915a1.75,1.75,0,0,0-.312,2.455A23.617,23.617,0,0,0,87.625,75.933V34.375a23.625,23.625,0,0,0-47.25,0V75.933a23.605,23.605,0,0,0,1.033,6.919,1.75,1.75,0,0,0,3.346-1.027,20.1,20.1,0,0,1-.879-5.892V34.375a20.125,20.125,0,0,1,40.25,0V75.933A20.118,20.118,0,0,1,48.078,88.228,1.749,1.749,0,0,0,45.623,87.915Z" fill="#061720"/>
      <path d="M50.42,25.978a1.748,1.748,0,0,0,2.456-.3,14.24,14.24,0,0,1,3.311-3.067A1.75,1.75,0,0,0,54.246,19.7a17.727,17.727,0,0,0-4.124,3.82A1.749,1.749,0,0,0,50.42,25.978Z" fill="#061720"/>
      <path d="M109.669,113.75H105.62V102.375a1.75,1.75,0,0,0-3.5,0V113.75h-2.5V58.15a1.751,1.751,0,0,0-1.75-1.75H93.625V53.9h7.245a1.25,1.25,0,0,1,1.25,1.25v33.6a1.75,1.75,0,0,0,3.5,0V55.15a4.756,4.756,0,0,0-4.75-4.75H93.625V42a1.75,1.75,0,0,0-3.5,0V75.933a26.125,26.125,0,0,1-52.25,0V34.375a26.125,26.125,0,0,1,52.237-.82,1.75,1.75,0,0,0,3.5-.108,29.625,29.625,0,0,0-59.235.928V50.4H27.19a4.756,4.756,0,0,0-4.75,4.75v58.6H18.331a4.756,4.756,0,0,0-4.75,4.75v3a1.751,1.751,0,0,0,1.75,1.75h97.338a1.751,1.751,0,0,0,1.75-1.75v-3A4.756,4.756,0,0,0,109.669,113.75ZM64,105.558A29.659,29.659,0,0,0,93.625,75.933V59.9h2.5v53.85H31.94V59.9h2.435V75.933A29.659,29.659,0,0,0,64,105.558ZM25.94,55.15a1.25,1.25,0,0,1,1.25-1.25h7.185v2.5H30.19a1.751,1.751,0,0,0-1.75,1.75v55.6h-2.5Zm84.979,64.6H17.081V118.5a1.252,1.252,0,0,1,1.25-1.25h91.338a1.252,1.252,0,0,1,1.25,1.25Z" fill="#061720"/>
      <path d="M50.035,60.634a1.75,1.75,0,0,0,2.474,0L69.48,43.663a1.75,1.75,0,1,0-2.475-2.475L50.035,58.159A1.749,1.749,0,0,0,50.035,60.634Z" fill="#061720"/>
      <path d="M75.137,41.542,50.388,66.291a1.75,1.75,0,0,0,2.475,2.475L77.612,44.017a1.75,1.75,0,1,0-2.475-2.475Z" fill="#061720"/>
      <path d="M75.491,49.674,58.52,66.645A1.75,1.75,0,1,0,61,69.119l16.97-16.971a1.749,1.749,0,1,0-2.474-2.474Z" fill="#061720"/>
    </g>
  </g>
</svg>
