<svg xmlns="http://www.w3.org/2000/svg" width="128" height="128" viewBox="0 0 128 128">
  <title>MOSQUITO</title>
  <g>
    <g>
      <path d="M67.75,43.073l38.034-4.842a6,6,0,0,1,6.56,7.482h0a12.969,12.969,0,0,1-14.095,9.569L68.565,51.7Z" fill="#537980"/>
      <path d="M60.143,43.073,22.108,38.231a6,6,0,0,0-6.559,7.482h0a12.969,12.969,0,0,0,14.1,9.569L59.327,51.7Z" fill="#537980"/>
      <path d="M67.149,47.141l36.107,9.476a6,6,0,0,1,3.774,8.621h0a13.284,13.284,0,0,1-18.781,5.019l-23.624-14.8Z" fill="#537980"/>
      <path d="M60.851,47.141,24.744,56.617a6,6,0,0,0-3.774,8.621h0a13.284,13.284,0,0,0,18.781,5.019l23.624-14.8Z" fill="#537980"/>
      <path d="M60.228,52.744C57.2,59.76,55.96,81.089,56.194,96.15a7.791,7.791,0,0,0,5.807,7.4h0a7.807,7.807,0,0,0,4,0h0a7.791,7.791,0,0,0,5.807-7.4c.234-15.061-1.009-36.39-4.034-43.406Z" fill="#537980"/>
      <path d="M64,74.84c-2.52,0-4.96-.1-7.24-.3.08-1.18.16-2.34.26-3.48h.01a87.672,87.672,0,0,0,13.94,0h.01c.1,1.14.18,2.3.26,3.48C68.96,74.74,66.52,74.84,64,74.84Z" fill="#385b60"/>
      <path d="M64,82.45c-2.7,0-5.28-.11-7.64-.33.04-1.16.1-2.33.16-3.49.02-.01.05,0,.07,0,2.29.21,4.78.32,7.41.32s5.12-.11,7.41-.32c.02,0,.05-.01.07,0,.06,1.16.12,2.33.16,3.49C69.28,82.34,66.7,82.45,64,82.45Z" fill="#385b60"/>
      <path d="M64,90.06c-2.74,0-5.37-.12-7.82-.35.01-1.15.03-2.32.05-3.5a.66.66,0,0,1,.14.01c2.38.22,4.94.34,7.63.34s5.25-.12,7.63-.34a.66.66,0,0,1,.14-.01c.02,1.18.04,2.35.05,3.5C69.37,89.94,66.74,90.06,64,90.06Z" fill="#385b60"/>
      <path d="M71.83,93.82c0,.79-.01,1.57-.02,2.33a6.65,6.65,0,0,1-.12,1.18v.01c-2.41.22-5,.33-7.69.33s-5.28-.11-7.69-.33v-.01a6.65,6.65,0,0,1-.12-1.18c-.01-.76-.02-1.54-.02-2.33a1.087,1.087,0,0,1,.18.01c2.38.22,4.96.34,7.65.34s5.27-.12,7.65-.34A1.087,1.087,0,0,1,71.83,93.82Z" fill="#385b60"/>
      <path d="M62,35c-3.659,4.014-5.979,13.343-6.634,21.54a8.67,8.67,0,0,0,7.428,9.29h0a8.623,8.623,0,0,0,2.412,0h0a8.671,8.671,0,0,0,7.428-9.29C71.979,48.343,69.659,39.014,66,35Z" fill="#385b60"/>
      <path d="M64,39.433c-3.308,0-6-1.312-6-4.62s2.692-7.38,6-7.38,6,4.071,6,7.38S67.308,39.433,64,39.433Z" fill="#537980"/>
    </g>
    <g>
      <path d="M112.369,39.076a7.732,7.732,0,0,0-6.809-2.582L72.272,40.727,82.648,31.7a1.754,1.754,0,0,0,.577-1.021L86,14.7l2.983-2.957a1.75,1.75,0,1,0-2.464-2.486l-3.38,3.35a1.751,1.751,0,0,0-.492.944L79.882,29.468l-8.42,7.325a6.676,6.676,0,0,0,.288-1.98c0-3.637-2.515-7.774-6-8.854V6.5a1.75,1.75,0,0,0-3.5,0V25.959c-3.485,1.08-6,5.217-6,8.854a6.693,6.693,0,0,0,.287,1.977l-8.42-7.332L45.344,13.549a1.754,1.754,0,0,0-.49-.94l-3.371-3.35a1.749,1.749,0,1,0-2.466,2.482L41.991,14.7l2.785,15.972a1.752,1.752,0,0,0,.575,1.019l10.406,9.061-6.886-.876a1.749,1.749,0,1,0-.441,3.471l7.3.929q-.348,1.249-.651,2.575L29.719,53.5l-.277.037a12,12,0,0,1-1.372.089,11.209,11.209,0,0,1-10.829-8.369,4.248,4.248,0,0,1,4.649-5.3l10.259,1.306a1.75,1.75,0,1,0,.442-3.471L22.332,36.494a7.749,7.749,0,0,0-8.475,9.66,14.718,14.718,0,0,0,8.276,9.719,7.738,7.738,0,0,0-2.708,10.19,15.026,15.026,0,0,0,21.255,5.68l14.459-9.062q.249.407.535.788L39.09,78.16a1.75,1.75,0,0,0-.394.506l-7.716,14.9-4.357.623a1.75,1.75,0,0,0,.245,3.482,1.623,1.623,0,0,0,.249-.018l5.25-.75a1.748,1.748,0,0,0,1.307-.927l7.98-15.411,13.061-11.57L44.206,85.823a1.761,1.761,0,0,0-.259.778L41.5,115.127l-4.838,5.178a1.751,1.751,0,0,0,2.559,2.39l5.25-5.62a1.758,1.758,0,0,0,.464-1.046L47.4,87.319,54.966,75.2c-.435,6.745-.633,14.162-.526,20.978a9.478,9.478,0,0,0,.719,3.47,1.75,1.75,0,1,0,3.235-1.337,5.992,5.992,0,0,1-.257-.834c1.879.125,3.838.192,5.863.192s3.986-.065,5.863-.19a5.955,5.955,0,0,1-1.085,2.253,6.177,6.177,0,0,1-3.216,2.122,6.38,6.38,0,0,1-2.353.147,1.75,1.75,0,1,0-.426,3.474A10.053,10.053,0,0,0,64,105.55a9.492,9.492,0,0,0,7.527-3.65,9.467,9.467,0,0,0,2.033-5.723c.107-6.814-.091-14.232-.526-20.976L80.6,87.319l2.464,28.71a1.758,1.758,0,0,0,.464,1.046l5.25,5.62a1.751,1.751,0,0,0,2.559-2.39L86.5,115.127,84.053,86.6a1.761,1.761,0,0,0-.259-.778L73.285,68.994l13.061,11.57,7.98,15.411a1.748,1.748,0,0,0,1.307.927l5.25.75a1.623,1.623,0,0,0,.249.018,1.75,1.75,0,0,0,.245-3.482l-4.357-.623L89.3,78.666a1.75,1.75,0,0,0-.394-.506L72.325,63.468q.285-.381.536-.787L87.32,71.742a15.013,15.013,0,0,0,15.617.212,1.749,1.749,0,1,0-1.773-3.016,11.707,11.707,0,0,1-11.984-.161l-15-9.4a10.241,10.241,0,0,0,.23-2.126c0-.291-.012-.569-.036-.849-.155-1.942-.394-3.867-.7-5.736l29.144,7.648a4.249,4.249,0,0,1,3.039,5.154,1.751,1.751,0,0,0,1.261,2.13,1.727,1.727,0,0,0,.436.056,1.752,1.752,0,0,0,1.694-1.316,7.761,7.761,0,0,0-3.42-8.5,14.713,14.713,0,0,0,8.205-9.681A7.727,7.727,0,0,0,112.369,39.076ZM70.015,86.347c-1.914.138-3.925.213-6.015.213s-4.1-.072-6.015-.21q.048-2.052.125-4.091c1.869.126,3.841.191,5.89.191s4.019-.069,5.89-.2Q69.967,84.291,70.015,86.347Zm-.279-7.59c-1.815.126-3.733.193-5.736.193s-3.922-.064-5.736-.188c.07-1.385.151-2.752.241-4.088,1.766.11,3.606.166,5.495.166s3.721-.074,5.493-.186C69.584,76,69.665,77.367,69.736,78.757ZM58.771,71.183c.137-1.639.29-3.209.456-4.7a10.411,10.411,0,0,0,3.347,1.08,10.978,10.978,0,0,0,2.882,0,10.3,10.3,0,0,0,3.317-1.075c.166,1.486.319,3.056.456,4.7A88.137,88.137,0,0,1,58.771,71.183Zm6.223-7.09a7.566,7.566,0,0,1-1.96,0,6.928,6.928,0,0,1-5.92-7.418A54.418,54.418,0,0,1,60.64,40.693a11.765,11.765,0,0,0,6.72,0,54.453,54.453,0,0,1,3.527,16c.015.189.023.371.023.561A6.941,6.941,0,0,1,64.994,64.093ZM64,29.183c2.189,0,4.25,3.171,4.25,5.63,0,1.9-1.43,2.87-4.25,2.87s-4.25-.966-4.25-2.87C59.75,32.354,61.811,29.183,64,29.183ZM38.82,68.777a11.524,11.524,0,0,1-16.3-4.359,4.248,4.248,0,0,1,2.67-6.105l29.143-7.648c-.308,1.868-.547,3.793-.7,5.734a10.4,10.4,0,0,0,.188,2.981Zm19.1,25.164c-.009-1.354-.005-2.727.009-4.107,1.945.137,3.962.226,6.074.226s4.135-.074,6.075-.21c.013,1.38.017,2.752.008,4.106-1.935.14-3.972.214-6.083.214S59.857,94.083,57.917,93.941Zm52.73-48.675A11.207,11.207,0,0,1,99.82,53.63a12.01,12.01,0,0,1-1.365-.088l-.054-.006L72.925,46.85q-.3-1.335-.657-2.595L106,39.966a4.248,4.248,0,0,1,4.645,5.3Z" fill="#061720"/>
      <path d="M38.19,42.042l3.91.5a1.665,1.665,0,0,0,.222.014,1.75,1.75,0,0,0,.219-3.486l-3.909-.5a1.75,1.75,0,0,0-.442,3.472Z" fill="#061720"/>
      <path d="M92.364,63.689a1.75,1.75,0,0,0-1.859,2.966,9,9,0,0,0,4.781,1.382,1.75,1.75,0,0,0,0-3.5A5.494,5.494,0,0,1,92.364,63.689Z" fill="#061720"/>
    </g>
  </g>
</svg>
