<svg xmlns="http://www.w3.org/2000/svg" width="128" height="128" viewBox="0 0 128 128">
  <title>NECK PILLOW</title>
  <g>
    <g>
      <path d="M121.5,62.845c0,11.251-5.539,27.087-11.195,40.326a14.916,14.916,0,0,1-13.725,9.044h0A14.923,14.923,0,0,1,82.8,91.526c4.944-11.717,8.7-23.128,8.7-28.681,0-3.64-.54-8.53-3.14-11.19-3.6-3.67-12.7-5.87-24.36-5.87s-20.76,2.2-24.36,5.87c-2.6,2.66-3.14,7.55-3.14,11.19,0,5.554,3.753,16.962,8.7,28.681a14.923,14.923,0,0,1-13.779,20.689h0a14.916,14.916,0,0,1-13.725-9.043C12.038,89.936,6.5,74.1,6.5,62.845c0-23,12-47.06,57.5-47.06S121.5,39.845,121.5,62.845Z" fill="#b360e6"/>
      <path d="M22.24,62.657a12.015,12.015,0,0,1-12,12.025,12.672,12.672,0,0,1-2.32-.22,55.164,55.164,0,0,1-1.42-11.5A57.643,57.643,0,0,1,7.72,50.893a12.237,12.237,0,0,1,2.52-.261A12.016,12.016,0,0,1,22.24,62.657Z" fill="#f9d42f"/>
      <path d="M89.69,19.127a6.421,6.421,0,0,1,.05.882,9,9,0,1,1-17.12-3.888A79.159,79.159,0,0,1,89.69,19.127Z" fill="#f9d42f"/>
      <path d="M121.21,67.718a92.226,92.226,0,0,1-4.03,17.4,9.018,9.018,0,0,1,.81-18A8.758,8.758,0,0,1,121.21,67.718Z" fill="#f9d42f"/>
      <path d="M45.2,91.53a14.936,14.936,0,0,1-22,18.22,14.755,14.755,0,0,1-5.51-6.58c-.86-2-1.71-4.07-2.53-6.17,7-5.21,16.35-8.64,28.3-9.7Q44.3,89.4,45.2,91.53Z" fill="#f9d42f"/>
      <path d="M112.84,97c-.82,2.1-1.67,4.16-2.53,6.17A14.955,14.955,0,0,1,81.62,97.3a14.748,14.748,0,0,1,1.18-5.77c.6-1.42,1.18-2.83,1.73-4.23C96.48,88.36,105.84,91.79,112.84,97Z" fill="#f9d42f"/>
      <circle cx="108.308" cy="47.098" r="4.5" fill="#f9d42f"/>
      <circle cx="50.881" cy="27.598" r="4.5" fill="#f9d42f"/>
    </g>
    <g>
      <path d="M58.384,44.212c-1.186.077-2.348.181-3.455.306a1.75,1.75,0,0,0,.2,3.489,1.926,1.926,0,0,0,.2-.011c1.052-.119,2.159-.218,3.289-.292a1.75,1.75,0,0,0-.228-3.492Z" fill="#061720"/>
      <path d="M64,14.035c-51.553,0-59.25,30.581-59.25,48.81,0,5.64,1.346,12.842,4,21.4a1.751,1.751,0,0,0,3.344-1.037c-.739-2.382-1.359-4.634-1.886-6.781l.032,0a13.775,13.775,0,0,0,0-27.55c-.1,0-.193.013-.29.015C14.289,32.506,28.084,17.535,64,17.535c2.171,0,4.236.072,6.248.178a10.741,10.741,0,1,0,21.133,3.743c22.789,7.763,28.369,25.713,28.369,41.389,0,5.248-1.308,12.105-3.825,20.258a7.277,7.277,0,0,1-1.3-13.411A1.75,1.75,0,1,0,113,66.6a10.775,10.775,0,0,0,1.852,19.838q-1.263,3.78-2.842,7.885c-6.746-4.483-15.146-7.324-25.021-8.484,2.625-6.777,5.729-15.8,6.2-21.594,1.171-6.208-.8-16.73-6.778-24.126a1.749,1.749,0,1,0-2.72,2.2,27.188,27.188,0,0,1,3.776,6.42c-4.655-2.973-12.844-4.665-23.145-4.7h-.006a1.75,1.75,0,0,0,0,3.5c10.868.037,19.606,2.085,22.8,5.343,1.7,1.743,2.642,5.283,2.642,9.967,0,4.828-3.2,15.3-8.562,28a16.684,16.684,0,0,0,30.727,13.012c7.522-17.608,11.335-31.407,11.335-41.013C123.25,44.616,115.553,14.035,64,14.035ZM10.24,52.383a10.271,10.271,0,1,1-.825,20.511A51.768,51.768,0,0,1,8.25,62.845a57.6,57.6,0,0,1,.914-10.407A10.723,10.723,0,0,1,10.24,52.383Zm70.5-25.106A7.229,7.229,0,0,1,73.8,17.96,79.215,79.215,0,0,1,87.97,20.412,7.261,7.261,0,0,1,80.74,27.277Zm15.84,83.188a13.179,13.179,0,0,1-11-5.908,12.921,12.921,0,0,1-1.163-12.35c.358-.849.784-1.875,1.247-3.016,10.042,1.057,18.449,3.9,25.035,8.465-.637,1.581-1.3,3.184-2,4.827A13.149,13.149,0,0,1,96.58,110.465Z" fill="#061720"/>
      <path d="M48.488,45.618a26.059,26.059,0,0,0-7.96,3.119,27.151,27.151,0,0,1,3.785-6.422,1.749,1.749,0,1,0-2.72-2.2c-5.982,7.4-7.949,17.918-6.778,24.126.466,5.793,3.567,14.809,6.19,21.583-9.876,1.16-18.273,4.011-25.022,8.5q-.543-1.407-1.049-2.778a1.75,1.75,0,0,0-3.284,1.213c1.3,3.536,2.8,7.271,4.434,11.1A16.685,16.685,0,0,0,46.811,90.846c-5.361-12.7-8.561-23.171-8.561-28,0-4.684.938-8.224,2.639-9.964,1.55-1.581,4.46-2.915,8.412-3.859a1.75,1.75,0,1,0-.813-3.4Zm-6.065,58.939a13.194,13.194,0,0,1-23.12-2.073q-1.046-2.447-2-4.826c6.59-4.566,15-7.411,25.038-8.468.463,1.141.889,2.168,1.247,3.017A12.921,12.921,0,0,1,42.423,104.557Z" fill="#061720"/>
      <path d="M28.217,30.044a1.751,1.751,0,0,0-2.443-.4,35.563,35.563,0,0,0-3.91,3.259,1.75,1.75,0,1,0,2.43,2.518,32.3,32.3,0,0,1,3.525-2.937A1.748,1.748,0,0,0,28.217,30.044Z" fill="#061720"/>
      <path d="M114.558,47.1a6.25,6.25,0,1,0-6.25,6.25A6.257,6.257,0,0,0,114.558,47.1Zm-9,0a2.75,2.75,0,1,1,2.75,2.75A2.752,2.752,0,0,1,105.558,47.1Z" fill="#061720"/>
      <path d="M57.131,27.6a6.25,6.25,0,1,0-6.25,6.25A6.257,6.257,0,0,0,57.131,27.6Zm-6.25,2.75a2.75,2.75,0,1,1,2.75-2.75A2.753,2.753,0,0,1,50.881,30.348Z" fill="#061720"/>
    </g>
  </g>
</svg>
