<svg xmlns="http://www.w3.org/2000/svg" width="128" height="128" viewBox="0 0 128 128">
  <title>NIGHT</title>
  <g>
    <g>
      <path d="M75.04,86.353A47.1,47.1,0,0,1,36.072,12.8a51.018,51.018,0,1,0,70.041,61.839A46.906,46.906,0,0,1,75.04,86.353Z" fill="#f9d42f"/>
      <path d="M68.42,121.5a13.244,13.244,0,0,1-6.834-24.594,13.3,13.3,0,0,1,14.426-9.755,15.1,15.1,0,0,1,23.35,2.6c.326-.023.652-.05.984-.05a13.694,13.694,0,0,1,13.671,13.029,9.494,9.494,0,0,1-2.012,18.772Z" fill="#3ea7fb"/>
      <polygon points="98.167 6.5 100.948 12.135 107.167 13.039 102.667 17.425 103.729 23.619 98.167 20.695 92.604 23.619 93.667 17.425 89.167 13.039 95.386 12.135 98.167 6.5" fill="#f9d42f"/>
      <polygon points="65.306 29.325 68.088 34.96 74.306 35.864 69.806 40.25 70.869 46.444 65.306 43.519 59.744 46.444 60.806 40.25 56.306 35.864 62.525 34.96 65.306 29.325" fill="#f9d42f"/>
    </g>
    <g>
      <path d="M66.846,87.4a15.138,15.138,0,0,0-6.75,8.382,15.226,15.226,0,0,0-2.01,1.607,1.75,1.75,0,0,0,2.408,2.539,11.819,11.819,0,0,1,2-1.524,1.749,1.749,0,0,0,.782-1.035,11.649,11.649,0,0,1,11.207-8.561,11.815,11.815,0,0,1,1.334.083,1.763,1.763,0,0,0,1.426-.494A13.355,13.355,0,0,1,97.89,90.7a1.744,1.744,0,0,0,1.6.8l.1-.007a11.84,11.84,0,0,1,6.738,1.567,1.75,1.75,0,0,0,1.76-3.026,15.392,15.392,0,0,0-6.457-2.019,52.3,52.3,0,0,0,6.148-12.847,1.75,1.75,0,0,0-2.823-1.846,45.026,45.026,0,0,1-13.827,8.328,16.8,16.8,0,0,0-14.808,2.929c-.425.013-.849.027-1.279.027A45.347,45.347,0,0,1,37.518,13.784a1.751,1.751,0,0,0-2.184-2.572,52.815,52.815,0,0,0-8.37,4.864,1.749,1.749,0,0,0,2.027,2.852q1.167-.829,2.382-1.591A48.856,48.856,0,0,0,66.846,87.4Zm35.348-7.545a48.717,48.717,0,0,1-3.512,6.253,16.892,16.892,0,0,0-3.149-2.534A47.587,47.587,0,0,0,102.194,79.854Z" fill="#061720"/>
      <path d="M21.988,24.237a1.746,1.746,0,0,0,1.218-.493q.851-.825,1.741-1.609a1.75,1.75,0,0,0-2.31-2.629c-.637.559-1.258,1.136-1.866,1.724a1.75,1.75,0,0,0,1.217,3.007Z" fill="#061720"/>
      <path d="M14.061,70.989a1.751,1.751,0,0,0-1.139,2.2,46.654,46.654,0,0,0,2.205,5.646,1.75,1.75,0,1,0,3.17-1.482,43.253,43.253,0,0,1-2.039-5.223A1.748,1.748,0,0,0,14.061,70.989Z" fill="#061720"/>
      <path d="M115.65,101.37a15.293,15.293,0,0,0-.818-3.315,1.75,1.75,0,0,0-3.283,1.211,11.982,11.982,0,0,1,.721,3.548,1.751,1.751,0,0,0,1.378,1.625,7.743,7.743,0,0,1-1.643,15.311H68.42a11.506,11.506,0,0,1-11.4-13.05,1.75,1.75,0,0,0-3.469-.471,15.213,15.213,0,0,0-.133,1.942,49.251,49.251,0,0,1-34-80.311,1.75,1.75,0,1,0-2.705-2.22,52.744,52.744,0,0,0,37.123,86.065A15.018,15.018,0,0,0,68.42,123.25h43.585a11.243,11.243,0,0,0,3.645-21.88Z" fill="#061720"/>
      <path d="M91.787,18.037l-.907,5.286a1.75,1.75,0,0,0,2.539,1.845l4.748-2.5,4.747,2.5a1.75,1.75,0,0,0,2.539-1.845l-.906-5.286,3.842-3.745a1.75,1.75,0,0,0-.97-2.984l-5.309-.773L99.736,5.726a1.749,1.749,0,0,0-3.138,0l-2.374,4.809-5.309.773a1.75,1.75,0,0,0-.97,2.984Zm3.851-4.171a1.75,1.75,0,0,0,1.317-.957l1.212-2.455,1.212,2.455a1.75,1.75,0,0,0,1.317.957l2.711.395-1.962,1.912a1.75,1.75,0,0,0-.5,1.549l.462,2.7-2.423-1.274a1.741,1.741,0,0,0-1.628,0L94.929,20.42l.463-2.7a1.752,1.752,0,0,0-.5-1.549l-1.962-1.912Z" fill="#061720"/>
      <path d="M58.927,40.861l-.907,5.286a1.75,1.75,0,0,0,2.539,1.845l4.748-2.5,4.748,2.5a1.75,1.75,0,0,0,2.539-1.845l-.907-5.286,3.841-3.745a1.749,1.749,0,0,0-.969-2.984L69.25,33.36l-2.374-4.81a1.75,1.75,0,0,0-3.139,0l-2.374,4.81-5.308.772a1.75,1.75,0,0,0-.97,2.984Zm3.85-4.17a1.747,1.747,0,0,0,1.318-.957l1.212-2.456,1.212,2.456a1.746,1.746,0,0,0,1.317.957l2.71.394L68.585,39a1.75,1.75,0,0,0-.5,1.549l.463,2.7-2.424-1.273a1.751,1.751,0,0,0-1.629,0l-2.424,1.273.463-2.7a1.75,1.75,0,0,0-.5-1.549l-1.961-1.912Z" fill="#061720"/>
    </g>
  </g>
</svg>
