<svg xmlns="http://www.w3.org/2000/svg" width="128" height="128" viewBox="0 0 128 128">
  <title>PILLOWS</title>
  <g>
    <g>
      <path d="M97.454,73.326A175.844,175.844,0,0,0,92.5,49.643c1.2-3.2.733-8.331.262-11.507a2.632,2.632,0,0,0-3.515-2.075,22.638,22.638,0,0,0-8.493,6.173,290.973,290.973,0,0,0-30.412,1.851,291.014,291.014,0,0,0-29.918,5.767,22.631,22.631,0,0,0-9.761-3.868,2.632,2.632,0,0,0-2.889,2.884c.333,3.193,1.152,8.278,3.114,11.08a175.882,175.882,0,0,0,1.09,24.171A175.844,175.844,0,0,0,16.932,107.8c-1.2,3.2-.734,8.331-.262,11.507a2.631,2.631,0,0,0,3.515,2.075,22.636,22.636,0,0,0,8.493-6.172,291.422,291.422,0,0,0,30.412-1.852,291.242,291.242,0,0,0,29.918-5.766,22.643,22.643,0,0,0,9.761,3.867,2.631,2.631,0,0,0,2.888-2.884c-.332-3.193-1.151-8.278-3.114-11.08A175.94,175.94,0,0,0,97.454,73.326Z" fill="#e4ffff"/>
      <path d="M113.54,62.721a175.875,175.875,0,0,0,3.635-23.92c2.248-2.579,3.6-7.549,4.267-10.69a2.633,2.633,0,0,0-2.569-3.173,22.637,22.637,0,0,0-10.114,2.816,291.331,291.331,0,0,0-29.142-8.893A291.3,291.3,0,0,0,49.57,13.809a22.646,22.646,0,0,0-7.793-7.035,2.632,2.632,0,0,0-3.715,1.693c-.8,3.108-1.814,8.159-.954,11.47a175.875,175.875,0,0,0-7.426,23.027,175.872,175.872,0,0,0-3.635,23.921c-2.248,2.579-3.6,7.549-4.267,10.689a2.632,2.632,0,0,0,2.569,3.173,22.637,22.637,0,0,0,10.114-2.816,290.93,290.93,0,0,0,29.142,8.893,290.9,290.9,0,0,0,30.047,5.052,22.627,22.627,0,0,0,7.793,7.035,2.632,2.632,0,0,0,3.715-1.693c.8-3.108,1.814-8.158.954-11.469A175.866,175.866,0,0,0,113.54,62.721Z" fill="#3ea7fb"/>
    </g>
    <g>
      <path d="M116.426,46.5a1.748,1.748,0,0,0-1.98,1.485c-.174,1.222-.358,2.417-.546,3.564a1.751,1.751,0,0,0,1.445,2.01,1.823,1.823,0,0,0,.284.023,1.751,1.751,0,0,0,1.725-1.468c.191-1.17.379-2.389.557-3.635A1.748,1.748,0,0,0,116.426,46.5Z" fill="#061720"/>
      <path d="M114.856,56.27a1.746,1.746,0,0,0-2.051,1.384c-.547,2.812-.965,4.654-.965,4.654a175.172,175.172,0,0,1-7.335,22.754,1.748,1.748,0,0,0-.085,1.126c.577,2.221.238,5.983-.954,10.592a.861.861,0,0,1-.483.574.88.88,0,0,1-.758-.01,21.056,21.056,0,0,1-7.157-6.494,1.747,1.747,0,0,0-1.207-.711c-3.14-.378-6.85-.865-10.812-1.46l-.015,0c-6.121-.919-12.845-2.1-19.028-3.556a289.023,289.023,0,0,1-28.954-8.838,1.75,1.75,0,0,0-1.4.1A21.031,21.031,0,0,1,24.371,79a.929.929,0,0,1-.7-.33.864.864,0,0,1-.175-.729c.99-4.656,2.366-8.174,3.874-9.9a1.748,1.748,0,0,0,.428-1.046,175.352,175.352,0,0,1,3.588-23.611c.01-.039.953-3.9,2.47-8.947A1.75,1.75,0,1,0,30.5,33.423c-1.543,5.135-2.509,9.088-2.524,9.152-.04.176-.373,1.648-.826,3.918-2.184.49-4.336.985-6.4,1.48a23.368,23.368,0,0,0-9.911-3.734,4.379,4.379,0,0,0-4.8,4.811c.368,3.552,1.2,8.317,3.079,11.386a177.921,177.921,0,0,0,1.127,23.916,177.454,177.454,0,0,0,4.848,23.419c-1.051,3.431-.677,8.257-.155,11.791a4.377,4.377,0,0,0,4.327,3.734,4.419,4.419,0,0,0,1.535-.276,24,24,0,0,0,8.656-6.071c3.926-.062,7.779-.181,11.463-.353a1.75,1.75,0,1,0-.163-3.5c-3.881.181-7.953.3-12.1.36a1.749,1.749,0,0,0-1.275.578,21.131,21.131,0,0,1-7.8,5.7.881.881,0,0,1-.77-.069.845.845,0,0,1-.412-.615c-.7-4.716-.637-8.494.168-10.639a1.758,1.758,0,0,0,.035-1.128,175,175,0,0,1-4.886-23.373,175.535,175.535,0,0,1-1.08-23.883,1.753,1.753,0,0,0-.314-1.084c-1.319-1.884-2.314-5.526-2.8-10.265a.879.879,0,0,1,.959-.961,20.767,20.767,0,0,1,8.986,3.589,1.747,1.747,0,0,0,1.376.241c1.8-.436,3.688-.873,5.6-1.307a150.2,150.2,0,0,0-2.1,15.97c-2.19,2.849-3.523,7.5-4.266,11A4.381,4.381,0,0,0,24.346,82.5h.021a23.91,23.91,0,0,0,10.217-2.665,289.453,289.453,0,0,0,28.62,8.7c5.961,1.405,12.4,2.554,18.344,3.464a62.007,62.007,0,0,0,3.131,7.83,1.75,1.75,0,1,0,3.142-1.542,55.178,55.178,0,0,1-2.381-5.714c2.6.368,5.057.689,7.255.958a27.953,27.953,0,0,0,4.155,4.406,1.757,1.757,0,0,0,.258.578c1.309,1.859,2.307,5.5,2.811,10.252a.857.857,0,0,1-.253.7.89.89,0,0,1-.715.257,20.891,20.891,0,0,1-8.969-3.584,1.753,1.753,0,0,0-1.382-.246,291.476,291.476,0,0,1-29.73,5.735c-2.3.291-4.8.553-7.431.78a1.75,1.75,0,0,0,.148,3.493c.051,0,.1,0,.153-.006,2.676-.231,5.223-.5,7.57-.8a291.259,291.259,0,0,0,29.377-5.629,23.778,23.778,0,0,0,9.905,3.734,4.383,4.383,0,0,0,4.808-4.8,40.528,40.528,0,0,0-1.428-7.513,4.432,4.432,0,0,0,.64.053,4.387,4.387,0,0,0,4.242-3.28c.895-3.459,1.778-8.216,1.09-11.743a177.639,177.639,0,0,0,7.3-22.8c.018-.076.435-1.911.994-4.788A1.749,1.749,0,0,0,114.856,56.27Z" fill="#061720"/>
      <path d="M122.278,24.821a4.371,4.371,0,0,0-3.4-1.633h-.023a23.9,23.9,0,0,0-10.215,2.666,289.217,289.217,0,0,0-28.619-8.7,289.139,289.139,0,0,0-29.492-4.994,23.888,23.888,0,0,0-7.973-6.957,4.382,4.382,0,0,0-6.186,2.822c-.9,3.46-1.779,8.217-1.091,11.745-.556,1.329-1.121,2.774-1.683,4.3a1.75,1.75,0,1,0,3.285,1.207c.616-1.677,1.235-3.245,1.838-4.66A1.752,1.752,0,0,0,38.8,19.5c-.577-2.221-.238-5.983.954-10.593a.861.861,0,0,1,.482-.572.877.877,0,0,1,.76.009,21.04,21.04,0,0,1,7.155,6.494,1.749,1.749,0,0,0,1.208.711,289.022,289.022,0,0,1,29.855,5.018A288.863,288.863,0,0,1,108.171,29.4a1.736,1.736,0,0,0,1.4-.1,21.052,21.052,0,0,1,9.282-2.617.886.886,0,0,1,.7.331.855.855,0,0,1,.175.728c-.99,4.657-2.366,8.174-3.874,9.9a1.753,1.753,0,0,0-.427,1.047c-.072,1.22-.182,2.561-.327,3.984a1.751,1.751,0,0,0,1.563,1.919c.061.005.12.008.18.008a1.751,1.751,0,0,0,1.739-1.572c.128-1.256.229-2.453.3-3.566,2.189-2.849,3.522-7.5,4.266-10.994A4.354,4.354,0,0,0,122.278,24.821Z" fill="#061720"/>
      <path d="M60.381,23.1a1.639,1.639,0,0,0,.268.021,1.75,1.75,0,0,0,.264-3.479c-1.89-.291-3.729-.556-5.485-.8a1.75,1.75,0,0,0-.477,3.468C56.69,22.555,58.511,22.817,60.381,23.1Z" fill="#061720"/>
      <path d="M106.6,36.9a1.75,1.75,0,0,0-2.957-1.873c-6.119,9.661-9.27,22.6-9.405,23.156s-3.08,13.527-1.918,24.9a1.752,1.752,0,0,0,1.74,1.573,1.546,1.546,0,0,0,.179-.01A1.75,1.75,0,0,0,95.8,82.728C94.7,71.939,97.614,59.1,97.64,58.983,97.671,58.855,100.792,46.06,106.6,36.9Z" fill="#061720"/>
    </g>
  </g>
</svg>
