<svg xmlns="http://www.w3.org/2000/svg" width="128" height="128" viewBox="0 0 128 128">
  <title>PLANT POT</title>
  <g>
    <g>
      <path d="M63.5,79.837c7.339-22.149,25.311-42.4,40.311-48.66-2.946,22.948-22.84,53.22-33.4,59.73Z" fill="#95d70b"/>
      <path d="M61.9,71.559c1.98-23.249,13.549-45.184,26.958-56.786C91,42.125,79.233,71.864,70.8,80.681Z" fill="#90c202"/>
      <path d="M64.5,79.837c-7.339-22.149-25.311-42.4-40.311-48.66,2.946,22.948,22.84,53.22,33.4,59.73Z" fill="#95d70b"/>
      <path d="M66.1,71.559C64.121,48.31,52.552,26.375,39.143,14.773,37,42.125,48.767,71.864,57.2,80.681Z" fill="#90c202"/>
      <path d="M74.25,47.727A78.764,78.764,0,0,1,64,86,78.764,78.764,0,0,1,53.75,47.727C53.75,25.773,64,6.5,64,6.5S74.25,25.773,74.25,47.727Z" fill="#95d70b"/>
      <g>
        <rect x="43.25" y="105.75" width="6" height="15.75" fill="#663325"/>
        <rect x="61" y="105.75" width="6" height="15.75" fill="#663325"/>
        <rect x="78.75" y="105.75" width="6" height="15.75" fill="#663325"/>
      </g>
      <path d="M92.75,69.749l-5.71,36.73a6,6,0,0,1-5.929,5.079H46.889a6,6,0,0,1-5.929-5.079l-5.71-36.73Z" fill="#f2a66c"/>
      <path d="M92.75,72.749H35.25a3,3,0,0,1-3-3v-3h63.5v3A3,3,0,0,1,92.75,72.749Z" fill="#663325"/>
    </g>
    <g>
      <path d="M82.073,99.368a1.789,1.789,0,0,0,.271.022,1.751,1.751,0,0,0,1.727-1.482l1.047-6.732a1.75,1.75,0,0,0-3.459-.538L80.612,97.37A1.75,1.75,0,0,0,82.073,99.368Z" fill="#061720"/>
      <path d="M95.75,65H93.244c4.437-7.958,10.683-20.97,12.3-33.6a1.75,1.75,0,0,0-2.409-1.838A53.689,53.689,0,0,0,89.45,38.337a101.49,101.49,0,0,0,1.155-23.7,1.75,1.75,0,0,0-2.892-1.185A72.73,72.73,0,0,0,74.018,29.934,101.76,101.76,0,0,0,65.545,5.678a1.75,1.75,0,0,0-3.09,0C62.028,6.481,52,25.588,52,47.73A76.708,76.708,0,0,0,54.012,65H49.883c-6.325-14.594-9.679-31.582-9.2-46.406a69.391,69.391,0,0,1,8.11,9.782,1.75,1.75,0,1,0,2.878-1.992A69.327,69.327,0,0,0,40.288,13.449,1.75,1.75,0,0,0,37.4,14.634a101.5,101.5,0,0,0,1.156,23.717,53.74,53.74,0,0,0-13.688-8.786,1.751,1.751,0,0,0-2.41,1.838c1.619,12.629,7.866,25.64,12.3,33.6H32.25a1.751,1.751,0,0,0-1.75,1.75v3a4.752,4.752,0,0,0,3.7,4.624l3.208,20.65a1.75,1.75,0,0,0,1.727,1.482,1.787,1.787,0,0,0,.271-.021,1.751,1.751,0,0,0,1.461-2L37.763,74.5H64A1.75,1.75,0,0,0,64,71H35.25A1.252,1.252,0,0,1,34,69.749V68.5H94v1.25A1.252,1.252,0,0,1,92.75,71H81.667a1.75,1.75,0,0,0,0,3.5h8.57l-4.926,31.714a4.226,4.226,0,0,1-4.2,3.6H46.89a4.278,4.278,0,0,1-4.2-3.6l-.582-3.749a1.75,1.75,0,1,0-3.459.537l.582,3.748a7.727,7.727,0,0,0,2.27,4.393V121.5a1.751,1.751,0,0,0,1.75,1.75h6A1.751,1.751,0,0,0,51,121.5v-8.19h8.25v8.19A1.751,1.751,0,0,0,61,123.25h6a1.75,1.75,0,0,0,1.75-1.75v-8.19H77v8.19a1.75,1.75,0,0,0,1.75,1.75h6a1.75,1.75,0,0,0,1.75-1.75V111.141a7.721,7.721,0,0,0,2.27-4.392L93.8,74.373a4.751,4.751,0,0,0,3.7-4.624v-3A1.75,1.75,0,0,0,95.75,65Zm5.808-30.82C99.816,43.328,95.505,54.107,89.219,65h-7.3A118.2,118.2,0,0,0,88.407,43.98,60.107,60.107,0,0,1,101.558,34.179ZM87.317,18.593C87.8,33.418,84.442,50.406,78.117,65H73.988A76.708,76.708,0,0,0,76,47.73a81.581,81.581,0,0,0-1.014-12.565A75.351,75.351,0,0,1,87.317,18.593ZM55.5,47.73c0-16.059,5.683-30.821,8.5-37.152,2.817,6.331,8.5,21.093,8.5,37.152A73.422,73.422,0,0,1,70.386,65H57.614A73.475,73.475,0,0,1,55.5,47.73ZM26.441,34.179a60.087,60.087,0,0,1,13.152,9.8A118.261,118.261,0,0,0,46.079,65h-7.3C32.5,54.109,28.185,43.33,26.441,34.179ZM47.5,119.75H45v-6.675a7.853,7.853,0,0,0,1.89.235h.61Zm17.75,0h-2.5v-6.44h2.5Zm17.75,0H80.5v-6.44h.61a7.853,7.853,0,0,0,1.89-.235Z" fill="#061720"/>
      <path d="M75.333,74.5a1.75,1.75,0,0,0,0-3.5H70.417a1.75,1.75,0,0,0,0,3.5Z" fill="#061720"/>
    </g>
  </g>
</svg>
