<svg xmlns="http://www.w3.org/2000/svg" width="128" height="128" viewBox="0 0 128 128">
  <title>RACK</title>
  <g>
    <g>
      <rect x="31" y="50.002" width="18" height="17" fill="#d58559"/>
      <rect x="55" y="50.002" width="18" height="17" fill="#d58559"/>
      <rect x="79" y="50.002" width="18" height="17" fill="#d58559"/>
      <rect x="31" y="85.309" width="18" height="17" fill="#d58559"/>
      <rect x="55" y="85.309" width="18" height="17" fill="#d58559"/>
      <rect x="79" y="85.309" width="18" height="17" fill="#d58559"/>
      <rect x="11" y="99.309" width="106" height="6" fill="#f2a66c"/>
      <rect x="11" y="64.002" width="106" height="6" fill="#f2a66c"/>
      <rect x="37" y="50.002" width="6" height="6" fill="#663325"/>
      <rect x="11" y="28.694" width="106" height="6" fill="#f2a66c"/>
      <rect x="8" y="6.5" width="6" height="112.875" fill="#663325"/>
      <path d="M9.5,115.5h3a3,3,0,0,1,3,3v3a0,0,0,0,1,0,0h-9a0,0,0,0,1,0,0v-3A3,3,0,0,1,9.5,115.5Z" fill="#4f2217"/>
      <rect x="114" y="6.5" width="6" height="112.875" fill="#663325"/>
      <path d="M115.5,115.5h3a3,3,0,0,1,3,3v3a0,0,0,0,1,0,0h-9a0,0,0,0,1,0,0v-3A3,3,0,0,1,115.5,115.5Z" fill="#4f2217"/>
      <rect x="61" y="50.002" width="6" height="6" fill="#663325"/>
      <rect x="85" y="50.002" width="6" height="6" fill="#663325"/>
      <rect x="37" y="85.309" width="6" height="6" fill="#663325"/>
      <rect x="61" y="85.309" width="6" height="6" fill="#663325"/>
      <rect x="85" y="85.309" width="6" height="6" fill="#663325"/>
    </g>
    <g>
      <path d="M120,20a1.749,1.749,0,0,0-1.75,1.75v4.125a1.75,1.75,0,0,0,3.5,0V21.75A1.749,1.749,0,0,0,120,20Z" fill="#061720"/>
      <path d="M121.75,115.054V32.375a1.75,1.75,0,0,0-3.5,0V113.75h-2.5V8.25h2.5v8.5a1.75,1.75,0,0,0,3.5,0V6.5A1.749,1.749,0,0,0,120,4.75h-6a1.749,1.749,0,0,0-1.75,1.75V26.944H15.75V6.5A1.75,1.75,0,0,0,14,4.75H8A1.75,1.75,0,0,0,6.25,6.5V115.054a4.729,4.729,0,0,0-1.5,3.446v3a1.75,1.75,0,0,0,1.75,1.75h9a1.75,1.75,0,0,0,1.75-1.75v-3a4.729,4.729,0,0,0-1.5-3.446V107.06h96.5v7.994a4.729,4.729,0,0,0-1.5,3.446v3a1.749,1.749,0,0,0,1.75,1.75h9a1.749,1.749,0,0,0,1.75-1.75v-3A4.729,4.729,0,0,0,121.75,115.054Zm-35-27.994h2.5v2.5h-2.5Zm-1.75,6h6a1.75,1.75,0,0,0,1.75-1.75V87.06h2.5v4.25a1.75,1.75,0,0,0,3.5,0v-6A1.749,1.749,0,0,0,97,83.56H79a1.749,1.749,0,0,0-1.75,1.75V97.56h-2.5V85.31A1.749,1.749,0,0,0,73,83.56H55a1.75,1.75,0,0,0-1.75,1.75V97.56h-2.5V85.31A1.75,1.75,0,0,0,49,83.56H31a1.75,1.75,0,0,0-1.75,1.75V97.56H15.75V71.752H24.5a1.75,1.75,0,0,0,0-3.5H15.75v-2.5h96.5v2.5h-77a1.75,1.75,0,0,0,0,3.5h77V97.56H80.75V87.06h2.5v4.25A1.75,1.75,0,0,0,85,93.06Zm-28.25,4.5V87.06h2.5v4.25A1.751,1.751,0,0,0,61,93.06h6a1.75,1.75,0,0,0,1.75-1.75V87.06h2.5v10.5Zm6-10.5h2.5v2.5h-2.5Zm-30,10.5V87.06h2.5v4.25A1.751,1.751,0,0,0,37,93.06h6a1.751,1.751,0,0,0,1.75-1.75V87.06h2.5v10.5Zm6-10.5h2.5v2.5h-2.5Zm73.5-24.808H98.75V50A1.749,1.749,0,0,0,97,48.25H79A1.749,1.749,0,0,0,77.25,50V62.252h-2.5V50A1.749,1.749,0,0,0,73,48.25H55A1.75,1.75,0,0,0,53.25,50V62.252h-2.5V50A1.75,1.75,0,0,0,49,48.25H31A1.75,1.75,0,0,0,29.25,50V62.252H15.75V36.444h96.5Zm-23-10.5v2.5h-2.5v-2.5Zm-4.25,6h6A1.749,1.749,0,0,0,92.75,56V51.75h2.5v10.5H80.75V51.75h2.5V56A1.749,1.749,0,0,0,85,57.752Zm-19.75-6v2.5h-2.5v-2.5Zm-4.25,6h6A1.749,1.749,0,0,0,68.75,56V51.75h2.5v10.5H56.75V51.75h2.5V56A1.75,1.75,0,0,0,61,57.752Zm-19.75-6v2.5h-2.5v-2.5Zm-4.25,6h6A1.75,1.75,0,0,0,44.75,56V51.75h2.5v10.5H32.75V51.75h2.5V56A1.75,1.75,0,0,0,37,57.752Zm75.25-27.308v2.5H15.75v-2.5ZM12.25,8.25v105.5H9.75V8.25Zm1.5,111.5H8.25V118.5a1.252,1.252,0,0,1,1.25-1.25h3a1.252,1.252,0,0,1,1.25,1.25Zm2-16.19v-2.5h96.5v2.5Zm104,16.19h-5.5V118.5a1.252,1.252,0,0,1,1.25-1.25h3a1.252,1.252,0,0,1,1.25,1.25Z" fill="#061720"/>
    </g>
  </g>
</svg>
