<svg xmlns="http://www.w3.org/2000/svg" width="128" height="128" viewBox="0 0 128 128">
  <title>ROCKING CHAIR</title>
  <g>
    <g>
      <g>
        <rect x="93.81" y="81.494" width="6" height="35.083" transform="translate(-11.391 12.59) rotate(-7.029)" fill="#4f2217"/>
        <rect x="16.979" y="93.586" width="35.083" height="6" transform="translate(-67.017 111.097) rotate(-78.466)" fill="#4f2217"/>
      </g>
      <path d="M97.286,80.328l-.09-4.494a8.992,8.992,0,0,0-8.343-8.8c-13.859-.995-41.76-1.416-55.848,1.7l.852,13.844Z" fill="#3ea7fb"/>
      <path d="M87.62,81.456l-5.99-.39c.02-.21,1.12-17.98-2.17-31.57,2.21-.05,4.26-.09,6.13-.11C88.73,63.626,87.68,80.606,87.62,81.456Z" fill="#4f2217"/>
      <path d="M35.259,54.654,34.087,45.73C58.86,42.477,94.69,42.7,96.205,42.7l-.022,3.055a5.993,5.993,0,0,1-5.951,5.957C78.887,51.794,53.564,52.251,35.259,54.654Z" fill="#4f2217"/>
      <path d="M33.536,85.482a3,3,0,0,1-3.186-3.023l.015-1.612c.312-32.5-5.168-55.99-8.014-65.939a5.99,5.99,0,0,1,3.683-7.257L29.13,6.5c.42,1.13,9.951,27.26,10.241,69.658,24.161-.97,60.9.908,62.556.99l-.157,3.03a5.994,5.994,0,0,1-6.243,5.685c-12.605-.542-42.357-1.6-60.382-.482Z" fill="#663325"/>
      <path d="M64,121.5c-.3,0-31.295-.456-47.486-6.123l1.1-3.157a5.983,5.983,0,0,1,7.024-3.859C38.635,111.694,60.1,112.5,64,112.5s25.365-.806,39.358-4.139a5.983,5.983,0,0,1,7.024,3.859l1.1,3.157C95.3,121.044,64.3,121.5,64,121.5Z" fill="#663325"/>
    </g>
    <g>
      <path d="M26.108,32.745a1.836,1.836,0,0,0,.328-.03,1.751,1.751,0,0,0,1.394-2.046q-.337-1.782-.679-3.427a1.75,1.75,0,1,0-3.427.709q.333,1.615.667,3.37A1.75,1.75,0,0,0,26.108,32.745Z" fill="#061720"/>
      <path d="M113.138,114.8l-1.105-3.157a7.709,7.709,0,0,0-9.08-4.984c-.133.032-.276.062-.411.094l-2.511-20.417a7.754,7.754,0,0,0,3.487-6.066l.157-3.03a1.784,1.784,0,0,0-.487-1.265,1.84,1.84,0,0,0-1.248-.578c-.7-.035-1.738-.086-3.027-.146a10.674,10.674,0,0,0-9.549-9.91,115.261,115.261,0,0,0-1.221-11.861c.729-.008,1.432-.014,2.1-.019a7.765,7.765,0,0,0,7.69-7.689l.02-3.059A1.75,1.75,0,0,0,96.2,40.95h-.27c-6.282-.008-12.166.072-16,.149a1.75,1.75,0,0,0,.035,3.5h.035c3.508-.072,8.726-.19,14.434-.151l-.009,1.3a4.252,4.252,0,0,1-4.213,4.211c-11.479.086-32.933.511-50.266,2.373q-.26-2.806-.564-5.46c8.813-.95,19.489-1.641,31.829-2.044a1.75,1.75,0,1,0-.114-3.5c-12.447.408-23.223,1.106-32.131,2.068-2.949-23.142-7.91-36.725-8.2-37.509a1.752,1.752,0,0,0-2.25-1.031l-3.1,1.151a7.779,7.779,0,0,0-4.756,9.38c.688,2.4,1.361,5.009,2,7.746a1.75,1.75,0,0,0,3.408-.795c-.651-2.793-1.338-5.455-2.041-7.914a4.261,4.261,0,0,1,2.609-5.136l1.42-.527c2.125,6.409,9.307,30.744,9.558,67.405a1.749,1.749,0,0,0,1.82,1.737c21.092-.849,52.284.507,60.648.905l-.066,1.276a4.271,4.271,0,0,1-4.42,4.027c-12.139-.523-42.34-1.615-60.567-.479l-1.609.1A1.246,1.246,0,0,1,32.1,82.476l.015-1.612a261.773,261.773,0,0,0-3.25-44.307,1.75,1.75,0,1,0-3.455.56,258.22,258.22,0,0,1,3.2,43.714L28.6,82.442a4.713,4.713,0,0,0,3.049,4.471L27.5,107.2c-.839-.173-1.661-.353-2.456-.543a7.714,7.714,0,0,0-9.08,4.984L14.862,114.8a1.748,1.748,0,0,0,1.074,2.229C32.386,122.786,63.7,123.25,64,123.25s31.614-.464,48.064-6.222A1.748,1.748,0,0,0,113.138,114.8ZM95.391,75.092c-1.717-.074-3.662-.154-5.809-.236.013-1.7,0-3.723-.067-5.968A7.2,7.2,0,0,1,95.391,75.092Zm-9.309-.365c-.82-.029-1.663-.057-2.521-.086a125.127,125.127,0,0,0-1.5-21.076q1.306-.024,2.538-.042A129.211,129.211,0,0,1,86.082,74.727Zm-7.556-21.09A98.62,98.62,0,0,1,79.8,64.81c-7-.26-24.793-.689-38.949.916-.148-3.427-.351-6.735-.6-9.905C52.6,54.491,67.1,53.9,78.526,53.637ZM41.1,74.342c-.023-1.733-.066-3.427-.118-5.1,11.586-1.333,27.358-1.365,38.99-.918.083,2.329.1,4.442.087,6.211C68,74.171,53.248,73.932,41.1,74.342ZM95.786,87.618a7.6,7.6,0,0,0,.87-.054l2.449,19.911c-.793.152-1.611.3-2.461.444L94.139,87.555l1.313.055C95.564,87.615,95.675,87.618,95.786,87.618Zm-60.61-.484.077,0c.809-.05,1.649-.095,2.5-.137l-4.34,21.261q-1.251-.192-2.473-.4ZM64.007,119.75c-.293,0-28.976-.431-45.253-5.478l.517-1.474a4.219,4.219,0,0,1,4.965-2.735C38.57,113.478,60.552,114.25,64,114.25c2.038,0,7.814-.194,14.643-.716a1.75,1.75,0,0,0-.267-3.49c-6.731.515-12.39.706-14.376.706a260.687,260.687,0,0,1-27.113-2l4.471-21.9c15.785-.536,36.908.09,49.237.568l2.589,21.046c-1.513.219-3.089.427-4.744.621a1.751,1.751,0,0,0,.41,3.477,133.178,133.178,0,0,0,14.914-2.493,4.218,4.218,0,0,1,4.965,2.735l.517,1.474C92.969,119.319,64.286,119.748,64.007,119.75Z" fill="#061720"/>
    </g>
  </g>
</svg>
