<svg xmlns="http://www.w3.org/2000/svg" width="128" height="128" viewBox="0 0 128 128">
  <title>SHIRT</title>
  <g>
    <g>
      <path d="M112.5,49.33l-16-7.5L98,121.5H30l1.5-79.67-16,7.5L6.13,24.19,35.55,7.99A11.942,11.942,0,0,1,41.34,6.5H49A44.6,44.6,0,0,0,58.44,8c3.1.23,5.56.25,5.56.25s2.46-.02,5.56-.25A44.6,44.6,0,0,0,79,6.5h7.66a11.942,11.942,0,0,1,5.79,1.49l29.42,16.2Z" fill="#f5502f"/>
      <path d="M85,6.5a20.02,20.02,0,0,1-20,20H63a20.02,20.02,0,0,1-20-20h6A44.6,44.6,0,0,0,58.44,8c3.1.23,5.56.25,5.56.25s2.46-.02,5.56-.25A44.6,44.6,0,0,0,79,6.5Z" fill="#ededf9"/>
      <path d="M79,6.5a14,14,0,0,1-14,14H63a14,14,0,0,1-14-14A44.6,44.6,0,0,0,58.44,8c3.1.23,5.56.25,5.56.25s2.46-.02,5.56-.25A44.6,44.6,0,0,0,79,6.5Z" fill="#d63922"/>
    </g>
    <g>
      <path d="M122.714,22.657,93.3,6.459A13.733,13.733,0,0,0,86.66,4.75H79a1.75,1.75,0,0,0-.542.086,41.361,41.361,0,0,1-9.027,1.419c-3,.223-5.421.245-5.417.245-.024,0-2.437-.022-5.445-.245a41.361,41.361,0,0,1-9.027-1.419A1.75,1.75,0,0,0,49,4.75H41.34a13.727,13.727,0,0,0-6.634,1.707l-29.42,16.2a1.749,1.749,0,0,0-.8,2.144l3.494,9.374a1.75,1.75,0,1,0,3.28-1.222L8.3,24.994,36.4,9.521A10.226,10.226,0,0,1,41.337,8.25a21.483,21.483,0,0,0,1.317,5.941,1.749,1.749,0,0,0,1.637,1.13,1.727,1.727,0,0,0,.619-.114,1.749,1.749,0,0,0,1.016-2.256,17.9,17.9,0,0,1-1.066-4.7h2.524A15.746,15.746,0,0,0,63,22.25h2a15.769,15.769,0,0,0,15.647-14h2.514A18.271,18.271,0,0,1,65,24.75H63a18.194,18.194,0,0,1-12.277-4.758,1.75,1.75,0,0,0-2.356,2.588A21.688,21.688,0,0,0,63,28.25h2a21.774,21.774,0,0,0,21.673-20,10.227,10.227,0,0,1,4.933,1.272l28.1,15.471-8.18,21.945L98.229,40.708l-.1-5.406a1.75,1.75,0,0,0-3.5.067l.455,24.167a1.75,1.75,0,0,0,1.749,1.717h.033a1.748,1.748,0,0,0,1.717-1.782L98.3,44.608l13.454,6.307a1.751,1.751,0,0,0,2.383-.974l9.37-25.14A1.749,1.749,0,0,0,122.714,22.657ZM65,18.75H63A12.254,12.254,0,0,1,50.987,8.81a59.106,59.106,0,0,0,7.324.935c3.121.232,5.572.254,5.7.255.1,0,2.554-.023,5.675-.255a58.788,58.788,0,0,0,7.336-.938A12.265,12.265,0,0,1,65,18.75Z" fill="#061720"/>
      <path d="M97.12,74.75A1.749,1.749,0,0,0,95.4,76.532l.814,43.218H31.783l1.589-84.381a1.749,1.749,0,0,0-1.716-1.783A1.725,1.725,0,0,0,29.873,35.3l-.1,5.406L16.477,46.939,14.748,42.3a1.75,1.75,0,1,0-3.279,1.222l2.391,6.417a1.751,1.751,0,0,0,2.383.974L29.7,44.608,28.25,121.467A1.75,1.75,0,0,0,30,123.25H98a1.75,1.75,0,0,0,1.75-1.783l-.848-45A1.766,1.766,0,0,0,97.12,74.75Z" fill="#061720"/>
      <path d="M97.032,71.873h.034a1.749,1.749,0,0,0,1.716-1.783L98.688,65.1a1.731,1.731,0,0,0-1.783-1.717,1.749,1.749,0,0,0-1.716,1.783l.094,5A1.75,1.75,0,0,0,97.032,71.873Z" fill="#061720"/>
      <path d="M36.293,107.762a1.749,1.749,0,0,0,1.749-1.717l.109-5.762a1.75,1.75,0,0,0-3.5-.065l-.109,5.761a1.75,1.75,0,0,0,1.717,1.783Z" fill="#061720"/>
    </g>
  </g>
</svg>
