<svg xmlns="http://www.w3.org/2000/svg" width="128" height="128" viewBox="0 0 128 128">
  <title>SINGLE BED</title>
  <g>
    <g>
      <rect x="21.75" y="31.192" width="84.5" height="34.975" fill="#4f2217"/>
      <path d="M49,49.808H79a3,3,0,0,1,3,3V67.833a0,0,0,0,1,0,0H46a0,0,0,0,1,0,0V52.808A3,3,0,0,1,49,49.808Z" fill="#dddde3"/>
      <rect x="103.808" y="24.192" width="6" height="44.787" fill="#663325"/>
      <rect x="18.192" y="24.192" width="6" height="44.787" fill="#663325"/>
      <rect x="103.808" y="88.808" width="9" height="15" fill="#663325"/>
      <rect x="15.192" y="88.808" width="9" height="15" fill="#663325"/>
      <path d="M6.5,70.808v21h115v-21a9,9,0,0,0-9-9h-97A9,9,0,0,0,6.5,70.808Z" fill="#ededf9"/>
      <rect x="6.5" y="85.808" width="115" height="6" fill="#dddde3"/>
    </g>
    <g>
      <path d="M109.81,37.625a1.749,1.749,0,0,0-1.75,1.75V43.5a1.75,1.75,0,0,0,3.5,0V39.375A1.75,1.75,0,0,0,109.81,37.625Z" fill="#061720"/>
      <path d="M112.5,60.058h-.94V48.723a1.75,1.75,0,0,0-3.5,0V60.058h-2.5V25.94h2.5v7.935a1.75,1.75,0,0,0,3.5,0V24.19a1.751,1.751,0,0,0-1.75-1.75h-6a1.75,1.75,0,0,0-1.75,1.75v5.25H25.94V24.19a1.751,1.751,0,0,0-1.75-1.75h-6a1.751,1.751,0,0,0-1.75,1.75V60.058H15.5A10.762,10.762,0,0,0,4.75,70.808v21a1.751,1.751,0,0,0,1.75,1.75h6.94V103.81a1.751,1.751,0,0,0,1.75,1.75h9a1.751,1.751,0,0,0,1.75-1.75V93.558h85.12v8.5h-5.5v-1.935a1.75,1.75,0,0,0-3.5,0v3.685a1.75,1.75,0,0,0,1.75,1.75h9a1.751,1.751,0,0,0,1.75-1.75V93.558h6.94a1.75,1.75,0,0,0,1.75-1.75v-21A10.762,10.762,0,0,0,112.5,60.058ZM19.94,25.94h2.5V60.058h-2.5ZM15.5,63.558H30.167a1.75,1.75,0,0,0,0-3.5H25.94V32.94h76.12V60.058H83.75V52.81A4.756,4.756,0,0,0,79,48.06H49a4.756,4.756,0,0,0-4.75,4.75v7.248h-4a1.75,1.75,0,0,0,0,3.5H112.5a7.258,7.258,0,0,1,7.25,7.25v13.25H8.25V70.808A7.258,7.258,0,0,1,15.5,63.558Zm32.25-3.5V52.81A1.252,1.252,0,0,1,49,51.56H79a1.252,1.252,0,0,1,1.25,1.25v7.248Zm-25.31,42h-5.5v-8.5h5.5Zm-14.19-12v-2.5h111.5v2.5Z" fill="#061720"/>
      <path d="M12.5,80.958a1.75,1.75,0,0,0,1.75-1.75V74.625a1.75,1.75,0,0,0-3.5,0v4.583A1.75,1.75,0,0,0,12.5,80.958Z" fill="#061720"/>
    </g>
  </g>
</svg>
