<svg xmlns="http://www.w3.org/2000/svg" width="128" height="128" viewBox="0 0 128 128">
  <title>SLEEPING HAT</title>
  <g>
    <g>
      <path d="M18.137,103.427C28.979,25.68,54.25,6.5,75.048,6.5c14,0,22.661,9.791,32.031,22.311l-4.415,2.506C96.33,27.94,83.5,30.816,85.4,43.312s17.133,47.62,24.467,60.115V109H18.137Z" fill="#b360e6"/>
      <path d="M42.64,39.19a8.95,8.95,0,0,1-6.25-2.54,79.513,79.513,0,0,1,9.53-14.84,9,9,0,0,1-3.28,17.38Z" fill="#f9d42f"/>
      <path d="M66.64,103.5a11.976,11.976,0,0,1-1.33,5.5H43.97a12,12,0,1,1,22.67-5.5Z" fill="#f9d42f"/>
      <path d="M94.08,69.7A12,12,0,1,1,85.81,49c.3,0,.6.01.9.04A216.161,216.161,0,0,0,94.08,69.7Z" fill="#f9d42f"/>
      <circle cx="105.363" cy="30.192" r="6" fill="#ededf9"/>
      <circle cx="44.015" cy="70.417" r="6" fill="#f9d42f"/>
      <circle cx="67.31" cy="39.937" r="4.5" fill="#f9d42f"/>
      <rect x="15.346" y="103.5" width="97.308" height="18" rx="3" fill="#ededf9"/>
    </g>
    <g>
      <path d="M21.275,84.464a1.781,1.781,0,0,0,.346.035,1.752,1.752,0,0,0,1.714-1.407q.4-2.013.822-3.959a1.75,1.75,0,0,0-3.422-.736q-.423,1.971-.832,4.007A1.751,1.751,0,0,0,21.275,84.464Z" fill="#061720"/>
      <path d="M97.846,95.138a1.75,1.75,0,0,0,1.575-2.508c-.764-1.591-1.546-3.25-2.336-4.959a1.75,1.75,0,1,0-3.177,1.469c.8,1.725,1.587,3.4,2.359,5.006A1.751,1.751,0,0,0,97.846,95.138Z" fill="#061720"/>
      <path d="M51.765,70.417a7.75,7.75,0,1,0-7.75,7.75A7.758,7.758,0,0,0,51.765,70.417Zm-12,0a4.25,4.25,0,1,1,4.25,4.25A4.255,4.255,0,0,1,39.765,70.417Z" fill="#061720"/>
      <path d="M73.56,39.938a6.25,6.25,0,1,0-6.25,6.25A6.257,6.257,0,0,0,73.56,39.938Zm-9,0a2.75,2.75,0,1,1,2.75,2.75A2.752,2.752,0,0,1,64.56,39.938Z" fill="#061720"/>
      <path d="M111.047,101.983c-7.468-12.99-22.108-46.969-23.917-58.937-.551-3.621.219-6.482,2.289-8.5a11.058,11.058,0,0,1,8.362-2.751,7.749,7.749,0,1,0,7.582-9.349,7.845,7.845,0,0,0-.938.063C95.855,11.819,87.485,4.75,75.05,4.75c-16.8,0-39.64,11.771-53,67.844a1.75,1.75,0,0,0,1.3,2.108,1.78,1.78,0,0,0,.407.048,1.752,1.752,0,0,0,1.7-1.345c3.356-14.087,7.288-25.258,11.541-34.081A10.637,10.637,0,0,0,42.64,40.94a10.744,10.744,0,0,0,6.006-19.656C57.678,11.207,67.105,8.25,75.05,8.25c10.717,0,18.243,6.153,25.931,15.557a7.77,7.77,0,0,0-3.122,4.483,14.628,14.628,0,0,0-10.884,3.748,11.39,11.39,0,0,0-1.745,2.189c-.6-4.519-.706-8.949.395-11.7a1.75,1.75,0,0,0-3.25-1.3c-2.792,6.98.527,20.728,2.014,26.1A13.75,13.75,0,0,0,85.81,74.75c.341,0,.68-.012,1.015-.037a1.75,1.75,0,0,0-.256-3.49q-.377.027-.759.027a10.244,10.244,0,0,1-.418-20.479c4.3,14.556,14.829,38.743,21.513,50.979H68.266a13.736,13.736,0,0,0-27.252,0H20.151c.647-4.483,1.353-8.862,2.11-13.031a1.75,1.75,0,1,0-3.444-.626C18,92.569,17.249,97.28,16.563,102.1a4.752,4.752,0,0,0-2.967,4.4v12a4.756,4.756,0,0,0,4.75,4.75H90.5a1.75,1.75,0,0,0,0-3.5H18.346a1.252,1.252,0,0,1-1.25-1.25v-12a1.252,1.252,0,0,1,1.25-1.25h91.308a1.252,1.252,0,0,1,1.25,1.25v12a1.252,1.252,0,0,1-1.25,1.25H99.625a1.75,1.75,0,0,0,0,3.5h10.029a4.756,4.756,0,0,0,4.75-4.75v-12A4.739,4.739,0,0,0,111.047,101.983ZM49.89,30.19a7.258,7.258,0,0,1-7.25,7.25,7.161,7.161,0,0,1-4.065-1.26,77.679,77.679,0,0,1,7.8-12.2A7.193,7.193,0,0,1,49.89,30.19Zm59.723,0a4.25,4.25,0,1,1-4.25-4.25A4.254,4.254,0,0,1,109.613,30.192ZM54.64,93.25a10.259,10.259,0,0,1,10.089,8.5H44.551A10.259,10.259,0,0,1,54.64,93.25Z" fill="#061720"/>
      <path d="M25.76,109.5v6a1.75,1.75,0,0,0,3.5,0v-6a1.75,1.75,0,0,0-3.5,0Z" fill="#061720"/>
      <path d="M37.923,109.5v6a1.75,1.75,0,0,0,3.5,0v-6a1.75,1.75,0,0,0-3.5,0Z" fill="#061720"/>
      <path d="M50.086,109.5v6a1.75,1.75,0,0,0,3.5,0v-6a1.75,1.75,0,0,0-3.5,0Z" fill="#061720"/>
      <path d="M62.25,109.5v6a1.75,1.75,0,0,0,3.5,0v-6a1.75,1.75,0,0,0-3.5,0Z" fill="#061720"/>
      <path d="M74.414,109.5v6a1.75,1.75,0,0,0,3.5,0v-6a1.75,1.75,0,0,0-3.5,0Z" fill="#061720"/>
      <path d="M86.577,109.5v6a1.75,1.75,0,0,0,3.5,0v-6a1.75,1.75,0,0,0-3.5,0Z" fill="#061720"/>
      <path d="M102.24,115.5v-6a1.75,1.75,0,0,0-3.5,0v6a1.75,1.75,0,0,0,3.5,0Z" fill="#061720"/>
    </g>
  </g>
</svg>
