<svg xmlns="http://www.w3.org/2000/svg" width="128" height="128" viewBox="0 0 128 128">
  <title>SLEEP</title>
  <g>
    <g>
      <rect x="115.5" y="96.154" width="6" height="16.5" fill="#f2a66c"/>
      <rect x="115.5" y="73.987" width="6" height="20.442" fill="#f2a66c"/>
      <rect x="6.5" y="61.179" width="6" height="37.333" fill="#f2a66c"/>
      <rect x="6.5" y="96.154" width="6" height="16.5" fill="#f2a66c"/>
      <circle cx="96.94" cy="32.846" r="17.5" fill="#3ea7fb"/>
      <path d="M18.5,79.987H32.348a6,6,0,0,1,6,6v8a0,0,0,0,1,0,0H12.5a0,0,0,0,1,0,0v-8A6,6,0,0,1,18.5,79.987Z" fill="#dddde3"/>
      <rect x="6.5" y="91.987" width="115" height="9" fill="#663325"/>
      <path d="M44.348,79.987h65.063a6,6,0,0,1,6,6v15a0,0,0,0,1,0,0H38.348a0,0,0,0,1,0,0v-15a6,6,0,0,1,6-6Z" fill="#ededf9"/>
    </g>
    <g>
      <path d="M121.5,79.25a1.75,1.75,0,0,0,1.75-1.75V73.987a1.751,1.751,0,0,0-1.75-1.75h-6a1.751,1.751,0,0,0-1.75,1.75v5.582a7.706,7.706,0,0,0-4.339-1.332H70.5a1.75,1.75,0,0,0,0,3.5h38.911a4.255,4.255,0,0,1,4.25,4.25v13.25H40.1l0-13.247v-.018a4.255,4.255,0,0,1,4.249-4.235h8.527a1.75,1.75,0,0,0,0-3.5H44.348a7.734,7.734,0,0,0-6,2.853,7.737,7.737,0,0,0-6-2.85H18.5a7.7,7.7,0,0,0-4.25,1.277V61.18a1.75,1.75,0,0,0-1.75-1.75h-6a1.75,1.75,0,0,0-1.75,1.75v51.474A1.75,1.75,0,0,0,6.5,114.4h6a1.75,1.75,0,0,0,1.75-1.75V102.74h99.5v9.914a1.75,1.75,0,0,0,1.75,1.75h6a1.75,1.75,0,0,0,1.75-1.75V86.167a1.75,1.75,0,0,0-3.5,0v4.07h-2.5v-14.5h2.5V77.5A1.75,1.75,0,0,0,121.5,79.25ZM8.25,99.237v-5.5H36.6v5.5Zm108.911,0v-5.5h2.589v5.5ZM18.5,81.74H32.35A4.253,4.253,0,0,1,36.6,85.973V90.24H14.25V85.99A4.255,4.255,0,0,1,18.5,81.74ZM8.25,62.93h2.5V90.24H8.25Zm2.5,47.974H8.25V102.74h2.5Zm106.5,0V102.74h2.5V110.9Z" fill="#061720"/>
      <polygon points="44.916 62.323 41.31 62.323 44.889 58.332 44.889 56.914 38.792 56.914 38.792 58.621 42.273 58.621 38.695 62.613 38.695 64.03 44.916 64.03 44.916 62.323" fill="#061720"/>
      <polygon points="59.591 54.084 53.319 54.084 59.543 47.141 59.543 44.675 48.938 44.675 48.938 47.644 54.995 47.644 48.77 54.587 48.77 57.052 59.591 57.052 59.591 54.084" fill="#061720"/>
      <polygon points="74.075 60.107 67.802 60.107 74.027 53.164 74.027 50.698 63.421 50.698 63.421 53.667 69.478 53.667 63.253 60.61 63.253 63.075 74.075 63.075 74.075 60.107" fill="#061720"/>
      <path d="M96.939,52.1A19.25,19.25,0,1,0,83.678,18.9a1.75,1.75,0,0,0,2.413,2.535A15.688,15.688,0,1,1,81.9,28.168a1.75,1.75,0,0,0-3.341-1.041A19.253,19.253,0,0,0,96.939,52.1Z" fill="#061720"/>
      <path d="M96.939,20.993a1.75,1.75,0,0,0-1.75,1.75v6.806a3.738,3.738,0,0,0,1.75,7.047,3.7,3.7,0,0,0,1.094-.182l2.676,2.676a1.75,1.75,0,1,0,2.475-2.475l-2.676-2.676a3.7,3.7,0,0,0,.181-1.093,3.74,3.74,0,0,0-2-3.3V22.743A1.749,1.749,0,0,0,96.939,20.993Z" fill="#061720"/>
      <path d="M59.5,78.237a1.75,1.75,0,0,0,0,3.5h4.75a1.75,1.75,0,0,0,0-3.5Z" fill="#061720"/>
      <path d="M103.808,96.737a1.75,1.75,0,1,0,0-3.5H98.75a1.75,1.75,0,0,0,0,3.5Z" fill="#061720"/>
    </g>
  </g>
</svg>
