<svg xmlns="http://www.w3.org/2000/svg" width="128" height="128" viewBox="0 0 128 128">
  <title>SLEEPING PILLS</title>
  <g>
    <g>
      <path d="M86.75,31.2V11H30.192V31.2l-4.6,8.669a12,12,0,0,0-1.4,5.625V115.5a6,6,0,0,0,6,6H86.75a6,6,0,0,0,6-6V45.491a12,12,0,0,0-1.4-5.625Z" fill="#3ea7fb"/>
      <rect x="30.191" y="51.88" width="56.56" height="39.8" fill="#ededf9"/>
      <rect x="27.192" y="6.5" width="62.558" height="12" rx="3" fill="#ededf9"/>
      <rect x="30.192" y="18.5" width="56.558" height="6" fill="#0f89cc"/>
    </g>
    <g>
      <path d="M92.75,57.75A1.75,1.75,0,0,0,91,59.5v3.833a1.75,1.75,0,0,0,3.5,0V59.5A1.75,1.75,0,0,0,92.75,57.75Z" fill="#061720"/>
      <path d="M92.9,39.05l-4.4-8.285V19.906a4.749,4.749,0,0,0,3-4.406v-6a4.756,4.756,0,0,0-4.75-4.75H30.192a4.756,4.756,0,0,0-4.75,4.75v6a4.752,4.752,0,0,0,3,4.406V30.765l-4.395,8.283A13.77,13.77,0,0,0,22.44,45.49V115.5a7.759,7.759,0,0,0,7.75,7.75H86.75a7.759,7.759,0,0,0,7.75-7.75V69.25a1.75,1.75,0,0,0-3.5,0V115.5a4.255,4.255,0,0,1-4.25,4.25H30.19a4.255,4.255,0,0,1-4.25-4.25V45.49a10.254,10.254,0,0,1,1.2-4.8l4.6-8.669a1.754,1.754,0,0,0,.2-.821V26.25H70.75a1.75,1.75,0,0,0,0-3.5H31.94v-2.5H85v2.5H80.875a1.75,1.75,0,0,0,0,3.5H85V31.2a1.754,1.754,0,0,0,.2.821l4.6,8.671A10.251,10.251,0,0,1,91,45.49v8.093a1.75,1.75,0,0,0,3.5,0V45.49A13.767,13.767,0,0,0,92.9,39.05ZM28.942,9.5a1.252,1.252,0,0,1,1.25-1.25H86.75A1.252,1.252,0,0,1,88,9.5v6a1.252,1.252,0,0,1-1.25,1.25H30.192a1.252,1.252,0,0,1-1.25-1.25Z" fill="#061720"/>
      <path d="M28.442,103.808v4.525a1.75,1.75,0,0,0,3.5,0v-4.525a1.75,1.75,0,0,0-3.5,0Z" fill="#061720"/>
      <path d="M88.5,91.68V51.88a1.751,1.751,0,0,0-1.75-1.75H49a1.75,1.75,0,0,0,0,3.5H85v36.3H31.941V53.63h6.392a1.75,1.75,0,0,0,0-3.5H30.191a1.751,1.751,0,0,0-1.75,1.75v39.8a1.751,1.751,0,0,0,1.75,1.75h56.56A1.751,1.751,0,0,0,88.5,91.68Z" fill="#061720"/>
      <path d="M37.619,15.75A1.751,1.751,0,0,0,39.369,14V11a1.75,1.75,0,0,0-3.5,0v3A1.75,1.75,0,0,0,37.619,15.75Z" fill="#061720"/>
      <path d="M48.045,15.75A1.751,1.751,0,0,0,49.8,14V11a1.75,1.75,0,0,0-3.5,0v3A1.751,1.751,0,0,0,48.045,15.75Z" fill="#061720"/>
      <path d="M58.471,15.75A1.75,1.75,0,0,0,60.221,14V11a1.75,1.75,0,0,0-3.5,0v3A1.751,1.751,0,0,0,58.471,15.75Z" fill="#061720"/>
      <path d="M68.9,15.75A1.75,1.75,0,0,0,70.647,14V11a1.75,1.75,0,0,0-3.5,0v3A1.751,1.751,0,0,0,68.9,15.75Z" fill="#061720"/>
      <path d="M79.324,15.75A1.751,1.751,0,0,0,81.074,14V11a1.75,1.75,0,0,0-3.5,0v3A1.75,1.75,0,0,0,79.324,15.75Z" fill="#061720"/>
      <polygon points="40.781 81.457 47.002 81.457 47.002 79.751 43.396 79.751 46.975 75.759 46.975 74.342 40.878 74.342 40.878 76.048 44.36 76.048 40.781 80.04 40.781 81.457" fill="#061720"/>
      <polygon points="50.856 74.48 61.677 74.48 61.677 71.511 55.405 71.511 61.63 64.568 61.63 62.102 51.024 62.102 51.024 65.071 57.081 65.071 50.856 72.014 50.856 74.48" fill="#061720"/>
      <polygon points="65.34 80.503 76.161 80.503 76.161 77.534 69.888 77.534 76.113 70.591 76.113 68.125 65.508 68.125 65.508 71.094 71.564 71.094 65.34 78.037 65.34 80.503" fill="#061720"/>
    </g>
  </g>
</svg>
