<svg xmlns="http://www.w3.org/2000/svg" width="128" height="128" viewBox="0 0 128 128">
  <title>SLEEPING MASK</title>
  <g>
    <g>
      <path d="M101.878,84.018l-5.4-2.619,6.448-13.29A28.92,28.92,0,0,0,103.982,45.6a34.445,34.445,0,0,1-.947-20.532l1.953-7.479a3,3,0,0,1,3.661-2.145h0a3,3,0,0,1,2.145,3.661l-1.906,7.3a28.261,28.261,0,0,0,.7,17.057,34.78,34.78,0,0,1-1.262,27.267Z" fill="#f9d42f"/>
      <path d="M26.122,84.018l5.4-2.619-6.448-13.29A28.92,28.92,0,0,1,24.018,45.6a34.445,34.445,0,0,0,.947-20.532l-1.953-7.479a3,3,0,0,0-3.661-2.145h0a3,3,0,0,0-2.145,3.661l1.906,7.3a28.261,28.261,0,0,1-.7,17.057,34.78,34.78,0,0,0,1.262,27.267Z" fill="#f9d42f"/>
      <path d="M64,62.7c-17.816,0-31.2.726-40.555,1.528A18.5,18.5,0,0,0,6.5,82.654h0a30.088,30.088,0,0,0,30,30h5.8a13.519,13.519,0,0,0,11.628-6.623h0A11.708,11.708,0,0,1,64,100.294h0a11.708,11.708,0,0,1,10.072,5.737h0A13.519,13.519,0,0,0,85.7,112.654h5.8a30.088,30.088,0,0,0,30-30h0a18.5,18.5,0,0,0-16.945-18.427C95.2,63.425,81.816,62.7,64,62.7Z" fill="#b360e6"/>
    </g>
    <g>
      <path d="M111.072,48.4a1.751,1.751,0,0,0-1.453,2c.137.858.241,1.737.311,2.611a1.749,1.749,0,0,0,1.742,1.613c.046,0,.093,0,.139-.006a1.749,1.749,0,0,0,1.607-1.881c-.075-.968-.19-1.939-.342-2.888A1.756,1.756,0,0,0,111.072,48.4Z" fill="#061720"/>
      <path d="M112.377,64.7a36.512,36.512,0,0,0,1.043-6.233,1.75,1.75,0,0,0-3.49-.272,33.076,33.076,0,0,1-.82,5.169,20.4,20.4,0,0,0-2.44-.619A31.163,31.163,0,0,0,105.626,45a32.6,32.6,0,0,1-.893-19.491l1.95-7.478a1.248,1.248,0,0,1,2.457.316,1.193,1.193,0,0,1-.043.319l-1.9,7.289a29.8,29.8,0,0,0,.755,18.116q.246.657.462,1.322a1.75,1.75,0,1,0,3.328-1.086q-.24-.738-.513-1.467a26.318,26.318,0,0,1-.645-16l1.9-7.276a4.593,4.593,0,0,0,.161-1.216,4.748,4.748,0,0,0-9.343-1.2l-1.949,7.477a36.088,36.088,0,0,0,.987,21.571,27.6,27.6,0,0,1,.821,16.166C91.648,61.428,78.5,60.949,64,60.949c-4.22,0-8.4.041-12.407.122a1.75,1.75,0,0,0,.034,3.5h.036c3.99-.081,8.141-.122,12.337-.122,15.045,0,28.639.512,40.406,1.522A16.664,16.664,0,0,1,119.75,82.654,28.282,28.282,0,0,1,91.5,110.9H85.7a11.759,11.759,0,0,1-7.913-3.056,1.749,1.749,0,1,0-2.351,2.591A15.238,15.238,0,0,0,85.7,114.4h5.8a31.786,31.786,0,0,0,31.75-31.751A20.1,20.1,0,0,0,112.377,64.7Z" fill="#061720"/>
      <path d="M71.236,100.654a13.46,13.46,0,0,0-18.813,4.485A11.822,11.822,0,0,1,42.3,110.9H36.5A28.282,28.282,0,0,1,8.25,82.653,16.663,16.663,0,0,1,23.594,65.971c5.6-.481,11.732-.854,18.219-1.109a1.751,1.751,0,0,0,1.681-1.817,1.781,1.781,0,0,0-1.817-1.681c-5.958.235-11.6.574-16.833,1A27.611,27.611,0,0,1,25.665,46.2a36.085,36.085,0,0,0,.988-21.567L24.7,17.146a4.747,4.747,0,0,0-9.342,1.2,4.575,4.575,0,0,0,.157,1.2l1.9,7.291a26.322,26.322,0,0,1-.646,16,36.665,36.665,0,0,0-1.155,21.86A20.1,20.1,0,0,0,4.75,82.654,31.786,31.786,0,0,0,36.5,114.4h5.8a15.336,15.336,0,0,0,13.133-7.48,9.962,9.962,0,0,1,13.922-3.319,1.75,1.75,0,1,0,1.881-2.951ZM20.048,44.077A29.8,29.8,0,0,0,20.8,25.959l-1.9-7.3a1.162,1.162,0,0,1-.039-.3,1.247,1.247,0,0,1,.924-1.214,1.261,1.261,0,0,1,1.532.895l1.952,7.485A32.6,32.6,0,0,1,22.374,45a31.163,31.163,0,0,0-1.042,17.744,20.321,20.321,0,0,0-2.421.613A33.127,33.127,0,0,1,20.048,44.077Z" fill="#061720"/>
      <path d="M86.441,67.372q-2.817-.112-5.727-.194h-.051a1.75,1.75,0,0,0-.049,3.5q2.89.081,5.687.194h.071a1.75,1.75,0,0,0,.069-3.5Z" fill="#061720"/>
      <path d="M102.935,87.642a1.749,1.749,0,0,0-2.373-.7,19.2,19.2,0,0,1-16.321,0A1.75,1.75,0,1,0,82.554,90a15.575,15.575,0,0,0,1.815.836l-1.5,3.9a1.75,1.75,0,0,0,3.268,1.254l1.606-4.181a23.415,23.415,0,0,0,2.9.383v4.318a1.75,1.75,0,0,0,3.5,0V92.19a23.658,23.658,0,0,0,2.9-.383l1.607,4.182a1.751,1.751,0,0,0,3.268-1.256l-1.5-3.894a15.8,15.8,0,0,0,1.806-.824A1.75,1.75,0,0,0,102.935,87.642Z" fill="#061720"/>
      <path d="M27.438,86.94a1.75,1.75,0,1,0-1.671,3.075,15.8,15.8,0,0,0,1.806.824l-1.5,3.894a1.751,1.751,0,0,0,3.268,1.256l1.607-4.182a23.658,23.658,0,0,0,2.9.383v4.318a1.75,1.75,0,0,0,3.5,0V92.19a23.415,23.415,0,0,0,2.9-.383l1.606,4.181a1.75,1.75,0,0,0,3.268-1.254l-1.5-3.9A15.575,15.575,0,0,0,45.446,90a1.75,1.75,0,1,0-1.687-3.066A17.538,17.538,0,0,1,35.6,88.758,17.694,17.694,0,0,1,27.438,86.94Z" fill="#061720"/>
    </g>
  </g>
</svg>
