<svg xmlns="http://www.w3.org/2000/svg" width="128" height="128" viewBox="0 0 128 128">
  <title>SLEEPING BAG</title>
  <g>
    <g>
      <path d="M53.72,6.5H74.28a24,24,0,0,1,24,24v79a12,12,0,0,1-12,12H41.72a12,12,0,0,1-12-12v-79a24,24,0,0,1,24-24Z" fill="#b360e6"/>
      <path d="M92.28,30.5V40.51H35.72V30.5a18.021,18.021,0,0,1,18-18H74.28A18.021,18.021,0,0,1,92.28,30.5Z" fill="#f5502f"/>
      <rect x="35.72" y="99.577" width="56.561" height="15.923" rx="6" fill="#d63922"/>
      <rect x="35.72" y="83.654" width="56.561" height="15.923" rx="6" fill="#f5502f"/>
      <rect x="35.72" y="67.731" width="56.561" height="15.923" rx="6" fill="#d63922"/>
      <rect x="35.72" y="51.808" width="56.561" height="15.923" rx="6" fill="#f5502f"/>
      <path d="M80.28,30.5V40.51H47.72V30.5a6,6,0,0,1,6-6H74.28A6,6,0,0,1,80.28,30.5Z" fill="#934acb"/>
      <rect x="35.72" y="35.885" width="56.561" height="15.923" rx="6" fill="#d63922"/>
    </g>
    <g>
      <path d="M74.28,4.75H53.72A25.779,25.779,0,0,0,27.97,30.5V83.25a1.75,1.75,0,0,0,3.5,0V30.5A22.275,22.275,0,0,1,53.72,8.25H74.28A22.275,22.275,0,0,1,96.53,30.5v79a10.261,10.261,0,0,1-10.25,10.25H41.72A10.261,10.261,0,0,1,31.47,109.5V98.75a1.75,1.75,0,0,0-3.5,0V109.5a13.765,13.765,0,0,0,13.75,13.75H86.28a13.765,13.765,0,0,0,13.75-13.75v-79A25.779,25.779,0,0,0,74.28,4.75Z" fill="#061720"/>
      <path d="M29.72,94.917a1.749,1.749,0,0,0,1.75-1.75v-4a1.75,1.75,0,0,0-3.5,0v4A1.749,1.749,0,0,0,29.72,94.917Z" fill="#061720"/>
      <path d="M33.97,105.577V109.5a7.759,7.759,0,0,0,7.75,7.75H86.28a7.759,7.759,0,0,0,7.75-7.75v-3.923a7.738,7.738,0,0,0-2.852-6,7.737,7.737,0,0,0,2.852-6V89.654a7.738,7.738,0,0,0-2.852-6,7.737,7.737,0,0,0,2.852-6V73.731a7.738,7.738,0,0,0-2.852-6,7.737,7.737,0,0,0,2.852-6V57.808a7.737,7.737,0,0,0-2.852-6,7.738,7.738,0,0,0,2.852-6V41.885a7.8,7.8,0,0,0-.062-.936,1.723,1.723,0,0,0,.062-.439V30.5a19.608,19.608,0,0,0-1.554-7.68,1.75,1.75,0,0,0-3.223,1.366A16.1,16.1,0,0,1,90.53,30.5v4.911a7.7,7.7,0,0,0-4.25-1.276H82.03V30.5a7.759,7.759,0,0,0-7.75-7.75H53.72a7.759,7.759,0,0,0-7.75,7.75v3.635H41.72a7.7,7.7,0,0,0-4.25,1.276V30.5A16.269,16.269,0,0,1,53.72,14.25H74.28a16.135,16.135,0,0,1,9.252,2.9,1.75,1.75,0,1,0,2-2.873A19.616,19.616,0,0,0,74.28,10.75H53.72A19.771,19.771,0,0,0,33.97,30.5V40.51a1.723,1.723,0,0,0,.062.439,7.8,7.8,0,0,0-.062.936v3.923a7.738,7.738,0,0,0,2.852,6,7.737,7.737,0,0,0-2.852,6v3.923a7.737,7.737,0,0,0,2.852,6,7.738,7.738,0,0,0-2.852,6v3.923a7.737,7.737,0,0,0,2.852,6,7.738,7.738,0,0,0-2.852,6v3.923a7.737,7.737,0,0,0,2.852,6A7.738,7.738,0,0,0,33.97,105.577ZM49.47,30.5a4.254,4.254,0,0,1,4.25-4.25H74.28a4.254,4.254,0,0,1,4.25,4.25v3.635H49.47Zm-12,15.308V41.885a4.254,4.254,0,0,1,4.25-4.25H86.28a4.254,4.254,0,0,1,4.25,4.25v3.923a4.255,4.255,0,0,1-4.25,4.25H41.72A4.255,4.255,0,0,1,37.47,45.808Zm0,31.846V73.731a4.255,4.255,0,0,1,4.25-4.25H73.561a1.75,1.75,0,0,0,0-3.5H41.72a4.254,4.254,0,0,1-4.25-4.25V57.808a4.254,4.254,0,0,1,4.25-4.25H86.28a4.254,4.254,0,0,1,4.25,4.25v3.923a4.254,4.254,0,0,1-4.25,4.25H83.375a1.75,1.75,0,0,0,0,3.5H86.28a4.255,4.255,0,0,1,4.25,4.25v3.923a4.254,4.254,0,0,1-4.25,4.25H41.72A4.254,4.254,0,0,1,37.47,77.654Zm0,15.923V89.654a4.255,4.255,0,0,1,4.25-4.25H86.28a4.255,4.255,0,0,1,4.25,4.25v3.923a4.254,4.254,0,0,1-4.25,4.25H41.72A4.254,4.254,0,0,1,37.47,93.577Zm48.81,7.75a4.254,4.254,0,0,1,4.25,4.25V109.5a4.254,4.254,0,0,1-4.25,4.25H41.72a4.254,4.254,0,0,1-4.25-4.25v-3.923a4.254,4.254,0,0,1,4.25-4.25Z" fill="#061720"/>
      <path d="M79.562,91.827h-6a1.75,1.75,0,0,0,0,3.5h6a1.75,1.75,0,1,0,0-3.5Z" fill="#061720"/>
    </g>
  </g>
</svg>
