<svg xmlns="http://www.w3.org/2000/svg" width="128" height="128" viewBox="0 0 128 128">
  <title>SLIPPER</title>
  <g>
    <g>
      <path d="M118.483,32.833,108.74,94.182a17.083,17.083,0,0,1-15.247,14.326h0a17.081,17.081,0,0,1-18.7-16.58l-1.547-62.1A22.762,22.762,0,0,1,96,6.5h0A22.763,22.763,0,0,1,118.483,32.833Z" fill="#f5502f"/>
      <path d="M118.194,28.873a3.867,3.867,0,0,1,3.257,4.389l-.006.038-2.754,17.335a3,3,0,0,1-3.376,2.5c-11.781-1.679-28.511-3.119-41.479-2.482a3,3,0,0,1-3.149-2.918L70.245,29.9v-.038a3.819,3.819,0,0,1,3.646-3.9C87.946,25.284,106.409,27.03,118.194,28.873Z" fill="#d63922"/>
      <circle cx="94.917" cy="38.99" r="6" fill="#f9d42f"/>
      <path d="M9.517,45.746,19.26,107.1a17.081,17.081,0,0,0,15.247,14.325h0a17.081,17.081,0,0,0,18.7-16.579l1.547-62.1A22.763,22.763,0,0,0,32,19.413h0A22.763,22.763,0,0,0,9.517,45.746Z" fill="#f5502f"/>
      <path d="M9.806,41.786a3.867,3.867,0,0,0-3.257,4.389l.006.038L9.309,63.548a3,3,0,0,0,3.376,2.5C24.466,64.37,41.2,62.929,54.164,63.567a3,3,0,0,0,3.149-2.918l.442-17.836v-.037a3.82,3.82,0,0,0-3.646-3.9C40.054,38.2,21.591,39.943,9.806,41.786Z" fill="#d63922"/>
      <circle cx="33.083" cy="51.903" r="6" fill="#f9d42f"/>
    </g>
    <g>
      <path d="M122.192,29.427a5.682,5.682,0,0,0-1.72-1.552A24.515,24.515,0,0,0,73.9,18.651a1.75,1.75,0,0,0,3.155,1.517,21.018,21.018,0,0,1,39.83,6.737c-11.536-1.712-29.105-3.363-43.079-2.689A5.549,5.549,0,0,0,68.5,29.943l.442,17.835a4.755,4.755,0,0,0,3.118,4.345l.985,39.852a18.948,18.948,0,0,0,18.8,18.365c.575,0,1.167-.029,1.816-.088a18.829,18.829,0,0,0,16.813-15.8l6.3-39.671a4.768,4.768,0,0,0,3.651-3.875l2.75-17.319c0-.017.006-.034.009-.046A5.474,5.474,0,0,0,122.192,29.427Zm-15.18,64.479a15.326,15.326,0,0,1-13.681,12.861c-.536.049-1.023.073-1.491.073a15.427,15.427,0,0,1-15.3-14.953l-.978-39.549c12.112-.425,26.932.833,37.69,2.28Zm12.727-61c-.009.04-.016.079-.023.119L116.963,50.36a1.245,1.245,0,0,1-1.4,1.043,266.53,266.53,0,0,0-35.03-2.653c-2.319,0-4.581.048-6.745.154-.02,0-.04-.005-.06,0l-.027,0a1.208,1.208,0,0,1-.867-.331,1.232,1.232,0,0,1-.4-.882l-.444-17.87a2.061,2.061,0,0,1,1.982-2.109c13.437-.647,31.757.983,43.949,2.89a2.2,2.2,0,0,1,1.434.878A1.973,1.973,0,0,1,119.739,32.906Z" fill="#061720"/>
      <path d="M94.917,31.24a7.75,7.75,0,1,0,7.75,7.75A7.759,7.759,0,0,0,94.917,31.24Zm0,12a4.25,4.25,0,1,1,4.25-4.25A4.255,4.255,0,0,1,94.917,43.24Z" fill="#061720"/>
      <path d="M17.791,97.851a1.75,1.75,0,0,0,1.454-2l-.534-3.369a1.75,1.75,0,1,0-3.457.548l.534,3.368a1.748,1.748,0,0,0,2,1.455Z" fill="#061720"/>
      <path d="M47.438,97.254a1.749,1.749,0,0,0,1.749-1.706l.137-5.5a1.75,1.75,0,1,0-3.5-.088l-.138,5.5a1.751,1.751,0,0,0,1.706,1.794Z" fill="#061720"/>
      <path d="M56.048,37.556A24.5,24.5,0,0,0,7.529,40.788a5.677,5.677,0,0,0-1.721,1.553,5.459,5.459,0,0,0-.989,4.1c0,.017.006.04.011.063L7.58,63.823A4.767,4.767,0,0,0,11.231,67.7l3.22,20.276a1.751,1.751,0,0,0,1.727,1.476,1.73,1.73,0,0,0,.276-.022,1.75,1.75,0,0,0,1.454-2L14.749,67.531c10.757-1.447,25.577-2.706,37.69-2.279L51.461,104.8a15.427,15.427,0,0,1-15.3,14.955c-.468,0-.955-.024-1.484-.072a15.327,15.327,0,0,1-13.688-12.852l-1.007-6.341a1.75,1.75,0,0,0-3.457.549l1.007,6.341a18.83,18.83,0,0,0,16.82,15.788c.642.058,1.234.087,1.809.087a18.949,18.949,0,0,0,18.8-18.367l.985-39.845a4.763,4.763,0,0,0,3.118-4.346l.443-17.875A5.51,5.51,0,0,0,56.048,37.556Zm-.485,23.049a1.245,1.245,0,0,1-1.313,1.214c-13.3-.653-30.3.858-41.778,2.492h-.01l-.025,0a1.258,1.258,0,0,1-1.4-1.043L8.276,45.893a1.989,1.989,0,0,1,.366-1.5,2.2,2.2,0,0,1,1.434-.879A275.613,275.613,0,0,1,39.7,40.642a1.75,1.75,0,1,0-.14-3.5,281.511,281.511,0,0,0-28.44,2.679A21.01,21.01,0,0,1,52.373,37.06c-1.053-.035-2.125-.063-3.23-.074h-.018a1.75,1.75,0,0,0-.018,3.5c1.706.017,3.362.064,4.918.139a2.07,2.07,0,0,1,1.981,2.145Z" fill="#061720"/>
      <path d="M33.083,44.153a7.75,7.75,0,1,0,7.75,7.75A7.759,7.759,0,0,0,33.083,44.153Zm0,12a4.25,4.25,0,1,1,4.25-4.25A4.255,4.255,0,0,1,33.083,56.153Z" fill="#061720"/>
    </g>
  </g>
</svg>
