<svg xmlns="http://www.w3.org/2000/svg" width="128" height="128" viewBox="0 0 128 128">
  <title>TISSUE</title>
  <g>
    <g>
      <polygon points="115.667 55.154 12.333 55.154 6.5 88.654 6.5 112.654 121.5 112.654 121.5 88.654 115.667 55.154" fill="#934acb"/>
      <polygon points="12.333 55.154 6.5 88.654 121.5 88.654 115.667 55.154 12.333 55.154" fill="#b360e6"/>
      <path d="M36.876,31.841,43.5,75.667h41l6.624-43.826a6,6,0,0,0-5.932-6.9H42.808A6,6,0,0,0,36.876,31.841Z" fill="#dddde3"/>
      <path d="M47.813,21.932l5.272,53.735h21.83l5.272-53.735a6,6,0,0,0-5.971-6.586H53.784A6,6,0,0,0,47.813,21.932Z" fill="#ededf9"/>
      <rect x="46.5" y="96.154" width="35" height="9" rx="4.5" fill="#f9d42f"/>
    </g>
    <g>
      <path d="M121.5,99.25a1.749,1.749,0,0,0,1.75-1.75V88.65a1.758,1.758,0,0,0-.026-.3l-5.83-33.5A1.75,1.75,0,0,0,115.67,53.4H89.634l3.217-21.3A7.753,7.753,0,0,0,85.19,23.19H81.822l.107-1.087A7.75,7.75,0,0,0,74.216,13.6H53.784A7.75,7.75,0,0,0,46.071,22.1l.107,1.087H42.81A7.753,7.753,0,0,0,35.149,32.1l3.217,21.3H12.33a1.751,1.751,0,0,0-1.724,1.451l-5.83,33.5a1.758,1.758,0,0,0-.026.3v24A1.75,1.75,0,0,0,6.5,114.4h115a1.749,1.749,0,0,0,1.75-1.75V107.5a1.75,1.75,0,0,0-3.5,0v3.4H8.25V90.4h12.5a1.75,1.75,0,0,0,0-3.5H8.581l5.221-30H38.9l2.57,17.017H38.5a1.75,1.75,0,0,0,0,3.5h51a1.75,1.75,0,0,0,0-3.5H86.535L89.105,56.9H114.2l5.221,30H30.5a1.75,1.75,0,0,0,0,3.5h89.25v7.1A1.749,1.749,0,0,0,121.5,99.25ZM38.61,31.578a4.251,4.251,0,0,1,4.2-4.888h3.711l4.633,47.227H45.005ZM76.845,73.917,78.221,59.9a1.75,1.75,0,1,0-3.483-.342l-1.41,14.364H54.671L49.554,21.761a4.251,4.251,0,0,1,4.23-4.665H74.216a4.251,4.251,0,0,1,4.23,4.665L76.257,44.079a1.749,1.749,0,0,0,3.482.342l1.74-17.731H85.19a4.252,4.252,0,0,1,4.2,4.888L83,73.917Z" fill="#061720"/>
      <path d="M112.146,71.673a1.63,1.63,0,0,0,.3-.027,1.749,1.749,0,0,0,1.424-2.023l-.923-5.3a1.749,1.749,0,1,0-3.447.6l.923,5.3A1.75,1.75,0,0,0,112.146,71.673Z" fill="#061720"/>
      <path d="M77.575,48.553a1.737,1.737,0,0,0-1.912,1.57L75.3,53.87a1.748,1.748,0,0,0,1.57,1.912,1.7,1.7,0,0,0,.173.009,1.749,1.749,0,0,0,1.739-1.579l.368-3.747A1.749,1.749,0,0,0,77.575,48.553Z" fill="#061720"/>
      <path d="M51,94.4a6.25,6.25,0,0,0,0,12.5H77a6.25,6.25,0,0,0,0-12.5Zm28.75,6.25A2.752,2.752,0,0,1,77,103.4H51a2.75,2.75,0,0,1,0-5.5H77A2.753,2.753,0,0,1,79.75,100.654Z" fill="#061720"/>
    </g>
  </g>
</svg>
