<svg xmlns="http://www.w3.org/2000/svg" width="128" height="128" viewBox="0 0 128 128">
  <title>TOILET</title>
  <g>
    <g>
      <rect x="24.194" y="6.5" width="79.613" height="62.335" rx="3" fill="#537980"/>
      <ellipse cx="64" cy="48.917" rx="25.5" ry="33.911" fill="#ededf9"/>
      <path d="M64,76.827c-10.57,0-19.5-12.781-19.5-27.91S53.43,21.006,64,21.006,83.5,33.787,83.5,48.917,74.57,76.827,64,76.827Z" fill="#dddde3"/>
      <polygon points="76 117.75 52 117.75 53.5 91.5 74.5 91.5 76 117.75" fill="#dddde3"/>
      <path d="M64,106.444h0A25.676,25.676,0,0,1,38.425,83.036l-1.258-14.2H90.833l-1.258,14.2A25.676,25.676,0,0,1,64,106.444Z" fill="#ededf9"/>
      <path d="M93.833,71.835H34.167v-3a3,3,0,0,1,3-3H90.833a3,3,0,0,1,3,3Z" fill="#385b60"/>
      <path d="M47.1,115.5H80.9a3,3,0,0,1,3,3v3a0,0,0,0,1,0,0H44.1a0,0,0,0,1,0,0v-3A3,3,0,0,1,47.1,115.5Z" fill="#ededf9"/>
      <circle cx="94.808" cy="15.5" r="3" fill="#ededf9"/>
    </g>
    <g>
      <path d="M100.81,4.75H27.19A4.756,4.756,0,0,0,22.44,9.5V65.84a4.756,4.756,0,0,0,4.75,4.75h5.227v1.245a1.749,1.749,0,0,0,1.75,1.75h1.67l.85,9.609a27.258,27.258,0,0,0,14.289,21.749l-.5,8.807H47.1a4.756,4.756,0,0,0-4.75,4.75v3a1.75,1.75,0,0,0,1.75,1.75h6.529a1.75,1.75,0,0,0,0-3.5H45.846V118.5a1.252,1.252,0,0,1,1.25-1.25H80.9a1.252,1.252,0,0,1,1.25,1.25v1.25H60.5a1.75,1.75,0,0,0,0,3.5H83.9a1.75,1.75,0,0,0,1.75-1.75v-3a4.756,4.756,0,0,0-4.75-4.75H77.523l-.5-8.859a27.39,27.39,0,0,0,12.051-13,1.75,1.75,0,1,0-3.2-1.418,23.927,23.927,0,0,1-45.7-7.589l-.822-9.3h49.3l-.74,8.377a1.749,1.749,0,0,0,1.589,1.9c.052.005.1.007.156.007A1.75,1.75,0,0,0,91.4,82.271l.768-8.686h1.67a1.749,1.749,0,0,0,1.75-1.75V70.59h5.227a4.756,4.756,0,0,0,4.75-4.75V9.5A4.756,4.756,0,0,0,100.81,4.75ZM73.6,106.448l.414,7.3H53.982l.412-7.27A27.675,27.675,0,0,0,64,108.19,27.361,27.361,0,0,0,73.6,106.448ZM90.833,67.585a1.251,1.251,0,0,1,1.249,1.24l0,.015c0,.011,0,.022,0,.034v1.211H35.917V68.874c0-.012,0-.023,0-.034l0-.015a1.251,1.251,0,0,1,1.249-1.24ZM46.25,48.92c0-14.181,8.128-26.16,17.75-26.16S81.75,34.739,81.75,48.92A34.523,34.523,0,0,1,78.3,64.085H49.7A34.523,34.523,0,0,1,46.25,48.92Zm55.81,16.92a1.251,1.251,0,0,1-1.25,1.25H95.241a4.75,4.75,0,0,0-4.408-3.005H88.658A45.1,45.1,0,0,0,91.25,48.92c0-19.663-12.224-35.66-27.25-35.66-8.928,0-17.3,5.717-22.385,15.293A1.75,1.75,0,0,0,44.706,30.2C49.176,21.782,56.389,16.76,64,16.76c13.1,0,23.75,14.427,23.75,32.16a41.2,41.2,0,0,1-2.839,15.165h-2.75A38.547,38.547,0,0,0,85.25,48.92c0-16.077-9.731-29.66-21.25-29.66S42.75,32.843,42.75,48.92a38.547,38.547,0,0,0,3.089,15.165h-2.75A41.2,41.2,0,0,1,40.25,48.92a43.576,43.576,0,0,1,.4-5.931,1.749,1.749,0,1,0-3.466-.478,46.874,46.874,0,0,0-.438,6.409,45.1,45.1,0,0,0,2.592,15.165H37.167a4.75,4.75,0,0,0-4.408,3.005H27.19a1.251,1.251,0,0,1-1.25-1.25V9.5a1.251,1.251,0,0,1,1.25-1.25h73.62a1.251,1.251,0,0,1,1.25,1.25Z" fill="#061720"/>
      <path d="M39.472,33.342c-.409,1.106-.779,2.251-1.1,3.4a1.75,1.75,0,1,0,3.373.934c.293-1.057.631-2.106,1.006-3.12a1.75,1.75,0,0,0-3.282-1.215Z" fill="#061720"/>
      <path d="M45.112,86.587a1.749,1.749,0,0,0-.968,2.277A21.218,21.218,0,0,0,46.8,93.6a1.75,1.75,0,0,0,2.808-2.088,17.74,17.74,0,0,1-2.216-3.953A1.75,1.75,0,0,0,45.112,86.587Z" fill="#061720"/>
      <path d="M94.808,10.75a4.75,4.75,0,1,0,4.75,4.75A4.755,4.755,0,0,0,94.808,10.75Zm0,6a1.25,1.25,0,1,1,1.25-1.25A1.251,1.251,0,0,1,94.808,16.75Z" fill="#061720"/>
    </g>
  </g>
</svg>
