<svg xmlns="http://www.w3.org/2000/svg" width="128" height="128" viewBox="0 0 128 128">
  <title>TV</title>
  <g>
    <g>
      <path d="M80.5,89.808v-6H47.5v6a8,8,0,0,1-8,8h0v6H88.5v-6h0A8,8,0,0,1,80.5,89.808Z" fill="#0f89cc"/>
      <rect x="35.25" y="97.808" width="57.5" height="6" fill="#3ea7fb"/>
      <rect x="6.5" y="6.5" width="115" height="79.615" rx="3" fill="#ededf9"/>
      <path d="M6.5,77.115h115a0,0,0,0,1,0,0v6a3,3,0,0,1-3,3H9.5a3,3,0,0,1-3-3v-6A0,0,0,0,1,6.5,77.115Z" fill="#3ea7fb"/>
      <rect x="76.808" y="71.115" width="24" height="50.385" rx="3" fill="#f5502f"/>
      <path d="M100.81,115.5v3a3,3,0,0,1-3,3h-18a3,3,0,0,1-3-3v-3Z" fill="#d63922"/>
    </g>
    <g>
      <path d="M118.5,4.75H9.5A4.756,4.756,0,0,0,4.75,9.5V83.12A4.756,4.756,0,0,0,9.5,87.87H45.75v1.94a6.247,6.247,0,0,1-6.25,6.25H35.25a1.751,1.751,0,0,0-1.75,1.75v6a1.751,1.751,0,0,0,1.75,1.75H75.058V118.5a4.755,4.755,0,0,0,4.75,4.75h18a4.756,4.756,0,0,0,4.75-4.75v-2.976c0-.008,0-.016,0-.024s0-.016,0-.024v-5.893a1.75,1.75,0,0,0-3.5,0v4.167h-20.5V74.115a1.251,1.251,0,0,1,1.25-1.25h18a1.252,1.252,0,0,1,1.25,1.25V100.5a1.75,1.75,0,0,0,3.5,0V87.87H118.5a4.756,4.756,0,0,0,4.75-4.75V33.875a1.75,1.75,0,0,0-3.5,0v41.5H102.558V74.115a4.756,4.756,0,0,0-4.75-4.75h-18a4.755,4.755,0,0,0-4.75,4.75V75.37H35.25a1.75,1.75,0,0,0,0,3.5H75.058v5.5H9.5a1.251,1.251,0,0,1-1.25-1.25V78.87H25a1.75,1.75,0,0,0,0-3.5H8.25V9.5A1.252,1.252,0,0,1,9.5,8.25h109a1.252,1.252,0,0,1,1.25,1.25v8.75a1.75,1.75,0,0,0,3.5,0V9.5A4.756,4.756,0,0,0,118.5,4.75Zm1.25,74.12v4.25a1.251,1.251,0,0,1-1.25,1.25H102.558v-5.5ZM37,102.06v-2.5H75.058v2.5Zm62.058,15.19v1.25a1.252,1.252,0,0,1-1.25,1.25h-18a1.251,1.251,0,0,1-1.25-1.25v-1.25Zm-24-21.19H46.964a9.759,9.759,0,0,0,2.286-6.25V87.87H75.058Z" fill="#061720"/>
      <path d="M121.5,21.875a1.751,1.751,0,0,0-1.75,1.75V27.75a1.75,1.75,0,0,0,3.5,0V23.625A1.751,1.751,0,0,0,121.5,21.875Z" fill="#061720"/>
      <path d="M10.75,29.091v6a1.75,1.75,0,0,0,3.5,0v-6a1.75,1.75,0,0,0-3.5,0Z" fill="#061720"/>
      <path d="M85.808,80.75h-3a1.75,1.75,0,1,0,0,3.5h3a1.75,1.75,0,0,0,0-3.5Z" fill="#061720"/>
      <path d="M94.808,80.75h-3a1.75,1.75,0,1,0,0,3.5h3a1.75,1.75,0,0,0,0-3.5Z" fill="#061720"/>
      <path d="M85.808,86.75h-3a1.75,1.75,0,1,0,0,3.5h3a1.75,1.75,0,0,0,0-3.5Z" fill="#061720"/>
      <path d="M94.808,86.75h-3a1.75,1.75,0,1,0,0,3.5h3a1.75,1.75,0,0,0,0-3.5Z" fill="#061720"/>
      <path d="M85.808,92.75h-3a1.75,1.75,0,1,0,0,3.5h3a1.75,1.75,0,0,0,0-3.5Z" fill="#061720"/>
      <path d="M94.808,92.75h-3a1.75,1.75,0,1,0,0,3.5h3a1.75,1.75,0,0,0,0-3.5Z" fill="#061720"/>
      <path d="M85.808,98.75h-3a1.75,1.75,0,1,0,0,3.5h3a1.75,1.75,0,0,0,0-3.5Z" fill="#061720"/>
      <path d="M94.808,98.75h-3a1.75,1.75,0,1,0,0,3.5h3a1.75,1.75,0,0,0,0-3.5Z" fill="#061720"/>
      <path d="M94.808,104.75h-3a1.75,1.75,0,1,0,0,3.5h3a1.75,1.75,0,0,0,0-3.5Z" fill="#061720"/>
    </g>
  </g>
</svg>
