<svg xmlns="http://www.w3.org/2000/svg" width="128" height="128" viewBox="0 0 128 128">
  <title>WALL CLOCK</title>
  <g>
    <g>
      <path d="M39,56.5v62a3,3,0,0,0,3,3H86a3,3,0,0,0,3-3v-62Z" fill="#d58559"/>
      <rect x="45" y="62.5" width="38" height="53" fill="#663325"/>
      <circle cx="64" cy="95.808" r="4.5" fill="#dddde3"/>
      <circle cx="64" cy="40.308" r="33.808" fill="#f2a66c"/>
      <circle cx="64" cy="40.308" r="27.808" fill="#663325"/>
      <circle cx="64" cy="40.308" r="3" fill="#f2a66c"/>
    </g>
    <g>
      <path d="M83,93.1a1.749,1.749,0,0,0-1.75,1.75v4.321a1.75,1.75,0,0,0,3.5,0V94.846A1.749,1.749,0,0,0,83,93.1Z" fill="#061720"/>
      <path d="M51,83.2a1.749,1.749,0,0,0-1.75,1.75v6a1.75,1.75,0,0,0,3.5,0v-6A1.749,1.749,0,0,0,51,83.2Z" fill="#061720"/>
      <path d="M99.558,40.308A35.456,35.456,0,0,0,97.878,29.5a1.75,1.75,0,0,0-3.334,1.066,32.14,32.14,0,1,1-3.789-7.9,1.75,1.75,0,0,0,2.92-1.931A35.542,35.542,0,1,0,37.25,63.7V118.5A4.756,4.756,0,0,0,42,123.25H86a4.756,4.756,0,0,0,4.75-4.75V63.7A35.4,35.4,0,0,0,99.558,40.308ZM63.988,93.059h.024a2.75,2.75,0,1,1-.024,0ZM86,119.75H42a1.252,1.252,0,0,1-1.25-1.25V67.176q1.2,1.044,2.5,1.98V115.5A1.75,1.75,0,0,0,45,117.25H83a1.75,1.75,0,0,0,1.75-1.75V104.833a1.75,1.75,0,0,0-3.5,0v8.917H46.75V71.386a35.3,35.3,0,0,0,15.5,4.435V89.812a6.25,6.25,0,1,0,3.5,0V75.821a35.3,35.3,0,0,0,15.5-4.435V88.938a1.75,1.75,0,0,0,3.5,0V69.156q1.294-.935,2.5-1.98V118.5A1.252,1.252,0,0,1,86,119.75Z" fill="#061720"/>
      <path d="M37.461,31.812a1.749,1.749,0,0,0-2.125,1.269,29.615,29.615,0,1,0,4.614-9.94A1.75,1.75,0,1,0,42.8,25.178c.5-.7,1.039-1.36,1.6-2l.826.825A1.749,1.749,0,1,0,47.7,21.529l-.827-.828A26.135,26.135,0,0,1,62.25,14.314V15.5a1.75,1.75,0,0,0,3.5,0V14.315A25.939,25.939,0,0,1,81.133,20.7l-.828.829A1.749,1.749,0,1,0,82.779,24l.829-.829a25.938,25.938,0,0,1,6.384,15.384H88.808a1.75,1.75,0,0,0,0,3.5h1.184a25.937,25.937,0,0,1-6.384,15.383l-.829-.829a1.749,1.749,0,1,0-2.474,2.474l.828.829A25.939,25.939,0,0,1,65.75,66.3V65.115a1.75,1.75,0,0,0-3.5,0V66.3a25.939,25.939,0,0,1-15.383-6.385l.828-.829a1.749,1.749,0,1,0-2.474-2.474l-.829.829a25.937,25.937,0,0,1-6.384-15.383h1.184a1.75,1.75,0,0,0,0-3.5H38.005a25.938,25.938,0,0,1,.725-4.622A1.749,1.749,0,0,0,37.461,31.812Z" fill="#061720"/>
      <path d="M64,21a1.75,1.75,0,0,0-1.75,1.75V35.9a4.744,4.744,0,1,0,3.631,8.764l4.681,4.682a1.75,1.75,0,0,0,2.475-2.474l-4.681-4.681A4.729,4.729,0,0,0,65.75,35.9V22.75A1.75,1.75,0,0,0,64,21ZM62.75,40.308a1.25,1.25,0,0,1,1.242-1.249h.016a1.25,1.25,0,1,1-1.258,1.249Z" fill="#061720"/>
    </g>
  </g>
</svg>
