<svg xmlns="http://www.w3.org/2000/svg" width="128" height="128" viewBox="0 0 128 128">
  <title>WARDROBE</title>
  <g>
    <g>
      <rect x="97.808" y="111.333" width="6" height="10.167" fill="#663325"/>
      <rect x="24.33" y="111.333" width="6" height="10.167" fill="#663325"/>
      <rect x="58.33" y="18.5" width="51.34" height="73" fill="#f2a66c"/>
      <rect x="58.33" y="91.5" width="51.34" height="24" fill="#d58559"/>
      <rect x="18.33" y="12.5" width="40" height="103" fill="#4f2217"/>
      <rect x="18.33" y="12.5" width="40" height="51.5" fill="#663325"/>
      <path d="M18.331,6.5h91.338a3,3,0,0,1,3,3v3a0,0,0,0,1,0,0H15.331a0,0,0,0,1,0,0v-3A3,3,0,0,1,18.331,6.5Z" transform="translate(128 19) rotate(180)" fill="#4f2217"/>
      <rect x="58.33" y="12.5" width="51.34" height="6" fill="#d58559"/>
      <polygon points="95.9 45.383 91.973 43.542 92.288 60.167 75.712 60.167 76.027 43.542 72.1 45.383 69.802 39.216 79.216 34.526 88.784 34.526 98.198 39.216 95.9 45.383" fill="#f5502f"/>
      <path d="M79.216,34.526h9.567a0,0,0,0,1,0,0v1.216A4.784,4.784,0,0,1,84,40.526h0a4.784,4.784,0,0,1-4.784-4.784V34.526A0,0,0,0,1,79.216,34.526Z" fill="#d63922"/>
      <rect x="66.083" y="85.5" width="19" height="6" rx="3" fill="#dddde3"/>
      <rect x="66.917" y="79.5" width="19" height="6" rx="3" fill="#ededf9"/>
    </g>
    <g>
      <path d="M109.669,43.417a1.751,1.751,0,0,0-1.75,1.75v4.641a1.75,1.75,0,1,0,3.5,0V45.167A1.751,1.751,0,0,0,109.669,43.417Z" fill="#061720"/>
      <path d="M87,95.75H81a1.75,1.75,0,0,0,0,3.5h6a1.75,1.75,0,0,0,0-3.5Z" fill="#061720"/>
      <path d="M112.669,4.75H15.331a1.751,1.751,0,0,0-1.75,1.75v3a4.75,4.75,0,0,0,3,4.406V115.5a1.751,1.751,0,0,0,1.75,1.75h4.25v4.25a1.751,1.751,0,0,0,1.75,1.75h6a1.751,1.751,0,0,0,1.75-1.75v-4.25H80a1.75,1.75,0,0,0,0-3.5H60.08V93.25h47.839v20.5H90.167a1.75,1.75,0,0,0,0,3.5H96.06v4.25a1.751,1.751,0,0,0,1.75,1.75h6a1.751,1.751,0,0,0,1.75-1.75v-4.25h4.109a1.751,1.751,0,0,0,1.75-1.75V56.416a1.75,1.75,0,1,0-3.5,0V89.75H86.645A4.519,4.519,0,0,0,86.1,86a4.733,4.733,0,0,0-3.187-8.248h-13a4.755,4.755,0,0,0-4.75,4.75A4.7,4.7,0,0,0,65.9,85a4.725,4.725,0,0,0-1.563,3.5,4.66,4.66,0,0,0,.189,1.25H60.08V29.25H82.25v3.526H79.216a1.763,1.763,0,0,0-.38.044c-.034.008-.066.021-.1.031a1.64,1.64,0,0,0-.257.093c-.014.006-.029.009-.043.015l-9.415,4.69a1.75,1.75,0,0,0-.859,2.178l2.3,6.167a1.749,1.749,0,0,0,2.383.973l1.381-.647-.262,13.813a1.752,1.752,0,0,0,1.75,1.784H92.288a1.752,1.752,0,0,0,1.75-1.784L93.776,46.32l1.381.647a1.749,1.749,0,0,0,2.383-.973l2.3-6.167a1.75,1.75,0,0,0-.859-2.178l-9.415-4.69c-.014-.006-.029-.009-.043-.015a1.64,1.64,0,0,0-.257-.093c-.034-.01-.066-.023-.1-.031a1.763,1.763,0,0,0-.38-.044H85.75V29.25h22.169V39.772a1.75,1.75,0,1,0,3.5,0V13.906a4.749,4.749,0,0,0,3-4.406v-3A1.751,1.751,0,0,0,112.669,4.75Zm-10.609,115h-2.5v-2.5h2.5ZM69.917,81.25h13a1.25,1.25,0,0,1,0,2.5h-13a1.25,1.25,0,0,1,0-2.5ZM67.833,88.5a1.252,1.252,0,0,1,1.25-1.25h13a1.25,1.25,0,0,1,0,2.5h-13A1.252,1.252,0,0,1,67.833,88.5ZM86.98,36.276a3.026,3.026,0,0,1-5.96,0Zm7.943,6.716-2.207-1.035a1.75,1.75,0,0,0-2.492,1.618l.28,14.842H77.5l.28-14.842a1.75,1.75,0,0,0-2.492-1.618l-2.207,1.035L71.991,40.08l5.661-2.82a6.525,6.525,0,0,0,12.7,0l5.661,2.82ZM17.081,8.25h93.838V9.5a1.252,1.252,0,0,1-1.25,1.25H37.5a1.75,1.75,0,0,0,0,3.5H56.58v48H20.08v-48h9.045a1.75,1.75,0,0,0,0-3.5H18.331a1.252,1.252,0,0,1-1.25-1.25Zm43,6h47.839v2.5H60.08Zm-40,51.5h36.5v48H20.08Zm8.5,54h-2.5v-2.5h2.5Zm31.5-94v-5.5h47.839v5.5Z" fill="#061720"/>
      <path d="M52.33,94.464a1.751,1.751,0,0,0,1.75-1.75v-6a1.75,1.75,0,0,0-3.5,0v6A1.751,1.751,0,0,0,52.33,94.464Z" fill="#061720"/>
      <path d="M52.33,42.964a1.751,1.751,0,0,0,1.75-1.75v-6a1.75,1.75,0,0,0-3.5,0v6A1.751,1.751,0,0,0,52.33,42.964Z" fill="#061720"/>
    </g>
  </g>
</svg>
