<svg xmlns="http://www.w3.org/2000/svg" width="128" height="128" viewBox="0 0 128 128">
  <title>WINDOW</title>
  <g>
    <g>
      <rect x="24.192" y="6.5" width="79.615" height="110.5" fill="#3ea7fb"/>
      <rect x="30.19" y="12.5" width="67.62" height="94" fill="#ededf9"/>
      <polygon points="97.81 58.75 97.81 64.75 67 64.75 67 106.5 61 106.5 61 64.75 30.19 64.75 30.19 58.75 61 58.75 61 12.5 67 12.5 67 58.75 97.81 58.75" fill="#0f89cc"/>
      <rect x="15.331" y="112.5" width="97.338" height="9" fill="#0f89cc"/>
    </g>
    <g>
      <path d="M97.81,84.75a1.75,1.75,0,0,0-1.75,1.75v4.833a1.75,1.75,0,0,0,3.5,0V86.5A1.751,1.751,0,0,0,97.81,84.75Z" fill="#061720"/>
      <path d="M99.56,12.5a1.751,1.751,0,0,0-1.75-1.75H30.19a1.751,1.751,0,0,0-1.75,1.75v94a1.751,1.751,0,0,0,1.75,1.75H97.81a1.751,1.751,0,0,0,1.75-1.75V97.333a1.75,1.75,0,0,0-3.5,0v7.417H68.75V66.5H96.06V80.688a1.75,1.75,0,0,0,3.5,0ZM96.06,57H68.75V14.25H96.06ZM59.25,14.25V57H31.94V14.25ZM31.94,66.5H59.25v38.25H31.94ZM67,63a1.75,1.75,0,0,0-1.75,1.75v40h-2.5v-40A1.75,1.75,0,0,0,61,63H31.94V60.5H61a1.75,1.75,0,0,0,1.75-1.75V14.25h2.5v44.5A1.75,1.75,0,0,0,67,60.5H96.06V63Z" fill="#061720"/>
      <path d="M91.81,42a1.751,1.751,0,0,0,1.75-1.75v-6a1.75,1.75,0,0,0-3.5,0v6A1.75,1.75,0,0,0,91.81,42Z" fill="#061720"/>
      <path d="M112.669,110.75H105.56V6.5a1.751,1.751,0,0,0-1.75-1.75H24.19A1.751,1.751,0,0,0,22.44,6.5V38.667a1.75,1.75,0,0,0,3.5,0V8.25h76.12v102.5H25.94V47.083a1.75,1.75,0,0,0-3.5,0V110.75H15.331a1.75,1.75,0,0,0-1.75,1.75v9a1.75,1.75,0,0,0,1.75,1.75H35.417a1.75,1.75,0,0,0,0-3.5H17.081v-5.5h93.838v5.5H44.583a1.75,1.75,0,0,0,0,3.5h68.086a1.75,1.75,0,0,0,1.75-1.75v-9A1.75,1.75,0,0,0,112.669,110.75Z" fill="#061720"/>
    </g>
  </g>
</svg>
