<?xml version="1.0" encoding="utf-8"?>
<!-- Generator: Adobe Illustrator 24.1.0, SVG Export Plug-In . SVG Version: 6.00 Build 0)  -->
<svg version="1.1" id="Layer_1" xmlns="http://www.w3.org/2000/svg" xmlns:xlink="http://www.w3.org/1999/xlink" x="0px" y="0px"
	 viewBox="0 0 512 512" style="enable-background:new 0 0 512 512;" xml:space="preserve">
<style type="text/css">
	.st0{fill:#BBDEF1;}
	.st1{fill:none;stroke:#000000;stroke-width:9.1561;stroke-linecap:round;stroke-linejoin:round;stroke-miterlimit:10;}
	
		.st2{opacity:0.25;fill:none;stroke:#FFFFFF;stroke-width:9.1561;stroke-linecap:round;stroke-linejoin:round;stroke-miterlimit:10;}
	.st3{fill:#82E370;stroke:#000000;stroke-width:9.1561;stroke-linecap:round;stroke-linejoin:round;stroke-miterlimit:10;}
	
		.st4{opacity:0.15;fill:none;stroke:#000000;stroke-width:9.1561;stroke-linecap:round;stroke-linejoin:round;stroke-miterlimit:10;}
	.st5{fill:#FE5548;stroke:#000000;stroke-width:9.1561;stroke-linecap:round;stroke-linejoin:round;stroke-miterlimit:10;}
	.st6{opacity:0.15;}
	.st7{fill:#FFFFFF;}
	.st8{fill:#EFCA08;stroke:#000000;stroke-width:9.1561;stroke-linecap:round;stroke-linejoin:round;stroke-miterlimit:10;}
</style>
<g>
	<path class="st0" d="M291.28,118.76h132.78c7.08,0,12.82,5.74,12.82,12.82v248.91c0,7.08-5.74,12.82-12.82,12.82H291.28
		c-7.08,0-12.82-5.74-12.82-12.82V131.57C278.46,124.49,284.2,118.76,291.28,118.76z"/>
	<line class="st1" x1="385.4" y1="118.76" x2="389.14" y2="118.76"/>
	<line class="st1" x1="352.79" y1="118.76" x2="365.92" y2="118.76"/>
	<path class="st1" d="M278.46,287.14V131.57c0-7.08,5.74-12.82,12.82-12.82h42.9"/>
	<line class="st1" x1="278.46" y1="304.23" x2="278.46" y2="303.03"/>
	<path class="st1" d="M407.2,118.76h16.87c7.08,0,12.82,5.74,12.82,12.82v248.91c0,7.08-5.74,12.82-12.82,12.82H291.28
		c-7.08,0-12.82-5.74-12.82-12.82v-59.9"/>
	<path class="st2" d="M287.62,131.57c0-2.02,1.64-3.66,3.66-3.66h132.78c2.02,0,3.66,1.64,3.66,3.66"/>
	<line class="st1" x1="322.63" y1="137.07" x2="392.71" y2="137.07"/>
	<path class="st3" d="M436.88,380.48V202.55c-16.81,0.28-39.4,2.22-61.17,8.09c-34.9,9.41-29.53,66.95-33.11,89.62
		c-3.58,22.67-35.8,15.51-38.18,41.76c-1.54,16.89,6.44,38.2,12.33,51.27h107.32C431.14,393.3,436.88,387.56,436.88,380.48z"/>
	<path class="st4" d="M427.73,380.48c0,2.02-1.64,3.66-3.66,3.66H291.28c-2.02,0-3.66-1.64-3.66-3.66"/>
	<path class="st5" d="M389.06,291.51c-17.07,0-29.41,11.26-29.41,34.02c0,22.76,29.41,42.7,29.41,42.7s29.41-19.94,29.41-42.7
		C418.48,302.78,406.13,291.51,389.06,291.51z M389.06,335.23c-7.37,0-13.35-5.98-13.35-13.35s5.98-13.35,13.35-13.35
		s13.35,5.98,13.35,13.35S396.44,335.23,389.06,335.23z"/>
	<path class="st6" d="M352.69,166.43h-74.22v89.58h45.67c2.05,0,4.01,0.76,5.53,2.13l32.77,29.65c0.86,0.78,1.96,1.18,3.07,1.18
		c0.63,0,1.26-0.13,1.85-0.39c1.66-0.73,2.72-2.37,2.72-4.18V183.82C370.09,174.23,362.28,166.43,352.69,166.43z"/>
	<path class="st7" d="M365.51,277.07l-32.77-29.65c-2.36-2.13-5.42-3.31-8.6-3.31H88.54c-7.08,0-12.82-5.74-12.82-12.82V176.5
		c0-7.08,5.74-12.82,12.82-12.82h264.15c7.08,0,12.82,5.74,12.82,12.82V220V277.07z"/>
	<path class="st1" d="M171.33,163.68h181.35c7.08,0,12.82,5.74,12.82,12.82V220v57.07l-32.77-29.65c-2.36-2.13-5.42-3.31-8.6-3.31
		H88.54c-7.08,0-12.82-5.74-12.82-12.82V176.5c0-7.08,5.74-12.82,12.82-12.82h62.35"/>
	<path class="st8" d="M130.67,184.57l3.3,6.69c0.67,1.36,1.96,2.3,3.46,2.52l7.38,1.07c3.77,0.55,5.28,5.18,2.55,7.84l-5.34,5.21
		c-1.08,1.06-1.58,2.58-1.32,4.07l1.26,7.35c0.64,3.76-3.3,6.62-6.67,4.85l-6.6-3.47c-1.34-0.7-2.94-0.7-4.28,0l-6.6,3.47
		c-3.37,1.77-7.32-1.09-6.67-4.85l1.26-7.35c0.26-1.49-0.24-3.01-1.32-4.07l-5.34-5.21c-2.73-2.66-1.22-7.29,2.55-7.84l7.38-1.07
		c1.5-0.22,2.79-1.16,3.46-2.52l3.3-6.69C124.11,181.16,128.98,181.16,130.67,184.57z"/>
	<path class="st8" d="M192.93,184.57l3.3,6.69c0.67,1.36,1.96,2.3,3.46,2.52l7.38,1.07c3.77,0.55,5.28,5.18,2.55,7.84l-5.34,5.21
		c-1.08,1.06-1.58,2.58-1.32,4.07l1.26,7.35c0.64,3.76-3.3,6.62-6.67,4.85l-6.6-3.47c-1.34-0.7-2.94-0.7-4.28,0l-6.6,3.47
		c-3.37,1.77-7.32-1.09-6.67-4.85l1.26-7.35c0.26-1.49-0.24-3.01-1.32-4.07l-5.34-5.21c-2.73-2.66-1.22-7.29,2.55-7.84l7.38-1.07
		c1.5-0.22,2.79-1.16,3.46-2.52l3.3-6.69C186.37,181.16,191.24,181.16,192.93,184.57z"/>
	<path class="st8" d="M255.19,184.57l3.3,6.69c0.67,1.36,1.96,2.3,3.46,2.52l7.38,1.07c3.77,0.55,5.28,5.18,2.55,7.84l-5.34,5.21
		c-1.08,1.06-1.58,2.58-1.32,4.07l1.26,7.35c0.64,3.76-3.3,6.62-6.67,4.85l-6.6-3.47c-1.34-0.7-2.94-0.7-4.28,0l-6.6,3.47
		c-3.37,1.77-7.32-1.09-6.67-4.85l1.26-7.35c0.26-1.49-0.24-3.01-1.32-4.07l-5.34-5.21c-2.73-2.66-1.22-7.29,2.55-7.84l7.38-1.07
		c1.5-0.22,2.79-1.16,3.46-2.52l3.3-6.69C248.63,181.16,253.5,181.16,255.19,184.57z"/>
	<path class="st8" d="M317.45,184.57l3.3,6.69c0.67,1.36,1.96,2.3,3.46,2.52l7.38,1.07c3.77,0.55,5.28,5.18,2.55,7.84l-5.34,5.21
		c-1.08,1.06-1.58,2.58-1.32,4.07l1.26,7.35c0.64,3.76-3.3,6.62-6.67,4.85l-6.6-3.47c-1.34-0.7-2.94-0.7-4.28,0l-6.6,3.47
		c-3.37,1.77-7.32-1.09-6.67-4.85l1.26-7.35c0.26-1.49-0.24-3.01-1.32-4.07l-5.34-5.21c-2.73-2.66-1.22-7.29,2.55-7.84l7.38-1.07
		c1.5-0.22,2.79-1.16,3.46-2.52l3.3-6.69C310.89,181.16,315.76,181.16,317.45,184.57z"/>
</g>
</svg>
