<?xml version="1.0" encoding="utf-8"?>
<!-- Generator: Adobe Illustrator 24.1.0, SVG Export Plug-In . SVG Version: 6.00 Build 0)  -->
<svg version="1.1" id="Layer_1" xmlns="http://www.w3.org/2000/svg" xmlns:xlink="http://www.w3.org/1999/xlink" x="0px" y="0px"
	 viewBox="0 0 512 512" style="enable-background:new 0 0 512 512;" xml:space="preserve">
<style type="text/css">
	.st0{fill:#AF8263;}
	.st1{fill:none;stroke:#000000;stroke-width:9.1561;stroke-linecap:round;stroke-linejoin:round;stroke-miterlimit:10;}
	
		.st2{opacity:0.15;fill:none;stroke:#000000;stroke-width:9.1561;stroke-linecap:round;stroke-linejoin:round;stroke-miterlimit:10;}
	.st3{fill:#D7B49E;stroke:#000000;stroke-width:9.1561;stroke-linecap:round;stroke-linejoin:round;stroke-miterlimit:10;}
	.st4{opacity:0.15;}
	.st5{fill:#EFCA08;}
	
		.st6{opacity:0.25;fill:none;stroke:#FFFFFF;stroke-width:9.1561;stroke-linecap:round;stroke-linejoin:round;stroke-miterlimit:10;}
	.st7{fill:#58D6D1;}
</style>
<g>
	<polygon class="st0" points="123.8,233.61 271.61,233.61 271.61,156.92 123.8,156.92 96.33,195.26 	"/>
	<polyline class="st1" points="145.99,156.92 123.8,156.92 96.33,195.26 123.8,233.61 271.61,233.61 271.61,156.92 165.52,156.92 	
		"/>
	<polyline class="st2" points="262.45,224.45 128.5,224.45 107.59,195.26 	"/>
	<rect x="219.86" y="73.47" class="st3" width="24.28" height="365.12"/>
	<path class="st4" d="M199.79,176.84c0,2.53,2.05,4.58,4.58,4.58h67.24v-24.51h-71.82V176.84z"/>
	<polygon class="st5" points="388.81,169.52 204.37,169.52 204.37,92.82 388.81,92.82 416.28,131.17 	"/>
	<line class="st1" x1="338.18" y1="92.82" x2="340.94" y2="92.82"/>
	<line class="st1" x1="307.97" y1="92.82" x2="320.96" y2="92.82"/>
	<polyline class="st1" points="358.58,92.82 388.81,92.82 416.28,131.17 388.81,169.52 204.37,169.52 204.37,92.82 290.02,92.82 	
		"/>
	<line class="st1" x1="260.54" y1="111.14" x2="292.01" y2="111.14"/>
	<line class="st1" x1="313.64" y1="111.14" x2="327.36" y2="111.14"/>
	<line class="st2" x1="384.1" y1="160.36" x2="213.53" y2="160.36"/>
	<polyline class="st6" points="213.53,101.98 384.1,101.98 405.01,131.17 	"/>
	<rect x="219.86" y="223.76" class="st4" width="24.28" height="85.85"/>
	<polygon class="st7" points="352.18,297.7 204.37,297.7 204.37,221.01 352.18,221.01 379.65,259.36 	"/>
	<polyline class="st1" points="310.7,221.01 352.18,221.01 379.65,259.36 352.18,297.7 204.37,297.7 204.37,221.01 292.84,221.01 	
		"/>
	<line class="st1" x1="286.87" y1="239.32" x2="298.81" y2="239.32"/>
	<line class="st1" x1="318.41" y1="239.32" x2="339.11" y2="239.32"/>
	<line class="st2" x1="347.48" y1="288.55" x2="213.53" y2="288.55"/>
	<polyline class="st6" points="213.53,230.16 347.48,230.16 368.39,259.35 	"/>
</g>
</svg>
