<?xml version="1.0" encoding="utf-8"?>
<!-- Generator: Adobe Illustrator 24.1.0, SVG Export Plug-In . SVG Version: 6.00 Build 0)  -->
<svg version="1.1" id="Layer_1" xmlns="http://www.w3.org/2000/svg" xmlns:xlink="http://www.w3.org/1999/xlink" x="0px" y="0px"
	 viewBox="0 0 512 512" style="enable-background:new 0 0 512 512;" xml:space="preserve">
<style type="text/css">
	.st0{fill:#AF8263;}
	.st1{fill:none;stroke:#000000;stroke-width:9.1561;stroke-linecap:round;stroke-linejoin:round;stroke-miterlimit:10;}
	.st2{fill:#AF8263;stroke:#000000;stroke-width:9.1561;stroke-linecap:round;stroke-linejoin:round;stroke-miterlimit:10;}
	.st3{fill:#27AAE2;stroke:#000000;stroke-width:9.1561;stroke-linecap:round;stroke-linejoin:round;stroke-miterlimit:10;}
	.st4{fill:none;stroke:#FFFFFF;stroke-width:9.1561;stroke-linecap:round;stroke-linejoin:round;stroke-miterlimit:10;}
	
		.st5{opacity:0.15;fill:none;stroke:#000000;stroke-width:9.1561;stroke-linecap:round;stroke-linejoin:round;stroke-miterlimit:10;}
	
		.st6{opacity:0.25;fill:none;stroke:#FFFFFF;stroke-width:9.1561;stroke-linecap:round;stroke-linejoin:round;stroke-miterlimit:10;}
	.st7{fill:#D7B49E;}
	.st8{fill:#82E370;stroke:#000000;stroke-width:9.1561;stroke-linecap:round;stroke-linejoin:round;stroke-miterlimit:10;}
	.st9{fill:#82E370;}
	.st10{fill:#EFCA08;}
</style>
<g>
	<g>
		<path class="st0" d="M306.47,363.79c-4.33,0-8.02-3.29-8.42-7.69c-0.19-2.1-4.38-51.92,25.86-89.31
			c12.3-15.21,24.81-27.22,37.17-35.71c9.58-6.57,15.65-8.59,16.31-8.8c4.46-1.4,9.22,1.07,10.62,5.54
			c1.4,4.46-1.07,9.22-5.54,10.62c-0.11,0.04-19.37,6.82-45.4,39c-25.83,31.93-22.2,76.67-22.16,77.12
			c0.41,4.65-3.02,8.77-7.67,9.19C306.99,363.77,306.73,363.79,306.47,363.79z"/>
	</g>
	<g>
		<path class="st1" d="M317.07,276.31c2.06-3.24,4.33-6.42,6.83-9.52c12.3-15.21,24.81-27.22,37.17-35.71
			c9.58-6.57,15.65-8.59,16.31-8.8c4.46-1.4,9.22,1.07,10.62,5.54c1.4,4.46-1.07,9.22-5.54,10.62c-0.11,0.04-19.37,6.82-45.4,39
			c-25.83,31.93-22.2,76.67-22.16,77.12c0.41,4.65-3.02,8.77-7.67,9.19c-0.26,0.02-0.52,0.03-0.77,0.03c-4.33,0-8.02-3.29-8.42-7.69
			c-0.15-1.68-2.85-33.65,11.37-65.49"/>
	</g>
	<g>
		<path class="st2" d="M207.82,357.19c3.71,2.23,8.57,1.31,11.18-2.24c1.25-1.7,30.53-42.23,23.9-89.85
			c-2.7-19.37-7.22-36.12-13.43-49.77c-4.81-10.57-8.98-15.43-9.44-15.95c-3.09-3.5-8.45-3.83-11.96-0.73
			c-3.5,3.1-3.83,8.45-0.73,11.96c0.07,0.09,13.08,15.83,18.79,56.83c5.66,40.68-20.52,77.14-20.78,77.5
			c-2.75,3.78-1.93,9.07,1.84,11.83C207.38,356.91,207.6,357.05,207.82,357.19z"/>
	</g>
	<rect x="73.74" y="393.46" class="st3" width="365.12" height="45.12"/>
	<line class="st4" x1="300.99" y1="411.78" x2="326.65" y2="411.78"/>
	<line class="st4" x1="260.43" y1="411.78" x2="277.73" y2="411.78"/>
	<line class="st5" x1="429.7" y1="429.43" x2="82.9" y2="429.43"/>
	<line class="st6" x1="82.9" y1="402.62" x2="429.7" y2="402.62"/>
	<path class="st7" d="M389.02,391.69c-17.24-25.94-70.13-55.82-132.72-55.82s-115.48,29.88-132.72,55.82H389.02z"/>
	<path class="st1" d="M155.2,363.51c-0.74,0.46-1.48,0.91-2.2,1.37c-13.32,8.48-23.48,17.88-29.42,26.81h265.44
		c-17.24-25.94-70.13-55.82-132.72-55.82c-23.47,0-45.58,4.2-64.96,10.82c-1.82,0.62-3.63,1.27-5.4,1.93"/>
	<path class="st1" d="M171.05,354.94c-0.71,0.34-1.41,0.67-2.1,1.02"/>
	<path class="st1" d="M197.99,363.78c6.77-2.29,13.96-4.27,21.51-5.83"/>
	<path class="st1" d="M239.79,354.94c2.93-0.27,5.91-0.47,8.92-0.59"/>
	<path class="st6" d="M144.38,382.54c21.84-18.55,62.39-37.51,111.92-37.51c49.53,0,90.08,18.95,111.92,37.51"/>
	<g>
		<g>
			<path class="st8" d="M421.58,238.57c13.28,18.45,16.44,38.89,16.44,38.89s-24.32-5.2-37.6-23.66s-10.49-43.17-10.49-43.17
				S408.3,220.12,421.58,238.57z"/>
			<path class="st6" d="M399.95,228.74c4.65,3.94,9.76,9.02,14.19,15.17c4.43,6.15,7.62,12.61,9.88,18.28"/>
			<path class="st8" d="M409.04,250.47c0.33,22.73-16.09,41.41-16.09,41.41s-16.97-18.18-17.3-40.92
				c-0.33-22.73,16.09-41.41,16.09-41.41S408.71,227.73,409.04,250.47z"/>
			<path class="st6" d="M384.8,250.82c-0.14-9.77,3.56-18.86,7.17-25.36c3.8,6.39,7.77,15.37,7.91,25.14"/>
		</g>
		<g>
			<path class="st9" d="M361.07,179.81c-18.83-12.73-39.35-15.29-39.35-15.29s5.91,24.16,24.75,36.89s43.45,9.23,43.45,9.23
				S379.91,192.55,361.07,179.81z"/>
			<path class="st1" d="M332.18,166.77c-6.3-1.73-10.46-2.25-10.46-2.25s5.91,24.16,24.75,36.89s43.45,9.23,43.45,9.23
				s-10.02-18.09-28.85-30.82c-1.74-1.18-3.49-2.27-5.24-3.27c-1.93-1.11-3.85-2.12-5.75-3.05"/>
			<path class="st6" d="M337.39,178.05c5.73,2.09,12.28,5.09,18.56,9.34c6.28,4.25,11.5,9.2,15.58,13.74"/>
			<path class="st8" d="M349.55,192.69c-22.73,0.33-40.92,17.3-40.92,17.3s18.67,16.43,41.41,16.09s40.92-17.3,40.92-17.3
				S372.28,192.35,349.55,192.69z"/>
			<path class="st6" d="M324.56,209.74c6.39-3.79,15.36-7.76,25.12-7.9l0.55,0c9.52,0,18.4,3.64,24.8,7.19"/>
		</g>
		<path class="st8" d="M375.04,250.71c-15.84,16.31-40.66,17.9-40.66,17.9s0.86-24.85,16.7-41.16c15.84-16.31,40.66-17.9,40.66-17.9
			S390.88,234.4,375.04,250.71z"/>
		<path class="st6" d="M345.47,257.2c1.83-7.21,5.38-16.36,12.18-23.37c6.8-7.01,15.85-10.82,23-12.86"/>
	</g>
	<g>
		<g>
			<path class="st8" d="M255.4,175.61c22.2-4.91,42.22,0.26,42.22,0.26s-14.39,20.28-36.59,25.19c-22.2,4.91-43.8-7.41-43.8-7.41
				S233.21,180.52,255.4,175.61z"/>
			<path class="st6" d="M237.83,191.59c5.46-2.72,12.14-5.41,19.55-7.04c5.7-1.26,11.82-1.9,18.19-1.9c0.86,0,1.7,0.01,2.52,0.03"/>
			<path class="st8" d="M261.38,191.82c21.01,8.68,31.68,31.14,31.68,31.14s-23.41,8.4-44.42-0.27s-31.68-31.14-31.68-31.14
				S240.37,183.15,261.38,191.82z"/>
			<path class="st6" d="M231.66,197.61c2.56-0.34,5.42-0.57,8.43-0.57c6.6,0,12.59,1.09,17.79,3.24
				c9.03,3.73,15.92,10.73,20.47,16.61"/>
		</g>
		<g>
			<path class="st8" d="M177.52,207.97c-19.14,12.27-29.6,30.11-29.6,30.11s24.53,4.11,43.67-8.16s25.64-36.27,25.64-36.27
				S196.66,195.7,177.52,207.97z"/>
			<path class="st6" d="M166.53,229.05c4.19-4.44,9.54-9.27,15.93-13.37c6.43-4.12,13.04-6.97,18.8-8.91"/>
			<path class="st8" d="M184.8,223.65c-8.68,21.01-0.27,44.42-0.27,44.42s22.47-10.66,31.14-31.68s0.27-44.42,0.27-44.42
				S193.47,202.63,184.8,223.65z"/>
			<path class="st6" d="M193.26,227.14c3.73-9.03,10.72-15.92,16.61-20.46"/>
		</g>
		<path class="st8" d="M248.18,223.15c8.72,20.99,0.38,44.42,0.38,44.42s-22.49-10.61-31.22-31.61s-0.38-44.42-0.38-44.42
			S239.45,202.16,248.18,223.15z"/>
		<path class="st6" d="M225.79,232.45c-3.75-9.02-3.67-18.84-2.73-26.21c5.89,4.53,12.91,11.4,16.65,20.43"/>
	</g>
	<circle class="st10" cx="127.28" cy="127.01" r="53.54"/>
	<path class="st1" d="M180.74,123.98c0.06,1,0.08,2.01,0.08,3.03c0,29.57-23.97,53.54-53.54,53.54s-53.54-23.97-53.54-53.54
		s23.97-53.54,53.54-53.54c8.27,0,16.09,1.87,23.08,5.22"/>
	<path class="st1" d="M177.61,108.69c0.15,0.42,0.3,0.85,0.45,1.28"/>
	<path class="st1" d="M164.22,88.25c2.56,2.44,4.87,5.13,6.91,8.03"/>
	<path class="st4" d="M95.75,111.31c1.16-2.32,2.57-4.5,4.19-6.5"/>
	<path class="st4" d="M113.32,94.66c4.28-1.86,9-2.88,13.96-2.88c2.35,0,4.65,0.23,6.87,0.67"/>
	<path class="st6" d="M82.9,127.01c0-24.47,19.91-44.38,44.39-44.38c24.47,0,44.38,19.91,44.38,44.38"/>
</g>
</svg>
