<?xml version="1.0" encoding="utf-8"?>
<!-- Generator: Adobe Illustrator 24.1.0, SVG Export Plug-In . SVG Version: 6.00 Build 0)  -->
<svg version="1.1" id="Layer_1" xmlns="http://www.w3.org/2000/svg" xmlns:xlink="http://www.w3.org/1999/xlink" x="0px" y="0px"
	 viewBox="0 0 512 512" style="enable-background:new 0 0 512 512;" xml:space="preserve">
<style type="text/css">
	.st0{fill:#D7B49E;}
	.st1{fill:none;stroke:#000000;stroke-width:9.1561;stroke-linecap:round;stroke-linejoin:round;stroke-miterlimit:10;}
	.st2{fill:#27AAE2;}
	.st3{fill:none;stroke:#FFFFFF;stroke-width:9.1561;stroke-linecap:round;stroke-linejoin:round;stroke-miterlimit:10;}
	
		.st4{opacity:0.25;fill:none;stroke:#FFFFFF;stroke-width:9.1561;stroke-linecap:round;stroke-linejoin:round;stroke-miterlimit:10;}
	.st5{fill:#F24D8B;}
	.st6{fill:#F24D8B;stroke:#000000;stroke-width:9.1561;stroke-linecap:round;stroke-linejoin:round;stroke-miterlimit:10;}
	.st7{fill:#27AAE2;stroke:#000000;stroke-width:9.1561;stroke-linecap:round;stroke-linejoin:round;stroke-miterlimit:10;}
	
		.st8{opacity:0.15;fill:none;stroke:#000000;stroke-width:9.1561;stroke-linecap:round;stroke-linejoin:round;stroke-miterlimit:10;}
	.st9{fill:#EFCA08;stroke:#000000;stroke-width:9.1561;stroke-linecap:round;stroke-linejoin:round;stroke-miterlimit:10;}
	.st10{fill:#F49E09;stroke:#000000;stroke-width:9.1561;stroke-linecap:round;stroke-linejoin:round;stroke-miterlimit:10;}
	.st11{fill:#6D919F;}
	.st12{fill:#452345;stroke:#000000;stroke-width:9.1561;stroke-linecap:round;stroke-linejoin:round;stroke-miterlimit:10;}
	.st13{fill:#6D919F;stroke:#000000;stroke-width:9.1561;stroke-linecap:round;stroke-linejoin:round;stroke-miterlimit:10;}
</style>
<g>
	<path class="st0" d="M438.86,341.99H73.74V137.54h311.03c11.43,0,21.47,7.56,24.64,18.54l29.45,102.3V341.99z"/>
	<line class="st1" x1="255.69" y1="137.54" x2="274.87" y2="137.54"/>
	<line class="st1" x1="234.3" y1="137.54" x2="237.24" y2="137.54"/>
	<polyline class="st1" points="73.74,183.11 73.74,137.54 216.78,137.54 	"/>
	<line class="st1" x1="73.74" y1="202.21" x2="73.74" y2="200.31"/>
	<polygon class="st2" points="411.01,161.65 357.85,161.65 357.85,257.68 438.66,257.68 	"/>
	<polyline class="st1" points="416.28,179.96 411.01,161.65 357.85,161.65 357.85,257.68 438.66,257.68 433.01,238.05 	"/>
	<polyline class="st1" points="429.44,225.64 438.86,258.38 438.86,341.99 73.74,341.99 73.74,220.59 	"/>
	<line class="st1" x1="424.01" y1="206.79" x2="424.84" y2="209.67"/>
	<path class="st1" d="M293.68,137.54h91.09c11.43,0,21.47,7.56,24.64,18.54l10.07,34.99"/>
	<line class="st3" x1="376.16" y1="194.84" x2="376.16" y2="179.96"/>
	<line class="st3" x1="376.16" y1="217.21" x2="376.16" y2="211.03"/>
	<path class="st4" d="M82.9,146.69h301.87c7.3,0,13.82,4.9,15.84,11.92l29.1,101.05"/>
	<path class="st5" d="M73.74,257.68H432.9c3.29,0,5.96,2.67,5.96,5.96v78.34H73.74V257.68z"/>
	<path class="st1" d="M200.89,257.68H432.9c3.29,0,5.96,2.67,5.96,5.96v78.34H73.74v-84.3h110.14"/>
	<line class="st6" x1="272.99" y1="276" x2="305.81" y2="276"/>
	<line class="st6" x1="226.54" y1="276" x2="251.6" y2="276"/>
	<line class="st4" x1="82.9" y1="266.84" x2="429.7" y2="266.84"/>
	<line class="st1" x1="357.85" y1="341.99" x2="357.85" y2="137.54"/>
	<rect x="271.78" y="161.65" class="st7" width="64.09" height="70.48"/>
	<line class="st3" x1="315.96" y1="179.96" x2="317.56" y2="179.96"/>
	<line class="st3" x1="290.09" y1="179.96" x2="300.92" y2="179.96"/>
	<line class="st8" x1="326.72" y1="222.97" x2="280.94" y2="222.97"/>
	<line class="st4" x1="280.94" y1="170.8" x2="326.72" y2="170.8"/>
	<rect x="183.88" y="161.65" class="st7" width="64.09" height="70.48"/>
	<path class="st3" d="M202.2,213.82"/>
	<line class="st3" x1="218.19" y1="179.96" x2="229.66" y2="179.96"/>
	<line class="st8" x1="238.82" y1="222.97" x2="193.04" y2="222.97"/>
	<line class="st4" x1="193.04" y1="170.8" x2="238.82" y2="170.8"/>
	<rect x="95.99" y="161.65" class="st7" width="64.09" height="70.48"/>
	<polyline class="st3" points="114.3,189.92 114.3,179.96 125.87,179.96 	"/>
	<line class="st4" x1="105.14" y1="170.8" x2="150.92" y2="170.8"/>
	<line class="st8" x1="150.92" y1="222.97" x2="105.14" y2="222.97"/>
	<rect x="404.93" y="289.36" class="st9" width="33.94" height="27.44"/>
	<rect x="73.74" y="311.88" class="st10" width="18.76" height="30.11"/>
	<line class="st8" x1="429.7" y1="332.83" x2="82.9" y2="332.83"/>
	<circle class="st11" cx="357.85" cy="341.99" r="32.53"/>
	<path class="st4" d="M334.48,341.99c0-12.89,10.48-23.37,23.37-23.37c12.89,0,23.37,10.48,23.37,23.37"/>
	<path class="st1" d="M371.35,312.38c-4.11-1.88-8.68-2.92-13.5-2.92c-17.97,0-32.53,14.56-32.53,32.53s14.56,32.53,32.53,32.53
		s32.53-14.56,32.53-32.53c0-6.58-1.95-12.69-5.31-17.81"/>
	<path class="st12" d="M357.85,352.54c-5.82,0-10.55-4.74-10.55-10.55c0-5.82,4.73-10.55,10.55-10.55s10.56,4.74,10.56,10.55
		C368.41,347.81,363.67,352.54,357.85,352.54z"/>
	<circle class="st13" cx="138.1" cy="341.99" r="32.53"/>
	<path class="st4" d="M114.73,341.99c0-12.89,10.48-23.37,23.37-23.37s23.37,10.48,23.37,23.37"/>
	<path class="st12" d="M138.1,352.54c-5.82,0-10.55-4.74-10.55-10.55c0-5.82,4.73-10.55,10.55-10.55s10.56,4.74,10.56,10.55
		C148.66,347.81,143.92,352.54,138.1,352.54z"/>
</g>
</svg>
