<?xml version="1.0" encoding="utf-8"?>
<!-- Generator: Adobe Illustrator 24.1.0, SVG Export Plug-In . SVG Version: 6.00 Build 0)  -->
<svg version="1.1" id="Layer_1" xmlns="http://www.w3.org/2000/svg" xmlns:xlink="http://www.w3.org/1999/xlink" x="0px" y="0px"
	 viewBox="0 0 512 512" style="enable-background:new 0 0 512 512;" xml:space="preserve">
<style type="text/css">
	.st0{fill:#BBDEF1;}
	.st1{fill:none;stroke:#000000;stroke-width:9.1561;stroke-linecap:round;stroke-linejoin:round;stroke-miterlimit:10;}
	.st2{fill:#82E370;stroke:#000000;stroke-width:9.1561;stroke-linecap:round;stroke-linejoin:round;stroke-miterlimit:10;}
	.st3{fill:#82E370;}
	
		.st4{opacity:0.25;fill:none;stroke:#FFFFFF;stroke-width:9.1561;stroke-linecap:round;stroke-linejoin:round;stroke-miterlimit:10;}
	
		.st5{opacity:0.15;fill:none;stroke:#000000;stroke-width:9.1561;stroke-linecap:round;stroke-linejoin:round;stroke-miterlimit:10;}
	.st6{fill:#FFFFFF;stroke:#000000;stroke-width:9.1561;stroke-linecap:round;stroke-linejoin:round;stroke-miterlimit:10;}
	.st7{opacity:0.15;}
</style>
<g>
	<circle class="st0" cx="264.09" cy="237.19" r="164.52"/>
	<path class="st1" d="M425.16,270.87c-15.54,74.71-81.75,130.84-161.07,130.84c-90.86,0-164.52-73.66-164.52-164.52
		c0-55.72,27.7-104.97,70.08-134.73c0.97-0.68,1.95-1.35,2.93-2.01"/>
	<path class="st1" d="M427.88,252.75c-0.09,0.98-0.19,1.96-0.3,2.94"/>
	<path class="st1" d="M234.65,75.29c9.55-1.73,19.39-2.63,29.44-2.63c90.86,0,164.52,73.66,164.52,164.52"/>
	<path class="st1" d="M203.32,84.25c1.15-0.46,2.31-0.9,3.47-1.33c3.02-1.12,6.07-2.16,9.17-3.1c0.85-0.26,1.71-0.51,2.57-0.76"/>
	<path class="st1" d="M186.35,92.15c1.03-0.55,2.07-1.1,3.11-1.63"/>
	<path class="st2" d="M343.86,93.28c-18.54,7.29-36.8,18.83-46.59,37.07c-24.86,46.33,52.31,13.81,52.2,47.08
		c-0.11,33.26,25.28,71.14,52.2,65.45c11.52-2.43,19.98-12.92,25.89-24.11C421.55,164.69,389.32,118.53,343.86,93.28z"/>
	<path class="st1" d="M357.04,124.41c8.06,6.66,15.4,14.16,21.88,22.37"/>
	<path class="st1" d="M274.02,91.31c8.63,0.58,17.05,1.91,25.21,3.93"/>
	<path class="st1" d="M237.77,93.35c4.54-0.83,9.15-1.45,13.83-1.84"/>
	<path class="st1" d="M390.4,163.61c3.88,6.64,7.26,13.62,10.07,20.87"/>
	<path class="st3" d="M239.43,202.68c-19.52,6.86-55.23,23.14-46.57,47.55c10.34,29.14,42.22,48.52,64.06,11.14
		c21.85-37.39,57.64-20.68,54.46-46.14C308.2,189.78,252.01,198.26,239.43,202.68z"/>
	<path class="st1" d="M259.54,198.67c-8.85,1.03-16.39,2.7-20.11,4c-19.52,6.86-55.23,23.14-46.57,47.55
		c10.34,29.14,42.22,48.52,64.06,11.14c21.85-37.39,57.64-20.68,54.46-46.14c-0.8-6.36-4.9-10.61-10.82-13.32"/>
	<path class="st1" d="M282.17,197.91c-1.06-0.07-2.13-0.12-3.2-0.16"/>
	<path class="st4" d="M201.98,237.46c4.29-8.97,19.42-18.75,40.49-26.15c4.43-1.56,18.66-4.46,33.02-4.46
		c6.01,0,25.71,0.69,26.81,9.51"/>
	<path class="st2" d="M215.14,153.05c-19.62,12.33-30.23,42.36-47.73,34.98c-17.5-7.38-27.05-32.83-7.16-50.33s35-37.91,59.66-24.52
		S235.02,140.56,215.14,153.05z"/>
	<path class="st4" d="M158.54,163.61c-0.79-4.87-0.09-12.13,7.75-19.04c3.03-2.66,5.92-5.37,8.72-7.98
		c10.67-9.97,19.88-18.58,29.49-18.58c3.44,0,7.05,1.05,11.03,3.21c7.26,3.94,9.9,7.33,9.95,9.03"/>
	<path class="st2" d="M197.64,324.64c-32.61,8.75-22.27-17.5-48.5-28.64c-12.72-5.4-27.12-3.26-38.6,0.36
		c17.95,46.56,56.46,82.9,104.41,97.88c0.62-12.01,1.67-23.57,19.7-25.28c27.47-2.6,30.6-21.27,21.85-42.58
		C247.75,305.08,230.25,315.89,197.64,324.64z"/>
	<path class="st5" d="M419.45,237.19c0,85.67-69.7,155.37-155.37,155.37s-155.37-69.7-155.37-155.37"/>
	<path class="st4" d="M123.17,302.67c3.08-0.52,6.04-0.78,8.84-0.78c5.02,0,9.58,0.85,13.55,2.54c8.25,3.51,11.67,8.87,15.28,14.56
		c4.44,6.99,10.53,16.56,25.48,16.56c0,0,0,0,0.01,0c4.02,0,8.5-0.68,13.68-2.07c6.19-1.66,11.89-3.4,16.91-4.94
		c9.44-2.89,17.58-5.38,22.93-5.38c3.28,0,5.62,0.47,8.19,6.72"/>
	<path class="st4" d="M108.72,237.19c0-85.67,69.7-155.37,155.37-155.37s155.37,69.7,155.37,155.37"/>
	<path class="st2" d="M376.61,292.73c-12.78,16.39-0.8,40.66-15.91,44.63c-15.11,3.98-5.57-25.03-23.07-31.61
		c-17.5-6.58-24.66-15.96-19.89-26.38s28.64-14.4,42.95-12.01S385.36,281.51,376.61,292.73z"/>
	<path class="st4" d="M326.07,283.19c1.34-2.92,12.3-7.34,25.77-7.34c2.67,0,5.21,0.19,7.35,0.55c6.06,1.01,10.25,4.16,11.26,6.76"
		/>
	<path class="st1" d="M95.59,314.87c13.98-36.13,40.17-75.76,76.21-111.8"/>
	<path class="st1" d="M88.83,335.55c0.34-1.28,0.69-2.56,1.07-3.85"/>
	<path class="st1" d="M240.87,402.96c-57.46,33.73-112.48,41-140,13.48c-14.51-14.51-19.35-36.65-15.74-62.77"/>
	<path class="st5" d="M112.39,293.8c14.93-27.85,36.28-56.62,63.07-83.41"/>
	<path class="st6" d="M213.23,172.15l12.7-13.17l17.23,27.48l7.27-8.07l-12.3-32.39l3.11-3.46c2.67-2.96,4.88-6.31,6.56-9.93
		l3.46-7.43c0.73-1.58,0.35-3.45-0.94-4.62c-1.29-1.17-3.2-1.35-4.69-0.45l-7.03,4.21c-3.42,2.05-6.52,4.6-9.19,7.57l-3.11,3.46
		l-33.49-8.85l-7.27,8.07l29.13,14.26l-11.77,14.01c-0.64,0.71-2.42,2.86-2.87,3.7l-7.14,9.36l-13.27-5.4l-5.41,6.01l14.89,11.96
		l0.07,0.06l13.45,13.56l5.41-6.01l-6.75-12.63l8.56-8.08C210.64,174.85,212.59,172.86,213.23,172.15z"/>
	<path class="st7" d="M251.95,141.88l3.46-7.43c1.59-3.42,0.77-7.42-2.03-9.95c-2.81-2.53-6.87-2.92-10.11-0.98l-7.03,4.22
		c-3.81,2.29-7.25,5.12-10.23,8.43l-1.24,1.38l-30.79-8.14c-1.65-0.44-3.42,0.09-4.57,1.36l-7.27,8.07
		c-0.96,1.07-1.37,2.52-1.09,3.93c0.27,1.41,1.19,2.61,2.48,3.24l23.87,11.68l-7.9,9.4c-0.02,0.03-2.24,2.53-3.27,4.21l-4.85,6.36
		l-10.03-4.08c-1.78-0.73-3.84-0.26-5.13,1.18l-5.41,6.01c-0.84,0.94-1.26,2.18-1.16,3.43c0.1,1.25,0.72,2.41,1.7,3.2l14.72,11.82
		l13.31,13.42c0.86,0.87,2.03,1.35,3.25,1.35c0.04,0,0.07,0,0.11,0c1.26-0.03,2.45-0.58,3.29-1.51l5.41-6.01
		c1.29-1.43,1.55-3.52,0.64-5.22l-5.1-9.55l5.82-5.49c1.39-1.07,3.34-3.15,3.77-3.61l8.61-8.93l14.12,22.52
		c0.76,1.22,2.05,2.01,3.48,2.13c1.45,0.13,2.84-0.43,3.8-1.5l7.27-8.07c1.15-1.28,1.49-3.08,0.88-4.69l-11.31-29.77l1.24-1.38
		C247.62,149.63,250.08,145.91,251.95,141.88z"/>
</g>
</svg>
