<?xml version="1.0" encoding="utf-8"?>
<!-- Generator: Adobe Illustrator 24.1.0, SVG Export Plug-In . SVG Version: 6.00 Build 0)  -->
<svg version="1.1" id="Layer_1" xmlns="http://www.w3.org/2000/svg" xmlns:xlink="http://www.w3.org/1999/xlink" x="0px" y="0px"
	 viewBox="0 0 512 512" style="enable-background:new 0 0 512 512;" xml:space="preserve">
<style type="text/css">
	.st0{fill:#6D919F;stroke:#000000;stroke-width:9.1561;stroke-linecap:round;stroke-linejoin:round;stroke-miterlimit:10;}
	.st1{fill:#D7B49E;}
	.st2{fill:none;stroke:#000000;stroke-width:9.1561;stroke-linecap:round;stroke-linejoin:round;stroke-miterlimit:10;}
	
		.st3{opacity:0.25;fill:none;stroke:#FFFFFF;stroke-width:9.1561;stroke-linecap:round;stroke-linejoin:round;stroke-miterlimit:10;}
	.st4{fill:#B15F6E;stroke:#000000;stroke-width:9.1561;stroke-linecap:round;stroke-linejoin:round;stroke-miterlimit:10;}
	
		.st5{opacity:0.15;fill:none;stroke:#000000;stroke-width:9.1561;stroke-linecap:round;stroke-linejoin:round;stroke-miterlimit:10;}
	.st6{opacity:0.15;}
	.st7{fill:#FFFFFF;}
	.st8{fill:#014689;stroke:#000000;stroke-width:9.1561;stroke-linecap:round;stroke-linejoin:round;stroke-miterlimit:10;}
	.st9{fill:none;stroke:#FFFFFF;stroke-width:9.1561;stroke-linecap:round;stroke-linejoin:round;stroke-miterlimit:10;}
	.st10{fill:#EFCA08;stroke:#000000;stroke-width:9.1561;stroke-linecap:round;stroke-linejoin:round;stroke-miterlimit:10;}
	.st11{fill:#FFFFFF;stroke:#000000;stroke-width:9.1561;stroke-linecap:round;stroke-linejoin:round;stroke-miterlimit:10;}
	.st12{fill:#FE5548;stroke:#000000;stroke-width:9.1561;stroke-linecap:round;stroke-linejoin:round;stroke-miterlimit:10;}
	.st13{fill:#82E370;stroke:#000000;stroke-width:9.1561;stroke-linecap:round;stroke-linejoin:round;stroke-miterlimit:10;}
</style>
<g>
	<path class="st0" d="M286.92,74.21h-61.24c-5.07,0-9.64,3.06-11.57,7.76l-5.97,14.52h96.32l-5.97-14.52
		C296.57,77.28,291.99,74.21,286.92,74.21z"/>
	<path class="st1" d="M349.82,359.95H162.79c-14.16,0-25.64-11.48-25.64-25.64v-216c0-14.16,11.48-25.64,25.64-25.64h187.03
		c14.16,0,25.64,11.48,25.64,25.64v216C375.45,348.47,363.98,359.95,349.82,359.95z"/>
	<path class="st2" d="M137.15,163.29v-44.98c0-14.16,11.48-25.64,25.64-25.64h144.99"/>
	<line class="st2" x1="137.15" y1="179.25" x2="137.15" y2="177.94"/>
	<path class="st2" d="M361.84,95.67c0.8,0.42,1.57,0.89,2.31,1.39c4.86,3.28,8.53,8.18,10.24,13.93c0.69,2.32,1.06,4.78,1.06,7.33
		v216c0,14.16-11.48,25.64-25.64,25.64H162.79c-14.16,0-25.64-11.48-25.64-25.64V194.88"/>
	<line class="st2" x1="345.19" y1="92.68" x2="346.76" y2="92.68"/>
	<line class="st2" x1="323.07" y1="92.68" x2="329.86" y2="92.68"/>
	<path class="st3" d="M146.31,118.31c0-9.09,7.39-16.48,16.48-16.48h187.03c9.09,0,16.48,7.39,16.48,16.48"/>
	<path class="st4" d="M137.15,242.69v91.63c0,14.16,11.48,25.64,25.64,25.64h187.03c14.16,0,25.64-11.48,25.64-25.64v-91.63H137.15z
		"/>
	<path class="st5" d="M366.3,334.31c0,9.09-7.39,16.48-16.48,16.48H162.79c-9.09,0-16.48-7.39-16.48-16.48"/>
	<line class="st2" x1="155.46" y1="290.16" x2="155.46" y2="267.1"/>
	<line class="st2" x1="155.46" y1="319.6" x2="155.46" y2="306.51"/>
	<line class="st2" x1="269.43" y1="110.99" x2="289.31" y2="110.99"/>
	<line class="st2" x1="213.71" y1="110.99" x2="247.15" y2="110.99"/>
	<line class="st3" x1="146.31" y1="251.84" x2="366.3" y2="251.84"/>
	
		<ellipse transform="matrix(0.7071 -0.7071 0.7071 0.7071 -85.9334 248.6106)" class="st6" cx="257.13" cy="228.04" rx="78.48" ry="78.48"/>
	<circle class="st7" cx="257.13" cy="220.71" r="73.9"/>
	<path class="st2" d="M303.65,163.29c-0.98-0.79-1.97-1.56-2.99-2.3"/>
	<path class="st2" d="M283.68,151.73c-8.24-3.17-17.19-4.91-26.55-4.91c-40.81,0-73.9,33.09-73.9,73.9s33.09,73.9,73.9,73.9
		s73.9-33.09,73.9-73.9c0-16.26-5.25-31.3-14.15-43.5"/>
	<path class="st8" d="M257.13,279.96c-32.67,0-59.25-26.58-59.25-59.25c0-32.67,26.58-59.25,59.25-59.25
		c32.67,0,59.25,26.58,59.25,59.25C316.38,253.38,289.8,279.96,257.13,279.96z"/>
	<path class="st9" d="M216.62,214.84c0.55-3.79,1.62-7.42,3.13-10.8"/>
	<path class="st9" d="M230.42,189.71c7.17-6.19,16.51-9.94,26.71-9.94"/>
	<path class="st3" d="M207.04,220.71c0-27.62,22.47-50.09,50.09-50.09c27.62,0,50.09,22.47,50.09,50.09"/>
	<path class="st10" d="M181.61,149.95h-13.32c-7.08,0-12.82-5.74-12.82-12.82v-13.32c0-7.08,5.74-12.82,12.82-12.82h13.32
		c7.08,0,12.82,5.74,12.82,12.82v13.32C194.42,144.21,188.69,149.95,181.61,149.95z"/>
	<path class="st3" d="M164.62,123.81c0-2.02,1.64-3.66,3.66-3.66h13.32c2.02,0,3.66,1.64,3.66,3.66"/>
	<circle class="st11" cx="345.6" cy="122.53" r="11.54"/>
	<circle class="st12" cx="345.6" cy="160.99" r="11.54"/>
	<line class="st2" x1="183.24" y1="324.24" x2="331.03" y2="324.24"/>
	<path class="st11" d="M316.38,325.35h-118.5v99.67c0,7.08,5.74,12.82,12.82,12.82h92.86c7.08,0,12.82-5.74,12.82-12.82V325.35z"/>
	<polygon class="st13" points="298.89,403.26 213.71,403.26 214.54,325.35 299.73,325.35 	"/>
	<line class="st5" x1="183.24" y1="331.56" x2="331.03" y2="331.56"/>
</g>
</svg>
