<?xml version="1.0" encoding="utf-8"?>
<!-- Generator: Adobe Illustrator 24.1.0, SVG Export Plug-In . SVG Version: 6.00 Build 0)  -->
<svg version="1.1" id="Layer_1" xmlns="http://www.w3.org/2000/svg" xmlns:xlink="http://www.w3.org/1999/xlink" x="0px" y="0px"
	 viewBox="0 0 512 512" style="enable-background:new 0 0 512 512;" xml:space="preserve">
<style type="text/css">
	.st0{fill:#AF8263;}
	.st1{fill:none;stroke:#000000;stroke-width:9.1561;stroke-linecap:round;stroke-linejoin:round;stroke-miterlimit:10;}
	.st2{fill:#6D919F;stroke:#000000;stroke-width:9.1561;stroke-linecap:round;stroke-linejoin:round;stroke-miterlimit:10;}
	.st3{opacity:0.15;}
	.st4{fill:#452345;}
	
		.st5{opacity:0.25;fill:none;stroke:#FFFFFF;stroke-width:9.1561;stroke-linecap:round;stroke-linejoin:round;stroke-miterlimit:10;}
	.st6{fill:#FE5548;stroke:#000000;stroke-width:9.1561;stroke-linecap:round;stroke-linejoin:round;stroke-miterlimit:10;}
	.st7{fill:#27AAE2;stroke:#000000;stroke-width:9.1561;stroke-linecap:round;stroke-linejoin:round;stroke-miterlimit:10;}
	.st8{fill:#D7B49E;stroke:#000000;stroke-width:9.1561;stroke-linecap:round;stroke-linejoin:round;stroke-miterlimit:10;}
	.st9{fill:#EFCA08;stroke:#000000;stroke-width:9.1561;stroke-linecap:round;stroke-linejoin:round;stroke-miterlimit:10;}
	.st10{fill:#D7B49E;}
	
		.st11{opacity:0.15;fill:none;stroke:#000000;stroke-width:9.1561;stroke-linecap:round;stroke-linejoin:round;stroke-miterlimit:10;}
</style>
<g>
	<path class="st0" d="M413.22,393.94H99.38c-14.16,0-25.64-11.48-25.64-25.64V175.35c0-14.16,11.48-25.64,25.64-25.64h313.84
		c14.16,0,25.64,11.48,25.64,25.64V368.3C438.86,382.46,427.38,393.94,413.22,393.94z"/>
	<line class="st1" x1="268.55" y1="149.72" x2="269.7" y2="149.72"/>
	<line class="st1" x1="235.53" y1="149.72" x2="252.4" y2="149.72"/>
	<path class="st1" d="M73.74,207.7v-32.34c0-14.16,11.48-25.64,25.64-25.64h119.61"/>
	<line class="st1" x1="73.74" y1="238.24" x2="73.74" y2="222.95"/>
	<line class="st1" x1="73.74" y1="256.18" x2="73.74" y2="253.52"/>
	<path class="st1" d="M285.85,149.72h127.38c14.16,0,25.64,11.48,25.64,25.64V368.3c0,14.16-11.48,25.64-25.64,25.64H99.38
		c-14.16,0-25.64-11.48-25.64-25.64v-95.97"/>
	<g>
		<g>
			<rect x="123.01" y="394.89" class="st2" width="54.15" height="22.66"/>
			<rect x="123.01" y="394.89" class="st3" width="54.15" height="10.07"/>
		</g>
		<g>
			<g>
				<rect x="335.44" y="394.89" class="st2" width="54.15" height="22.66"/>
			</g>
			<rect x="335.44" y="394.89" class="st3" width="54.15" height="10.07"/>
		</g>
	</g>
	<line class="st1" x1="420.55" y1="222.95" x2="420.55" y2="246.82"/>
	<line class="st1" x1="260.99" y1="168.03" x2="286.6" y2="168.03"/>
	<line class="st1" x1="236.09" y1="168.03" x2="241.81" y2="168.03"/>
	<line class="st1" x1="420.55" y1="264.5" x2="420.55" y2="277.06"/>
	<path class="st4" d="M316.27,94.5H196.34c-7.08,0-12.82,5.74-12.82,12.82v42.4h23.81v-31.41h97.96v31.41h23.81v-42.4
		C329.09,100.24,323.35,94.5,316.27,94.5z"/>
	<line class="st1" x1="297.7" y1="94.5" x2="279.64" y2="94.5"/>
	<path class="st1" d="M248.02,94.5h-51.68c-7.08,0-12.82,5.74-12.82,12.82v42.4h23.81v-31.41h97.96v31.41h23.81v-42.4
		c0-7.08-5.74-12.82-12.82-12.82h-3.62"/>
	<line class="st1" x1="265.12" y1="94.5" x2="262.54" y2="94.5"/>
	<path class="st5" d="M192.67,107.32c0-2.02,1.64-3.66,3.66-3.66h119.93c2.02,0,3.66,1.64,3.66,3.66"/>
	
		<rect x="167.93" y="213.55" transform="matrix(0.7071 -0.7071 0.7071 0.7071 -115.8624 215.1931)" class="st6" width="67.81" height="67.81"/>
	<polyline class="st5" points="166.83,247.45 201.83,212.46 236.83,247.45 	"/>
	<circle class="st7" cx="329.08" cy="327.09" r="31.11"/>
	<path class="st5" d="M307.13,327.09c0-12.1,9.85-21.95,21.95-21.95c12.1,0,21.95,9.85,21.95,21.95"/>
	<g>
		<g>
			<rect x="127.87" y="149.72" class="st8" width="37.11" height="244.22"/>
			<path class="st3" d="M155.4,225.7h-17.94c-9.59,0-17.4,7.8-17.4,17.4v35.49c0,9.59,7.8,17.4,17.4,17.4h17.94
				c9.59,0,17.4-7.8,17.4-17.4V243.1C172.8,233.51,164.99,225.7,155.4,225.7z"/>
			<path class="st9" d="M155.4,222.95h-17.94c-7.08,0-12.82,5.74-12.82,12.82v35.49c0,7.08,5.74,12.82,12.82,12.82h17.94
				c7.08,0,12.82-5.74,12.82-12.82v-35.49C168.22,228.69,162.48,222.95,155.4,222.95z"/>
			<line class="st1" x1="146.43" y1="246.82" x2="146.43" y2="209.53"/>
		</g>
		<g>
			<rect x="347.62" y="149.72" class="st10" width="37.11" height="244.22"/>
			<polyline class="st1" points="384.73,338.31 384.73,393.94 347.62,393.94 347.62,149.72 384.73,149.72 384.73,308.68 			"/>
			<line class="st1" x1="384.73" y1="323" x2="384.73" y2="323.75"/>
			<path class="st3" d="M375.15,225.7H357.2c-9.59,0-17.4,7.8-17.4,17.4v35.49c0,9.59,7.8,17.4,17.4,17.4h17.94
				c9.59,0,17.4-7.8,17.4-17.4V243.1C392.54,233.51,384.74,225.7,375.15,225.7z"/>
			<path class="st9" d="M375.15,222.95H357.2c-7.08,0-12.82,5.74-12.82,12.82v35.49c0,7.08,5.74,12.82,12.82,12.82h17.94
				c7.08,0,12.82-5.74,12.82-12.82v-35.49C387.97,228.69,382.23,222.95,375.15,222.95z"/>
			<line class="st1" x1="366.18" y1="246.82" x2="366.18" y2="209.53"/>
		</g>
	</g>
	<path class="st11" d="M429.7,368.3c0,9.09-7.39,16.48-16.48,16.48H99.38c-9.09,0-16.48-7.39-16.48-16.48"/>
	<path class="st5" d="M82.9,175.35c0-9.09,7.39-16.48,16.48-16.48h313.84c9.09,0,16.48,7.39,16.48,16.48"/>
</g>
</svg>
