<?xml version="1.0" encoding="utf-8"?>
<!-- Generator: Adobe Illustrator 24.1.0, SVG Export Plug-In . SVG Version: 6.00 Build 0)  -->
<svg version="1.1" id="Layer_1" xmlns="http://www.w3.org/2000/svg" xmlns:xlink="http://www.w3.org/1999/xlink" x="0px" y="0px"
	 viewBox="0 0 512 512" style="enable-background:new 0 0 512 512;" xml:space="preserve">
<style type="text/css">
	.st0{fill:#BBDEF1;}
	.st1{fill:none;stroke:#000000;stroke-width:9.1561;stroke-linecap:round;stroke-linejoin:round;stroke-miterlimit:10;}
	
		.st2{opacity:0.15;fill:none;stroke:#000000;stroke-width:9.1561;stroke-linecap:round;stroke-linejoin:round;stroke-miterlimit:10;}
	.st3{fill:none;stroke:#FFFFFF;stroke-width:9.1561;stroke-linecap:round;stroke-linejoin:round;stroke-miterlimit:10;}
	.st4{fill:#FE5548;}
	.st5{fill:#FFFFFF;}
	.st6{fill:#27AAE2;}
	.st7{opacity:0.15;}
	.st8{fill:#58D6D1;stroke:#000000;stroke-width:9.1561;stroke-linecap:round;stroke-linejoin:round;stroke-miterlimit:10;}
	.st9{fill:#014689;}
	.st10{fill:#FE5548;stroke:#000000;stroke-width:9.1561;stroke-linecap:round;stroke-linejoin:round;stroke-miterlimit:10;}
	
		.st11{opacity:0.25;fill:none;stroke:#FFFFFF;stroke-width:9.1561;stroke-linecap:round;stroke-linejoin:round;stroke-miterlimit:10;}
	.st12{fill:#82E370;stroke:#000000;stroke-width:9.1561;stroke-linecap:round;stroke-linejoin:round;stroke-miterlimit:10;}
	.st13{fill:#6D919F;stroke:#000000;stroke-width:9.1561;stroke-linecap:round;stroke-linejoin:round;stroke-miterlimit:10;}
	.st14{fill:#452345;stroke:#000000;stroke-width:9.1561;stroke-linecap:round;stroke-linejoin:round;stroke-miterlimit:10;}
	.st15{fill:#AF8263;}
	.st16{fill:#D7B49E;}
</style>
<g>
	<g>
		<path class="st0" d="M419.97,180.76v-26.19h-48.8v26.19c0,15.12-4.05,29.96-11.73,42.98l0,0c-6.46,10.96-9.87,23.44-9.87,36.16
			v103.81c0,7.08,5.74,12.82,12.82,12.82h66.37c7.08,0,12.82-5.74,12.82-12.82V259.91c0-12.72-3.41-25.21-9.87-36.16l0,0
			C424.02,210.73,419.97,195.88,419.97,180.76z"/>
		<path class="st1" d="M421.49,196.72c-0.12-0.62-0.23-1.24-0.34-1.86"/>
		<path class="st1" d="M419.97,178.88v-24.31h-48.8v26.19c0,15.12-4.05,29.96-11.73,42.98l0,0c-6.46,10.96-9.87,23.44-9.87,36.16
			v103.81c0,7.08,5.74,12.82,12.82,12.82h66.37c7.08,0,12.82-5.74,12.82-12.82V259.91c0-12.72-3.41-25.21-9.87-36.16l0,0
			c-2.29-3.88-4.26-7.93-5.89-12.09"/>
		<line class="st2" x1="380.32" y1="163.73" x2="410.81" y2="163.73"/>
		<polyline class="st3" points="389.48,180.76 389.48,172.88 401.66,172.88 		"/>
		<path class="st3" d="M385.4,209.45c1.21-4.18,2.16-8.43,2.84-12.73"/>
		<path class="st4" d="M421.44,154.57H369.7c-5.33,0-9.65-4.32-9.65-9.65v0c0-5.33,4.32-9.65,9.65-9.65h51.74
			c5.33,0,9.65,4.32,9.65,9.65v0C431.09,150.25,426.77,154.57,421.44,154.57z"/>
		<path class="st1" d="M409.59,135.27h11.84c5.33,0,9.65,4.32,9.65,9.65v0c0,5.33-4.32,9.65-9.65,9.65H369.7
			c-5.33,0-9.65-4.32-9.65-9.65v0c0-5.33,4.32-9.65,9.65-9.65h22.21"/>
		<path class="st5" d="M355.92,230.61c-4.15,9.19-6.35,19.16-6.35,29.3v103.81c0,7.08,5.74,12.82,12.82,12.82h66.37
			c7.08,0,12.82-5.74,12.82-12.82V259.91c0-10.14-2.2-20.12-6.35-29.3H355.92z"/>
		<path class="st1" d="M397.4,230.61h-41.48c-4.15,9.19-6.35,19.16-6.35,29.3v103.81c0,7.08,5.74,12.82,12.82,12.82h66.37
			c7.08,0,12.82-5.74,12.82-12.82V259.91c0-10.14-2.2-20.12-6.35-29.3h-19.16"/>
		<path class="st2" d="M432.42,363.72c0,2.02-1.64,3.66-3.66,3.66h-66.37c-2.02,0-3.66-1.64-3.66-3.66"/>
	</g>
	<g>
		<path class="st6" d="M291.66,190.9H119.51c-14.16,0-25.64,11.48-25.64,25.64v143.83H317.3V216.54
			C317.3,202.38,305.82,190.9,291.66,190.9z"/>
		<line class="st1" x1="317.3" y1="234.19" x2="317.3" y2="233.08"/>
		<path class="st1" d="M317.3,216.54c0-14.16-11.48-25.64-25.64-25.64H119.51c-14.16,0-25.64,11.48-25.64,25.64v143.83H317.3V249.38
			"/>
		<line class="st1" x1="186.71" y1="209.21" x2="200.39" y2="209.21"/>
		<line class="st1" x1="145.9" y1="209.21" x2="167.69" y2="209.21"/>
		<line class="st1" x1="272.86" y1="231.07" x2="272.86" y2="313.38"/>
		<path class="st7" d="M289.56,291.47h-33.41c-2.53,0-4.58,2.05-4.58,4.58v15.11c0,2.53,2.05,4.58,4.58,4.58h33.41
			c2.53,0,4.58-2.05,4.58-4.58v-15.11C294.14,293.52,292.09,291.47,289.56,291.47z"/>
		<rect x="256.15" y="288.72" class="st8" width="33.41" height="15.11"/>
		<rect x="93.87" y="338.86" class="st9" width="223.42" height="21.51"/>
		<polyline class="st1" points="179.61,338.86 93.87,338.86 93.87,360.37 317.3,360.37 317.3,338.86 256.04,338.86 		"/>
		<line class="st1" x1="218.41" y1="338.86" x2="196.72" y2="338.86"/>
		<line class="st1" x1="238.63" y1="338.86" x2="235.69" y2="338.86"/>
		<path class="st10" d="M82.45,263.79h11.42v-22.84H82.45c-6.31,0-11.42,5.11-11.42,11.42v0C71.03,258.68,76.14,263.79,82.45,263.79
			z"/>
		<line class="st2" x1="308.14" y1="351.21" x2="103.03" y2="351.21"/>
		<path class="st11" d="M103.03,216.54c0-9.09,7.39-16.48,16.48-16.48h172.15c9.09,0,16.48,7.39,16.48,16.48"/>
		<g class="st7">
			<path d="M126.9,297.2c-8.23,0-14.92,6.69-14.92,14.92c0,8.23,6.69,14.92,14.92,14.92s14.92-6.69,14.92-14.92
				C141.82,303.89,135.12,297.2,126.9,297.2z"/>
			<path d="M163.52,297.2c-8.23,0-14.92,6.69-14.92,14.92c0,8.23,6.69,14.92,14.92,14.92c8.23,0,14.92-6.69,14.92-14.92
				C178.44,303.89,171.75,297.2,163.52,297.2z"/>
		</g>
		<circle class="st12" cx="126.9" cy="306.62" r="10.34"/>
		<circle class="st13" cx="163.52" cy="306.62" r="10.34"/>
		<g>
			<rect x="115.04" y="360.37" class="st14" width="34.6" height="15.47"/>
			<rect x="261.53" y="360.37" class="st14" width="34.6" height="15.47"/>
		</g>
		<path class="st15" d="M245.22,138.4h-60.95c-14.16,0-25.64,11.48-25.64,25.64v26.86h112.22v-26.86
			C270.85,149.88,259.38,138.4,245.22,138.4z"/>
		<path class="st1" d="M184.27,138.4c-14.16,0-25.64,11.48-25.64,25.64v26.86h112.22v-26.86c0-14.16-11.48-25.64-25.64-25.64h-16.56
			"/>
		<path class="st16" d="M226.9,138.4h-60.95c-14.16,0-25.64,11.48-25.64,25.64v26.86h112.22v-26.86
			C252.54,149.88,241.06,138.4,226.9,138.4z"/>
		<path class="st1" d="M186.18,138.4h-20.23c-14.16,0-25.64,11.48-25.64,25.64v26.86h112.22v-26.86c0-14.16-11.48-25.64-25.64-25.64
			H216.1"/>
		<line class="st1" x1="201.1" y1="138.4" x2="200.35" y2="138.4"/>
		<path class="st11" d="M149.48,164.04c0-9.09,7.39-16.48,16.48-16.48h60.95c9.09,0,16.48,7.39,16.48,16.48"/>
	</g>
	<g>
		<path class="st4" d="M375.98,276.99c-5.01,0-9.79,0.96-14.22,2.65c-4.43-1.68-9.2-2.65-14.22-2.65
			c-22.13,0-40.08,17.95-40.08,40.08c0,22.13,17.95,59.71,40.08,59.71c5.01,0,9.79-0.96,14.22-2.65c4.43,1.69,9.2,2.65,14.22,2.65
			c22.14,0,40.08-37.57,40.08-59.71C416.06,294.93,398.11,276.99,375.98,276.99z"/>
		<path class="st1" d="M382.16,277.46c-2.01-0.31-4.08-0.47-6.18-0.47c-5.01,0-9.79,0.96-14.22,2.65c-4.43-1.68-9.2-2.65-14.22-2.65
			c-22.13,0-40.08,17.95-40.08,40.08c0,22.13,17.95,59.71,40.08,59.71c5.01,0,9.79-0.96,14.22-2.65c4.43,1.69,9.2,2.65,14.22,2.65
			c22.14,0,40.08-37.57,40.08-59.71c0-5.04-0.93-9.86-2.62-14.3c-0.3-0.78-0.62-1.56-0.97-2.32"/>
		<path class="st1" d="M401.48,286.14c-0.92-0.76-1.87-1.47-2.85-2.15"/>
		<path class="st1" d="M327.67,308.2c2.14-4.77,5.94-8.64,10.66-10.86"/>
		<line class="st1" x1="355.25" y1="296.75" x2="361.76" y2="299.22"/>
		<path class="st2" d="M375.98,367.62c-3.71,0-7.4-0.69-10.95-2.04l-3.27-1.25l-3.27,1.25c-3.55,1.36-7.24,2.04-10.95,2.04"/>
		<path class="st11" d="M316.62,317.07c0-17.06,13.87-30.93,30.92-30.93c3.7,0,7.39,0.69,10.96,2.05l3.25,1.24l3.25-1.24
			c3.57-1.36,7.26-2.05,10.96-2.05c17.05,0,30.92,13.87,30.92,30.93"/>
		<path class="st1" d="M361.76,279.63c0-26.63,7.74-35.57,7.74-35.57"/>
	</g>
</g>
</svg>
