<?xml version="1.0" encoding="utf-8"?>
<!-- Generator: Adobe Illustrator 24.1.0, SVG Export Plug-In . SVG Version: 6.00 Build 0)  -->
<svg version="1.1" id="Layer_1" xmlns="http://www.w3.org/2000/svg" xmlns:xlink="http://www.w3.org/1999/xlink" x="0px" y="0px"
	 viewBox="0 0 512 512" style="enable-background:new 0 0 512 512;" xml:space="preserve">
<style type="text/css">
	.st0{fill:#FFFFFF;}
	.st1{fill:none;stroke:#000000;stroke-width:9.1561;stroke-linecap:round;stroke-linejoin:round;stroke-miterlimit:10;}
	.st2{fill:#82E370;}
	
		.st3{opacity:0.25;fill:none;stroke:#FFFFFF;stroke-width:9.1561;stroke-linecap:round;stroke-linejoin:round;stroke-miterlimit:10;}
	
		.st4{opacity:0.15;fill:none;stroke:#000000;stroke-width:9.1561;stroke-linecap:round;stroke-linejoin:round;stroke-miterlimit:10;}
	.st5{fill:#47B39C;stroke:#000000;stroke-width:9.1561;stroke-linecap:round;stroke-linejoin:round;stroke-miterlimit:10;}
	.st6{fill:#EFCA08;stroke:#000000;stroke-width:9.1561;stroke-linecap:round;stroke-linejoin:round;stroke-miterlimit:10;}
	.st7{fill:#58D6D1;stroke:#000000;stroke-width:9.1561;stroke-linecap:round;stroke-linejoin:round;stroke-miterlimit:10;}
	.st8{fill:#FE5548;stroke:#000000;stroke-width:9.1561;stroke-linecap:round;stroke-linejoin:round;stroke-miterlimit:10;}
</style>
<g>
	<polygon class="st0" points="347.58,122 256.3,134.81 165.02,122 73.74,134.81 73.74,390.06 165.02,377.24 256.3,390.06 
		347.58,377.24 438.86,390.06 438.86,134.81 	"/>
	<line class="st1" x1="205.41" y1="127.67" x2="179.68" y2="124.05"/>
	<line class="st1" x1="222.71" y1="130.1" x2="220.99" y2="129.86"/>
	<polyline class="st1" points="438.86,211.59 438.86,134.81 347.58,122 256.3,134.81 237.02,132.11 	"/>
	<line class="st1" x1="438.86" y1="254.05" x2="438.86" y2="229.49"/>
	<line class="st1" x1="438.86" y1="271.8" x2="438.86" y2="269.66"/>
	<polyline class="st1" points="165.02,122 73.74,134.81 73.74,390.06 165.02,377.24 256.3,390.06 347.58,377.24 438.86,390.06 
		438.86,289.94 	"/>
	<polygon class="st2" points="347.58,140.31 256.3,153.13 165.02,140.31 92.06,151.3 92.06,369.91 165.02,358.93 256.3,371.74 
		347.58,358.93 420.55,369.91 420.55,151.3 	"/>
	<polyline class="st1" points="92.06,259.72 92.06,369.91 165.02,358.93 256.3,371.74 347.58,358.93 420.55,369.91 420.55,151.3 
		347.58,140.31 337.94,141.66 322.3,143.86 	"/>
	<line class="st1" x1="92.06" y1="243.61" x2="92.06" y2="243.86"/>
	<line class="st1" x1="92.06" y1="208.3" x2="92.06" y2="229.29"/>
	<polyline class="st1" points="306.98,146.01 256.3,153.13 165.02,140.31 92.06,151.3 92.06,192.41 	"/>
	<line class="st1" x1="238.51" y1="169.12" x2="256.3" y2="171.62"/>
	<line class="st1" x1="131.61" y1="163.86" x2="147.35" y2="161.49"/>
	<line class="st1" x1="113.24" y1="166.63" x2="116.62" y2="166.12"/>
	<line class="st1" x1="402.24" y1="217.44" x2="402.24" y2="227.2"/>
	<line class="st1" x1="402.24" y1="182.07" x2="402.24" y2="202.74"/>
	<line class="st1" x1="272.06" y1="169.41" x2="293.37" y2="166.41"/>
	<polyline class="st3" points="101.21,159.18 165.07,149.56 256.3,162.37 347.53,149.56 411.39,159.18 	"/>
	<polyline class="st4" points="411.39,359.27 347.63,349.67 256.3,362.5 164.98,349.67 101.21,359.27 	"/>
	<polygon class="st5" points="189.49,165.74 178.48,191.55 200.5,191.55 	"/>
	<line class="st1" x1="189.49" y1="205.96" x2="189.49" y2="191.55"/>
	<polygon class="st5" points="136.39,292.1 125.38,317.9 147.4,317.9 	"/>
	<line class="st1" x1="136.39" y1="332.31" x2="136.39" y2="317.9"/>
	<polygon class="st5" points="158.36,299.42 147.35,325.22 169.37,325.22 	"/>
	<line class="st1" x1="158.36" y1="339.63" x2="158.36" y2="325.22"/>
	<polygon class="st5" points="163.15,167.76 149.18,200.49 177.12,200.49 	"/>
	<line class="st1" x1="163.15" y1="218.77" x2="163.15" y2="200.49"/>
	<polygon class="st5" points="366.42,283.13 352.45,315.86 380.38,315.86 	"/>
	<polygon class="st6" points="273.8,316.9 260.67,339.63 286.92,339.63 	"/>
	<line class="st1" x1="366.42" y1="334.14" x2="366.42" y2="315.86"/>
	<ellipse class="st7" cx="257.18" cy="218.12" rx="36.19" ry="22.63"/>
	<polygon class="st6" points="294.96,312.32 279.19,339.63 310.72,339.63 	"/>
	<path class="st1" d="M179.51,299.8h131.69c12.5,0,22.63-10.13,22.63-22.63v-0.97c0-12.5,10.13-22.63,22.63-22.63h9.62
		c12.5,0,22.63-10.13,22.63-22.63v0c0-12.5-10.13-22.63-22.63-22.63h-20.96"/>
	<path class="st8" d="M344.66,136.43c-11.73,0-21.24,8.77-21.24,24.4c0,15.64,21.24,28.31,21.24,28.31s21.24-12.68,21.24-28.31
		C365.9,145.2,356.39,136.43,344.66,136.43z M344.66,165.08c-4.3,0-7.78-3.49-7.78-7.78c0-4.3,3.49-7.78,7.78-7.78
		s7.78,3.49,7.78,7.78C352.45,161.6,348.96,165.08,344.66,165.08z"/>
	<path class="st8" d="M178.16,229.98c-11.73,0-21.24,8.77-21.24,24.4c0,15.64,21.24,28.31,21.24,28.31s21.24-12.68,21.24-28.31
		C199.4,238.74,189.89,229.98,178.16,229.98z M178.16,258.63c-4.3,0-7.78-3.49-7.78-7.78c0-4.3,3.49-7.78,7.78-7.78
		c4.3,0,7.78,3.49,7.78,7.78C185.95,255.14,182.46,258.63,178.16,258.63z"/>
</g>
</svg>
