<?xml version="1.0" encoding="utf-8"?>
<!-- Generator: Adobe Illustrator 24.1.0, SVG Export Plug-In . SVG Version: 6.00 Build 0)  -->
<svg version="1.1" id="Layer_1" xmlns="http://www.w3.org/2000/svg" xmlns:xlink="http://www.w3.org/1999/xlink" x="0px" y="0px"
	 viewBox="0 0 512 512" style="enable-background:new 0 0 512 512;" xml:space="preserve">
<style type="text/css">
	.st0{fill:#EB6A5C;}
	.st1{fill:none;stroke:#000000;stroke-width:9.1561;stroke-linecap:round;stroke-linejoin:round;stroke-miterlimit:10;}
	
		.st2{opacity:0.25;fill:none;stroke:#FFFFFF;stroke-width:9.1561;stroke-linecap:round;stroke-linejoin:round;stroke-miterlimit:10;}
	.st3{fill:#D7B49E;}
	
		.st4{opacity:0.15;fill:none;stroke:#000000;stroke-width:9.1561;stroke-linecap:round;stroke-linejoin:round;stroke-miterlimit:10;}
	.st5{fill:#27AAE2;stroke:#000000;stroke-width:9.1561;stroke-linecap:round;stroke-linejoin:round;stroke-miterlimit:10;}
	.st6{fill:none;stroke:#FFFFFF;stroke-width:9.1561;stroke-linecap:round;stroke-linejoin:round;stroke-miterlimit:10;}
	.st7{fill:#B15F6E;}
	.st8{fill:#014689;stroke:#000000;stroke-width:9.1561;stroke-linecap:round;stroke-linejoin:round;stroke-miterlimit:10;}
	.st9{fill:#BB412A;}
	.st10{fill:#BB412A;stroke:#000000;stroke-width:9.1561;stroke-linecap:round;stroke-linejoin:round;stroke-miterlimit:10;}
	.st11{fill:#82E370;stroke:#000000;stroke-width:9.1561;stroke-linecap:round;stroke-linejoin:round;stroke-miterlimit:10;}
</style>
<g>
	<rect x="159.67" y="126.93" class="st0" width="193.26" height="307.42"/>
	<polyline class="st1" points="352.93,150.53 352.93,126.93 159.67,126.93 159.67,434.34 352.93,434.34 352.93,169.23 	"/>
	<line class="st1" x1="334.62" y1="316.71" x2="334.62" y2="338.12"/>
	<line class="st1" x1="334.62" y1="357.28" x2="334.62" y2="369.17"/>
	<line class="st2" x1="168.83" y1="136.08" x2="343.78" y2="136.08"/>
	<rect x="180" y="77.71" class="st3" width="152.61" height="49.22"/>
	<polyline class="st1" points="180,77.71 180,126.93 332.61,126.93 332.61,77.71 	"/>
	<line class="st1" x1="225.63" y1="96.02" x2="242.59" y2="96.02"/>
	<line class="st1" x1="259.17" y1="96.02" x2="268.58" y2="96.02"/>
	<line class="st4" x1="323.45" y1="117.77" x2="189.15" y2="117.77"/>
	<line class="st2" x1="189.15" y1="86.87" x2="323.45" y2="86.87"/>
	<line class="st1" x1="305.65" y1="77.71" x2="352.81" y2="77.71"/>
	<line class="st1" x1="289.36" y1="77.71" x2="290.85" y2="77.71"/>
	<line class="st1" x1="266.87" y1="77.71" x2="273.73" y2="77.71"/>
	<line class="st1" x1="159.79" y1="77.71" x2="250.53" y2="77.71"/>
	<rect x="218.15" y="338.96" class="st5" width="76.3" height="95.38"/>
	<polyline class="st6" points="236.46,366.41 236.46,357.28 240.06,357.28 	"/>
	<line class="st6" x1="236.46" y1="383" x2="236.46" y2="380.62"/>
	<line class="st4" x1="343.78" y1="425.19" x2="168.83" y2="425.19"/>
	<line class="st1" x1="256.3" y1="338.96" x2="256.3" y2="434.34"/>
	<rect x="209.35" y="323.85" class="st7" width="93.9" height="15.11"/>
	<polyline class="st1" points="232.79,323.85 209.35,323.85 209.35,338.96 303.25,338.96 303.25,323.85 250.38,323.85 	"/>
	<g>
		<rect x="185.43" y="153.29" class="st5" width="31.88" height="31.88"/>
		<rect x="240.36" y="153.29" class="st8" width="31.88" height="31.88"/>
		<rect x="295.3" y="153.29" class="st5" width="31.88" height="31.88"/>
	</g>
	<g>
		<rect x="185.43" y="208.22" class="st5" width="31.88" height="31.88"/>
		<rect x="240.36" y="208.22" class="st5" width="31.88" height="31.88"/>
		<rect x="295.3" y="208.22" class="st5" width="31.88" height="31.88"/>
	</g>
	<g>
		<rect x="185.43" y="263.16" class="st5" width="31.88" height="31.88"/>
		<rect x="240.36" y="263.16" class="st8" width="31.88" height="31.88"/>
		<rect x="295.3" y="263.16" class="st8" width="31.88" height="31.88"/>
	</g>
	<g>
		<g>
			<rect x="85.67" y="199.08" class="st9" width="74" height="235.26"/>
			<polyline class="st1" points="100.65,199.08 85.67,199.08 85.67,434.34 159.67,434.34 159.67,199.08 140.91,199.08 			"/>
			<line class="st1" x1="122.67" y1="199.08" x2="120.07" y2="199.08"/>
			<line class="st2" x1="94.82" y1="208.24" x2="150.52" y2="208.24"/>
			<line class="st4" x1="150.52" y1="425.19" x2="94.82" y2="425.19"/>
			<rect x="106.73" y="227.42" class="st5" width="31.88" height="31.88"/>
			<rect x="106.73" y="282.35" class="st5" width="31.88" height="31.88"/>
			<rect x="106.73" y="337.29" class="st5" width="31.88" height="31.88"/>
		</g>
		<g>
			<rect x="352.93" y="199.08" class="st10" width="74" height="235.26"/>
			<line class="st2" x1="362.09" y1="208.24" x2="417.78" y2="208.24"/>
			<line class="st4" x1="417.78" y1="425.19" x2="362.09" y2="425.19"/>
			<rect x="373.99" y="227.42" class="st5" width="31.88" height="31.88"/>
			<rect x="373.99" y="282.35" class="st8" width="31.88" height="31.88"/>
			<rect x="373.99" y="337.29" class="st5" width="31.88" height="31.88"/>
		</g>
	</g>
	<g>
		<g>
			<circle class="st11" cx="100.65" cy="373.11" r="27.89"/>
			<path class="st2" d="M81.91,373.11c0-10.33,8.41-18.74,18.74-18.74s18.74,8.41,18.74,18.74"/>
			<line class="st1" x1="100.65" y1="434.34" x2="100.65" y2="401"/>
		</g>
		<g>
			<circle class="st11" cx="411.96" cy="373.11" r="27.89"/>
			<path class="st2" d="M393.22,373.11c0-10.33,8.41-18.74,18.74-18.74c10.33,0,18.74,8.41,18.74,18.74"/>
			<line class="st1" x1="411.96" y1="434.34" x2="411.96" y2="401"/>
		</g>
	</g>
	<line class="st4" x1="209.35" y1="348" x2="303.25" y2="348"/>
</g>
</svg>
