<?xml version="1.0" encoding="utf-8"?>
<!-- Generator: Adobe Illustrator 24.1.0, SVG Export Plug-In . SVG Version: 6.00 Build 0)  -->
<svg version="1.1" id="Layer_1" xmlns="http://www.w3.org/2000/svg" xmlns:xlink="http://www.w3.org/1999/xlink" x="0px" y="0px"
	 viewBox="0 0 512 512" style="enable-background:new 0 0 512 512;" xml:space="preserve">
<style type="text/css">
	.st0{fill:#FFFFFF;}
	.st1{fill:none;stroke:#000000;stroke-width:9.1561;stroke-linecap:round;stroke-linejoin:round;stroke-miterlimit:10;}
	.st2{opacity:0.15;}
	
		.st3{opacity:0.15;fill:none;stroke:#000000;stroke-width:9.1561;stroke-linecap:round;stroke-linejoin:round;stroke-miterlimit:10;}
	.st4{fill:#FFFFFF;stroke:#000000;stroke-width:9.1561;stroke-linecap:round;stroke-linejoin:round;stroke-miterlimit:10;}
	.st5{fill:#FE5548;}
	
		.st6{opacity:0.25;fill:none;stroke:#FFFFFF;stroke-width:9.1561;stroke-linecap:round;stroke-linejoin:round;stroke-miterlimit:10;}
	.st7{fill:#27AAE2;stroke:#000000;stroke-width:9.1561;stroke-linecap:round;stroke-linejoin:round;stroke-miterlimit:10;}
	.st8{fill:#BBDEF1;stroke:#000000;stroke-width:9.1561;stroke-linecap:round;stroke-linejoin:round;stroke-miterlimit:10;}
	.st9{fill:#6D919F;stroke:#000000;stroke-width:9.1561;stroke-linecap:round;stroke-linejoin:round;stroke-miterlimit:10;}
	.st10{fill:#6D919F;}
</style>
<g>
	<path class="st0" d="M388.33,438.97H124.27c-7.08,0-12.82-5.74-12.82-12.82V208.43h289.7v217.72
		C401.15,433.23,395.41,438.97,388.33,438.97z"/>
	<path class="st1" d="M111.45,227.22v-18.79h289.7v217.72c0,7.08-5.74,12.82-12.82,12.82H124.27c-7.08,0-12.82-5.74-12.82-12.82
		v-52.16"/>
	<g>
		<path class="st2" d="M106.87,340.58v78.24c0,9.59,7.8,17.4,17.4,17.4h216.77c1.21,0,2.38-0.48,3.24-1.34l60.11-60.11
			c0.86-0.86,1.34-2.02,1.34-3.24v-30.95H106.87z"/>
		<path class="st0" d="M401.15,193.78h-289.7V411.5c0,7.08,5.74,12.82,12.82,12.82h216.77l60.11-60.11V193.78z"/>
		<path class="st1" d="M111.45,313.13v98.36c0,7.08,5.74,12.82,12.82,12.82h216.77l60.11-60.11V193.78h-289.7v56.86"/>
		<line class="st1" x1="111.45" y1="284.9" x2="111.45" y2="297.23"/>
		<line class="st1" x1="111.45" y1="266.2" x2="111.45" y2="267.95"/>
		<path class="st3" d="M337.25,415.16H124.27c-2.02,0-3.66-1.64-3.66-3.66"/>
		<path class="st4" d="M401.15,364.21h-47.29c-7.08,0-12.82,5.74-12.82,12.82v47.29L401.15,364.21z"/>
	</g>
	<path class="st2" d="M375.52,117.86H137.09c-16.66,0-30.22,13.55-30.22,30.22v51.2c0,2.53,2.05,4.58,4.58,4.58h289.7
		c2.53,0,4.58-2.05,4.58-4.58v-51.2C405.73,131.42,392.18,117.86,375.52,117.86z"/>
	<path class="st5" d="M401.15,193.78h-289.7v-51.2c0-14.16,11.48-25.64,25.64-25.64h238.43c14.16,0,25.64,11.48,25.64,25.64V193.78z
		"/>
	<path class="st1" d="M266.26,116.95h109.25c14.16,0,25.64,11.48,25.64,25.64v51.2h-289.7v-51.2c0-14.16,11.48-25.64,25.64-25.64
		h76.93"/>
	<line class="st1" x1="245.68" y1="116.95" x2="251.9" y2="116.95"/>
	<line class="st1" x1="229.53" y1="116.95" x2="230.87" y2="116.95"/>
	<line class="st1" x1="301.23" y1="135.26" x2="306.09" y2="135.26"/>
	<line class="st1" x1="260.27" y1="135.26" x2="280.53" y2="135.26"/>
	<path class="st6" d="M120.61,142.59c0-9.09,7.39-16.48,16.48-16.48h238.43c9.09,0,16.48,7.39,16.48,16.48"/>
	<g>
		<rect x="202.31" y="234.19" class="st7" width="43.9" height="43.9"/>
		<rect x="138.21" y="234.19" class="st8" width="43.9" height="43.9"/>
		<rect x="266.4" y="234.19" class="st7" width="43.9" height="43.9"/>
		<rect x="330.49" y="234.19" class="st7" width="43.9" height="43.9"/>
	</g>
	<g>
		<rect x="202.31" y="300.12" class="st8" width="43.9" height="43.9"/>
		<rect x="138.21" y="300.12" class="st8" width="43.9" height="43.9"/>
		<rect x="266.4" y="300.12" class="st8" width="43.9" height="43.9"/>
		<rect x="330.49" y="300.12" class="st8" width="43.9" height="43.9"/>
	</g>
	<g>
		<path class="st2" d="M165.16,75.83c-10.74,0-19.48,8.74-19.48,19.48v38.62c0,10.74,8.74,19.48,19.48,19.48s19.48-8.74,19.48-19.48
			V95.31C184.64,84.57,175.91,75.83,165.16,75.83z"/>
		<path class="st9" d="M165.16,141.51L165.16,141.51c-8.23,0-14.9-6.67-14.9-14.9V87.99c0-8.23,6.67-14.9,14.9-14.9h0
			c8.23,0,14.9,6.67,14.9,14.9v38.62C180.06,134.84,173.39,141.51,165.16,141.51z"/>
		<path class="st6" d="M159.42,87.99c0-3.17,2.58-5.74,5.74-5.74s5.74,2.58,5.74,5.74"/>
		<path class="st3" d="M170.91,126.61c0,3.17-2.58,5.74-5.74,5.74s-5.74-2.58-5.74-5.74"/>
		<path class="st2" d="M328.81,110.79v23.14c0,10.74,8.74,19.48,19.48,19.48s19.48-8.74,19.48-19.48v-23.14H328.81z"/>
		<path class="st10" d="M348.29,141.51L348.29,141.51c-8.23,0-14.9-6.67-14.9-14.9V87.99c0-8.23,6.67-14.9,14.9-14.9h0
			c8.23,0,14.9,6.67,14.9,14.9v38.62C363.19,134.84,356.52,141.51,348.29,141.51z"/>
		<path class="st1" d="M333.39,87.99c0-0.98,0.1-1.94,0.28-2.87"/>
		<path class="st1" d="M344.79,73.5c1.12-0.27,2.29-0.41,3.49-0.41h0c8.23,0,14.9,6.67,14.9,14.9v38.62c0,8.23-6.67,14.9-14.9,14.9
			h0c-8.23,0-14.9-6.67-14.9-14.9v-23.38"/>
		<path class="st6" d="M342.54,87.99c0-3.17,2.58-5.74,5.74-5.74s5.74,2.58,5.74,5.74"/>
		<path class="st3" d="M354.03,126.61c0,3.17-2.58,5.74-5.74,5.74s-5.74-2.58-5.74-5.74"/>
	</g>
</g>
</svg>
