<?xml version="1.0" encoding="utf-8"?>
<!-- Generator: Adobe Illustrator 24.1.0, SVG Export Plug-In . SVG Version: 6.00 Build 0)  -->
<svg version="1.1" id="Layer_1" xmlns="http://www.w3.org/2000/svg" xmlns:xlink="http://www.w3.org/1999/xlink" x="0px" y="0px"
	 viewBox="0 0 512 512" style="enable-background:new 0 0 512 512;" xml:space="preserve">
<style type="text/css">
	.st0{fill:#BBDEF1;}
	.st1{fill:#EFCA08;}
	.st2{fill:none;stroke:#000000;stroke-width:9.1561;stroke-linecap:round;stroke-linejoin:round;stroke-miterlimit:10;}
	.st3{fill:#BB412A;}
	.st4{fill:#BB412A;stroke:#000000;stroke-width:9.1561;stroke-linecap:round;stroke-linejoin:round;stroke-miterlimit:10;}
	
		.st5{opacity:0.25;fill:none;stroke:#FFFFFF;stroke-width:9.1561;stroke-linecap:round;stroke-linejoin:round;stroke-miterlimit:10;}
	.st6{fill:none;stroke:#FFFFFF;stroke-width:9.1561;stroke-linecap:round;stroke-linejoin:round;stroke-miterlimit:10;}
	.st7{fill:#B15F6E;}
	
		.st8{opacity:0.15;fill:none;stroke:#000000;stroke-width:9.1561;stroke-linecap:round;stroke-linejoin:round;stroke-miterlimit:10;}
	.st9{fill:#FFFFFF;stroke:#000000;stroke-width:9.1561;stroke-linecap:round;stroke-linejoin:round;stroke-miterlimit:10;}
	.st10{fill:#D7B49E;}
	.st11{opacity:0.15;}
</style>
<g>
	<path class="st0" d="M115.62,291.69L115.62,291.69c-22.98,0-41.6-18.62-41.6-41.6v-51.86h83.2v51.86
		C157.22,273.06,138.59,291.69,115.62,291.69z"/>
	<path class="st1" d="M240.44,163.71c0,12.74-6.9,17.11-15.4,17.11c-8.51,0-15.4-4.37-15.4-17.11s15.4-29.02,15.4-29.02
		S240.44,150.97,240.44,163.71z"/>
	<path class="st2" d="M238.52,154.97c1.17,2.94,1.92,5.92,1.92,8.73c0,12.74-6.9,17.11-15.4,17.11c-8.51,0-15.4-4.37-15.4-17.11
		s15.4-29.02,15.4-29.02s3.25,3.43,6.76,8.38"/>
	<rect x="203.47" y="194.18" class="st3" width="43.13" height="183.19"/>
	<line class="st2" x1="246.6" y1="216.45" x2="246.6" y2="215.5"/>
	<polyline class="st2" points="246.6,200.7 246.6,194.18 203.47,194.18 203.47,377.37 246.6,377.37 246.6,230.36 	"/>
	<line class="st4" x1="221.79" y1="230.08" x2="221.79" y2="219.82"/>
	<line class="st4" x1="221.79" y1="248.67" x2="221.79" y2="244.15"/>
	<line class="st5" x1="212.63" y1="203.34" x2="237.45" y2="203.34"/>
	<line class="st2" x1="225.04" y1="194.18" x2="225.04" y2="175.29"/>
	<line class="st2" x1="126.61" y1="198.23" x2="127.73" y2="198.23"/>
	<path class="st2" d="M143,198.23h14.22v51.86c0,22.98-18.62,41.6-41.6,41.6h0c-22.98,0-41.6-18.62-41.6-41.6v-51.86h37.39"/>
	<line class="st6" x1="126.05" y1="216.54" x2="133.41" y2="216.54"/>
	<line class="st6" x1="92.33" y1="216.54" x2="110.26" y2="216.54"/>
	<line class="st5" x1="83.17" y1="207.39" x2="148.06" y2="207.39"/>
	<line class="st2" x1="115.62" y1="377.37" x2="115.62" y2="273.96"/>
	<line class="st2" x1="145.85" y1="377.37" x2="85.39" y2="377.37"/>
	<path class="st7" d="M74.05,251.47c0.73,22.33,19.05,40.22,41.56,40.22h0c22.51,0,40.83-17.88,41.56-40.22H74.05z"/>
	<path class="st2" d="M92.33,251.47H74.05c0.73,22.33,19.05,40.22,41.56,40.22h0c22.51,0,40.83-17.88,41.56-40.22h-46.92"/>
	<path class="st8" d="M148.06,250.09c0,17.89-14.55,32.44-32.44,32.44c-17.89,0-32.44-14.55-32.44-32.44"/>
	<g>
		<path class="st9" d="M132.88,345.16h305.71l-10.39,9.14c-16.91,14.87-38.65,23.07-61.17,23.07H204.44
			c-22.52,0-44.26-8.2-61.17-23.07L132.88,345.16z"/>
		<path class="st8" d="M413.15,354.31c-13.61,9.02-29.63,13.9-46.13,13.9H204.44c-16.5,0-32.52-4.88-46.12-13.9"/>
		<path class="st10" d="M264.77,255.85l-48.02,14.54c-31.62,9.57-46.34,45.87-30.32,74.76l0,0h198.69v0
			C385.12,282.55,324.69,237.71,264.77,255.85z"/>
		<path class="st2" d="M263.29,256.3l-46.54,14.09c-31.62,9.57-46.34,45.87-30.32,74.76l0,0h198.69v0
			c0-51.79-41.36-91.42-89.57-93.3"/>
		<path class="st2" d="M279.45,252.64c-0.6,0.08-1.19,0.17-1.79,0.26"/>
		<line class="st2" x1="252.53" y1="278.69" x2="262.47" y2="275.68"/>
		<path class="st2" d="M222.06,287.92l15.1-4.57"/>
		<path class="st5" d="M192.21,303.97c4.87-12.01,14.78-21.06,27.19-24.82l48.02-14.54c8.05-2.44,16.31-3.67,24.55-3.67
			c43.23,0,78.93,32.91,83.49,75.06"/>
		<path class="st11" d="M314.76,254.67c-0.47,0.29-0.95,0.56-1.42,0.86c-10.24,6.72-18.05,15.91-22,25.88
			c-4.16,10.52-3.58,20.69,1.63,28.64c5.21,7.94,14.31,12.52,25.62,12.9c0.49,0.02,0.98,0.02,1.48,0.02
			c10.29,0,21.25-3.49,31.02-9.9c7.9-5.18,14.34-11.87,18.69-19.23C356.99,274.5,337.28,260.43,314.76,254.67z"/>
		<path class="st9" d="M396.64,223.75c0.37,0.57,0.8,1.09,1.25,1.57l-39.01,25.59l7.85,11.97l39.01-25.59
			c0.26,0.61,0.56,1.2,0.94,1.77c3.37,5.14,10.28,6.58,15.42,3.2c5.14-3.37,6.58-10.28,3.2-15.42c-2.08-3.17-5.51-4.93-9.04-5.02
			c1.32-3.27,1.08-7.12-1.01-10.29c-3.37-5.14-10.28-6.58-15.42-3.2C394.7,211.71,393.27,218.61,396.64,223.75z"/>
		<path class="st10" d="M366.71,260.74l-5.86-8.93c-3.47-5.28-9.24-8.75-15.56-8.89c-9.27-0.22-19.8,2.8-29.44,9.13
			c-19.56,12.83-28.09,34.4-19.05,48.18c9.04,13.77,32.22,14.54,51.78,1.7c9.64-6.33,16.6-14.78,20.1-23.37
			C371.05,272.7,370.17,266.02,366.71,260.74z"/>
		<path class="st2" d="M328.91,245.6c-4.4,1.51-8.81,3.65-13.06,6.44c-19.56,12.83-28.09,34.4-19.05,48.18
			c9.04,13.77,32.22,14.54,51.78,1.7c9.64-6.33,16.6-14.78,20.1-23.37c2.38-5.85,1.5-12.53-1.97-17.81l-5.86-8.93
			c-3.47-5.28-9.24-8.75-15.56-8.89"/>
		<path class="st5" d="M304.45,295.19c-3.63-5.53-1.77-12.43-0.34-16.05c2.87-7.26,8.98-14.34,16.76-19.45
			c7.51-4.93,15.85-7.64,23.48-7.64l0.72,0.01c3.17,0.07,6.21,1.85,8.12,4.76"/>
		<path class="st8" d="M360.19,275.1c-2.95,7.26-8.86,14.06-16.64,19.17c-7.52,4.93-15.86,7.65-23.5,7.65c0,0,0,0,0,0"/>
	</g>
</g>
</svg>
