<?xml version="1.0" encoding="utf-8"?>
<!-- Generator: Adobe Illustrator 24.1.0, SVG Export Plug-In . SVG Version: 6.00 Build 0)  -->
<svg version="1.1" id="Layer_1" xmlns="http://www.w3.org/2000/svg" xmlns:xlink="http://www.w3.org/1999/xlink" x="0px" y="0px"
	 viewBox="0 0 512 512" style="enable-background:new 0 0 512 512;" xml:space="preserve">
<style type="text/css">
	.st0{fill:#FFFFFF;}
	.st1{fill:none;stroke:#000000;stroke-width:9.1561;stroke-linecap:round;stroke-linejoin:round;stroke-miterlimit:10;}
	.st2{fill:#F49E09;}
	
		.st3{opacity:0.25;fill:none;stroke:#FFFFFF;stroke-width:9.1561;stroke-linecap:round;stroke-linejoin:round;stroke-miterlimit:10;}
	.st4{fill:#D7B49E;stroke:#000000;stroke-width:9.1561;stroke-linecap:round;stroke-linejoin:round;stroke-miterlimit:10;}
	.st5{opacity:0.15;}
	.st6{fill:#47B39C;}
	
		.st7{opacity:0.15;fill:none;stroke:#000000;stroke-width:9.1561;stroke-linecap:round;stroke-linejoin:round;stroke-miterlimit:10;}
	.st8{fill:#AF8263;}
	.st9{fill:#FE5548;}
	.st10{fill:#FE5548;stroke:#000000;stroke-width:9.1561;stroke-linecap:round;stroke-linejoin:round;stroke-miterlimit:10;}
	.st11{fill:#82E370;stroke:#000000;stroke-width:9.1561;stroke-linecap:round;stroke-linejoin:round;stroke-miterlimit:10;}
</style>
<g>
	<circle class="st0" cx="256.66" cy="256.03" r="124.72"/>
	<path class="st1" d="M326.58,152.73c-0.73-0.5-1.47-0.99-2.22-1.47"/>
	<path class="st1" d="M343.3,166.31c-1.69-1.63-3.43-3.22-5.21-4.75"/>
	<path class="st1" d="M310.56,143.52c-16.31-7.83-34.59-12.21-53.89-12.21c-68.88,0-124.72,55.84-124.72,124.72
		s55.84,124.72,124.72,124.72s124.72-55.84,124.72-124.72c0-14.18-2.37-27.81-6.73-40.51c-2.13-6.22-4.75-12.21-7.79-17.94
		c-2-3.77-4.19-7.42-6.56-10.95c-2.18-3.25-4.51-6.39-6.98-9.42"/>
	<path class="st2" d="M256.66,353.28c-53.63,0-97.25-43.63-97.25-97.25s43.63-97.26,97.25-97.26s97.25,43.63,97.25,97.26
		S310.29,353.28,256.66,353.28z"/>
	<path class="st1" d="M203.84,174.4c0.53-0.35,1.07-0.69,1.61-1.02"/>
	<path class="st1" d="M218.45,166.59c2.27-0.97,4.57-1.86,6.92-2.66c9.82-3.35,20.34-5.16,31.28-5.16
		c53.63,0,97.25,43.63,97.25,97.26s-43.63,97.25-97.25,97.25s-97.25-43.63-97.25-97.25c0-27.08,11.12-51.6,29.04-69.25
		c1.15-1.13,2.33-2.24,3.53-3.31"/>
	<path class="st3" d="M168.56,256.03c0-48.58,39.52-88.1,88.1-88.1s88.1,39.52,88.1,88.1"/>
	<line class="st1" x1="94.11" y1="177.45" x2="94.11" y2="139.47"/>
	<line class="st1" x1="114.83" y1="177.45" x2="114.83" y2="139.47"/>
	<path class="st0" d="M73.39,177.45v20.72c0,7.72,4.23,14.45,10.5,18.01v136.93c0,5.65,4.58,10.22,10.22,10.22
		c5.65,0,10.22-4.58,10.22-10.22V216.19c6.26-3.56,10.5-10.29,10.5-18.01v-20.72H73.39z"/>
	<path class="st1" d="M104.33,227.87v-11.69c6.26-3.56,10.5-10.29,10.5-18.01v-20.72H73.39v20.72c0,7.72,4.23,14.45,10.5,18.01
		v136.93c0,5.65,4.58,10.22,10.22,10.22c5.65,0,10.22-4.58,10.22-10.22V259.5"/>
	<line class="st1" x1="104.33" y1="244.18" x2="104.33" y2="242.43"/>
	<line class="st1" x1="73.39" y1="177.45" x2="73.39" y2="139.47"/>
	<path class="st4" d="M83.88,267.52v85.6c0,5.65,4.58,10.22,10.22,10.22c5.65,0,10.22-4.58,10.22-10.22v-85.6H83.88z"/>
	<path class="st4" d="M418.77,269.28v85.6c0,5.65,4.58,10.22,10.22,10.22c5.65,0,10.22-4.58,10.22-10.22v-85.6H418.77z"/>
	<path class="st0" d="M439.22,137.71L439.22,137.71v131.57h-20.45l-9.16-16.3l0.48-11.24C413.11,205.53,423,170.22,439.22,137.71z"
		/>
	<path class="st1" d="M426.25,167.93c3.73-10.29,8.06-20.38,12.96-30.22v0v131.57h-20.45l-9.16-16.3l0.48-11.24
		c1.56-18.74,4.97-37.24,10.13-55.24"/>
	<path class="st5" d="M248.11,243.05c-0.68-1.77-17.02-43.16-42.78-38.53c-13.15,2.36-21.17,11.47-22.59,25.65
		c-4.76-2.18-13.68-5.23-21.62-2.22c-4.31,1.63-7.63,4.87-9.6,9.37c-2.12,4.83-2.07,10.64,0.13,15.92c0.44,1.07,0.99,2.14,1.62,3.18
		l3.91-2.37l0,0l-3.94,2.59c-0.15,0.09-0.3,0.18-0.42,0.26c-3.1,2.01-5.38,5.21-6.96,9.78c-2.47,7.12-2.36,14.36,0.32,20.38
		c2.67,6.01,8.75,10.93,15.13,12.24c0.3,0.06,0.46,0.25,0.55,0.4c0.08,0.14,0.15,0.36,0.07,0.61c-1.49,4.37-2.31,9.3-2.45,14.64
		c-0.22,8.37,3.31,15.6,9.92,20.34c4.44,3.18,9.8,4.88,14.89,4.88c2.44,0,4.82-0.39,7-1.19l0.67-0.25
		c19.89-7.3,32.84-13.19,35.93-19.98c3.06-6.73,18.62-66.14,20.38-72.89C248.51,244.93,248.46,243.95,248.11,243.05z"/>
	<path class="st6" d="M243.84,237.38c0,0-15.31-39.69-37.7-35.67c-14.57,2.62-18.14,14.14-18.86,21.87
		c-0.28,3.04-3.46,4.82-6.22,3.53c-8.96-4.16-20.81-5.61-25.33,4.73c-1.69,3.87-1.46,8.43,0.16,12.33c0.37,0.88,0.81,1.74,1.3,2.56
		c1.38,2.28,0.67,5.17-1.62,6.54c-0.08,0.05-0.16,0.1-0.24,0.15c-2.57,1.67-4.12,4.54-5.13,7.44c-1.91,5.49-2.18,11.71,0.18,17.02
		c2.02,4.54,6.82,8.58,11.87,9.62c3.15,0.65,5.06,3.92,4.02,6.97c-1.15,3.38-2.06,7.76-2.21,13.29
		c-0.42,16.28,16.11,23.12,25.65,19.61s31.02-11.26,34.01-17.82C226.7,302.97,243.84,237.38,243.84,237.38z"/>
	<path class="st1" d="M191.62,210.57c-2.88,4.21-3.98,9.09-4.34,13c-0.28,3.04-3.46,4.82-6.22,3.53
		c-8.96-4.16-20.81-5.61-25.33,4.73c-1.69,3.87-1.46,8.43,0.16,12.33c0.37,0.88,0.81,1.74,1.3,2.56c1.38,2.28,0.67,5.17-1.62,6.54
		c-0.08,0.05-0.16,0.1-0.24,0.15c-2.57,1.67-4.12,4.54-5.13,7.44c-1.91,5.49-2.18,11.71,0.18,17.02c2.02,4.54,6.82,8.58,11.87,9.62
		c3.15,0.65,5.06,3.92,4.02,6.97c-1.15,3.38-2.06,7.76-2.21,13.29c-0.42,16.28,16.11,23.12,25.65,19.61s31.02-11.26,34.01-17.82
		c2.98-6.56,20.12-72.16,20.12-72.16s-7.57-19.62-19.85-29.87"/>
	<path class="st1" d="M210.26,201.45c-1.34-0.07-2.71,0.01-4.11,0.26"/>
	<path class="st7" d="M215.53,305.38c-1.8,1.95-8.27,5.78-28.3,13.14l-0.67,0.25c-0.58,0.21-1.38,0.33-2.22,0.33l0,0
		c-3,0-6.28-1.38-8.37-3.53c-1.91-1.96-2.83-4.51-2.76-7.59c0.1-3.96,0.68-7.51,1.72-10.58c1.33-3.93,0.91-8.25-1.15-11.86
		c-2.07-3.62-5.61-6.18-9.69-7.02c-2.03-0.42-4.48-2.42-5.35-4.37"/>
	<path class="st3" d="M164.12,235.51c0.59-1.35,1.28-2.39,4.27-2.39c2.46,0,5.68,0.84,8.82,2.29c1.82,0.85,3.75,1.27,5.74,1.27
		c7.02,0,12.8-5.27,13.45-12.27c1.1-11.86,8.56-13.2,11.37-13.71c0.53-0.09,1.04-0.14,1.57-0.14c9.89,0,20.28,17.06,24.87,27.46"/>
	<path class="st5" d="M325.1,177.06c-9.64-10.03-23.61-14.99-40.39-14.37c-12.84,0.48-24.07,5.76-30.81,14.47
		c-6.26,8.1-8.01,18-9.7,27.57c-1.57,8.92-3.06,17.35-8.02,23.66c-5.57,7.09-14.2,10.66-23.33,14.44
		c-12.97,5.36-27.67,11.44-32.18,29.34c-4.64,18.39,8.19,35.75,20.59,45.03c14.05,10.52,30.32,15.96,47.09,15.96
		c5.95,0,11.96-0.68,17.96-2.07c23.76-5.49,43.92-21.36,55.31-43.54c2.6-5.06,4.9-10.55,6.85-16.33
		c6.07-18.02,8.17-37.04,9.42-53.28C339.17,201.23,334.75,187.09,325.1,177.06z"/>
	<path class="st8" d="M324.11,262.43c5.62-16.66,7.84-34.54,9.2-52.17c2.4-31.13-16.77-51.51-48.44-50.32
		c-10.38,0.39-21.01,4.48-27.36,12.69c-11.18,14.46-6.45,36.89-17.74,51.26c-14.97,19.07-47.85,14.99-54.68,42.07
		c-3.84,15.24,6.3,30.82,18.89,40.24c38.84,29.07,91.98,13.9,113.54-28.08C320.14,273.05,322.3,267.8,324.11,262.43z"/>
	<path class="st1" d="M308.7,163.93c-6.79-2.92-14.8-4.33-23.82-3.99c-10.38,0.39-21.01,4.48-27.36,12.69
		c-11.18,14.46-6.45,36.89-17.74,51.26c-14.97,19.07-47.85,14.99-54.68,42.07c-3.84,15.24,6.3,30.82,18.89,40.24
		c38.84,29.07,91.98,13.9,113.54-28.08c2.6-5.07,4.77-10.32,6.58-15.7c5.62-16.66,7.84-34.54,9.2-52.17
		c1.16-15.04-2.72-27.58-10.61-36.38"/>
	<path class="st1" d="M266.74,201.38c1.26-7.15,2.46-13.91,5.26-17.54"/>
	<path class="st1" d="M285.56,178.24c0.65-0.03,1.29-0.04,1.93-0.04"/>
	<path class="st3" d="M193.98,268.2c2.69-10.66,10.91-14.55,24.11-20.01c9.89-4.09,21.09-8.72,28.89-18.64
		c7.08-9.02,9.03-20.04,10.74-29.76c1.46-8.3,2.85-16.14,7.04-21.55c4.18-5.4,11.83-8.82,20.46-9.15c0.77-0.03,1.52-0.04,2.27-0.04
		c11.95,0,21.66,3.67,28.08,10.6c6.59,7.12,9.57,17.46,8.61,29.91"/>
	<path class="st7" d="M315.44,259.5c-1.73,5.13-3.76,9.99-6.05,14.44c-12.07,23.52-35.41,38.13-60.91,38.13c0,0,0,0-0.01,0
		c-13.98,0-27.46-4.56-38.99-13.19"/>
	<path class="st5" d="M335.15,290.91c-9.73,0-17.65,7.92-17.65,17.65c0,9.73,7.92,17.65,17.65,17.65c9.73,0,17.65-7.92,17.65-17.65
		C352.8,298.83,344.88,290.91,335.15,290.91z"/>
	<circle class="st9" cx="335.15" cy="303.07" r="13.07"/>
	<path class="st1" d="M339.94,290.9c4.85,1.91,8.29,6.64,8.29,12.17c0,7.22-5.85,13.07-13.07,13.07s-13.07-5.85-13.07-13.07
		c0-4.04,1.83-7.65,4.71-10.05"/>
	<path class="st5" d="M316.84,311.06c-9.73,0-17.65,7.92-17.65,17.65c0,9.73,7.92,17.65,17.65,17.65s17.65-7.92,17.65-17.65
		C334.49,318.98,326.57,311.06,316.84,311.06z"/>
	<circle class="st10" cx="316.84" cy="323.22" r="13.07"/>
	<circle class="st11" cx="274.72" cy="345.19" r="13.07"/>
	<path class="st5" d="M274.72,333.03c-9.73,0-17.65,7.92-17.65,17.65s7.92,17.65,17.65,17.65c9.73,0,17.65-7.92,17.65-17.65
		S284.45,333.03,274.72,333.03z"/>
	<circle class="st5" cx="247.28" cy="353.03" r="17.65"/>
	<circle class="st10" cx="247.28" cy="347.53" r="13.07"/>
	<line class="st1" x1="218.96" y1="266.05" x2="247.28" y2="294.58"/>
	<line class="st1" x1="250.09" y1="249.57" x2="282.17" y2="281.88"/>
	<line class="st1" x1="277.97" y1="228.08" x2="297.68" y2="247.93"/>
	<line class="st1" x1="291.74" y1="197.92" x2="309.27" y2="215.58"/>
</g>
</svg>
