<?xml version="1.0" encoding="utf-8"?>
<!-- Generator: Adobe Illustrator 24.1.0, SVG Export Plug-In . SVG Version: 6.00 Build 0)  -->
<svg version="1.1" id="Layer_1" xmlns="http://www.w3.org/2000/svg" xmlns:xlink="http://www.w3.org/1999/xlink" x="0px" y="0px"
	 viewBox="0 0 512 512" style="enable-background:new 0 0 512 512;" xml:space="preserve">
<style type="text/css">
	.st0{fill:#27AAE2;stroke:#000000;stroke-width:9.1561;stroke-linecap:round;stroke-linejoin:round;stroke-miterlimit:10;}
	
		.st1{opacity:0.15;fill:none;stroke:#000000;stroke-width:9.1561;stroke-linecap:round;stroke-linejoin:round;stroke-miterlimit:10;}
	
		.st2{opacity:0.25;fill:none;stroke:#FFFFFF;stroke-width:9.1561;stroke-linecap:round;stroke-linejoin:round;stroke-miterlimit:10;}
	.st3{fill:#27AAE2;}
	.st4{fill:none;stroke:#000000;stroke-width:9.1561;stroke-linecap:round;stroke-linejoin:round;stroke-miterlimit:10;}
	.st5{fill:#6D919F;stroke:#000000;stroke-width:9.1561;stroke-linecap:round;stroke-linejoin:round;stroke-miterlimit:10;}
	.st6{fill:#58D6D1;}
	.st7{fill:#58D6D1;stroke:#000000;stroke-width:9.1561;stroke-linecap:round;stroke-linejoin:round;stroke-miterlimit:10;}
	.st8{fill:#FFFFFF;}
	.st9{fill:#BBDEF1;stroke:#000000;stroke-width:9.1561;stroke-linecap:round;stroke-linejoin:round;stroke-miterlimit:10;}
</style>
<g>
	<g>
		<polygon class="st0" points="329.94,424.27 265.07,420.6 272.4,378.44 329.94,396.76 		"/>
		<line class="st1" x1="320.78" y1="414.58" x2="275.85" y2="412.04"/>
		<line class="st2" x1="279.62" y1="390.35" x2="320.78" y2="403.45"/>
		<polygon class="st3" points="182.67,424.27 247.53,420.6 240.21,378.44 182.67,396.76 		"/>
		<polyline class="st4" points="182.67,396.76 182.67,424.27 247.53,420.6 240.21,378.44 228.94,382.03 		"/>
		<line class="st4" x1="212.4" y1="387.29" x2="198.85" y2="391.61"/>
		<line class="st2" x1="191.82" y1="403.45" x2="232.98" y2="390.35"/>
		<line class="st1" x1="236.75" y1="412.04" x2="191.82" y2="414.58"/>
	</g>
	<g>
		<g>
			<path class="st5" d="M166.39,229.22h29.23v-27.19c0-8.07-6.54-14.62-14.62-14.62h0c-8.07,0-14.62,6.54-14.62,14.62V229.22z"/>
			<path class="st5" d="M111.45,258.52h29.23v-27.19c0-8.07-6.54-14.62-14.62-14.62h0c-8.07,0-14.62,6.54-14.62,14.62V258.52z"/>
			<polygon class="st0" points="85.03,297.84 227.97,253.89 227.97,180.74 85.03,253.99 			"/>
			<line class="st4" x1="187.84" y1="221.88" x2="209.66" y2="210.7"/>
			<line class="st4" x1="164.69" y1="233.75" x2="173.52" y2="229.22"/>
			<line class="st2" x1="94.19" y1="259.58" x2="218.81" y2="195.72"/>
			<polygon class="st6" points="227.97,253.89 85.03,297.84 85.03,283.19 227.97,233.75 			"/>
			<line class="st4" x1="160.57" y1="257.06" x2="164.57" y2="255.68"/>
			<polyline class="st4" points="185.17,248.55 227.97,233.75 227.97,253.89 85.03,297.84 85.03,283.19 140.69,263.94 			"/>
		</g>
		<g>
			<path class="st5" d="M346.22,229.22h-29.23v-27.19c0-8.07,6.54-14.62,14.62-14.62h0c8.07,0,14.62,6.54,14.62,14.62V229.22z"/>
			<path class="st5" d="M401.15,258.52h-29.23v-27.19c0-8.07,6.54-14.62,14.62-14.62h0c8.07,0,14.62,6.54,14.62,14.62V258.52z"/>
			<polygon class="st3" points="427.57,297.84 284.64,253.89 284.64,180.74 427.57,253.99 			"/>
			<polyline class="st4" points="427.57,279.69 427.57,297.84 284.64,253.89 284.64,180.74 407.51,243.71 			"/>
			<line class="st4" x1="427.57" y1="266.77" x2="427.57" y2="267.19"/>
			<line class="st4" x1="420.69" y1="250.46" x2="427.57" y2="253.99"/>
			<line class="st2" x1="293.79" y1="195.72" x2="418.42" y2="259.58"/>
			<polygon class="st7" points="284.64,253.89 427.57,297.84 427.57,283.19 284.64,233.75 			"/>
		</g>
	</g>
	<path class="st8" d="M241.01,84.78l-9.69,31.62c-4.72,15.39-7.12,31.4-7.12,47.5v46.01l4.06,118.42c0,3.87,0.47,7.72,1.41,11.47
		l19.18,93.3c1.02,3.26,4.04,5.48,7.46,5.48h0c3.42,0,6.44-2.22,7.46-5.48l19.18-93.3c0.93-3.75,1.41-7.6,1.41-11.47l4.06-118.42
		V163.9c0-16.1-2.4-32.11-7.12-47.5l-9.69-31.62c-2.06-6.72-8.27-11.31-15.3-11.31h0C249.27,73.47,243.07,78.06,241.01,84.78z"/>
	<path class="st4" d="M242.51,163.9c0-9.18,0.88-18.31,2.61-27.28"/>
	<line class="st4" x1="242.51" y1="199.05" x2="242.51" y2="178.39"/>
	<path class="st4" d="M288.34,159.08c-0.02-0.55-0.04-1.09-0.06-1.64"/>
	<path class="st4" d="M286.7,140.45c-1.19-8.13-3-16.17-5.41-24.05l-9.69-31.62c-2.06-6.72-8.27-11.31-15.3-11.31h0
		c-7.03,0-13.24,4.59-15.3,11.31l-9.69,31.62c-4.72,15.39-7.12,31.4-7.12,47.5v46.01l4.06,118.42c0,3.87,0.47,7.72,1.41,11.47
		l19.18,93.3c1.02,3.26,4.04,5.48,7.46,5.48h0c3.42,0,6.44-2.22,7.46-5.48l19.18-93.3c0.93-3.75,1.41-7.6,1.41-11.47l4.06-118.42
		v-37.26"/>
	<path class="st1" d="M279.25,209.76l-4.06,118.58c0,3.12-0.38,6.23-1.13,9.25l-0.08,0.37l-17.68,85.98l-17.71-86.16l-0.05-0.18
		c-0.75-3.03-1.14-6.14-1.14-9.25l-4.05-118.58"/>
	<path class="st9" d="M256.3,110.19c12.74,0,23.69,8.57,28.73,20.92c-1.02-4.95-2.25-9.86-3.74-14.71l-5.86-19.11
		c-5.32-4.6-11.93-7.37-19.13-7.37s-13.81,2.76-19.13,7.37l-5.86,19.11c-1.49,4.85-2.71,9.76-3.74,14.71
		C232.61,118.76,243.56,110.19,256.3,110.19z"/>
</g>
</svg>
