<?xml version="1.0" encoding="utf-8"?>
<!-- Generator: Adobe Illustrator 19.0.0, SVG Export Plug-In . SVG Version: 6.00 Build 0)  -->
<svg version="1.1" id="icons" xmlns="http://www.w3.org/2000/svg" xmlns:xlink="http://www.w3.org/1999/xlink" x="0px" y="0px"
	 viewBox="0 0 396.8 379.5" style="enable-background:new 0 0 396.8 379.5;" xml:space="preserve">
<style type="text/css">
	.st0{fill-rule:evenodd;clip-rule:evenodd;fill:#F5B9C3;}
	.st1{fill:#58373F;}
</style>
<g>
	<path class="st0" d="M90.3,232.4L68.9,33.1C67.5,19.5,76.8,7.3,89.7,5.9c12.9-1.4,24.6,8.6,26,22.1l19.6,182.7l142.2-15.2
		c12.3-1.3,23.3,5.5,24.3,15.2l1.3,12c1,9.7-8.2,18.7-20.6,20L116,260.6c-12.3,1.3-23.3-5.5-24.3-15.2l-1.3-12c0-0.1,0-0.3,0-0.4
		C90.3,232.8,90.3,232.6,90.3,232.4L90.3,232.4z"/>
	<path class="st1" d="M74.7,32.4L96,231.6l0,0.1l0,0c0,0.1,0,0.1,0,0.2l0,0.3h0c0,0.1,0,0.2,0,0.2l0,0.2l0,0l0,0.1l1.3,12l0,0
		c0.3,3,2.3,5.6,5.2,7.4c3.3,2.1,7.7,3.1,12.5,2.7c0.1,0,0.3,0,0.4,0l0,0v0L281.9,237c4.8-0.5,9-2.5,11.9-5.3
		c2.5-2.4,3.9-5.4,3.5-8.4l-1.3-12c-0.3-3-2.3-5.6-5.2-7.4c-3.4-2.1-7.9-3.2-12.7-2.6l-142.2,15.2c-3.2,0.3-6-2-6.4-5.1L110,28.7
		c-0.6-5.2-3.1-9.8-6.7-12.9c-3.5-3-8-4.6-12.7-4.2l-0.2,0l0,0l0,0l-0.1,0l0,0c-4.8,0.5-8.9,3.1-11.8,6.8c-2.9,3.8-4.4,8.7-3.9,13.9
		L74.7,32.4L74.7,32.4L74.7,32.4L74.7,32.4L74.7,32.4z M274.3,249.5l-157.7,16.9l0,0l-0.2,0l0,0l0,0l-0.1,0
		c-2.1,0.2-4.1,0.2-6.1,0.1l-41.1,73c7.8,3.8,16,7.2,24.4,10.3c31.7,11.6,67.2,18.1,104.8,18.1c37.6,0,73.2-6.5,104.8-18.1
		c1.4-0.5,2.9-1.1,4.3-1.6L274.3,249.5z M136.2,165l4.1,38.3c0.3,0.3,0.6,0.6,0.9,0.9l113.4-12.1c-4.1-10-9.2-18.4-17.6-24
		c-12.7-8.4-33.8-11.5-71.9-6.3l-0.1,0v0L136.2,165z M84.5,232.8L63.2,33.7h0l0,0c0-0.1,0-0.2,0-0.2c-0.8-8.2,1.6-16.1,6.2-22.1
		C74,5.3,81,1.1,89,0.2l0,0l0,0c0.2,0,0.3,0,0.5,0C97.4-0.6,105,2,110.7,7c5.8,4.9,9.9,12.2,10.8,20.5L135,153.5l28.7-3.2v0
		c41.2-5.5,64.7-1.7,79.6,8.2c12,7.9,18.2,19.1,23.2,32.4l10.3-1.1c7.5-0.8,14.6,0.9,20.1,4.3c5.9,3.7,9.9,9.3,10.6,16l1.3,12
		c0.7,6.7-2,13.1-7,17.9c-4,3.9-9.5,6.8-15.8,8l32.2,95.7c26.6-11.6,49.9-26.8,68.8-44.9c2.3-2.2,6-2.1,8.2,0.2
		c2.2,2.3,2.1,6-0.2,8.2c-23.5,22.5-53.5,40.8-87.8,53.4c-32.9,12.1-69.9,18.8-108.8,18.8c-39,0-75.9-6.8-108.8-18.8
		c-34.3-12.6-64.3-30.9-87.8-53.4c-2.3-2.2-2.4-5.9-0.2-8.2c2.2-2.3,5.9-2.4,8.2-0.2c14,13.4,30.6,25.3,49,35.3l39.9-70.9
		c-0.8-0.4-1.5-0.8-2.2-1.2c-5.8-3.6-9.8-9.2-10.6-15.8c0-0.1,0-0.2,0-0.3L84.6,234c0-0.1,0-0.2,0-0.3l0,0l0,0h0l0-0.1l0-0.2
		c0-0.1,0-0.2,0-0.4l0,0L84.5,232.8z"/>
</g>
</svg>
