<?xml version="1.0" encoding="utf-8"?>
<!-- Generator: Adobe Illustrator 19.0.0, SVG Export Plug-In . SVG Version: 6.00 Build 0)  -->
<svg version="1.1" id="icons" xmlns="http://www.w3.org/2000/svg" xmlns:xlink="http://www.w3.org/1999/xlink" x="0px" y="0px"
	 viewBox="0 0 463.4 452.3" style="enable-background:new 0 0 463.4 452.3;" xml:space="preserve">
<style type="text/css">
	.st0{fill-rule:evenodd;clip-rule:evenodd;fill:#FFFFFF;}
	.st1{fill-rule:evenodd;clip-rule:evenodd;fill:#CFE6E8;}
	.st2{fill-rule:evenodd;clip-rule:evenodd;fill:#F5B9C3;}
	.st3{fill:#58373F;}
</style>
<rect x="133.7" y="33" class="st0" width="195.4" height="237.7"/>
<path class="st1" d="M243.6,57.2h85.6v189.4h-85.6V57.2z M133.7,57.2h86.1v189.4h-86.1V57.2z"/>
<path class="st2" d="M81.3,5.8h26.9v440.7H81.3v-9.4H55.9V5.8H81.3L81.3,5.8z M133.7,5.8h-25.5v431.3h25.5V5.8z M329.1,5.8h25.5
	v431.3h-25.5V5.8z M381.5,5.8H407v431.3h-25.5v9.4h-26.9V5.8H381.5L381.5,5.8z M434,5.8h-26.9v440.7H434V5.8z M28.9,5.8h26.9v440.7
	H28.9V5.8z"/>
<path class="st3" d="M323.3,63h-73.9v177.8h73.9V63z M214,63h-74.5v177.8H214V63z M50,11.6H34.7v429.1H50V11.6z M102.4,11.6H87.1
	V437l0,0.1l0,0.1v3.4h15.3V11.6z M75.5,431.3V11.6H61.6v419.7H75.5z M127.9,57.2V33c0-0.2,0-0.3,0-0.5V11.6h-13.9v419.7H128
	C128,306.6,127.9,181.9,127.9,57.2z M334.9,57.2c0,124.7,0,249.4,0,374.1h13.9V11.6h-13.9v20.9c0,0.2,0,0.3,0,0.5V57.2z M323.3,27.2
	V11.6H139.5v15.6H323.3z M401.2,11.6h-13.9v419.7h13.9V11.6z M412.9,11.6v429.1h15.3V11.6H412.9z M381.5,0H407l0,0l0,0H434l0.1,0
	h23.5c3.2,0,5.8,2.6,5.8,5.8c0,3.2-2.6,5.8-5.8,5.8h-17.8v434.9c0,3.2-2.6,5.8-5.8,5.8h-26.9c-3.2,0-5.8-2.6-5.8-5.8v-3.6h-13.9v3.6
	c0,3.2-2.6,5.8-5.8,5.8h-26.9c-3.2,0-5.8-2.6-5.8-5.8v-3.6h-19.7c-3.2,0-5.8-2.6-5.8-5.8c0-0.2,0-0.4,0-0.5v-160H139.5v160.1
	c0,0.2,0,0.3,0,0.5c0,3.2-2.6,5.8-5.8,5.8H114v3.6c0,3.2-2.6,5.8-5.8,5.8H81.3c-3.2,0-5.8-2.6-5.8-5.8v-3.6H61.6v3.6
	c0,3.2-2.6,5.8-5.8,5.8H28.9c-3.2,0-5.8-2.6-5.8-5.8V11.6H5.8C2.6,11.6,0,9,0,5.8C0,2.6,2.6,0,5.8,0h23l0.1,0h26.9l0,0l0,0h25.5h0
	h26.9l0,0l0,0h25.5v0h195.4v0h25.5l0,0l0,0H381.5L381.5,0z M360.4,11.6v429.1h15.3v-3.4l0-0.2l0-0.1v0v0v0v0v0v0V11.6H360.4z
	 M200.7,139.2c2.3-2.2,6-2.2,8.2,0.1c2.2,2.3,2.2,6-0.1,8.2l-50.6,49.4c-2.3,2.2-6,2.2-8.2-0.1c-2.2-2.3-2.2-6,0.1-8.2L200.7,139.2z
	 M194.6,110.4c2.3-2.2,6-2.2,8.2,0.1c2.2,2.3,2.2,6-0.1,8.2l-50.6,49.4c-2.3,2.2-6,2.2-8.2-0.1c-2.2-2.3-2.2-6,0.1-8.2L194.6,110.4z
	 M187.5,82.6c2.3-2.2,6-2.2,8.2,0.1c2.2,2.3,2.2,6-0.1,8.2l-32.4,31.6c-2.3,2.2-6,2.2-8.2-0.1c-2.2-2.3-2.2-6,0.1-8.2L187.5,82.6z
	 M298.3,82.6c2.3-2.2,6-2.2,8.2,0.1c2.2,2.3,2.2,6-0.1,8.2l-32.4,31.6c-2.3,2.2-6,2.2-8.2-0.1c-2.2-2.3-2.2-6,0.1-8.2L298.3,82.6z
	 M305.4,110.4c2.3-2.2,6-2.2,8.2,0.1c2.2,2.3,2.2,6-0.1,8.2l-50.6,49.4c-2.3,2.2-6,2.2-8.2-0.1c-2.2-2.3-2.2-6,0.1-8.2L305.4,110.4z
	 M311.5,139.2c2.3-2.2,6-2.2,8.2,0.1c2.2,2.3,2.2,6-0.1,8.2L269,196.9c-2.3,2.2-6,2.2-8.2-0.1c-2.2-2.3-2.2-6,0.1-8.2L311.5,139.2z
	 M306.2,181.3c2.3-2.2,6-2.2,8.2,0.1c2.2,2.3,2.2,6-0.1,8.2l-32.4,31.6c-2.3,2.2-6,2.2-8.2-0.1c-2.2-2.3-2.2-6,0.1-8.2L306.2,181.3z
	 M195.4,181.3c2.3-2.2,6-2.2,8.2,0.1c2.2,2.3,2.2,6-0.1,8.2L171,221.2c-2.3,2.2-6,2.2-8.2-0.1c-2.2-2.3-2.2-6,0.1-8.2L195.4,181.3z
	 M243.6,51.4h79.8V38.9H139.5v12.5h80.3c3.2,0,5.8,2.6,5.8,5.8v189.4c0,3.2-2.6,5.8-5.8,5.8h-80.3v12.5h183.8v-12.5h-79.8
	c-3.2,0-5.8-2.6-5.8-5.8V57.2C237.7,54,240.3,51.4,243.6,51.4z"/>
</svg>
