<?xml version="1.0" encoding="utf-8"?>
<!-- Generator: Adobe Illustrator 19.0.0, SVG Export Plug-In . SVG Version: 6.00 Build 0)  -->
<svg version="1.1" id="icons" xmlns="http://www.w3.org/2000/svg" xmlns:xlink="http://www.w3.org/1999/xlink" x="0px" y="0px"
	 viewBox="0 0 255.5 306.9" style="enable-background:new 0 0 255.5 306.9;" xml:space="preserve">
<style type="text/css">
	.st0{fill-rule:evenodd;clip-rule:evenodd;fill:#9ACC9A;}
	.st1{fill:#58373F;}
</style>
<polygon class="st0" points="243.3,5.8 12.2,5.8 5.8,33.5 17,33.5 44,301.1 211.5,301.1 238.5,33.5 249.7,33.5 "/>
<path class="st1" d="M238.7,11.6H16.8l-3.7,16.1H17h221.6h3.9L238.7,11.6z M12.5,0h230.8c2.8,0,5.1,1.9,5.6,4.5l0,0l6.4,27.7
	c0.7,3.1-1.2,6.2-4.4,6.9c-0.4,0.1-0.9,0.1-1.3,0.1v0h-5.9l-26.5,262c-0.1,3.1-2.6,5.7-5.8,5.7H44v0c-2.9,0-5.5-2.2-5.8-5.2
	L11.7,39.3H5.8c-3.2,0-5.8-2.6-5.8-5.8c0-0.6,0.1-1.1,0.2-1.7L6.6,4.5C7.2,1.7,9.8-0.2,12.5,0z M127.8,155.8L155,123l-27.2-31.7
	L100.5,123L127.8,155.8z M154.4,205.9l-26.6-32.1l-26.6,32.1l26.6,31L154.4,205.9z M63,179.3c-2.1-2.4-1.8-6.1,0.6-8.2
	c2.4-2.1,6.1-1.8,8.2,0.6L93.5,197l26.8-32.2l-27.4-32.9l-23.7,27.6c-2.1,2.4-5.7,2.7-8.2,0.6c-2.4-2.1-2.7-5.7-0.6-8.2l25-29.1
	l-15.6-18.7c-2-2.5-1.7-6.1,0.7-8.1c2.5-2,6.1-1.7,8.1,0.7L93,114l27.1-31.6l-6-7c-2.1-2.4-1.8-6.1,0.6-8.2c2.4-2.1,6.1-1.8,8.2,0.6
	l4.8,5.6l4.8-5.6c2.1-2.4,5.7-2.7,8.2-0.6c2.4,2.1,2.7,5.7,0.6,8.2l-6,7l27.1,31.6l14.3-17.2c2-2.5,5.7-2.8,8.1-0.7
	c2.5,2,2.8,5.7,0.7,8.1l-15.6,18.7l25,29.1c2.1,2.4,1.8,6.1-0.6,8.2c-2.4,2.1-6.1,1.8-8.2-0.6l-23.7-27.6l-27.4,32.9L162,197
	l21.7-25.3c2.1-2.4,5.7-2.7,8.2-0.6c2.4,2.1,2.7,5.7,0.6,8.2l-23,26.8l16.2,19.5c2,2.5,1.7,6.1-0.7,8.1c-2.5,2-6.1,1.7-8.1-0.7
	l-14.9-18l-26.5,30.9l12.8,14.9c2.1,2.4,1.8,6.1-0.6,8.2c-2.4,2.1-6.1,1.8-8.2-0.6l-11.6-13.5l-11.6,13.5c-2.1,2.4-5.7,2.7-8.2,0.6
	c-2.4-2.1-2.7-5.7-0.6-8.2l12.8-14.9L93.6,215l-14.9,18c-2,2.5-5.7,2.8-8.1,0.7c-2.5-2-2.8-5.7-0.7-8.1L86,206.1L63,179.3z
	 M49.2,295.3h157l25.9-256H23.4L49.2,295.3z"/>
</svg>
