<?xml version="1.0" encoding="utf-8"?>
<!-- Generator: Adobe Illustrator 19.0.0, SVG Export Plug-In . SVG Version: 6.00 Build 0)  -->
<svg version="1.1" id="icons" xmlns="http://www.w3.org/2000/svg" xmlns:xlink="http://www.w3.org/1999/xlink" x="0px" y="0px"
	 viewBox="0 0 164 438.2" style="enable-background:new 0 0 164 438.2;" xml:space="preserve">
<style type="text/css">
	.st0{fill-rule:evenodd;clip-rule:evenodd;fill:#94D0CF;}
	.st1{fill:#58373F;}
</style>
<g>
	<polygon class="st0" points="23.2,5.8 140.8,5.8 158.2,175.3 5.8,175.3 	"/>
	<polygon class="st0" points="12,432.4 152,432.4 134.5,404.9 29.4,404.9 	"/>
	<path class="st1" d="M55.6,169.5h52.8l-10-157.9H65.6L55.6,169.5z M44,169.5L54,11.6H28.4L12.2,169.5H44z M110,11.6l10,157.9h31.8
		L135.5,11.6H110z M60.2,0h43.6h37c3.1,0,5.7,2.5,5.8,5.6l17.4,169.1c0.3,3.2-2,6-5.2,6.4c-0.2,0-0.4,0-0.6,0v0h-21.5v61.4
		c0,3.2-2.6,5.8-5.8,5.8c-3.2,0-5.8-2.6-5.8-5.8v-61.4H87.8v218.1h46.3c2.1-0.2,4.2,0.8,5.3,2.7l17.3,27.3c0.6,0.9,1,2.1,1,3.3
		c0,3.2-2.6,5.8-5.8,5.8H12v0c-1.1,0-2.1-0.3-3.1-0.9c-2.7-1.7-3.5-5.3-1.8-8l17.4-27.5l0,0c1-1.6,2.8-2.7,4.9-2.7h46.7V181.1H5.8
		c-3.2,0-5.8-2.6-5.8-5.8c0-0.4,0-0.7,0.1-1l17.4-169c0.3-3,2.8-5.2,5.8-5.2v0H60.2z M22.6,426.6h118.8l-10.1-15.9H32.6L22.6,426.6z
		"/>
</g>
</svg>
