<?xml version="1.0" encoding="utf-8"?>
<!-- Generator: Adobe Illustrator 19.0.0, SVG Export Plug-In . SVG Version: 6.00 Build 0)  -->
<svg version="1.1" id="icons" xmlns="http://www.w3.org/2000/svg" xmlns:xlink="http://www.w3.org/1999/xlink" x="0px" y="0px"
	 viewBox="0 0 397.6 401.4" style="enable-background:new 0 0 397.6 401.4;" xml:space="preserve">
<style type="text/css">
	.st0{fill-rule:evenodd;clip-rule:evenodd;fill:#E6AC6C;}
	.st1{fill-rule:evenodd;clip-rule:evenodd;fill:#CFE6E8;}
	.st2{fill:#58373F;}
</style>
<path class="st0" d="M391.8,5.8l-0.1,382.9h-37.4V266.1c-63.6-67.5-137.6-151.8-155-260.3H266h58.2H391.8z M5.8,5.8l0.1,382.9h37.4
	V266.1c63.6-67.5,138.4-151.8,155.9-260.3h-67.6H73.4H5.8z"/>
<path class="st1" d="M276.7,175.7v213c8.1,0.2,7.4,6.9,19.4,6.9c12.1,0,8.7-7.5,19.4-6.9V223.6C302.3,208.4,289.1,192.5,276.7,175.7
	L276.7,175.7z M237.8,115.3v273.4c8.1,0.2,7.4,6.9,19.4,6.9c12.1,0,8.7-7.5,19.4-6.9v-213C262.5,156.7,249.3,136.6,237.8,115.3z
	 M198.9,7.6v381.1c8.1,0.2,7.4,6.9,19.4,6.9c12.1,0,8.7-7.5,19.4-6.9V115.3c-18.2-33.5-32.1-69.9-38.5-109.5h-0.1
	C199.1,6.4,199,7,198.9,7.6z M43.3,388.7c8.1,0.2,7.4,6.9,19.4,6.9c12.1,0,8.7-7.5,19.4-6.9c8.1,0.2,7.4,6.9,19.4,6.9
	c12.1,0,8.7-7.5,19.4-6.9c8.1,0.2,7.4,6.9,19.4,6.9s8.7-7.5,19.4-6.9c8.1,0.2,7.4,6.9,19.4,6.9c12.1,0,8.7-7.5,19.4-6.9V7.6
	c-6.6,39.2-20.6,75.3-38.9,108.5v0c-11.6,21-24.8,40.9-38.9,59.7v0c-12.5,16.7-25.6,32.5-38.9,47.7v0c-13,14.9-26.2,29-38.9,42.5
	V388.7z M315.6,223.6v165.1c8.1,0.2,7.4,6.9,19.4,6.9c12,0,8.7-7.4,19.3-6.9V266.1C341.6,252.6,328.5,238.5,315.6,223.6z"/>
<path class="st2" d="M49.1,383.9c2,0.8,3.5,1.9,5.1,3.1c1.8,1.3,3.7,2.7,8.5,2.7c3.9,0,5.2-1.2,6.4-2.2c0.1-0.1,0.2-0.2,0.3-0.3
	c1.8-1.6,3.7-3.2,6.9-3.9V238.8c-1.8,2-3.7,4.1-5.5,6.1l0,0l-0.1,0.2l-0.1,0.2l-0.1,0.2l-0.1,0.2l-0.1,0.2l0,0.1l-0.1,0.1l-0.1,0.2
	l-0.1,0.2l-0.1,0.2l-0.1,0.2l-0.1,0.2l-0.1,0.2l-0.1,0.2l-0.1,0.2l-0.1,0.2l-0.1,0.1l-0.1,0.1l-0.1,0.2l-0.1,0.2l-0.1,0.2l-0.1,0.2
	l-0.1,0.2l-0.1,0.2l-0.3,0.3l-0.1,0.2l-0.3,0.3l-0.3,0.3l-0.3,0.3l-0.6,0.6l-0.2,0.3l0,0.1l-0.3,0.3l-0.8,0.9l-0.3,0.3l-0.1,0.1
	c-1,1.1-2,2.1-3,3.2l0,0l0,0l-2.7,3l-0.2,0.3l0,0l-0.5,0.6l0,0l-0.3,0.3l-0.3,0.3l-1,1.1l-0.1,0.1l-0.3,0.3l-0.3,0.3l-0.2,0.2
	l-0.1,0.1l-0.3,0.3l-0.3,0.3l-0.3,0.3l-0.3,0.3l-0.3,0.3l0,0l-0.3,0.3l-1.1,1.1l0,0l-0.1,0.1l-0.2,0.2l-0.3,0.3l-0.3,0.3l-0.3,0.3
	l-0.3,0.3l-1.7,1.8v0V383.9z M88,225.7v158.2c2,0.8,3.5,1.9,5.1,3.1c1.8,1.3,3.7,2.7,8.5,2.7c3.9,0,5.2-1.2,6.4-2.2
	c1.9-1.7,3.8-3.4,7.2-4.2V193c-3,3.8-5.9,7.4-8.9,11c-2.9,3.6-6,7.2-9,10.8l-0.3,0.3l-0.1,0.1l-0.2,0.2C93.9,219,91,222.4,88,225.7z
	 M126.9,177.8v206.1c2,0.8,3.5,1.9,5.1,3.1c1.8,1.3,3.7,2.7,8.5,2.7c3.9,0,5.2-1.2,6.4-2.2c1.9-1.7,3.8-3.4,7.2-4.2V137.7
	c-2.6,4.2-5.2,8.3-7.8,12.4c-2.9,4.5-5.9,8.9-9,13.3l0,0l-0.1,0.2l-0.1,0.2l-0.2,0.3l-0.1,0.1C133.6,168.7,130.3,173.3,126.9,177.8z
	 M165.8,117.6v266.3c2,0.8,3.5,1.9,5.1,3.1c1.8,1.3,3.7,2.7,8.5,2.7c3.9,0,5.2-1.2,6.4-2.2c0.1-0.1,0.2-0.2,0.3-0.3
	c1.8-1.6,3.7-3.2,6.9-3.9V55.2c-1.2,3.7-2.5,7.3-3.8,10.9C182.7,84,174.8,101.2,165.8,117.6z M366.6,265.3l-6.5,2.6v115h6.5V265.3z
	 M385.9,257.5l-1.8,0.7l-5.9,2.4v122.3h7.7L385.9,257.5z M222.1,97.2c-6.7-14.2-12.6-28.9-17.4-44.1v330.8c2,0.8,3.5,1.9,5.1,3.1
	c1.8,1.3,3.7,2.7,8.5,2.7c3.9,0,5.2-1.2,6.4-2.2c1.9-1.7,3.8-3.4,7.2-4.2V116.8c-3.1-5.9-6.2-11.8-9.1-17.9l-0.3-0.7L222.1,97.2z
	 M270.9,177.6c-5.6-7.5-11-15.2-16.2-23.1c-3.8-5.7-7.5-11.5-11.1-17.4v246.9c2,0.8,3.5,1.9,5.1,3.1c1.8,1.3,3.7,2.7,8.5,2.7
	c3.9,0,5.2-1.1,6.4-2.2l0,0l0,0c1.9-1.7,3.8-3.4,7.2-4.2V177.6z M309.8,225.8c-9.2-10.6-18.4-21.6-27.3-32.9v191.1
	c2,0.8,3.5,1.9,5.1,3.1c1.8,1.3,3.7,2.7,8.5,2.7c3.9,0,5.2-1.1,6.4-2.2c2-1.7,3.8-3.4,7.2-4.2V225.8z M397.6,6.3l-0.1,382.4
	c0,3.2-2.6,5.8-5.8,5.8v0h-37.4c-0.3,0-0.5,0-0.8-0.1c-2.4,0-3.4,0.8-4.4,1.7c-2.8,2.5-5.8,5.2-14.2,5.2c-8.6,0-12.2-2.7-15.4-5.1
	c-1.2-0.9-2.2-1.7-3.8-1.8c-0.1,0-0.1,0-0.2,0c-0.2,0-0.4,0-0.7,0c-2.7-0.1-3.6,0.8-4.6,1.7c-2.8,2.5-5.8,5.2-14.2,5.2
	c-8.6,0-12.2-2.7-15.4-5.1c-1.2-0.9-2.3-1.7-4-1.8c-0.1,0-0.3,0-0.4,0c-2.9-0.2-3.9,0.7-5,1.7l0,0c-2.8,2.5-5.8,5.2-14.1,5.2
	c-8.6,0-12.2-2.7-15.4-5.1c-1.2-0.9-2.2-1.7-3.8-1.8c-0.1,0-0.2,0-0.2,0c-0.2,0-0.4,0-0.7,0c-2.7-0.1-3.6,0.8-4.6,1.7
	c-2.8,2.5-5.8,5.2-14.2,5.2c-8.6,0-12.2-2.7-15.4-5.1c-1.2-0.9-2.2-1.7-3.8-1.8c-0.1,0-0.2,0-0.2,0c-0.2,0-0.4,0-0.7,0
	c-2.4-0.1-3.4,0.6-4.3,1.4c-0.1,0.1-0.2,0.2-0.3,0.3c-2.8,2.5-5.8,5.2-14.2,5.2c-8.6,0-12.2-2.7-15.4-5.1c-1.2-0.9-2.2-1.7-3.8-1.8
	c-0.1,0-0.2,0-0.2,0c-0.2,0-0.4,0-0.7,0c-2.7-0.1-3.6,0.8-4.6,1.7c-2.8,2.5-5.8,5.2-14.2,5.2c-8.6,0-12.2-2.7-15.4-5.1
	c-1.2-0.9-2.2-1.7-3.8-1.8c-0.1,0-0.2,0-0.2,0c-0.2,0-0.4,0-0.7,0c-2.7-0.1-3.6,0.8-4.6,1.7c-2.8,2.5-5.8,5.2-14.2,5.2
	c-8.6,0-12.2-2.7-15.4-5.1c-1.2-0.9-2.2-1.7-3.8-1.8c-0.1,0-0.2,0-0.2,0c-0.2,0-0.4,0-0.7,0c-2.4-0.1-3.4,0.6-4.3,1.4
	c-0.1,0.1-0.2,0.2-0.3,0.3c-2.8,2.5-5.8,5.2-14.2,5.2c-8.6,0-12.2-2.7-15.4-5.1c-1.2-0.9-2.2-1.7-3.8-1.8c-0.1,0-0.2,0-0.2,0
	c-0.2,0-0.3,0-0.4,0h-37c-3.2,0-5.8-2.6-5.8-5.8L0,6.3C0,6.1,0,6,0,5.8C0,2.6,2.6,0,5.8,0h67.6h58.2h67.6h0.1H266h58.2h67.6
	c3.2,0,5.8,2.6,5.8,5.8C397.6,6,397.6,6.1,397.6,6.3z M330,11.6c0.5,23.9,7.7,63.8,17.3,105c11.8,50.3,27,102.1,37.8,128.8l0.8-0.3
	L386,11.6H330z M291.9,121.8C275.3,80,262.2,38.4,260.4,11.6h-54.3c4.5,24.5,11.9,47.7,21.5,69.8l0,0l0,0l0.4,0.8l0.1,0.3
	c4.4,10.2,9.3,20.1,14.6,29.8c0.1,0.1,0.1,0.2,0.2,0.3c5,9.1,10.2,18,15.6,26.5l0.5,0.8l0.3,0.5l0,0l1.2,1.8l0.1,0.1l0,0
	c1.2,1.9,2.5,3.8,3.7,5.7c0.8,1.3,1.7,2.5,2.5,3.8l0,0.1l0,0l1.2,1.7l0.1,0.2c0.8,1.2,1.6,2.3,2.4,3.4l0.2,0.3l0.1,0.1
	c2.6,3.7,5.2,7.4,7.9,11.1l0,0c0.8,1,1.5,2.1,2.3,3.1c0.2,0.2,0.4,0.5,0.5,0.7c0.9,1.2,1.7,2.3,2.6,3.5l0,0
	c11.4,15.1,23.4,29.6,35.5,43.4c0.2,0.2,0.4,0.4,0.5,0.6c11.4,13.1,23,25.6,34.2,37.6l3.2-1.3C341.5,232.3,313.6,176.6,291.9,121.8z
	 M272,11.6c1.8,25.4,14.5,65.3,30.6,105.9c22.2,55.9,50.6,112.6,65.9,134.5l5.8-2.3c-11-27.3-26.5-79.8-38.4-130.5
	c-9.8-41.8-17.1-82.7-17.6-107.6H272z M94.9,117.5C111,76.9,123.8,37,125.6,11.6H79.2C78.7,36.7,71.4,78,61.7,120.3
	C50.1,170.8,35,222.8,24,250l4.9,2C44.2,230.2,72.7,173.5,94.9,117.5z M14.3,258.6l-2.6-1.1l0,125.4h7.7V260.6L14.3,258.6z
	 M37.5,267.9l-6.5-2.6v117.6h6.5V267.9z M39.9,256.4l3.3,1.3l0,0l0.3-0.3l0.9-0.9l0,0l0.3-0.3l0.3-0.3l1.1-1.1
	c4-4.3,8.1-8.7,12.3-13.3c4.4-4.8,8.7-9.5,13-14.3l0,0l0.3-0.3l0.3-0.3l0.3-0.3l0.3-0.3l0,0l0.3-0.3l0.3-0.3l0.3-0.3l0.3-0.3
	l0.3-0.3l0-0.1l0.3-0.3l1.1-1.3l0.1-0.1l0.1-0.1l0.2-0.2l0.3-0.3l0.9-1l0.1-0.2l0.1-0.2l0.3-0.3c0.2-0.2,0.4-0.5,0.6-0.7
	c1.4-1.6,2.9-3.3,4.3-5c4.9-5.7,9.9-11.6,15-17.8c5.1-6.2,10-12.4,14.8-18.6l0.3-0.4l0.3-0.4l0.4-0.6l0.1-0.2l0.3-0.4l0.1-0.2
	l0.2-0.2l0.3-0.4l0.3-0.4l0.1-0.2l0.1-0.2l0.6-0.7l0.2-0.2l0.7-0.9c0.2-0.3,0.4-0.5,0.6-0.8c0.9-1.2,1.8-2.4,2.7-3.7l0.2-0.3
	l0.1-0.1l0.5-0.6l0.1-0.1l0,0l0.2-0.3l0.1-0.1l0.2-0.3l0.1-0.2l0.1-0.2l0.2-0.3c5.2-7.2,10.3-14.6,15.4-22.2
	c6.4-9.8,12.5-19.8,18.1-30c0.1-0.2,0.2-0.4,0.3-0.6c8.9-16.3,16.8-33.2,23.3-50.9c5.9-16.2,10.7-33.1,13.9-50.5h-55.1
	c-1.7,26.8-14.9,68.3-31.5,110.2C83.9,176.6,56,232.4,39.9,256.4z M11.7,245l1.7,0.7c10.7-26.5,25.6-78,37.1-128
	c9.6-41.6,16.7-82,17.2-106.1h-56L11.7,245z M321.4,238.9v145c2,0.8,3.5,1.9,5.1,3.1c1.8,1.3,3.7,2.7,8.5,2.7c3.9,0,5.2-1.2,6.4-2.2
	c1.9-1.7,3.8-3.3,7-4.1v-115v0l-0.3-0.3l-0.3-0.3l-0.3-0.3l-0.3-0.3l-0.3-0.3l-0.2-0.2l-0.1-0.1l-0.3-0.3l-0.3-0.3l-0.3-0.3
	C338,257.2,329.7,248.2,321.4,238.9z"/>
</svg>
