<?xml version="1.0" encoding="utf-8"?>
<!-- Generator: Adobe Illustrator 19.0.0, SVG Export Plug-In . SVG Version: 6.00 Build 0)  -->
<svg version="1.1" id="icons" xmlns="http://www.w3.org/2000/svg" xmlns:xlink="http://www.w3.org/1999/xlink" x="0px" y="0px"
	 viewBox="0 0 378.1 358.2" style="enable-background:new 0 0 378.1 358.2;" xml:space="preserve">
<style type="text/css">
	.st0{fill-rule:evenodd;clip-rule:evenodd;fill:#E6AC6C;}
	.st1{fill-rule:evenodd;clip-rule:evenodd;fill:#94D0CF;}
	.st2{fill-rule:evenodd;clip-rule:evenodd;fill:#58373F;}
</style>
<path class="st0" d="M321.5,331.9h30.2l-3.1,20.1h-24L321.5,331.9z M26.3,331.9h30.2L53.4,352h-24L26.3,331.9z"/>
<path class="st1" d="M354,128.7h-31.6V48.1c0-23.1-20.1-41.9-44.7-41.9H100.3c-24.6,0-44.7,18.9-44.7,41.9v80.5H24
	c-10,0-18.2,6.6-18.2,14.7V317c0,8.1,8.2,14.7,18.2,14.7h34.7c7.5,0,14-3.7,16.8-9h226.9c2.8,5.3,9.3,9,16.8,9H354
	c10,0,18.2-6.6,18.2-14.7V143.4C372.3,135.3,364.1,128.7,354,128.7z M76.6,190.5c0.1-0.2,0.2-0.4,0.4-0.5v0l0.3-0.4
	c0.1-0.1,0.2-0.2,0.3-0.3C77.3,189.7,76.9,190.1,76.6,190.5z"/>
<path class="st2" d="M277.7,11.6H100.3c-10.8,0-20.6,4.1-27.6,10.7c-7,6.6-11.3,15.5-11.3,25.4h0v74.9c0.6,0.1,1.2,0.1,1.7,0.2h0
	c1.5,0.2,3,0.6,4.5,1.1l0.2,0.1l0,0l0,0l0.4,0.1l0,0l0,0l0.2,0.1l0.2,0.1l0,0l0.1,0l0.1,0l0.2,0.1l0,0c0.2,0.1,0.4,0.2,0.6,0.3l0,0
	l0.2,0.1c0.4,0.2,0.7,0.3,1,0.5l0.2,0.1l0,0l0.2,0.1l0.2,0.1l0,0l0.1,0l0,0l0.4,0.2l0.1,0l0.1,0l0.2,0.1l0,0l0.2,0.1l0,0l0.2,0.1
	l0,0l0.2,0.1l0.1,0c0.3,0.2,0.6,0.4,0.9,0.6l0,0l0.2,0.1l0,0l0,0c0.3,0.2,0.6,0.4,0.8,0.6l0,0l0.2,0.1c4.6,3.7,7.5,9,7.5,14.9v36.6
	c1.6-0.4,3.3-0.6,5.1-0.6h202.3c1.8,0,3.5,0.2,5.1,0.6V143c0-5.9,2.9-11.1,7.5-14.9c0.2-0.2,0.4-0.3,0.6-0.5l0,0l0.1-0.1l0.3-0.2
	l0,0l0,0l0.2-0.1l0,0l0.2-0.1l0,0l0,0c0.4-0.3,0.9-0.6,1.3-0.8l0,0l0.2-0.1l0.1,0l0,0c0.2-0.1,0.4-0.2,0.6-0.3l0.2-0.1l0.3-0.2l0,0
	l0,0l0.2-0.1l0.2-0.1c0.9-0.4,1.8-0.8,2.8-1.2l0,0c2-0.7,4.2-1.2,6.4-1.4V47.7h0c0-9.9-4.3-18.8-11.3-25.4
	C298.3,15.7,288.5,11.6,277.7,11.6L277.7,11.6z M296.9,193.6c-0.1-0.1-0.2-0.2-0.3-0.4c-0.1-0.1-0.3-0.3-0.4-0.4
	c-0.7-0.6-1.5-1.2-2.4-1.6l0,0c-0.3-0.1-0.6-0.2-0.9-0.3l0,0l0,0c-0.8-0.2-1.7-0.4-2.6-0.4H87.9c-0.9,0-1.8,0.1-2.6,0.4l0,0l0,0
	c-0.3,0.1-0.6,0.2-0.9,0.3l-0.2,0.1c-0.8,0.4-1.6,0.9-2.3,1.5l-0.1,0.1l0,0l-0.1,0.1l0,0l0,0l0,0l0,0h0l-0.2,0.3
	c-0.1,0.1-0.2,0.2-0.2,0.3c-1,1.2-1.5,2.6-1.5,4.1v44.7c0,1.9,0.9,3.6,2.2,4.9c1.5,1.4,3.6,2.3,6,2.3h202.3c2.4,0,4.5-0.9,6-2.3
	c1.4-1.3,2.2-3,2.2-4.9v-44.7l0-0.1v0l0,0v0l0-0.1l0,0l0,0l0,0v0l0-0.1v0C298.3,196,297.7,194.7,296.9,193.6z M322.5,134.1h-3.2
	c-3.7,0-6.9,1.2-9.2,3c-2,1.6-3.2,3.7-3.2,5.9v44.7c1.9,2.8,3,6.1,3.1,9.6v0l0,0.1l0,0.1v0.1l0,0.1v44.7c0,5.2-2.3,10-6,13.4
	c-3.6,3.3-8.5,5.3-13.8,5.3H87.9c-5.4,0-10.3-2-13.8-5.3c-3.7-3.4-6-8.1-6-13.4v-44.7c0-3.7,1.1-7.1,3.1-10.1V143
	c0-2.2-1.2-4.3-3.2-5.9c-2.3-1.9-5.6-3-9.2-3h-3.2H24c-3.7,0-6.9,1.2-9.2,3c-2,1.6-3.2,3.7-3.2,5.9v173.6c0,2.2,1.2,4.3,3.2,5.9
	c2.3,1.9,5.6,3,9.2,3h34.7c2.7,0,5.2-0.6,7.3-1.8c1.8-1,3.3-2.3,4.2-3.8c0.9-2,2.9-3.5,5.3-3.5h226.9v0c2.1,0,4.1,1.1,5.1,3.1
	c0.9,1.6,2.4,3.1,4.4,4.1c2.1,1.1,4.6,1.8,7.3,1.8H354c3.7,0,6.9-1.2,9.2-3c2-1.6,3.2-3.7,3.2-5.9V143c0-2.2-1.2-4.3-3.2-5.9
	c-2.3-1.9-5.6-3-9.2-3H322.5z M100.3,0h177.4c13.8,0,26.4,5.3,35.6,13.9c9.2,8.6,15,20.6,15,33.8h0v74.7H354
	c6.4,0,12.2,2.2,16.5,5.6c4.6,3.7,7.5,9,7.5,14.9v173.6c0,5.9-2.9,11.1-7.5,14.9c-3.7,3-8.5,5-13.7,5.5l-2.4,15.5
	c-1.3,8.7-23.7,4.9-29.7,4.9c-2.9,0-5.3-2.1-5.7-4.9l-2.4-15.5c-3.6-0.4-7.1-1.4-10-3c-2.8-1.5-5.2-3.5-7.1-5.9H78.7
	c-1.9,2.4-4.3,4.4-7.1,5.9c-3,1.6-6.4,2.7-10,3l-2.4,15.5c-1.3,8.7-23.7,4.9-29.7,4.9c-2.9,0-5.3-2.1-5.7-4.9L21.3,337
	c-5.3-0.5-10.1-2.5-13.7-5.5c-4.6-3.7-7.5-9-7.5-14.9V143c0-5.9,2.9-11.1,7.5-14.9c4.3-3.5,10.1-5.6,16.5-5.6h25.8V47.7h0
	c0-13.2,5.7-25.2,15-33.8C73.9,5.3,86.5,0,100.3,0z M49.8,337.3H33l1.3,8.5h14.1L49.8,337.3z M345,337.3h-16.7l1.3,8.5h14.1
	L345,337.3z"/>
</svg>
