<?xml version="1.0" encoding="utf-8"?>
<!-- Generator: Adobe Illustrator 19.0.0, SVG Export Plug-In . SVG Version: 6.00 Build 0)  -->
<svg version="1.1" id="icons" xmlns="http://www.w3.org/2000/svg" xmlns:xlink="http://www.w3.org/1999/xlink" x="0px" y="0px"
	 viewBox="0 0 300 348.3" style="enable-background:new 0 0 300 348.3;" xml:space="preserve">
<style type="text/css">
	.st0{fill-rule:evenodd;clip-rule:evenodd;fill:#94D0CF;}
	.st1{fill-rule:evenodd;clip-rule:evenodd;fill:#FFFFFF;}
	.st2{fill:#58373F;}
</style>
<rect x="124.7" y="30.3" class="st0" width="50.6" height="18.2"/>
<rect x="5.8" y="5.8" class="st1" width="288.3" height="67.2"/>
<rect x="5.8" y="5.8" class="st1" width="288.3" height="336.7"/>
<path class="st0" d="M150,147.7c32.3,0,58.5,26.2,58.5,58.5s-26.2,58.5-58.5,58.5c-32.3,0-58.5-26.2-58.5-58.5
	S117.7,147.7,150,147.7L150,147.7z"/>
<path class="st2" d="M164.2,168.6c2.9-1.4,6.4-0.2,7.7,2.7c1.4,2.9,0.2,6.4-2.7,7.7l-33.5,16c-2.9,1.4-6.4,0.2-7.7-2.7
	c-1.4-2.9-0.1-6.4,2.7-7.7L164.2,168.6z M172.1,186.5c2.9-1.4,6.3-0.3,7.8,2.6c1.4,2.9,0.3,6.3-2.6,7.8l-50.2,25.1
	c-2.9,1.4-6.3,0.3-7.8-2.6c-1.4-2.9-0.3-6.3,2.6-7.8L172.1,186.5z M187.2,169c-9.5-9.5-22.7-15.4-37.3-15.4
	c-14.5,0-27.7,5.9-37.3,15.4c-9.5,9.5-15.4,22.7-15.4,37.3s5.9,27.7,15.4,37.3c9.5,9.5,22.7,15.4,37.3,15.4v0
	c14.5,0,27.7-5.9,37.3-15.5c9.5-9.5,15.5-22.7,15.5-37.3h0C202.7,191.7,196.8,178.5,187.2,169z M150,141.9
	c17.8,0,33.8,7.2,45.5,18.8c11.6,11.6,18.8,27.7,18.8,45.5h0c0,17.8-7.2,33.8-18.8,45.5c-11.6,11.6-27.7,18.8-45.5,18.8v0
	c-17.8,0-33.8-7.2-45.5-18.8c-11.6-11.6-18.8-27.7-18.8-45.5s7.2-33.8,18.8-45.5C116.1,149.1,132.2,141.9,150,141.9z M213.6,142.6
	c-16.3-16.3-38.8-26.4-63.6-26.4c-24.9,0-47.4,10.1-63.6,26.4C70,158.9,60,181.4,60,206.2c0,24.9,10.1,47.4,26.4,63.6
	c16.3,16.3,38.8,26.4,63.6,26.4c24.9,0,47.4-10.1,63.6-26.4c16.3-16.3,26.4-38.8,26.4-63.6C240,181.4,229.9,158.9,213.6,142.6z
	 M150,104.6c28.1,0,53.5,11.4,71.9,29.8c18.4,18.4,29.8,43.8,29.8,71.9s-11.4,53.5-29.8,71.9c-18.4,18.4-43.8,29.8-71.9,29.8
	c-28.1,0-53.5-11.4-71.9-29.8c-18.4-18.4-29.8-43.8-29.8-71.9c0-28.1,11.4-53.5,29.8-71.9C96.5,116,121.9,104.6,150,104.6z
	 M11.6,67.2h276.7V11.6H11.6V67.2z M288.3,78.8H11.6v258h276.7V78.8z M6.3,0h287.8c3.2,0,5.8,2.6,5.8,5.8h0V73v269.5
	c0,3.2-2.6,5.8-5.8,5.8c-0.2,0-0.3,0-0.5,0H5.8c-3.2,0-5.8-2.6-5.8-5.8h0V73V5.8C0,2.6,2.6,0,5.8,0C6,0,6.1,0,6.3,0z M94.7,31.6
	H43.2v15.6h51.5V31.6z M141.8,34.3c-1.3-1.3-3.1-2.1-5.1-2.1c-1.9,0-3.6,0.7-4.9,1.9c-0.1,0.1-0.1,0.2-0.2,0.2
	c-1.3,1.3-2.1,3.1-2.1,5.1c0,4,3.2,7.2,7.2,7.2c2,0,3.8-0.8,5.1-2.1l0,0l0,0l0,0c1.3-1.3,2.1-3.1,2.1-5.1
	C143.9,37.4,143.1,35.6,141.8,34.3z M136.8,20.6c5.2,0,9.9,2.1,13.3,5.5c3.4,3.4,5.5,8.1,5.5,13.3c0,5.2-2.1,9.9-5.5,13.3l0,0
	l-0.1,0.1c-3.4,3.3-8,5.4-13.2,5.4c-10.4,0-18.8-8.4-18.8-18.8c0-5.2,2.1-9.9,5.5-13.3c0.1-0.1,0.3-0.2,0.4-0.4
	C127.2,22.6,131.8,20.6,136.8,20.6z M186.6,34.3c-1.3-1.3-3.1-2.1-5.1-2.1c-2,0-3.8,0.8-5.1,2.1c-1.3,1.3-2.1,3.1-2.1,5.1
	c0,1.9,0.7,3.6,1.9,4.9c0.1,0.1,0.2,0.1,0.2,0.2c1.3,1.3,3.1,2.1,5.1,2.1c2,0,3.8-0.8,5.1-2.1l0,0l0,0l0,0c1.3-1.3,2.1-3.1,2.1-5.1
	C188.7,37.4,187.9,35.6,186.6,34.3z M181.5,20.6c5.2,0,9.9,2.1,13.3,5.5c3.4,3.4,5.5,8.1,5.5,13.3c0,5.2-2.1,9.9-5.5,13.3l0,0
	l-0.1,0.1c-3.4,3.3-8,5.4-13.2,5.4c-5.2,0-9.9-2.1-13.3-5.5c-0.1-0.1-0.2-0.3-0.4-0.4c-3.2-3.4-5.2-7.9-5.2-12.9
	c0-5.2,2.1-9.9,5.5-13.3C171.7,22.7,176.4,20.6,181.5,20.6z M256.8,36.1h-39v6.6h39V36.1z M212,24.5h50.6c3.2,0,5.8,2.6,5.8,5.8
	c0,0.2,0,0.4,0,0.5v17.7c0,3.2-2.6,5.8-5.8,5.8v0H212c-3.2,0-5.8-2.6-5.8-5.8c0-0.2,0-0.3,0-0.5V30.3
	C206.2,27.1,208.8,24.5,212,24.5L212,24.5z M37.4,20h63.1c3.2,0,5.8,2.6,5.8,5.8V53c0,3.2-2.6,5.8-5.8,5.8H37.4
	c-3.2,0-5.8-2.6-5.8-5.8V25.8C31.6,22.6,34.2,20,37.4,20z M165.2,214.6c2.9-1.4,6.4-0.1,7.7,2.7c1.4,2.9,0.1,6.4-2.7,7.7L134.8,242
	c-2.9,1.4-6.4,0.1-7.7-2.7c-1.4-2.9-0.1-6.4,2.7-7.7L165.2,214.6z"/>
</svg>
