<?xml version="1.0" encoding="utf-8"?>
<!-- Generator: Adobe Illustrator 19.0.0, SVG Export Plug-In . SVG Version: 6.00 Build 0)  -->
<svg version="1.1" id="icons" xmlns="http://www.w3.org/2000/svg" xmlns:xlink="http://www.w3.org/1999/xlink" x="0px" y="0px"
	 viewBox="0 0 328.2 425.7" style="enable-background:new 0 0 328.2 425.7;" xml:space="preserve">
<style type="text/css">
	.st0{fill-rule:evenodd;clip-rule:evenodd;fill:#F5B9C3;}
	.st1{fill-rule:evenodd;clip-rule:evenodd;fill:#FFFFFF;}
	.st2{fill-rule:evenodd;clip-rule:evenodd;fill:#58373F;}
</style>
<path class="st0" d="M298.2,149.2h-25.7c-22.1,25.6-56.7,43.1-109.9,43.1c-53.2,0-87.8-17.6-109.9-43.1H27.1c-0.9,0-1.7,0-2.5-0.1
	v66.5v25.1v135.6h0l7,43.6h21.6l7-43.6h74.8h29h103.8l7,43.6h21.6l7-43.6h0V240.7v-25.1v-66.8C301.9,149,300.2,149.2,298.2,149.2z"
	/>
<path class="st1" d="M273.9,149.2c-22.1,25.6-56.7,43.1-109.9,43.1c-53.2,0-87.8-17.6-109.9-43.1H28.4c-30.2,0-30.2-41,0-41h271.1
	c31.2,0,29.8,41,0,41H273.9z"/>
<path class="st2" d="M30.4,370.4h29.9v0c0.1,0,0.2,0,0.3,0h97.7V221.4H30.4V370.4z M267.9,370.4h29.9V221.4H169.9v149.1L267.9,370.4
	L267.9,370.4z M296.8,382.1h-22.1l5.2,32h11.8L296.8,382.1z M39.8,155h-9.4v54.8h133.7h133.7V155h-9.4h-11.9c-2.8,3.1-5.7,6-8.8,8.7
	c-3.6,3.3-7.7,6.5-12.2,9.6v0c-22.2,15.3-51.9,24.8-91.3,24.8v0l-0.1,0l-0.1,0v0c-39.4,0-69.1-9.5-91.3-24.8v0
	c-4.5-3.1-8.5-6.3-12.2-9.6c-3.1-2.8-6-5.7-8.8-8.7H39.8z M28.6,143.4h11.2h14.5c1.9,0,3.5,0.9,4.6,2.3c2.9,3.2,5.9,6.4,9.3,9.4
	c3.4,3.1,7.1,6.1,11,8.7l0,0v0c20.3,14,47.9,22.7,84.8,22.7c37,0,64.6-8.7,84.9-22.7v0l0.1,0c3.8-2.6,7.5-5.5,11-8.7
	c3.4-3,6.4-6.1,9.3-9.4c1-1.4,2.7-2.3,4.6-2.3h14.5h9.9h0h1c0.4,0,0.8,0,1.2-0.1l0,0l0.4,0l0,0c0.6-0.1,1.2-0.1,1.7-0.2
	c0.5-0.1,1.1-0.1,1.6-0.1c5.6-1.2,9.4-4.5,11.2-8.5c0.9-1.9,1.3-4,1.3-6c0-2-0.4-4.1-1.3-6c-2.2-4.8-7.3-8.4-15.8-8.4
	c-90.3,0-180.6,0-271,0c-8.5,0-13.6,3.7-15.8,8.4c-0.9,1.9-1.3,3.9-1.3,6c0,2,0.5,4.1,1.4,6C15.1,139.5,20.4,143.4,28.6,143.4z
	 M156.8,102.4l-22.5-24.2c-2.2-2.3-2-6,0.3-8.2c2.3-2.2,6-2,8.2,0.3l16.1,17.3c-1.1-37.2-2-80.8,25.1-86.9l0,0v0
	c1.7-0.4,3.4-0.6,5.1-0.7c1.7-0.1,3.3,0,4.9,0.2c8.4,1.2,15,6.3,18.7,14.3c1.3,2.9,0.1,6.3-2.8,7.7c-2.9,1.3-6.3,0.1-7.7-2.8
	c-2-4.3-5.4-7.1-9.7-7.7c-0.9-0.1-1.8-0.2-2.8-0.1c-1,0.1-2.1,0.2-3.1,0.4l0,0c-17.9,4-17,42.5-16.1,75.3l15.8-17
	c2.2-2.3,5.8-2.5,8.2-0.3c2.3,2.2,2.5,5.8,0.3,8.2l-22.5,24.2h127.3c13.8,0,22.5,6.7,26.4,15.3c1.5,3.4,2.2,7.1,2.2,10.8
	c0,3.7-0.8,7.4-2.4,10.8c-2.8,6.5-8.4,11.9-16.5,14.4v61.4c0,0.2,0,0.3,0,0.5v160.7v0l0,0v0v0l0,0l0,0v0l0,0v0l0,0l0,0l0,0.1l0,0
	l0,0l0,0l0,0v0l0,0l0,0l0,0l0,0l0,0l0,0.1l0,0l0,0v0l0,0l0,0l0,0l0,0.1l0,0l0,0c0,0.1,0,0.2,0,0.3l0,0l0,0l0,0.1l0,0l0,0.1
	l-6.9,43.1c-0.5,2.9-2.9,4.9-5.7,4.9v0H275c-3,0-5.5-2.4-5.8-5.3l-6.2-38.3h-98.9c-0.2,0-0.3,0-0.5,0H65.2l-6.2,38.3
	c-0.2,3-2.7,5.4-5.8,5.4H31.6v0c-2.8,0-5.3-2-5.7-4.9l-7-43.1c-0.1-0.3-0.1-0.5-0.1-0.8l0,0l0,0l0,0l0,0l0,0l0,0l0,0l0,0l0,0l0,0v0
	l0,0l0,0l0,0v0l0,0l0,0c0-0.1,0-0.2,0-0.3v0v0v0V215.6v-61.9c-8.1-2.4-13.6-7.9-16.5-14.4c-1.6-3.4-2.3-7.1-2.3-10.8
	c0-3.7,0.6-7.4,2.2-10.8c4-8.6,12.7-15.3,26.4-15.3H156.8z M53.5,382.1H31.4l5.2,32h11.8L53.5,382.1z M189.2,248.1
	c0-3.2,2.6-5.8,5.8-5.8c3.2,0,5.8,2.6,5.8,5.8v34.5c0,3.2-2.6,5.8-5.8,5.8c-3.2,0-5.8-2.6-5.8-5.8V248.1z M127.4,248.1
	c0-3.2,2.6-5.8,5.8-5.8c3.2,0,5.8,2.6,5.8,5.8v34.5c0,3.2-2.6,5.8-5.8,5.8c-3.2,0-5.8-2.6-5.8-5.8V248.1z"/>
</svg>
