<?xml version="1.0" encoding="utf-8"?>
<!-- Generator: Adobe Illustrator 19.0.0, SVG Export Plug-In . SVG Version: 6.00 Build 0)  -->
<svg version="1.1" id="icons" xmlns="http://www.w3.org/2000/svg" xmlns:xlink="http://www.w3.org/1999/xlink" x="0px" y="0px"
	 viewBox="0 0 418.1 286.8" style="enable-background:new 0 0 418.1 286.8;" xml:space="preserve">
<style type="text/css">
	.st0{fill-rule:evenodd;clip-rule:evenodd;fill:#E6AC6C;}
	.st1{fill-rule:evenodd;clip-rule:evenodd;fill:#F5B9C3;}
	.st2{fill:#58373F;}
</style>
<path class="st0" d="M349,5.8H69.1C34.3,5.8,5.8,34.3,5.8,69.1v87.2v101.9L9.3,281h27.1l3.2-20.8h338.6l3.2,20.8h27.1l3.5-20.8
	V156.3V69.1C412.3,34.3,383.8,5.8,349,5.8z"/>
<g>
	<path class="st1" d="M294.9,92.1c-24.4-17.3-54-27.4-85.9-27.4c-31.9,0-61.5,10.1-85.9,27.4c24.4,17.3,54,27.4,85.9,27.4
		C240.9,119.5,270.5,109.4,294.9,92.1z"/>
	<rect x="43.2" y="119.5" class="st1" width="331.6" height="36.8"/>
</g>
<path class="st2" d="M252.3,107c11.4-3.6,22.2-8.7,32.2-14.9c-10-6.2-20.8-11.3-32.2-14.9c-13.6-4.3-28.1-6.7-43.2-6.7
	c-15.1,0-29.6,2.3-43.2,6.7c-11.4,3.6-22.2,8.7-32.2,14.9c10,6.2,20.8,11.3,32.2,14.9c13.6,4.3,28.1,6.7,43.2,6.7
	C224.1,113.7,238.7,111.4,252.3,107L252.3,107z M369,125.3H49v25.2h320V125.3z M406.5,162.1H11.6V258l2.7,17.2h17.2l2.4-15.4
	c0.2-3,2.7-5.4,5.8-5.4h338.6v0c2.8,0,5.3,2,5.7,4.9l2.5,15.9h17.3l2.6-15.4V162.1z M418.1,156.3v103.9c0,0.5-0.1,0.9-0.2,1.3
	l-3.5,20.4c-0.5,2.8-2.9,4.8-5.7,4.8v0h-27.1c-3.1,0-5.6-2.4-5.8-5.4l-2.4-15.4H44.7l-2.5,15.9c-0.4,2.9-2.9,4.9-5.7,4.9v0H9.3
	c-3.1,0-5.6-2.4-5.8-5.4l-3.5-22.2c0-0.3-0.1-0.6-0.1-0.9h0V156.3V69.1c0-19,7.8-36.3,20.3-48.8C32.8,7.8,50.1,0,69.1,0H349
	c19,0,36.3,7.8,48.8,20.3c12.5,12.5,20.3,29.8,20.3,48.8V156.3z M298.1,97c-9.4,6.7-19.6,12.3-30.4,16.7h107.2
	c3.2,0,5.8,2.6,5.8,5.8v31h25.8V69.1c0-15.8-6.5-30.2-16.9-40.6c-10.4-10.4-24.8-16.9-40.6-16.9H69.1c-15.8,0-30.2,6.5-40.6,16.9
	C18.1,38.9,11.6,53.3,11.6,69.1v81.4h25.8v-31c0-3.2,2.6-5.8,5.8-5.8h107.2c-10.8-4.5-21.1-10.1-30.6-16.8c-2.6-1.8-3.2-5.4-1.4-8.1
	c0.4-0.6,0.9-1,1.4-1.4l0,0c12.9-9.1,27.2-16.3,42.5-21.2c14.8-4.7,30.5-7.3,46.7-7.3c16.2,0,31.9,2.5,46.7,7.3
	c15.3,4.9,29.6,12.1,42.5,21.2c2.6,1.8,3.2,5.4,1.4,8.1C299.2,96.1,298.6,96.6,298.1,97z"/>
</svg>
