<?xml version="1.0" encoding="utf-8"?>
<!-- Generator: Adobe Illustrator 19.0.0, SVG Export Plug-In . SVG Version: 6.00 Build 0)  -->
<svg version="1.1" id="icons" xmlns="http://www.w3.org/2000/svg" xmlns:xlink="http://www.w3.org/1999/xlink" x="0px" y="0px"
	 viewBox="0 0 429.8 365.8" style="enable-background:new 0 0 429.8 365.8;" xml:space="preserve">
<style type="text/css">
	.st0{fill-rule:evenodd;clip-rule:evenodd;fill:#E6AC6C;}
	.st1{fill:#58373F;}
</style>
<path class="st0" d="M21,329.6c-8.4,0-15.2,6.8-15.2,15.2c0,8.4,6.8,15.2,15.2,15.2c8.4,0,15.2-6.8,15.2-15.2
	C36.1,336.4,29.3,329.6,21,329.6L21,329.6z M408.9,329.6c-8.4,0-15.2,6.8-15.2,15.2c0,8.4,6.8,15.2,15.2,15.2s15.2-6.8,15.2-15.2
	C424,336.4,417.2,329.6,408.9,329.6z"/>
<rect x="20.9" y="229.8" class="st0" width="387.9" height="43.5"/>
<g>
	<path class="st1" d="M403.1,235.6H26.8v31.9h376.3V235.6z M21,335.4c-5.2,0-9.3,4.2-9.3,9.3s4.2,9.3,9.3,9.3c5.2,0,9.3-4.2,9.3-9.3
		S26.1,335.4,21,335.4z M79.5,64.5H26.8V224h52.8V64.5z M143.9,64.5H91.1V224h52.8V64.5z M208.3,64.5h-52.8V224h52.8V64.5z
		 M272.7,64.5h-52.8V224h52.8V64.5z M337,64.5h-52.8V224H337V64.5z M403.1,64.5h-54.4V224h54.4V64.5z M26.8,52.9h376.3V5.8
		c0-3.2,2.6-5.8,5.8-5.8c3.2,0,5.8,2.6,5.8,5.8v223.9l0,0.1v43.5l0,0.1v51.3c8.7,2.5,15.1,10.6,15.1,20.1c0,11.6-9.4,21-21,21
		c-11.6,0-21-9.4-21-21c0-9.6,6.4-17.7,15.2-20.2v-45.5H26.8v45.5c8.7,2.5,15.2,10.6,15.2,20.1c0,11.6-9.4,21-21,21
		c-11.6,0-21-9.4-21-21c0-9.6,6.4-17.6,15.2-20.1v-51.3v-43.5V58.7V5.8C15.2,2.6,17.8,0,21,0c3.2,0,5.8,2.6,5.8,5.8V52.9z
		 M408.9,335.4c-5.2,0-9.3,4.2-9.3,9.3s4.2,9.3,9.3,9.3c5.2,0,9.3-4.2,9.3-9.3S414,335.4,408.9,335.4z"/>
</g>
</svg>
