<?xml version="1.0" encoding="utf-8"?>
<!-- Generator: Adobe Illustrator 19.0.0, SVG Export Plug-In . SVG Version: 6.00 Build 0)  -->
<svg version="1.1" id="icons" xmlns="http://www.w3.org/2000/svg" xmlns:xlink="http://www.w3.org/1999/xlink" x="0px" y="0px"
	 viewBox="0 0 464.5 407.5" style="enable-background:new 0 0 464.5 407.5;" xml:space="preserve">
<style type="text/css">
	.st0{fill-rule:evenodd;clip-rule:evenodd;fill:#94D0CF;}
	.st1{fill-rule:evenodd;clip-rule:evenodd;fill:#FFFFFF;}
	.st2{fill:#E6AC6C;}
	.st3{fill:#58373F;}
</style>
<rect x="66.2" y="5.8" class="st0" width="332" height="206"/>
<rect x="128.7" y="262.3" class="st1" width="206.9" height="117.2"/>
<path class="st2" d="M335.6,262.3L335.6,262.3H128.7h0H5.8v117.2h37.7l3.5,22.2h26.5l3.5-22.2h51.8v-0.2h206.9v0.2h52l3.5,22.2h26.5
	l3.5-22.2h37.7V262.3H335.6z M335.6,301.3L335.6,301.3l-206.9,0v0H335.6z M128.7,340.3L128.7,340.3l206.9,0v0H128.7z"/>
<path class="st3" d="M392.3,11.6H72V206h320.3V11.6z M245.6,53c2.5-2,6.1-1.6,8.1,0.8c2,2.5,1.6,6.1-0.8,8.1l-98.4,79.9
	c-2.5,2-6.1,1.6-8.1-0.8c-2-2.5-1.6-6.1,0.8-8.1L245.6,53z M302.2,77.4c2.5-2,6.1-1.6,8.1,0.8c2,2.5,1.6,6.1-0.8,8.1l-98.4,79.9
	c-2.5,2-6.1,1.6-8.1-0.8c-2-2.5-1.6-6.1,0.8-8.1L302.2,77.4z M348.3,111.9c2.5-2,6.1-1.6,8.1,0.8c2,2.5,1.6,6.1-0.8,8.1l-63,51.2
	c-2.5,2-6.1,1.6-8.1-0.8c-2-2.5-1.6-6.1,0.8-8.1L348.3,111.9z M172.1,45.5c2.5-2,6.1-1.6,8.1,0.8c2,2.5,1.6,6.1-0.8,8.1l-63,51.2
	c-2.5,2-6.1,1.6-8.1-0.8c-2-2.5-1.6-6.1,0.8-8.1L172.1,45.5z M50.1,385.3l1.6,10.6h16.6l1.6-10.6H50.1z M394.2,385.3l1.6,10.6h16.6
	l1.6-10.6H394.2z M425.8,385.3l-2.7,17.3c-0.4,2.9-2.9,4.9-5.7,4.9v0h-26.5c-3.1,0-5.6-2.4-5.8-5.4l-2.6-16.8h-46.9
	c-0.6,0-1.1-0.1-1.6-0.2H130.3c-0.5,0.1-1,0.2-1.6,0.2h-47L79,402.6c-0.4,2.9-2.9,4.9-5.7,4.9v0H46.8c-3.1,0-5.6-2.4-5.8-5.4
	l-2.6-16.8H5.8c-3.2,0-5.8-2.6-5.8-5.8V262.3c0-3.2,2.6-5.8,5.8-5.8h122.9h0h206.9h0h123.1c3.2,0,5.8,2.6,5.8,5.8v117.2
	c0,3.2-2.6,5.8-5.8,5.8H425.8z M11.6,373.7h31.7v0h33.4l0.2,0h46v-33.4v0v-39v0v-33.2H11.6V373.7z M134.5,334.5h195.2v-27.4H134.5
	V334.5z M134.5,295.5h195.2v-27.4H134.5V295.5z M134.5,373.5h195.2v-27.4H134.5V373.5z M341.4,373.7h46v0h33.4l0.2,0h31.9V268.1
	H341.4v33.2v0v39v0V373.7z M66.2,0h332c3.2,0,5.8,2.6,5.8,5.8v206c0,3.2-2.6,5.8-5.8,5.8h-332c-3.2,0-5.8-2.6-5.8-5.8V5.8
	C60.4,2.6,63,0,66.2,0z"/>
</svg>
