<?xml version="1.0" encoding="utf-8"?>
<!-- Generator: Adobe Illustrator 19.0.0, SVG Export Plug-In . SVG Version: 6.00 Build 0)  -->
<svg version="1.1" id="icons" xmlns="http://www.w3.org/2000/svg" xmlns:xlink="http://www.w3.org/1999/xlink" x="0px" y="0px"
	 viewBox="0 0 351.8 351.9" style="enable-background:new 0 0 351.8 351.9;" xml:space="preserve">
<style type="text/css">
	.st0{fill-rule:evenodd;clip-rule:evenodd;fill:#94D0CF;}
	.st1{fill-rule:evenodd;clip-rule:evenodd;fill:#FFFFFF;}
	.st2{fill:#58373F;}
</style>
<path class="st0" d="M175.9,5.8c93.9,0,170.1,76.2,170.1,170.1c0,93.9-76.2,170.1-170.1,170.1C82,346.1,5.8,269.9,5.8,175.9
	C5.8,82,82,5.8,175.9,5.8L175.9,5.8z"/>
<path class="st1" d="M175.9,36.1c77.2,0,139.9,62.6,139.9,139.9s-62.6,139.9-139.9,139.9S36.1,253.2,36.1,175.9
	S98.7,36.1,175.9,36.1L175.9,36.1z"/>
<path class="st2" d="M270.7,81.2c-24.3-24.3-57.8-39.3-94.8-39.3c-37,0-70.5,15-94.8,39.3c-24.3,24.3-39.3,57.8-39.3,94.8
	c0,37,15,70.5,39.3,94.8c24.3,24.3,57.8,39.3,94.8,39.3c37,0,70.5-15,94.8-39.3C295,246.5,310,213,310,175.9
	C310,138.9,295,105.4,270.7,81.2L270.7,81.2z M292.1,59.7C262.4,30,221.3,11.6,175.9,11.6v0c-45.4,0-86.5,18.4-116.2,48.1
	C30,89.5,11.6,130.6,11.6,175.9c0,45.4,18.4,86.4,48.2,116.2c29.7,29.7,70.8,48.1,116.2,48.1v0c45.4,0,86.4-18.4,116.2-48.2
	c29.8-29.8,48.2-70.8,48.2-116.2C340.3,130.6,321.9,89.5,292.1,59.7z M175.9,0c48.6,0,92.6,19.7,124.4,51.5
	c31.8,31.8,51.5,75.8,51.5,124.4c0,48.6-19.7,92.6-51.5,124.4c-31.8,31.8-75.8,51.5-124.4,51.5v0c-48.6,0-92.6-19.7-124.4-51.5
	C19.7,268.5,0,224.5,0,175.9c0-48.6,19.7-92.6,51.5-124.4C83.4,19.7,127.3,0,175.9,0L175.9,0z M183.8,168.1c-2-2-4.8-3.3-7.9-3.3
	c-3.1,0-5.8,1.2-7.9,3.3c-2,2-3.3,4.8-3.3,7.9c0,3.1,1.2,5.8,3.3,7.9c2,2,4.8,3.3,7.9,3.3c3.1,0,5.8-1.2,7.9-3.3
	c2-2,3.3-4.8,3.3-7.9C187,172.9,185.8,170.1,183.8,168.1z M114.8,208.7c-2.9,1.3-6.4-0.1-7.6-3c-1.3-2.9,0.1-6.4,3-7.6l43.2-18.6
	c-0.2-1.1-0.3-2.3-0.3-3.4c0-6.3,2.5-12,6.7-16.1c1.4-1.4,2.9-2.6,4.6-3.6L144,80.6c-0.8-3.1,1-6.3,4.1-7.1c3.1-0.8,6.3,1,7.1,4.1
	l20.5,75.7l0.3,0c6.3,0,12,2.5,16.1,6.7c4.1,4.1,6.7,9.8,6.7,16.1c0,6.3-2.5,12-6.7,16.1c-4.1,4.1-9.8,6.7-16.1,6.7
	c-6.3,0-12-2.5-16.1-6.7c-0.6-0.6-1.2-1.3-1.8-2L114.8,208.7z M84.6,92.7c-2.3-2.3-2.3-5.9,0-8.2c2.3-2.3,5.9-2.3,8.2,0l19.1,19.1
	c2.3,2.3,2.3,5.9,0,8.2c-2.3,2.3-5.9,2.3-8.2,0L84.6,92.7z M52.6,181.6c-3.2,0-5.8-2.6-5.8-5.8c0-3.2,2.6-5.8,5.8-5.8h26.9
	c3.2,0,5.8,2.6,5.8,5.8c0,3.2-2.6,5.8-5.8,5.8H52.6z M92.8,267.2c-2.3,2.3-5.9,2.3-8.2,0c-2.3-2.3-2.3-5.9,0-8.2l19.1-19.1
	c2.3-2.3,5.9-2.3,8.2,0c2.3,2.3,2.3,5.9,0,8.2L92.8,267.2z M181.7,299.2c0,3.2-2.6,5.8-5.8,5.8c-3.2,0-5.8-2.6-5.8-5.8v-26.9
	c0-3.2,2.6-5.8,5.8-5.8c3.2,0,5.8,2.6,5.8,5.8V299.2z M267.2,258.9c2.3,2.3,2.3,5.9,0,8.2c-2.3,2.3-5.9,2.3-8.2,0l-19-19.1
	c-2.3-2.3-2.3-5.9,0-8.2c2.3-2.3,5.9-2.3,8.2,0L267.2,258.9z M299.3,170c3.2,0,5.8,2.6,5.8,5.8c0,3.2-2.6,5.8-5.8,5.8h-26.9
	c-3.2,0-5.8-2.6-5.8-5.8c0-3.2,2.6-5.8,5.8-5.8H299.3z M259,84.5c2.3-2.3,5.9-2.3,8.2,0c2.3,2.3,2.3,5.9,0,8.2l-19.1,19.1
	c-2.3,2.3-5.9,2.3-8.2,0c-2.3-2.3-2.3-5.9,0-8.2L259,84.5z M170.1,52.5c0-3.2,2.6-5.8,5.8-5.8c3.2,0,5.8,2.6,5.8,5.8v26.9
	c0,3.2-2.6,5.8-5.8,5.8c-3.2,0-5.8-2.6-5.8-5.8V52.5z M175.9,30.3c40.2,0,76.6,16.3,103,42.7c26.4,26.4,42.7,62.8,42.7,103
	c0,40.2-16.3,76.6-42.7,103c-26.4,26.4-62.8,42.7-103,42.7c-40.2,0-76.6-16.3-103-42.7c-26.4-26.4-42.7-62.8-42.7-103
	c0-40.2,16.3-76.6,42.7-103C99.3,46.6,135.7,30.3,175.9,30.3z"/>
</svg>
