<?xml version="1.0" encoding="utf-8"?>
<!-- Generator: Adobe Illustrator 19.0.0, SVG Export Plug-In . SVG Version: 6.00 Build 0)  -->
<svg version="1.1" id="icons" xmlns="http://www.w3.org/2000/svg" xmlns:xlink="http://www.w3.org/1999/xlink" x="0px" y="0px"
	 viewBox="0 0 432.8 376.4" style="enable-background:new 0 0 432.8 376.4;" xml:space="preserve">
<style type="text/css">
	.st0{fill-rule:evenodd;clip-rule:evenodd;fill:#6CBE99;}
	.st1{fill-rule:evenodd;clip-rule:evenodd;fill:#94D0CF;}
	.st2{fill-rule:evenodd;clip-rule:evenodd;fill:#F5B9C3;}
	.st3{fill:#58373F;}
	.st4{fill-rule:evenodd;clip-rule:evenodd;fill:#E6AC6C;}
	.st5{fill-rule:evenodd;clip-rule:evenodd;fill:#9ACC9A;}
</style>
<path class="st0" d="M160.9,160.9c34-42.1,38.5-125.7,30.4-155.1C178.1,46.3,144.6,114,160.9,160.9L160.9,160.9z M152.2,160.9
	c-34-42.1-38.5-125.7-30.4-155.1C134.9,46.3,168.4,114,152.2,160.9z M135,160.6C82.2,157,20.7,102.6,5.8,76.3
	c25.4,12.3,65.9,26.2,96.1,47.8C76.2,90.5,59.6,46.8,57.8,25.5c26.3,33,80.8,83.9,81.8,133.7c-2.8-1.6-5.6-3.5-8.3-5.5
	C132.6,156,133.9,158.3,135,160.6z M178,160.6c52.8-3.6,114.3-58,129.2-84.3c-25.4,12.3-65.9,26.2-96.1,47.8
	c25.6-33.6,42.3-77.3,44.1-98.6c-26.3,33-80.8,83.9-81.8,133.7c2.8-1.6,5.6-3.5,8.3-5.5C180.4,156,179.1,158.3,178,160.6z"/>
<polygon class="st1" points="75.2,159.7 237.9,159.7 222.6,265.7 90.4,265.7 "/>
<polygon class="st2" points="75.2,265.7 237.9,265.7 211.3,297.3 101.7,297.3 "/>
<path class="st3" d="M225.4,271.5H87.6l16.8,20h104.2L225.4,271.5z M207.1,119.9c4.4-5.8,8.5-11.9,12.3-18.1
	c11.5-18.7,20.1-38.5,25.2-54.6l-2.8,3.3c-23.4,26.9-52.9,60.7-60.6,94C188.1,135.3,197.1,127.1,207.1,119.9z M163.4,147.2
	c9.9-16.2,16.6-36.6,20.6-57c4.2-21.6,5.6-43.2,4.8-60.1l-1.5,4C174.3,68.9,157.9,112.7,163.4,147.2z M129.1,90.2
	c4,20.5,10.7,40.9,20.6,57c5.5-34.5-10.9-78.3-23.9-113.1l-1.5-4C123.5,47,124.8,68.5,129.1,90.2z M93.7,101.8
	c3.8,6.2,7.9,12.3,12.3,18.1c10,7.3,19,15.4,25.9,24.6c-7.7-33.3-37.1-67.1-60.6-94l-2.8-3.3C73.5,63.3,82.2,83.1,93.7,101.8z
	 M120.3,152.4c-8.1-7-15.6-15.2-22.5-24.1c-20.9-14.8-47.1-26-69.4-35.6L24,90.8c11.3,12.4,27.4,26.5,45.7,38.4
	C85.7,139.7,103.2,148.3,120.3,152.4z M95.4,259.9h122.2l13.6-94.3c-51.6,0-97.7,0-149.3,0L95.4,259.9z M75.2,259.9h8.5l-14.3-99.3
	c-0.5-3.2,1.8-6.1,4.9-6.6c0.3,0,0.5-0.1,0.8-0.1v0h15c-9.2-4.3-18.2-9.4-26.8-15C34.1,119.8,9.6,94.8,0.8,79.2
	c-1.6-2.8-0.6-6.3,2.2-7.9c1.7-1,3.7-1,5.4-0.2l0,0c7.1,3.5,15.6,7.1,24.7,11c15.5,6.6,32.8,14.1,49.1,23C64.5,75.5,53.5,43.5,52,26
	c-0.3-3.2,2.1-6,5.3-6.3c2.1-0.2,4.1,0.8,5.2,2.4c4.9,6.1,11,13.1,17.5,20.6c11.9,13.7,25.3,29,36.8,45.4c-6.1-33.7-5.3-67.2-0.8-84
	c0.8-3.1,4-4.9,7.1-4.1c2,0.5,3.4,2,4,3.8l0,0c2.6,8,5.9,16.7,9.4,26.1c6.9,18.5,14.7,39.4,19.9,60.4c5.2-21.1,13-42,19.9-60.4
	c3.5-9.4,6.8-18.1,9.4-26.1l0,0c0.6-1.8,2-3.3,4-3.8c3.1-0.8,6.3,1,7.1,4.1c4.6,16.8,5.3,50.2-0.8,84c11.5-16.4,24.9-31.8,36.8-45.4
	c6.6-7.5,12.7-14.6,17.6-20.7c1.1-1.6,3.1-2.6,5.2-2.4c3.2,0.3,5.6,3.1,5.3,6.3c-1.5,17.5-12.5,49.4-30.1,79
	c16.3-8.9,33.6-16.3,49.1-23c9.1-3.9,17.5-7.5,24.7-11l0,0c1.7-0.8,3.7-0.8,5.4,0.2c2.8,1.6,3.8,5.1,2.2,7.9
	c-8.9,15.7-33.3,40.7-62.7,59.8c-8.6,5.6-17.6,10.7-26.8,15h15c3.2,0,5.8,2.6,5.8,5.8c0,0.4,0,0.8-0.1,1.2l-14.2,98.9h8.5
	c3.2,0,5.8,2.6,5.8,5.8c0,1.6-0.7,3.1-1.7,4.2L215.7,301c-1.1,1.4-2.8,2.1-4.4,2.1v0H101.7c-2,0-3.7-1-4.8-2.5l-26.2-31.2
	c-2.1-2.4-1.7-6.1,0.7-8.1C72.5,260.3,73.8,259.9,75.2,259.9L75.2,259.9z M192.8,152.4c17.1-4.1,34.6-12.7,50.6-23.2
	c18.3-11.9,34.4-26.1,45.7-38.4l-4.4,1.9c-22.3,9.6-48.5,20.8-69.4,35.6C208.3,137.2,200.8,145.5,192.8,152.4z"/>
<path class="st2" d="M225.7,195.6h0.7c-0.1,3.4,0.9,6.5,2.9,9c6,7.2,19,6.2,29.2-2.2c2.5-2.1,4.6-4.4,6.2-6.8h8.6
	c1.6,2.4,3.7,4.8,6.2,6.8c10.1,8.4,23.2,9.4,29.2,2.2c2.1-2.5,3-5.6,2.9-9h3.5c0.7,6.6,3.1,12.6,6.5,17c4.3,5.6,10.1,8.9,16.7,8.8
	c0.2,0,0.5,0,0.7,0c6.5-0.3,12.2-4.1,16-10c2.8-4.3,4.7-9.8,5.2-15.8h35.3l-16,142h-138L225.7,195.6z"/>
<polygon class="st4" points="225.7,337.6 395.6,337.6 367.9,370.6 253.4,370.6 "/>
<path class="st5" d="M190.9,210.1c8.3-10.3,20.9-13.8,28.2-7.9c7.3,5.9,6.5,19-1.8,29.2c-8.3,10.3-20.9,13.8-28.2,7.9
	C181.8,233.4,182.6,220.3,190.9,210.1L190.9,210.1z M270.1,177.4c-3,7.4,0.7,17.8,9.5,25c10.1,8.4,23.2,9.4,29.2,2.2
	c5.9-7.1,2.7-19.5-7.1-27.9c4.6-3.1,7.5-7.5,7.5-12.4c0-9.4-10.7-16.9-23.9-16.9c-3.9,0-7.5,0.7-10.8,1.8l0,0.1c0.6-1.7,0.9-3.4,1-5
	c10.6,4.4,21.7,2.5,25.8-5c4.5-8.2-1.2-20-12.8-26.3c-11.5-6.3-24.6-4.8-29.1,3.4c-2.1,3.9-2,8.6,0.1,13.2c-5.3,0.4-11,2.7-16.1,6.9
	c-10.1,8.4-13.5,21.1-7.6,28.3c5.3,6.4,16.2,6.4,25.6,0.4c0.2,2.6,1.2,5,2.9,7.2c-6.2-5-17.1-3.9-26.1,2.9
	c-3.3-6.5-12.1-11.2-22.5-11.2c-13.2,0-23.9,7.6-23.9,16.9c0,9.4,10.7,16.9,23.9,16.9c3.8,0,7.5-0.6,10.7-1.8c0.1,3.2,1,6.1,2.9,8.4
	c6,7.2,19,6.2,29.2-2.2c9.8-8.1,13.3-20.2,8.2-27.5C267.7,175.8,268.8,176.6,270.1,177.4z M364.2,128.6c10.1-8.4,23.2-9.4,29.2-2.2
	c6,7.2,2.6,19.9-7.6,28.3c-10.1,8.4-23.2,9.4-29.2,2.2c-0.1-0.1-0.2-0.3-0.3-0.4c-0.3,5.3-2.6,11.1-6.7,16.3c-0.3,0.4-0.6,0.8-1,1.1
	c3.5,4.2,5.8,10.4,6,17.2c0.5,13.2-6.7,24.1-16.1,24.4c-9.4,0.3-17.3-10.1-17.8-23.2c-0.1-4,0.4-7.7,1.5-11
	c-0.3-0.2-0.6-0.4-0.8-0.6c-7.3-5.9-6.5-19,1.8-29.2c1.7-2.1,3.5-3.9,5.5-5.4c-3.7-1.1-7.5-3.1-10.9-5.9
	c-10.1-8.4-13.5-21.1-7.6-28.3c6-7.2,19-6.2,29.2,2.2c9.8,8.1,13.3,20.1,8.2,27.4c1.4,0.5,2.6,1.2,3.8,2.1c0.9,0.8,1.7,1.6,2.4,2.6
	C354.4,140.2,358.1,133.7,364.2,128.6z M380.2,163c13.2,0,23.9,7.6,23.9,16.9c0,9.4-10.7,16.9-23.9,16.9c-13.2,0-23.9-7.6-23.9-16.9
	C356.3,170.6,367,163,380.2,163z M393.2,213.4c-1.9-13,4.1-24.7,13.3-26c9.3-1.4,18.3,8.1,20.2,21.2c1.9,13-4.1,24.7-13.3,26
	C404.1,235.9,395.1,226.5,393.2,213.4z M201.9,267.7c-1.9-13,4.1-24.7,13.3-26c9.3-1.4,18.3,8.1,20.2,21.2c1.9,13-4.1,24.7-13.3,26
	C212.9,290.2,203.8,280.7,201.9,267.7z"/>
<path class="st3" d="M383.2,343.4H238.1l18,21.4h109.1L383.2,343.4z M206.9,205.6c-4,1.1-8.1,3.9-11.5,8.1c-3.4,4.2-5.2,8.8-5.5,13
	c-0.2,3.5,0.7,6.4,2.8,8.1c2.1,1.7,5.2,2,8.5,1c4-1.1,8.1-3.9,11.5-8.1c3.4-4.2,5.2-8.8,5.5-13c0.2-3.4-0.7-6.4-2.8-8.1
	C213.3,205,210.2,204.7,206.9,205.6z M209.5,252.9c-1.9,3.7-2.7,8.6-1.9,14c0.8,5.3,2.9,9.8,5.8,12.8c2.4,2.5,5.2,3.8,7.9,3.4
	c2.7-0.4,5-2.5,6.5-5.5c1.8-3.6,2.6-8.4,1.9-13.6c0-0.2-0.1-0.4-0.1-0.6c-0.8-5.2-2.9-9.6-5.8-12.5c-2.4-2.5-5.2-3.8-7.9-3.4
	C213.4,247.7,211.1,249.8,209.5,252.9z M227.5,177.4c-0.8,0.7,3.5-3.6,2.8-2.8c-0.3-0.3-0.7-0.5-1-0.8c-3.4-2.4-8.1-3.9-13.5-3.9
	c-5.4,0-10.1,1.5-13.5,3.9c-2.8,2-4.5,4.6-4.5,7.3c0,2.7,1.7,5.3,4.5,7.3c3.4,2.4,8.1,3.9,13.5,3.9c1.8,0,3.6-0.2,5.2-0.5
	C220.8,192.6,221.5,182.5,227.5,177.4z M223.9,232.1c-0.7,1-1.4,2-2.1,2.9c-0.3,0.4-0.6,0.7-0.9,1.1c1.2,0.3,2.5,0.7,3.7,1.2
	L223.9,232.1z M329.9,178.5c-2.2,3.4-3.5,8.1-3.4,13.4c0,0.2,0,0.4,0,0.5c0.2,5.2,1.9,9.8,4.4,13.1c2.1,2.7,4.7,4.4,7.4,4.3h0
	c2.7-0.1,5.2-1.9,7.1-4.8c2.3-3.5,3.6-8.3,3.4-13.6l0,0c-0.2-5.3-1.8-10.1-4.4-13.4c-2.1-2.7-4.7-4.4-7.4-4.3
	C334.3,173.8,331.8,175.7,329.9,178.5z M393.7,172.7c-3.4-2.4-8.1-3.9-13.5-3.9c-5.4,0-10.1,1.5-13.5,3.9c-2.8,2-4.5,4.6-4.5,7.3
	c0,2.7,1.7,5.3,4.5,7.3c3.4,2.4,8.1,3.9,13.5,3.9c5.4,0,10.1-1.5,13.5-3.9c2.8-2,4.5-4.6,4.5-7.3
	C398.2,177.3,396.5,174.7,393.7,172.7z M389.1,201.7c-2.8,0.7-5.8,1-8.9,1c-3.5,0-6.9-0.5-10-1.3h-10.8c-0.9,3.7-2.4,7.2-4.3,10
	c-3.9,5.9-9.5,9.6-16,10c-0.2,0-0.5,0-0.7,0c-6.5,0.1-12.4-3.3-16.7-8.8c-2.2-2.9-4-6.4-5.2-10.4c-0.7,2.2-1.8,4.2-3.3,6.1
	c-4.3,5.1-10.8,7.4-17.9,6.9c-6.4-0.5-13.2-3.2-19.2-8.1c-0.2-0.1-0.3-0.2-0.5-0.4c-2-1.6-3.7-3.4-5.2-5.3h-2.8
	c-1.5,1.9-3.3,3.7-5.2,5.3c-0.1,0.1-0.3,0.3-0.5,0.4c-6,4.9-12.9,7.6-19.2,8.1c-3.2,0.2-6.4-0.1-9.2-1l4.1,36.5v0
	c1.7,3.4,2.9,7.2,3.5,11.4l0,0c0.7,5,0.5,9.8-0.6,14.2l6.3,55.6h127.6L389.1,201.7z M401.2,197.9l-1.9,16.9c1,4.3,2.9,8,5.4,10.6
	c2.4,2.5,5.2,3.8,7.9,3.4c2.7-0.4,5-2.5,6.5-5.5c1.9-3.7,2.7-8.6,1.9-14c-0.8-5.3-2.9-9.8-5.8-12.8c-2.4-2.5-5.2-3.8-7.9-3.4
	C404.9,193.5,402.7,195.2,401.2,197.9z M260,135.4c-4.1,0.3-8.6,2.1-12.7,5.4c-0.1,0.1-0.3,0.2-0.4,0.3c-4,3.4-6.7,7.5-7.7,11.4
	c-0.9,3.3-0.6,6.4,1.1,8.5l0,0c1.7,2.1,4.7,2.9,8.1,2.7c4.1-0.3,8.7-2.2,12.9-5.6l0,0c4.1-3.4,6.8-7.6,7.9-11.6
	c0.9-3.3,0.6-6.4-1.1-8.5C266.4,136,263.4,135.1,260,135.4z M263.8,123.9c5.3,0.6,10,2.8,13.3,6.8c2.3,2.7,3.6,6,4.1,9.4
	c2.7,0.7,5.2,0.9,7.6,0.6c3.4-0.4,6.2-1.8,7.5-4.2c1.3-2.4,1-5.5-0.5-8.6c-1.8-3.7-5.1-7.2-9.7-9.7c-0.2-0.1-0.4-0.2-0.5-0.3
	c-4.6-2.5-9.4-3.4-13.5-2.9c-3.4,0.4-6.2,1.8-7.5,4.2C263.8,120.5,263.6,122.1,263.8,123.9z M344,135c0.2-1.5,0.1-3.1-0.4-4.8
	c-1.1-4-3.8-8.2-7.9-11.6h0c-4.1-3.4-8.7-5.3-12.9-5.6c-3.4-0.2-6.3,0.6-8,2.5c-0.1,0.1-0.2,0.2-0.3,0.3c-1.6,2.1-1.9,5.1-1,8.3
	c1.8,6.8,7.8,12.8,14.3,15.5c2.7-1.7,5.5-2.9,8.2-3.7C339.1,135.1,339.6,135.2,344,135z M362.1,154.2L362.1,154.2
	c1.8,1.3,4.3,1.9,7.1,1.7c4.1-0.3,8.7-2.2,12.9-5.6l0,0c4.1-3.4,6.8-7.6,7.9-11.6c0.9-3.3,0.6-6.4-1.1-8.5c-1.7-2.1-4.7-2.9-8.1-2.7
	c-4.1,0.3-8.6,2.1-12.7,5.4c-0.1,0.1-0.3,0.2-0.4,0.3c-4,3.4-6.7,7.5-7.7,11.4c0,0.1-0.1,0.3-0.1,0.4
	C360.6,147.7,362,151.8,362.1,154.2z M347.8,165.4 M322.9,168.7c3.8-4.9,7.7-6.4,13.7-6.6c2.1-0.1,5.4,0.1,10.8,2.9
	c1.7-3.1,2.9-6,3.1-8.9c0.2-3.5-0.7-6.4-2.8-8.1c-2.1-1.7-5.2-2-8.5-1c-4,1.1-8.1,3.9-11.5,8.1c-3.4,4.2-5.2,8.8-5.5,13
	c0,0.5,0,0.9,0,1.4C322,169.8,323.1,168.5,322.9,168.7z M262.2,178.7c-0.7-0.7-1.3-1.3-1.9-2.1c-1.7-1.2-4.1-1.7-6.8-1.5
	c-4.1,0.3-8.6,2.1-12.7,5.4c-0.1,0.1-0.3,0.2-0.4,0.3c-4,3.4-6.7,7.5-7.7,11.4c-0.9,3.3-0.6,6.4,1.1,8.5c1.7,2.1,4.7,2.9,8.1,2.7
	c4.1-0.3,8.7-2.2,12.9-5.6l0,0c4.1-3.4,6.8-7.6,7.9-11.6C263.5,183.4,263.4,180.7,262.2,178.7z M313.3,156.8
	c1.3-3.1,3.1-6.1,5.4-8.9l0,0c-1.5-0.9-2.9-1.9-4.3-3.1c-0.2-0.1-0.3-0.2-0.5-0.4c-2.3-1.9-4.3-4-5.9-6.2c-0.4,1.3-0.9,2.6-1.6,3.9
	c-0.8,1.5-1.9,2.9-3.1,4.1c0.8,0.4,1.5,0.9,2.2,1.4C309,150.1,311.7,153.2,313.3,156.8z M310,177c2.3,2.7,4.1,5.7,5.3,8.7
	c0.1-0.8,0.3-1.6,0.4-2.4c-2.1-2.3-3.5-5.1-4.3-8.1C311,175.8,310.5,176.4,310,177z M275.2,185.7c0,0.2,0.1,0.4,0.2,0.6
	c2.3,8.7,11.8,16.6,20.8,17.2c3.4,0.3,6.4-0.6,8.1-2.7c1.7-2.1,2-5.2,1.1-8.5c-0.8-2.9-2.4-5.8-4.8-8.6c-4.5,2.1-9.7,3.2-15.3,3.2
	C281.7,187.1,278.3,186.6,275.2,185.7z M268.6,168.4c5.1,4.5,8.5,7,16.7,7c5.4,0,10.1-1.5,13.5-3.9c2.8-2,4.5-4.6,4.5-7.3
	c0-2.7-1.7-5.3-4.5-7.3c-3.4-2.4-8.1-3.9-13.5-3.9c-2.3,0-4.4,0.3-6.4,0.7c-3,5-8,11.3-9.9,13c-0.1,0.1-0.3,0.3-0.5,0.4l-0.4,0.3
	C268.2,167.9,268.4,168.1,268.6,168.4z M225.7,331.8h9.5l-4.5-40.2c-2.3,1.6-4.9,2.6-7.7,3c-6.6,1-12.9-1.8-17.9-6.9
	c-4.4-4.7-7.8-11.4-8.9-19.1c-1.1-7.6,0.1-14.9,3-20.6c-5,0.3-9.8-1-13.7-4.1c-5.2-4.2-7.5-10.7-7.1-17.8c0.4-6.4,3.1-13.4,8-19.5
	c2.8-3.5,6.1-6.3,9.5-8.5c-0.1-0.1-0.3-0.2-0.4-0.3c-5.8-4.1-9.4-10-9.4-16.7c0-6.7,3.6-12.6,9.4-16.7c5.3-3.7,12.4-6.1,20.2-6.1
	c4.2,0,8.1,0.7,11.7,1.8c-0.6-3.3-0.4-6.9,0.5-10.5c1.6-6.1,5.6-12.4,11.5-17.4c0.1-0.1,0.3-0.3,0.4-0.4c3.9-3.1,8.1-5.4,12.3-6.7
	c-0.5-4,0.1-8,2.1-11.6c3.2-5.9,9.2-9.3,16.3-10.1c6.4-0.7,13.8,0.7,20.6,4.4l0,0c4.2,2.3,7.8,5.3,10.6,8.6c0.6-3,1.9-5.8,3.9-8.2
	l0,0c4.3-5.1,10.8-7.4,17.9-6.9c6.4,0.5,13.4,3.3,19.4,8.2l0,0c6,5,10.1,11.3,11.7,17.5c0.2,0.7,0.4,1.4,0.5,2.2
	c1.4-1.8,3.1-3.4,4.9-5c0.1-0.1,0.3-0.3,0.4-0.4c6-4.9,12.9-7.6,19.2-8.1c7.1-0.5,13.6,1.7,17.9,6.9c4.3,5.1,5.2,12,3.4,18.9
	c-1.6,5.9-5.3,12-10.9,16.9c3.8,1,7.3,2.7,10.1,4.7c5.8,4.1,9.4,10,9.4,16.7c0,0.5,0,1-0.1,1.6c5.1,0.4,9.9,3,13.8,7.1
	c4.4,4.7,7.8,11.4,8.9,19.1c1.1,7.7-0.1,15.1-3.1,20.9c-3.3,6.4-8.6,10.8-15.2,11.8c-6.2,0.9-12.3-1.5-17.1-6.1l-11,97.6h9.5
	c3.2,0,5.8,2.6,5.8,5.8c0,1.6-0.7,3.1-1.7,4.2l-27.4,32.6c-1.1,1.4-2.8,2.1-4.4,2.1v0H253.4c-2,0-3.7-1-4.8-2.5l-27.4-32.6
	c-2.1-2.4-1.7-6.1,0.7-8.1C223,332.3,224.3,331.8,225.7,331.8L225.7,331.8z M267.8,167.8L267.8,167.8L267.8,167.8L267.8,167.8z"/>
</svg>
