<?xml version="1.0" encoding="utf-8"?>
<!-- Generator: Adobe Illustrator 19.0.0, SVG Export Plug-In . SVG Version: 6.00 Build 0)  -->
<svg version="1.1" id="icons" xmlns="http://www.w3.org/2000/svg" xmlns:xlink="http://www.w3.org/1999/xlink" x="0px" y="0px"
	 viewBox="0 0 390.8 296" style="enable-background:new 0 0 390.8 296;" xml:space="preserve">
<style type="text/css">
	.st0{fill-rule:evenodd;clip-rule:evenodd;fill:#E6AC6C;}
	.st1{fill-rule:evenodd;clip-rule:evenodd;fill:#CFE6E8;}
	.st2{fill-rule:evenodd;clip-rule:evenodd;fill:#94D0CF;}
	.st3{fill-rule:evenodd;clip-rule:evenodd;fill:#9ACC9A;}
	.st4{fill-rule:evenodd;clip-rule:evenodd;fill:#58373F;}
</style>
<rect x="5.8" y="5.8" class="st0" width="379.2" height="284.4"/>
<rect x="32.7" y="32.7" class="st1" width="325.4" height="230.5"/>
<rect x="32.7" y="128.9" class="st2" width="325.4" height="134.3"/>
<path class="st0" d="M250.8,66.4c26.7,0,48.4,21.7,48.4,48.4c0,4.9-0.7,9.7-2.1,14.2h-92.5c-1.4-4.5-2.1-9.3-2.1-14.2
	C202.5,88,224.1,66.4,250.8,66.4L250.8,66.4z"/>
<path class="st3" d="M205.7,187c-5.9-7-14.5-2.4-18.8-3.2c2.4-13.1-10.9-19.5-21.7-16.9c0.7-2.6,0.8-5.6-0.4-8.9
	c-4.9-13.8-14.6-12.5-14.6-12.5s8-6.3,7-23c-1-16.8-22-15.8-22-15.8s-0.2-25.4-11.6-25.9c-11.3-0.5-12.1,18.5-12.1,18.5
	s-7.9-3.9-16.8,3.5c-8.9,7.4-4.1,28.4-4.1,28.4s-10.8-6.7-19.2,8.6c-8.4,15.3,10.9,26.3,10.9,26.3c-5.8,2.3-10.2,6.4-12.8,11.1
	c-12.7-0.3-25.1-0.5-36.9-0.4v86.4h325.4v-49.5C321.6,203.3,265.6,193.7,205.7,187z"/>
<path class="st4" d="M281,84.6c-7.7-7.7-18.4-12.5-30.1-12.5c-11.8,0-22.4,4.8-30.1,12.5c-7.7,7.7-12.5,18.4-12.5,30.1
	c0,2.2,0.2,4.3,0.5,6.4c0.1,0.7,0.2,1.4,0.4,2h83.5c0.1-0.7,0.3-1.4,0.4-2c0.3-2,0.5-4.2,0.5-6.4C293.4,103,288.7,92.3,281,84.6
	L281,84.6z M134.4,219.5c-0.3-3-0.2-5.9,0-8.1c-6.3-3.7-16.8-12.3-11.3-25.5c5.1-12.2,18.1-13.1,25.5-12.5
	c2.4-5.2,6.5-8.8,11.3-10.8l0,0c-0.1-0.8-0.2-1.7-0.5-2.6c-3.4-9.4-8.4-8.7-8.4-8.7l0,0c-1.9,0.2-3.9-0.5-5.2-2.1
	c-2-2.5-1.6-6.1,0.9-8.1c0,0,5.7-4.4,4.9-18.2c-0.6-11-16-10.3-16-10.3v0l-0.1,0c-3.2,0-5.8-2.5-5.9-5.7c0-0.1-0.2-20-6-20.2
	c-5-0.2-5.9,10.6-6.1,12.6c0,0.9-0.2,1.8-0.6,2.6c-1.4,2.9-4.9,4.1-7.8,2.7c0,0-4.6-2.3-10.5,2.7c-5.6,4.7-2.7,19.8-2.2,22.3
	c0.4,1.5,0.3,3.1-0.6,4.5c-1.6,2.8-5.2,3.7-7.9,2c0,0-5.7-3.6-11.2,6.4c-5.6,10.3,8.7,18.5,8.8,18.5l0,0c1.1,0.6,2,1.6,2.5,2.9
	c1.2,3-0.3,6.3-3.2,7.5c-4.1,1.6-7.3,4.3-9.3,7.5c-1.3,2.1-2.2,4.4-2.5,6.7c-0.3,2.3,0,4.6,0.8,6.7c1.1,2.7,3.2,5.4,6.5,7.5
	c1.8,1.1,2.9,3,2.8,5.3c-0.2,4.3,0.4,7.7,1.8,10.2c0.9,1.7,2.1,3,3.6,3.9c1.6,0.9,3.4,1.5,5.6,1.6c3.8,0.2,8.2-0.9,12.8-3.3
	c1.8-1,4-1.1,5.9,0C122.3,223.5,129.5,222.3,134.4,219.5z M214.6,193.8c0.2,1.8,0.1,3.6-0.1,5.1c4.4,1.6,9.1,5.2,9.5,13.7
	c0.6,12.3-14.7,15.2-22.3,15.8c-2.4,5.3-8.2,13.5-20.6,12c-7.4-0.9-11.7-3.4-14.3-6c-4.4,1.8-11,3.2-19.4,1.1
	c-3.8-1-6.6-2.7-8.6-4.9c-7,3.8-16.8,5.2-29.6-1.4c-5.6,2.5-11.1,3.6-16.1,3.3c-4-0.2-7.7-1.3-10.9-3.2c-3.3-2-6-4.8-7.9-8.5
	c-1.9-3.6-3-7.9-3.1-13c-4-3.2-6.8-7.1-8.4-11.1c-1.6-4-2.1-8.3-1.6-12.4c0.1-0.5,0.1-1,0.2-1.5c-7.8-0.2-15.5-0.2-22.9-0.2v74.9
	h313.8v-39.3C318.1,208.8,268.3,200.2,214.6,193.8z M192.8,177.5c4.9-0.7,10.6-0.9,15.7,4c55.5,6.3,107.5,15,143.8,24.7v-71.4h-55.2
	h-92.5h-42.5c-0.7,2.9-1.6,5.4-2.5,7.4c3.8,2.2,8,6.3,10.7,14c0.6,1.5,0.9,3,1.1,4.5c1.1,0.1,2.2,0.2,3.2,0.3c3.1,0.5,6,1.6,8.7,3.1
	C188.2,167,191.8,171.5,192.8,177.5z M192.6,189.2c-2.3,0.4-4.4,0.7-6.6,0.3c-3.1-0.6-5.2-3.6-4.7-6.7c0.8-4.1-1.1-7.1-3.9-8.8
	c-1.3-0.8-3-1.4-4.7-1.6c-1.7-0.3-3.5-0.3-5.3,0c-4.2,0.8-8.1,3.5-9,8.4c0,0.1,0,0.2-0.1,0.3c-0.7,3.1-3.8,5.1-7,4.3
	c0,0-14-3.4-17.5,4.9c-2.9,6.8,7.2,11.6,8.9,12.4c2.8,1,4.4,3.9,3.7,6.9c0,0-3.3,12.9,3.8,14.7c9.9,2.5,14.8-1.9,14.8-1.9l0,0
	c1-0.9,2.3-1.4,3.7-1.5c3.2-0.1,5.9,2.4,5.9,5.6c0,0-0.1,1.5,7.8,2.4c7.6,1,9.5-7.3,9.5-7.3l0,0c0.6-2.6,2.9-4.5,5.7-4.5
	c0,0,15,0.2,14.8-3.8c-0.2-4.2-4.9-3.9-4.9-3.9l0,0c-1,0.1-2-0.1-2.9-0.6c-2.9-1.4-4-4.9-2.6-7.8c0,0,2.9-5.6-0.7-10.2
	C199.3,188.2,195.6,188.8,192.6,189.2z M352.3,38.5H38.5v84.6h45.3c-0.5-7.9,0.3-19,7.3-24.7c5.8-4.8,11.4-5.9,15.6-5.8
	c1.6-7.3,5.9-18,17.2-17.5c12.4,0.5,15.8,17.3,16.7,26.2c7.9,1,21.4,5,22.4,20.9c0,0.3,0,0.6,0,0.9h34.2l-0.1-0.4
	c-0.4-2.6-0.6-5.3-0.6-8c0-15,6.1-28.5,15.9-38.3c9.8-9.8,23.4-15.9,38.3-15.9c15,0,28.5,6.1,38.3,15.9c9.8,9.8,15.9,23.4,15.9,38.3
	c0,2.7-0.2,5.4-0.6,8l-0.1,0.4h47.9V38.5z M379.2,276.2V19.8l-15.3,15.3v93.8v84.8v47.1L379.2,276.2z M371,11.6H19.8l15.3,15.3
	h320.6L371,11.6z M5.8,0H385c3.2,0,5.8,2.6,5.8,5.8v284.4c0,3.2-2.6,5.8-5.8,5.8H5.8c-3.2,0-5.8-2.6-5.8-5.8V5.8C0,2.6,2.6,0,5.8,0z
	 M11.6,276.2l15.3-15.3v-84v-47.9V35.1L11.6,19.8V276.2z M35.1,269.1l-15.3,15.3H371l-15.3-15.3H35.1z M38.5,171
	c9,0,18.4,0.1,27.9,0.3c1.6-2.2,3.5-4.2,5.7-5.9c-6.1-5.9-12.6-15.9-5.7-28.4c0.4-0.8,0.9-1.6,1.3-2.3H38.5V171z"/>
</svg>
