<?xml version="1.0" encoding="utf-8"?>
<!-- Generator: Adobe Illustrator 19.0.0, SVG Export Plug-In . SVG Version: 6.00 Build 0)  -->
<svg version="1.1" id="icons" xmlns="http://www.w3.org/2000/svg" xmlns:xlink="http://www.w3.org/1999/xlink" x="0px" y="0px"
	 viewBox="0 0 313 376.4" style="enable-background:new 0 0 313 376.4;" xml:space="preserve">
<style type="text/css">
	.st0{fill-rule:evenodd;clip-rule:evenodd;fill:#FFFFFF;}
	.st1{fill-rule:evenodd;clip-rule:evenodd;fill:#94D0CF;}
	.st2{fill:#58373F;}
</style>
<polygon class="st0" points="180.6,5.8 180.6,73.8 179.5,73.8 179.5,106.9 282.3,106.9 282.3,73.8 283.4,73.8 283.4,5.8 "/>
<g>
	<path class="st0" d="M294.8,219.9c0-4.3-0.4-8.4-1.2-12.5H84H5.8v30l44.7,0.2l-5.4,133.1h196l-10.7-75.6c0,0,0,0-0.1,0
		C268.2,282.6,294.8,253.7,294.8,219.9z M225.4,296.6c0.4-0.1,0.7-0.2,1.1-0.3C226.1,296.3,225.8,296.4,225.4,296.6z M194.2,301.5
		c0.5,0,1-0.1,1.5-0.1C195.3,301.4,194.8,301.4,194.2,301.5z M199.7,301.1c0.5,0,1.1-0.1,1.6-0.2C200.7,301,200.2,301.1,199.7,301.1
		z M205,300.6c0.5-0.1,1-0.1,1.5-0.2C206,300.5,205.5,300.6,205,300.6z M210.2,299.9c0.5-0.1,0.9-0.2,1.4-0.2
		C211.2,299.7,210.7,299.8,210.2,299.9z M215.4,299c0.5-0.1,0.9-0.2,1.3-0.3C216.3,298.8,215.8,298.9,215.4,299z M220.4,297.9
		c0.4-0.1,0.8-0.2,1.2-0.3C221.2,297.6,220.9,297.8,220.4,297.9z"/>
	<rect x="5.8" y="25.1" class="st0" width="78.5" height="182.3"/>
</g>
<path class="st1" d="M85.4,181.9h206.2c7.8,0,14.2,5.7,14.2,12.8c0,7-6.4,12.8-14.2,12.8H85.4c-0.4,0-0.7,0-1.1,0v-25.4
	C84.7,181.9,85,181.9,85.4,181.9L85.4,181.9z"/>
<path class="st2" d="M291.7,187.6L291.7,187.6l-201.5,0v13.9h201.5c2.5,0,4.6-0.9,6.2-2.3c1.4-1.2,2.2-2.9,2.2-4.7
	C300.1,190.8,296.3,187.6,291.7,187.6L291.7,187.6z M224.3,290.8c1.4-0.4,2.7-0.8,4-1.2c0.1,0,0.2-0.1,0.4-0.1l0,0
	c11.8-3.9,22.5-9.5,31.4-16.4c17.8-13.7,28.8-32.5,28.8-53.2c0-2-0.1-4-0.3-5.7c0-0.3-0.1-0.7-0.1-1H88.9l0,0l0,0l0,0
	c0,0.2-0.1,0.5-0.1,0.7v0l0,0.1l0,0l0,0l0,0l0,0l0,0l0,0l0,0l0,0v0l0,0l0,0c-0.2,1.8-0.3,3.7-0.3,5.7c0,20.7,11,39.5,28.8,53.2
	c18.2,14,43.4,22.7,71.4,22.7c0.4,0,0.9,0,1.3,0h0l0.3,0c11.6-0.1,22.7-1.8,32.9-4.6l0,0l0.2,0l0.1,0l0.3-0.1L224.3,290.8
	L224.3,290.8z M78.5,201.6v-19.7c0-0.2,0-0.3,0-0.5V30.9H11.6v170.7H78.5z M225.5,302.5c-10.5,2.8-21.6,4.5-33.2,4.8l0,0l-1.1,0
	l-0.7,0l-0.3,0h0l-0.3,0c-0.3,0-0.7,0-1.1,0c-30.6,0-58.3-9.6-78.5-25.1C89.7,266.4,77,244.3,77,219.9l0-0.1v0v-0.1v0l0-0.1v0v-0.1
	v0l0-0.1v0l0-0.1v0l0-0.1v0v-0.1v0l0-0.1v0l0-0.1v0l0-0.1v0l0-0.1l0-0.1l0-0.1l0-0.1l0-0.1l0-0.7l0,0l0-0.1l0-0.2l0-0.1l0-0.2l0-0.1
	l0-0.2l0-0.1l0-0.1l0,0l0,0l0-0.2l0,0l0-0.1l0-0.1l0-0.1l0,0l0-0.1l0,0l0,0l0-0.1l0,0l0,0l0-0.1l0,0l0-0.1l0,0l0-0.2l0-0.1l0,0l0,0
	l0-0.1l0,0l0,0l0-0.1l0-0.4v0l0-0.2l0,0v0l0-0.1v0l0-0.2l0-0.1l0-0.2l0,0v0l0-0.2l0,0l0-0.1l0,0l0-0.1l0,0l0-0.1H11.6v18.4l38.9,0.2
	c3.2,0,5.8,2.6,5.8,5.8l0,0.2h0l-5.2,127.1h183.3L225.5,302.5z M276.5,101.1V79.6h-91.2v21.5H276.5z M185.3,68h91.2V11.6h-91.2V68z
	 M288.1,73.8v33.1c0,3.2-2.6,5.8-5.8,5.8H179.5c-3.2,0-5.8-2.6-5.8-5.8V73.8l0,0v0v0v0v0l0,0v0v0v0v0v0v0l0,0l0,0v0l0-0.1v0v0v0
	l0-0.1v0v0l0-0.1v0V45.6h-19.1c-3.2,0-5.8-2.6-5.8-5.8c0-3.2,2.6-5.8,5.8-5.8h19.1V5.8c0-3.2,2.6-5.8,5.8-5.8v0h102.8
	c3.2,0,5.8,2.6,5.8,5.8c0,0.2,0,0.3,0,0.5V34h19.1c3.2,0,5.8,2.6,5.8,5.8c0,3.2-2.6,5.8-5.8,5.8h-19.1v27.7
	C288.1,73.5,288.1,73.6,288.1,73.8z M90.1,176h201.6v0c11,0,20,8.3,20,18.5c0,5.2-2.3,9.9-6.1,13.3c-1.6,1.4-3.5,2.6-5.5,3.5
	c0.1,0.5,0.1,1.1,0.2,1.6c0.2,2.4,0.4,4.7,0.4,6.9c0,24.4-12.7,46.5-33.3,62.3c-8.9,6.8-19.2,12.5-30.6,16.7l10.1,70.9l0,0
	c0,0.3,0.1,0.5,0.1,0.8c0,3.2-2.6,5.8-5.8,5.8H45.3c-0.1,0-0.3,0-0.4,0c-3.2-0.1-5.7-2.8-5.6-6l5.2-127.1l-38.2-0.2
	c-0.2,0-0.3,0-0.5,0c-3.2,0-5.8-2.6-5.8-5.8v-30c0-0.2,0-0.5,0-0.7V25.1c0-3.2,2.6-5.8,5.8-5.8v0h78.5c3.2,0,5.8,2.6,5.8,5.8
	c0,0.2,0,0.3,0,0.5V176z"/>
</svg>
