<?xml version="1.0" encoding="utf-8"?>
<!-- Generator: Adobe Illustrator 19.0.0, SVG Export Plug-In . SVG Version: 6.00 Build 0)  -->
<svg version="1.1" id="icons" xmlns="http://www.w3.org/2000/svg" xmlns:xlink="http://www.w3.org/1999/xlink" x="0px" y="0px"
	 viewBox="0 0 426.2 354.2" style="enable-background:new 0 0 426.2 354.2;" xml:space="preserve">
<style type="text/css">
	.st0{fill-rule:evenodd;clip-rule:evenodd;fill:#D2E5E9;}
	.st1{fill-rule:evenodd;clip-rule:evenodd;fill:#94D0CF;}
	.st2{fill:#58373F;}
</style>
<path class="st0" d="M69.9,283.9v21.9H43.4v-21.9H69.9z M226.3,283.9v21.9h-26.5v-21.9H226.3z M382.7,283.9v21.9h-26.5v-21.9H382.7z
	"/>
<polygon class="st1" points="184.4,5.8 241.7,5.8 223.3,47.9 202.9,47.9 "/>
<path class="st1" d="M87.5,171.4l20,112.5H5.8l20-112.5C46.4,171.4,67,171.4,87.5,171.4L87.5,171.4z M400.4,171.4l20,112.5H318.6
	l20-112.5C359.2,171.4,379.8,171.4,400.4,171.4z M244,171.4l20,112.5H162.2l20-112.5C202.8,171.4,223.4,171.4,244,171.4z"/>
<path class="st2" d="M232.8,11.6h-39.5l13.3,30.5h12.9L232.8,11.6z M100.6,278.2L82.7,177.2h-52L12.7,278.2H100.6z M413.4,278.2
	l-17.9-100.9h-52l-17.9,100.9H413.4z M257,278.2l-17.9-100.9h-52l-17.9,100.9H257z M64.1,300v-10.3H49.2V300H64.1z M376.9,300v-10.3
	h-14.9V300H376.9z M205.6,300h14.9v-10.3h-14.9V300z M184.4,0h57.3c3.2,0,5.8,2.6,5.8,5.8c0,1-0.2,1.9-0.7,2.7l-18.2,41.7
	c-0.9,2.2-3.1,3.5-5.3,3.5v0h-4.4l0,110.5c0,0.5-0.1,1-0.2,1.4H244c2.9,0,5.3,2.2,5.7,5l20,112.4c0.6,3.2-1.6,6.2-4.7,6.7
	c-0.5,0.1-1,0.1-1.5,0.1h-31.3V300h2.9c3.2,0,5.8,2.6,5.8,5.8c0,3.2-2.6,5.8-5.8,5.8h-8.5l-0.1,0H219c2,13.4,19.7,22.8,42,27.6
	c10.4,2.2,21.8,3.4,33,3.4c11.2,0,22.3-1.2,32.4-3.5c19.6-4.6,34.8-13.6,37.1-27.4h-7.3l-0.2,0h-8.5c-3.2,0-5.8-2.6-5.8-5.8
	c0-3.2,2.6-5.8,5.8-5.8h2.9v-10.3h-31.8c-3.2,0-5.8-2.6-5.8-5.8c0-0.3,0-0.7,0.1-1l0,0l20-112.5c0.5-2.8,2.9-4.8,5.7-4.8v0h61.8
	c2.9,0,5.3,2.2,5.7,5l20,112.4c0.6,3.2-1.6,6.2-4.7,6.7c-0.5,0.1-1,0.1-1.5,0.1h-31.3V300h2.9c3.2,0,5.8,2.6,5.8,5.8
	c0,3.2-2.6,5.8-5.8,5.8h-8.5l-0.1,0h-7.5c-2.1,20.3-21.3,32.9-46.2,38.7c-10.9,2.5-22.9,3.8-35,3.8c-12.1,0-24.3-1.2-35.4-3.6
	c-20-4.3-37-12.4-45.5-24.1c-8.5,11.7-25.5,19.8-45.5,24.1c-11.1,2.4-23.3,3.6-35.4,3.6c-12.1,0-24.2-1.2-35-3.8
	C72.2,344.6,53,332,50.9,311.7h-7.5l-0.1,0h-8.5c-3.2,0-5.8-2.6-5.8-5.8c0-3.2,2.6-5.8,5.8-5.8h2.9v-10.3H5.8
	c-3.2,0-5.8-2.6-5.8-5.8c0-0.3,0-0.7,0.1-1l0,0l20-112.5c0.5-2.8,2.9-4.8,5.7-4.8v0h61.8c2.9,0,5.3,2.2,5.7,5l20,112.4
	c0.6,3.2-1.6,6.2-4.7,6.7c-0.5,0.1-1,0.1-1.5,0.1H75.7V300h2.9c3.2,0,5.8,2.6,5.8,5.8c0,3.2-2.6,5.8-5.8,5.8h-8.5l-0.2,0h-7.3
	c2.4,13.8,17.6,22.9,37.1,27.4c10.1,2.4,21.2,3.5,32.4,3.5c11.2,0,22.6-1.1,33-3.4c22.2-4.7,40-14.2,42-27.6h-7.3l-0.2,0h-8.5
	c-3.2,0-5.8-2.6-5.8-5.8c0-3.2,2.6-5.8,5.8-5.8h2.9v-10.3h-31.8c-3.2,0-5.8-2.6-5.8-5.8c0-0.3,0-0.7,0.1-1l0,0l20-112.5
	c0.5-2.8,2.9-4.8,5.7-4.8v0h25.3c-0.1-0.5-0.2-0.9-0.2-1.4l0-110.5h-4.4c-2.5,0-4.7-1.6-5.5-3.9L179.1,8.1c-1.3-2.9,0.1-6.3,3-7.6
	C182.9,0.2,183.7,0,184.4,0L184.4,0z"/>
</svg>
