<?xml version="1.0" encoding="utf-8"?>
<!-- Generator: Adobe Illustrator 19.0.0, SVG Export Plug-In . SVG Version: 6.00 Build 0)  -->
<svg version="1.1" id="icons" xmlns="http://www.w3.org/2000/svg" xmlns:xlink="http://www.w3.org/1999/xlink" x="0px" y="0px"
	 viewBox="0 0 397.7 315.2" style="enable-background:new 0 0 397.7 315.2;" xml:space="preserve">
<style type="text/css">
	.st0{fill-rule:evenodd;clip-rule:evenodd;fill:#FFFFFF;}
	.st1{fill:#58373F;}
</style>
<path class="st0" d="M145.8,5.8c77.3,0,140,62.7,140,140c0,77.3-62.7,140-140,140c-77.3,0-140-62.7-140-140
	C5.8,68.5,68.5,5.8,145.8,5.8L145.8,5.8z"/>
<path class="st0" d="M145.8,55.4c49.9,0,90.4,40.5,90.4,90.4c0,49.9-40.5,90.4-90.4,90.4c-49.9,0-90.4-40.5-90.4-90.4
	C55.4,95.9,95.9,55.4,145.8,55.4L145.8,55.4z"/>
<polygon class="st0" points="153.5,265.1 223.1,265.1 153.5,220.7 223.1,220.7 153.5,176.4 391.9,176.4 322.3,220.7 391.9,220.7 
	322.3,265.1 391.9,265.1 322.3,309.4 223.1,309.4 "/>
<path class="st1" d="M372,270.9h-49.7h-99.1h-49.7l51.4,32.7h95.8L372,270.9z M372,182.2H173.4l51.4,32.7h95.8L372,182.2z
	 M224.8,259.3h95.8l51.4-32.7h-49.7h-99.1h-0.1h-49.7L224.8,259.3z M289.5,170.6h102.3c3.2,0,5.8,2.6,5.8,5.8c0,2.3-1.3,4.2-3.2,5.2
	l-52.4,33.4h49.7c3.2,0,5.8,2.6,5.8,5.8c0,2.3-1.3,4.2-3.2,5.2l-52.4,33.4h49.7c3.2,0,5.8,2.6,5.8,5.8c0,2.3-1.3,4.2-3.2,5.2
	l-69.2,44c-1,0.6-2,0.9-3.1,0.9v0h-99.1c-1.3,0-2.6-0.5-3.6-1.2l-40.9-26.1c-10.6,2.4-21.5,3.7-32.8,3.7C65.3,291.6,0,226.3,0,145.8
	C0,65.3,65.3,0,145.8,0c40.3,0,76.7,16.3,103.1,42.7c26.4,26.4,42.7,62.8,42.7,103.1C291.6,154.3,290.9,162.5,289.5,170.6z
	 M156.9,229.7l-6.5-4.1c-2.7-1.7-3.5-5.3-1.8-8c1.1-1.7,3-2.7,4.9-2.7v0h49.7l-52.9-33.7c-2.7-1.7-3.5-5.3-1.8-8
	c1.1-1.7,3-2.7,4.9-2.7v0h73.3c2.4-7.8,3.7-16.1,3.7-24.8h0c0-23.4-9.5-44.5-24.8-59.8c-15.3-15.3-36.5-24.8-59.8-24.8v0
	c-23.4,0-44.5,9.5-59.8,24.8c-15.3,15.3-24.8,36.5-24.8,59.8h0c0,23.3,9.5,44.5,24.8,59.8c15.3,15.3,36.5,24.8,59.8,24.8
	C149.6,230.5,153.3,230.2,156.9,229.7z M153.5,259.3h49.7L171,238.7c-8,2.2-16.4,3.3-25.1,3.3c-26.6,0-50.6-10.8-68-28.2
	c-17.4-17.4-28.2-41.5-28.2-68h0c0-26.6,10.8-50.6,28.2-68c17.4-17.4,41.5-28.2,68-28.2v0c26.6,0,50.6,10.8,68,28.2
	c17.4,17.4,28.2,41.5,28.2,68h0c0,8.6-1.1,16.9-3.2,24.8h38.9c1.5-8,2.3-16.3,2.3-24.8c0-37.1-15-70.6-39.3-94.9
	c-24.3-24.3-57.8-39.3-94.9-39.3c-74.1,0-134.2,60.1-134.2,134.2c0,74.1,60.1,134.2,134.2,134.2c6.3,0,12.4-0.4,18.4-1.3l-13.9-8.8
	c-2.7-1.7-3.5-5.3-1.8-8C149.7,260.2,151.6,259.3,153.5,259.3L153.5,259.3z M394.5,181.6c-0.8,0.4-1.7,0.6-2.6,0.6L394.5,181.6z
	 M394.5,225.9c-0.8,0.4-1.7,0.6-2.6,0.6L394.5,225.9z M394.5,270.2c-0.8,0.4-1.7,0.6-2.6,0.6L394.5,270.2z"/>
</svg>
