<?xml version="1.0" encoding="utf-8"?>
<!-- Generator: Adobe Illustrator 19.0.0, SVG Export Plug-In . SVG Version: 6.00 Build 0)  -->
<svg version="1.1" id="icons" xmlns="http://www.w3.org/2000/svg" xmlns:xlink="http://www.w3.org/1999/xlink" x="0px" y="0px"
	 viewBox="0 0 476.9 335.3" style="enable-background:new 0 0 476.9 335.3;" xml:space="preserve">
<style type="text/css">
	.st0{fill-rule:evenodd;clip-rule:evenodd;fill:#E6AC6C;}
	.st1{fill:#D2E5E9;}
	.st2{fill:#58373F;}
</style>
<path class="st0" d="M268.9,6.6V6.4c-10.1-0.4-20.3-0.6-30.5-0.6c-10.2,0-20.4,0.1-30.5,0.6v0.2C121.6,10.6,41,30.6,5.8,62.8v140.7
	v126h41.3v-21.8h167.2h48.2h167.2v21.8h41.3v-126V62.8C435.9,30.6,355.3,10.6,268.9,6.6z"/>
<g>
	<path class="st1" d="M437.9,161.8H39c-6.9,0-12.6,9.4-12.6,20.8c0,11.5,5.7,20.8,12.6,20.8h398.9c6.9,0,12.6-9.4,12.6-20.8
		C450.5,171.2,444.8,161.8,437.9,161.8z"/>
	<path class="st1" d="M99.3,151.8c30.3,14.4,49.2,4.8,69.9,4.1c20.7-0.7,56.2-25.9,56.2-25.9s-28.8-20.3-56.5-25.9
		c-27.7-5.5-44-1.8-71,5.5c-27,7.4-38.4,18.1-38.4,18.1C61.3,130.7,69,137.4,99.3,151.8z"/>
	<path class="st1" d="M293,152.1c30.3,14.4,49.2,4.8,69.9,4.1c20.7-0.7,56.2-25.9,56.2-25.9s-28.8-20.3-56.5-25.9
		c-27.7-5.5-44-1.8-71,5.5c-27,7.4-38.4,18.1-38.4,18.1C254.9,131.1,262.7,137.7,293,152.1z"/>
</g>
<path class="st2" d="M214.3,209.3H208H11.6v114.4h29.7v-16c0-3.2,2.6-5.8,5.8-5.8h167.2h48.2h167.2c3.2,0,5.8,2.6,5.8,5.8v16h29.7
	V209.3H268.9h-6.4H214.3z M476.9,203.5v126c0,3.2-2.6,5.8-5.8,5.8h-41.3c-3.2,0-5.8-2.6-5.8-5.8v-16H262.6h-48.2H52.9v16
	c0,3.2-2.6,5.8-5.8,5.8H5.8c-3.2,0-5.8-2.6-5.8-5.8v-126V62.8c0-1.8,0.8-3.4,2.2-4.5c5.1-4.6,11.2-9.1,18.1-13.2
	c6.9-4.2,14.5-8.1,22.7-11.6C84.6,15.2,143.8,3.9,206.1,0.9c0.6-0.2,1.2-0.3,1.9-0.3c0.1,0,0.1,0,0.2,0l0.6,0c1.2,0,2.7-0.1,4.3-0.2
	c1.3,0,2.7-0.1,4.3-0.1c7-0.2,14.1-0.3,21.2-0.2l1,0c1.4,0,2.8,0,4.3,0c1.4,0,2.9,0,4.3,0c7.2,0.1,14.2,0.2,21.2,0.5
	c0.5,0,1.1,0.1,1.6,0.3c11.7,0.6,23.3,1.4,34.7,2.6c11.9,1.2,23.5,2.7,34.8,4.5c58.6,9.3,108.5,26.6,134.8,50.5
	c1.3,1.1,1.9,2.7,1.9,4.3h0V203.5z M406.5,131.4c1-0.6,2-1.2,3-1.8c-7.8-4.8-16.1-9-24.8-12.3c-2.3-0.9-4.5-1.7-6.7-2.4
	c-13.9-4.5-28.7-6.9-44-6.9v0h0c-22.1,0-43,5-61.7,14c-3.6,1.7-7.2,3.6-10.7,5.7c-1,0.6-2,1.2-3,1.8c7.8,4.8,16.1,9,24.8,12.3
	c2.3,0.9,4.5,1.7,6.7,2.4c13.9,4.5,28.7,6.9,44,6.9v0h0c22.1,0,43-5,61.7-14C399.4,135.3,403,133.4,406.5,131.4z M215.2,131.4
	c1-0.6,2-1.2,3-1.8c-7.8-4.8-16.1-9-24.8-12.3c-2.3-0.9-4.5-1.7-6.7-2.4c-13.9-4.5-28.7-6.9-44-6.9v0h0c-22.1,0-43,5-61.7,14
	c-3.6,1.7-7.2,3.6-10.7,5.7c-1,0.6-2,1.2-3,1.8c7.8,4.8,16.1,9,24.8,12.3c2.3,0.9,4.5,1.7,6.7,2.4c13.9,4.5,28.7,6.9,44,6.9v0h0
	c22.1,0,43-5,61.7-14C208.1,135.3,211.7,133.4,215.2,131.4z M38.7,197.7H39v0h0h398.9h0v0h0.3c1.2-0.2,2.5-1.4,3.6-3.3
	c1.8-2.9,2.9-7.1,2.9-11.7h0v0v0h0c0-4.6-1.1-8.8-2.9-11.7c-1.2-2.1-2.6-3.3-3.9-3.3v0h0H39h0v0c-1.3,0-2.7,1.3-3.9,3.3
	c-1.8,2.9-2.9,7.1-2.9,11.7h0v0v0h0c0,4.6,1.1,8.8,2.9,11.7C36.2,196.3,37.5,197.5,38.7,197.7z M39,156h58.9
	c-0.9-0.3-1.7-0.5-2.6-0.8c-2.5-0.8-4.9-1.7-7.2-2.5c-12.2-4.7-23.8-10.9-34.4-18.4c-2.6-1.8-3.2-5.4-1.4-8.1c0.4-0.5,0.9-1,1.4-1.4
	l0,0l0,0c0.1-0.1,0.2-0.2,0.3-0.2c3.5-2.5,7-4.8,10.6-6.9c3.7-2.2,7.6-4.3,11.5-6.2c20.3-9.8,42.9-15.2,66.7-15.2h0v0
	c16.6,0,32.6,2.6,47.5,7.5c2.5,0.8,4.9,1.7,7.2,2.5c12.2,4.7,23.8,10.9,34.4,18.4c2.6,1.8,3.2,5.4,1.4,8.1c-0.4,0.5-0.8,1-1.4,1.4
	l0,0l0,0c-0.1,0.1-0.2,0.2-0.3,0.2c-3.5,2.5-7,4.7-10.6,6.9c-3.7,2.2-7.6,4.3-11.5,6.2c-7,3.4-14.3,6.2-21.8,8.5h101.4
	c-0.9-0.3-1.7-0.5-2.6-0.8c-2.5-0.8-4.9-1.7-7.2-2.5c-12.2-4.7-23.8-10.9-34.4-18.4c-2.6-1.8-3.2-5.4-1.4-8.1c0.4-0.5,0.9-1,1.4-1.4
	l0,0l0,0c0.1-0.1,0.2-0.2,0.3-0.2c3.5-2.5,7-4.8,10.6-6.9c3.7-2.2,7.6-4.3,11.5-6.2c20.3-9.8,42.9-15.2,66.7-15.2h0v0
	c16.6,0,32.6,2.6,47.5,7.5c2.5,0.8,4.9,1.7,7.2,2.5c12.2,4.7,23.8,10.9,34.4,18.4c2.6,1.8,3.2,5.4,1.4,8.1c-0.4,0.5-0.9,1-1.4,1.4
	l0,0l0,0c-0.1,0.1-0.2,0.2-0.3,0.2c-3.5,2.5-7,4.7-10.6,6.9c-3.7,2.2-7.6,4.3-11.5,6.2c-7,3.4-14.3,6.2-21.8,8.5h58.9h0v0
	c5.6,0,10.5,3.4,13.8,8.9c2.8,4.6,4.5,10.9,4.5,17.7h0v0v0h0c0,5.6-1.2,10.8-3.1,15h12.1V65.4c-25-21.5-71.8-37.3-126.9-46
	c-11.1-1.8-22.5-3.2-34.1-4.4c-11.5-1.2-23.3-2-35.2-2.6l-0.2,0c-0.6,0-1.2-0.1-1.8-0.3c-6.5-0.3-12.9-0.4-19.2-0.5
	c-1.4,0-2.8,0-4.2,0c-1.4,0-2.8,0-4.2,0l-1,0c-6.9,0-13.9,0.1-20.9,0.2c-1.2,0-2.6,0.1-4.2,0.1c-1.1,0-2.3,0.1-3.7,0.1
	c-0.5,0.1-1,0.2-1.5,0.3C146.7,15.2,88.3,26.2,47.5,44c-7.9,3.4-15,7.1-21.4,10.9c-5.4,3.3-10.3,6.8-14.6,10.5v132.3h12.1
	c-1.9-4.2-3.1-9.4-3.1-15h0v0v0h0c0-6.8,1.7-13.1,4.5-17.7C28.5,159.5,33.4,156,39,156L39,156L39,156z"/>
</svg>
