<?xml version="1.0" encoding="utf-8"?>
<!-- Generator: Adobe Illustrator 19.0.0, SVG Export Plug-In . SVG Version: 6.00 Build 0)  -->
<svg version="1.1" id="icons" xmlns="http://www.w3.org/2000/svg" xmlns:xlink="http://www.w3.org/1999/xlink" x="0px" y="0px"
	 viewBox="0 0 453 437.9" style="enable-background:new 0 0 453 437.9;" xml:space="preserve">
<style type="text/css">
	.st0{fill-rule:evenodd;clip-rule:evenodd;fill:#9ACC9A;}
	.st1{fill-rule:evenodd;clip-rule:evenodd;fill:#E6AC6C;}
	.st2{fill:#58373F;}
</style>
<g>
	<polygon class="st0" points="293.8,139.8 264.2,139.8 264.2,181.5 226,181.5 226,223.2 186.4,223.2 186.4,265 139.1,265 
		139.1,306.7 101.3,306.7 101.3,348.5 68.9,348.5 68.9,390.2 27.7,390.2 27.7,431.9 322.6,431.9 322.6,390.2 322.6,348.5 
		322.6,306.7 322.6,265 322.6,223.2 322.6,181.5 322.6,139.8 322.6,139.8 322.6,98 293.8,98 	"/>
	<polygon class="st0" points="360.7,11.8 360.7,126.3 447,11.8 	"/>
</g>
<rect x="322.6" y="11.8" class="st1" width="38.1" height="420.1"/>
<path class="st2" d="M299.7,133.8h16.9V104h-16.9V133.8z M316.6,229.2H192.3V259h124.3V229.2z M232,217.3h84.6v-29.8h-52.5
	c-0.2,0-0.3,0-0.5,0H232V217.3z M316.6,312.7H139.1h-31.9v29.8h209.4V312.7z M74.8,384.2h241.8v-29.8H97.1H74.8V384.2z M328.5,98
	v41.7v0v41.7v41.7V265v41.7v41.7v41.7V426h26.2V126.3V17.8h-26.2V98z M33.7,396.1V426h282.9v-29.8H64.7h0H33.7z M145.2,270.9l0,29.8
	h171.4v-29.8H186.4H145.2z M258.2,139.7V35.1L145,157.6l0.1,101.4h35.3v-35.8c0-3.3,2.7-6,6-6h33.7v-35.8c0-3.3,2.7-6,6-6
	c0.2,0,0.3,0,0.5,0h31.7L258.2,139.7L258.2,139.7z M270.1,173.1l0,0.1v2.4h46.5v-29.8h-22.9l-0.2,0h-23.5V173.1z M435.1,17.8h-68.4
	v90.7L435.1,17.8z M360.8,5.9H447c3.3,0,6,2.7,6,6c0,1.5-0.5,2.8-1.4,3.9l-84.9,112.6v303.7c0,3.3-2.7,6-6,6h-38.1H27.7
	c-3.3,0-6-2.7-6-6v-41.7l0-0.1V291l-11.5,12.4c-2.2,2.4-6,2.6-8.4,0.3c-2.4-2.2-2.6-6-0.3-8.4L272.7,1.9c2.2-2.4,6-2.6,8.4-0.3
	c2.4,2.2,2.6,6,0.3,8.4l-11.4,12.3c0,0.2,0,0.4,0,0.6v111h17.7V98c0-3.3,2.7-6,6-6h22.9V11.8c0-3.3,2.7-6,6-6h38.1L360.8,5.9z
	 M133.3,263.6l-0.1-93.1L33.7,278.1c0,0.2,0,0.3,0,0.5v105.6h29.3v-35.8c0-3.3,2.7-6,6-6h26.4v-35.8c0-3.3,2.7-6,6-6h31.9V265
	C133.1,264.5,133.2,264,133.3,263.6z"/>
</svg>
