<?xml version="1.0" encoding="utf-8"?>
<!-- Generator: Adobe Illustrator 19.0.0, SVG Export Plug-In . SVG Version: 6.00 Build 0)  -->
<svg version="1.1" id="icons" xmlns="http://www.w3.org/2000/svg" xmlns:xlink="http://www.w3.org/1999/xlink" x="0px" y="0px"
	 viewBox="0 0 438.2 270.4" style="enable-background:new 0 0 438.2 270.4;" xml:space="preserve">
<style type="text/css">
	.st0{fill-rule:evenodd;clip-rule:evenodd;fill:#E6AC6C;}
	.st1{fill:#58373F;}
</style>
<polygon class="st0" points="5.8,5.8 5.8,32.1 39.1,32.1 39.1,44.7 39.1,52.6 39.1,264.6 63.2,264.6 71.7,55.5 366.6,55.5 
	375,264.6 399.1,264.6 399.1,52.6 399.1,44.7 399.1,32.1 432.4,32.1 432.4,5.8 "/>
<path class="st1" d="M393.3,37.9H44.9c0,73.6,0,147.3,0,220.9h12.8l8.2-203l0-0.2c0-3.2,2.6-5.8,5.8-5.8h294.9v0
	c3.1,0,5.7,2.4,5.8,5.6l8.2,203.5h12.8C393.3,185.1,393.3,111.5,393.3,37.9L393.3,37.9z M405,37.9c0,75.6,0,151.1,0,226.7
	c0,3.2-2.6,5.8-5.8,5.8H375c-3.2,0-5.8-2.6-5.8-5.8l0-0.2l-8.2-203H77.2L69,264.8c-0.1,3.1-2.7,5.6-5.8,5.6v0H39.1
	c-3.2,0-5.8-2.6-5.8-5.8c0-75.6,0-151.1,0-226.7H6.3c-0.2,0-0.3,0-0.5,0c-3.2,0-5.8-2.6-5.8-5.8V5.8h0C0,2.6,2.6,0,5.8,0h426.1
	c0.2,0,0.3,0,0.5,0c3.2,0,5.8,2.6,5.8,5.8v26.3h0c0,3.2-2.6,5.8-5.8,5.8H405z M11.6,26.3h27c0.2,0,0.3,0,0.5,0h360.1
	c0.2,0,0.3,0,0.5,0h27V11.6h-415V26.3z"/>
</svg>
