<?xml version="1.0" encoding="utf-8"?>
<!-- Generator: Adobe Illustrator 19.0.0, SVG Export Plug-In . SVG Version: 6.00 Build 0)  -->
<svg version="1.1" id="icons" xmlns="http://www.w3.org/2000/svg" xmlns:xlink="http://www.w3.org/1999/xlink" x="0px" y="0px"
	 viewBox="0 0 335.4 307.2" style="enable-background:new 0 0 335.4 307.2;" xml:space="preserve">
<style type="text/css">
	.st0{fill-rule:evenodd;clip-rule:evenodd;fill:#FFFFFF;}
	.st1{fill-rule:evenodd;clip-rule:evenodd;fill:#E6AC6C;}
	.st2{fill-rule:evenodd;clip-rule:evenodd;fill:#9ACC9A;}
	.st3{fill-rule:evenodd;clip-rule:evenodd;fill:#F5B9C3;}
	.st4{fill:#58373F;}
</style>
<rect x="32.5" y="44.1" class="st0" width="270.5" height="219"/>
<g>
	<rect x="5.8" y="5.8" class="st1" width="323.8" height="38.3"/>
	<rect x="5.8" y="263.1" class="st1" width="323.8" height="38.3"/>
</g>
<polygon class="st2" points="94.6,262.5 96.8,108.8 239.5,107.3 240.9,260.3 "/>
<path class="st3" d="M154.7,263.1c-25.2-15.3-31.4-52.8-24.2-69.1l17.2,22.3c-4.4-23.8,14.2-40.1,17-75.5
	c15.3,11.9,34.5,30.5,23.5,75.8l19.3-13.7c2.6,17.2-14.4,53.5-25.3,60.2H154.7z"/>
<path class="st4" d="M156.4,257.3h24c4.6-3.8,10.4-13.5,14.9-24.3c2.6-6.3,4.8-12.8,5.9-18.5l-9.3,6.6c-1.4,1.1-3.2,1.6-5,1.1
	c-3.1-0.8-5-3.9-4.3-7c5.1-21.2,3.3-36-1.5-46.7c-3-6.7-7.3-12-11.9-16.4c-2.2,12.2-6,22.1-9.4,31c-4.4,11.4-8.2,21.1-6.3,31.9
	c0.4,2.1-0.3,4.4-2.1,5.8c-2.5,2-6.2,1.5-8.1-1l-9.6-12.4c-0.3,7.1,0.8,15.5,3.7,23.8C140.8,241.4,147.1,251.2,156.4,257.3
	L156.4,257.3z M26.7,257.3V49.9H5.8c-3.2,0-5.8-2.6-5.8-5.8V5.8C0,2.6,2.6,0,5.8,0h323.8c3.2,0,5.8,2.6,5.8,5.8v38.3
	c0,3.2-2.6,5.8-5.8,5.8h-20.9v207.4h20.9c3.2,0,5.8,2.6,5.8,5.8v38.3c0,3.2-2.6,5.8-5.8,5.8H5.8c-3.2,0-5.8-2.6-5.8-5.8v-38.3
	c0-3.2,2.6-5.8,5.8-5.8H26.7z M88.5,257.3V103.1c0-3.2,2.6-5.8,5.8-5.8h146.8c3.2,0,5.8,2.6,5.8,5.8v154.2h50.2V49.9H38.3v207.4
	H88.5z M323.8,11.6H11.6v26.7h20.9h270.5h20.9V11.6z M139,257.3c-5.7-6.6-9.9-14.3-12.7-22.3c-5.6-16-5.6-33.1-1.1-43.3
	c1.3-2.9,4.7-4.3,7.6-3c1,0.4,1.8,1.1,2.4,1.9l7,9.1c1.3-6.9,3.9-13.5,6.7-20.7c4.1-10.6,8.8-22.7,10-38.6c0.2-3.2,3-5.6,6.2-5.4
	c1.2,0.1,2.3,0.5,3.1,1.2l0,0c8.2,6.4,17.5,14.6,23.3,27.6c4.6,10.1,7,23,4.9,39.9l7.7-5.5c2.6-1.8,6.2-1.2,8.1,1.4
	c0.5,0.8,0.9,1.6,1,2.5l0,0c1.4,9.3-2,22.9-7.3,35.4c-3.1,7.3-6.8,14.3-10.7,19.8h40V108.9H100.1v148.4H139z M241.1,268.9H94.3H32.5
	H11.6v26.7h312.2v-26.7h-20.9H241.1z"/>
</svg>
