<?xml version="1.0" encoding="utf-8"?>
<!-- Generator: Adobe Illustrator 19.0.0, SVG Export Plug-In . SVG Version: 6.00 Build 0)  -->
<svg version="1.1" id="icons" xmlns="http://www.w3.org/2000/svg" xmlns:xlink="http://www.w3.org/1999/xlink" x="0px" y="0px"
	 viewBox="0 0 274.9 386.6" style="enable-background:new 0 0 274.9 386.6;" xml:space="preserve">
<style type="text/css">
	.st0{fill-rule:evenodd;clip-rule:evenodd;fill:#94D0CF;}
	.st1{fill-rule:evenodd;clip-rule:evenodd;fill:#F5B9C3;}
	.st2{fill:#58373F;}
</style>
<rect x="5.8" y="110.7" class="st0" width="263.3" height="42.4"/>
<g>
	<path class="st1" d="M230.8,153.1H44.1c-3.1,2.3-4.8,5-4.8,7.9v35.6c0,8.6,15.9,15.7,35.4,15.7h125.5c19.5,0,35.4-7,35.4-15.7
		v-35.6C235.6,158.1,233.9,155.4,230.8,153.1z"/>
	<path class="st1" d="M205.4,110.7c0-0.8,0.1-1.5,0.1-2.3V37.1c0-17.2-11-31.3-24.5-31.3h-87c-13.5,0-24.5,14.1-24.5,31.3v71.2
		c0,0.8,0,1.6,0.1,2.3H205.4z"/>
</g>
<path class="st2" d="M229.4,159.9c-0.2-0.3-0.5-0.7-0.8-1H46.2c-0.3,0.3-0.6,0.7-0.8,1c-0.2,0.4-0.4,0.7-0.4,1.1h0v35.6h0
	c0,1.8,2.7,3.9,6.9,5.8c5.7,2.5,13.7,4.1,22.7,4.1h125.5c1.9,0,3.8-0.1,5.7-0.2l0.1,0c0.3,0,0.5,0,0.8,0c13.2-1,23.1-4.9,23.1-9.6h0
	v-35.6h0C229.8,160.6,229.7,160.2,229.4,159.9L229.4,159.9z M44.1,147.3h186.7h32.5v-30.8H11.6v30.8H44.1z M75.2,104.9h124.5V37.1
	c0-7.3-2.3-13.9-6-18.6c-3.4-4.3-7.9-7-12.8-7v0h-87v0c-10.3,0-18.7,11.5-18.7,25.5V104.9z M52.1,381.5c-0.4,3.2-3.3,5.4-6.5,5
	c-3.2-0.4-5.4-3.3-5-6.5L61.7,217c-5.4-0.9-10.3-2.3-14.4-4.1c-8.6-3.8-13.9-9.5-13.9-16.4h0v-35.6h0c0-0.7,0.1-1.4,0.2-2.1H5.8
	c-3.2,0-5.8-2.6-5.8-5.8v-42.4c0-3.2,2.6-5.8,5.8-5.8h57.8V37.1C63.6,16.7,77.2,0,93.9,0v0h87v0c8.6,0,16.4,4.4,21.9,11.4
	c5.2,6.7,8.5,15.8,8.5,25.7v67.7h57.8c3.2,0,5.8,2.6,5.8,5.8v42.4c0,3.2-2.6,5.8-5.8,5.8h-27.8c0.1,0.7,0.2,1.4,0.2,2.1h0v35.6h0
	c0,9.4-11.9,17.5-28.2,20.4l21.1,163.2c0.4,3.2-1.8,6.1-5,6.5c-3.2,0.4-6.1-1.8-6.5-5L201.7,218c-0.5,0-1,0-1.5,0H74.7
	c-0.5,0-1,0-1.5,0L52.1,381.5z"/>
</svg>
