<?xml version="1.0" encoding="utf-8"?>
<!-- Generator: Adobe Illustrator 19.0.0, SVG Export Plug-In . SVG Version: 6.00 Build 0)  -->
<svg version="1.1" id="icons" xmlns="http://www.w3.org/2000/svg" xmlns:xlink="http://www.w3.org/1999/xlink" x="0px" y="0px"
	 viewBox="0 0 336.6 416.8" style="enable-background:new 0 0 336.6 416.8;" xml:space="preserve">
<style type="text/css">
	.st0{fill-rule:evenodd;clip-rule:evenodd;fill:#CFE6E8;}
	.st1{fill-rule:evenodd;clip-rule:evenodd;fill:#F5B9C3;}
	.st2{fill-rule:evenodd;clip-rule:evenodd;fill:#E6AC6C;}
	.st3{fill:#58373F;}
</style>
<rect x="93.7" y="5.8" class="st0" width="149.2" height="174.7"/>
<rect x="99.5" y="303.3" class="st1" width="137.6" height="26.5"/>
<path class="st2" d="M209.4,411h17.3l2.9-81.2h-23.2L209.4,411z M109.9,411h17.3l2.9-81.2H107L109.9,411z"/>
<polygon class="st2" points="5.8,179.6 5.8,199 23.1,199 23.1,259.1 23.1,259.1 26,411 43.3,411 46.2,259.1 168.3,259.1 
	290.4,259.1 293.3,411 310.6,411 313.5,259.1 313.5,259.1 313.5,199 330.8,199 330.8,179.6 "/>
<path class="st3" d="M231.3,309.1h-126V324h1.6h23.2h76.4h23.2h1.6V309.1z M226.7,416.8h-17.3v0c-3.1,0-5.7-2.5-5.8-5.6l-2.7-75.6
	h-65.2l-2.7,75.2c0,0.1,0,0.2,0,0.3c0,3.2-2.6,5.8-5.8,5.8h-17.3v0c-3.1,0-5.7-2.5-5.8-5.6l-2.7-75.6h-1.9c-3.2,0-5.8-2.6-5.8-5.8
	v-26.5c0-3.2,2.6-5.8,5.8-5.8h137.6c3.2,0,5.8,2.6,5.8,5.8v26.5c0,3.2-2.6,5.8-5.8,5.8h-1.9l-2.7,75.2c0,0.1,0,0.2,0,0.3
	C232.5,414.2,229.9,416.8,226.7,416.8z M215,405.2h6.2l2.5-69.6h-11.2L215,405.2z M325,185.4H11.6v7.8h156.7h145.2H325V185.4z
	 M200.3,49.2c2.6-1.9,6.2-1.2,8.1,1.4c1.9,2.6,1.2,6.2-1.4,8.1l-80.4,57.1c-2.6,1.9-6.2,1.2-8.1-1.4c-1.9-2.6-1.2-6.2,1.4-8.1
	L200.3,49.2z M210,82.5c2.6-1.9,6.2-1.2,8.1,1.4c1.9,2.6,1.2,6.2-1.4,8.1L136.3,149c-2.6,1.9-6.2,1.2-8.1-1.4
	c-1.9-2.6-1.2-6.2,1.4-8.1L210,82.5z M201.6,128.3c2.6-1.9,6.2-1.2,8.1,1.4c1.9,2.6,1.2,6.2-1.4,8.1l-36.9,26.2
	c-2.6,1.9-6.2,1.2-8.1-1.4c-1.9-2.6-1.2-6.2,1.4-8.1L201.6,128.3z M180.2,22.4c2.6-1.9,6.2-1.3,8.1,1.3c1.9,2.6,1.3,6.2-1.3,8.1
	l-57.4,41.1c-2.6,1.9-6.2,1.3-8.1-1.3c-1.9-2.6-1.3-6.2,1.3-8.1L180.2,22.4z M99.5,173.8h137.7V11.6H99.5V173.8z M80.5,234.8
	c-3.2,0-5.8-2.6-5.8-5.8c0-3.2,2.6-5.8,5.8-5.8h30.4c3.2,0,5.8,2.6,5.8,5.8c0,3.2-2.6,5.8-5.8,5.8H80.5z M225.7,234.8
	c-3.2,0-5.8-2.6-5.8-5.8c0-3.2,2.6-5.8,5.8-5.8h30.4c3.2,0,5.8,2.6,5.8,5.8c0,3.2-2.6,5.8-5.8,5.8H225.7z M28.9,253.3h133.7v-48.5
	H28.9V253.3z M31.7,405.2h6l2.7-140.3H29L31.7,405.2z M310.6,416.8h-17.3v0c-3.2,0-5.7-2.5-5.8-5.7l-2.8-146.2H168.3H51.9
	l-2.8,145.7c0,0.1,0,0.3,0,0.4c0,3.2-2.6,5.8-5.8,5.8H26v0c-3.2,0-5.7-2.5-5.8-5.7l-2.9-151.4c0-0.2,0-0.4,0-0.6v-0.6v0
	c0-0.2,0-0.3,0-0.5c0-0.2,0-0.3,0-0.5v-52.7H5.8c-3.2,0-5.8-2.6-5.8-5.8v-19.4c0-3.2,2.6-5.8,5.8-5.8h82.1V5.8
	c0-3.2,2.6-5.8,5.8-5.8v0h149.2c3.2,0,5.8,2.6,5.8,5.8c0,0.2,0,0.3,0,0.5v167.5h82.1c3.2,0,5.8,2.6,5.8,5.8V199
	c0,3.2-2.6,5.8-5.8,5.8h-11.5v53.3v0.5c0,0.2,0,0.3,0,0.5c0,0.3,0,0.5-0.1,0.8l-2.9,150.7c0,0.1,0,0.3,0,0.4
	C316.4,414.2,313.8,416.8,310.6,416.8z M299,405.2h6l2.7-140.3h-11.3L299,405.2z M174.1,253.3h133.6v-48.5H174.1V253.3z
	 M115.5,405.2h6.2l2.5-69.6H113L115.5,405.2z"/>
</svg>
