<?xml version="1.0" encoding="utf-8"?>
<!-- Generator: Adobe Illustrator 19.0.0, SVG Export Plug-In . SVG Version: 6.00 Build 0)  -->
<svg version="1.1" id="icons" xmlns="http://www.w3.org/2000/svg" xmlns:xlink="http://www.w3.org/1999/xlink" x="0px" y="0px"
	 viewBox="0 0 237.2 349.7" style="enable-background:new 0 0 237.2 349.7;" xml:space="preserve">
<style type="text/css">
	.st0{fill-rule:evenodd;clip-rule:evenodd;fill:#F5B9C3;}
	.st1{fill-rule:evenodd;clip-rule:evenodd;fill:#94D0CF;}
	.st2{fill:#58373F;}
</style>
<path class="st0" d="M118.6,343.9l-0.2,0c-33.6,0-72.6-16.1-60.8-65.3c7.1-29.9,25.9-41.4,40.8-65.8h20.2h20.2
	c14.9,24.3,33.7,35.9,40.8,65.8c11.8,49.2-27.2,65.3-60.8,65.3L118.6,343.9z"/>
<polygon class="st1" points="76.7,5.8 160.7,5.8 231.4,212.8 5.8,212.8 "/>
<path class="st2" d="M97.3,335.7c6.8,1.6,14,2.4,21.1,2.4v0c0.2,0,0.3,0,0.5,0c7,0,14.3-0.7,21.1-2.4c9.9-2.4,19.1-6.6,25.7-13.2
	c6.4-6.4,10.4-15.2,10.4-27h0c0-4.7-0.6-9.9-2-15.5c-4.3-18.1-13.5-29.3-23.3-41.3c-5-6.1-10.1-12.4-15.1-20h-17h-17
	c-4.9,7.6-10.1,13.9-15.1,20c-9.8,12-19,23.2-23.3,41.3c-1.4,5.7-2,10.8-2,15.5h0c0,11.8,4,20.6,10.4,27
	C78.2,329.1,87.4,333.3,97.3,335.7L97.3,335.7z M61.3,207l34-195.4H80.8L13.9,207H61.3z M142,11.6l34,195.4h47.4L156.6,11.6H142z
	 M164.2,207l-34-195.4H107L73.1,207h25.3h20.2h20.2H164.2z M118.4,349.7c-7.8,0-15.9-0.8-23.8-2.7c-11.9-2.8-23-8.1-31.2-16.3
	c-8.5-8.5-13.8-20-13.8-35.2h0c0-5.6,0.7-11.6,2.3-18.2c5-20.8,14.9-32.9,25.6-46c3.3-4.1,6.7-8.2,10-12.7H5.8
	c-3.2,0-5.8-2.6-5.8-5.8c0-0.8,0.2-1.5,0.4-2.2L71.2,3.9C72,1.4,74.5-0.1,77,0h83.7c2.5,0,4.7,1.6,5.5,3.9l0,0l70.7,207
	c1,3-0.6,6.3-3.6,7.3c-0.6,0.2-1.2,0.3-1.9,0.3v0h-81.7c3.3,4.5,6.7,8.6,10,12.7c10.6,13,20.6,25.2,25.6,46
	c1.6,6.6,2.3,12.7,2.3,18.2h0c0,15.2-5.3,26.7-13.8,35.2c-8.2,8.3-19.3,13.5-31.2,16.3c-7.9,1.9-16,2.7-23.8,2.7
	C118.7,349.7,118.5,349.7,118.4,349.7L118.4,349.7z"/>
</svg>
