<?xml version="1.0" encoding="utf-8"?>
<!-- Generator: Adobe Illustrator 19.0.0, SVG Export Plug-In . SVG Version: 6.00 Build 0)  -->
<svg version="1.1" id="icons" xmlns="http://www.w3.org/2000/svg" xmlns:xlink="http://www.w3.org/1999/xlink" x="0px" y="0px"
	 viewBox="0 0 350.6 447.1" style="enable-background:new 0 0 350.6 447.1;" xml:space="preserve">
<style type="text/css">
	.st0{fill-rule:evenodd;clip-rule:evenodd;fill:#E6AC6C;}
	.st1{fill:#58373F;}
</style>
<g>
	<polygon class="st0" points="26,441.3 52.8,441.3 56.3,418.8 22.5,418.8 	"/>
	<polygon class="st0" points="297.8,441.3 324.6,441.3 328.1,418.8 294.4,418.8 	"/>
	<polygon class="st0" points="175.3,26.9 18.7,26.9 18.7,323.4 175.3,323.4 175.3,323.4 331.9,323.4 331.9,26.9 175.3,26.9 	"/>
	<polygon class="st0" points="18.7,371.1 18.7,418.8 331.9,418.8 331.9,371.1 331.9,323.4 18.7,323.4 	"/>
	<rect x="5.8" y="5.8" class="st0" width="339" height="21.1"/>
</g>
<path class="st1" d="M157.4,353.1c-3.2,0-5.8-2.6-5.8-5.8c0-3.2,2.6-5.8,5.8-5.8h35.9c3.2,0,5.8,2.6,5.8,5.8c0,3.2-2.6,5.8-5.8,5.8
	H157.4z M138.6,157.2c0-3.2,2.6-5.8,5.8-5.8s5.8,2.6,5.8,5.8v35.9c0,3.2-2.6,5.8-5.8,5.8s-5.8-2.6-5.8-5.8V157.2z M200.4,157.2
	c0-3.2,2.6-5.8,5.8-5.8c3.2,0,5.8,2.6,5.8,5.8v35.9c0,3.2-2.6,5.8-5.8,5.8c-3.2,0-5.8-2.6-5.8-5.8V157.2z M339,11.6H11.6v9.5H339
	V11.6z M326.1,329.2H24.5v36.1h301.6V329.2z M326.1,376.9H24.5V413h301.6V376.9z M49.5,424.6H29.3l1.7,10.8h16.9L49.5,424.6z
	 M321.4,424.6h-20.2l1.7,10.8h16.9L321.4,424.6z M181.1,32.7v284.9h145V32.7H181.1z M169.5,317.6V32.7h-145v284.9H169.5z
	 M337.7,32.7v290.7l0,0v47.7v47.7c0,2.8-2,5.1-4.6,5.7l-2.7,17.6c-0.4,2.9-2.9,4.9-5.7,4.9v0h-26.8c-3.1,0-5.6-2.4-5.8-5.4l-2.7-17
	H61.2l-2.7,17.5c-0.4,2.9-2.9,4.9-5.7,4.9v0H26c-3.1,0-5.6-2.4-5.8-5.4l-2.7-17.2c-2.6-0.6-4.6-2.9-4.6-5.7v-47.7v-47.7v0V32.7H5.8
	c-3.2,0-5.8-2.6-5.8-5.8V5.8C0,2.6,2.6,0,5.8,0h339c3.2,0,5.8,2.6,5.8,5.8v21.1c0,3.2-2.6,5.8-5.8,5.8H337.7z M157.4,400.8
	c-3.2,0-5.8-2.6-5.8-5.8c0-3.2,2.6-5.8,5.8-5.8h35.9c3.2,0,5.8,2.6,5.8,5.8c0,3.2-2.6,5.8-5.8,5.8H157.4z"/>
</svg>
