<?xml version="1.0" encoding="utf-8"?>
<!-- Generator: Adobe Illustrator 19.0.0, SVG Export Plug-In . SVG Version: 6.00 Build 0)  -->
<svg version="1.1" id="icons" xmlns="http://www.w3.org/2000/svg" xmlns:xlink="http://www.w3.org/1999/xlink" x="0px" y="0px"
	 viewBox="0 0 391.4 406.5" style="enable-background:new 0 0 391.4 406.5;" xml:space="preserve">
<style type="text/css">
	.st0{fill:#58373F;}
</style>
<path class="st0" d="M29.6,288.5h137.8V252H29.6V288.5z M29.6,336.5h137.8v-36.5H29.6V336.5z M167.4,203.9H29.6v36.5h137.8V203.9z
	 M167.4,155.8H29.6v36.5h137.8V155.8z M167.4,107.8H29.6v36.5h137.8V107.8z M167.4,59.7H29.6v36.5h137.8V59.7z M167.4,11.6H29.6
	v36.5h137.8V11.6z M244.4,173.7c-2.8-2.8-6.6-4.5-10.8-4.5v0c-4.2,0-8,1.7-10.8,4.5c-2.8,2.8-4.5,6.6-4.5,10.8h0
	c0,4.2,1.7,8,4.5,10.8c2.8,2.8,6.6,4.5,10.8,4.5v0c4.2,0,8-1.7,10.8-4.5c2.8-2.8,4.5-6.6,4.5-10.8h0
	C248.9,180.3,247.2,176.5,244.4,173.7z M318,173.7c-2.8-2.8-6.6-4.5-10.8-4.5v0c-4.2,0-8,1.7-10.8,4.5c-2.8,2.8-4.5,6.6-4.5,10.8h0
	c0,4.2,1.7,8,4.5,10.8c2.8,2.8,6.6,4.5,10.8,4.5v0c4.2,0,8-1.7,10.8-4.5c2.8-2.8,4.5-6.6,4.5-10.8h0
	C322.5,180.3,320.8,176.5,318,173.7z M179,246.2L179,246.2v48.1v0v48.1v0v52.5h12.2c3.2,0,5.8,2.6,5.8,5.8c0,3.2-2.6,5.8-5.8,5.8
	h-18l-0.1,0l-0.1,0h-17.8c-3.2,0-5.8-2.6-5.8-5.8c0-3.2,2.6-5.8,5.8-5.8h12.1v-46.7H29.6v46.7h12.1c3.2,0,5.8,2.6,5.8,5.8
	c0,3.2-2.6,5.8-5.8,5.8H23.8l-0.1,0l-0.1,0H5.8c-3.2,0-5.8-2.6-5.8-5.8c0-3.2,2.6-5.8,5.8-5.8H18v-52.5v0v-48.1v0v-48.1v0v-48.1v0
	V150v0V102v0V53.9v0V5.8C18,2.6,20.6,0,23.8,0h149.4h194.4c3.2,0,5.8,2.6,5.8,5.8v389h12.1c3.2,0,5.8,2.6,5.8,5.8
	c0,3.2-2.6,5.8-5.8,5.8h-35.9c-3.2,0-5.8-2.6-5.8-5.8c0-3.2,2.6-5.8,5.8-5.8h12.1V11.6H313l0,0.2v146.4c5.1,1.1,9.7,3.7,13.2,7.3
	c4.9,4.9,7.9,11.6,7.9,19h0c0,7.4-3,14.2-7.9,19c-4.9,4.9-11.6,7.9-19,7.9v0c-7.4,0-14.2-3-19-7.9c-4.9-4.9-7.9-11.6-7.9-19h0
	c0-7.4,3-14.2,7.9-19c3.6-3.6,8.1-6.1,13.2-7.2V11.8c0-0.1,0-0.1,0-0.2h-62.1l0,0.2v146.4c5.1,1.1,9.7,3.7,13.2,7.3
	c4.9,4.9,7.9,11.6,7.9,19h0c0,7.4-3,14.2-7.9,19c-4.9,4.9-11.6,7.9-19,7.9v0c-7.4,0-14.2-3-19-7.9c-4.9-4.9-7.9-11.6-7.9-19h0
	c0-7.4,3-14.2,7.9-19c3.6-3.6,8.1-6.1,13.2-7.2V11.8c0-0.1,0-0.1,0-0.2H179v42.3v0V102v0V150v0v48.1v0V246.2z"/>
</svg>
