<?xml version="1.0" encoding="utf-8"?>
<!-- Generator: Adobe Illustrator 19.0.0, SVG Export Plug-In . SVG Version: 6.00 Build 0)  -->
<svg version="1.1" id="icons" xmlns="http://www.w3.org/2000/svg" xmlns:xlink="http://www.w3.org/1999/xlink" x="0px" y="0px"
	 viewBox="0 0 410.7 212.7" style="enable-background:new 0 0 410.7 212.7;" xml:space="preserve">
<style type="text/css">
	.st0{fill-rule:evenodd;clip-rule:evenodd;fill:#E6AC6C;}
	.st1{fill:#58373F;}
</style>
<polygon class="st0" points="404.9,5.8 206.3,5.8 5.8,5.8 5.8,47.9 32.6,47.9 32.6,206.9 61.4,206.9 61.4,47.9 191.2,47.9 
	191.2,206.9 220,206.9 220,47.9 349.3,47.9 349.3,206.9 378.1,206.9 378.1,47.9 404.9,47.9 "/>
<path class="st1" d="M55.6,201.1V53.7H38.4v147.4H55.6z M372.3,53.7h-17.2v147.4h17.2V53.7z M214.2,53.7h-7.9l0,0H197v147.4h17.2
	V53.7z M212.1,42.1h7.9l0,0h129.2l0,0h28.8l0,0h21V11.6h-187V42.1z M32.6,42.1h28.8h129.8h9.3V11.6H11.6v30.5H32.6z M67.2,53.7
	v153.2c0,3.2-2.6,5.8-5.8,5.8H32.6c-3.2,0-5.8-2.6-5.8-5.8V53.7h-21c-3.2,0-5.8-2.6-5.8-5.8V5.8C0,2.6,2.6,0,5.8,0h200.5h198.6
	c3.2,0,5.8,2.6,5.8,5.8v42.1c0,3.2-2.6,5.8-5.8,5.8h-21v153.2c0,3.2-2.6,5.8-5.8,5.8h-28.8c-3.2,0-5.8-2.6-5.8-5.8V53.7H225.8v153.2
	c0,3.2-2.6,5.8-5.8,5.8h-28.8c-3.2,0-5.8-2.6-5.8-5.8V53.7H67.2z"/>
</svg>
