<?xml version="1.0" encoding="utf-8"?>
<!-- Generator: Adobe Illustrator 19.0.0, SVG Export Plug-In . SVG Version: 6.00 Build 0)  -->
<svg version="1.1" id="icons" xmlns="http://www.w3.org/2000/svg" xmlns:xlink="http://www.w3.org/1999/xlink" x="0px" y="0px"
	 viewBox="0 0 350.6 414.7" style="enable-background:new 0 0 350.6 414.7;" xml:space="preserve">
<style type="text/css">
	.st0{fill-rule:evenodd;clip-rule:evenodd;fill:#E6AC6C;}
	.st1{fill:#58373F;}
</style>
<g>
	<polygon class="st0" points="26,408.9 52.8,408.9 56.3,386.5 22.5,386.5 	"/>
	<polygon class="st0" points="297.8,408.9 324.6,408.9 328.1,386.5 294.4,386.5 	"/>
	<polygon class="st0" points="5.8,5.8 5.8,26.9 18.7,26.9 18.7,386.5 175.3,386.5 175.3,386.5 331.9,386.5 331.9,26.9 344.8,26.9 
		344.8,5.8 	"/>
</g>
<path class="st1" d="M321.4,392.3h-20.2l1.7,10.8h16.9L321.4,392.3z M49.5,392.3H29.3l1.7,10.8h16.9L49.5,392.3z M24.5,32.7v348h145
	v-348H24.5z M181.1,32.7v348h145v-348H181.1z M61.2,392.3l-2.7,17.5c-0.4,2.9-2.9,4.9-5.7,4.9v0H26c-3.1,0-5.6-2.4-5.8-5.4
	l-2.7-17.2c-2.6-0.6-4.6-2.9-4.6-5.7V32.7H5.8c-3.2,0-5.8-2.6-5.8-5.8V5.8C0,2.6,2.6,0,5.8,0h339c3.2,0,5.8,2.6,5.8,5.8v21.1
	c0,3.2-2.6,5.8-5.8,5.8h-7.1v353.8c0,2.8-2,5.1-4.6,5.7l-2.7,17.6c-0.4,2.9-2.9,4.9-5.7,4.9v0h-26.8c-3.1,0-5.6-2.4-5.8-5.4l-2.6-17
	H175.3h0H61.2z M138.6,172.1c0-3.2,2.6-5.8,5.8-5.8c3.2,0,5.8,2.6,5.8,5.8V208c0,3.2-2.6,5.8-5.8,5.8c-3.2,0-5.8-2.6-5.8-5.8V172.1z
	 M200.4,172.1c0-3.2,2.6-5.8,5.8-5.8c3.2,0,5.8,2.6,5.8,5.8V208c0,3.2-2.6,5.8-5.8,5.8c-3.2,0-5.8-2.6-5.8-5.8V172.1z M175.3,21.1
	L175.3,21.1h156.6l0.1,0h7v-9.5H11.6v9.5h7l0.1,0H175.3z"/>
</svg>
