<?xml version="1.0" encoding="utf-8"?>
<!-- Generator: Adobe Illustrator 19.0.0, SVG Export Plug-In . SVG Version: 6.00 Build 0)  -->
<svg version="1.1" id="icons" xmlns="http://www.w3.org/2000/svg" xmlns:xlink="http://www.w3.org/1999/xlink" x="0px" y="0px"
	 viewBox="0 0 500.4 305.1" style="enable-background:new 0 0 500.4 305.1;" xml:space="preserve">
<style type="text/css">
	.st0{fill-rule:evenodd;clip-rule:evenodd;fill:#E6AC6C;}
	.st1{fill-rule:evenodd;clip-rule:evenodd;fill:#F5B9C3;}
	.st2{fill-rule:evenodd;clip-rule:evenodd;fill:#58373F;}
</style>
<path class="st0" d="M445.9,279.2H482l-3.1,20.1H449L445.9,279.2z M18.4,279.2h36.1l-3.1,20.1H21.5L18.4,279.2z"/>
<path class="st1" d="M478.7,102.7h-26.3V34.2c0-15.6-12.8-28.4-28.4-28.4H76.3c-15.6,0-28.4,12.8-28.4,28.4v68.6H21.7
	c-8.7,0-15.8,5.8-15.8,12.8v150.9c0,7,7.1,12.8,15.8,12.8h30.2c8.7,0,15.8-5.7,15.8-12.8v-6.8h365v6.8c0,7,7.1,12.8,15.8,12.8h30.2
	c8.7,0,15.8-5.7,15.8-12.8V115.5C494.6,108.5,487.4,102.7,478.7,102.7z"/>
<path class="st2" d="M478.7,108.5h-26.3h-3.9l-0.2,0h0l0,0l-0.2,0h0l0,0c-0.2,0-0.3,0-0.5,0l-0.1,0l-0.1,0c-2.5,0.2-4.7,1.1-6.3,2.4
	c-1.1,0.9-1.8,1.9-2.2,3c-0.2,0.5-0.2,1-0.2,1.5v23h10.3c4.1,0,7.9,1.7,10.6,4.5c2.7,2.7,4.3,6.5,4.3,10.6v42.6
	c0,4.1-1.7,7.9-4.3,10.6c-2.7,2.8-6.5,4.5-10.6,4.5H59.9c-4.1,0-7.9-1.7-10.6-4.5c-2.7-2.7-4.3-6.5-4.3-10.6v-42.6
	c0-4.1,1.7-7.9,4.3-10.6c2.7-2.8,6.5-4.5,10.6-4.5h2v-23c0-0.5-0.1-1-0.2-1.5c-0.4-1.1-1.2-2.1-2.2-3c-1.6-1.3-3.8-2.2-6.3-2.4
	l-0.1,0l-0.1,0c-0.2,0-0.3,0-0.5,0l0,0h0l-0.2,0l0,0h0l-0.2,0h-3.9H21.7c-5.5,0-10,3.1-10,7v150.9c0,1.7,1,3.3,2.5,4.5
	c1.8,1.5,4.4,2.4,7.3,2.5h30.8c2.9-0.1,5.4-1,7.3-2.5c1.5-1.2,2.5-2.8,2.5-4.5v-6.8c0-3.2,2.6-5.8,5.8-5.8h365
	c3.2,0,5.8,2.6,5.8,5.8v6.8c0,1.7,1,3.3,2.5,4.5c1.8,1.5,4.4,2.4,7.3,2.5H479c2.9-0.1,5.4-1,7.3-2.5c1.5-1.2,2.5-2.8,2.5-4.5h0
	V115.5h0c0-1.7-1-3.3-2.5-4.5C484.4,109.5,481.7,108.5,478.7,108.5L478.7,108.5z M475.3,285h-22.6l1.3,8.5h19.9L475.3,285z
	 M47.7,285H25.1l1.3,8.5h19.9L47.7,285z M59.9,150.1c-0.9,0-1.7,0.4-2.3,1c-0.6,0.6-1,1.5-1,2.5v42.6c0,1,0.4,1.9,1,2.5
	c0.6,0.6,1.4,1,2.3,1h388.9c0.9,0,1.7-0.4,2.3-1c0.6-0.6,1-1.5,1-2.5v-42.6c0-1-0.4-1.9-1-2.5c-0.6-0.6-1.4-1-2.3-1h-16.1h-365H59.9
	z M256,138.5h170.9v-23c0-2.1,0.4-4.1,1.2-6c1.1-2.9,3.1-5.5,5.7-7.5c2.2-1.8,4.9-3.2,7.8-4.1l0.1,0l0.4-0.1l0,0l0,0l0.1,0l0.2-0.1
	l0.3-0.1l0,0l0.4-0.1l0.2,0l0.1,0l0.1,0l0.2,0l0.2,0l0,0l0.2,0l0,0l0.2,0l0,0l0.4-0.1l0,0c0.3,0,0.6-0.1,0.9-0.1l0,0
	c0.2,0,0.4,0,0.7-0.1V34.2h0c0-6.2-2.5-11.8-6.6-15.9c-4.1-4.1-9.7-6.6-15.9-6.6H256V138.5z M53.7,97c5,0.4,9.5,2.2,12.9,5
	c2.5,2,4.4,4.5,5.6,7.4c0.8,1.9,1.2,4,1.2,6.2v23h170.9V11.6H76.3c-6.2,0-11.8,2.5-15.9,6.6c-4.1,4.1-6.6,9.7-6.6,15.9h0V97z
	 M458.2,96.9h20.5c5.7,0,11,1.9,14.8,5c4.2,3.4,6.8,8.2,6.8,13.5h0v150.9h0c0,5.4-2.6,10.2-6.8,13.5c-1.8,1.5-4,2.7-6.4,3.6
	l-2.6,16.7c-0.4,2.9-2.9,4.9-5.7,4.9v0H449c-3.1,0-5.6-2.4-5.8-5.4l-2.5-16c-2.6-0.9-5-2.2-7.1-3.8c-4.2-3.4-6.8-8.2-6.8-13.5v-1
	H73.5v1c0,5.4-2.6,10.1-6.8,13.5c-2,1.6-4.4,2.9-7.1,3.8l-2.6,16.5c-0.4,2.9-2.9,4.9-5.7,4.9v0H21.5c-3.1,0-5.6-2.4-5.8-5.4
	l-2.5-16.2c-2.4-0.9-4.5-2.1-6.4-3.6c-4.2-3.4-6.8-8.2-6.8-13.5V115.5c0-10.2,9.7-18.6,21.7-18.6h20.5V34.2h0c0-9.4,3.8-18,10-24.1
	C58.4,3.8,66.9,0,76.3,0h347.7c9.4,0,18,3.8,24.1,10c6.2,6.2,10,14.7,10,24.1h0V96.9z"/>
</svg>
