<?xml version="1.0" encoding="utf-8"?>
<!-- Generator: Adobe Illustrator 19.0.0, SVG Export Plug-In . SVG Version: 6.00 Build 0)  -->
<svg version="1.1" id="icons" xmlns="http://www.w3.org/2000/svg" xmlns:xlink="http://www.w3.org/1999/xlink" x="0px" y="0px"
	 viewBox="0 0 390.8 334.1" style="enable-background:new 0 0 390.8 334.1;" xml:space="preserve">
<style type="text/css">
	.st0{fill-rule:evenodd;clip-rule:evenodd;fill:#E6AC6C;}
	.st1{fill:#58373F;}
</style>
<g>
	<polygon class="st0" points="342.7,328.3 369.2,328.3 372.6,306.1 339.2,306.1 	"/>
	<polygon class="st0" points="21.6,328.3 48.1,328.3 51.5,306.1 18.1,306.1 	"/>
	<polygon class="st0" points="384.9,5.8 5.8,5.8 5.8,28.4 18.1,28.4 18.1,97.8 18.1,97.8 18.1,167.3 18.1,236.7 18.1,236.7 
		18.1,306.1 372.6,306.1 372.6,236.7 372.6,236.7 372.6,167.3 372.6,97.8 372.6,97.8 372.6,28.4 384.9,28.4 	"/>
</g>
<path class="st1" d="M73.6,68.9c-3.2,0-5.8-2.6-5.8-5.8c0-3.2,2.6-5.8,5.8-5.8h35.5c3.2,0,5.8,2.6,5.8,5.8c0,3.2-2.6,5.8-5.8,5.8
	H73.6z M281.6,138.4c-3.2,0-5.8-2.6-5.8-5.8c0-3.2,2.6-5.8,5.8-5.8h35.5c3.2,0,5.8,2.6,5.8,5.8c0,3.2-2.6,5.8-5.8,5.8H281.6z
	 M73.6,138.4c-3.2,0-5.8-2.6-5.8-5.8c0-3.2,2.6-5.8,5.8-5.8h35.5c3.2,0,5.8,2.6,5.8,5.8c0,3.2-2.6,5.8-5.8,5.8H73.6z M73.6,207.8
	c-3.2,0-5.8-2.6-5.8-5.8s2.6-5.8,5.8-5.8h35.5c3.2,0,5.8,2.6,5.8,5.8s-2.6,5.8-5.8,5.8H73.6z M281.6,207.8c-3.2,0-5.8-2.6-5.8-5.8
	s2.6-5.8,5.8-5.8h35.5c3.2,0,5.8,2.6,5.8,5.8s-2.6,5.8-5.8,5.8H281.6z M281.6,277.2c-3.2,0-5.8-2.6-5.8-5.8c0-3.2,2.6-5.8,5.8-5.8
	h35.5c3.2,0,5.8,2.6,5.8,5.8c0,3.2-2.6,5.8-5.8,5.8H281.6z M73.6,277.2c-3.2,0-5.8-2.6-5.8-5.8c0-3.2,2.6-5.8,5.8-5.8h35.5
	c3.2,0,5.8,2.6,5.8,5.8c0,3.2-2.6,5.8-5.8,5.8H73.6z M18,22.6l0.2,0l0.2,0h360.8v-11H11.6v11H18z M23.9,92.1h342.9V34.2H23.9V92.1z
	 M366.8,103.6H23.9v57.9h342.9V103.6z M23.9,230.9h342.9V173H23.9V230.9z M365.9,311.9H346l1.7,10.6h16.6L365.9,311.9z M44.8,311.9
	H24.9l1.6,10.6h16.6L44.8,311.9z M23.9,300.3h27.6c0.1,0,0.2,0,0.3,0h287.4v0h27.6v-57.8H23.9V300.3z M5.8,0h379.1
	c3.2,0,5.8,2.6,5.8,5.8v22.6c0,3.2-2.6,5.8-5.8,5.8h-6.5v63.6v0v69.4v69.4v0v69.4c0,0.1,0,0.3,0,0.4l0,0c0,0.1,0,0.2,0,0.3l0,0l0,0
	l0,0l0,0.1l0,0l0,0.1l0,0l0,0l0,0l0,0l0,0l0,0l0,0l0,0l0,0l0,0.2l0,0l0,0l0,0l0,0l0,0l0,0l0,0.1l-3.4,21.7c-0.4,2.9-2.9,4.9-5.7,4.9
	v0h-26.5c-3.1,0-5.6-2.4-5.8-5.4l-2.6-16.8H56.5l-2.7,17.3c-0.4,2.9-2.9,4.9-5.7,4.9v0H21.6c-3.1,0-5.6-2.4-5.8-5.4L12.4,307
	c0-0.3-0.1-0.6-0.1-0.9h0v-69.4v0v-69.4V97.8v0V34.2H5.8c-3.2,0-5.8-2.6-5.8-5.8V5.8C0,2.6,2.6,0,5.8,0z M281.6,68.9
	c-3.2,0-5.8-2.6-5.8-5.8c0-3.2,2.6-5.8,5.8-5.8h35.5c3.2,0,5.8,2.6,5.8,5.8c0,3.2-2.6,5.8-5.8,5.8H281.6z"/>
</svg>
