<?xml version="1.0" encoding="utf-8"?>
<!-- Generator: Adobe Illustrator 19.0.0, SVG Export Plug-In . SVG Version: 6.00 Build 0)  -->
<svg version="1.1" id="icons" xmlns="http://www.w3.org/2000/svg" xmlns:xlink="http://www.w3.org/1999/xlink" x="0px" y="0px"
	 viewBox="0 0 361.8 422.3" style="enable-background:new 0 0 361.8 422.3;" xml:space="preserve">
<style type="text/css">
	.st0{fill-rule:evenodd;clip-rule:evenodd;fill:#F5B9C3;}
	.st1{fill-rule:evenodd;clip-rule:evenodd;fill:#E6AC6C;}
	.st2{fill:#58373F;}
</style>
<path class="st0" d="M180.9,5.8l87.6,20.4V392l-87.6-20.4V5.8z M5.8,5.8l87.6,20.4V392L5.8,371.6V5.8z"/>
<path class="st1" d="M180.9,5.8L93.4,26.2V392l87.6-20.4V5.8z M356,5.8l-87.6,20.4V392l87.6-20.4V5.8z"/>
<path class="st2" d="M11.6,367l75.9,17.7V30.8L11.6,13.1C11.6,131.1,11.6,249.1,11.6,367L11.6,367z M175.1,367V13.1L99.2,30.8
	c0,118,0,235.9,0,353.9L175.1,367z M262.7,30.8l-75.9-17.7V367l75.9,17.7C262.7,266.8,262.7,148.8,262.7,30.8z M361.8,371.6V399
	c0,3.2-2.6,5.8-5.8,5.8c-3.2,0-5.8-2.6-5.8-5.8v-20.1l-75.9,17.7v19.8c0,3.2-2.6,5.8-5.8,5.8c-3.2,0-5.8-2.6-5.8-5.8v-19.8
	l-75.9-17.7V399c0,3.2-2.6,5.8-5.8,5.8c-3.2,0-5.8-2.6-5.8-5.8v-20.1l-75.9,17.7v19.8c0,3.2-2.6,5.8-5.8,5.8c-3.2,0-5.8-2.6-5.8-5.8
	v-19.8l-75.9-17.7V399c0,3.2-2.6,5.8-5.8,5.8S0,402.2,0,399v-27.4h0V5.8C0,2.6,2.6,0,5.8,0c0.6,0,1.1,0.1,1.6,0.2l85.9,20l85.9-20
	c0.1,0,0.3-0.1,0.5-0.1l0,0l0,0l0,0l0.1,0l0,0l0,0h0l0,0l0,0l0.1,0l0,0l0,0l0,0l0,0l0.1,0l0,0l0,0l0,0l0,0l0.1,0l0,0l0,0l0,0l0,0
	l0,0l0,0l0,0l0,0l0,0h0l0,0l0,0l0,0h0l0,0l0,0h0h0l0,0l0.1,0l0.1,0l0,0h0h0l0,0l0,0h0l0,0l0,0l0,0h0l0,0l0,0l0,0l0,0l0,0l0,0l0,0h0
	l0.1,0h0l0,0l0,0l0,0l0,0v0l0.1,0l0,0l0,0l0,0l0,0l0.1,0l0,0l0,0l0,0l0,0l0,0l0,0l0,0l0,0l0,0l0,0l0,0l0,0l0,0l0,0l0,0
	c0.1,0,0.2,0.1,0.3,0.1l85.9,20l85.9-20c0.5-0.2,1.1-0.2,1.7-0.2c3.2,0,5.8,2.6,5.8,5.8L361.8,371.6L361.8,371.6z M350.2,13.1
	l-75.9,17.7v353.9l75.9-17.7C350.2,249.1,350.2,131.1,350.2,13.1z"/>
</svg>
