<?xml version="1.0" encoding="utf-8"?>
<!-- Generator: Adobe Illustrator 19.0.0, SVG Export Plug-In . SVG Version: 6.00 Build 0)  -->
<svg version="1.1" id="icons" xmlns="http://www.w3.org/2000/svg" xmlns:xlink="http://www.w3.org/1999/xlink" x="0px" y="0px"
	 viewBox="0 0 344.4 395.8" style="enable-background:new 0 0 344.4 395.8;" xml:space="preserve">
<style type="text/css">
	.st0{fill-rule:evenodd;clip-rule:evenodd;fill:#E6AC6C;}
	.st1{fill-rule:evenodd;clip-rule:evenodd;fill:#9ACC9A;}
	.st2{fill-rule:evenodd;clip-rule:evenodd;fill:#58373F;}
</style>
<path class="st0" d="M282.9,333.9l9.3,56.1h18.3l7.8-52.5c-2.8,2.7-6.7,4.3-12.6,4.3h-6.9C290.6,341.9,285.6,338.7,282.9,333.9
	L282.9,333.9z M61.5,333.9L52.2,390H34l-7.8-52.5c2.8,2.7,6.7,4.3,12.6,4.3h6.9C53.8,341.9,58.7,338.7,61.5,333.9z"/>
<path class="st1" d="M312.7,172.7h-5.3v-30.8c0-3.3-0.2-6.6-0.5-9.7C303.6,61.8,244.5,5.8,172.2,5.8c-72.3,0-131.4,56-134.7,126.3
	c-0.4,3.2-0.6,6.4-0.6,9.7v30.8h-5.3c-14.2,0-27.1,9.5-25.8,21L20,320.8c1.3,11.5,4.6,21,18.8,21h6.9c8.2,0,13.2-3.1,15.9-8h221.3
	c2.8,4.9,7.7,8,15.9,8h6.9c14.2,0,17.5-9.5,18.8-21l14.1-127.1C339.8,182.2,326.9,172.7,312.7,172.7z M58.9,270.3
	c-0.2-0.2-0.4-0.5-0.5-0.7C58.5,269.8,58.7,270.1,58.9,270.3z M286,269.6c-0.2,0.2-0.3,0.5-0.5,0.7
	C285.7,270.1,285.9,269.8,286,269.6z"/>
<path class="st2" d="M280.3,228.6L280.3,228.6l-0.1-0.1c-0.4-0.3-0.8-0.6-1.3-0.9l0,0l-0.1,0c-0.3-0.2-0.7-0.4-1.1-0.5l-0.2-0.1
	c-1.3-0.6-2.8-0.9-4.5-0.9v0h0H71.3h0v0c-1.7,0-3.2,0.3-4.6,0.9l0,0l0,0l0,0l0,0l-0.1,0c-0.4,0.2-0.8,0.4-1.2,0.6l0,0l0,0l0,0l0,0
	l0,0l0,0c-0.4,0.2-0.7,0.5-1,0.8l-0.1,0.1h0c-1.4,1.3-2.3,2.9-2.3,4.6v29.6v0h0c0,1.8,0.9,3.4,2.4,4.7c1.8,1.5,4.3,2.4,7,2.4v0h0
	h201.8h0v0c2.8,0,5.3-0.9,7-2.4c1.5-1.3,2.4-3,2.4-4.7h0v0v-29.6v0h0c0-0.8-0.2-1.6-0.5-2.3c-0.1-0.2-0.2-0.4-0.4-0.7
	c-0.1-0.1-0.1-0.2-0.1-0.2C281.2,229.5,280.7,229.1,280.3,228.6L280.3,228.6z M44.2,167.3L44.2,167.3c-0.5-0.1-1-0.1-1.4-0.2
	c0-21.3-0.9-41.2,4.9-62.1c2.4-8.7,5.7-17.1,9.9-25c21.5-40.6,64.7-68.4,114.5-68.4h0.1c49.8,0,93,27.8,114.5,68.4
	c4.2,7.9,7.5,16.3,10,25c5.8,20.9,4.9,40.8,4.9,62.1c-0.5,0.1-1,0.1-1.4,0.2v0c-6.2,1-11.9,3.5-16.2,7c-6,4.9-9.7,11.7-9.7,19.3h0v0
	v20.8c-0.4,0-0.7,0-1.1,0v0h0H71.3h0v0c-0.4,0-0.8,0-1.1,0v-20.8h0v0h0c0-7.6-3.7-14.5-9.7-19.3C56.1,170.8,50.5,168.3,44.2,167.3z
	 M172.2,0L172.2,0L172.2,0C117.9,0.1,70.9,30.3,47.4,74.6c-4.5,8.6-8.2,17.8-10.9,27.4c-6.1,22-5.5,42.7-5.4,64.9
	c-1.2,0-2.4,0.1-3.6,0.2c-7.2,0.8-13.9,3.6-18.8,7.8C3.4,179.4,0,185.4,0,192.1h0c0,0.8,0,1.5,0.1,2.2l14.1,127.1
	c0.7,6.6,2.1,12.7,5.6,17.6c0.3,0.4,0.6,0.8,0.9,1.1l7.5,50.4c0.3,2.9,2.8,5.3,5.8,5.3h18.2v0c2.8,0,5.3-2,5.7-4.9l8.5-51.3H278
	l8.5,51.3c0.5,2.8,2.9,4.9,5.7,4.9v0h18.2c3,0,5.5-2.3,5.8-5.2l7.5-50.4c0.3-0.4,0.6-0.7,0.9-1.1c3.5-4.8,4.9-11,5.6-17.6
	l14.1-127.1c0.1-0.7,0.1-1.4,0.1-2.2c0-6.8-3.4-12.8-8.7-17.3c-4.9-4.1-11.6-7-18.8-7.8c-1.2-0.1-2.5-0.2-3.7-0.2
	c0.1-22.2,0.7-42.9-5.3-64.9c-2.7-9.6-6.3-18.7-10.9-27.4C273.6,30.3,226.5,0.1,172.3,0v0H172.2L172.2,0z M11.7,193.1l14.1,127.1
	c0.5,4.9,1.4,9.3,3.5,12.1c0.3,0.4,0.6,0.7,0.9,1c0.1,0.1,0.1,0.1,0.2,0.2c1.1,1,2.4,1.7,4.2,2.2l0,0l0,0c1.2,0.3,2.6,0.4,4.2,0.4v0
	h6.9v0h0c3.9,0,6.7-0.9,8.6-2.4l0.1,0l0,0l0.1-0.1l0,0l0,0c0.2-0.2,0.4-0.3,0.6-0.5l0,0l0,0l0,0h0l0,0l0,0l0,0v0
	c0.2-0.2,0.4-0.5,0.6-0.7c0.2-0.2,0.4-0.5,0.5-0.7c0.1-0.1,0.1-0.2,0.1-0.2c0.9-1.9,2.9-3.3,5.2-3.3h221.3v0c2,0,3.9,1,5,2.8
	l0.1,0.2c0.3,0.6,0.8,1.2,1.2,1.7l0,0l0,0l0,0l0,0l0.1,0.1l0,0c0.6,0.6,1.4,1.2,2.2,1.7c0.2,0.1,0.3,0.2,0.5,0.3l0,0
	c0.2,0.1,0.4,0.2,0.6,0.2c1.5,0.6,3.2,0.9,5.3,1h0l0.1,0h0l0.1,0h0l0.1,0h0l0.1,0h0l0.1,0h0l0.1,0h0h0.1h0h0.1v0h0h6.9
	c4,0,6.7-1,8.5-2.6l0.2-0.2l0,0c0.3-0.3,0.6-0.7,0.9-1c2-2.8,2.9-7.2,3.5-12.1l14.1-127.1c0-0.4,0.1-0.7,0.1-0.9
	c0-3.1-1.8-6-4.6-8.4c-3.2-2.7-7.7-4.6-12.6-5.1c-0.9-0.1-1.9-0.1-2.9-0.1v0h-6.9v0h0v0c-5.7,0-10.9,1.9-14.6,4.9
	c-3.4,2.7-5.4,6.4-5.4,10.4h0v0v24.6c2.1,1.4,3.9,3.2,5.3,5.3c0.1,0.1,0.2,0.2,0.3,0.4c0.4,0.6,0.8,1.3,1.1,2.1
	c1,2.2,1.6,4.6,1.6,7.2h0v0v29.6v0h0c0,5.4-2.5,10.1-6.5,13.6c-3.8,3.2-8.9,5.2-14.5,5.2v0h0H71.3h0v0c-5.6,0-10.8-2-14.5-5.2
	c-4-3.4-6.5-8.2-6.5-13.6h0v0v-29.6c0-5.4,2.6-10.2,6.7-13.7c0.5-0.5,1.1-0.9,1.7-1.3v-24.6h0v0h0c0-3.9-2.1-7.6-5.4-10.4
	c-3.7-3-8.9-4.9-14.6-4.9v0h0v0h-6.9v0c-1,0-2,0.1-2.9,0.1c-4.9,0.5-9.4,2.4-12.6,5.1c-2.8,2.3-4.6,5.3-4.6,8.4h0
	C11.6,192.4,11.6,192.7,11.7,193.1z M53.5,346.7c-2.3,0.6-5,1-7.9,1h0v0h-6.9v0c-1.9,0-3.6-0.1-5.3-0.4l5.5,37h8.3L53.5,346.7z
	 M290.9,346.7l6.2,37.5h8.3l5.5-37c-1.6,0.3-3.4,0.4-5.3,0.4h-6.9h0v0l-0.1,0h-0.1h-0.1l-0.1,0h0h0l-0.2,0h0l-0.1,0l0,0
	c-0.2,0-0.5,0-0.7,0l0,0h0l0,0C294.9,347.5,292.8,347.2,290.9,346.7z"/>
</svg>
