<?xml version="1.0" encoding="utf-8"?>
<!-- Generator: Adobe Illustrator 19.0.0, SVG Export Plug-In . SVG Version: 6.00 Build 0)  -->
<svg version="1.1" id="icons" xmlns="http://www.w3.org/2000/svg" xmlns:xlink="http://www.w3.org/1999/xlink" x="0px" y="0px"
	 viewBox="0 0 252.2 425.9" style="enable-background:new 0 0 252.2 425.9;" xml:space="preserve">
<style type="text/css">
	.st0{fill-rule:evenodd;clip-rule:evenodd;fill:#94D0CF;}
	.st1{fill-rule:evenodd;clip-rule:evenodd;fill:#F5B9C3;}
	.st2{fill:#58373F;}
</style>
<path class="st0" d="M126.3,393.9c-7.2,0-13.1,5.9-13.1,13.1c0,7.2,5.9,13.1,13.1,13.1c7.2,0,13.1-5.9,13.1-13.1
	C139.4,399.8,133.5,393.9,126.3,393.9L126.3,393.9z M196.5,393.9c-7.2,0-13.1,5.9-13.1,13.1c0,7.2,5.9,13.1,13.1,13.1
	c7.2,0,13.1-5.9,13.1-13.1C209.6,399.8,203.8,393.9,196.5,393.9z M55.6,393.9c7.2,0,13.1,5.9,13.1,13.1c0,7.2-5.9,13.1-13.1,13.1
	c-7.2,0-13.1-5.9-13.1-13.1C42.5,399.8,48.4,393.9,55.6,393.9z"/>
<rect x="114.4" y="279.9" class="st0" width="23.4" height="84.8"/>
<polygon class="st1" points="143.6,236.7 143.6,199.3 125.4,199.3 108.2,199.3 108.2,236.7 "/>
<path class="st1" d="M50.6,236.7h150.9c9,0,16.4,8.4,16.4,18.6v6c0,10.2-7.4,18.6-16.4,18.6H50.6c-9,0-16.4-8.4-16.4-18.6v-6
	C34.3,245.1,41.6,236.7,50.6,236.7L50.6,236.7z M91.4,199.3h34h34c19.7,0,40.6-16.9,40.6-37.6c0-83.8-0.1-155.5-74.6-155.9
	C50.9,6.2,50.8,77.9,50.8,161.7C50.8,182.4,71.7,199.3,91.4,199.3z"/>
<path class="st2" d="M60.4,401.9c-1.3-1.3-3.2-2.2-5.2-2.2v0c-2,0-3.8,0.8-5.1,2.1l0,0c-1.3,1.3-2.1,3.1-2.1,5.2h0
	c0,2,0.8,3.8,2.2,5.1l0,0c1.3,1.3,3.2,2.1,5.2,2.1c2,0,3.8-0.8,5.1-2.1l0,0l0,0c1.3-1.3,2.1-3.1,2.1-5.1c0-1.9-0.7-3.6-1.9-4.9
	C60.6,402,60.5,401.9,60.4,401.9L60.4,401.9z M113.7,274.1c0.2,0,0.3,0,0.5,0h23.4c0.2,0,0.4,0,0.5,0h63.4v0c2.8,0,5.3-1.3,7.2-3.5
	c2.1-2.4,3.4-5.6,3.4-9.3v-6c0-7-4.8-12.8-10.6-12.8v0h-57.4c-0.2,0-0.3,0-0.5,0h-35.4v0h0H50.6v0c-5.8,0-10.6,5.8-10.6,12.8v6
	c0,7,4.8,12.8,10.6,12.8v0H113.7z M196.2,399.7c-2,0-3.8,0.8-5.1,2.1l0,0c-1.3,1.3-2.1,3.1-2.1,5.2h0c0,2,0.8,3.8,2.2,5.1
	c0.1,0.1,0.1,0.2,0.2,0.2c1.3,1.2,3,1.9,4.9,1.9c2,0,3.8-0.8,5.1-2.1l0,0c1.3-1.3,2.1-3.1,2.1-5.1c0-2-0.8-3.8-2.1-5.2l0,0
	C200,400.5,198.2,399.7,196.2,399.7L196.2,399.7z M125.9,399.7c-2,0-3.8,0.8-5.1,2.2c-0.1,0.1-0.1,0.1-0.2,0.2
	c-1.2,1.3-1.9,3-1.9,4.9c0,2,0.8,3.8,2.2,5.1c1.3,1.3,3.2,2.2,5.1,2.2c2,0,3.8-0.8,5.2-2.1l0,0c1.3-1.3,2.2-3.2,2.2-5.1h0
	c0-2-0.8-3.8-2.1-5.2l0,0l0,0C129.7,400.5,127.9,399.7,125.9,399.7z M224.4,258.5c0,1-0.3,2-0.7,2.8c0,6.5-2.4,12.5-6.3,16.9
	c-4,4.6-9.7,7.4-15.9,7.4v0h-58.1v76.2l58.8,26.8c0.5,0.2,1,0.5,1.4,0.9c2.2,1,4.3,2.3,6,4l0,0l0,0c3.4,3.4,5.5,8.1,5.5,13.3
	c0,5.2-2.1,9.9-5.5,13.3l0,0l0,0l0,0c-3.4,3.4-8.1,5.5-13.3,5.5c-5,0-9.6-2-13-5.2c-0.1-0.1-0.3-0.2-0.4-0.4
	c-3.4-3.4-5.5-8.1-5.5-13.4h0c0-5.2,2.1-9.9,5.5-13.3l0,0l0,0l0,0c0.2-0.2,0.5-0.5,0.7-0.7l-49.2-22.5h-2.9l0.1,18.5
	c2.9,0.9,5.5,2.5,7.6,4.6l0,0c3.4,3.4,5.5,8.2,5.5,13.3h0c0,5.2-2.1,10-5.5,13.4l0,0l0,0c-3.4,3.4-8.1,5.5-13.3,5.5
	c-5.2,0-10-2.1-13.4-5.5c-3.4-3.4-5.5-8.1-5.5-13.4c0-5,2-9.6,5.2-13c0.1-0.1,0.2-0.3,0.3-0.4c2.1-2.1,4.6-3.7,7.5-4.6l-0.1-18.6
	h-3.4l-48.7,22.4c0.3,0.2,0.5,0.5,0.8,0.7c0.1,0.1,0.2,0.3,0.4,0.4c3.2,3.4,5.2,7.9,5.2,13c0,5.2-2.1,9.9-5.5,13.3l0,0l0,0l0,0
	c-3.4,3.4-8.1,5.5-13.3,5.5c-5.2,0-9.9-2.1-13.3-5.5l0,0l0,0c-3.4-3.4-5.5-8.1-5.5-13.4h0c0-5.2,2.1-9.9,5.5-13.3l0,0l0,0l0,0
	c1.7-1.7,3.7-3,5.9-4c0.4-0.4,0.9-0.7,1.4-0.9l59.2-27.2v-75.8H50.6v0c-12.2,0-22.1-10.9-22.2-24.3c-0.5-0.8-0.7-1.8-0.7-2.8v-70.1
	H5.8c-3.2,0-5.8-2.6-5.8-5.8c0-3.2,2.6-5.8,5.8-5.8h27.7c3.2,0,5.8,2.6,5.8,5.8v51.7c3.3-2.2,7.2-3.4,11.3-3.4v0h51.8v-25.8H91.4
	c-11.6,0-23.5-5.1-32.3-13.2C50.7,184,45,173.4,45,161.7h0c0-42.4,0-81.7,9.6-111C64.8,19.8,85,0.2,125.4,0h0
	c40.3,0.2,60.6,19.8,70.7,50.7c9.6,29.3,9.6,68.6,9.6,111h0c0,11.7-5.7,22.3-14.1,30.1c-8.8,8.2-20.7,13.2-32.3,13.2h-10v25.8h52.1
	v0c4.1,0,8,1.3,11.3,3.4v-51.7c0-3.2,2.6-5.8,5.8-5.8h27.7c3.2,0,5.8,2.6,5.8,5.8c0,3.2-2.6,5.8-5.8,5.8h-21.9V258.5z M120,358.9
	h11.8v-73.2H120V358.9z M137.8,230.9v-25.8h-12.4H114v25.8H137.8z M91.4,193.5h34h18.2h15.8c8.7,0,17.7-3.9,24.5-10.1
	c6.2-5.7,10.3-13.3,10.3-21.6h0c0-41.4,0-79.8-9.1-107.4c-8.5-26-25.6-42.5-59.7-42.7c-34.1,0.2-51.2,16.7-59.7,42.7
	c-9.1,27.6-9.1,66.1-9.1,107.4h0c0,8.3,4.1,15.9,10.3,21.6C73.7,189.6,82.7,193.5,91.4,193.5z"/>
</svg>
