<?xml version="1.0" encoding="utf-8"?>
<!-- Generator: Adobe Illustrator 19.0.0, SVG Export Plug-In . SVG Version: 6.00 Build 0)  -->
<svg version="1.1" id="icons" xmlns="http://www.w3.org/2000/svg" xmlns:xlink="http://www.w3.org/1999/xlink" x="0px" y="0px"
	 viewBox="0 0 459.6 337.5" style="enable-background:new 0 0 459.6 337.5;" xml:space="preserve">
<style type="text/css">
	.st0{fill-rule:evenodd;clip-rule:evenodd;fill:#F5B9C3;}
	.st1{fill:#58373F;}
</style>
<polygon class="st0" points="191.4,5.8 268.9,5.8 243.9,59.4 216.3,59.4 "/>
<g>
	<path class="st0" d="M161.8,200.5c0,0.2,0,0.5,0,0.7c0,31.8,30.6,57.6,68.3,57.6c37.7,0,68.3-25.8,68.3-57.6c0-0.2,0-0.5,0-0.7
		H161.8z"/>
	<path class="st0" d="M453.8,200.5H317.2c0,0.2,0,0.5,0,0.7c0,31.8,30.6,57.6,68.3,57.6c37.7,0,68.3-25.8,68.3-57.6
		C453.8,200.9,453.8,200.7,453.8,200.5z"/>
	<path class="st0" d="M5.8,200.5c0,0.2,0,0.5,0,0.7c0,31.8,30.6,57.6,68.3,57.6c37.7,0,68.3-25.8,68.3-57.6c0-0.2,0-0.5,0-0.7H5.8z"
		/>
</g>
<g>
	<path class="st0" d="M230.1,258.8c-8.6,0-16.7-1.3-24.3-3.8h-2.4l17.1,36.8h19l17.1-36.8h-2.4C246.9,257.5,238.7,258.8,230.1,258.8
		z"/>
	<path class="st0" d="M409.7,255c-7.5,2.4-15.7,3.8-24.3,3.8c-8.6,0-16.7-1.3-24.3-3.8h-2.4l17.1,36.8h19l17.1-36.8H409.7z"/>
	<path class="st0" d="M74.1,258.8c-8.6,0-16.7-1.3-24.3-3.8h-2.4l17.1,36.8h19l17.1-36.8h-2.4C90.9,257.5,82.7,258.8,74.1,258.8z"/>
</g>
<path class="st1" d="M259.8,11.6h-59.3L220,53.5h20.2L259.8,11.6z M402,263c-5.3,1-10.9,1.6-16.5,1.6c-5.7,0-11.2-0.6-16.5-1.6
	l10.7,23.1h11.6L402,263z M246.7,263c-5.3,1-10.9,1.6-16.5,1.6c-5.7,0-11.2-0.6-16.5-1.6l10.7,23.1h11.6L246.7,263z M90.7,263
	c-5.3,1-10.9,1.6-16.5,1.6c-5.7,0-11.2-0.6-16.5-1.6l10.7,23.1h11.6L90.7,263z M207.3,249.4c0.2,0.1,0.5,0.1,0.7,0.2
	c6.4,2,13.3,3.2,20.4,3.3h0l0.1,0h0l0.6,0h0.1l0.1,0l0.1,0l0.2,0l0.2,0h0.1l0.3,0v0h0c17.5,0,33.2-5.9,44.6-15.5
	c9.7-8.2,16.2-19.1,17.6-31.2H167.9c1.4,12.1,7.9,23,17.6,31.2C191.7,242.6,199.1,246.7,207.3,249.4z M362.6,249.4
	c0.2,0.1,0.5,0.1,0.7,0.2c6.9,2.2,14.3,3.4,22.2,3.4c17.5,0,33.2-5.9,44.6-15.5c9.7-8.2,16.2-19.1,17.6-31.2H323.3
	c1.4,12.1,7.9,23,17.6,31.2C347,242.6,354.4,246.7,362.6,249.4z M391.9,297.7c-5.6,18.1-22.9,29.8-44.3,35.5
	c-10.6,2.9-22.4,4.3-34.2,4.2c-11.8,0-23.7-1.4-34.5-4.1c-22.9-5.7-41.9-17.4-48.3-34.4c-6.4,17-25.5,28.7-48.5,34.4
	c-10.9,2.7-22.8,4.1-34.6,4.1c-11.9,0-23.6-1.4-34.3-4.3c-21.5-5.8-38.8-17.4-44.4-35.5h-4.2c-2.5,0-4.6-1.5-5.4-3.7l-16.4-35.3
	c-7.7-3.1-14.7-7.3-20.7-12.3C8.4,234.8,0,218.9,0,201.2c0-0.8,0,0.1,0-0.5v0l0,0l0-0.2c0-3.2,2.6-5.7,5.8-5.7v0h136.6
	c3.2,0,5.8,2.6,5.8,5.8c0,0.1,0,0.2,0,0.4c0,0.2,0-0.4,0,0.3c0,17.7-8.4,33.7-22.1,45.2c-6,5.1-13,9.2-20.7,12.3l-16.6,35.6
	c-1,2.1-3.1,3.4-5.3,3.4v0h-2.3c5.6,12,18.8,20,34.9,24.3c9.8,2.6,20.5,3.9,31.3,3.9c10.8,0,21.8-1.3,31.8-3.8
	c18.1-4.5,33.3-13,39.3-24.8c-1.5-0.6-2.8-1.8-3.4-3.3l-16.4-35.3c-7.7-3.1-14.7-7.3-20.7-12.3c-13.6-11.5-22.1-27.5-22.1-45.2
	c0-0.8,0,0.1,0-0.5v0l0,0l0-0.2c0-3.2,2.6-5.7,5.8-5.7v0h62.5l0-129.5h-8c-2.5,0-4.6-1.5-5.4-3.7L186.2,8.2
	c-1.3-2.9-0.1-6.3,2.8-7.7c0.8-0.4,1.6-0.5,2.4-0.5v0h77.5c3.2,0,5.8,2.6,5.8,5.8c0,1-0.3,2-0.7,2.8l-24.7,53.2
	c-1,2.1-3.1,3.4-5.3,3.4v0h-8l0,129.5h62.5c3.2,0,5.8,2.6,5.8,5.8c0,0.1,0,0.2,0,0.4c0,0.2,0-0.4,0,0.3c0,17.7-8.4,33.7-22.1,45.2
	c-6,5.1-13,9.2-20.7,12.3l-16.6,35.6c-0.5,1.2-1.5,2.1-2.5,2.7c5.9,12,21.1,20.5,39.3,25.1c10,2.5,20.9,3.8,31.7,3.8
	c10.8,0,21.5-1.3,31.2-3.9c16-4.3,29.2-12.3,34.8-24.3H376c-2.5,0-4.6-1.5-5.4-3.7l-16.4-35.3c-7.7-3.1-14.7-7.3-20.7-12.3
	c-13.6-11.5-22.1-27.5-22.1-45.2c0-0.8,0,0.1,0-0.5v0v0l0-0.2c0-3.2,2.6-5.7,5.8-5.7v0h136.6c3.2,0,5.8,2.6,5.8,5.8
	c0,0.1,0,0.2,0,0.3c0,0.3,0-0.2,0,0.3c0,17.7-8.4,33.7-22.1,45.2c-6,5.1-13,9.2-20.7,12.3l-16.6,35.6c-1,2.1-3.1,3.4-5.3,3.4v0
	H391.9z M72.4,253L72.4,253L72.4,253l0.1,0l0.6,0h0.1l0.1,0l0.1,0l0.2,0l0.2,0h0.1l0.3,0v0c17.5,0,33.2-5.9,44.6-15.5
	c9.7-8.2,16.2-19.1,17.6-31.2H11.9c1.4,12.1,7.9,23,17.6,31.2C40.5,246.8,55.6,252.6,72.4,253z"/>
</svg>
