<?xml version="1.0" encoding="utf-8"?>
<!-- Generator: Adobe Illustrator 19.0.0, SVG Export Plug-In . SVG Version: 6.00 Build 0)  -->
<svg version="1.1" id="icons" xmlns="http://www.w3.org/2000/svg" xmlns:xlink="http://www.w3.org/1999/xlink" x="0px" y="0px"
	 viewBox="0 0 384.2 300.5" style="enable-background:new 0 0 384.2 300.5;" xml:space="preserve">
<style type="text/css">
	.st0{fill-rule:evenodd;clip-rule:evenodd;fill:#94D0CF;}
	.st1{fill-rule:evenodd;clip-rule:evenodd;fill:#CFE6E8;}
	.st2{fill:#58373F;}
</style>
<path class="st0" d="M192.6,152.5c19.4,0,35,31.9,35,71.1c0,39.3-15.7,71.1-35,71.1c-19.4,0-35-31.9-35-71.1
	C157.6,184.3,173.3,152.5,192.6,152.5L192.6,152.5z"/>
<path class="st1" d="M354.3,5.8h-93.9l-28.8,162.3h146.7L354.3,5.8z M29.8,5.8h93.9l28.8,162.3H5.8L29.8,5.8z"/>
<path class="st0" d="M319.4,168.1v32.3h-28.8v-32.3H319.4z M93.6,168.1v32.3H64.8v-32.3H93.6z"/>
<path class="st2" d="M70.6,194.6h17.2v-20.7H70.6V194.6z M64.3,162.3c0.2,0,0.3,0,0.5,0h28.8c0.2,0,0.3,0,0.5,0h51.6L118.8,11.6h-84
	L12.5,162.3H64.3z M187.1,217.4c0-0.1,0.1-0.2,0.2-0.2l0,0l0.1-0.1l0,0c0.1-0.1,0.2-0.2,0.2-0.3l0,0l0,0l0.1-0.1l0,0l0.1-0.1l0,0
	l0,0l0,0l0.1-0.1l0,0c0.5-0.5,1.1-0.9,1.8-1.2l0,0l0,0l0.1-0.1l0,0c0.6-0.2,1.2-0.4,1.9-0.4l0,0l0.1,0l0,0l0.1,0h0l0.1,0l0.1,0h0
	l0.1,0l0,0l0.1,0l0,0c0.6,0,1.3,0.2,1.9,0.4l0,0l0.1,0.1l0,0l0,0c0.6,0.3,1.2,0.7,1.8,1.2l0,0l0.1,0.1l0,0l0,0l0,0l0.1,0.1l0,0
	l0.1,0.1l0,0l0,0c0.1,0.1,0.2,0.2,0.2,0.3l0,0l0.1,0.1l0,0c0.1,0.1,0.1,0.2,0.2,0.2l0,0l0,0l0.1,0.1l0,0c6.3,11,14.4,19.6,23.3,25.8
	c0.9-6.2,1.4-12.9,1.4-19.8c0-18.8-3.7-35.6-9.7-47.7c-5.4-10.9-12.3-17.6-19.6-17.6c-7.3,0-14.2,6.7-19.6,17.6
	c-6,12.1-9.7,29-9.7,47.7c0,6.6,0.5,13.1,1.3,19.1c8.5-6.1,16.3-14.5,22.3-25.1l0,0L187.1,217.4L187.1,217.4L187.1,217.4z
	 M218,255.6c-9.6-5.8-18.5-14-25.9-24.4c-7.1,10-15.7,18-24.9,23.8c1.6,6.1,3.6,11.6,5.9,16.3c5.4,10.9,12.3,17.6,19.6,17.6
	c7.3,0,14.2-6.7,19.6-17.6C214.5,266.7,216.4,261.4,218,255.6z M296.4,194.6h17.2v-20.7h-17.2V194.6z M290.1,162.3
	c0.2,0,0.3,0,0.5,0h28.8c0.2,0,0.3,0,0.5,0h51.8L349.3,11.6h-84l-26.8,150.7H290.1z M325.2,173.9v20.7h6.7c3.2,0,5.8,2.6,5.8,5.8
	c0,3.2-2.6,5.8-5.8,5.8h-12.5l-0.1,0h-9.2c-0.3,18.6-5.9,32.8-14.6,42.8c-7.4,8.4-16.9,13.7-27.5,16.1c-10.3,2.3-21.6,1.7-32.7-1.6
	c-2.3-0.7-4.6-1.5-6.9-2.5c-1.6,5.7-3.6,10.9-5.9,15.5c-7.3,14.9-17.9,24.1-30,24.1c-12.1,0-22.6-9.2-30-24.1
	c-2.3-4.7-4.4-10.1-6-15.9c-2.6,1.1-5.3,2.1-7.9,2.9c-11.1,3.4-22.3,3.9-32.7,1.6c-10.5-2.4-20.1-7.7-27.5-16.1
	c-8.8-10-14.3-24.2-14.6-42.8h-9.2l-0.1,0H52.2c-3.2,0-5.8-2.6-5.8-5.8c0-3.2,2.6-5.8,5.8-5.8H59v-20.7H5.8c-3.2,0-5.8-2.6-5.8-5.8
	c0-0.3,0-0.6,0.1-0.8l0,0L24.1,5c0.4-2.9,2.9-5,5.7-5v0h93.9c2.9,0,5.3,2.2,5.7,5l28.8,162.1c0.6,3.2-1.6,6.2-4.7,6.7
	c-0.5,0.1-1,0.1-1.5,0.1H99.4v20.7h6.7c3.2,0,5.8,2.6,5.8,5.8c0,3.2-2.6,5.8-5.8,5.8H93.7l-0.1,0h-8c0.3,15.5,4.7,27.2,11.8,35.2
	c5.7,6.5,13.1,10.6,21.2,12.4c8.4,1.9,17.7,1.4,26.8-1.4c2.9-0.9,5.8-2,8.6-3.3c-1.4-8-2.2-16.5-2.2-25.4c0-20.5,4.2-39.2,10.9-52.9
	c7.3-14.9,17.9-24.1,30-24.1c12.1,0,22.6,9.2,30,24.1c6.7,13.6,10.9,32.3,10.9,52.9c0,9.1-0.8,17.8-2.3,25.9
	c2.5,1.1,5.1,2.1,7.6,2.9c9.2,2.8,18.4,3.3,26.8,1.4c8.2-1.8,15.6-5.9,21.2-12.4c7-8,11.5-19.7,11.8-35.2h-8l-0.1,0H278
	c-3.2,0-5.8-2.6-5.8-5.8c0-3.2,2.6-5.8,5.8-5.8h6.8v-20.7h-52.7c-0.5,0-1,0-1.5-0.1c-3.2-0.6-5.3-3.6-4.7-6.7l28.8-162
	c0.4-2.9,2.8-5.1,5.8-5.1h93.9v0c2.8,0,5.3,2.1,5.7,5l24,162.3l0,0c0,0.3,0.1,0.6,0.1,0.8c0,3.2-2.6,5.8-5.8,5.8H325.2z"/>
</svg>
