<?xml version="1.0" encoding="utf-8"?>
<!-- Generator: Adobe Illustrator 19.0.0, SVG Export Plug-In . SVG Version: 6.00 Build 0)  -->
<svg version="1.1" id="icons" xmlns="http://www.w3.org/2000/svg" xmlns:xlink="http://www.w3.org/1999/xlink" x="0px" y="0px"
	 viewBox="0 0 307 461.7" style="enable-background:new 0 0 307 461.7;" xml:space="preserve">
<style type="text/css">
	.st0{fill-rule:evenodd;clip-rule:evenodd;fill:#E6AC6C;}
	.st1{fill:#58373F;}
</style>
<g>
	<polygon class="st0" points="42.2,5.8 264,5.8 264,420.5 235,420.5 235,34.8 71.2,34.8 71.2,420.5 42.2,420.5 	"/>
	<polygon class="st0" points="235,34.8 139.7,70.2 139.7,455.9 235,420.5 	"/>
	<path class="st1" d="M258.2,11.6H48v403.1h17.4V34.8c0-3.2,2.6-5.8,5.8-5.8H235c3.2,0,5.8,2.6,5.8,5.8v379.9h17.4V11.6z M170.5,267
		c0,3.2-2.6,5.8-5.8,5.8c-3.2,0-5.8-2.6-5.8-5.8v-36.3c0-3.2,2.6-5.8,5.8-5.8c3.2,0,5.8,2.6,5.8,5.8V267z M229.2,416.5V43.2
		l-83.8,31v373.3L229.2,416.5z M41.6,426.3H5.8c-3.2,0-5.8-2.6-5.8-5.8c0-3.2,2.6-5.8,5.8-5.8h30.6V5.8C36.4,2.6,39,0,42.2,0H264
		c3.2,0,5.8,2.6,5.8,5.8v408.9h31.3c3.2,0,5.8,2.6,5.8,5.8c0,3.2-2.6,5.8-5.8,5.8h-36.6c-0.2,0-0.3,0-0.5,0h-28l-94,34.9
		c-0.7,0.3-1.5,0.5-2.3,0.5c-3.2,0-5.8-2.6-5.8-5.8V70.2h0c0-2.4,1.5-4.6,3.8-5.4l65-24.1H77v379.9c0,3.2-2.6,5.8-5.8,5.8h-29
		C42,426.3,41.8,426.3,41.6,426.3z"/>
</g>
</svg>
