<?xml version="1.0" encoding="utf-8"?>
<!-- Generator: Adobe Illustrator 19.0.0, SVG Export Plug-In . SVG Version: 6.00 Build 0)  -->
<svg version="1.1" xmlns="http://www.w3.org/2000/svg" xmlns:xlink="http://www.w3.org/1999/xlink" x="0px" y="0px"
	 viewBox="0 0 230.5 500" style="enable-background:new 0 0 230.5 500;" xml:space="preserve">
<style type="text/css">
	.st0{fill-rule:evenodd;clip-rule:evenodd;fill:#94D0CF;}
	.st1{fill:#58373F;}
</style>
<g id="background">
</g>
<g id="icons">
	<g>
		<rect x="6.8" y="6.8" class="st0" width="217" height="486.5"/>
		<path class="st1" d="M46.1,152.8c0,3.7-3,6.8-6.8,6.8c-3.7,0-6.8-3-6.8-6.8v-42.3c0-3.7,3-6.8,6.8-6.8c3.7,0,6.8,3,6.8,6.8V152.8z
			 M13.5,176.4H217V13.5H13.5V176.4z M223.7,500H6.8C3,500,0,497,0,493.2V6.8C0,3,3,0,6.8,0h217c3.7,0,6.8,3,6.8,6.8v486.5
			C230.5,497,227.5,500,223.7,500z M217,475.3H13.5v11.2H217V475.3z M13.5,461.8H217V189.9H13.5V461.8z M32.6,213.5
			c0-3.7,3-6.8,6.8-6.8c3.7,0,6.8,3,6.8,6.8v42.3c0,3.7-3,6.8-6.8,6.8c-3.7,0-6.8-3-6.8-6.8V213.5z"/>
	</g>
</g>
</svg>
