<?xml version="1.0" encoding="utf-8"?>
<!-- Generator: Adobe Illustrator 19.0.0, SVG Export Plug-In . SVG Version: 6.00 Build 0)  -->
<svg version="1.1" id="icons" xmlns="http://www.w3.org/2000/svg" xmlns:xlink="http://www.w3.org/1999/xlink" x="0px" y="0px"
	 viewBox="0 0 329 453.2" style="enable-background:new 0 0 329 453.2;" xml:space="preserve">
<style type="text/css">
	.st0{fill:#E6AC6C;}
	.st1{fill-rule:evenodd;clip-rule:evenodd;fill:#9ACC9A;}
	.st2{fill:#58373F;}
</style>
<g>
	<polygon class="st0" points="5.8,5.8 5.8,110.2 5.8,214.6 5.8,319 5.8,423.4 323.1,423.4 323.1,319 323.1,214.6 323.1,110.2 
		323.1,5.8 	"/>
	<polygon class="st0" points="10.9,447.9 37.1,447.9 41.3,425.4 6,425.4 	"/>
	<polygon class="st0" points="293.9,447.3 321.3,445.5 323.1,423.4 287.8,424.2 	"/>
</g>
<path class="st1" d="M93.5,340.7h29.2v82.6H93.5h0H64.3h0H35h0H5.8v-82.6H35h0h29.2h0H93.5L93.5,340.7z M293.9,234h29.2v85h-29.2h0
	h-29.2h-29.2h-29.2h0H177h0h-29.2h0h-29.2v-85h29.2v9.7H177V234h29.2v10.2h29.2V234h29.2v6.6h29.2V234z M33.6,289.7v-29.2h85v29.2
	H90.8V319h-85v-29.2H33.6z M293.9,129.6h29.2v85h-29.2h0h-29.2h-29.2h-29.2h0H177h0h-29.2h0h-29.2v-85h29.2v11.1H177v-11.1h29.2
	v12.2h29.2v-2.1h29.2v-10.1H293.9L293.9,129.6z M93.5,25.2h29.2v85H93.5h0H64.3h0H35h0H5.8v-85H35h0h29.2v9.9h29.2V25.2z M134,31.5
	l23.2-8.3l24.1,67.6l-23.2,8.3L134,31.5z M217.6,81V51.7h85V81H290v29.2h-85V81H217.6z M177.5,423.4v-27.9h12.6v-27.9h-10.5v-27.9
	h85v27.9H275v27.9h-12.6v27.9H177.5z"/>
<path class="st2" d="M142,208.8v-68l0,0v-5.3h-17.6v73.3H142z M171.2,208.8v-62.2h-17.6v62.2H171.2z M182.8,140.7L182.8,140.7
	l0,68.1h17.6v-73.3h-17.6V140.7z M229.7,208.8v-61.2h-17.6v61.2H229.7z M258.9,208.8v-63.3h-17.6v63.3H258.9z M288.1,208.8v-73.3
	h-17.6v4.2l0,0v69.1H288.1z M299.7,135.4v73.3h17.6v-73.3H299.7z M256.6,401.3h-66.5l-0.1,0h-6.8v16.3h73.3V401.3z M264.6,373.4
	L264.6,373.4h-68.7v16.3h66.5l0,0h6.8v-16.3H264.6z M190.1,361.8L190.1,361.8l68.7,0v-16.3h-73.3v16.3H190.1z M99.3,346.5v71h17.6
	v-71H99.3z M70.1,346.5v71h17.6v-71H70.1z M29.2,346.5H11.6v71h17.6V346.5z M35,429.2H12.6l1.9,12.4h18.8l1.9-12.4H35L35,429.2z
	 M316.4,429.2h-22.6l1.9,12.4h18.8L316.4,429.2z M40.8,346.5v71h17.6v-71H40.8z M299.7,240.6L299.7,240.6l0,72.6h17.6v-73.3h-17.6
	V240.6z M270.5,246.4v66.8h17.6v-66.8H270.5z M241.3,244.2L241.3,244.2L241.3,244.2v68.9h17.6v-72.6v0v-0.7h-17.6V244.2z
	 M212.1,250.1v63.1h17.6v-63.1H212.1z M182.8,243.7L182.8,243.7l0,69.5h17.6v-73.3h-17.6V243.7z M142,239.8h-17.6v73.3H142v-69.4
	l0,0V239.8z M153.6,249.5v63.6h17.6v-63.6H153.6z M39.4,266.3v17.6h51.3h0h22v-17.6H39.4z M85,295.6H33.6l0,0h-22v17.6H85V295.6z
	 M96.6,313.2h16.2v-17.6H96.6V313.2z M317.3,220.4h-23.4h0h-29.2h-29.2h-29.2h0H177h0h-29.2h0h-29.2h-107v63.6h16.2v-23.4
	c0-3.2,2.6-5.8,5.8-5.8h79.2V234c0-3.2,2.6-5.8,5.8-5.8h29.2c3.2,0,5.8,2.6,5.8,5.8v3.9h17.6V234c0-3.2,2.6-5.8,5.8-5.8h29.2
	c3.2,0,5.8,2.6,5.8,5.8v4.4h17.6V234c0-3.2,2.6-5.8,5.8-5.8h29.2c3.2,0,5.8,2.6,5.8,5.8v0.8h17.6V234c0-3.2,2.6-5.8,5.8-5.8h23.4
	V220.4z M118.6,123.8h29.2c3.2,0,5.8,2.6,5.8,5.8v5.3h17.6v-5.3c0-3.2,2.6-5.8,5.8-5.8h29.2c3.2,0,5.8,2.6,5.8,5.8v6.4H231
	c1.1-1.3,2.7-2.1,4.5-2.1h23.4v-4.3c0-3.2,2.6-5.8,5.8-5.8h29.2h0h23.4V116H122.7H93.5h0H64.3h0H35h0H11.6v92.8h101.2v-79.1
	C112.8,126.4,115.4,123.8,118.6,123.8z M5.8,0h317.3c3.2,0,5.8,2.6,5.8,5.8v104.4v19.4v85V234v85v104.4v0v0l0,0v0v0l0,0v0v0v0l0,0v0
	l0,0.1l0,0l0,0l0,0l0,0v0l0,0l0,0l0,0l0,0l0,0.2l0,0c0,0.2-0.1,0.5-0.1,0.7l0,0l-3.7,23.5c-0.4,2.9-2.9,4.9-5.7,4.9v0h-28.7
	c-3.1,0-5.6-2.4-5.8-5.4l-2.9-18.6H122.7H93.5h0H64.3h0H46.9l-3,19.1c-0.4,2.9-3,5-5.9,4.9H9.5c-2.9,0-5.4-2.2-5.7-5.1l-3.6-23.4
	c-0.1-0.4-0.2-0.8-0.2-1.3v0l0-0.1V319V214.6V110.2V5.8C0,2.6,2.6,0,5.8,0z M223.4,57.5v17.6H290l0,0h6.8V57.5H223.4z M284.1,86.8
	h-66.5l-0.1,0h-6.8v17.6h73.3V86.8z M153.8,30.6L141.4,35l20.2,56.6l12.3-4.4L153.8,30.6z M128.5,33.3v71.1h27.4
	c-1.4-0.6-2.6-1.8-3.2-3.4l-24.1-67.6L128.5,33.3z M99.3,35.1L99.3,35.1v69.3h17.6V31H99.3V35.1z M70.1,40.9v63.4h17.6V40.9H70.1z
	 M29.2,31H11.6v73.3h17.6V31z M40.8,31v73.3h17.6V35.1l0,0V31H40.8z M11.6,19.4H35h0h29.2c3.2,0,5.8,2.6,5.8,5.8v4.1h17.6v-4.1
	c0-3.2,2.6-5.8,5.8-5.8h29.2c3.2,0,5.8,2.6,5.8,5.8v4.5c0.5-1.6,1.8-3,3.6-3.7l23.2-8.3c3-1.1,6.3,0.5,7.4,3.5l24.1,67.6
	c1.1,3-0.5,6.3-3.5,7.4l-22.9,8.2h38.7V81c0-3.2,2.6-5.8,5.8-5.8h6.8V51.7c0-3.2,2.6-5.8,5.8-5.8h85c3.2,0,5.8,2.6,5.8,5.8V81
	c0,3.2-2.6,5.8-5.8,5.8h-6.8v17.6h21.6V11.6H11.6V19.4z M171.7,417.6v-22.1c0-3.2,2.6-5.8,5.8-5.8h6.8v-16.3h-4.7
	c-3.2,0-5.8-2.6-5.8-5.8v-27.9c0-3.2,2.6-5.8,5.8-5.8h85c3.2,0,5.8,2.6,5.8,5.8v22.1h4.7c3.2,0,5.8,2.6,5.8,5.8v27.9
	c0,3.2-2.6,5.8-5.8,5.8h-6.8v16.3h49.1v-92.8h-23.4h0h-29.2h-29.2h-29.2h0H177h0h-29.2h0h-29.2h-107v10.2H35h0h29.2h0h29.2h0h29.2
	c3.2,0,5.8,2.6,5.8,5.8v76.8H171.7z"/>
</svg>
