<?xml version="1.0" encoding="utf-8"?>
<!-- Generator: Adobe Illustrator 19.0.0, SVG Export Plug-In . SVG Version: 6.00 Build 0)  -->
<svg version="1.1" id="icons" xmlns="http://www.w3.org/2000/svg" xmlns:xlink="http://www.w3.org/1999/xlink" x="0px" y="0px"
	 viewBox="0 0 466.2 418.3" style="enable-background:new 0 0 466.2 418.3;" xml:space="preserve">
<style type="text/css">
	.st0{fill-rule:evenodd;clip-rule:evenodd;fill:#94D0CF;}
	.st1{fill-rule:evenodd;clip-rule:evenodd;fill:#CFE6E8;}
	.st2{fill-rule:evenodd;clip-rule:evenodd;fill:#F5B9C3;}
	.st3{fill:#58373F;}
</style>
<g>
	<rect x="5.8" y="5.8" class="st0" width="103.3" height="141"/>
	<rect x="109.2" y="5.8" class="st0" width="103.3" height="141"/>
	<rect x="357" y="5.8" class="st0" width="103.3" height="141"/>
</g>
<polygon class="st1" points="212.5,244.2 212.5,279.8 212.5,381.8 357.1,381.8 357.1,279.8 357.1,244.2 "/>
<rect x="5.8" y="223.2" class="st2" width="454.6" height="20.9"/>
<path class="st2" d="M255.2,90.6V5.8h57.9v84.8c-9.7-1-19.3-1.6-28.9-1.6C274.6,89,264.9,89.6,255.2,90.6L255.2,90.6z"/>
<path class="st2" d="M284.2,89c-22.7,0-45.8,3.3-67.9,8.2l7.1,10.6H345l7.1-10.6C330,92.2,306.8,89,284.2,89L284.2,89z"/>
<g>
	<polygon class="st0" points="109.2,244.2 5.8,244.2 5.8,412.5 109.2,412.5 109.2,412.5 212.5,412.5 212.5,244.2 109.2,244.2 	"/>
	<polygon class="st0" points="357.1,244.2 357.1,381.8 212.6,381.8 212.6,412.5 357.1,412.5 357.1,412.5 460.4,412.5 460.4,244.2 	
		"/>
</g>
<g>
	<path class="st3" d="M0,146.8c0,3.2,2.6,5.8,5.8,5.8v0h103.3h0h103.3c3.2,0,5.8-2.6,5.8-5.8c0-0.2,0-0.3,0-0.5v-35.7l0.2,0.3
		c1.1,1.7,2.9,2.6,4.8,2.6v0H345c2.2,0,4.1-1.2,5.1-3l1.2-1.7v38.1c0,3.2,2.6,5.8,5.8,5.8v0h103.3c3.2,0,5.8-2.6,5.8-5.8
		c0-0.2,0-0.3,0-0.5V5.8c0-3.2-2.6-5.8-5.8-5.8v0H357c-3.2,0-5.8,2.6-5.8,5.8c0,0.2,0,0.4,0,0.5V91c-10.7-2.3-21.5-4.2-32.2-5.6
		l-0.1,0V5.8c0-3.2-2.6-5.8-5.8-5.8h-57.9c-3.2,0-5.8,2.6-5.8,5.8v79.6l-0.1,0c-10.3,1.3-20.7,3.1-31,5.3v-85c0-3.2-2.6-5.8-5.8-5.8
		v0H109.2h0H5.8C2.6,0,0,2.6,0,5.8C0,6,0,6.2,0,6.3V146.8z M362.8,11.6h91.8V141h-91.8V11.6z M261,11.6h46.3v72.6
		c-7.7-0.7-15.5-1-23.1-1c-7.7,0-15.4,0.4-23.1,1V11.6z M250.7,97c10.4-1.3,20.8-2.1,31.2-2.2l0.2,0h0l0.2,0l0.2,0h0l0.7,0l0.2,0
		h0.7h0.7l0.2,0l0.7,0h0l0.2,0l0.2,0h0l0.2,0c8.6,0.1,17.2,0.6,25.8,1.6l0,0l0,0l0,0l0,0c0.1,0,0.3,0,0.4,0h0l0,0l0,0l0,0
		c1.6,0.2,3.3,0.4,4.9,0.6c8.4,1.1,16.7,2.4,24.9,4.1l-0.6,0.9H226.4l-0.6-0.9C234,99.4,242.3,98,250.7,97z M114.9,11.6h91.8V141
		h-91.8V11.6z M11.6,11.6h91.8V141H11.6V11.6z"/>
	<path class="st3" d="M421.7,119.5h-25.9c-3.2,0-5.8,2.6-5.8,5.8c0,3.2,2.6,5.8,5.8,5.8h25.9c3.2,0,5.8-2.6,5.8-5.8
		C427.5,122.1,424.9,119.5,421.7,119.5z"/>
	<path class="st3" d="M70.4,119.5H44.5c-3.2,0-5.8,2.6-5.8,5.8c0,3.2,2.6,5.8,5.8,5.8h25.9c3.2,0,5.8-2.6,5.8-5.8
		C76.2,122.1,73.6,119.5,70.4,119.5z"/>
	<path class="st3" d="M173.8,119.5h-25.9c-3.2,0-5.8,2.6-5.8,5.8c0,3.2,2.6,5.8,5.8,5.8h25.9c3.2,0,5.8-2.6,5.8-5.8
		C179.6,122.1,177,119.5,173.8,119.5z"/>
	<ellipse class="st3" cx="233.4" cy="262" rx="7.1" ry="6.9"/>
	<ellipse class="st3" cx="271" cy="262" rx="7.1" ry="6.9"/>
	<path class="st3" d="M395.8,271.5h25.9c3.2,0,5.8-2.6,5.8-5.8c0-3.2-2.6-5.8-5.8-5.8h-25.9c-3.2,0-5.8,2.6-5.8,5.8
		C390,268.9,392.6,271.5,395.8,271.5z"/>
	<path class="st3" d="M460.4,217.5H71.7l12.1-11.5c2.3-2.2,2.4-5.9,0.2-8.2c-2.2-2.3-5.9-2.4-8.2-0.2l-6.9,6.6
		c-0.2-14.1,0.9-27.4,8.4-28.9c2-0.4,3.6-0.3,4.9,0.3c1.2,0.5,2.1,1.4,2.7,2.5c1.5,2.8,5,3.9,7.8,2.4c2.8-1.5,3.9-5,2.4-7.8
		c-1.9-3.6-4.8-6.3-8.5-7.9c-3.4-1.4-7.4-1.8-11.6-1c-15.7,3.1-17.9,21-17.8,39.4l-6-5.7c-2.3-2.2-6-2.1-8.2,0.2
		c-2.2,2.3-2.1,6,0.2,8.2l12.1,11.5H6.3c-0.2,0-0.3,0-0.5,0c-3.2,0-5.8,2.6-5.8,5.8v20.9v168.3c0,3.2,2.6,5.8,5.8,5.8h103.3h0h103.3
		h144.6h0h103.3c3.2,0,5.8-2.6,5.8-5.8V244.2v-20.9h0C466.2,220,463.6,217.5,460.4,217.5z M103.3,406.7H11.6V250h91.7V406.7z
		 M206.7,279.8v102v24.9H115V250h91.7V279.8z M351.2,406.7H218.3v-19.1h132.9V406.7z M351.2,376H218.3v-90.4h132.9V376z M351.2,274
		H218.3v-24h132.9V274z M454.6,406.7h-91.7V250h91.7V406.7z M454.6,238.4h-97.5h0H212.5H109.2h0H11.6V229h443V238.4z"/>
	<path class="st3" d="M44.5,271.5h25.9c3.2,0,5.8-2.6,5.8-5.8c0-3.2-2.6-5.8-5.8-5.8H44.5c-3.2,0-5.8,2.6-5.8,5.8
		C38.7,268.9,41.3,271.5,44.5,271.5z"/>
	<ellipse class="st3" cx="292.5" cy="262" rx="7.1" ry="6.9"/>
	<path class="st3" d="M232.6,307.1h103.2c3.2,0,5.8-2.6,5.8-5.8c0-3.2-2.6-5.8-5.8-5.8H232.6c-3.2,0-5.8,2.6-5.8,5.8
		C226.8,304.5,229.4,307.1,232.6,307.1z"/>
	<path class="st3" d="M147.9,271.5h25.9c3.2,0,5.8-2.6,5.8-5.8c0-3.2-2.6-5.8-5.8-5.8h-25.9c-3.2,0-5.8,2.6-5.8,5.8
		C142.1,268.9,144.7,271.5,147.9,271.5z"/>
	<ellipse class="st3" cx="335" cy="262" rx="7.1" ry="6.9"/>
	<ellipse class="st3" cx="313.4" cy="262" rx="7.1" ry="6.9"/>
</g>
</svg>
