<?xml version="1.0" encoding="utf-8"?>
<!-- Generator: Adobe Illustrator 19.0.0, SVG Export Plug-In . SVG Version: 6.00 Build 0)  -->
<svg version="1.1" id="icons" xmlns="http://www.w3.org/2000/svg" xmlns:xlink="http://www.w3.org/1999/xlink" x="0px" y="0px"
	 viewBox="0 0 319.1 412.2" style="enable-background:new 0 0 319.1 412.2;" xml:space="preserve">
<style type="text/css">
	.st0{fill-rule:evenodd;clip-rule:evenodd;fill:#CFE6E8;}
	.st1{fill:#1D1D1B;}
	.st2{fill-rule:evenodd;clip-rule:evenodd;fill:#FFFFFF;}
	.st3{fill:#58373F;}
</style>
<path class="st0" d="M5.8,5.8h307.4v22H5.8V5.8z M5.8,383.8h307.4v22.6H5.8V383.8z"/>
<polygon class="st0" points="23.1,383.8 100.7,383.8 218.4,383.8 296,383.8 296,27.8 218.4,27.8 100.7,27.8 23.1,27.8 "/>
<path class="st1" d="M296,389.6H23.1c-3.2,0-5.8-2.6-5.8-5.8v-356c0-3.2,2.6-5.8,5.8-5.8H296c3.2,0,5.8,2.6,5.8,5.8v356
	C301.8,387,299.2,389.6,296,389.6L296,389.6z M28.9,378h261.3V33.6H28.9V378z"/>
<path class="st2" d="M194,179.3c0,9-5.5,16.6-10.2,17.3v42.6h-21.2v-42.6c-8.2-2.9-10.7-8.4-10.7-17.3
	C151.9,152.9,194,152.3,194,179.3L194,179.3z"/>
<path class="st3" d="M168.4,207.4h9.6v-10.7h0c0-2.8,2.1-5.3,5-5.7c0.7-0.1,1.9-1.3,3-3.2c1.3-2.2,2.2-5.2,2.2-8.4
	c0-6.9-3.8-11.2-8.6-13.1c-2-0.8-4.3-1.2-6.5-1.2c-2.2,0-4.5,0.4-6.5,1.2l0,0l0,0c-4.9,1.9-8.8,6.3-8.8,13c0,3.5,0.4,6.2,1.5,8
	c0.9,1.6,2.5,2.8,5.1,3.7c2.4,0.7,4.2,2.9,4.2,5.6V207.4z M156.8,218.9h-15.4c-0.2,37.9,5.2,63.7,11.8,75.1c1.6,2.8,2.9,4.3,3.8,4.4
	c0.3,0,1.1-0.8,2.2-2.6c4.6-7.3,8.3-23.8,9.3-50.8h-5.9c-3.2,0-5.8-2.6-5.8-5.8V218.9z M178,218.9h-9.6v14.5h9.6V218.9z M241.1,114
	c-1.5-2.9-0.3-6.3,2.5-7.8c2.9-1.5,6.3-0.3,7.8,2.5l23.4,45.8c1.5,2.9,0.3,6.3-2.5,7.8c-2.9,1.5-6.3,0.3-7.8-2.5L241.1,114z
	 M236,154.4c-1.5-2.9-0.3-6.3,2.5-7.8c2.9-1.5,6.3-0.3,7.8,2.5l36.5,71.5c1.5,2.9,0.3,6.3-2.5,7.8c-2.9,1.5-6.3,0.3-7.8-2.5
	L236,154.4z M231.6,196c-1.5-2.9-0.3-6.3,2.5-7.8c2.9-1.5,6.3-0.3,7.8,2.5l36.5,71.5c1.5,2.9,0.3,6.3-2.5,7.8
	c-2.9,1.5-6.3,0.3-7.8-2.5L231.6,196z M235.4,257c-1.5-2.9-0.3-6.3,2.5-7.8c2.9-1.5,6.3-0.3,7.8,2.5l23.4,45.8
	c1.5,2.9,0.3,6.3-2.5,7.8c-2.9,1.5-6.3,0.3-7.8-2.5L235.4,257z M43.5,114c-1.5-2.9-0.3-6.3,2.5-7.8c2.9-1.5,6.3-0.3,7.8,2.5
	l23.4,45.8c1.5,2.9,0.3,6.3-2.5,7.8c-2.9,1.5-6.3,0.3-7.8-2.5L43.5,114z M38.3,154.4c-1.5-2.9-0.3-6.3,2.5-7.8
	c2.9-1.5,6.3-0.3,7.8,2.5l36.5,71.5c1.5,2.9,0.3,6.3-2.5,7.8c-2.9,1.5-6.3,0.3-7.8-2.5L38.3,154.4z M33.9,196
	c-1.5-2.9-0.3-6.3,2.5-7.8c2.9-1.5,6.3-0.3,7.8,2.5l36.5,71.5c1.5,2.9,0.3,6.3-2.5,7.8c-2.9,1.5-6.3,0.3-7.8-2.5L33.9,196z
	 M37.8,257c-1.5-2.9-0.3-6.3,2.5-7.8c2.9-1.5,6.3-0.3,7.8,2.5l23.4,45.8c1.5,2.9,0.3,6.3-2.5,7.8c-2.9,1.5-6.3,0.3-7.8-2.5L37.8,257
	z M307.5,11.6H11.6V22h295.8V11.6z M296,389.6L296,389.6l-77.7,0l0,0H100.7l0,0H23.1l0,0H11.6v11h295.8v-11H296z M224.2,378h66V33.6
	h-66V378z M106.5,378h106V33.6h-106V378z M28.9,378h66V33.6h-66V378z M5.8,378h11.5V33.6H5.8C2.6,33.6,0,31,0,27.8v-22
	C0,2.6,2.6,0,5.8,0h307.4c3.2,0,5.8,2.6,5.8,5.8v22c0,3.2-2.6,5.8-5.8,5.8h-11.5V378h11.5c3.2,0,5.8,2.6,5.8,5.8v22.6
	c0,3.2-2.6,5.8-5.8,5.8H5.8c-3.2,0-5.8-2.6-5.8-5.8v-22.6C0,380.6,2.6,378,5.8,378z M190.5,207.4c3.2,0,5.8,2.6,5.8,5.8
	c0,3.2-2.6,5.8-5.8,5.8h-0.9v20.3c0,3.2-2.6,5.8-5.8,5.8h-3.7c-1.1,29.5-5.5,48.1-11.1,56.9c-3.8,6-8.4,8.6-13.5,7.9
	c-4.6-0.6-8.8-4-12.3-10c-7.5-12.9-13.6-40.8-13.4-80.9H128c-3.2,0-5.8-2.6-5.8-5.8c0-3.2,2.6-5.8,5.8-5.8h28.8v-7
	c-3.4-1.8-5.9-4.2-7.7-7.3c-2.2-3.8-3.1-8.4-3.1-13.8c0-12.3,7.1-20.3,16.3-23.8l0,0c3.4-1.3,7-2,10.7-2c3.6,0,7.3,0.6,10.7,1.9
	c9,3.5,16,11.4,16,23.9c0,5.3-1.6,10.3-3.8,14.2c-1.7,2.9-3.9,5.3-6.3,6.9v7H190.5z"/>
</svg>
