<?xml version="1.0" encoding="utf-8"?>
<!-- Generator: Adobe Illustrator 19.0.0, SVG Export Plug-In . SVG Version: 6.00 Build 0)  -->
<svg version="1.1" id="icons" xmlns="http://www.w3.org/2000/svg" xmlns:xlink="http://www.w3.org/1999/xlink" x="0px" y="0px"
	 viewBox="0 0 339.8 409.4" style="enable-background:new 0 0 339.8 409.4;" xml:space="preserve">
<style type="text/css">
	.st0{fill-rule:evenodd;clip-rule:evenodd;fill:#E6AC6C;}
	.st1{fill-rule:evenodd;clip-rule:evenodd;fill:#94D0CF;}
	.st2{fill:#58373F;}
</style>
<g>
	<path class="st0" d="M118.2,191.4c-4.7,9.8-14.8,16.5-26.4,16.5c-16.2,0-29.3-13.1-29.3-29.3c0-4.3,0.9-8.4,2.6-12.1L118.2,191.4z"
		/>
	<g>
		<path class="st1" d="M175.9,218.5c18.8-40.1,11.6-88.1-16.2-116.9c0.5,0.5,0.9,1,1.4,1.5L189,43.4c4.5-9.6,0.3-20.8-9.2-25.3
			l-18.9-8.9c-1.5-0.7-3.1-1.5-4.7-2.1c-9.3-3.5-19.9,0.7-24.2,9.8l-27.9,59.4c0.8,0,1.6,0.1,2.3,0.2c-40-3.1-81.7,22-100.6,62.2v0
			L175.9,218.5L175.9,218.5z"/>
		<rect x="112.4" y="373.8" class="st1" width="221.6" height="29.7"/>
	</g>
	<path class="st2" d="M328.2,379.6h-210v18.2h210V379.6z M109.8,193.8l-4.4-2.1l-36.7-17.2c-0.2,1.3-0.3,2.7-0.3,4.1
		c0,6.5,2.6,12.4,6.9,16.6c4.2,4.2,10.1,6.9,16.6,6.9c4.6,0,8.9-1.3,12.5-3.5C106.4,197.3,108.2,195.7,109.8,193.8z M145.6,96.8
		c-8-5.9-17.2-10.2-26.9-12.6c-18.2-4.5-37.4-2.1-54.7,5.3c-20.7,8.9-39,25.2-50.4,46.4l159.3,74.8c9.1-22.6,9.8-47.4,3.3-69.1
		c-3.8-12.7-10.3-24.8-19.3-34.6C153.4,103.2,149.7,99.8,145.6,96.8z M171,95.5c27.9,11.6,50.7,25.5,66,62.1
		c15.8,37.8,23.2,100,19.1,210.5H334c3.2,0,5.8,2.6,5.8,5.8h0v29.7c0,3.2-2.6,5.8-5.8,5.8c-0.2,0-0.3,0-0.5,0H112.4
		c-3.2,0-5.8-2.6-5.8-5.8h0v-29.7c0-3.2,2.6-5.8,5.8-5.8c0.2,0,0.4,0,0.5,0h131.6c4.1-108.8-2.9-169.7-18.2-206
		c-12.4-29.5-30.6-42.7-53-52.9c6.1,8.8,10.8,18.7,13.9,29.1c7.9,26.1,6.3,56-6.2,82.7c-0.3,0.6-0.7,1.2-1.1,1.6l0,0l0,0
		c-1.9,1.9-4.8,2.2-7,0.9l-52.4-24.6c-2.7,3.8-6.1,7-10.1,9.5c-5.4,3.4-11.8,5.4-18.6,5.4c-9.7,0-18.5-3.9-24.8-10.3
		c-6.4-6.4-10.3-15.1-10.3-24.8c0-2.5,0.3-5,0.8-7.4c0.1-0.6,0.3-1.1,0.4-1.7L3.4,143.8c-2.1-1-3.3-3.1-3.3-5.2h0v0
		c0-1.1,0.3-2.1,0.8-3c12.4-26.1,34-46.1,58.6-56.7c13.1-5.6,27.1-8.7,41-8.6l26.3-55.9c2.8-5.9,7.6-10.3,13.2-12.5
		c5.7-2.3,12.2-2.5,18.3-0.2c8.2,3.1,16.1,7.5,24,11.2c6.2,2.9,10.7,8.1,12.9,14.1c2.2,6,2.1,12.7-0.9,19L171,95.5z M159.4,93.1
		l24.4-52.2c1.6-3.3,1.6-6.9,0.5-10.1c-1.2-3.2-3.6-5.9-6.9-7.5c-7.6-3.6-15.3-7.8-23.2-10.8c-3.2-1.2-6.8-1.1-9.8,0.1
		c-3,1.2-5.6,3.5-7.1,6.7c-2.3,4.9-24.6,51.9-23.4,52.1c2.6,0.4,5.2,0.9,7.7,1.5c11.2,2.8,21.7,7.7,31,14.6
		C154.9,89.3,157.2,91.1,159.4,93.1z"/>
</g>
</svg>
