<?xml version="1.0" encoding="utf-8"?>
<!-- Generator: Adobe Illustrator 19.0.0, SVG Export Plug-In . SVG Version: 6.00 Build 0)  -->
<svg version="1.1" id="icons" xmlns="http://www.w3.org/2000/svg" xmlns:xlink="http://www.w3.org/1999/xlink" x="0px" y="0px"
	 viewBox="0 0 200.2 416.1" style="enable-background:new 0 0 200.2 416.1;" xml:space="preserve">
<style type="text/css">
	.st0{fill-rule:evenodd;clip-rule:evenodd;fill:#E6AC6C;}
	.st1{fill:#58373F;}
</style>
<g>
	<path class="st0" d="M190.3,50.8c2.1-15.5,2.9-23.6,4.1-37.6c-59.5-9.8-129.1-9.8-188.6,0c1.2,14.1,2,22.1,4.1,37.6
		C62.6,39.3,137.6,39.3,190.3,50.8z"/>
	<path class="st0" d="M6.1,239.5h12.3l-3.8,170.8H36l6.2-114.5h116l-0.9-17l7.1,131.6h21.4l-3.8-170.8H193v-26.3H6.1V239.5z
		 M155.1,239.5l1.9,35.1H43.2l-1,18.7l2.9-53.8H155.1z"/>
</g>
<path class="st1" d="M186.9,30.8c0.4-3.9,0.8-8,1.2-12.8c-41-6.3-86.6-7.9-130-5c-8.8,0.6-17.5,1.4-26.1,2.4
	C25.2,16.1,18.6,17,12,18c0.4,4.8,0.8,8.8,1.2,12.8c0.4,4.1,0.9,8.2,1.6,13.1c37.6-7.3,84.8-9.3,127.4-5.8
	c8.7,0.7,17.3,1.7,25.6,2.8c6.1,0.9,12,1.8,17.6,2.9C186,39,186.5,34.9,186.9,30.8L186.9,30.8z M187.2,219H12v14.7h175.2V219z
	 M73.7,207.4L68.9,48.9c-13.6,0.8-26.8,2.2-39.2,4.1l14.6,154.3l0,0.1H73.7z M114.9,207.4l4.8-159.1c-13.1-0.5-26.3-0.5-39.4,0
	l4.8,159.1H114.9z M156,207.4l0-0.1L170.6,53c-1.5-0.2-3-0.5-4.5-0.7c-8-1.1-16.3-2-24.8-2.7c-3.3-0.3-6.6-0.5-9.9-0.7l-4.8,158.5
	H156z M48.2,290H152l-0.5-9.6H48.7L48.2,290z M39,245.3h-15l-3.6,159.2h10L39,245.3z M149.6,245.3h-99l-1.3,23.4h101.5L149.6,245.3z
	 M176.1,245.3h-15l8.5,159.2h10L176.1,245.3z M200.2,13.6c-0.6,6.8-1.1,12.3-1.7,18.4c-0.6,5.7-1.3,11.6-2.4,19.5
	c-0.4,3.2-3.3,5.4-6.5,5c-0.1,0-0.3,0-0.4-0.1l0,0l0,0l0,0l0,0c-2.3-0.5-4.6-1-7-1.4l-14.5,152.4H193c3.2,0,5.8,2.6,5.8,5.8v26.3
	c0,3.2-2.6,5.8-5.8,5.8h-5.3l3.7,164.9c0.1,3.2-2.5,5.8-5.7,5.9l-0.1,0v0h-21.4c-3.2,0-5.8-2.6-5.8-5.8l0-0.1l-5.8-108.6h-105
	l-5.9,109c-0.2,3.1-2.7,5.5-5.8,5.5v0H14.6c-3.2,0-5.8-2.6-5.8-5.8c0-0.2,0-0.4,0-0.6l3.7-164.4H6.1c-3.2,0-5.8-2.6-5.8-5.8v-26.3
	c0-3.2,2.6-5.8,5.8-5.8h26.6L18.2,55c-2.4,0.5-4.8,0.9-7.1,1.5C8,57.1,4.9,55.1,4.2,52c-0.1-0.3-0.1-0.5-0.1-0.8
	c-1-7.7-1.8-13.6-2.4-19.2C1.1,25.9,0.6,20.4,0,13.6c-0.3-3.2,2.1-5.9,5.2-6.2C13.6,6,22.1,4.8,30.7,3.8c8.8-1,17.7-1.8,26.6-2.4
	c46.2-3.1,94.7-1.1,138,6C198.3,7.9,200.4,10.6,200.2,13.6L200.2,13.6z"/>
</svg>
