<?xml version="1.0" encoding="utf-8"?>
<!-- Generator: Adobe Illustrator 19.0.0, SVG Export Plug-In . SVG Version: 6.00 Build 0)  -->
<svg version="1.1" id="icons" xmlns="http://www.w3.org/2000/svg" xmlns:xlink="http://www.w3.org/1999/xlink" x="0px" y="0px"
	 viewBox="0 0 439.9 438" style="enable-background:new 0 0 439.9 438;" xml:space="preserve">
<style type="text/css">
	.st0{fill-rule:evenodd;clip-rule:evenodd;fill:#CFE6E8;}
	.st1{fill-rule:evenodd;clip-rule:evenodd;fill:#E6AC6C;}
	.st2{fill-rule:evenodd;clip-rule:evenodd;fill:#9ACC9A;}
	.st3{fill:#58373F;}
</style>
<rect x="353.1" y="25.2" class="st0" width="25" height="407"/>
<polygon class="st1" points="63.1,177.2 63.7,177.2 353.1,177.2 353.1,203.3 63.7,203.3 63.7,432.2 5.8,432.2 5.8,177.2 "/>
<g>
	<polygon class="st0" points="244.6,84.8 282,84.8 263.2,39.6 	"/>
	<polygon class="st0" points="298.3,84.8 335.7,84.8 316.9,39.6 	"/>
	<polygon class="st0" points="414.1,39.6 395.5,84.8 432.9,84.8 	"/>
</g>
<path class="st2" d="M126.2,226h65.9c6.4,0,11.7,5.2,11.7,11.7c0,6.4-5.2,11.7-11.7,11.7h-65.9c-6.4,0-11.7-5.2-11.7-11.7
	C114.5,231.3,119.8,226,126.2,226L126.2,226z"/>
<path class="st2" d="M152,58.4h24c-1,25.5,28.5,22.3,27.9,73.8h-79.8C123.5,80.7,153,83.9,152,58.4L152,58.4z"/>
<path class="st3" d="M179.7,82.5h-31.3c-0.7,0.9-1.5,1.8-2.3,2.7c-6.9,8-15.2,17.6-16.1,41.2h68.1c-0.9-23.6-9.2-33.2-16.1-41.2
	C181.2,84.3,180.5,83.4,179.7,82.5L179.7,82.5z M155.9,71h16.4c-0.8-2-1.4-4.3-1.7-6.8h-13C157.3,66.7,156.7,68.9,155.9,71z
	 M188.3,292.4l-58.3,0l-7.1,77l72.5,0L188.3,292.4z M190,243.6c0.1,0,0.2,0,0.3,0h1.8c1.6,0,3.1-0.7,4.1-1.7
	c1.1-1.1,1.7-2.5,1.7-4.1c0-1.6-0.7-3.1-1.7-4.1c-1.1-1.1-2.5-1.7-4.1-1.7h-65.9c-1.6,0-3.1,0.7-4.1,1.7c-1.1,1.1-1.7,2.5-1.7,4.1
	c0,1.6,0.7,3.1,1.7,4.1l0,0c1.1,1.1,2.5,1.7,4.1,1.7h1.8c0.1,0,0.2,0,0.3,0H190z M184.9,255.1h-51.5l-2.4,25.8l56.2,0L184.9,255.1z
	 M347.3,197.5V183H63.7h-0.6H11.6v243.4h46.3V203.3c0-3.2,2.6-5.8,5.8-5.8H347.3z M372.3,31h-13.4v146.2v26.1v223.2h13.4V31z
	 M263.3,54.7l-10,24.3h20.1L263.3,54.7z M317,54.7L307,79H327L317,54.7z M400.3,11.6c-3.2,0-5.8-2.6-5.8-5.8s2.6-5.8,5.8-5.8l12.6,0
	v0H428c3.2,0,5.8,2.6,5.8,5.8s-2.6,5.8-5.8,5.8H420v7.8h14.1c3.2,0,5.8,2.6,5.8,5.8c0,3.2-2.6,5.8-5.8,5.8H420v1.4v6.2l18.1,43.6
	c0.4,0.8,0.6,1.6,0.6,2.5c0,3.2-2.6,5.8-5.8,5.8h-37.4v0c-0.7,0-1.5-0.1-2.2-0.4c-3-1.2-4.4-4.6-3.2-7.6l18.3-44.3v-5.8V31h-24.5
	v401.2c0,3.2-2.6,5.8-5.8,5.8h-25c-3.2,0-5.8-2.6-5.8-5.8V209.1H69.5v223.2c0,3.2-2.6,5.8-5.8,5.8H5.8c-3.2,0-5.8-2.6-5.8-5.8v-255
	c0-3.2,2.6-5.8,5.8-5.8h57.3h0.6h283.6V31h-16.5v0h-8v1.5v6.2L341,82.3c0.4,0.8,0.6,1.6,0.6,2.5c0,3.2-2.6,5.8-5.8,5.8h-37.4v0
	c-0.7,0-1.5-0.1-2.2-0.4c-3-1.2-4.4-4.6-3.2-7.6l18.3-44.3v-5.8V31l-42.1,0v1.5v6.2l18.1,43.6c0.4,0.8,0.6,1.6,0.6,2.5
	c0,3.2-2.6,5.8-5.8,5.8h-37.4v0c-0.7,0-1.5-0.1-2.2-0.4c-3-1.2-4.4-4.6-3.2-7.6l18.3-44.3v-5.8V31h-12.9c-3.2,0-5.8-2.6-5.8-5.8
	c0-3.2,2.6-5.8,5.8-5.8h12.9v-7.9h-8.1c-3.2,0-5.8-2.6-5.8-5.8s2.6-5.8,5.8-5.8l12.6,0v0h15.1c3.2,0,5.8,2.6,5.8,5.8
	s-2.6,5.8-5.8,5.8h-8.1v7.8l42.1,0v-7.9h-8.1c-3.2,0-5.8-2.6-5.8-5.8S300,0,303.1,0l12.6,0v0h15.1c3.2,0,5.8,2.6,5.8,5.8
	s-2.6,5.8-5.8,5.8h-8.1v7.8h8v0h22.2l0,0h25l0,0h30.3v-7.8H400.3z M414.1,54.7l-10,24.3h20.1L414.1,54.7z M126.2,220.3h65.9
	c4.8,0,9.2,2,12.3,5.1l0,0v0c3.1,3.1,5.1,7.5,5.1,12.3c0,4.8-2,9.2-5.1,12.3c-2.2,2.2-4.9,3.8-8,4.6l16.3,177.1
	c0.3,3.2-2.1,6-5.2,6.3c-3.2,0.3-6-2.1-6.3-5.2l-4.8-51.8l-74.6,0l-4.8,51.7c-0.3,3.2-3.1,5.5-6.3,5.2c-3.2-0.3-5.5-3.1-5.2-6.3
	l16.3-177.1c-3.1-0.8-5.8-2.4-8-4.6l0,0l-0.1-0.1c-3.1-3.1-5-7.5-5-12.2c0-4.8,2-9.2,5.1-12.3C117,222.2,121.4,220.3,126.2,220.3z
	 M158.3,52.6V8.8c0-3.2,2.6-5.8,5.8-5.8c3.2,0,5.8,2.6,5.8,5.8v43.7h6.2c3.2,0,5.8,2.6,5.8,5.8c0,0.2,0,0.4,0,0.6
	c-0.2,8.1,4,12.9,8.9,18.6c8.7,10.1,19.4,22.4,19,54.6c0,3.2-2.6,5.7-5.8,5.7v0h-79.8c-3.2,0-5.8-2.6-5.8-5.8c0-0.2,0-0.3,0-0.5
	c-0.3-31.8,10.3-44,19-54.1c5-5.8,9.2-10.6,8.9-19c-0.1-3.2,2.4-5.9,5.6-6l0.2,0v0H158.3z"/>
</svg>
