<?xml version="1.0" encoding="utf-8"?>
<!-- Generator: Adobe Illustrator 19.0.0, SVG Export Plug-In . SVG Version: 6.00 Build 0)  -->
<svg version="1.1" id="icons" xmlns="http://www.w3.org/2000/svg" xmlns:xlink="http://www.w3.org/1999/xlink" x="0px" y="0px"
	 viewBox="0 0 240.4 438.7" style="enable-background:new 0 0 240.4 438.7;" xml:space="preserve">
<style type="text/css">
	.st0{fill-rule:evenodd;clip-rule:evenodd;fill:#E6AC6C;}
	.st1{fill-rule:evenodd;clip-rule:evenodd;fill:#F5B9C3;}
	.st2{fill:#58373F;}
</style>
<path class="st0" d="M54.8,271.9l-3.3,30.9H168l-3.3-30.9c9.7,0,19.4,0.1,29.2,0.2l11.4,160.8h-23.3l-12.1-112.7v5.4H49.6v-5.4
	L37.6,432.9H14.2L25.7,272C35.4,271.9,45.1,271.9,54.8,271.9L54.8,271.9z"/>
<path class="st1" d="M38.1,241H166c-1.4-107.8,22.9-201.4,36.9-223.3c14-21.9,41.7-11.2,27.9,12.5c-13.8,23.7-43.5,147.1-36.9,241.9
	C135.3,271.5,63.6,272,5.8,272C5.8,237,3.2,241,38.1,241L38.1,241z"/>
<path class="st2" d="M32.3,427.1l16-149.4l-8.1,0l-9.2,0L20.5,427.1H32.3z M187.7,266.3c-3.5-67.7,10.2-148,23.3-197
	c2.6-9.8,5.2-18.4,7.7-25.5c2.5-7.1,4.9-12.7,7-16.3l0.1-0.2l0,0l0,0c3.3-5.7,3.6-9.9,2.1-12.6c-0.5-0.9-1.3-1.7-2.2-2.2
	c-1.1-0.6-2.4-0.9-3.7-1c-4.5-0.1-10,2.7-14.2,9.3c-9.7,15.2-24.7,67-31.9,134.6c-1.4,13.3-2.5,27.1-3.2,41.3
	c-0.7,14.2-1,28.9-0.8,43.7c0,0.2,0,0.4,0,0.6c0,3.2-2.6,5.8-5.8,5.8H38.1c-1.9,0-6.1-0.1-9.7-0.1c-9.5-0.1-14.4-0.2-15.6,1
	c-1.3,1.2-1.2,6.5-1.2,17.4l0,1.1C70.3,266.2,129,265.8,187.7,266.3z M188.4,277.9c-5.7,0-11.4-0.1-17.3-0.1l16,149.4H199
	L188.4,277.9z M165.3,331.8h-111L43.3,433.5c-0.3,3-2.8,5.2-5.8,5.2v0H14.2c-3.2,0-5.8-2.6-5.8-5.8c0-0.3,0-0.5,0-0.8l11-154.4
	c-4.6,0-9.2,0-13.6,0c-3.2,0-5.8-2.6-5.8-5.8h0c0-6.2,0-6.6,0-6.8c-0.1-14.2-0.1-21.2,4.7-25.8c4.6-4.4,11.1-4.3,23.7-4.2
	c2,0,4.3,0.1,9.6,0.1h122.1c-0.1-13.3,0.3-26.3,0.9-39c0.7-14.5,1.9-28.6,3.3-42c7.4-69.4,23.3-123.3,33.7-139.6
	C204.7,4.2,214.1-0.2,222.2,0c3.3,0.1,6.4,0.9,9.1,2.4c2.8,1.6,5.2,3.8,6.8,6.7c3.3,5.9,3.4,14.3-2.2,24.1l0,0l0,0l0,0l0,0l-0.1,0.1
	c-1.7,3-3.8,7.9-6,14.3c-2.3,6.7-4.9,15-7.5,24.7C209,121.9,195,204.2,199.7,271.7c0,0.3,0,0.6,0,0.9L211,432.2c0,0.2,0,0.5,0,0.7
	c0,3.2-2.6,5.8-5.8,5.8h-23.3v0c-2.9,0-5.4-2.2-5.8-5.2L165.3,331.8z M55.5,320.2H164l-1.2-10.8H56.6L55.5,320.2z M60,277.7
	l-2.2,20.2h103.8l-2.2-20.2C127.2,277.5,92.8,277.6,60,277.7z"/>
</svg>
