<?xml version="1.0" encoding="utf-8"?>
<!-- Generator: Adobe Illustrator 19.0.0, SVG Export Plug-In . SVG Version: 6.00 Build 0)  -->
<svg version="1.1" id="icons" xmlns="http://www.w3.org/2000/svg" xmlns:xlink="http://www.w3.org/1999/xlink" x="0px" y="0px"
	 viewBox="0 0 425.2 442.2" style="enable-background:new 0 0 425.2 442.2;" xml:space="preserve">
<style type="text/css">
	.st0{fill-rule:evenodd;clip-rule:evenodd;fill:#E6AC6C;}
	.st1{fill-rule:evenodd;clip-rule:evenodd;fill:#D2E5EB;}
	.st2{fill:#58373F;}
</style>
<path class="st0" d="M5.8,167.3v23.9h30.1v245.2h26V263.8h201.6v70.8v0v71.7h55.1v30.1h26v-30.1h62.3v-71.7v0v-71.7v0v-71.7h12.5
	v-23.9H5.8z M263.5,192.1H61.9v-0.9h201.6V192.1z"/>
<rect x="124.3" y="5.8" class="st1" width="176.7" height="127.6"/>
<rect x="195.2" y="133.4" class="st1" width="34.8" height="33.8"/>
<path class="st2" d="M318.4,304.5c-3.2,0-5.8-2.6-5.8-5.8c0-3.2,2.6-5.8,5.8-5.8h34c3.2,0,5.8,2.6,5.8,5.8c0,3.2-2.6,5.8-5.8,5.8
	H318.4z M318.4,232.8c-3.2,0-5.8-2.6-5.8-5.8s2.6-5.8,5.8-5.8h34c3.2,0,5.8,2.6,5.8,5.8s-2.6,5.8-5.8,5.8H318.4z M338.8,412.1h-14.4
	v18.5h14.4V412.1z M401.1,340.4H269.3v60.1h49.3h26h56.5V340.4z M224.2,139.2H201v22.2h23.2V139.2z M270.5,71.8
	c2.5-2,6.1-1.6,8.1,0.8c2,2.5,1.6,6.1-0.8,8.1l-36.7,29.8c-2.5,2-6.1,1.6-8.1-0.8c-2-2.5-1.6-6.1,0.8-8.1L270.5,71.8z M253,47.1
	c2.5-2,6.1-1.6,8.1,0.8c2,2.5,1.6,6.1-0.8,8.1L203,102.6c-2.5,2-6.1,1.6-8.1-0.8c-2-2.5-1.6-6.1,0.8-8.1L253,47.1z M219.5,35.5
	c2.5-2,6.1-1.6,8.1,0.8c2,2.5,1.6,6.1-0.8,8.1L169.5,91c-2.5,2-6.1,1.6-8.1-0.8c-2-2.5-1.6-6.1,0.8-8.1L219.5,35.5z M185,30.6
	c2.5-2,6.1-1.6,8.1,0.8c2,2.5,1.6,6.1-0.8,8.1l-36.7,29.8c-2.5,2-6.1,1.6-8.1-0.8c-2-2.5-1.6-6.1,0.8-8.1L185,30.6z M195.2,127.6
	H230h65.1v-116h-165v116H195.2z M257.7,197h-190v60.1h190V197z M56.1,263.4c0-0.2,0-0.3,0-0.5V197H41.7v233.6h14.4V263.4z
	 M257.7,268.7h-190v167.7c0,3.2-2.6,5.8-5.8,5.8v0h-26c-3.2,0-5.8-2.6-5.8-5.8c0-0.2,0-0.3,0-0.5V197H5.8c-3.2,0-5.8-2.6-5.8-5.8
	v-23.9c0-3.2,2.6-5.8,5.8-5.8h183.6v-22.3h-65.1c-3.2,0-5.8-2.6-5.8-5.8V5.8c0-3.2,2.6-5.8,5.8-5.8h176.7c3.2,0,5.8,2.6,5.8,5.8
	v127.6c0,3.2-2.6,5.8-5.8,5.8h-65.1v22.3h183.6c3.2,0,5.8,2.6,5.8,5.8v23.9c0,3.2-2.6,5.8-5.8,5.8h-6.7v65.9v0v71.7v0v71.7
	c0,3.2-2.6,5.8-5.8,5.8h-56.5v24.3c0,3.2-2.6,5.8-5.8,5.8h-26c-3.2,0-5.8-2.6-5.8-5.8v-24.3h-49.3c-3.2,0-5.8-2.6-5.8-5.8v-71.7v0
	V268.7z M269.3,197v60.1h131.8V197H269.3z M61.9,185.4h201.6h143.4l0,0h6.6v-12.3h-402v12.3h24.3L61.9,185.4L61.9,185.4z
	 M269.3,328.8h131.8v-60.1H269.3V328.8z M318.4,376.2c-3.2,0-5.8-2.6-5.8-5.8c0-3.2,2.6-5.8,5.8-5.8h34c3.2,0,5.8,2.6,5.8,5.8
	c0,3.2-2.6,5.8-5.8,5.8H318.4z"/>
</svg>
