<?xml version="1.0" encoding="utf-8"?>
<!-- Generator: Adobe Illustrator 19.0.0, SVG Export Plug-In . SVG Version: 6.00 Build 0)  -->
<svg version="1.1" id="icons" xmlns="http://www.w3.org/2000/svg" xmlns:xlink="http://www.w3.org/1999/xlink" x="0px" y="0px"
	 viewBox="0 0 267.6 391" style="enable-background:new 0 0 267.6 391;" xml:space="preserve">
<style type="text/css">
	.st0{fill-rule:evenodd;clip-rule:evenodd;fill:#E6AC6C;}
	.st1{fill-rule:evenodd;clip-rule:evenodd;fill:#94D0CF;}
	.st2{fill-rule:evenodd;clip-rule:evenodd;fill:#FFFFFF;}
	.st3{fill:#58373F;}
</style>
<g>
	<polygon class="st0" points="261.8,121.9 5.8,121.9 5.8,147 14.1,147 14.1,253.8 14.1,360.5 253.5,360.5 253.5,253.8 253.5,147 
		261.8,147 	"/>
	<polygon class="st0" points="18,385.2 47.4,385.2 51.2,360.5 14.1,360.5 	"/>
	<polygon class="st0" points="220.2,385.2 249.7,385.2 253.5,360.5 216.4,360.5 	"/>
</g>
<g>
	<path class="st1" d="M63,5.8c-10.4,0-18.8,8.4-18.8,18.8c0,7.4,4.3,13.8,10.5,16.9c5.2-10.6,14.9-18.7,26.6-21.7
		C79.2,11.8,71.8,5.8,63,5.8z"/>
	<path class="st1" d="M119.6,5.8c-8.8,0-16.1,6-18.2,14.1c11.7,3,21.4,11,26.6,21.7c6.2-3.1,10.5-9.5,10.5-16.9
		C138.5,14.2,130,5.8,119.6,5.8z"/>
</g>
<path class="st2" d="M91.3,18.7c22.5,0,40.7,18.2,40.7,40.7c0,22.5-18.2,40.7-40.7,40.7c-22.5,0-40.7-18.2-40.7-40.7
	C50.6,36.9,68.9,18.7,91.3,18.7L91.3,18.7z"/>
<path class="st3" d="M44.5,366.4H20.9l2,13h19.5L44.5,366.4z M246.7,366.4h-23.6l2,13h19.5L246.7,366.4z M116,34.7
	c-6.3-6.3-15-10.2-24.7-10.2c-9.6,0-18.3,3.9-24.7,10.2c-6.3,6.3-10.2,15-10.2,24.7c0,9.6,3.9,18.3,10.2,24.7
	c6.3,6.3,15,10.2,24.7,10.2c9.6,0,18.3-3.9,24.7-10.2c6.3-6.3,10.2-15,10.2-24.7C126.2,49.7,122.3,41,116,34.7z M109.4,16.5
	c5.6,2.4,10.6,5.8,14.8,10c2,2,3.8,4.2,5.4,6.5c1.9-2.3,3-5.2,3-8.3c0-3.6-1.5-6.9-3.8-9.2c-2.4-2.4-5.6-3.8-9.2-3.8
	c-3.6,0-6.9,1.5-9.2,3.8C110,15.8,109.7,16.1,109.4,16.5z M73.2,16.5c-0.3-0.4-0.6-0.7-1-1.1c-2.4-2.4-5.6-3.8-9.2-3.8
	c-3.6,0-6.9,1.5-9.2,3.8C51.5,17.8,50,21,50,24.6c0,3.2,1.1,6.1,3,8.3c1.6-2.3,3.4-4.5,5.4-6.5C62.7,22.3,67.7,18.9,73.2,16.5z
	 M65.7,116.1H117l-7.7-13.9c-5.5,2.3-11.6,3.6-18,3.6c-6.4,0-12.5-1.3-18-3.6L65.7,116.1z M247.7,152.8H19.9V248h227.8V152.8z
	 M14.1,141.2h239.4l0.1,0h2.4v-13.5H11.6v13.5H14L14.1,141.2z M114.1,206.2c-3.2,0-5.8-2.6-5.8-5.8c0-3.2,2.6-5.8,5.8-5.8h39.5
	c3.2,0,5.8,2.6,5.8,5.8c0,3.2-2.6,5.8-5.8,5.8H114.1z M19.9,259.6v95.2h227.8v-95.2H19.9z M56.2,366.4l-3.1,19.7
	c-0.4,2.9-2.9,4.9-5.7,4.9v0H18c-3.1,0-5.6-2.4-5.8-5.4l-3.7-23.7c-0.1-0.4-0.2-0.9-0.2-1.4V253.8v-101H5.8c-3.2,0-5.8-2.6-5.8-5.8
	v-25.1c0-3.2,2.6-5.8,5.8-5.8h47.7c-0.1-1.1,0.1-2.2,0.7-3.2l9.1-16.5c-1.7-1.3-3.3-2.7-4.8-4.2c-8.4-8.4-13.6-20-13.6-32.9
	c0-5.5,0.9-10.7,2.7-15.5c-0.7-0.5-1.3-1.1-1.9-1.7c-4.5-4.5-7.2-10.6-7.2-17.4c0-6.8,2.8-13,7.2-17.4C50.1,2.8,56.2,0,63,0
	c6.8,0,13,2.8,17.4,7.2c1.8,1.8,3.3,3.8,4.5,6.1c2.1-0.3,4.2-0.4,6.4-0.4c2.2,0,4.3,0.1,6.4,0.4c1.2-2.2,2.7-4.3,4.5-6.1
	c4.5-4.5,10.6-7.2,17.4-7.2c6.8,0,13,2.8,17.4,7.2c4.5,4.5,7.2,10.6,7.2,17.4s-2.8,13-7.2,17.4c-0.6,0.6-1.2,1.2-1.9,1.7
	c1.7,4.9,2.7,10.1,2.7,15.5c0,12.8-5.2,24.5-13.6,32.9c-1.5,1.5-3.1,2.9-4.8,4.2l9.1,16.5c0.6,1,0.8,2.1,0.7,3.2h132.7
	c3.2,0,5.8,2.6,5.8,5.8V147c0,3.2-2.6,5.8-5.8,5.8h-2.5v101v106.8c0,0.5-0.1,1-0.2,1.4l-3.8,24.1c-0.4,2.9-2.9,4.9-5.7,4.9v0h-29.4
	c-3.1,0-5.6-2.4-5.8-5.4l-3-19.3H56.2z M114.1,313c-3.2,0-5.8-2.6-5.8-5.8c0-3.2,2.6-5.8,5.8-5.8h39.5c3.2,0,5.8,2.6,5.8,5.8
	c0,3.2-2.6,5.8-5.8,5.8H114.1z M79.4,37c-0.9-3.1,1-6.3,4-7.1c3.1-0.9,6.3,1,7.1,4l6.6,23.9c0.8,2.8-0.7,5.7-3.3,6.9l0,0l-15.7,6.8
	c-2.9,1.3-6.4-0.1-7.6-3c-1.3-2.9,0.1-6.4,3-7.6l11.1-4.8L79.4,37z"/>
</svg>
