<?xml version="1.0" encoding="utf-8"?>
<!-- Generator: Adobe Illustrator 19.0.0, SVG Export Plug-In . SVG Version: 6.00 Build 0)  -->
<svg version="1.1" id="icons" xmlns="http://www.w3.org/2000/svg" xmlns:xlink="http://www.w3.org/1999/xlink" x="0px" y="0px"
	 viewBox="0 0 466.8 417.4" style="enable-background:new 0 0 466.8 417.4;" xml:space="preserve">
<style type="text/css">
	.st0{fill-rule:evenodd;clip-rule:evenodd;fill:#FFFFFF;}
	.st1{fill-rule:evenodd;clip-rule:evenodd;fill:#D2E5EB;}
	.st2{fill-rule:evenodd;clip-rule:evenodd;fill:#94D0CF;}
	.st3{fill-rule:evenodd;clip-rule:evenodd;fill:#F5B9C3;}
	.st4{fill:#58373F;}
</style>
<g>
	<path class="st0" d="M108,370.8l-14.5,40.7H79l9.2-48.2C94,366.4,100.6,368.9,108,370.8L108,370.8z M358.8,370.8l14.5,40.7h14.5
		l-9.2-48.2C372.8,366.4,366.2,368.9,358.8,370.8z"/>
	<path class="st1" d="M43.4,297.1c12.3,40.6,29.5,76,94.5,77.4h95.5h95.5c88.4-2,88.3-66.7,107.9-121.8H211.8v35.9
		c-0.4,7.4-9,9.4-13.4,9.4c-4.4,0-10.9-2.5-12.8-9.4c-2.4,6.5-9.5,9.1-14,9.1c-4.3,0-10.5-1.9-12.6-9.1c-2.6,7-8.5,9.6-13.1,9.6
		c-4.4,0-12.1-2.7-13.7-9.6c-3.1,7.4-9.7,9.2-14.2,9.2c-4.3,0-10.6-2.2-12.3-9.2c-2,6-9.4,9.2-14.1,9.2c-4.3,0-10.4-1.9-12.7-9.2
		c-1.4,5.4-9.1,9.3-13.4,9.3c-4.7,0-11.3-2.7-13.4-9.3C50.8,293.1,47.3,296,43.4,297.1L43.4,297.1z"/>
	<path class="st0" d="M211.8,252.7h226.3c17.5,0.3,22.6-5.8,23-12.4c0.5-8.3-6.5-13.1-15.8-13H211.8V252.7z M21.6,227.3
		c-9.3-0.1-16.3,4.7-15.8,13c0.4,6.5,5.3,12.6,22.3,12.4l0-25.4H21.6z"/>
	<path class="st2" d="M289.7,35.1c18.5,0,33.6,11.6,34.1,25.9h-68.2C256.1,46.6,271.2,35.1,289.7,35.1L289.7,35.1z"/>
	<path class="st3" d="M51.9,288.6c-2.9,11.7-21.4,12.4-23.8,0l0.1-259.2h183.6v259.3c-0.4,7.4-9,9.4-13.4,9.4
		c-4.4,0-10.9-2.5-12.8-9.4c-2.4,6.5-9.5,9.1-14,9.1c-4.3,0-10.5-1.9-12.6-9.1c-2.6,7-8.5,9.6-13.1,9.6c-4.4,0-12.1-2.7-13.7-9.6
		c-3.1,7.4-9.7,9.2-14.2,9.2c-4.3,0-10.6-2.2-12.3-9.2c-2,6-9.4,9.2-14.1,9.2c-4.3,0-10.4-1.9-12.7-9.2c-1.4,5.4-9.1,9.3-13.4,9.3
		C60.6,297.9,54,295.1,51.9,288.6L51.9,288.6z"/>
	<path class="st4" d="M310.1,47.2c-5.2-3.9-12.4-6.4-20.3-6.4c-8,0-15.1,2.4-20.3,6.4c-3,2.2-5.2,5-6.6,8h53.8
		C315.3,52.2,313,49.5,310.1,47.2L310.1,47.2z M217.6,233.1v13.8h219.3h1.2c0.2,0,0.4,0,0.6,0c6.5,0.1,10.7-0.8,13.4-2.2
		c3.4-1.8,4.5-6.8,1.3-9.4c-2.2-1.8-5.3-2.2-8.1-2.2l0,0v0H217.6z M46.1,287.9v-59.9c0-3.2,2.6-5.8,5.8-5.8c3.2,0,5.8,2.6,5.8,5.8
		v59.4l0,0.1l0,0l0,0.1l0,0l0,0.1l0,0c2.8,5.9,10.9,5,14.6,0.7l0,0c0.1-0.2,0.3-0.4,0.4-0.5l0,0l0,0v0v-93.9c0-3.2,2.6-5.8,5.8-5.8
		c3.2,0,5.8,2.6,5.8,5.8v93.5l0.1,0.1v0l0,0.1l0,0.1l0,0c0,0.1,0.1,0.2,0.1,0.3l0,0l0,0.1l0,0l0,0.1l0,0c0.1,0.1,0.1,0.3,0.2,0.4
		l0,0.1l0,0l0,0.1l0,0c1.4,2.3,3.7,3.3,6.4,3.3v0c2.4,0,5.8-1.4,7.6-3.5l0,0c0.1-0.1,0.2-0.2,0.2-0.3l0,0l0,0l0,0
		c0.1-0.1,0.1-0.2,0.2-0.3l0,0l0,0v-60.7c0-3.2,2.6-5.8,5.8-5.8c3.2,0,5.8,2.6,5.8,5.8v60.1l0,0.1l0,0.1l0,0l0,0.1l0,0l0,0.1l0,0
		l0,0.1l0,0l0,0.1l0,0l0,0.1l0,0l0,0.1l0,0l0,0.1l0,0l0,0.1l0,0l0,0.1l0,0l0,0.1l0,0l0,0.1l0,0c0.4,1,1,1.8,1.9,2.5l0.1,0.1l0,0
		l0.1,0l0,0l0.1,0.1l0,0c4.2,2.6,10.3,0.8,12.6-3.5l0,0v-93.4c0-3.2,2.6-5.8,5.8-5.8s5.8,2.6,5.8,5.8v93.8l0.1,0.2v0l0,0.1l0,0l0,0
		l0,0l0,0.1l0,0l0,0l0,0l0,0l0,0l0.1,0.1l0,0l0,0l0,0l0,0.1l0,0c1.3,2.4,4.6,3.7,7,3.9h0l0.1,0h0l0.1,0h0l0.1,0h0l0.1,0h0l0.1,0h0
		l0.1,0h0l0.1,0h0l0.1,0h0c3.2,0,5.8-1.9,7.1-4.6l0,0l0-0.1v-60.5c0-3.2,2.6-5.8,5.8-5.8c3.2,0,5.8,2.6,5.8,5.8v60.3l0,0l0,0l0,0.1
		l0,0l0,0.1l0,0l0,0.1l0,0l0,0.1l0,0l0,0.1l0,0l0,0l0,0l0,0l0,0l0,0l0.1,0.1c0.6,1.3,1.7,2.3,3,2.9l0.1,0h0l0.1,0h0l0.1,0h0l0.1,0
		l0.1,0h0l0.1,0h0l0.1,0l0.1,0h0l0.1,0l0.1,0h0l0.1,0h0l0.1,0h0l0.1,0l0.1,0h0l0.1,0h0l0.1,0h0l0.1,0h0l0.1,0l0.1,0l0.1,0h0l0.1,0h0
		l0.1,0l0.1,0l0.1,0h0l0.1,0h0l0.1,0l0.1,0h0l0.1,0l0.1,0h0l0.1,0h0l0.1,0h0l0.1,0h0l0.1,0h0l0.1,0h0l0.1,0l0.1,0h0l0.1,0h0l0.1,0h0
		l0.1,0l0.1,0l0.1,0l0.1,0l0.1,0l0.1,0l0.1,0l0.1,0l0.1,0h0.1l0.1,0c3,0,6.6-1.6,8.2-4.4l0,0v0v-93.6c0-3.2,2.6-5.8,5.8-5.8
		c3.2,0,5.8,2.6,5.8,5.8v93.7c0.7,2,2.3,3.3,4.2,4.1l0.1,0h0l0.1,0h0l0.1,0h0l0.1,0h0l0.1,0h0l0.1,0h0l0.1,0l0.1,0l0.1,0h0l0.1,0h0
		l0.1,0l0.1,0h0l0.1,0l0.1,0h0l0.1,0h0l0.1,0h0l0.1,0h0l0.1,0l0.1,0h0l0.1,0h0l0.1,0h0l0.1,0h0l0.1,0l0.1,0h0l0.1,0h0l0.1,0l0.1,0h0
		l0.1,0h0l0.1,0l0.1,0h0l0.1,0h0l0.1,0h0l0.1,0h0l0.1,0h0l0.1,0h0l0.1,0h0l0.1,0h0l0.1,0h0v0c1.7,0,4.3-0.4,6.2-1.6l0,0l0.2-0.1v0
		l0,0h0l0,0l0,0l0,0l0,0l0,0h0l0,0h0l0,0h0l0,0h0l0,0h0l0,0l0,0l0,0h0l0,0h0l0,0h0c0.4-0.3,0.6-0.7,0.8-1.2l0,0l0,0l0,0l0,0l0,0l0,0
		l0,0l0,0l0,0l0,0l0,0l0,0v-35.9v-25.4V35.1h-14.7v41.1c0,3.2-2.6,5.8-5.8,5.8c-3.2,0-5.8-2.6-5.8-5.8V35.1h-15.1v97.4
		c0,3.2-2.6,5.8-5.8,5.8c-3.2,0-5.8-2.6-5.8-5.8V35.1h-15.1v41.1c0,3.2-2.6,5.8-5.8,5.8c-3.2,0-5.8-2.6-5.8-5.8V35.1h-15.1v97.4
		c0,3.2-2.6,5.8-5.8,5.8c-3.2,0-5.8-2.6-5.8-5.8V35.1H84.4v41.1c0,3.2-2.6,5.8-5.8,5.8c-3.2,0-5.8-2.6-5.8-5.8V35.1H57.7v97.4
		c0,3.2-2.6,5.8-5.8,5.8c-3.2,0-5.8-2.6-5.8-5.8V35.1H34l0,192.1l0,25.4l0,35.2c0.7,2.6,3,3.9,5.6,4C42.2,291.9,45,290.6,46.1,287.9
		z M100.5,374.7c-2.8-0.9-5.4-1.8-8-2.9l-6.5,34h3.4L100.5,374.7z M50.4,300.2c5.6,17.7,12.6,34.1,24.6,46.2
		c4.4,4.5,9.6,8.4,15.7,11.7c0.1,0,0.2,0.1,0.3,0.1l0,0c2.7,1.5,5.6,2.8,8.6,3.9c3.1,1.2,6.4,2.2,9.9,3.1c0.1,0,0.2,0.1,0.3,0.1
		c8.1,2,17.4,3.2,28.2,3.5v0h95.5h95.5c0.1,0,0.2,0,0.3,0c68.3-1.7,80.4-44.1,93-88.3c2.1-7.3,4.2-14.6,6.5-21.9H217.6v30.1
		c0,1.7-0.4,3.5-1.1,5.1h0l-0.1,0.2h0l-0.1,0.2h0l-0.1,0.2l-0.1,0.2h0l-0.1,0.2l0,0l-0.1,0.2v0l-0.1,0.2h0l-0.1,0.2v0l-0.1,0.2v0
		l-0.1,0.2l0,0l-0.1,0.2v0l-0.1,0.2l0,0l-0.1,0.2l0,0l-0.1,0.2l0,0l-0.1,0.2v0l-0.1,0.2v0l-0.1,0.2l0,0l-0.1,0.2l0,0l-0.1,0.2h0
		l-0.1,0.1l0,0l-0.1,0.1l0,0l-0.1,0.1v0l-0.1,0.1l0,0l-0.1,0.1v0l-0.1,0.1h0l-0.1,0.1l0,0l-0.1,0.1h0l-0.1,0.1v0l-0.1,0.1v0
		l-0.1,0.1h0l-0.1,0.1h0l-0.1,0.1h0l-0.1,0.1l0,0l-0.1,0.1h0l-0.1,0.1v0l-0.1,0.1l0,0l-0.1,0.1h0l-0.1,0.1h0l-0.1,0.1l0,0l-0.1,0.1
		l0,0l-0.2,0.1l0,0l-0.2,0.1v0l-0.2,0.1l0,0l-0.2,0.1c-0.1,0.1-0.3,0.2-0.4,0.3l-0.2,0.1l0,0l-0.2,0.1l0,0l-0.1,0
		c-7,4.1-15.6,4.2-22.5,0v0l-0.2-0.1l-0.2-0.1v0c-0.2-0.2-0.5-0.3-0.7-0.5l-0.2-0.2h0l0,0h0c-0.5-0.4-0.9-0.7-1.4-1.1
		c-0.1,0.1-0.2,0.1-0.3,0.2l0,0l0,0l0,0l0,0l0,0l0,0l0,0l0,0h0l0,0h0l0,0h0l0,0h0l0,0h0l0,0h0l0,0h0l0,0h0l0,0h0l0,0l0,0h0l0,0h0
		c-4.7,3.6-10.9,4.9-16.7,3.9h0l-0.2,0h0l-0.2,0h0l-0.2,0l-0.2,0l-0.2,0l0,0l-0.2,0l0,0l-0.2,0v0l-0.2,0l0,0l-0.2,0l-0.2-0.1l0,0
		l-0.2-0.1v0l-0.2-0.1h0l-0.2-0.1l0,0l-0.2-0.1h0l-0.2-0.1l0,0l-0.2-0.1l0,0l-0.2-0.1l0,0l-0.2-0.1l0,0l-0.2-0.1l0,0l-0.2-0.1l0,0
		l-0.2-0.1l0,0l-0.2-0.1l0,0l-0.2-0.1l0,0l-0.2-0.1v0l-0.2-0.1v0l-0.2-0.1l0,0l-0.2-0.1v0c-0.9-0.5-1.8-1-2.7-1.6h0l0,0
		c-0.4-0.3-0.8-0.6-1.2-1l0,0l0,0c-3.6,3.1-8.1,5-12.9,5h0l-0.2,0h0l-0.2,0h0l-0.2,0h0l-0.2,0h0l-0.2,0h0l-0.2,0h0l-0.2,0h0l-0.2,0
		c-4.8-0.4-8.9-2.2-12.4-5l0,0v0l0,0h0l0,0l0,0l0,0l0,0l0,0h0l0,0v0l0,0l0,0l0,0l0,0l0,0l0,0l-0.2,0.1h0l0,0h0l0,0l0,0h0l0,0h0l0,0
		h0l0,0l0,0h0l0,0h0c-1.7,1.5-3.9,2.6-6,3.3v0l-0.2,0.1v0l-0.2,0.1l-0.2,0.1v0l-0.2,0.1v0l-0.2,0.1v0l-0.2,0.1v0l-0.2,0.1l-0.2,0.1
		v0l-0.2,0.1v0l-0.2,0v0l-0.2,0v0l-0.2,0v0l-0.2,0l-0.2,0l-0.2,0l-0.2,0v0l-0.2,0v0l-0.2,0l-0.2,0v0c-0.6,0.1-1.1,0.2-1.6,0.2
		l-0.2,0l-0.2,0c-4.6,0.4-9.2-0.8-13-3.4l0,0l-0.2-0.1l0,0l-0.2-0.1l0,0v0l0,0v0l0,0c-0.2-0.1-0.4-0.3-0.6-0.4h0l0,0
		c-0.2-0.2-0.4-0.3-0.6-0.5h0l0,0h0l0,0l0,0h0l0,0l0,0h0l0,0h0l0,0h0l0,0h0l0,0h0l0,0h0l0,0l-0.1,0.1l0,0l0,0l0,0
		c-4,2.8-8.4,4.8-13.4,4.8v0c-4.1,0-9.1-1.5-12.4-4.4h0l0,0l0,0h0l0,0h0l0,0h0l0,0h0l0,0h0l0,0h0l0,0l0,0l0,0l0,0h0l0,0h0l0,0h0l0,0
		h0c-0.1-0.1-0.2-0.2-0.3-0.3c-5.6,4.5-13.1,6.3-20.2,3.7l-0.2-0.1l-0.2-0.1h0l-0.2-0.1h0l-0.2-0.1h0l-0.2-0.1l-0.2-0.1l-0.2-0.1
		l-0.2-0.1l-0.2-0.1h0l-0.2-0.1h0l-0.2-0.1h0l-0.2-0.1l-0.2-0.1h0l-0.2-0.1l-0.2-0.1l-0.2-0.1h0l-0.2-0.1h0l-0.2-0.1h0l-0.2-0.1h0
		l-0.2-0.1h0c-0.8-0.5-1.5-1-2.2-1.6l0,0l0,0l0,0l0,0l0,0l0,0l0,0l0,0l0,0C51.6,299.3,51,299.8,50.4,300.2z M366.4,374.8l11,30.9
		h3.4l-6.5-33.8C371.8,373,369.2,374,366.4,374.8z M361.4,221.5c0-22.4,0.3-37.8,0.5-51c0.4-20.9,0.6-35.9-0.5-75.6
		c0-1.7,0-4.1,0-6.9c0.2-16.7,0.5-51.4-13.9-67c-4.5-4.9-10.8-7.8-17.7-8.9c-5.1-0.8-10.5-0.6-15.5,0.7c-4.9,1.3-9.4,3.5-12.9,6.7
		c-2.9,2.7-5.2,6-6.5,10.1c8.5,0.9,16.1,4,22,8.5c7.5,5.7,12.3,13.8,12.6,22.8c0.1,3.2-2.4,5.9-5.6,6c-0.1,0-0.2,0-0.3,0h-68.1
		c-3.2,0-5.8-2.6-5.8-5.8l0-0.2h0c0.3-9,5.1-17.1,12.6-22.8c5.6-4.2,12.7-7.2,20.6-8.3c1.6-7.7,5.4-14,10.6-18.8
		c5-4.6,11.2-7.7,17.8-9.4c6.5-1.7,13.5-2,20.2-0.9c9.3,1.5,18.1,5.6,24.4,12.5c17.4,19,17.1,56.8,16.9,75c0,2.7,0,4.9,0,6.5
		c1.1,39.9,0.8,55.1,0.5,76.1c-0.2,12.1-0.5,26.1-0.5,50.8h72.2v0c0.8,0,1.5,0,2.1,0c5.2,0.3,9.9,2,13.4,4.8c3.8,3.1,6.1,7.5,6.1,13
		c0,0.5,0,1,0,1.3c-0.3,5.5-2.8,10.8-9.2,14.2c-3.8,2.1-9.2,3.4-16.6,3.6c-2.8,8.2-5.2,16.7-7.6,25.1c-9.5,33.2-18.6,65.5-48.3,83.1
		l8.3,43.4c0.1,0.5,0.2,1,0.2,1.5c0,3.2-2.6,5.8-5.8,5.8h-14.5v0c-2.4,0-4.6-1.5-5.5-3.9l-12.8-35.9c-7.6,1.5-16,2.4-25.4,2.6
		c-0.2,0-0.5,0-0.7,0h-95.5h-95.5v0h-0.1c-9.6-0.2-18.2-1.1-26-2.7L99,413.5c-0.8,2.4-3.1,3.9-5.5,3.9v0H79c-3.2,0-5.8-2.6-5.8-5.8
		c0-0.5,0.1-1,0.2-1.4l8.4-43.8c-5.7-3.4-10.6-7.4-15-11.8c-13.7-13.9-21.4-31.9-27.5-51.2c-3.2-0.1-6.3-0.9-9-2.4
		c-0.2-0.1-0.3-0.2-0.5-0.3c-3.6-2.3-6.4-5.9-7.4-11c-0.1-0.5-0.1-1-0.1-1.5l0-29.9c-5.7-0.5-10.1-1.7-13.3-3.5
		c-6.3-3.5-8.7-8.7-9-14.1c0-0.3,0-0.8,0-1.3c0-5.5,2.3-9.9,6.1-13c3.5-2.8,8.1-4.5,13.4-4.8c0.5,0,1,0,1.6,0c0.2,0,0.3,0,0.5,0h0.8
		l0-192.1c0-3.2,2.6-5.8,5.8-5.8h183.6c3.2,0,5.8,2.6,5.8,5.8h0v192.1H361.4z M13.5,235.3c-1.2,1-1.9,2.4-1.9,4.1
		c0,2.3,1.1,4.1,3.1,5.2c1.8,1,4.3,1.7,7.7,2.1l0-13.6C19.3,233.1,16,233.2,13.5,235.3z"/>
</g>
</svg>
