<?xml version="1.0" encoding="utf-8"?>
<!-- Generator: Adobe Illustrator 19.0.0, SVG Export Plug-In . SVG Version: 6.00 Build 0)  -->
<svg version="1.1" id="icons" xmlns="http://www.w3.org/2000/svg" xmlns:xlink="http://www.w3.org/1999/xlink" x="0px" y="0px"
	 viewBox="0 0 518.7 222.5" style="enable-background:new 0 0 518.7 222.5;" xml:space="preserve">
<style type="text/css">
	.st0{fill-rule:evenodd;clip-rule:evenodd;fill:#E6AC6C;}
	.st1{fill-rule:evenodd;clip-rule:evenodd;fill:#9ACC9A;}
	.st2{fill:#58373F;}
</style>
<polygon class="st0" points="259.4,49.7 372.7,163.1 486.1,49.7 512.9,76.5 372.7,216.7 259.4,103.4 146,216.7 5.8,76.5 32.7,49.7 
	146,163.1 "/>
<g>
	<polygon class="st1" points="131.1,139.3 154.8,163.1 263.4,54.6 239.6,30.8 	"/>
	
		<rect x="84.9" y="64" transform="matrix(0.7071 -0.7071 0.7071 0.7071 -10.039 133.2618)" class="st1" width="141.9" height="29.5"/>
	<polygon class="st1" points="456,27.1 447.5,35.6 425.1,13.3 410.2,28.2 387.8,5.8 301.6,92 324,114.3 346.4,136.7 372.7,163.1 
		482.4,53.4 	"/>
</g>
<path class="st2" d="M214.4,39l-12.7-12.7l-92.1,92.1l9.6,9.6l3.1,3.1L214.4,39z M246.3,54.6L230.8,39L130.5,139.3l15.5,15.5
	L246.3,54.6z M402,28.2L387.8,14l-78,78l8.2,8.2l5.9,5.9L402,28.2z M346.4,128.5l26.3,26.3L474.2,53.4L456,35.3l-4.5,4.5l0,0l-97,97
	L346.4,128.5z M336.8,118.9l9.6,9.6l92.9-92.9l-14.2-14.2l-10.8,10.8l0,0l-82.1,82.1L336.8,118.9z M258.9,58.4
	c-0.1,0.1-0.2,0.2-0.3,0.3c-0.1,0.1-0.2,0.2-0.3,0.3l0,0l0,0l0,0h0L150.4,166.8c-0.1,0.1-0.2,0.2-0.3,0.3c-2.3,2.3-5.9,2.3-8.2,0
	l-23.7-23.7l0,0L32.7,57.9L14,76.5l132,132L255.3,99.3c2.3-2.3,5.9-2.3,8.2,0l109.3,109.3l132-132l-18.6-18.6L376.8,167.2
	c-2.3,2.3-5.9,2.3-8.2,0c-0.1-0.1-0.2-0.2-0.3-0.3l-25.7-25.7l0,0l0,0l0,0c-0.1-0.1-0.2-0.2-0.3-0.3c-0.1-0.1-0.2-0.2-0.3-0.3l0,0
	l0,0l-21.8-21.7l0,0l0,0l0,0c-0.1-0.1-0.2-0.2-0.3-0.3c-0.1-0.1-0.2-0.2-0.3-0.3l0,0l0,0l-7.6-7.6l-52.7-52.7L258.9,58.4z
	 M205.8,14.1l16.8,16.8l4.1-4.1c2.3-2.3,5.9-2.3,8.2,0l19.6,19.6l0.7-0.7c2.3-2.2,5.9-2.2,8.2,0l38.2,38.2l82.1-82.1
	c2.3-2.3,5.9-2.3,8.2,0L410.2,20L421,9.2c2.3-2.3,5.9-2.3,8.2,0l18.3,18.3l4.5-4.5c2.3-2.3,5.9-2.3,8.2,0l22.3,22.3
	c2.3-1.9,5.7-1.7,7.8,0.4L517,72.4c2.3,2.3,2.3,5.9,0,8.2L376.8,220.8c-2.3,2.3-5.9,2.3-8.2,0L259.4,111.6L150.1,220.8
	c-2.3,2.3-5.9,2.3-8.2,0L1.7,80.7c-2.3-2.3-2.3-5.9,0-8.2l26.8-26.8c2.3-2.3,5.9-2.3,8.2,0l64.7,64.7l96.2-96.2
	C199.9,11.8,203.6,11.8,205.8,14.1z"/>
</svg>
