<svg xmlns="http://www.w3.org/2000/svg" viewBox="0 0 64 64"><g id="Layer_31" data-name="Layer 31"><path d="M1,23H63a0,0,0,0,1,0,0v2a2,2,0,0,1-2,2H3a2,2,0,0,1-2-2V23A0,0,0,0,1,1,23Z" style="fill:#f8c460"/><path d="M4,25V23H1v2a2,2,0,0,0,2,2H6A2,2,0,0,1,4,25Z" style="fill:#faaf42"/><path d="M53.531,55H10.469a4,4,0,0,1-3.96-3.434L3,27H61L57.491,51.566A4,4,0,0,1,53.531,55Z" style="fill:#f8c460"/><path d="M61,27H3l.286,2h0L6.509,51.566A4,4,0,0,0,10.469,55H53.531a3.99,3.99,0,0,0,3.883-3.109,4.027,4.027,0,0,1-.883.109H34.284A28,28,0,0,1,7.331,31.574,2.01,2.01,0,0,1,9.249,29H60.714Z" style="fill:#faaf42"/><path d="M3,17H3a2,2,0,0,1,2,2v4a0,0,0,0,1,0,0H1a0,0,0,0,1,0,0V19A2,2,0,0,1,3,17Z" style="fill:#f8c460"/><rect x="1" y="21" width="4" height="2" style="fill:#faaf42"/><path d="M61,17h0a2,2,0,0,1,2,2v4a0,0,0,0,1,0,0H59a0,0,0,0,1,0,0V19A2,2,0,0,1,61,17Z" style="fill:#f8c460"/><rect x="59" y="21" width="4" height="2" style="fill:#faaf42"/><path d="M23.3,39H21.3a2,2,0,0,1-2-1.9l-.2-4a2,2,0,0,1,2-2.1H23.1a2,2,0,0,1,2,1.9l.2,4A2,2,0,0,1,23.3,39Z" style="fill:#a7d0e1"/><path d="M25.1,32.9a2,2,0,0,0-2-1.9H21.1a2,2,0,0,0-1.993,2H21.1a2,2,0,0,1,2,1.9l.2,4c0,.034-.005.066-.005.1H23.3a2,2,0,0,0,2-2.1Z" style="fill:#80bbce"/><path d="M23.9,51h-2a2,2,0,0,1-2-1.9l-.2-4a2,2,0,0,1,2-2.1h2a2,2,0,0,1,2,1.9l.2,4A2,2,0,0,1,23.9,51Z" style="fill:#a7d0e1"/><path d="M25.7,44.9a2,2,0,0,0-2-1.9h-2a2,2,0,0,0-1.993,2H21.7a2,2,0,0,1,2,1.9l.2,4c0,.034,0,.066,0,.1H23.9a2,2,0,0,0,2-2.1Z" style="fill:#80bbce"/><path d="M40.7,39h2a2,2,0,0,0,2-1.9l.2-4a2,2,0,0,0-2-2.1H40.9a2,2,0,0,0-2,1.9l-.2,4A2,2,0,0,0,40.7,39Z" style="fill:#a7d0e1"/><path d="M42.9,31h-2a2,2,0,0,0-2,1.9L38.9,33h2a2,2,0,0,1,2,2.1L42.7,39A2,2,0,0,0,44.7,37.1l.2-4A2,2,0,0,0,42.9,31Z" style="fill:#80bbce"/><path d="M40.1,51h2a2,2,0,0,0,2-1.9l.2-4a2,2,0,0,0-2-2.1H40.3a2,2,0,0,0-2,1.9l-.2,4A2,2,0,0,0,40.1,51Z" style="fill:#a7d0e1"/><path d="M42.3,43H40.3a2,2,0,0,0-2,1.9L38.3,45h2a2,2,0,0,1,2,2.1L42.1,51A2,2,0,0,0,44.1,49.1l.2-4A2,2,0,0,0,42.3,43Z" style="fill:#80bbce"/><path d="M12.878,39H10.922a2,2,0,0,1-1.977-1.7l-.6-4A2,2,0,0,1,10.322,31h1.956a2,2,0,0,1,1.978,1.7l.6,4A2,2,0,0,1,12.878,39Z" style="fill:#a7d0e1"/><path d="M14.856,36.7l-.6-4A2,2,0,0,0,12.278,31H10.322a1.993,1.993,0,0,0-1.989,2h1.945a2,2,0,0,1,1.977,1.7l.6,4a1.982,1.982,0,0,1,.011.3h.011A2,2,0,0,0,14.856,36.7Z" style="fill:#80bbce"/><path d="M14.678,51H12.722a2,2,0,0,1-1.978-1.7l-.6-4A2,2,0,0,1,12.122,43h1.956a2,2,0,0,1,1.977,1.7l.6,4A2,2,0,0,1,14.678,51Z" style="fill:#a7d0e1"/><path d="M16.656,48.7l-.6-4A2,2,0,0,0,14.078,43H12.122a1.993,1.993,0,0,0-1.989,2h1.945a2,2,0,0,1,1.977,1.7l.6,4a1.982,1.982,0,0,1,.011.3h.011A2,2,0,0,0,16.656,48.7Z" style="fill:#80bbce"/><path d="M51.122,39h1.956a2,2,0,0,0,1.977-1.7l.6-4A2,2,0,0,0,53.678,31H51.722a2,2,0,0,0-1.978,1.7l-.6,4A2,2,0,0,0,51.122,39Z" style="fill:#a7d0e1"/><path d="M53.678,31H51.722a2,2,0,0,0-1.977,1.7L49.7,33l.022,0h1.956a2,2,0,0,1,1.978,2.3L53.1,39a2,2,0,0,0,1.955-1.7l.6-4A2,2,0,0,0,53.678,31Z" style="fill:#80bbce"/><path d="M49.322,51h1.956a2,2,0,0,0,1.978-1.7l.6-4A2,2,0,0,0,51.878,43H49.922a2,2,0,0,0-1.977,1.7l-.6,4A2,2,0,0,0,49.322,51Z" style="fill:#a7d0e1"/><path d="M51.878,43H49.922a2,2,0,0,0-1.977,1.7L47.9,45l.022,0h1.956a2,2,0,0,1,1.978,2.3L51.3,51a2,2,0,0,0,1.955-1.7l.6-4A2,2,0,0,0,51.878,43Z" style="fill:#80bbce"/><rect x="29" y="31" width="6" height="8" rx="2" transform="translate(64 70) rotate(-180)" style="fill:#a7d0e1"/><path d="M33,31H31a2,2,0,0,0-2,2h2a2,2,0,0,1,2,2v4a2,2,0,0,0,2-2V33A2,2,0,0,0,33,31Z" style="fill:#80bbce"/><rect x="29" y="43" width="6" height="8" rx="2" transform="translate(64 94) rotate(-180)" style="fill:#a7d0e1"/><path d="M33,43H31a2,2,0,0,0-2,2h2a2,2,0,0,1,2,2v4a2,2,0,0,0,2-2V45A2,2,0,0,0,33,43Z" style="fill:#80bbce"/><path d="M51.83,17H51a4,4,0,0,0,3.981-4.393A4.116,4.116,0,0,0,50.828,9H16a7,7,0,0,0-7,7H9a7,7,0,0,0,7,7H52a3,3,0,0,0,3-3.161A3.114,3.114,0,0,0,51.83,17Z" style="fill:#a7d0e1"/><path d="M19,20A6.993,6.993,0,0,1,12.786,9.786,7,7,0,0,0,16,23H52a2.991,2.991,0,0,0,2.987-3Z" style="fill:#80bbce"/><path d="M59,26H57a1,1,0,0,1,0-2h2a1,1,0,0,1,0,2Z" style="fill:#fff"/><path d="M23,18H15a1,1,0,0,1,0-2h8a1,1,0,0,1,0,2Z" style="fill:#80bbce"/><path d="M49,18H27a1,1,0,0,1,0-2H49a1,1,0,0,1,0,2Z" style="fill:#80bbce"/></g></svg>