<svg xmlns="http://www.w3.org/2000/svg" viewBox="0 0 64 64"><g id="Layer_31" data-name="Layer 31"><path d="M43,5H21L9.422,10.789A8,8,0,0,0,5,17.944V31.528a2,2,0,0,0,.211.894L6,34l-.789,1.578A2,2,0,0,0,5,36.472V55a2,2,0,0,0,2,2h8v2.393a2,2,0,0,0,1.569,1.959,73.079,73.079,0,0,0,30.862,0A2,2,0,0,0,49,59.393V57h8a2,2,0,0,0,2-2V36.472a2,2,0,0,0-.211-.894L58,34l.789-1.578A2,2,0,0,0,59,31.528V17.944a8,8,0,0,0-4.422-7.155Z" style="fill:#a7d0e1"/><path d="M43,5H21l-1.784.892,6.442,10.021a2,2,0,0,0,3.1.332l1.831-1.831a2,2,0,0,1,2.828,0L37,18,44.784,5.892Z" style="fill:#80bbce"/><path d="M19.569,58.352A2,2,0,0,1,18,56.393V56a2,2,0,0,0-2-2h0a8,8,0,0,1-8-8V33.472a2,2,0,0,1,.211-.894L9,31l-.789-1.578A2,2,0,0,1,8,28.528V14.944a7.979,7.979,0,0,1,1.053-3.937A7.987,7.987,0,0,0,5,17.944V31.528a2,2,0,0,0,.211.894L6,34l-.789,1.578A2,2,0,0,0,5,36.472V55a2,2,0,0,0,2,2h8v2.393a2,2,0,0,0,1.569,1.959,73.079,73.079,0,0,0,30.862,0A2,2,0,0,0,49,59.393V58.62A73.012,73.012,0,0,1,19.569,58.352Z" style="fill:#80bbce"/><polygon points="41 1 23 1 21 5 43 5 41 1" style="fill:#cecece"/><path d="M49,47a4.984,4.984,0,0,0-4.529-4.953,3.958,3.958,0,0,0-7.418,2.479,3.984,3.984,0,0,0,1.116,7.385A3.959,3.959,0,0,0,38,53a4,4,0,1,0,7.755-1.334A4.988,4.988,0,0,0,49,47Z" style="fill:#f8c460"/><path d="M29,28a4,4,0,1,0-7.99.28,2.59,2.59,0,0,1-1.2,2.389A4,4,0,1,0,26,34c0-.115,0-.229-.015-.341A2.622,2.622,0,0,1,27.242,31.3,3.962,3.962,0,0,0,29,28Z" style="fill:#f8c460"/><path d="M45,17a2,2,0,0,0-4,0,1.905,1.905,0,0,0,.027.263A2,2,0,1,0,44,19a1.905,1.905,0,0,0-.027-.263A1.992,1.992,0,0,0,45,17Z" style="fill:#f8c460"/><circle cx="7" cy="23" r="2" style="fill:#f8c460"/><path d="M50,12a1,1,0,0,1-.446-.105l-2-1a1,1,0,0,1,.894-1.79l2,1A1,1,0,0,1,50,12Z" style="fill:#fff"/><path d="M14,54a1,1,0,0,1-1-1V21a1,1,0,0,1,2,0V53A1,1,0,0,1,14,54Z" style="fill:#80bbce"/><path d="M33,10V62.98c-.67.02-1.33.02-2,0V10a1,1,0,0,1,2,0Z" style="fill:#80bbce"/><path d="M50,54a1,1,0,0,1-1-1V21a1,1,0,0,1,2,0V53A1,1,0,0,1,50,54Z" style="fill:#80bbce"/><path d="M5,53H15a0,0,0,0,1,0,0v4a0,0,0,0,1,0,0H7a2,2,0,0,1-2-2V53A0,0,0,0,1,5,53Z" style="fill:#e6e6e6"/><path d="M15,53.931A7.95,7.95,0,0,1,12.13,53H5v2a2,2,0,0,0,2,2h8Z" style="fill:#cecece"/><path d="M51,53h8a0,0,0,0,1,0,0v4a0,0,0,0,1,0,0H49a0,0,0,0,1,0,0V55A2,2,0,0,1,51,53Z" transform="translate(108 110) rotate(-180)" style="fill:#e6e6e6"/><rect x="49" y="53" width="3" height="4" transform="translate(101 110) rotate(-180)" style="fill:#cecece"/><polygon points="21 5 27 15 32 10 23 1 21 5" style="fill:#e6e6e6"/><path d="M28.811,10.189A2,2,0,0,1,25.682,9.8L21.818,3.364,21,5l6,10,5-5L30.5,8.5Z" style="fill:#cecece"/><polygon points="43 5 37 15 32 10 41 1 43 5" style="fill:#e6e6e6"/><path d="M35.189,10.189A2,2,0,0,0,38.318,9.8l3.864-6.439L43,5,37,15l-5-5,1.5-1.5Z" style="fill:#cecece"/></g></svg>