<svg xmlns="http://www.w3.org/2000/svg" viewBox="0 0 64 64"><g id="Layer_31" data-name="Layer 31"><path d="M55,11l-6,7-5-3,2,20q-14,8-28,0l2-20-5,3L9,11,21,1h8a3,3,0,0,0,6,0h8Z" style="fill:#f8c460"/><path d="M22.422,17.782l.182-1.819a2,2,0,0,0-3.019-1.914l-.137.082a2,2,0,0,1-2.547-.413L12.25,8.292,9,11l6,7,5-3L18,35q14,8,28,0l-.142-1.416a30.311,30.311,0,0,1-2.882,1.108C32.129,38.226,21.287,29.134,22.422,17.782Z" style="fill:#faaf42"/><path d="M48,29.1c0-.033.005-.066.005-.1a7,7,0,0,0-13.349-2.934A4.817,4.817,0,0,0,34,26a5,5,0,0,0-4.609,3.061A4.987,4.987,0,0,0,30,39H47A5,5,0,0,0,48,29.1Z" style="fill:#a7d0e1"/><path d="M28,34a4.984,4.984,0,0,1,4.391-4.939A5,5,0,0,1,37,26a4.817,4.817,0,0,1,.651.066,7,7,0,0,1,4.881-3.893,6.972,6.972,0,0,0-7.881,3.893A4.817,4.817,0,0,0,34,26a5,5,0,0,0-4.609,3.061A4.987,4.987,0,0,0,30,39h3A5,5,0,0,1,28,34Z" style="fill:#80bbce"/><path d="M49.013,61.842a132.8,132.8,0,0,1-34.026,0,8.042,8.042,0,0,1-6.941-6.631L5,36.936H59L55.954,55.211A8.042,8.042,0,0,1,49.013,61.842Z" style="fill:#e6e6e6"/><path d="M51.74,35.519a4.821,4.821,0,0,0-.392-3.984q-12.928.521-25.856.352A4.9,4.9,0,0,0,25,34a4.975,4.975,0,0,0,.374,1.886Q38.558,36.067,51.74,35.519Z" style="fill:#80bbce"/><path d="M60.888,33.068a481.285,481.285,0,0,1-57.776,0A1.988,1.988,0,0,0,1,35.052H1a2.006,2.006,0,0,0,1.881,2,481.119,481.119,0,0,0,58.238,0,2.006,2.006,0,0,0,1.881-2h0A1.988,1.988,0,0,0,60.888,33.068Z" style="fill:#e6e6e6"/><path d="M58.625,39.25,59,37H5L8.046,55.275a8.038,8.038,0,0,0,6.938,6.63,132.781,132.781,0,0,0,34.029,0,8.083,8.083,0,0,0,5.95-3.937,8.125,8.125,0,0,1-2.95,1,132.825,132.825,0,0,1-23.862.917A19.977,19.977,0,0,1,9.522,43.2L9.3,41.852a1.993,1.993,0,0,1,2.058-2.319Q34.99,40.55,58.625,39.25Z" style="fill:#cecece"/><path d="M5.881,37.054a2,2,0,0,1-.568-3.871c-.733-.04-1.467-.071-2.2-.115a2,2,0,1,0-.231,3.986C13.087,37.672,15.087,37.612,5.881,37.054Z" style="fill:#cecece"/><circle cx="5" cy="17" r="2" style="fill:#a7d0e1"/><circle cx="59" cy="5" r="2" style="fill:#a7d0e1"/><circle cx="60" cy="19" r="2" style="fill:#a7d0e1"/><circle cx="30" cy="14" r="3" style="fill:#a7d0e1"/><path d="M30,11a3,3,0,1,0,3,3A3,3,0,0,1,30,11Z" style="fill:#80bbce"/><circle cx="44" cy="47" r="2" style="fill:#a7d0e1"/><path d="M26,57a3,3,0,0,0-6,0c0,.061.014.118.018.178A2.993,2.993,0,0,0,21,63h5a3,3,0,0,0,0-6Z" style="fill:#a7d0e1"/><path d="M29,60a3,3,0,0,1-3,3H21a2.993,2.993,0,0,1-.99-5.82A2.986,2.986,0,0,0,23,60h5a2.888,2.888,0,0,0,.98-.18A1.1,1.1,0,0,1,29,60Z" style="fill:#80bbce"/><path d="M11.915,25.1a4,4,0,0,0-4.547,2.242,2.9,2.9,0,0,0-2.137-.239,3.044,3.044,0,0,0-2.2,2.479A3,3,0,0,0,6,33H7v5.916A2.048,2.048,0,0,0,8.348,40.9,2.007,2.007,0,0,0,11,39V34.567a1.935,1.935,0,0,1,1.346-1.8,4,4,0,0,0-.431-7.666Z" style="fill:#a7d0e1"/><path d="M10,35.916V30H9a2.989,2.989,0,0,1-2.983-2.987,2.856,2.856,0,0,0-.786.092,3.044,3.044,0,0,0-2.2,2.479A3,3,0,0,0,6,33H7v5.916A2.048,2.048,0,0,0,8.348,40.9,2.007,2.007,0,0,0,11,39V37.712A2.087,2.087,0,0,1,10,35.916Z" style="fill:#80bbce"/><circle cx="44" cy="25" r="1" style="fill:#fff"/><circle cx="11" cy="27" r="1" style="fill:#fff"/><circle cx="24" cy="57" r="1" style="fill:#fff"/></g></svg>