<svg xmlns="http://www.w3.org/2000/svg" viewBox="0 0 64 64"><g id="Layer_31" data-name="Layer 31"><path d="M11,31a1,1,0,0,1-.594-1.8l19-14a1,1,0,1,1,1.186,1.61l-19,14A.99.99,0,0,1,11,31Z" style="fill:#e6e6e6"/><path d="M32,30a1,1,0,0,1-1-1V17a1,1,0,0,1,2,0V29A1,1,0,0,1,32,30Z" style="fill:#e6e6e6"/><path d="M53,31a.99.99,0,0,1-.592-.2l-19-14a1,1,0,0,1,1.186-1.61l19,14A1,1,0,0,1,53,31Z" style="fill:#e6e6e6"/><path d="M32,38a1,1,0,0,1-1-1V33a1,1,0,0,1,2,0v4A1,1,0,0,1,32,38Z" style="fill:#7a838b"/><path d="M11,38a1,1,0,0,1-1-1V33a1,1,0,0,1,2,0v4A1,1,0,0,1,11,38Z" style="fill:#7a838b"/><path d="M53,38a1,1,0,0,1-1-1V33a1,1,0,0,1,2,0v4A1,1,0,0,1,53,38Z" style="fill:#7a838b"/><path d="M32,15a1,1,0,0,1-1-1V11a4.022,4.022,0,0,1,.8-2.4l1.8-2.4A2,2,0,1,0,30,5V6a1,1,0,0,1-2,0V5a4,4,0,1,1,7.2,2.4L33.4,9.8A2.012,2.012,0,0,0,33,11v3A1,1,0,0,1,32,15Z" style="fill:#7a838b"/><rect x="3" y="29" width="58" height="4" rx="2" style="fill:#7a838b"/><path d="M6,31a2,2,0,0,1,2-2H5a2,2,0,0,0,0,4H8A2,2,0,0,1,6,31Z" style="fill:#5d6972"/><path d="M32,13h0a3,3,0,0,1,3,3v1a0,0,0,0,1,0,0H29a0,0,0,0,1,0,0V16A3,3,0,0,1,32,13Z" style="fill:#7a838b"/><path d="M33.5,13.416A2.968,2.968,0,0,0,32,13a3,3,0,0,0-3,3v1h3V16A2.987,2.987,0,0,1,33.5,13.416Z" style="fill:#5d6972"/><path d="M6.221,40.831,8.305,52.649a2,2,0,0,1-1.622,2.317h0A4,4,0,0,0,3.438,59.6h0a4,4,0,0,0,4.634,3.245l3.939-.7A8,8,0,0,0,18.5,52.882L16.069,39.1Z" style="fill:#e6e6e6"/><path d="M15.011,59.149l-3.939.7a4,4,0,0,1-4.6-4.82,3.992,3.992,0,0,0,1.6,7.82l3.939-.7a7.985,7.985,0,0,0,5.573-3.936A7.971,7.971,0,0,1,15.011,59.149Z" style="fill:#cecece"/><rect x="6.69" y="39.915" width="10" height="6.268" transform="translate(-7.298 2.684) rotate(-10)" style="fill:#a7d0e1"/><path d="M27.221,40.831l2.084,11.818a2,2,0,0,1-1.622,2.317h0A4,4,0,0,0,24.438,59.6h0a4,4,0,0,0,4.634,3.245l3.939-.7A8,8,0,0,0,39.5,52.882L37.069,39.1Z" style="fill:#e6e6e6"/><path d="M36.011,59.149l-3.939.7a4,4,0,0,1-4.6-4.82,3.992,3.992,0,0,0,1.6,7.82l3.939-.7a7.985,7.985,0,0,0,5.573-3.936A7.971,7.971,0,0,1,36.011,59.149Z" style="fill:#cecece"/><rect x="27.674" y="39.916" width="10" height="6.094" transform="matrix(0.985, -0.174, 0.174, 0.985, -6.964, 6.327)" style="fill:#a7d0e1"/><path d="M48.221,40.831l2.084,11.818a2,2,0,0,1-1.622,2.317h0A4,4,0,0,0,45.438,59.6h0a4,4,0,0,0,4.634,3.245l3.939-.7A8,8,0,0,0,60.5,52.882L58.069,39.1Z" style="fill:#e6e6e6"/><path d="M57.011,59.149l-3.939.7a4,4,0,0,1-4.6-4.82,3.992,3.992,0,0,0,1.6,7.82l3.939-.7a7.985,7.985,0,0,0,5.573-3.936A7.971,7.971,0,0,1,57.011,59.149Z" style="fill:#cecece"/><rect x="48.674" y="39.916" width="10" height="6.094" transform="matrix(0.985, -0.174, 0.174, 0.985, -6.645, 9.973)" style="fill:#a7d0e1"/><polygon points="12.333 43 9.667 43 9 37 13 37 12.333 43" style="fill:#f8c460"/><polygon points="7.403 40.623 7.667 43 10.333 43 10.661 40.048 7.403 40.623" style="fill:#80bbce"/><polygon points="28.403 40.623 28.667 43 31.333 43 31.661 40.048 28.403 40.623" style="fill:#80bbce"/><polygon points="49.403 40.623 49.667 43 52.333 43 52.661 40.048 49.403 40.623" style="fill:#80bbce"/><path d="M11.086,39.447,11.222,37H9l.667,6h2.666l.223-2h0A1.472,1.472,0,0,1,11.086,39.447Z" style="fill:#faaf42"/><polygon points="54.333 43 51.667 43 51 37 55 37 54.333 43" style="fill:#f8c460"/><polygon points="33.333 43 30.667 43 30 37 34 37 33.333 43" style="fill:#f8c460"/><path d="M32.086,39.447,32.222,37H30l.667,6h2.666l.223-2h0A1.472,1.472,0,0,1,32.086,39.447Z" style="fill:#faaf42"/><path d="M53.086,39.447,53.222,37H51l.667,6h2.666l.223-2h0A1.472,1.472,0,0,1,53.086,39.447Z" style="fill:#faaf42"/><path d="M59,32H57a1,1,0,0,1,0-2h2a1,1,0,0,1,0,2Z" style="fill:#fff"/></g></svg>