<svg xmlns="http://www.w3.org/2000/svg" viewBox="0 0 64 64"><g id="Layer_31" data-name="Layer 31"><path d="M53,63H11a4,4,0,0,1-4-4V14.338A4,4,0,0,1,10.284,10.4L18,9A49.994,49.994,0,0,1,46,9l7.716,1.4A4,4,0,0,1,57,14.338V59A4,4,0,0,1,53,63Z" style="fill:#a7d0e1"/><path d="M18,9l-1.181.215c-.783,5.385,2.776,12.553,5.2,17.007A1.99,1.99,0,0,0,24.757,27c.937-.532,2.129-1.207,3.276-1.852a8,8,0,0,1,7.8-.018l3.411,1.895a1.993,1.993,0,0,0,2.724-.785c2.425-4.453,6-11.633,5.211-17.025L46,9A49.994,49.994,0,0,0,18,9Z" style="fill:#80bbce"/><path d="M56,60h0A46,46,0,0,1,10,14V11.338a4.02,4.02,0,0,1,.111-.888A3.993,3.993,0,0,0,7,14.338V59a4,4,0,0,0,4,4H53a4,4,0,0,0,3.892-3.108A3.974,3.974,0,0,1,56,60Z" style="fill:#80bbce"/><path d="M43,3A31.246,31.246,0,0,0,21,3L18,9A49.994,49.994,0,0,1,46,9Z" style="fill:#cecece"/><rect x="29" y="20" width="6" height="43" style="fill:#e6e6e6"/><path d="M29,24.689a8,8,0,0,1,6,.046V20H29Z" style="fill:#cecece"/><path d="M29,51.233V63h6V54.922A45.979,45.979,0,0,1,29,51.233Z" style="fill:#cecece"/><path d="M44,33H57a0,0,0,0,1,0,0V51a0,0,0,0,1,0,0H48a4,4,0,0,1-4-4V33A0,0,0,0,1,44,33Z" style="fill:#e6e6e6"/><path d="M57,48A10,10,0,0,1,47,38V33H44V47a4,4,0,0,0,4,4h9V48Z" style="fill:#cecece"/><path d="M18,9a45.668,45.668,0,0,0,5,16l9-5A41.644,41.644,0,0,1,21,3Z" style="fill:#e6e6e6"/><path d="M30.436,18.425l-2.715,1.508a3.99,3.99,0,0,1-5.634-1.942A49.338,49.338,0,0,1,19.119,6.762L18,9a45.668,45.668,0,0,0,5,16l9-5C31.45,19.471,30.935,18.947,30.436,18.425Z" style="fill:#cecece"/><path d="M46,9a45.668,45.668,0,0,1-5,16l-9-5A41.644,41.644,0,0,0,43,3Z" style="fill:#e6e6e6"/><path d="M33.564,18.425l2.715,1.508a3.99,3.99,0,0,0,5.634-1.942A49.338,49.338,0,0,0,44.881,6.762L46,9a45.668,45.668,0,0,1-5,16l-9-5C32.55,19.471,33.065,18.947,33.564,18.425Z" style="fill:#cecece"/><circle cx="32" cy="27" r="1" style="fill:#a7d0e1"/><circle cx="32" cy="37" r="1" style="fill:#a7d0e1"/><circle cx="32" cy="45" r="1" style="fill:#a7d0e1"/><circle cx="32" cy="55" r="1" style="fill:#a7d0e1"/><path d="M54,14a.948.948,0,0,1-.2-.02l-3-.6a1,1,0,0,1,.392-1.961l3,.6A1,1,0,0,1,54,14Z" style="fill:#fff"/><rect x="44" y="36" width="13" height="2" style="fill:#cecece"/></g></svg>