<svg xmlns="http://www.w3.org/2000/svg" viewBox="0 0 64 64"><g id="Layer_31" data-name="Layer 31"><path d="M52,31H12a4,4,0,0,1-4-4v-.969a3.981,3.981,0,0,1,2.514-3.714l19.132-7.252A1,1,0,0,1,30,15h4a1,1,0,0,1,.354.065l19.115,7.246A3.986,3.986,0,0,1,56,26.031V27A4,4,0,0,1,52,31ZM30.183,17,11.24,24.181A1.984,1.984,0,0,0,10,26.031V27a2,2,0,0,0,2,2H52a2,2,0,0,0,2-2v-.969a1.99,1.99,0,0,0-1.257-1.857L33.817,17Z" style="fill:#7a838b"/><path d="M32,15a1,1,0,0,1-1-1V11.333a5.032,5.032,0,0,1,1-3L33.6,6.2A2,2,0,1,0,30,5V6a1,1,0,0,1-2,0V5a4,4,0,1,1,7.2,2.4L33.6,9.533a3.018,3.018,0,0,0-.6,1.8V14A1,1,0,0,1,32,15Z" style="fill:#7a838b"/><path d="M32,13h0a3,3,0,0,1,3,3v1a0,0,0,0,1,0,0H29a0,0,0,0,1,0,0V16a3,3,0,0,1,3-3Z" style="fill:#7a838b"/><path d="M33.5,13.416A2.968,2.968,0,0,0,32,13a3,3,0,0,0-3,3v1h3V16A2.987,2.987,0,0,1,33.5,13.416Z" style="fill:#5d6972"/><path d="M14,33,11,63H26l3.678-18.392A2,2,0,0,1,31.64,43h.72a2,2,0,0,1,1.962,1.608L38,63H53L50,33Z" style="fill:#a7d0e1"/><rect x="14" y="29" width="36" height="4" style="fill:#a7d0e1"/><rect x="14" y="29" width="3" height="4" style="fill:#80bbce"/><polygon points="44.333 35 41.667 35 41 27 45 27 44.333 35" style="fill:#f8c460"/><polygon points="19.667 35 22.333 35 23 27 19 27 19.667 35" style="fill:#f8c460"/><path d="M21.079,30.419,21.25,27H19l.667,8h2.666l.25-3h0A1.506,1.506,0,0,1,21.079,30.419Z" style="fill:#faaf42"/><path d="M43.079,30.419,43.25,27H41l.667,8h2.666l.25-3h0A1.506,1.506,0,0,1,43.079,30.419Z" style="fill:#faaf42"/><rect x="9" y="59" width="20" height="4" rx="2" style="fill:#a7d0e1"/><path d="M15.924,43.761,17,33H14L11.5,58l-.2,2h0L11,63h3l.3-3H26.6l.722-3.608L27,56h0A11.131,11.131,0,0,1,15.924,43.761Z" style="fill:#80bbce"/><path d="M52.7,60l-.4-4H49.438a12,12,0,0,1-11.767-9.647l-.349-1.745A2,2,0,0,0,35.36,43h-.72a1.984,1.984,0,0,0-1.14.365,1.991,1.991,0,0,1,.822,1.243L38,63h3l-.6-3Z" style="fill:#80bbce"/><path d="M12,61a2,2,0,0,1,2-2H11a2,2,0,0,0,0,4h3A2,2,0,0,1,12,61Z" style="fill:#80bbce"/><rect x="35" y="59" width="20" height="4" rx="2" style="fill:#a7d0e1"/><path d="M38,61a2,2,0,0,1,2-2H37a2,2,0,0,0,0,4h3A2,2,0,0,1,38,61Z" style="fill:#80bbce"/><path d="M48,32H47a1,1,0,0,1,0-2h1a1,1,0,0,1,0,2Z" style="fill:#fff"/></g></svg>