<svg xmlns="http://www.w3.org/2000/svg" viewBox="0 0 64 64"><g id="Layer_31" data-name="Layer 31"><rect x="18" y="9" width="4" height="14" style="fill:#7a838b"/><rect x="46" y="9" width="4" height="14" style="fill:#7a838b"/><path d="M3,1H3A2,2,0,0,1,5,3V63a0,0,0,0,1,0,0H1a0,0,0,0,1,0,0V3A2,2,0,0,1,3,1Z" style="fill:#7a838b"/><path d="M5,5H61a2,2,0,0,1,2,2V7a2,2,0,0,1-2,2H5A0,0,0,0,1,5,9V5A0,0,0,0,1,5,5Z" style="fill:#7a838b"/><circle cx="34" cy="35" r="22" style="fill:#f8c460"/><path d="M48,21.717a1,1,0,0,1-.7-.285A19.065,19.065,0,0,0,45.4,19.8a1,1,0,1,1,1.2-1.6A21.443,21.443,0,0,1,48.7,20a1,1,0,0,1-.7,1.714Z" style="fill:#fff"/><path d="M37,53.737A22,22,0,0,1,20.016,17.753,22,22,0,1,0,50.984,48.721,21.907,21.907,0,0,1,37,53.737Z" style="fill:#faaf42"/><rect x="24" y="19" width="20" height="24" rx="2" style="fill:#e6e6e6"/><path d="M26,19H42a2,2,0,0,1,2,2v2a0,0,0,0,1,0,0H24a0,0,0,0,1,0,0V21A2,2,0,0,1,26,19Z" style="fill:#7a838b"/><circle cx="34" cy="33" r="6" style="fill:#a7d0e1"/><path d="M34.586,33.586l-1.172-1.172a2,2,0,0,0-2.828,0l-2.327,2.327a6,6,0,0,0,6.163,4.245,6.071,6.071,0,0,0,5.543-5.339,5.99,5.99,0,0,0-.224-2.388l-2.327,2.327A2,2,0,0,1,34.586,33.586Z" style="fill:#80bbce"/><rect x="5" y="5" width="3" height="4" style="fill:#5d6972"/><rect x="18" y="9" width="4" height="2" style="fill:#5d6972"/><rect x="46" y="9" width="4" height="2" style="fill:#5d6972"/><path d="M44,46H24a1,1,0,0,0,0,2H44a1,1,0,0,0,0-2Z" style="fill:#a7d0e1"/><path d="M41,50H27a1,1,0,0,0,0,2H41a1,1,0,0,0,0-2Z" style="fill:#a7d0e1"/><path d="M59,8H57a1,1,0,0,1,0-2h2a1,1,0,0,1,0,2Z" style="fill:#fff"/></g></svg>