<svg xmlns="http://www.w3.org/2000/svg" viewBox="0 0 64 64"><g id="Layer_31" data-name="Layer 31"><rect x="1" y="1" width="46" height="62" rx="2" style="fill:#e6e6e6"/><path d="M44,60A40,40,0,0,1,4,20V1H3A2,2,0,0,0,1,3V61a2,2,0,0,0,2,2H45a2,2,0,0,0,2-2V60Z" style="fill:#cecece"/><path d="M3,1H45a2,2,0,0,1,2,2V13a0,0,0,0,1,0,0H1a0,0,0,0,1,0,0V3A2,2,0,0,1,3,1Z" style="fill:#7a838b"/><path d="M4,2V1H3A2,2,0,0,0,1,3V13H47V10H12A8,8,0,0,1,4,2Z" style="fill:#5d6972"/><circle cx="24" cy="38" r="17" style="fill:#7a838b"/><path d="M27,53A17,17,0,0,1,16.115,22.947a17,17,0,1,0,18.77,28.106A16.909,16.909,0,0,1,27,53Z" style="fill:#5d6972"/><circle cx="24" cy="38" r="11" style="fill:#a7d0e1"/><path d="M24,27a10.964,10.964,0,0,0-8.278,3.772A10.988,10.988,0,0,1,30.4,46.935,10.992,10.992,0,0,0,24,27Z" style="fill:#80bbce"/><circle cx="24" cy="7" r="3" style="fill:#a7d0e1"/><path d="M24,5a2.962,2.962,0,0,1,.178-.982C24.118,4.014,24.061,4,24,4a3,3,0,1,0,2.822,3.982A2.992,2.992,0,0,1,24,5Z" style="fill:#80bbce"/><rect x="31" y="4" width="12" height="6" style="fill:#a7d0e1"/><path d="M34,5V4H31v6H43V7H36A2,2,0,0,1,34,5Z" style="fill:#80bbce"/><rect x="5" y="6" width="12" height="4" rx="2" style="fill:#a7d0e1"/><circle cx="48" cy="48" r="15" style="fill:#f8c460"/><path d="M8,8a2,2,0,0,1,2-2H7a2,2,0,0,0,0,4h3A2,2,0,0,1,8,8Z" style="fill:#80bbce"/><path d="M51,60A14.979,14.979,0,0,1,39.012,36.012,14.986,14.986,0,1,0,59.988,56.988,14.909,14.909,0,0,1,51,60Z" style="fill:#faaf42"/><path d="M33.414,36.586a2,2,0,0,1-2.828,0l-1.172-1.172a2,2,0,0,0-2.828,0l-1.172,1.172a2,2,0,0,1-2.828,0l-1.172-1.172a2,2,0,0,0-2.828,0l-1.172,1.172a2,2,0,0,1-2.828,0l-1.172-1.172c-.024-.024-.053-.041-.079-.065a11,11,0,1,0,21.33,0c-.026.024-.055.041-.079.065Z" style="fill:#80bbce"/><circle cx="46" cy="52" r="9" style="fill:#faaf42"/><circle cx="48" cy="50" r="9" style="fill:#e6e6e6"/><path d="M51,55a8.98,8.98,0,0,1-8.411-12.179A8.993,8.993,0,1,0,56.411,53.179,8.946,8.946,0,0,1,51,55Z" style="fill:#cecece"/><path d="M48,50V44a6,6,0,1,0,4.243,10.243Z" style="fill:#f8c460"/><path d="M51.337,54.986c-.112,0-.223.014-.337.014a9,9,0,0,1-8.721-6.811,6,6,0,0,0,9.058,6.8Z" style="fill:#faaf42"/><path d="M50,39v2.22a9.2,9.2,0,0,0-4,0V39a2,2,0,0,1,4,0Z" style="fill:#e6e6e6"/><path d="M55,38.044a.993.993,0,0,1-.538-.158,11.911,11.911,0,0,0-1.838-.963,1,1,0,0,1,.77-1.846A14.009,14.009,0,0,1,55.539,36.2,1,1,0,0,1,55,38.044Z" style="fill:#fff"/><path d="M32,26.309a.99.99,0,0,1-.533-.155,13.976,13.976,0,0,0-1.866-.989,1,1,0,1,1,.8-1.833,15.883,15.883,0,0,1,2.134,1.132A1,1,0,0,1,32,26.309Z" style="fill:#fff"/><path d="M45,16H42a1,1,0,0,1,0-2h3a1,1,0,0,1,0,2Z" style="fill:#fff"/></g></svg>