<svg xmlns="http://www.w3.org/2000/svg" viewBox="0 0 64 64"><g id="Layer_31" data-name="Layer 31"><path d="M56,17c-.069,0-.133.017-.2.02a10.962,10.962,0,0,0-14.644-4.884A14.957,14.957,0,0,0,21.294,13.5,10.994,10.994,0,0,0,8.742,18.075,4.909,4.909,0,0,0,8,18a4.99,4.99,0,0,0-.248,9.975A11,11,0,0,0,21.294,34.5a14.969,14.969,0,0,0,22.815-1.671A10.9,10.9,0,0,0,55.8,26.98c.068,0,.132.02.2.02a5,5,0,0,0,0-10Z" style="fill:#a7d0e1"/><path d="M50,22.1c0-.033.005-.066.005-.1a7,7,0,0,0-13.349-2.934A4.817,4.817,0,0,0,36,19a5,5,0,0,0-4.609,3.061A4.987,4.987,0,0,0,32,32H49A5,5,0,0,0,50,22.1Z" style="fill:#80bbce"/><path d="M49.013,53.842a132.8,132.8,0,0,1-34.026,0,8.042,8.042,0,0,1-6.941-6.631L5,28.936H59L55.954,47.211A8.042,8.042,0,0,1,49.013,53.842Z" style="fill:#e6e6e6"/><path d="M58.625,31.25,59,29H5L8.046,47.275a8.038,8.038,0,0,0,6.938,6.63,132.781,132.781,0,0,0,34.029,0,8.083,8.083,0,0,0,5.95-3.937,8.125,8.125,0,0,1-2.95,1,132.825,132.825,0,0,1-23.862.917A19.977,19.977,0,0,1,9.522,35.2L9.3,33.852a1.993,1.993,0,0,1,2.058-2.319Q34.99,32.55,58.625,31.25Z" style="fill:#cecece"/><path d="M60.888,25.068a481.285,481.285,0,0,1-57.776,0A1.988,1.988,0,0,0,1,27.052H1a2.006,2.006,0,0,0,1.881,2,481.119,481.119,0,0,0,58.238,0,2.006,2.006,0,0,0,1.881-2h0A1.988,1.988,0,0,0,60.888,25.068Z" style="fill:#e6e6e6"/><path d="M5.881,29.054a2,2,0,0,1-.568-3.871c-.733-.04-1.467-.071-2.2-.115a2,2,0,1,0-.231,3.986C13.087,29.672,15.087,29.612,5.881,29.054Z" style="fill:#cecece"/><path d="M9,49a3,3,0,0,0-6,0c0,.061.014.118.018.178A2.993,2.993,0,0,0,4,55H9a3,3,0,0,0,0-6Z" style="fill:#a7d0e1"/><circle cx="19" cy="40" r="3" style="fill:#a7d0e1"/><circle cx="38" cy="48" r="3" style="fill:#a7d0e1"/><circle cx="61" cy="11" r="2" style="fill:#a7d0e1"/><circle cx="5" cy="13" r="2" style="fill:#a7d0e1"/><path d="M19.915,18.1a4,4,0,0,0-4.547,2.242,2.9,2.9,0,0,0-2.137-.239,3.044,3.044,0,0,0-2.2,2.479A3,3,0,0,0,14,26h1v5.916A2.048,2.048,0,0,0,16.348,33.9,2.007,2.007,0,0,0,19,32V27.567a1.935,1.935,0,0,1,1.346-1.8,4,4,0,0,0-.431-7.666Z" style="fill:#80bbce"/><path d="M12,52a3,3,0,0,1-3,3H4a2.993,2.993,0,0,1-.99-5.82A2.986,2.986,0,0,0,6,52h5a2.888,2.888,0,0,0,.98-.18A1.1,1.1,0,0,1,12,52Z" style="fill:#80bbce"/><circle cx="7" cy="49" r="1" style="fill:#fff"/><path d="M52,16.294a1,1,0,0,1-.669-.256,7.914,7.914,0,0,0-1.775-1.207,1,1,0,1,1,.888-1.791,9.881,9.881,0,0,1,2.225,1.511A1,1,0,0,1,52,16.294Z" style="fill:#fff"/></g></svg>