<svg xmlns="http://www.w3.org/2000/svg" viewBox="0 0 64 64"><g id="Layer_31" data-name="Layer 31"><polygon points="63 49 57 49 55 41 53 49 19 49 17 41 15 49 9 49 11 35 61 35 63 49" style="fill:#e6e6e6"/><polygon points="63 49 57 49 56.25 46 62.57 46 63 49" style="fill:#cecece"/><path d="M15.02,37H61.286L61,35H11L9,49h6l.75-3H14.306a2,2,0,0,1-1.98-2.283l.714-5A2,2,0,0,1,15.02,37Z" style="fill:#cecece"/><polygon points="53.75 46 53 49 19 49 18.25 46 53.75 46" style="fill:#cecece"/><path d="M52.528,15H20a3,3,0,0,0-3,3h0a3,3,0,0,0,3,3H49.764a2,2,0,0,1,1.789,1.106l3,6A2,2,0,0,1,52.764,31H11a2,2,0,0,0-2,2v2H63V31.944a4.012,4.012,0,0,0-.422-1.789L56.106,17.211A4,4,0,0,0,52.528,15Z" style="fill:#f8c460"/><path d="M12,32V31H11a2,2,0,0,0-2,2v2H63V32Z" style="fill:#faaf42"/><path d="M20,21H49.764a2,2,0,0,1,1.789,1.106L54.5,28h1.264a2,2,0,0,0,1.789-2.894l-3-6A2,2,0,0,0,52.764,18H23a3,3,0,0,1-3-3,3,3,0,0,0,0,6Z" style="fill:#faaf42"/><path d="M9,43a3,3,0,0,0-6,0c0,.061.014.118.018.178A2.993,2.993,0,0,0,4,49H9a3,3,0,0,0,0-6Z" style="fill:#a7d0e1"/><path d="M47,43a3,3,0,0,0-6,0c0,.061.014.118.018.178A2.993,2.993,0,0,0,42,49h5a3,3,0,0,0,0-6Z" style="fill:#a7d0e1"/><path d="M12,46a3,3,0,0,1-3,3H4a2.993,2.993,0,0,1-.99-5.82A2.986,2.986,0,0,0,6,46h5a2.888,2.888,0,0,0,.98-.18A1.1,1.1,0,0,1,12,46Z" style="fill:#80bbce"/><circle cx="7" cy="43" r="1" style="fill:#fff"/><path d="M50,46a3,3,0,0,1-3,3H42a2.993,2.993,0,0,1-.99-5.82A2.986,2.986,0,0,0,44,46h5a2.888,2.888,0,0,0,.98-.18A1.1,1.1,0,0,1,50,46Z" style="fill:#80bbce"/><circle cx="45" cy="43" r="1" style="fill:#fff"/><path d="M52,18H50a1,1,0,0,1,0-2h2a1,1,0,0,1,0,2Z" style="fill:#fff"/><path d="M25,41v8H23V41a1,1,0,0,1,2,0Z" style="fill:#cecece"/><path d="M31,41v8H29V41a1,1,0,0,1,2,0Z" style="fill:#cecece"/><path d="M37,41v8H35V41a1,1,0,0,1,2,0Z" style="fill:#cecece"/></g></svg>