<svg xmlns="http://www.w3.org/2000/svg" viewBox="0 0 64 64"><g id="Layer_31" data-name="Layer 31"><rect x="9" y="1" width="46" height="62" rx="2" style="fill:#e6e6e6"/><path d="M52,60A40,40,0,0,1,12,20V1H11A2,2,0,0,0,9,3V61a2,2,0,0,0,2,2H53a2,2,0,0,0,2-2V60Z" style="fill:#cecece"/><path d="M11,1H53a2,2,0,0,1,2,2V13a0,0,0,0,1,0,0H9a0,0,0,0,1,0,0V3a2,2,0,0,1,2-2Z" style="fill:#7a838b"/><path d="M12,2V1H11A2,2,0,0,0,9,3V13H55V10H20A8,8,0,0,1,12,2Z" style="fill:#5d6972"/><circle cx="32" cy="38" r="17" style="fill:#7a838b"/><path d="M40,26.309a.99.99,0,0,1-.533-.155,13.976,13.976,0,0,0-1.866-.989,1,1,0,1,1,.8-1.833,15.883,15.883,0,0,1,2.134,1.132A1,1,0,0,1,40,26.309Z" style="fill:#fff"/><path d="M35,53A17,17,0,0,1,24.115,22.947a17,17,0,1,0,18.77,28.106A16.909,16.909,0,0,1,35,53Z" style="fill:#5d6972"/><circle cx="32" cy="38" r="11" style="fill:#98deea"/><path d="M32,27a10.964,10.964,0,0,0-8.278,3.772A10.988,10.988,0,0,1,38.4,46.935,10.992,10.992,0,0,0,32,27Z" style="fill:#80bbce"/><circle cx="32" cy="7" r="3" style="fill:#98deea"/><path d="M32,5a2.962,2.962,0,0,1,.178-.982C32.118,4.014,32.061,4,32,4a3,3,0,1,0,2.822,3.982A2.992,2.992,0,0,1,32,5Z" style="fill:#80bbce"/><rect x="39" y="4" width="12" height="6" style="fill:#98deea"/><path d="M42,5V4H39v6H51V7H44A2,2,0,0,1,42,5Z" style="fill:#80bbce"/><rect x="13" y="6" width="12" height="4" rx="2" style="fill:#98deea"/><path d="M16,8a2,2,0,0,1,2-2H15a2,2,0,0,0,0,4h3A2,2,0,0,1,16,8Z" style="fill:#80bbce"/><path d="M41.414,36.586a2,2,0,0,1-2.828,0l-1.172-1.172a2,2,0,0,0-2.828,0l-1.172,1.172a2,2,0,0,1-2.828,0l-1.172-1.172a2,2,0,0,0-2.828,0l-1.172,1.172a2,2,0,0,1-2.828,0l-1.172-1.172c-.024-.024-.053-.041-.079-.065a11,11,0,1,0,21.33,0c-.026.024-.055.041-.079.065Z" style="fill:#80bbce"/><path d="M53,16H50a1,1,0,0,1,0-2h3a1,1,0,0,1,0,2Z" style="fill:#fff"/></g></svg>