<svg xmlns="http://www.w3.org/2000/svg" viewBox="0 0 64 64"><g id="Layer_31" data-name="Layer 31"><rect x="2" y="23" width="20" height="26" rx="2" style="fill:#e6e6e6"/><path d="M21,46A16,16,0,0,1,5,30V23H4a2,2,0,0,0-2,2V47a2,2,0,0,0,2,2H20a2,2,0,0,0,2-2V46Z" style="fill:#cecece"/><path d="M4,23H20a2,2,0,0,1,2,2v4a0,0,0,0,1,0,0H2a0,0,0,0,1,0,0V25A2,2,0,0,1,4,23Z" style="fill:#7a838b"/><path d="M5,24V23H4a2,2,0,0,0-2,2v4H22V26H7A2,2,0,0,1,5,24Z" style="fill:#5d6972"/><circle cx="12" cy="39" r="6" style="fill:#a7d0e1"/><path d="M14,36.535a.989.989,0,0,1-.5-.135A3.006,3.006,0,0,0,12,36a1,1,0,0,1,0-2,4.985,4.985,0,0,1,2.5.67,1,1,0,0,1-.5,1.865Z" style="fill:#fff"/><path d="M12.586,39.586l-1.172-1.172a2,2,0,0,0-2.828,0L6.259,40.741a6,6,0,0,0,6.163,4.245,6.071,6.071,0,0,0,5.543-5.339,5.99,5.99,0,0,0-.224-2.388l-2.327,2.327A2,2,0,0,1,12.586,39.586Z" style="fill:#80bbce"/><rect x="22" y="23" width="20" height="26" rx="2" style="fill:#e6e6e6"/><path d="M41,46A16,16,0,0,1,25,30V23H24a2,2,0,0,0-2,2V47a2,2,0,0,0,2,2H40a2,2,0,0,0,2-2V46Z" style="fill:#cecece"/><path d="M24,23H40a2,2,0,0,1,2,2v4a0,0,0,0,1,0,0H22a0,0,0,0,1,0,0V25A2,2,0,0,1,24,23Z" style="fill:#7a838b"/><circle cx="32" cy="39" r="6" style="fill:#a7d0e1"/><path d="M25,24V23H24a2,2,0,0,0-2,2v4H42V26H27A2,2,0,0,1,25,24Z" style="fill:#5d6972"/><path d="M34,36.535a.989.989,0,0,1-.5-.135A3.006,3.006,0,0,0,32,36a1,1,0,0,1,0-2,4.985,4.985,0,0,1,2.5.67,1,1,0,0,1-.5,1.865Z" style="fill:#fff"/><path d="M32.586,39.586l-1.172-1.172a2,2,0,0,0-2.828,0l-2.327,2.327a6,6,0,0,0,6.163,4.245,6.071,6.071,0,0,0,5.543-5.339,5.99,5.99,0,0,0-.224-2.388l-2.327,2.327A2,2,0,0,1,32.586,39.586Z" style="fill:#80bbce"/><rect x="42" y="23" width="20" height="26" rx="2" style="fill:#e6e6e6"/><path d="M61,46A16,16,0,0,1,45,30V23H44a2,2,0,0,0-2,2V47a2,2,0,0,0,2,2H60a2,2,0,0,0,2-2V46Z" style="fill:#cecece"/><path d="M44,23H60a2,2,0,0,1,2,2v4a0,0,0,0,1,0,0H42a0,0,0,0,1,0,0V25A2,2,0,0,1,44,23Z" style="fill:#7a838b"/><circle cx="52" cy="39" r="6" style="fill:#a7d0e1"/><path d="M45,24V23H44a2,2,0,0,0-2,2v4H62V26H47A2,2,0,0,1,45,24Z" style="fill:#5d6972"/><path d="M54,36.535a.989.989,0,0,1-.5-.135A3.006,3.006,0,0,0,52,36a1,1,0,0,1,0-2,4.985,4.985,0,0,1,2.5.67,1,1,0,0,1-.5,1.865Z" style="fill:#fff"/><path d="M52.586,39.586l-1.172-1.172a2,2,0,0,0-2.828,0l-2.327,2.327a6,6,0,0,0,6.163,4.245,6.071,6.071,0,0,0,5.543-5.339,5.99,5.99,0,0,0-.224-2.388l-2.327,2.327A2,2,0,0,1,52.586,39.586Z" style="fill:#80bbce"/><rect x="1" y="49" width="62" height="6" style="fill:#7a838b"/><path d="M4,49H1v6H63V52H7A3,3,0,0,1,4,49Z" style="fill:#5d6972"/><rect x="9" y="13" width="8" height="10" rx="2" style="fill:#a7d0e1"/><path d="M17,20a5,5,0,0,1-5-5V13H11a2,2,0,0,0-2,2v6a2,2,0,0,0,2,2h4a2,2,0,0,0,2-2V20Z" style="fill:#80bbce"/><path d="M13,9h0a2,2,0,0,1,2,2v2a0,0,0,0,1,0,0H11a0,0,0,0,1,0,0V11A2,2,0,0,1,13,9Z" style="fill:#e6e6e6"/><path d="M34.5,20a1.5,1.5,0,0,0,0-3H27a3,3,0,0,0-3,3h0a3,3,0,0,0,3,3h7.5a1.5,1.5,0,0,0,0-3Z" style="fill:#a7d0e1"/><path d="M34.5,14a1.5,1.5,0,0,0,0-3H27a3,3,0,0,0-3,3h0a3,3,0,0,0,3,3h7.5a1.5,1.5,0,0,0,0-3Z" style="fill:#a7d0e1"/><path d="M34.5,14H30a3,3,0,0,1-3-3,3,3,0,0,0,0,6h7.5a1.5,1.5,0,0,0,0-3Z" style="fill:#80bbce"/><path d="M34.5,20H30a3,3,0,0,1-3-3,3,3,0,0,0,0,6h7.5a1.5,1.5,0,0,0,0-3Z" style="fill:#80bbce"/><path d="M10,25H6a1,1,0,0,0,0,2h4a1,1,0,0,0,0-2Z" style="fill:#a7d0e1"/><path d="M16,27h2a1,1,0,0,0,0-2H16a1,1,0,0,0,0,2Z" style="fill:#a7d0e1"/><path d="M26,27h4a1,1,0,0,0,0-2H26a1,1,0,0,0,0,2Z" style="fill:#a7d0e1"/><path d="M36,27h2a1,1,0,0,0,0-2H36a1,1,0,0,0,0,2Z" style="fill:#a7d0e1"/><path d="M46,27h4a1,1,0,0,0,0-2H46a1,1,0,0,0,0,2Z" style="fill:#a7d0e1"/><path d="M56,27h2a1,1,0,0,0,0-2H56a1,1,0,0,0,0,2Z" style="fill:#a7d0e1"/></g></svg>