<svg xmlns="http://www.w3.org/2000/svg" viewBox="0 0 64 64"><g id="Layer_31" data-name="Layer 31"><path d="M21,9H43A16,16,0,0,1,59,25V61a2,2,0,0,1-2,2H7a2,2,0,0,1-2-2V25A16,16,0,0,1,21,9Z" style="fill:#a7d0e1"/><path d="M46,60A38,38,0,0,1,8,22H8a15.911,15.911,0,0,1,3.3-9.7A15.957,15.957,0,0,0,5,25V61a2,2,0,0,0,2,2H57a2,2,0,0,0,2-2V60Z" style="fill:#80bbce"/><path d="M27,14l-8.807,2.516a8,8,0,0,0-5.758,6.855L9,56h6l3-28,1.812,9.058a7.985,7.985,0,0,1,.148,1.9l-.873,18.957a2,2,0,0,0,2,2.083H28a4,4,0,0,0,4-4V14Z" style="fill:#e6e6e6"/><path d="M21.085,60H28a3.988,3.988,0,0,0,3.784-2.759,38.035,38.035,0,0,1-12.3-8.03l-.4,8.706A2,2,0,0,0,21.085,60Z" style="fill:#cecece"/><path d="M16.128,45.472a37.933,37.933,0,0,1-5.113-8.617L9,56h6Z" style="fill:#cecece"/><path d="M45.807,16.516,37,14H32V56a4,4,0,0,0,4,4h6.915a2,2,0,0,0,2-2.083L44.04,38.96a7.985,7.985,0,0,1,.148-1.9L46,28l3,28h6L51.565,23.371A8,8,0,0,0,45.807,16.516Z" style="fill:#e6e6e6"/><path d="M43.483,59.908a37.789,37.789,0,0,1-11.207-2.473A3.993,3.993,0,0,0,36,60h6.915A1.975,1.975,0,0,0,43.483,59.908Z" style="fill:#cecece"/><polygon points="32 38 25 12 39 12 32 38" style="fill:#cecece"/><polygon points="25 12 20 18 24 20 22 23 32 38 25 12" style="fill:#7a838b"/><polygon points="39 12 44 18 40 20 42 23 32 38 39 12" style="fill:#7a838b"/><path d="M25,44v2a2.006,2.006,0,0,1-2,2H19.5l.17-4Z" style="fill:#7a838b"/><path d="M39,44v2a2.006,2.006,0,0,0,2,2h3.5l-.17-4Z" style="fill:#7a838b"/><path d="M52.789,16a1,1,0,0,1-.7-.285,13.144,13.144,0,0,0-2.4-1.859,1,1,0,1,1,1.033-1.712,15.1,15.1,0,0,1,2.767,2.141,1,1,0,0,1-.7,1.715Z" style="fill:#fff"/><path d="M33,12.47V9.8a2.364,2.364,0,0,1,1.05-1.97l.67-.44A2.881,2.881,0,0,0,36,5a4,4,0,0,0-8,0V6a1,1,0,0,0,2,0V5a2,2,0,0,1,4,0,.846.846,0,0,1-.39.72l-.66.45A4.354,4.354,0,0,0,31,9.8v2.67l-4.96,3.41.56,2.05L32,14.21l5.4,3.72.56-2.05ZM29.04,27h5.92l.54-2h-7Z" style="fill:#7a838b"/><circle cx="32" cy="45" r="1" style="fill:#7a838b"/><circle cx="32" cy="51" r="1" style="fill:#7a838b"/></g></svg>