<svg xmlns="http://www.w3.org/2000/svg" viewBox="0 0 64 64"><g id="Layer_31" data-name="Layer 31"><path d="M31,25.721V23H19l-1.357,4.072A12.513,12.513,0,0,0,17,31.032V59a4,4,0,0,0,4,4H47a4,4,0,0,0,4-4V39.558a8,8,0,0,0-6.431-7.844L34.216,29.643A4,4,0,0,1,31,25.721Z" style="fill:#f8c460"/><path d="M50,60h0A30,30,0,0,1,20,30V28.032a12.5,12.5,0,0,1,.643-3.959L21,23H19l-1.358,4.073A12.529,12.529,0,0,0,17,31.032V59a4,4,0,0,0,4,4H47a4,4,0,0,0,3.892-3.108A3.974,3.974,0,0,1,50,60Z" style="fill:#faaf42"/><rect x="19" y="17" width="12" height="6" style="fill:#e6e6e6"/><path d="M22,17H19v6H31V20H25A3,3,0,0,1,22,17Z" style="fill:#cecece"/><path d="M13,6.061V7a4,4,0,0,0,4,4h0a2,2,0,0,1,2,2v4H31V15a4,4,0,0,1,4-4h4V3a43.118,43.118,0,0,0-22.97-.824A3.978,3.978,0,0,0,13,6.061Z" style="fill:#f8c460"/><path d="M22,10h0a2,2,0,0,0-2-2h0a4,4,0,0,1-4-4V3.061a3.973,3.973,0,0,1,.115-.9c-.029.007-.057.011-.085.017A3.978,3.978,0,0,0,13,6.061V7a4,4,0,0,0,4,4h0a2,2,0,0,1,2,2v4H31V15a3.977,3.977,0,0,1,.141-1H26A4,4,0,0,1,22,10Z" style="fill:#faaf42"/><path d="M39,3h2a2,2,0,0,1,2,2V9a2,2,0,0,1-2,2H39a0,0,0,0,1,0,0V3A0,0,0,0,1,39,3Z" style="fill:#e6e6e6"/><path d="M39,8h4a0,0,0,0,1,0,0V9a2,2,0,0,1-2,2H39a0,0,0,0,1,0,0V8A0,0,0,0,1,39,8Z" style="fill:#cecece"/><path d="M39,11l5.928,12H43.413a4,4,0,0,1-3.586-2.228L35,11Z" style="fill:#e6e6e6"/><rect x="23" y="37" width="22" height="22" rx="2" style="fill:#e6e6e6"/><path d="M23,43.088V57a2,2,0,0,0,2,2H42.307A30.067,30.067,0,0,1,23,43.088Z" style="fill:#cecece"/><polygon points="39 11 35 11 35.988 13 39.988 13 39 11" style="fill:#cecece"/><path d="M32,4.449a1.053,1.053,0,0,1-.148-.011Q30.875,4.293,29.9,4.2a1,1,0,0,1,.2-1.99c.681.068,1.365.153,2.047.255A1,1,0,0,1,32,4.449Z" style="fill:#fff"/><rect x="22" y="17" width="2" height="6" style="fill:#f8c460"/><rect x="26" y="17" width="2" height="6" style="fill:#f8c460"/></g></svg>