<svg xmlns="http://www.w3.org/2000/svg" viewBox="0 0 64 64"><g id="Layer_31" data-name="Layer 31"><path d="M53.616,25.239,45.2,14.529A4,4,0,0,0,42.056,13H5a4,4,0,0,0-4,4V45a2,2,0,0,0,2,2H61a2,2,0,0,0,2-2V32.772a4,4,0,0,0-2.6-3.745L57.1,27.787A8,8,0,0,1,53.616,25.239Z" style="fill:#f8c460"/><path d="M34,44A30,30,0,0,1,4,14H4a3.974,3.974,0,0,1,.108-.892A4,4,0,0,0,1,17V45a2,2,0,0,0,2,2H61a2,2,0,0,0,2-2V44Z" style="fill:#faaf42"/><path d="M47,29H37a2,2,0,0,1-2-2V19a2,2,0,0,1,2-2h4a2,2,0,0,1,1.6.8l6,8A2,2,0,0,1,47,29Z" style="fill:#a7d0e1"/><path d="M47,26a9,9,0,0,1-9-9H37a2,2,0,0,0-2,2v8a2,2,0,0,0,2,2H47a1.989,1.989,0,0,0,1.71-3Z" style="fill:#80bbce"/><path d="M1,39H63a0,0,0,0,1,0,0v6a2,2,0,0,1-2,2H3a2,2,0,0,1-2-2V39A0,0,0,0,1,1,39Z" style="fill:#e6e6e6"/><path d="M17.419,39H1v6a2,2,0,0,0,2,2H61a2,2,0,0,0,2-2V44H34A29.857,29.857,0,0,1,17.419,39Z" style="fill:#cecece"/><rect x="11" y="17" width="14" height="18" rx="2" style="fill:#e6e6e6"/><path d="M13,17H23a2,2,0,0,1,2,2v2a0,0,0,0,1,0,0H11a0,0,0,0,1,0,0V19A2,2,0,0,1,13,17Z" style="fill:#7a838b"/><circle cx="18" cy="28" r="4" style="fill:#a7d0e1"/><path d="M18,28h0a1.415,1.415,0,0,0-2,0l-1.64,1.64a3.993,3.993,0,0,0,7.4-.278,3.948,3.948,0,0,0-.121-3L20,28A1.415,1.415,0,0,1,18,28Z" style="fill:#80bbce"/><circle cx="51" cy="45" r="6" style="fill:#7a838b"/><circle cx="51" cy="45" r="2" style="fill:#e6e6e6"/><circle cx="13" cy="45" r="6" style="fill:#7a838b"/><path d="M16,48a5.993,5.993,0,0,1-5.466-8.466,6,6,0,1,0,7.932,7.932A5.974,5.974,0,0,1,16,48Z" style="fill:#5d6972"/><path d="M54,48a5.993,5.993,0,0,1-5.466-8.466,6,6,0,1,0,7.932,7.932A5.974,5.974,0,0,1,54,48Z" style="fill:#5d6972"/><circle cx="13" cy="45" r="2" style="fill:#e6e6e6"/><path d="M39,32H37a1,1,0,0,0,0,2h2a1,1,0,0,0,0-2Z" style="fill:#7a838b"/><path d="M43,22.667a1,1,0,0,1-.8-.4L40.95,20.6a1,1,0,0,1,1.6-1.2l1.25,1.667a1,1,0,0,1-.8,1.6Z" style="fill:#fff"/></g></svg>