<svg xmlns="http://www.w3.org/2000/svg" viewBox="0 0 64 64"><g id="Layer_31" data-name="Layer 31"><path d="M44,49a37,37,0,0,1-24,0V45a37,37,0,0,0,24,0Z" style="fill:#e6e6e6"/><path d="M20,45v4a40.1,40.1,0,0,0,4.422,1.2l1.149-2.776a7.7,7.7,0,0,1,.468-.919A39.547,39.547,0,0,1,20,45Z" style="fill:#cecece"/><path d="M44,45v4a40.1,40.1,0,0,1-4.422,1.2l-1.149-2.776a7.7,7.7,0,0,0-.468-.919A39.547,39.547,0,0,0,44,45Z" style="fill:#cecece"/><path d="M22,19c0-5.523,3.109-10.174,7.341-11.571A4,4,0,0,0,32,3.6V1C23.105,1,15.9,9.059,15.9,19a19.566,19.566,0,0,0,1.673,7.969,8.063,8.063,0,0,1,.395,5.557L10.508,57.871A4,4,0,0,0,14.346,63H17l7.071-17.075A8.065,8.065,0,0,1,31.732,41c.089,0,.179,0,.268,0V31C26.477,31,22,25.627,22,19Z" style="fill:#f8c460"/><path d="M14.508,54.871l7.455-25.345a8.063,8.063,0,0,0-.395-5.557A19.566,19.566,0,0,1,19.9,16,18.932,18.932,0,0,1,25.146,2.73C19.684,5.609,15.9,11.8,15.9,19a19.566,19.566,0,0,0,1.673,7.969,8.063,8.063,0,0,1,.395,5.557L10.508,57.871A4,4,0,0,0,14.346,63H17l1.245-3.006A4,4,0,0,1,14.508,54.871Z" style="fill:#faaf42"/><path d="M46.037,32.526a8.063,8.063,0,0,1,.4-5.557A19.566,19.566,0,0,0,48.105,19c0-9.941-7.21-18-16.1-18V3.6a4,4,0,0,0,2.659,3.83C38.891,8.826,42,13.477,42,19c0,6.627-4.477,12-10,12V41l.007.007a8.073,8.073,0,0,1,7.922,4.918L47,63h2.654a4,4,0,0,0,3.838-5.129Z" style="fill:#f8c460"/><path d="M52.654,60H50L42.929,42.925a7.97,7.97,0,0,0-5.083-4.573A4.093,4.093,0,0,1,35,34.684V30.449A8.477,8.477,0,0,1,32,31V41l.007.007a8.073,8.073,0,0,1,7.922,4.918L47,63h2.654a4,4,0,0,0,3.895-3.1A4.038,4.038,0,0,1,52.654,60Z" style="fill:#faaf42"/><path d="M41.32,8a1,1,0,0,1-.707-.293,13.408,13.408,0,0,0-2.158-1.756,1,1,0,0,1,1.09-1.676,15.351,15.351,0,0,1,2.482,2.018A1,1,0,0,1,41.32,8Z" style="fill:#fff"/></g></svg>