<svg xmlns="http://www.w3.org/2000/svg" viewBox="0 0 64 64"><g id="Layer_31" data-name="Layer 31"><path d="M46.468,61.31c-11.645,2.253-31.291,2.253-42.936,0a2.013,2.013,0,0,1-1.615-1.873c-.829-16.488-.265-31.995,2.716-45.8a8.056,8.056,0,0,0,.038-3.284L4,7H46l-.671,3.353a8.056,8.056,0,0,0,.038,3.284c2.981,13.805,3.545,29.312,2.716,45.8A2.013,2.013,0,0,1,46.468,61.31Z" style="fill:#f8c460"/><path d="M47.66,58.621A35.982,35.982,0,0,1,6.347,17.629q.549-3.563,1.286-6.993a8.051,8.051,0,0,0,.038-3.283L7.6,7H4l.671,3.353a8.051,8.051,0,0,1-.038,3.283C1.651,27.447,1.087,42.96,1.918,59.455a1.989,1.989,0,0,0,1.609,1.853c11.639,2.255,31.278,2.256,42.926,0a2.015,2.015,0,0,0,1.63-1.888c.015-.3.021-.584.035-.879Z" style="fill:#faaf42"/><path d="M6,1H44a2,2,0,0,1,2,2V7a0,0,0,0,1,0,0H4A0,0,0,0,1,4,7V3A2,2,0,0,1,6,1Z" style="fill:#a7d0e1"/><path d="M7,1H6A2,2,0,0,0,4,3V7H46V4H10A3,3,0,0,1,7,1Z" style="fill:#80bbce"/><path d="M40.471,55.45c-7.647,2.05-23.295,2.05-30.942,0a1.988,1.988,0,0,1-1.45-2.025L9.9,16.9a2,2,0,0,1,2-1.9H38.1a2,2,0,0,1,2,1.9l1.826,36.525A1.988,1.988,0,0,1,40.471,55.45Z" style="fill:#e6e6e6"/><path d="M29.46,56.884A36.3,36.3,0,0,1,8.881,37.389l-.8,16.036a1.988,1.988,0,0,0,1.45,2.025C14.336,56.739,22.3,57.216,29.46,56.884Z" style="fill:#cecece"/><path d="M29.464,26.268A4.512,4.512,0,0,0,28.918,26a4.512,4.512,0,0,0,.546-.268c1.435-.828,2.151-2.275,1.6-3.232s-2.163-1.06-3.6-.232a4.49,4.49,0,0,0-.5.339A4.451,4.451,0,0,0,27,22c0-1.657-.895-3-2-3s-2,1.343-2,3a4.451,4.451,0,0,0,.041.607,4.49,4.49,0,0,0-.5-.339c-1.435-.828-3.046-.725-3.6.232s.163,2.4,1.6,3.232a4.512,4.512,0,0,0,.546.268,4.512,4.512,0,0,0-.546.268c-1.435.828-2.15,2.275-1.6,3.232s2.163,1.06,3.6.232a4.49,4.49,0,0,0,.5-.339A4.451,4.451,0,0,0,23,30c0,1.657.895,3,2,3s2-1.343,2-3a4.451,4.451,0,0,0-.041-.607,4.49,4.49,0,0,0,.5.339c1.435.828,3.046.725,3.6-.232S30.9,27.1,29.464,26.268Z" style="fill:#f8c460"/><path d="M36.931,48.841a4.99,4.99,0,0,0-2.639-5.277,4.357,4.357,0,0,1-1.868-1.879,4.995,4.995,0,0,0-9.031.369,4,4,0,0,1-2.17,2.271A5,5,0,0,0,22.01,53.9,5.2,5.2,0,0,0,23,54v0H33a4,4,0,0,0,4-4C37,49.675,36.919,48.916,36.931,48.841Z" style="fill:#f8c460"/><path d="M36.931,48.841A5.059,5.059,0,0,0,36.888,47H24.605a1.361,1.361,0,0,1-.59-2.59l.053-.023a4.087,4.087,0,0,0,2.28-2.223,5.014,5.014,0,0,1,3.143-2.931,4.98,4.98,0,0,0-6.1,2.825,4.429,4.429,0,0,1-2.337,2.335A5.009,5.009,0,0,0,18.437,47h0a4.87,4.87,0,0,0-.24.675c-.01.037-.018.074-.028.111a4.932,4.932,0,0,0-.12.623c-.014.108-.015.219-.022.329-.008.158-.022.314-.016.476a4.718,4.718,0,0,0,.959,2.739,4.952,4.952,0,0,0,2.575,1.84A5.229,5.229,0,0,0,23,54v0H33a4,4,0,0,0,4-4C37,49.675,36.919,48.916,36.931,48.841Z" style="fill:#faaf42"/><path d="M63,49H16l2.322,10.838A4,4,0,0,0,22.234,63H33.721a4,4,0,0,0,3.922-3.216l.714-3.568A4,4,0,0,1,42.279,53H59a4,4,0,0,0,4-4Z" style="fill:#a7d0e1"/><path d="M36.721,60H31.7a12,12,0,0,1-11.734-9.486L19.643,49H16l2.322,10.838A4,4,0,0,0,22.234,63H33.721a4,4,0,0,0,3.892-3.113A3.933,3.933,0,0,1,36.721,60Z" style="fill:#80bbce"/><circle cx="25" cy="26" r="1" style="fill:#faaf42"/><circle cx="28" cy="42" r="1" style="fill:#faaf42"/><circle cx="31" cy="45" r="1" style="fill:#faaf42"/><circle cx="25" cy="46" r="1" style="fill:#faaf42"/><path d="M59,52H57a1,1,0,0,1,0-2h2a1,1,0,0,1,0,2Z" style="fill:#fff"/></g></svg>