<svg xmlns="http://www.w3.org/2000/svg" viewBox="0 0 64 64"><g id="Layer_31" data-name="Layer 31"><rect x="9" y="27" width="3" height="20" style="fill:#e6e6e6"/><rect x="12" y="40" width="40" height="3" style="fill:#e6e6e6"/><rect x="12" y="40" width="2" height="3" style="fill:#cecece"/><rect x="9" y="27" width="3" height="2" style="fill:#cecece"/><rect x="50" y="40" width="2" height="3" style="fill:#cecece"/><rect x="52" y="27" width="3" height="20" style="fill:#e6e6e6"/><rect x="52" y="27" width="3" height="2" style="fill:#cecece"/><rect x="1" y="1" width="62" height="4" rx="2" style="fill:#f8c460"/><path d="M4,3A2,2,0,0,1,6,1H3A2,2,0,0,0,3,5H6A2,2,0,0,1,4,3Z" style="fill:#faaf42"/><path d="M55.347,27H8.653a4,4,0,0,1-3.984-3.638L3,5H61L59.331,23.362A4,4,0,0,1,55.347,27Z" style="fill:#f8c460"/><path d="M58.347,24H27.078A20.891,20.891,0,0,1,6.273,5H3L4.669,23.362A4,4,0,0,0,8.653,27H55.347a3.99,3.99,0,0,0,3.885-3.109A3.985,3.985,0,0,1,58.347,24Z" style="fill:#faaf42"/><circle cx="9" cy="58" r="5" style="fill:#7a838b"/><path d="M12,60a5,5,0,0,1-5-5,4.947,4.947,0,0,1,.313-1.687,4.988,4.988,0,1,0,6.374,6.374A4.947,4.947,0,0,1,12,60Z" style="fill:#5d6972"/><rect x="6" y="47" width="9" height="3" rx="1.5" style="fill:#7a838b"/><path d="M9,48.5H9A1.5,1.5,0,0,1,10.5,47h-3A1.5,1.5,0,0,0,6,48.5H6A1.5,1.5,0,0,0,7.5,50h3A1.5,1.5,0,0,1,9,48.5Z" style="fill:#5d6972"/><path d="M8.861,58h0a1.643,1.643,0,0,1-1.63-1.847L8,50h5l-2.6,6.934A1.644,1.644,0,0,1,8.861,58Z" style="fill:#e6e6e6"/><path d="M12.25,52,13,50H8l-.25,2h0l-.51,4.077a1.7,1.7,0,0,0,.987,1.794,1.608,1.608,0,0,0,1.628-.218,1.64,1.64,0,0,1-.624-1.5l.3-2.4A2,2,0,0,1,11.516,52Z" style="fill:#cecece"/><circle cx="52" cy="58" r="5" style="fill:#7a838b"/><path d="M55,60a5,5,0,0,1-5-5,4.947,4.947,0,0,1,.313-1.687,4.988,4.988,0,1,0,6.374,6.374A4.947,4.947,0,0,1,55,60Z" style="fill:#5d6972"/><rect x="49" y="47" width="9" height="3" rx="1.5" style="fill:#7a838b"/><path d="M52,48.5h0A1.5,1.5,0,0,1,53.5,47h-3A1.5,1.5,0,0,0,49,48.5h0A1.5,1.5,0,0,0,50.5,50h3A1.5,1.5,0,0,1,52,48.5Z" style="fill:#5d6972"/><path d="M51.861,58h0a1.643,1.643,0,0,1-1.63-1.847L51,50h5l-2.6,6.934A1.644,1.644,0,0,1,51.861,58Z" style="fill:#e6e6e6"/><path d="M55.25,52,56,50H51l-.25,2h0l-.51,4.077a1.7,1.7,0,0,0,.987,1.794,1.608,1.608,0,0,0,1.628-.218,1.64,1.64,0,0,1-.624-1.5l.3-2.4A2,2,0,0,1,54.516,52Z" style="fill:#cecece"/><path d="M61,4H59a1,1,0,0,1,0-2h2a1,1,0,0,1,0,2Z" style="fill:#fff"/><path d="M46.181,23,46,26.955c0,.016.007.029.007.045H48l.182-4h4.176L52,26.909a.9.9,0,0,0,.01.091H54l.364-4h5l.181-2h-5l.363-4h5l.182-2h-5l.364-4h5l.181-2h-5L56,5.091A.9.9,0,0,0,55.986,5H54l-.364,4H48.819L49,5.045c0-.016-.007-.029-.007-.045H47l-.182,4H42V5H40V9H36V5H34V9H30V5H28V9H24V5H22V9H17.183L17,5H15.008c0,.016-.008.029-.007.045L15.181,9H10.368L10,5H8.014A.9.9,0,0,0,8,5.091L8.359,9H3.364l.181,2h5L8.9,15h-5l.182,2h5l.363,4H4.455l.181,2h5L10,27h1.99a.9.9,0,0,0,.01-.091L11.641,23h4.176L16,27h1.993c0-.016.008-.029.007-.045L17.819,23H22v4h2V23h4v4h2V23h4v4h2V23h4v4h2V23Zm2.547-12H53.45l-.363,4h-4.54Zm-.272,6h4.449l-.364,4H48.274ZM42,11h4.726l-.182,4H42Zm0,6h4.453l-.181,4H42ZM10.55,11h4.722l.181,4h-4.54Zm.909,10L11.1,17h4.449l.182,4ZM22,21H17.728l-.181-4H22Zm0-6H17.456l-.182-4H22Zm6,6H24V17h4Zm0-6H24V11h4Zm6,6H30V17h4Zm0-6H30V11h4Zm6,6H36V17h4Zm0-6H36V11h4Z" style="fill:#faaf42"/></g></svg>