<svg xmlns="http://www.w3.org/2000/svg" viewBox="0 0 64 64"><g id="Layer_31" data-name="Layer 31"><path d="M49.013,53.842a132.8,132.8,0,0,1-34.026,0,8.042,8.042,0,0,1-6.941-6.631L5,28.936H59L55.954,47.211A8.042,8.042,0,0,1,49.013,53.842Z" style="fill:#e6e6e6"/><path d="M58.625,31.25,59,29H5L8.046,47.275a8.038,8.038,0,0,0,6.938,6.63,132.781,132.781,0,0,0,34.029,0,8.083,8.083,0,0,0,5.95-3.937,8.125,8.125,0,0,1-2.95,1,132.825,132.825,0,0,1-23.862.917A19.977,19.977,0,0,1,9.522,35.2L9.3,33.852a1.993,1.993,0,0,1,2.058-2.319Q34.99,32.55,58.625,31.25Z" style="fill:#cecece"/><path d="M60.888,25.068a481.285,481.285,0,0,1-57.776,0A1.988,1.988,0,0,0,1,27.052H1a2.006,2.006,0,0,0,1.881,2,481.119,481.119,0,0,0,58.238,0,2.006,2.006,0,0,0,1.881-2h0A1.988,1.988,0,0,0,60.888,25.068Z" style="fill:#e6e6e6"/><path d="M27,29v3.087a5,5,0,1,0,6,0V29Z" style="fill:#cecece"/><path d="M27,25.9v4c2,.021,4,.035,6,.03v-4C31,25.933,29,25.919,27,25.9Z" style="fill:#cecece"/><path d="M5.881,29.054a2,2,0,0,1-.568-3.871c-.733-.04-1.467-.071-2.2-.115a2,2,0,1,0-.231,3.986C13.087,29.672,15.087,29.612,5.881,29.054Z" style="fill:#cecece"/><path d="M35,31.023V12a3,3,0,0,0-3-3h0a3,3,0,0,0-3,3V31.023a5,5,0,1,0,6,0Z" style="fill:#f8c460"/><path d="M33.929,36.889A4.987,4.987,0,0,1,32,28.023V9a3,3,0,0,0-3,3V31.023A4.993,4.993,0,1,0,36.7,36.7,5.06,5.06,0,0,1,33.929,36.889Z" style="fill:#faaf42"/><circle cx="32" cy="35" r="2" style="fill:#e6e6e6"/><path d="M33,16a1,1,0,0,1-1-1V13a1,1,0,0,1,2,0v2A1,1,0,0,1,33,16Z" style="fill:#fff"/><path d="M32,34a1,1,0,0,1-1-1V21a1,1,0,1,1,2,0V33A1,1,0,0,1,32,34Z" style="fill:#e6e6e6"/><path d="M32,13a1,1,0,0,1-1,1H29V12h2A1,1,0,0,1,32,13Z" style="fill:#e6e6e6"/><path d="M32,17a1,1,0,0,1-1,1H29V16h2A1,1,0,0,1,32,17Z" style="fill:#e6e6e6"/></g></svg>