<svg xmlns="http://www.w3.org/2000/svg" viewBox="0 0 64 64"><g id="Layer_31" data-name="Layer 31"><path d="M52,31H12a4,4,0,0,1-4-4v-.969a3.981,3.981,0,0,1,2.515-3.714l19.131-7.253A1.017,1.017,0,0,1,30,15h4a1.017,1.017,0,0,1,.354.064l19.115,7.247A3.986,3.986,0,0,1,56,26.031V27A4,4,0,0,1,52,31ZM30.184,17,11.24,24.182A1.981,1.981,0,0,0,10,26.031V27a2,2,0,0,0,2,2H52a2,2,0,0,0,2-2v-.969a1.988,1.988,0,0,0-1.257-1.856L33.816,17Z" style="fill:#7a838b"/><path d="M32,15a1,1,0,0,1-1-1V11.333a5.028,5.028,0,0,1,1-3L33.6,6.2A2.027,2.027,0,0,0,34,5a2,2,0,0,0-4,0V6a1,1,0,0,1-2,0V5a4,4,0,1,1,7.2,2.4L33.6,9.533a3.018,3.018,0,0,0-.6,1.8V14A1,1,0,0,1,32,15Z" style="fill:#7a838b"/><path d="M47,27h0a3,3,0,0,1,3,3V55a2,2,0,0,1-2,2H44a0,0,0,0,1,0,0V30a3,3,0,0,1,3-3Z" style="fill:#80bbce"/><path d="M32,13h0a3,3,0,0,1,3,3v1a0,0,0,0,1,0,0H29a0,0,0,0,1,0,0V16A3,3,0,0,1,32,13Z" style="fill:#7a838b"/><path d="M33.5,13.416A2.968,2.968,0,0,0,32,13a3,3,0,0,0-3,3v1h3V16A2.987,2.987,0,0,1,33.5,13.416Z" style="fill:#5d6972"/><path d="M47,27a3,3,0,0,0-3,3V61a2,2,0,0,1-2,2H16a2,2,0,0,1-2-2V31a4,4,0,0,1,4-4Z" style="fill:#a7d0e1"/><path d="M44,60A27,27,0,0,1,17,33V28a3.974,3.974,0,0,1,.108-.892A4,4,0,0,0,14,31V61a2,2,0,0,0,2,2H42a2,2,0,0,0,2-2V60Z" style="fill:#80bbce"/><path d="M14,57H44a0,0,0,0,1,0,0v4a2,2,0,0,1-2,2H16a2,2,0,0,1-2-2V57a0,0,0,0,1,0,0Z" style="fill:#e6e6e6"/><path d="M14,57v4a2,2,0,0,0,2,2H42a2,2,0,0,0,2-2V60a26.875,26.875,0,0,1-12.365-3Z" style="fill:#cecece"/><path d="M44,51h6a0,0,0,0,1,0,0v4a2,2,0,0,1-2,2H44a0,0,0,0,1,0,0V51A0,0,0,0,1,44,51Z" style="fill:#cecece"/><path d="M42,30H40a1,1,0,0,1,0-2h2a1,1,0,0,1,0,2Z" style="fill:#fff"/></g></svg>