<svg xmlns="http://www.w3.org/2000/svg" viewBox="0 0 64 64"><g id="Layer_31" data-name="Layer 31"><path d="M1,46H51a0,0,0,0,1,0,0v2a2,2,0,0,1-2,2H3a2,2,0,0,1-2-2V46A0,0,0,0,1,1,46Z" style="fill:#e6e6e6"/><path d="M4,48V46H1v2a2,2,0,0,0,2,2H6A2,2,0,0,1,4,48Z" style="fill:#cecece"/><path d="M58.515,42.06l-4-16A8,8,0,0,0,46.754,20H32.2A30,30,0,0,0,4.956,37.428L1,46H51l6.06-1.515A2,2,0,0,0,58.515,42.06ZM48,32a8,8,0,0,1-8,8H17.236a2,2,0,0,1-1.789-2.894l1.131-2.261A16,16,0,0,1,30.889,26H46a2,2,0,0,1,2,2Z" style="fill:#f8c460"/><path d="M56,43H12.252A4,4,0,0,1,8.62,37.324l1.336-2.9a29.972,29.972,0,0,1,9.325-11.492A29.978,29.978,0,0,0,4.956,37.428L1,46H51l6.06-1.515a2,2,0,0,0,1.5-2.125Z" style="fill:#faaf42"/><path d="M28,36h8a2,2,0,0,1,2,2v2a0,0,0,0,1,0,0H26a0,0,0,0,1,0,0V38A2,2,0,0,1,28,36Z" style="fill:#a7d0e1"/><path d="M31,36H28a2,2,0,0,0-2,2v2h3V38A2,2,0,0,1,31,36Z" style="fill:#80bbce"/><path d="M24,21.11v.03a29.886,29.886,0,0,0-11,5.81V24.29a1.992,1.992,0,0,1,1.17-1.82l7-3.18A2,2,0,0,1,24,21.11Z" style="fill:#a7d0e1"/><path d="M63,14v4H60.317a8,8,0,0,0-5.667,2.353L52.53,22.48a8,8,0,0,0-3.78-2.23l3.907-3.907A8,8,0,0,1,58.314,14Z" style="fill:#e6e6e6"/><path d="M54.032,20.973a8,8,0,0,0-3.784-2.221l-1.5,1.5a8,8,0,0,1,3.78,2.23Z" style="fill:#cecece"/><path d="M48,23H46a1,1,0,0,1,0-2h2a1,1,0,0,1,0,2Z" style="fill:#fff"/><rect x="29" y="36" width="2" height="4" style="fill:#e6e6e6"/><rect x="33" y="36" width="2" height="4" style="fill:#e6e6e6"/></g></svg>