<svg xmlns="http://www.w3.org/2000/svg" viewBox="0 0 64 64"><g id="Layer_31" data-name="Layer 31"><path d="M32,20a3,3,0,0,0,3-3H29A3,3,0,0,0,32,20Z" style="fill:#80bbce"/><path d="M55,27l-6,7-5-3,1.868,18.677a1.991,1.991,0,0,1-1.036,1.963,26.183,26.183,0,0,1-25.664,0,1.991,1.991,0,0,1-1.036-1.963L20,31l-5,3L9,27,21,17h8a3,3,0,0,0,6,0h8Z" style="fill:#a7d0e1"/><path d="M42.976,50.693c-10.847,3.534-21.689-5.559-20.554-16.911l.147-1.477c.2-1.979-1.574-3.1-2.984-2.256l-.137.082a2,2,0,0,1-2.547-.413L12.25,24.292,9,27l6,7,5-3L18.132,49.677a1.991,1.991,0,0,0,1.036,1.963,26.183,26.183,0,0,0,25.664,0,1.991,1.991,0,0,0,1.036-1.963l-.01-.093A30.055,30.055,0,0,1,42.976,50.693Z" style="fill:#80bbce"/><rect x="1" y="11" width="62" height="3" style="fill:#7a838b"/><rect x="1" y="11" width="3" height="3" style="fill:#5d6972"/><rect x="19" y="11" width="2" height="3" style="fill:#5d6972"/><rect x="37" y="11" width="2" height="3" style="fill:#5d6972"/><path d="M37.235,25.028a1,1,0,0,0-1.207.737,32.5,32.5,0,0,1-2.395,6.79,1,1,0,1,0,1.791.89,34.537,34.537,0,0,0,2.548-7.21A1,1,0,0,0,37.235,25.028Z" style="fill:#80bbce"/><path d="M30.367,32.555a1,1,0,1,0-1.791.89,23.114,23.114,0,0,0,2.644,4.18,1,1,0,0,0,1.56-1.25A21.185,21.185,0,0,1,30.367,32.555Z" style="fill:#80bbce"/><path d="M28.8,28.688c-.3-.922-.58-1.906-.827-2.923a1,1,0,0,0-1.944.47c.259,1.069.552,2.1.871,3.077a1,1,0,0,0,1.9-.624Z" style="fill:#80bbce"/><path d="M55,38H54V37a1,1,0,0,0-2,0v1H51a1,1,0,0,0,0,2h1v1a1,1,0,0,0,2,0V40h1a1,1,0,0,0,0-2Z" style="fill:#f8c460"/><path d="M13,44H12V43a1,1,0,0,0-2,0v1H9a1,1,0,0,0,0,2h1v1a1,1,0,0,0,2,0V46h1a1,1,0,0,0,0-2Z" style="fill:#f8c460"/><path d="M61,21H60V20a1,1,0,0,0-2,0v1H57a1,1,0,0,0,0,2h1v1a1,1,0,0,0,2,0V23h1a1,1,0,0,0,0-2Z" style="fill:#f8c460"/><path d="M7,30H6V29a1,1,0,0,0-2,0v1H3a1,1,0,0,0,0,2H4v1a1,1,0,0,0,2,0V32H7a1,1,0,0,0,0-2Z" style="fill:#f8c460"/><path d="M48,24.77a1,1,0,0,1-.64-.232l-2.124-1.77a1,1,0,0,1,1.28-1.536L48.64,23A1,1,0,0,1,48,24.77Z" style="fill:#fff"/><path d="M20,22a1,1,0,0,1-.831-1.555l2-3a1,1,0,0,1,1.664,1.11l-2,3A1,1,0,0,1,20,22Z" style="fill:#80bbce"/><path d="M26,23a1,1,0,0,1-.9-.553l-2-4a1,1,0,0,1,1.79-.894l2,4A1,1,0,0,1,26,23Z" style="fill:#80bbce"/><path d="M44,22a1,1,0,0,1-.833-.445l-2-3a1,1,0,0,1,1.664-1.11l2,3A1,1,0,0,1,44,22Z" style="fill:#80bbce"/><path d="M38,23a1,1,0,0,1-.894-1.447l2-4a1,1,0,1,1,1.79.894l-2,4A1,1,0,0,1,38,23Z" style="fill:#80bbce"/><rect x="21" y="9" width="4" height="10" style="fill:#f8c460"/><rect x="39" y="9" width="4" height="10" transform="translate(82 28) rotate(-180)" style="fill:#f8c460"/><path d="M41,13a1,1,0,0,1-1-1V11a1,1,0,0,1,2,0v1A1,1,0,0,1,41,13Z" style="fill:#fff"/></g></svg>