<svg xmlns="http://www.w3.org/2000/svg" viewBox="0 0 64 64"><g id="Layer_31" data-name="Layer 31"><path d="M45.639,63H18.361a2,2,0,0,1-1.973-2.329L22,27H42l5.612,33.671A2,2,0,0,1,45.639,63Z" style="fill:#7a838b"/><path d="M47.612,60.671,47.5,60A24.144,24.144,0,0,1,23.685,31.888l.2-1.217A2,2,0,0,1,25.861,29H42.333L42,27H22L16.388,60.671A2,2,0,0,0,18.361,63H45.639A2,2,0,0,0,47.612,60.671Z" style="fill:#5d6972"/><circle cx="32" cy="45" r="14" style="fill:#f8c460"/><path d="M35,56A13.982,13.982,0,0,1,23.725,33.725a13.988,13.988,0,1,0,19.55,19.55A13.923,13.923,0,0,1,35,56Z" style="fill:#faaf42"/><circle cx="32" cy="45" r="11" style="fill:#e6e6e6"/><path d="M37.656,39a1,1,0,0,1-.628-.223,8.046,8.046,0,0,0-1.36-.888,1,1,0,0,1,.918-1.778,10.023,10.023,0,0,1,1.7,1.112A1,1,0,0,1,37.656,39Z" style="fill:#fff"/><path d="M34,53A10.988,10.988,0,0,1,23.97,37.5a10.993,10.993,0,1,0,18.06,12A10.959,10.959,0,0,1,34,53Z" style="fill:#cecece"/><circle cx="32" cy="45" r="2" style="fill:#f8c460"/><rect x="1" y="1" width="62" height="4" rx="2" style="fill:#f8c460"/><path d="M4,3A2,2,0,0,1,6,1H3A2,2,0,0,0,3,5H6A2,2,0,0,1,4,3Z" style="fill:#faaf42"/><path d="M55.347,27H8.653a4,4,0,0,1-3.984-3.638L3,5H61L59.331,23.362A4,4,0,0,1,55.347,27Z" style="fill:#f8c460"/><path d="M58.347,24H27.078A20.891,20.891,0,0,1,6.273,5H3L4.669,23.362A4,4,0,0,0,8.653,27H55.347a3.99,3.99,0,0,0,3.885-3.109A3.985,3.985,0,0,1,58.347,24Z" style="fill:#faaf42"/><path d="M61,4H59a1,1,0,0,1,0-2h2a1,1,0,0,1,0,2Z" style="fill:#fff"/><path d="M33.707,38.293l-1-1a1,1,0,0,0-1.414,0l-1,1A1,1,0,0,0,31,40v3a1,1,0,0,0,2,0V40a1,1,0,0,0,.707-1.707Z" style="fill:#f8c460"/><path d="M46.181,23,46,26.955c0,.016.007.029.007.045H48l.182-4h4.176L52,26.909a.9.9,0,0,0,.01.091H54l.364-4h5l.181-2h-5l.363-4h5l.182-2h-5l.364-4h5l.181-2h-5L56,5.091A.9.9,0,0,0,55.986,5H54l-.364,4H48.819L49,5.045c0-.016-.007-.029-.007-.045H47l-.182,4H42V5H40V9H36V5H34V9H30V5H28V9H24V5H22V9H17.183L17,5H15.008c0,.016-.008.029-.007.045L15.181,9H10.368L10,5H8.014A.9.9,0,0,0,8,5.091L8.359,9H3.364l.181,2h5L8.9,15h-5l.182,2h5l.363,4H4.455l.181,2h5L10,27h1.99a.9.9,0,0,0,.01-.091L11.641,23h4.176L16,27h1.993c0-.016.008-.029.007-.045L17.819,23H22v4h2V23h4v4h2V23h4v4h2V23h4v4h2V23Zm2.547-12H53.45l-.363,4h-4.54Zm-.272,6h4.449l-.364,4H48.274ZM42,11h4.726l-.182,4H42Zm0,6h4.453l-.181,4H42ZM10.55,11h4.722l.181,4h-4.54Zm.909,10L11.1,17h4.449l.182,4ZM22,21H17.728l-.181-4H22Zm0-6H17.456l-.182-4H22Zm6,6H24V17h4Zm0-6H24V11h4Zm6,6H30V17h4Zm0-6H30V11h4Zm6,6H36V17h4Zm0-6H36V11h4Z" style="fill:#faaf42"/></g></svg>