<svg xmlns="http://www.w3.org/2000/svg" viewBox="0 0 64 64"><g id="Layer_31" data-name="Layer 31"><path d="M7,21H53a0,0,0,0,1,0,0v4a2,2,0,0,1-2,2H1a0,0,0,0,1,0,0v0A6,6,0,0,1,7,21Z" style="fill:#e6e6e6"/><path d="M6.191,24a1.775,1.775,0,0,1-1.667-2.443l.01-.023A6,6,0,0,0,1,27H51a2,2,0,0,0,2-2V24Z" style="fill:#cecece"/><path d="M53,21h8a2,2,0,0,1,2,2v0a2,2,0,0,1-2,2H53a0,0,0,0,1,0,0V21A0,0,0,0,1,53,21Z" style="fill:#7a838b"/><rect x="53" y="21" width="2" height="4" style="fill:#5d6972"/><path d="M51.645,55h0a1.676,1.676,0,0,1-1.123-.432L20,27h5L52.768,52.081A1.675,1.675,0,0,1,51.645,55Z" style="fill:#7a838b"/><path d="M12.355,55h0a1.676,1.676,0,0,0,1.123-.432L44,27H39L11.232,52.081A1.675,1.675,0,0,0,12.355,55Z" style="fill:#7a838b"/><polygon points="33.666 39.344 36.166 37.086 33.666 34.828 31.166 37.086 33.666 39.344" style="fill:#5d6972"/><polygon points="36.786 29 41.786 29 44 27 39 27 36.786 29" style="fill:#5d6972"/><rect x="7" y="21" width="30" height="6" style="fill:#cecece"/><polygon points="25 27 20 27 24.429 31 29.429 31 25 27" style="fill:#5d6972"/><path d="M11,19a2,2,0,0,0-2,2V35h8V29H39V19Z" style="fill:#a7d0e1"/><path d="M12,27V19H11a2,2,0,0,0-2,2V35h8V32h0A5,5,0,0,1,12,27Z" style="fill:#80bbce"/><path d="M45.343,10.657,47,9l1.657,1.657A8,8,0,0,1,51,16.314V19a2,2,0,0,1-2,2H45a2,2,0,0,1-2-2V16.314A8,8,0,0,1,45.343,10.657Z" style="fill:#f8c460"/><path d="M50,18a4,4,0,0,1-4-4v-.686a7.986,7.986,0,0,1,1.169-4.145L47,9l-1.657,1.657A8,8,0,0,0,43,16.314V19a2,2,0,0,0,2,2h4a2,2,0,0,0,2-2V18Z" style="fill:#faaf42"/><circle cx="48" cy="13" r="1" style="fill:#fff"/></g></svg>