<svg xmlns="http://www.w3.org/2000/svg" viewBox="0 0 64 64"><g id="Layer_31" data-name="Layer 31"><path d="M45,35V31H41v4a8,8,0,0,0,8,8h6a4,4,0,0,1,4,4h0a4,4,0,0,1-4,4H23v4H55a8,8,0,0,0,8-8h0a8,8,0,0,0-8-8H49A4,4,0,0,1,45,35Z" style="fill:#e6e6e6"/><rect x="23" y="51" width="6" height="4" style="fill:#cecece"/><path d="M27,49H3a2,2,0,0,1-2-2V32.088A26,26,0,0,1,14.1,9.514L15,9l.9.514A26,26,0,0,1,29,32.088V47A2,2,0,0,1,27,49Z" style="fill:#e6e6e6"/><path d="M20,46A16,16,0,0,1,4,30v-.912a25.983,25.983,0,0,1,6.188-16.82A25.993,25.993,0,0,0,1,32.088V47a2,2,0,0,0,2,2H27a2,2,0,0,0,2-2V46Z" style="fill:#cecece"/><path d="M3,49H27a0,0,0,0,1,0,0v4a2,2,0,0,1-2,2H5a2,2,0,0,1-2-2V49A0,0,0,0,1,3,49Z" style="fill:#f8c460"/><path d="M8,52.008a2,2,0,0,1-2-2v-1H3v4a2,2,0,0,0,2,2H25a2,2,0,0,0,2-2v-1Z" style="fill:#faaf42"/><path d="M38,21H48a2,2,0,0,1,2,2v4a4,4,0,0,1-4,4H40a4,4,0,0,1-4-4V23A2,2,0,0,1,38,21Z" style="fill:#f8c460"/><path d="M49,28H46a7,7,0,0,1-7-7H38a2,2,0,0,0-2,2v4a4,4,0,0,0,4,4h6a4,4,0,0,0,3.892-3.108A3.974,3.974,0,0,1,49,28Z" style="fill:#faaf42"/><path d="M39.5,13h0A1.5,1.5,0,0,1,41,14.5V21a0,0,0,0,1,0,0H38a0,0,0,0,1,0,0V14.5A1.5,1.5,0,0,1,39.5,13Z" style="fill:#e6e6e6"/><path d="M46.5,13h0A1.5,1.5,0,0,1,48,14.5V21a0,0,0,0,1,0,0H45a0,0,0,0,1,0,0V14.5A1.5,1.5,0,0,1,46.5,13Z" style="fill:#e6e6e6"/><rect x="41" y="31" width="4" height="2" style="fill:#cecece"/><rect x="38" y="19" width="3" height="2" style="fill:#cecece"/><rect x="45" y="19" width="3" height="2" style="fill:#cecece"/><circle cx="15" cy="15" r="1" style="fill:#f8c460"/><circle cx="11" cy="17" r="1" style="fill:#f8c460"/><circle cx="8" cy="21" r="1" style="fill:#f8c460"/><circle cx="6" cy="25" r="1" style="fill:#f8c460"/><circle cx="5" cy="29" r="1" style="fill:#f8c460"/><circle cx="5" cy="33" r="1" style="fill:#f8c460"/><circle cx="5" cy="37" r="1" style="fill:#f8c460"/><circle cx="5" cy="41" r="1" style="fill:#f8c460"/><circle cx="19" cy="17" r="1" style="fill:#f8c460"/><circle cx="22" cy="21" r="1" style="fill:#f8c460"/><circle cx="24" cy="25" r="1" style="fill:#f8c460"/><circle cx="25" cy="29" r="1" style="fill:#f8c460"/><circle cx="25" cy="33" r="1" style="fill:#f8c460"/><circle cx="25" cy="37" r="1" style="fill:#f8c460"/><circle cx="25" cy="41" r="1" style="fill:#f8c460"/><path d="M48,24H46a1,1,0,0,1,0-2h2a1,1,0,0,1,0,2Z" style="fill:#fff"/><path d="M18,14.355a.992.992,0,0,1-.625-.22c-.57-.458-1.173-.894-1.79-1.3a1,1,0,0,1,1.094-1.674c.672.439,1.327.914,1.948,1.413A1,1,0,0,1,18,14.355Z" style="fill:#fff"/></g></svg>