<svg xmlns="http://www.w3.org/2000/svg" viewBox="0 0 64 64"><g id="Layer_31" data-name="Layer 31"><path d="M63,37H1L3.443,51.658A4,4,0,0,0,7.389,55H22.611a4,4,0,0,0,3.946-3.342l.886-5.316A4,4,0,0,1,31.389,43H59a4,4,0,0,0,4-4Z" style="fill:#a7d0e1"/><path d="M25.612,52h-3.4A17.952,17.952,0,0,1,4.5,37H1L3.443,51.658A4,4,0,0,0,7.389,55H22.612A3.99,3.99,0,0,0,26.5,51.889,3.935,3.935,0,0,1,25.612,52Z" style="fill:#80bbce"/><path d="M29,37H3a7.981,7.981,0,0,1,3.9-6.86,3.768,3.768,0,0,0,1.61-1.95,8,8,0,0,1,14.98,0,3.768,3.768,0,0,0,1.61,1.95A7.981,7.981,0,0,1,29,37Z" style="fill:#f8c460"/><path d="M28.741,35H11.3a2.628,2.628,0,0,1-1.451-4.828L9.9,30.14a3.768,3.768,0,0,0,1.61-1.95,8.008,8.008,0,0,1,5.99-5.034A7.907,7.907,0,0,0,8.51,28.19,3.768,3.768,0,0,1,6.9,30.14,8.02,8.02,0,0,0,3.259,35h0v0a7.97,7.97,0,0,0-.191.973A7.85,7.85,0,0,0,3,37H29A7.979,7.979,0,0,0,28.741,35Z" style="fill:#faaf42"/><circle cx="9" cy="33" r="1" style="fill:#faaf42"/><circle cx="13" cy="30" r="1" style="fill:#faaf42"/><circle cx="17" cy="26" r="1" style="fill:#faaf42"/><circle cx="19" cy="32" r="1" style="fill:#faaf42"/><circle cx="24" cy="34" r="1" style="fill:#faaf42"/><path d="M3,20H4v1a1,1,0,0,0,2,0V20H7a1,1,0,0,0,0-2H6V17a1,1,0,0,0-2,0v1H3a1,1,0,0,0,0,2Z" style="fill:#f8c460"/><path d="M19,12h1v1a1,1,0,0,0,2,0V12h1a1,1,0,0,0,0-2H22V9a1,1,0,0,0-2,0v1H19a1,1,0,0,0,0,2Z" style="fill:#f8c460"/><path d="M27,24h1v1a1,1,0,0,0,2,0V24h1a1,1,0,0,0,0-2H30V21a1,1,0,0,0-2,0v1H27a1,1,0,0,0,0,2Z" style="fill:#f8c460"/><path d="M59,40H57a1,1,0,0,1,0-2h2a1,1,0,0,1,0,2Z" style="fill:#fff"/></g></svg>