<svg xmlns="http://www.w3.org/2000/svg" viewBox="0 0 64 64"><g id="Layer_31" data-name="Layer 31"><path d="M13,7h9a2,2,0,0,1,2,2v2a0,0,0,0,1,0,0H11a0,0,0,0,1,0,0V9A2,2,0,0,1,13,7Z" style="fill:#f8c460"/><path d="M16,7H13a2,2,0,0,0-2,2v2h3V9A2,2,0,0,1,16,7Z" style="fill:#faaf42"/><path d="M15,1h5a2,2,0,0,1,2,2V7a0,0,0,0,1,0,0H13a0,0,0,0,1,0,0V3A2,2,0,0,1,15,1Z" style="fill:#e6e6e6"/><path d="M16,2V1H15a2,2,0,0,0-2,2V7h9V4H18A2,2,0,0,1,16,2Z" style="fill:#cecece"/><path d="M46.292,38.7,42.258,25.589A20,20,0,0,0,28.3,12.146L24,11H11L9.343,12.657A8,8,0,0,0,7,18.314v2.8a7.99,7.99,0,0,1-.845,3.577L3.9,29.2a15.2,15.2,0,0,0-1.079,2.758,55.087,55.087,0,0,0-.442,26.393,3.994,3.994,0,0,0,3.213,3.123,121.438,121.438,0,0,0,37.966.079A4.015,4.015,0,0,0,47,57.583V43.406A15.965,15.965,0,0,0,46.292,38.7ZM36.836,37h-4.36A3.476,3.476,0,0,1,29,33.524V22.476A3.477,3.477,0,0,1,32.478,19h.07a3.416,3.416,0,0,1,2.591,1.15c2.634,3.045,4.085,7.659,5.108,12.691A3.476,3.476,0,0,1,36.836,37Z" style="fill:#e6e6e6"/><path d="M46.56,58.548a133.143,133.143,0,0,1-17.17,1.435A24.05,24.05,0,0,1,5.482,30.262q.162-.656.341-1.309A15.174,15.174,0,0,1,6.9,26.2l2.253-4.506A7.993,7.993,0,0,0,10,18.112v-2.8A8,8,0,0,1,11.269,11H11L9.343,12.657A8,8,0,0,0,7,18.314v2.8a7.993,7.993,0,0,1-.845,3.577L3.9,29.2a15.174,15.174,0,0,0-1.079,2.758,55.087,55.087,0,0,0-.442,26.393,3.994,3.994,0,0,0,3.213,3.123,121.438,121.438,0,0,0,37.966.079,4.014,4.014,0,0,0,3.329-3.079C46.779,58.5,46.674,58.531,46.56,58.548Z" style="fill:#cecece"/><path d="M24.334,59a110.093,110.093,0,0,1-16.64-1.246,2.03,2.03,0,0,1-1.681-1.618,50.055,50.055,0,0,1,.74-23.387,8.146,8.146,0,0,1,.559-1.429l2.843-5.686A7.994,7.994,0,0,0,11,22.056V17.828a2.831,2.831,0,0,1,.828-2h0a2.831,2.831,0,0,1,2-.828H21a4,4,0,0,1,4,4V35a6,6,0,0,0,6,6H41a2,2,0,0,1,2,2V55.842a2.005,2.005,0,0,1-1.73,1.988A127.3,127.3,0,0,1,24.337,59Z" style="fill:#f8c460"/><path d="M5.249,40.692a52.857,52.857,0,0,0,.764,15.444,2.03,2.03,0,0,0,1.681,1.618,109.331,109.331,0,0,0,14.25,1.2A24.156,24.156,0,0,1,5.249,40.692Z" style="fill:#faaf42"/><path d="M53.464,27.268A4.512,4.512,0,0,0,52.918,27a4.512,4.512,0,0,0,.546-.268c1.435-.828,2.151-2.275,1.6-3.232s-2.163-1.06-3.6-.232a4.49,4.49,0,0,0-.5.339A4.451,4.451,0,0,0,51,23c0-1.657-.9-3-2-3s-2,1.343-2,3a4.451,4.451,0,0,0,.041.607,4.49,4.49,0,0,0-.5-.339c-1.435-.828-3.046-.725-3.6.232s.163,2.4,1.6,3.232a4.512,4.512,0,0,0,.546.268,4.512,4.512,0,0,0-.546.268c-1.435.828-2.15,2.275-1.6,3.232s2.163,1.06,3.6.232a4.49,4.49,0,0,0,.5-.339A4.451,4.451,0,0,0,47,31c0,1.657.9,3,2,3s2-1.343,2-3a4.451,4.451,0,0,0-.041-.607,4.49,4.49,0,0,0,.5.339c1.435.828,3.046.725,3.6-.232S54.9,28.1,53.464,27.268Z" style="fill:#f8c460"/><path d="M61.464,8.268A4.512,4.512,0,0,0,60.918,8a4.512,4.512,0,0,0,.546-.268C62.9,6.9,63.615,5.457,63.062,4.5s-2.163-1.06-3.6-.232a4.49,4.49,0,0,0-.5.339A4.451,4.451,0,0,0,59,4c0-1.657-.9-3-2-3s-2,1.343-2,3a4.451,4.451,0,0,0,.041.607,4.49,4.49,0,0,0-.5-.339c-1.435-.828-3.046-.725-3.6.232s.163,2.4,1.6,3.232A4.512,4.512,0,0,0,53.082,8a4.512,4.512,0,0,0-.546.268c-1.435.828-2.15,2.275-1.6,3.232s2.163,1.06,3.6.232a4.49,4.49,0,0,0,.5-.339A4.451,4.451,0,0,0,55,12c0,1.657.9,3,2,3s2-1.343,2-3a4.451,4.451,0,0,0-.041-.607,4.49,4.49,0,0,0,.5.339c1.435.828,3.046.725,3.6-.232S62.9,9.1,61.464,8.268Z" style="fill:#f8c460"/><circle cx="49" cy="27" r="1" style="fill:#faaf42"/><circle cx="57" cy="8" r="1" style="fill:#faaf42"/><path d="M11,46H37a1,1,0,0,0,0-2H11a1,1,0,0,0,0,2Z" style="fill:#e6e6e6"/><path d="M13,48a1,1,0,0,0,0,2H35a1,1,0,0,0,0-2Z" style="fill:#e6e6e6"/><path d="M21,26a1,1,0,0,0,0-2H15a1,1,0,0,0,0,2Z" style="fill:#e6e6e6"/><path d="M12,29a1,1,0,0,0,1,1h8a1,1,0,0,0,0-2H13A1,1,0,0,0,12,29Z" style="fill:#e6e6e6"/><path d="M10,33a1,1,0,0,0,1,1H21a1,1,0,0,0,0-2H11A1,1,0,0,0,10,33Z" style="fill:#e6e6e6"/><path d="M11,38H21a1,1,0,0,0,0-2H11a1,1,0,0,0,0,2Z" style="fill:#e6e6e6"/><path d="M11,42H23a1,1,0,0,0,0-2H11a1,1,0,0,0,0,2Z" style="fill:#e6e6e6"/><path d="M22,10H20a1,1,0,0,1,0-2h2a1,1,0,0,1,0,2Z" style="fill:#fff"/><path d="M31,16.27a1,1,0,0,1-.435-.1,17.015,17.015,0,0,0-1.889-.775,1,1,0,0,1,.648-1.893,19.407,19.407,0,0,1,2.111.867A1,1,0,0,1,31,16.27Z" style="fill:#fff"/><rect x="15" y="1" width="2" height="6" style="fill:#f8c460"/><rect x="18" y="1" width="2" height="6" style="fill:#f8c460"/></g></svg>