<svg xmlns="http://www.w3.org/2000/svg" viewBox="0 0 64 64"><g id="Layer_31" data-name="Layer 31"><rect x="1" y="27" width="62" height="4" rx="2" style="fill:#7a838b"/><rect x="3" y="27" width="2" height="4" style="fill:#5d6972"/><rect x="51" y="27" width="2" height="4" style="fill:#5d6972"/><path d="M7,21H7a2,2,0,0,1,2,2V63a0,0,0,0,1,0,0H5a0,0,0,0,1,0,0V23a2,2,0,0,1,2-2Z" style="fill:#7a838b"/><path d="M55,21h0a2,2,0,0,1,2,2V63a0,0,0,0,1,0,0H53a0,0,0,0,1,0,0V23A2,2,0,0,1,55,21Z" style="fill:#7a838b"/><polygon points="21.5 31 38.5 31 37.5 27 22.5 27 21.5 31" style="fill:#5d6972"/><path d="M39,49h6L39.379,26.515A2,2,0,0,0,37.438,25H26.562a2,2,0,0,0-1.941,1.515L19,49h6l4.526-12.673A2,2,0,0,1,31.409,35h1.182a2,2,0,0,1,1.883,1.327Z" style="fill:#a7d0e1"/><path d="M22.987,42.05,27.25,25h-.688a2,2,0,0,0-1.941,1.515L19,49h6l1.071-3h0A3.179,3.179,0,0,1,22.987,42.05Z" style="fill:#80bbce"/><rect x="17" y="49" width="10" height="4" rx="2" style="fill:#a7d0e1"/><path d="M20,51a2,2,0,0,1,2-2H19a2,2,0,0,0,0,4h3A2,2,0,0,1,20,51Z" style="fill:#80bbce"/><rect x="37" y="49" width="10" height="4" rx="2" style="fill:#a7d0e1"/><path d="M40,51a2,2,0,0,1,2-2H39a2,2,0,0,0,0,4h3A2,2,0,0,1,40,51Z" style="fill:#80bbce"/><circle cx="32" cy="8.005" r="3.005" style="fill:#f8c460"/><path d="M35,8.01a3,3,0,0,1-3-3V5a3.005,3.005,0,1,0,3.01,3.01Z" style="fill:#faaf42"/><path d="M25,9.005h1a1,1,0,0,0,0-2H25a1,1,0,1,0,0,2Z" style="fill:#f8c460"/><path d="M37,8.005a1,1,0,0,0,1,1h1a1,1,0,0,0,0-2H38A1,1,0,0,0,37,8.005Z" style="fill:#f8c460"/><path d="M31,14.005v1a1,1,0,1,0,2,0v-1a1,1,0,0,0-2,0Z" style="fill:#f8c460"/><path d="M32,3.005a1,1,0,0,0,1-1V1a1,1,0,0,0-2,0v1A1,1,0,0,0,32,3.005Z" style="fill:#f8c460"/><path d="M27.172,11.419l-.708.707a1,1,0,0,0,1.414,1.415l.708-.707a1,1,0,0,0-1.414-1.415Z" style="fill:#f8c460"/><path d="M36.121,4.884a1,1,0,0,0,.707-.293l.708-.707a1,1,0,0,0-1.414-1.415l-.708.707a1,1,0,0,0,.707,1.708Z" style="fill:#f8c460"/><path d="M27.172,4.591a1,1,0,0,0,1.414-1.415l-.708-.707a1,1,0,0,0-1.414,1.415Z" style="fill:#f8c460"/><path d="M35.414,11.419a1,1,0,0,0,0,1.415l.708.707a1,1,0,1,0,1.414-1.415l-.708-.707A1,1,0,0,0,35.414,11.419Z" style="fill:#f8c460"/><path d="M55,26a1,1,0,0,1-1-1V23a1,1,0,0,1,2,0v2A1,1,0,0,1,55,26Z" style="fill:#fff"/></g></svg>