<svg xmlns="http://www.w3.org/2000/svg" viewBox="0 0 64 64"><g id="Layer_31" data-name="Layer 31"><path d="M39.968,16.271a7.989,7.989,0,0,1-4.72,8.034A2.027,2.027,0,0,0,34,26.142V29H30V24.744a4.058,4.058,0,0,1,3.082-3.889l.087-.024a3.953,3.953,0,0,0,2.722-2.884,4,4,0,0,0-7.658-2.3A1.943,1.943,0,0,1,26.428,17H26.2a1.89,1.89,0,0,1-1.822-2.432,8,8,0,0,1,15.592,1.7Z" style="fill:#7a838b"/><rect x="3" y="50" width="58" height="3" style="fill:#7a838b"/><path d="M4.609,50A7.987,7.987,0,0,0,4,53H6.818l4.227-3Z" style="fill:#5d6972"/><path d="M59.391,50A7.987,7.987,0,0,1,60,53H57.182l-4.227-3Z" style="fill:#5d6972"/><path d="M59.762,46.6,38.122,30.572A8,8,0,0,0,33.36,29H30.64a8,8,0,0,0-4.762,1.572L4.238,46.6A8,8,0,0,0,1,53.03V55L27.37,36.286a8,8,0,0,1,9.26,0L63,55V53.03A8,8,0,0,0,59.762,46.6Z" style="fill:#f8c460"/><path d="M7.238,46.6l21.64-16.029A8,8,0,0,1,33.5,29.011c-.047,0-.093-.011-.14-.011H30.64a8,8,0,0,0-4.762,1.572L4.238,46.6A8,8,0,0,0,1,53.03V55l3.01-2.136A7.994,7.994,0,0,1,7.238,46.6Z" style="fill:#faaf42"/><path d="M34,29V27.051c-.214-.017-.425-.051-.64-.051H30.64c-.215,0-.426.034-.64.051V29Z" style="fill:#5d6972"/><path d="M41,36.193a1,1,0,0,1-.594-.2L38.794,34.8A1,1,0,0,1,39.985,33.2l1.61,1.193a1,1,0,0,1-.6,1.8Z" style="fill:#fff"/><path d="M34,11a1,1,0,0,1-1,1H31a1,1,0,0,1,0-2h2A1,1,0,0,1,34,11Z" style="fill:#fff"/></g></svg>