<svg xmlns="http://www.w3.org/2000/svg" viewBox="0 0 48 48"><defs><style>.cls-1{fill:#c6c3d8;}.cls-2{fill:#dad7e5;}.cls-3{fill:#2c435e;}.cls-4{fill:#374f68;}.cls-5{fill:#9fdbf3;}.cls-6{fill:#f16f39;}.cls-7{fill:#f8834b;}.cls-8{fill:#b2e5fb;}.cls-9{fill:#fc6;}</style></defs><title>Automatic Wash</title><g id="Automatic_Wash" data-name="Automatic Wash"><rect class="cls-1" x="1" y="7" width="46" height="4"/><path class="cls-2" d="M47,7V9H6A2,2,0,0,1,4,7Z"/><rect class="cls-3" x="22" y="11" width="4" height="4"/><rect class="cls-4" x="22" y="12" width="4" height="3"/><path class="cls-1" d="M36,17a2,2,0,0,1-2,2H14a2,2,0,0,1,0-4H34A2,2,0,0,1,36,17Z"/><path class="cls-2" d="M34,19H14.27A2,2,0,0,1,16,16H35.73A2,2,0,0,1,34,19Z"/><path class="cls-5" d="M13,24V22a1,1,0,0,1,2,0v2A1,1,0,0,1,13,24Z"/><path class="cls-5" d="M17,26V24a1,1,0,0,1,2,0v2A1,1,0,0,1,17,26Z"/><path class="cls-5" d="M21,24V22a1,1,0,0,1,2,0v2A1,1,0,0,1,21,24Z"/><path class="cls-5" d="M25,26V24a1,1,0,0,1,2,0v2A1,1,0,0,1,25,26Z"/><path class="cls-5" d="M29,24V22a1,1,0,0,1,2,0v2A1,1,0,0,1,29,24Z"/><path class="cls-5" d="M33,25V23a1,1,0,0,1,2,0v2A1,1,0,0,1,33,25Z"/><rect class="cls-3" x="3" y="11" width="4" height="36"/><rect class="cls-4" x="3" y="13" width="4" height="34"/><rect class="cls-3" x="41" y="11" width="4" height="36"/><rect class="cls-4" x="41" y="13" width="4" height="34"/><rect class="cls-6" x="13" y="37" width="22" height="6"/><path class="cls-7" d="M35,37v5H17a2,2,0,0,1-2-2V37Z"/><polygon class="cls-5" points="34 37 14 37 17 29 31 29 34 37"/><path class="cls-8" d="M33.25,35H19.89A2,2,0,0,1,18,32.3L19.25,29H31Z"/><path class="cls-3" d="M18,43v2.5a1.5,1.5,0,0,1-3,0V43Z"/><path class="cls-4" d="M17,44c0,2.67,0,2.66-.07,2.93A1.49,1.49,0,0,1,15,45.5V44Z"/><path class="cls-3" d="M33,43v2.5a1.5,1.5,0,0,1-3,0V43Z"/><path class="cls-4" d="M32,44c0,2.67,0,2.66-.07,2.93A1.49,1.49,0,0,1,30,45.5V44Z"/><path class="cls-6" d="M11,34h2a1,1,0,0,1,1,1v2a0,0,0,0,1,0,0H12a1,1,0,0,1-1-1V34A0,0,0,0,1,11,34Z"/><path class="cls-7" d="M35,34h2a0,0,0,0,1,0,0v2a1,1,0,0,1-1,1H34a0,0,0,0,1,0,0V35A1,1,0,0,1,35,34Z"/><path class="cls-9" d="M17,41H13V39h4A1,1,0,0,1,17,41Z"/><path class="cls-9" d="M35,39v2H31a1,1,0,0,1,0-2Z"/></g></svg>