<svg xmlns="http://www.w3.org/2000/svg" viewBox="0 0 48 48"><defs><style>.cls-1{fill:#6fabe6;}.cls-2{fill:#82bcf4;}.cls-3{fill:#dad7e5;}.cls-4{fill:#edebf2;}.cls-5{fill:#9fdbf3;}.cls-6{fill:#b2e5fb;}.cls-7{fill:#374f68;}.cls-8{fill:#2c435e;}</style></defs><title>Bleach</title><g id="Bleach"><rect class="cls-1" x="20" y="1" width="8" height="6"/><rect class="cls-2" x="24" y="1" width="4" height="6"/><path class="cls-1" d="M30,9v2H18V9a2,2,0,0,1,2-2h8A2,2,0,0,1,30,9Z"/><path class="cls-2" d="M30,9v2H24V9a2,2,0,0,1,2-2h2A2,2,0,0,1,30,9Z"/><rect class="cls-3" x="14" y="29" width="20" height="14"/><rect class="cls-4" x="20" y="29" width="14" height="14"/><path class="cls-5" d="M34,28.9c0,.15,1.54.1-20,.1a3.82,3.82,0,0,1,1.52-3.14,3.7,3.7,0,0,0,1.09-4.63l-1.47-2.94A4,4,0,0,1,15.6,14L18,11H30l2.4,3a4,4,0,0,1,.46,4.29l-1.47,2.94a3.7,3.7,0,0,0,1.09,4.63A3.79,3.79,0,0,1,34,28.9Z"/><path class="cls-6" d="M34,28.9c0,.14,1.5.1-14,.1a3.82,3.82,0,0,1,1.52-3.14,3.7,3.7,0,0,0,1.09-4.63l-1.47-2.94A4,4,0,0,1,21.6,14L24,11h6l2.4,3a4,4,0,0,1,.46,4.29l-1.47,2.94a3.7,3.7,0,0,0,1.09,4.63A3.79,3.79,0,0,1,34,28.9Z"/><rect class="cls-5" x="14" y="43" width="20" height="4"/><path class="cls-6" d="M34,43v2H22a2,2,0,0,1-2-2Z"/><path class="cls-7" d="M22,10H20A1,1,0,0,1,22,10Z"/><path class="cls-7" d="M25,10H23A1,1,0,0,1,25,10Z"/><path class="cls-7" d="M28,10H26A1,1,0,0,1,28,10Z"/><path class="cls-2" d="M21,34v1a1,1,0,0,1-1,1V33A1,1,0,0,1,21,34Z"/><path class="cls-1" d="M20,33v3a1,1,0,0,1-1-1V34A1,1,0,0,1,20,33Z"/><path class="cls-2" d="M23,38H22a1,1,0,0,1,0-2h1A1,1,0,0,1,23,38Z"/><path class="cls-2" d="M21,39v1a1,1,0,0,1-1,1V38A1,1,0,0,1,21,39Z"/><path class="cls-1" d="M20,38v3a1,1,0,0,1-1-1V39A1,1,0,0,1,20,38Z"/><path class="cls-1" d="M18,38H17a1,1,0,0,1,0-2h1A1,1,0,0,1,18,38Z"/><path class="cls-2" d="M31,33H30a1,1,0,0,1,0-2h1A1,1,0,0,1,31,33Z"/><path class="cls-2" d="M27,35V34a1,1,0,0,1,2,0v1A1,1,0,0,1,27,35Z"/><path class="cls-2" d="M26,33H25a1,1,0,0,1,0-2h1A1,1,0,0,1,26,33Z"/><rect class="cls-8" x="26" y="10" width="2" height="1"/><rect class="cls-8" x="23" y="10" width="2" height="1"/><rect class="cls-8" x="20" y="10" width="2" height="1"/><rect class="cls-1" x="18" y="10" width="2" height="1"/><rect class="cls-1" x="22" y="10" width="1" height="1"/><rect class="cls-1" x="25" y="10" width="1" height="1"/><rect class="cls-1" x="28" y="10" width="2" height="1"/><rect class="cls-1" x="20" y="6" width="8" height="1"/></g></svg>