<svg xmlns="http://www.w3.org/2000/svg" viewBox="0 0 48 48"><defs><style>.cls-1{fill:#b2e5fb;}.cls-2{fill:#9fdbf3;}.cls-3{fill:#edebf2;}</style></defs><title>Bubbles</title><g id="Bubbles"><path class="cls-1" d="M25,35c0,11.53-14.76,16.4-21.65,7.15A12,12,0,1,1,25,35Z"/><path class="cls-2" d="M22.5,32.5A12,12,0,0,1,3.35,42.15a12,12,0,0,1,16.8-16.8A12,12,0,0,1,22.5,32.5Z"/><path class="cls-3" d="M13,44a1,1,0,0,1,0-2,7,7,0,0,0,7-6.12,1,1,0,0,1,2,.24A9,9,0,0,1,13,44Z"/><path class="cls-1" d="M47,25a8,8,0,1,1-14.56-4.56A8,8,0,0,1,47,25Z"/><path class="cls-2" d="M45,27a7.87,7.87,0,0,1-1.44,4.56A7.87,7.87,0,0,1,39,33a8,8,0,0,1-6.56-12.56A8,8,0,0,1,45,27Z"/><path class="cls-3" d="M44,26a1,1,0,0,1-1-1,4,4,0,0,0-4-4,1,1,0,0,1,0-2C44.52,19,46.41,26,44,26Z"/><path class="cls-1" d="M30,7a6,6,0,1,1-6-6A6,6,0,0,1,30,7Z"/><path class="cls-2" d="M20.88,12.12C17.6,6.8,23.81.61,29.12,3.88,32.38,9.18,26.22,15.41,20.88,12.12Z"/><path class="cls-3" d="M21,8c-2.1,0-.81-5,3-5a1,1,0,0,1,0,2,2,2,0,0,0-2,2A1,1,0,0,1,21,8Z"/><path class="cls-1" d="M12,13a4,4,0,1,1-7.28-2.28A4,4,0,0,1,12,13Z"/><path class="cls-2" d="M10.28,16.28a4,4,0,0,1-5.56-5.56A4,4,0,0,1,10.28,16.28Z"/></g></svg>