<svg xmlns="http://www.w3.org/2000/svg" viewBox="0 0 48 48"><defs><style>.cls-1{fill:#f6ccaf;}.cls-2{fill:#ffdec7;}.cls-3{fill:#edb996;}.cls-4{fill:#df8761;}.cls-5{fill:#f29b75;}.cls-6{fill:#919191;}.cls-7{fill:#ffba55;}</style></defs><title>Clean Clothes</title><g id="Clean_Clothes" data-name="Clean Clothes"><polygon class="cls-1" points="42 8 42 47 24 47 24 11 30 15 36 4 42 8"/><path class="cls-1" d="M24,11V47H6V8l6-4,6,11Z"/><path class="cls-2" d="M42,8V44H22a4,4,0,0,1-4-4V15l6-4,6,4L36,4Z"/><path class="cls-3" d="M30,20h8a0,0,0,0,1,0,0v8a2,2,0,0,1-2,2H32a2,2,0,0,1-2-2V20A0,0,0,0,1,30,20Z"/><path class="cls-3" d="M38,20v8a2,2,0,0,1-2,2H32a2,2,0,0,1-2-2V20Z"/><path class="cls-1" d="M38,20v8H34a2,2,0,0,1-2-2V20Z"/><rect class="cls-4" x="23" y="11" width="2" height="36"/><polygon class="cls-5" points="25 11 25 11.67 24 11 25 11"/><polygon class="cls-5" points="23 11.67 25 13 25 44 23 44 23 11.67"/><path class="cls-4" d="M25,11.67V13l-2-1.33V11C24.26,11,23.8,10.87,25,11.67Z"/><polygon class="cls-1" points="28.53 14.02 28 15 25 13 25 11.67 28.53 14.02"/><path class="cls-6" d="M28,18a1,1,0,0,1-2,0A1,1,0,0,1,28,18Z"/><path class="cls-6" d="M28,24a1,1,0,0,1-2,0A1,1,0,0,1,28,24Z"/><path class="cls-6" d="M28,30a1,1,0,0,1-2,0A1,1,0,0,1,28,30Z"/><path class="cls-6" d="M28,36a1,1,0,0,1-2,0A1,1,0,0,1,28,36Z"/><path class="cls-6" d="M28,42a1,1,0,0,1-2,0A1,1,0,0,1,28,42Z"/><path class="cls-7" d="M11,22a5,5,0,0,0-5,5,5,5,0,0,0-5-5,5,5,0,0,0,5-5A5,5,0,0,0,11,22Z"/><polygon class="cls-3" points="32 1 24 11 16 1 32 1"/><polygon class="cls-1" points="30 1 23 9.75 16 1 30 1"/><polygon class="cls-3" points="17.73 14.51 17 15 11.27 4.49 12 4 17.73 14.51"/><path class="cls-4" d="M24,11l-6,4L12,4l4-3Z"/><path class="cls-4" d="M23,11l-5.27,3.51L12,4l3.37-2.53Z"/><path class="cls-5" d="M24,11l-4.53,3L15.65,7a4,4,0,0,1,1.1-5.08Z"/><polygon class="cls-4" points="36 4 30 15 24 11 32 1 36 4"/><polygon class="cls-5" points="36 4 30 15 24 11 32 1 36 4"/></g></svg>