<svg xmlns="http://www.w3.org/2000/svg" viewBox="0 0 48 48"><defs><style>.cls-1{fill:#dad7e5;}.cls-2{fill:#edebf2;}.cls-3{fill:#6fabe6;}.cls-4{fill:#82bcf4;}.cls-5{fill:#c6c3d8;}.cls-6{fill:#b2e5fb;}.cls-7{fill:#9fdbf3;}</style></defs><title>Cloth Steamer</title><g id="Cloth_Steamer" data-name="Cloth Steamer"><path class="cls-1" d="M32,19v1H16V19a8,8,0,0,1,2.86-6.13L12.75,7.45a4,4,0,0,1-.54-5.4L13,1,27.26,11.69A8,8,0,0,1,32,19Z"/><path class="cls-1" d="M32,19v1H16V19a8,8,0,0,1,2.86-6.13L12.75,7.45a4,4,0,0,1-.8-5A11.4,11.4,0,0,1,13,1L27.26,11.69A8,8,0,0,1,32,19Z"/><path class="cls-2" d="M29,19v1H16V19a8,8,0,0,1,2.86-6.13L12.75,7.45a4,4,0,0,1-.8-5l12.31,9.23A8,8,0,0,1,29,19Z"/><path class="cls-3" d="M33.53,46.08a2,2,0,0,1-1.68.92H16.15a2,2,0,0,1-2-2.15C14.25,43.53,14,46.42,16,20H32C34,46.62,34.05,45.28,33.53,46.08Z"/><path class="cls-4" d="M30.53,43.08a2,2,0,0,1-1.68.92H14.22L16,20H29C30.56,41.06,31.31,41.89,30.53,43.08Z"/><path class="cls-1" d="M42,26V37.6a6,6,0,0,1-2.91,5.15l-5.56,3.33c.46-.7.33-.92,0-4.87l3.32-1.66A2,2,0,0,0,38,37.76V27a2,2,0,0,0-2-2H32.37L32,20h4A6,6,0,0,1,42,26Z"/><path class="cls-5" d="M38,27c0,11.68.09,11-.2,11.6A2,2,0,0,0,39,36.76V26a2,2,0,0,0-2-2H33.37l-.3-4H32l.37,5H36A2,2,0,0,1,38,27Z"/><path class="cls-5" d="M34.53,45.08c.46-.7.33-1,.08-4.39l-1,.52c.3,4,.42,4.17,0,4.87,5.92-3.55,6.23-3.59,7.15-4.74C40.23,41.69,40.53,41.49,34.53,45.08Z"/><path class="cls-6" d="M27,34a3,3,0,0,1-6,0V27a3,3,0,0,1,5.12-2.12C27.29,26.05,27,26.69,27,34Z"/><path class="cls-7" d="M27,27v7a3,3,0,0,1-2,2.82A3,3,0,0,1,23,34V27a3,3,0,0,1,2-2.82A3,3,0,0,1,27,27Z"/></g></svg>