<svg xmlns="http://www.w3.org/2000/svg" viewBox="0 0 48 48"><defs><style>.cls-1{fill:#919191;}.cls-2{fill:#84b749;}.cls-3{fill:#9dcc6b;}.cls-4{fill:#b5e08c;}</style></defs><title>Clothes Pegs</title><g id="Clothes_Pegs" data-name="Clothes Pegs"><path class="cls-1" d="M17.2,39.74a1,1,0,0,1,.72-1.86,17.1,17.1,0,0,0,12.16,0,1,1,0,0,1,.72,1.86A19,19,0,0,1,17.2,39.74Z"/><path class="cls-1" d="M8.64,33.17A19,19,0,0,1,15.35,5.08a1,1,0,0,1,.91,1.78,17,17,0,0,0-6,25.13A1,1,0,0,1,8.64,33.17Z"/><path class="cls-1" d="M37.74,32a17,17,0,0,0-6-25.13,1,1,0,0,1,.91-1.78,19,19,0,0,1,6.71,28.09A1,1,0,0,1,37.74,32Z"/><path class="cls-2" d="M21.17,10.17A4,4,0,0,0,24,17v7L14,47H6L17,1l7,3V9A4,4,0,0,0,21.17,10.17Z"/><path class="cls-3" d="M42,47H34c-2.26-5.2-.34-.77-10-23V17a4,4,0,0,0,0-8V4l7-3C42.15,47.63,40.57,41.05,42,47Z"/><path class="cls-4" d="M31,1,24,4l-1-.43V9a3.88,3.88,0,0,1,.44,0A4,4,0,1,1,23,16.87V24h1l8.26,19H41C40.94,42.5,41.74,45.91,31,1Z"/><path class="cls-3" d="M24,24,15.74,43a3.7,3.7,0,0,1-3.59-4.6C21.7.22,20.79,3.07,21.38,2.88L23,3.57V9a3,3,0,0,1,.43,0A4,4,0,0,0,23,16.87V24Z"/><path class="cls-2" d="M24,17v7H23V16.87A3.66,3.66,0,0,0,24,17Z"/><path class="cls-2" d="M24,4V9a4.23,4.23,0,0,0-.5.05A4.1,4.1,0,0,0,23,9V3.57Z"/></g></svg>