<svg xmlns="http://www.w3.org/2000/svg" viewBox="0 0 48 48"><defs><style>.cls-1{fill:#db5669;}.cls-2{fill:#f26674;}.cls-3{fill:#374f68;}.cls-4{fill:#c4455e;}.cls-5{fill:#a07765;}.cls-6{fill:#425b72;}.cls-7{fill:#be927c;}</style></defs><title>Dress is Drying</title><g id="Dress_is_Drying" data-name="Dress is Drying"><path class="cls-1" d="M33,6V17.5A4.5,4.5,0,0,1,28.5,22h-9A4.49,4.49,0,0,1,15,17.5V6h4c.35,2.13.42,4.36,3,5.55a4.72,4.72,0,0,0,6.66-3.5L29,6Z"/><path class="cls-2" d="M33,6V17.5A4.5,4.5,0,0,1,28.5,22H22V11.55a4.72,4.72,0,0,0,6.66-3.5L29,6Z"/><path class="cls-3" d="M31.5,25c-16.36,0-15.27.08-15.71-.19A1.49,1.49,0,0,1,16.5,22h15A1.5,1.5,0,0,1,31.5,25Z"/><path class="cls-3" d="M31.5,25c-16.36,0-15.27.08-15.71-.19A1.49,1.49,0,0,1,16.5,22h15A1.5,1.5,0,0,1,31.5,25Z"/><path class="cls-1" d="M32.76,47H15.24a4,4,0,0,1-3.86-5l4.1-16c.46-1.77.06-1,1-1,16.36,0,15.27.08,15.71-.19.44,1.69-.27-1,4.41,17.14A4,4,0,0,1,32.76,47Z"/><path class="cls-2" d="M36.23,45H28a6,6,0,0,1-6-6V25c10.28,0,9.77.08,10.21-.19C37.07,43.68,37.31,43.13,36.23,45Z"/><path class="cls-4" d="M22,33.21,19,47H17c0-.17-.16.63,3-14.21A1,1,0,0,1,22,33.21Z"/><path class="cls-4" d="M31,47H29L26,33.21a1,1,0,0,1,2-.42C31.16,47.61,31,46.82,31,47Z"/><path class="cls-1" d="M25,12v6a1,1,0,0,1-2,0V12c0-.22.07,0,1,0S25,11.76,25,12Z"/><path class="cls-5" d="M47,4H32V6a1,1,0,0,1-2,0V4H18V6a1,1,0,0,1-2,0V4H1A1,1,0,0,1,1,2H16V1a1,1,0,0,1,2,0V2H30V1a1,1,0,0,1,2,0V2H47A1,1,0,0,1,47,4Z"/><path class="cls-6" d="M31.5,25H22V22h9.5A1.5,1.5,0,0,1,31.5,25Z"/><path class="cls-1" d="M32.52,26h-17l.31-1.19c.44.27-.66.19,15.71.19C32.46,25,32.06,24.25,32.52,26Z"/><path class="cls-7" d="M48,3H22V2h8V1a1,1,0,0,1,2,0V2H47A1,1,0,0,1,48,3Z"/></g></svg>