<svg xmlns="http://www.w3.org/2000/svg" viewBox="0 0 48 48"><defs><style>.cls-1{fill:#dad7e5;}.cls-2{fill:#edebf2;}.cls-3{fill:#7c7d7d;}.cls-4{fill:#919191;}.cls-5{fill:#fc6;}.cls-6{fill:#ffde76;}.cls-7{fill:#425b72;}.cls-8{fill:#374f68;}.cls-9{fill:#b2e5fb;}.cls-10{fill:#9fdbf3;}.cls-11{fill:#747575;}</style></defs><title>Dry Clean</title><g id="Dry_Clean" data-name="Dry Clean"><rect class="cls-1" x="35" y="1" width="12" height="46"/><rect class="cls-2" x="35" y="1" width="12" height="43"/><rect class="cls-1" x="1" y="9" width="34" height="38"/><path class="cls-2" d="M35,9V44H22a8,8,0,0,1-8-8V9Z"/><rect class="cls-3" x="1" y="1" width="34" height="8"/><rect class="cls-4" x="14" y="1" width="21" height="8"/><path class="cls-3" d="M31,22v6H29.62A12,12,0,0,1,6.38,28H5V22H6.38a12,12,0,0,1,23.24,0Z"/><path class="cls-4" d="M31,22v6H29.62a12,12,0,0,1-15.13,8.48c0,.18-6.43-1.94-8.11-8.48H5V22H6.38a12,12,0,0,1,23.24,0Z"/><path class="cls-3" d="M14.49,36.48c0,.18-6.43-1.94-8.11-8.48H5V22H6.38a12,12,0,0,1,8.1-8.48h0C25.81,16.94,25.81,33.06,14.49,36.48Z"/><circle class="cls-5" cx="12" cy="42" r="2"/><circle class="cls-6" cx="24" cy="42" r="2"/><circle class="cls-6" cx="41" cy="42" r="2"/><path class="cls-7" d="M18,7a2,2,0,1,1,2-2A2,2,0,0,1,18,7Zm0-2Z"/><path class="cls-8" d="M12,6H6A1,1,0,0,1,6,4h6A1,1,0,0,1,12,6Z"/><path class="cls-7" d="M30,6H24a1,1,0,0,1,0-2h6A1,1,0,0,1,30,6Z"/><path class="cls-9" d="M26,25a8,8,0,1,1-9.5-7.86A8,8,0,0,1,26,25Z"/><ellipse class="cls-10" cx="16.5" cy="25" rx="6.5" ry="7.86"/><path class="cls-8" d="M13,26H8a1,1,0,0,1,0-2h5A1,1,0,0,1,13,26Z"/><rect class="cls-1" x="34" y="9" width="1" height="35"/><rect class="cls-11" x="34" y="1" width="1" height="8"/></g></svg>