<svg xmlns="http://www.w3.org/2000/svg" viewBox="0 0 48 48"><defs><style>.cls-1{fill:#db5669;}.cls-2{fill:#f26674;}.cls-3{fill:#de4a8c;}.cls-4{fill:#f26da6;}.cls-5{fill:#5b9ad8;}.cls-6{fill:#9fdbf3;}.cls-7{fill:#c4455e;}.cls-8{fill:#b2e5fb;}.cls-9{fill:#6fabe6;}</style></defs><title>Fabric Softener</title><g id="Fabric_Softener" data-name="Fabric Softener"><rect class="cls-1" x="20" y="1" width="8" height="6"/><rect class="cls-2" x="22" y="1" width="6" height="6"/><path class="cls-1" d="M30,9v2H18V9a2,2,0,0,1,2-2h8A2,2,0,0,1,30,9Z"/><path class="cls-2" d="M30,9v2H22V9a2,2,0,0,1,2-2h4A2,2,0,0,1,30,9Z"/><path class="cls-3" d="M30,11H18a5,5,0,0,0-5,5V43a4,4,0,0,0,4,4H31a4,4,0,0,0,3.46-2c.76-1.31.54.26.54-29A5,5,0,0,0,30,11ZM20,25V19a4,4,0,0,1,6.83-2.83C28.36,17.72,28,19,28,25a4,4,0,0,1-8,0Z"/><path class="cls-4" d="M35,16c0,29.19.23,27.66-.54,29H26a4,4,0,0,1-4-4V28.46A4,4,0,0,0,28,25V19a4,4,0,0,0-6-3.46V11h8A5,5,0,0,1,35,16Z"/><path class="cls-5" d="M31,37v4a2,2,0,0,1-2,2H19a2,2,0,0,1-2-2V38s4-2,7,0S30,39,31,37Z"/><path class="cls-5" d="M22,37.2V43H19a2,2,0,0,1-2-2V38A9.15,9.15,0,0,1,22,37.2Z"/><path class="cls-6" d="M31,35v2c-1,2-4,3-7,1s-7,0-7,0V35a2,2,0,0,1,2-2H29A2,2,0,0,1,31,35Z"/><path class="cls-6" d="M22,33v4.2a9.15,9.15,0,0,0-5,.8V35a2,2,0,0,1,2-2Z"/><path class="cls-7" d="M25,5V6H23V5A1,1,0,0,1,25,5Z"/><path class="cls-8" d="M31,35v2c-1,2-4,3-7,1a5.32,5.32,0,0,0-2-.8V33h7A2,2,0,0,1,31,35Z"/><path class="cls-9" d="M31,37v4a2,2,0,0,1-2,2H24a2,2,0,0,1-2-2V37.2a5.32,5.32,0,0,1,2,.8C27,40,30,39,31,37Z"/><rect class="cls-7" x="23" y="6" width="2" height="1"/><rect class="cls-1" x="20" y="6" width="3" height="1"/><rect class="cls-1" x="25" y="6" width="3" height="1"/><rect class="cls-1" x="18" y="10" width="12" height="1"/></g></svg>