<svg xmlns="http://www.w3.org/2000/svg" viewBox="0 0 48 48"><defs><style>.cls-1{fill:#fc6;}.cls-2{fill:#ffde76;}.cls-3{fill:#f16f39;}.cls-4{fill:#f8834b;}.cls-5{fill:#9fdbf3;}.cls-6{fill:#8bd1ea;}.cls-7{fill:#b2e5fb;}</style></defs><title>Foam</title><g id="Foam"><path class="cls-1" d="M39,22c0,9.85.6,12.31-2.17,14.62a3,3,0,0,0-3.2-.29,4,4,0,0,0-7.26,0A3,3,0,0,0,22.18,38H15a6,6,0,0,1-6-6V22a6,6,0,0,1,3.8-5.58c1.5-.6,1-.42,20.2-.42A6,6,0,0,1,39,22Z"/><path class="cls-2" d="M39,22c0,10.4.27,11.18-.81,13H32.64a4,4,0,0,0-5.28,0H24a6,6,0,0,1-6-6V16H33A6,6,0,0,1,39,22Z"/><path class="cls-3" d="M32,25c0,3.93.12,4.34-.27,5A2,2,0,0,1,30,31H18a2,2,0,0,1-2-2V25a2,2,0,0,1,2-2H30A2,2,0,0,1,32,25Z"/><path class="cls-4" d="M32,25c0,3.93.12,4.34-.27,5H20a2,2,0,0,1-2-2c0-3.93-.12-4.34.27-5H30A2,2,0,0,1,32,25Z"/><path class="cls-5" d="M23.23,16H15a6,6,0,0,0-5.58,3.8C8.9,21.11,9,21.23,9,29a2,2,0,0,1-4,0c0-.41.14,0-1,0a3,3,0,0,1-1.27-5.71,4,4,0,0,1,.48-6.86,5,5,0,0,1,7.35-5.72,5,5,0,0,1,9.14.59A3,3,0,0,1,23.23,16Z"/><path class="cls-6" d="M9.8,16.42A6,6,0,0,0,6,22c0,7.65.17,7.54-.5,8.31A2,2,0,0,0,9,29c0-7.53-.14-7.8.42-9.2A6,6,0,0,1,15,16C11.84,16,11.13,15.89,9.8,16.42Z"/><path class="cls-7" d="M19.7,11.3a5,5,0,0,0-6.19-3.06A5,5,0,0,1,16.7,11.3,3,3,0,0,1,20.23,16h3A3,3,0,0,0,19.7,11.3Z"/><circle class="cls-5" cx="5" cy="35" r="2"/><path class="cls-5" d="M41,40a2,2,0,0,1-3.75,1,3,3,0,0,1-4.54,0,4,4,0,0,1-5.42,0,3,3,0,1,1-.92-4.61,4,4,0,0,1,7.26,0,3,3,0,0,1,4.29,2A2,2,0,0,1,41,40Z"/><path class="cls-7" d="M37.92,38.31a3,3,0,0,0-4.29-2,4,4,0,0,0-6.13-1.44,3.9,3.9,0,0,1,1.13,1.44,3,3,0,0,1,4.29,2,2,2,0,1,1,1.54,3.63,2.91,2.91,0,0,0,2.79-1,2,2,0,1,0,.67-2.66Z"/><path class="cls-7" d="M28.73,23H21a2,2,0,0,1-1-3.71,2,2,0,0,1,2.53.4,2,2,0,0,1,3.38.65A2,2,0,0,1,28.73,23Z"/><path class="cls-5" d="M25.73,23H21a2,2,0,1,1,1.88-2.66A2,2,0,0,1,25.73,23Z"/><path class="cls-7" d="M43.62,9.56A3,3,0,0,0,39,8.78a2.93,2.93,0,0,0-3-.59A2,2,0,0,0,34,6a2,2,0,0,0-2,2,2,2,0,0,0,2.19,2A3,3,0,0,0,39,13.22a3,3,0,0,0,4.62-.78,2,2,0,1,0,0-2.88Z"/></g></svg>