<svg xmlns="http://www.w3.org/2000/svg" viewBox="0 0 48 48"><defs><style>.cls-1{fill:#374f68;}.cls-2{fill:#425b72;}.cls-3{fill:#2c435e;}.cls-4{fill:#a07765;}.cls-5{fill:#be927c;}.cls-6{fill:#f6ccaf;}.cls-7{fill:#edb996;}</style></defs><title>Hanger</title><g id="Hanger"><path class="cls-1" d="M25.69,12.61l-.69.17V15a1,1,0,0,1-2,0c0-4.21-.37-3.69,2.21-4.33A2.37,2.37,0,0,0,24.63,6H24a2,2,0,0,0-2,2,1,1,0,0,1-2,0,4,4,0,0,1,4-4h.63C29.75,4,30.67,11.36,25.69,12.61Z"/><path class="cls-2" d="M24.63,4H24l-.18,0c5,.21,5.72,7.38.87,8.59l-.69.17c0,2.46.11,2.7-.5,3.07A1,1,0,0,0,25,15V12.78l.69-.17C30.68,11.36,29.75,4,24.63,4Z"/><path class="cls-3" d="M25,14.09V15a1,1,0,0,1-2,0v-.91A5.6,5.6,0,0,1,25,14.09Z"/><path class="cls-4" d="M47,33v5L26.28,23.59a4,4,0,0,0-4.56,0L1,38V33L18,21a6,6,0,0,1,12,0Z"/><path class="cls-4" d="M47,33v5L26.28,23.59a4,4,0,0,0-4.56,0L1,38V33L18,21a6,6,0,0,1,12,0Z"/><path class="cls-5" d="M30,21a6,6,0,0,0-8.5-5.45A6,6,0,0,1,25,21L40.76,32.12A3,3,0,0,1,42,34.52L47,38V33Z"/><polygon class="cls-6" points="47 38 1 38 5.31 35 42.69 35 47 38"/><polygon class="cls-7" points="47 38 43 38 40 35 42.69 35 47 38"/></g></svg>