<svg xmlns="http://www.w3.org/2000/svg" viewBox="0 0 48 48"><defs><style>.cls-1{fill:#dad7e5;}.cls-2{fill:#7c7d7d;}.cls-3{fill:#919191;}.cls-4{fill:#374f68;}.cls-5{fill:#425b72;}.cls-6{fill:#f26674;}.cls-7{fill:#db5669;}.cls-8{fill:#c6c3d8;}.cls-9{fill:#edebf2;}</style></defs><title>Iron</title><g id="Iron"><path class="cls-1" d="M39,31.72V37H1a8.66,8.66,0,0,1,8-8.63L33.3,26.45A5.29,5.29,0,0,1,39,31.72Z"/><path class="cls-2" d="M42,28.53V31H38.94a5.27,5.27,0,0,0-5.64-4.55L19,27.58C19.2,25.51,20.91,23,23,23H36.47A5.54,5.54,0,0,1,42,28.53Z"/><path class="cls-3" d="M41,29.53V31H38.94a5.27,5.27,0,0,0-5.64-4.55L19,27.58a5.76,5.76,0,0,1,1.19-2.95c1.17-.85.3-.63,15.26-.63A5.54,5.54,0,0,1,41,29.53Z"/><path class="cls-4" d="M41.18,12.36A4,4,0,0,0,37.53,10H17a4,4,0,0,0-4,4v5a4,4,0,0,0,2.35,3.63c1.08.52.05.37,21.12.37A5.54,5.54,0,0,1,42,28.53V31a2,2,0,0,0,2,2h1a2,2,0,0,0,2-2V24C41.12,12.22,41.28,12.36,41.18,12.36ZM16,18V15a2,2,0,0,1,2-2H36a2,2,0,0,1,1.82,1.18c.26.54.18.86.18,3.82a2,2,0,0,1-2,2H18A2,2,0,0,1,16,18Z"/><path class="cls-5" d="M41.18,12.36A4,4,0,0,0,37.53,10H17a4,4,0,0,0-3.95,3.55c.53-.07-.25-.05,3.64-.05.81-.7-.15-.5,19.31-.5a2,2,0,0,1,1.82,1.18c.24.51.18.91.18,2.3l5.5,11v5.43A5.28,5.28,0,0,0,45,33a2,2,0,0,0,2-2V24C41.12,12.22,41.28,12.36,41.18,12.36Z"/><path class="cls-6" d="M31,19v1H23V19a2,2,0,0,1,2-2h4A2,2,0,0,1,31,19Z"/><path class="cls-7" d="M30.82,18.18A2,2,0,0,0,29,17H25a2,2,0,0,0-1.82,1.18c.53-.24.44-.18,4.82-.18a2,2,0,0,1,1.82,1.18c.48,1-.39.82,1.18.82A4.1,4.1,0,0,0,30.82,18.18Z"/><rect class="cls-8" x="1" y="37" width="38" height="3"/><path class="cls-9" d="M39,31.72V35H13.23A6.23,6.23,0,0,1,7,28.77c1.35-.45-.37-.2,26.3-2.32A5.29,5.29,0,0,1,39,31.72Z"/></g></svg>