<svg xmlns="http://www.w3.org/2000/svg" viewBox="0 0 48 48"><defs><style>.cls-1{fill:#7c7d7d;}.cls-2{fill:#919191;}.cls-3{fill:#747575;}.cls-4{fill:#dad7e5;}.cls-5{fill:#6fabe6;}.cls-6{fill:#82bcf4;}.cls-7{fill:#374f68;}.cls-8{fill:#425b72;}.cls-9{fill:#db5669;}.cls-10{fill:#f26674;}.cls-11{fill:#c6c3d8;}</style></defs><title>Iron Board and Iron</title><g id="Iron_Board_and_iron" data-name="Iron Board and iron"><path class="cls-1" d="M46,22H39a1,1,0,0,1-1-1V17a1,1,0,0,1,2,0v3h5V16a1,1,0,0,1,2,0v5A1,1,0,0,1,46,22Z"/><path class="cls-2" d="M39,18a1,1,0,0,0-1-1,1,1,0,0,1,2,0v1Z"/><path class="cls-2" d="M45,20v1H40a1,1,0,0,1-1-1V19h1v1Z"/><rect class="cls-1" x="39" y="18" width="1" height="1"/><rect class="cls-3" x="38" y="18" width="1" height="1"/><path class="cls-1" d="M30.71,21.71c-8.22,8.22-7.71,7.88-8.3,7.88a1,1,0,0,1-.71-1.71l7.59-7.59A1,1,0,0,1,30.71,21.71Z"/><path class="cls-1" d="M9,43H7a1,1,0,0,1,0-2H8.59L20.88,28.7a1,1,0,0,1,1.42,1.42C8.57,43.84,9.59,43,9,43Z"/><path class="cls-1" d="M21.59,29.59c-.59,0-.12.3-8.3-7.88a1,1,0,0,1,1.42-1.42l7.59,7.59A1,1,0,0,1,21.59,29.59Z"/><path class="cls-1" d="M37,43c-2.2,0-2.34.08-2.71-.29L21.7,30.12a1,1,0,0,1,1.42-1.42L35.41,41H37A1,1,0,0,1,37,43Z"/><path class="cls-2" d="M34.41,41h1L23.12,28.7a1,1,0,0,0-1.21-.13C22.17,28.72,21.08,27.67,34.41,41Z"/><path class="cls-2" d="M37,41H36a1,1,0,0,1,0,2h1A1,1,0,0,0,37,41Z"/><path class="cls-3" d="M22.3,30.12l-1.43,1.43a2.74,2.74,0,0,1-1.42-1.42l1.43-1.43A1,1,0,0,1,22.3,30.12Z"/><circle class="cls-4" cx="22" cy="29" r="2"/><polygon class="cls-3" points="17.42 23 14.58 23 13.58 22 16.42 22 17.42 23"/><polygon class="cls-3" points="30.42 22 29.42 23 26.58 23 27.58 22 30.42 22"/><path class="cls-5" d="M40,12v6H1a6,6,0,0,1,6-6Z"/><path class="cls-6" d="M40,12v4H10.43a2,2,0,0,1-1.49-3.34l.6-.66Z"/><path class="cls-4" d="M36,20a2,2,0,0,1-2,2H10a2,2,0,0,1-1.41-3.41C9.42,17.74,8.09,18,34,18A2,2,0,0,1,36,20Z"/><path class="cls-7" d="M36,9V6H31a1,1,0,0,1,0-2h6a1,1,0,0,1,1,1V9A1,1,0,0,1,36,9Z"/><path class="cls-8" d="M37,4H31a1,1,0,0,0-1,1h6a1,1,0,0,1,1,1v4a1,1,0,0,0,1-1V5A1,1,0,0,0,37,4Z"/><path class="cls-9" d="M38,8v4H28a4,4,0,0,1,4-4Z"/><path class="cls-10" d="M38,8v2.5H30.68a1,1,0,0,1-.94-1.36C30.26,7.73,31.25,8,38,8Z"/><path class="cls-11" d="M35.73,19c-30,0-27.79.19-27.14-.41C9.42,17.74,8.09,18,34,18A2,2,0,0,1,35.73,19Z"/></g></svg>