<svg xmlns="http://www.w3.org/2000/svg" viewBox="0 0 48 48"><defs><style>.cls-1{fill:#ffde76;}.cls-2{fill:#fc6;}.cls-3{fill:#231f20;}.cls-4{fill:#ffba55;}.cls-5{fill:#9dcc6b;}.cls-6{fill:#b5e08c;}.cls-7{fill:#cc734c;}.cls-8{fill:#df8761;}.cls-9{fill:#6fabe6;}.cls-10{fill:#82bcf4;}.cls-11{fill:#db5669;}.cls-12{fill:#f26674;}.cls-13{fill:#c4455e;}.cls-14{fill:#425b72;}</style></defs><title>Laundry Basket</title><g id="Laundry_Basket" data-name="Laundry Basket"><rect class="cls-1" x="22" y="13" width="20" height="4"/><rect class="cls-2" x="6" y="13" width="7" height="4"/><rect class="cls-3" x="13" y="12" width="9" height="2"/><path class="cls-2" d="M41,17c-.87,8.68-2.43,24.32-3,30H10c-.26-2.59-2.7-27-3-30h6V29H12v3H23V29H22V17Z"/><path class="cls-1" d="M41,17c-.31,3.11-2.54,25.37-2.8,28H18a2,2,0,0,1-2-2V32h7V29H22V17Z"/><path class="cls-4" d="M25,25V23a1,1,0,0,1,2,0v2A1,1,0,0,1,25,25Z"/><path class="cls-4" d="M29,25V23a1,1,0,0,1,2,0v2A1,1,0,0,1,29,25Z"/><path class="cls-4" d="M33,25V23a1,1,0,0,1,2,0v2A1,1,0,0,1,33,25Z"/><path class="cls-4" d="M25,31V29a1,1,0,0,1,2,0v2A1,1,0,0,1,25,31Z"/><path class="cls-4" d="M29,31V29a1,1,0,0,1,2,0v2A1,1,0,0,1,29,31Z"/><path class="cls-4" d="M33,31V29a1,1,0,0,1,2,0v2A1,1,0,0,1,33,31Z"/><path class="cls-4" d="M13,37V35a1,1,0,0,1,2,0v2A1,1,0,0,1,13,37Z"/><path class="cls-4" d="M17,37V35a1,1,0,0,1,2,0v2A1,1,0,0,1,17,37Z"/><path class="cls-4" d="M21,37V35a1,1,0,0,1,2,0v2A1,1,0,0,1,21,37Z"/><path class="cls-4" d="M25,37V35a1,1,0,0,1,2,0v2A1,1,0,0,1,25,37Z"/><path class="cls-4" d="M29,37V35a1,1,0,0,1,2,0v2A1,1,0,0,1,29,37Z"/><path class="cls-4" d="M33,37V35a1,1,0,0,1,2,0v2A1,1,0,0,1,33,37Z"/><path class="cls-4" d="M13,43V41a1,1,0,0,1,2,0v2A1,1,0,0,1,13,43Z"/><path class="cls-4" d="M17,43V41a1,1,0,0,1,2,0v2A1,1,0,0,1,17,43Z"/><path class="cls-4" d="M21,43V41a1,1,0,0,1,2,0v2A1,1,0,0,1,21,43Z"/><path class="cls-4" d="M25,43V41a1,1,0,0,1,2,0v2A1,1,0,0,1,25,43Z"/><path class="cls-4" d="M29,43V41a1,1,0,0,1,2,0v2A1,1,0,0,1,29,43Z"/><path class="cls-4" d="M33,43V41a1,1,0,0,1,2,0v2A1,1,0,0,1,33,43Z"/><rect class="cls-5" x="13" y="13" width="9" height="16"/><path class="cls-6" d="M22,13V28H18a2,2,0,0,1-2-2V13Z"/><rect class="cls-5" x="12" y="29" width="11" height="3"/><rect class="cls-6" x="16" y="29" width="7" height="3"/><path class="cls-7" d="M5,16V10a1,1,0,0,1,2,0v6A1,1,0,0,1,5,16Z"/><path class="cls-8" d="M41,16V10a1,1,0,0,1,2,0v6A1,1,0,0,1,41,16Z"/><path class="cls-9" d="M39,9c0,1.78.1,2.37-.27,3A2,2,0,0,1,37,13H11a2,2,0,0,1-2-2V9a2,2,0,0,1,2-2H37A2,2,0,0,1,39,9Z"/><path class="cls-10" d="M39,9c0,1.78.1,2.37-.27,3H18a2,2,0,0,1-2-2c0-1.78-.1-2.37.27-3H37A2,2,0,0,1,39,9Z"/><rect class="cls-11" x="9" y="1" width="30" height="6" rx="2"/><rect class="cls-12" x="16" y="1" width="23" height="6" rx="2"/><path class="cls-13" d="M16,5H9V3h7A1,1,0,0,1,16,5Z"/><path class="cls-14" d="M39,9v2H33a1,1,0,0,1,0-2Z"/><path class="cls-9" d="M38.73,8H9.27A2,2,0,0,1,11,7H37A2,2,0,0,1,38.73,8Z"/><polygon class="cls-2" points="41 17 40.9 18 22 18 22 17 41 17"/><polygon class="cls-4" points="13 17 13 18 7.1 18 7 17 13 17"/></g></svg>