<svg xmlns="http://www.w3.org/2000/svg" viewBox="0 0 48 48"><defs><style>.cls-1{fill:#5b9ad8;}.cls-2{fill:#6fabe6;}.cls-3{fill:#9fdbf3;}.cls-4{fill:#425b72;}.cls-5{fill:#82bcf4;}.cls-6{fill:#edebf2;}.cls-7{fill:#b2e5fb;}.cls-8{fill:#374f68;}</style></defs><title>Laundry Soap</title><g id="Laundry_Soap" data-name="Laundry Soap"><rect class="cls-1" x="20" y="1" width="8" height="6"/><rect class="cls-2" x="21" y="1" width="7" height="6"/><path class="cls-1" d="M30,9v2H18V9a2,2,0,0,1,2-2h8A2,2,0,0,1,30,9Z"/><path class="cls-2" d="M30,9v2H20V9a2,2,0,0,1,2-2h6A2,2,0,0,1,30,9Z"/><path class="cls-3" d="M35,13.55A4,4,0,0,0,31.26,11H20a9,9,0,0,0-9,9v1H24l5,11V47H41V29Zm-6.59,3a1.3,1.3,0,0,1,2.28.21c4.24,9.89,4.46,9.8,3.92,10.63a1.3,1.3,0,0,1-2.28-.21C28.08,17.32,27.86,17.41,28.4,16.58Z"/><path class="cls-4" d="M25,4V6H23V4A1,1,0,0,1,25,4Z"/><path class="cls-2" d="M29,32V47H14a3,3,0,0,1-3-3V21H24Z"/><polygon class="cls-5" points="29 32 29 44 20 44 20 21 24 21 29 32"/><path class="cls-6" d="M25,38a5,5,0,0,1-6,4.9h0a5,5,0,0,1,0-9.8h0A5,5,0,0,1,25,38Z"/><circle class="cls-6" cx="22" cy="28" r="2"/><path class="cls-3" d="M20,41a1,1,0,0,1,0-2,1,1,0,0,0,1-1,1,1,0,0,1,1-1C23.91,37,23,41,20,41Z"/><path class="cls-6" d="M17.5,25H17v-.5a1,1,0,0,0-2,0V25h-.5a1,1,0,0,0,0,2H15v.5a1,1,0,0,0,2,0V27h.5A1,1,0,0,0,17.5,25Z"/><path class="cls-7" d="M35,13.55A4,4,0,0,0,31.26,11H20V21h4l5,11V44H41V29ZM34.6,27.42a1.3,1.3,0,0,1-2.28-.21c-4.24-9.89-4.46-9.8-3.92-10.63a1.3,1.3,0,0,1,2.28.21C34.92,26.68,35.14,26.59,34.6,27.42Z"/><rect class="cls-8" x="23" y="6" width="2" height="1"/><rect class="cls-1" x="20" y="6" width="3" height="1"/><rect class="cls-1" x="25" y="6" width="3" height="1"/><rect class="cls-1" x="18" y="10" width="12" height="1"/></g></svg>