<svg xmlns="http://www.w3.org/2000/svg" viewBox="0 0 48 48"><defs><style>.cls-1{fill:#6fabe6;}.cls-2{fill:#82bcf4;}.cls-3{fill:#2c435e;}.cls-4{fill:#425b72;}.cls-5{fill:#5b9ad8;}.cls-6{fill:#a07765;}.cls-7{fill:#be927c;}</style></defs><title>Pants are drying</title><g id="Pants_are_Drying" data-name="Pants are Drying"><rect class="cls-1" x="11" y="7" width="11" height="4"/><rect class="cls-2" x="18" y="7" width="4" height="4"/><rect class="cls-2" x="26" y="7" width="11" height="4"/><path class="cls-3" d="M14.87,12a4,4,0,0,1-4.2,3c0-.06,0,.14.25-3Z"/><path class="cls-4" d="M14,11a4,4,0,0,1-3.33,3.94L11,11Z"/><path class="cls-3" d="M37.33,15a4,4,0,0,1-4.2-3h3.95C37.34,15.12,37.33,14.92,37.33,15Z"/><path class="cls-4" d="M37.33,14.94A4,4,0,0,1,34,11h3Z"/><path class="cls-1" d="M40,47H27c-1.11-8.52-2.86-21.91-3-23-.15,1.12-1.91,14.59-3,23H8c2.89-34.72,2.5-32,3-32a4,4,0,0,0,4-4h7v6a4,4,0,0,0,4-4V11h7a4,4,0,0,0,4.33,4C37.36,15.39,39.7,43.49,40,47Z"/><path class="cls-2" d="M39.83,45H26.74c-.62-4.79-2.55-19.53-2.74-21-.2,1.54-2.13,16.27-2.74,21A3.26,3.26,0,0,1,18,41.74V11h4v6a4,4,0,0,0,4-4V11h7a4,4,0,0,0,4,4C37.41,15,37.21,12.27,39.83,45Z"/><path class="cls-3" d="M37.08,12H33.13A3.66,3.66,0,0,1,33,11h4Z"/><path class="cls-3" d="M15,11a3.66,3.66,0,0,1-.13,1H10.92L11,11Z"/><path class="cls-1" d="M33.13,12H14.87A3.66,3.66,0,0,0,15,11H33A3.66,3.66,0,0,0,33.13,12Z"/><path class="cls-5" d="M25,20v4a1,1,0,0,1-.87,1c-.14-1.1-.06-1.51-.26,0A1,1,0,0,1,23,24V20A1,1,0,0,1,25,20Z"/><path class="cls-5" d="M15,44H8.25l.17-2H15A1,1,0,0,1,15,44Z"/><path class="cls-5" d="M39.75,44H33a1,1,0,0,1,0-2h6.58Z"/><path class="cls-5" d="M21.65,42l-.26,2H18a1,1,0,0,1,0-2Z"/><path class="cls-5" d="M30,44H26.61l-.26-2H30A1,1,0,0,1,30,44Z"/><path class="cls-5" d="M26,7v6a4,4,0,0,1-4,4V7Z"/><path class="cls-6" d="M47,4H35V8a1,1,0,0,1-2,0V4H15V8a1,1,0,0,1-2,0V4H1A1,1,0,0,1,1,2H13V1a1,1,0,0,1,2,0V2H33V1a1,1,0,0,1,2,0V2H47A1,1,0,0,1,47,4Z"/><path class="cls-7" d="M48,3H18V2H33V1a1,1,0,0,1,2,0V2H47A1,1,0,0,1,48,3Z"/></g></svg>