<svg xmlns="http://www.w3.org/2000/svg" viewBox="0 0 48 48"><defs><style>.cls-1{fill:#9dcc6b;}.cls-2{fill:#b5e08c;}.cls-3{fill:#84b749;}.cls-4{fill:#9fdbf3;}.cls-5{fill:#b2e5fb;}.cls-6{fill:#8bd1ea;}</style></defs><title>Scoop</title><g id="Scoop"><path class="cls-1" d="M19,22v9A9,9,0,0,1,1,31V22Z"/><path class="cls-2" d="M1,22v2.5H12.5a4,4,0,0,1,4,4v5c0,3.9-2.6,5.94-.82,4.47A8.94,8.94,0,0,0,19,31V22Z"/><path class="cls-1" d="M45,30a2,2,0,0,1-2-2,2,2,0,0,0-2-2H19V22H41C47,22,48.83,30,45,30Z"/><path class="cls-3" d="M44,28.13v1.6c-1.59-.95-.48-2.06-1.59-3.14-.82-.84.32-.59-23.41-.59V25H40.87A3.13,3.13,0,0,1,44,28.13Z"/><path class="cls-2" d="M41,22H19v1.5H39.5c3.88,0,6.55,3.8,6,6.45C48.73,29.2,46.59,22,41,22Z"/><path class="cls-3" d="M10,28H1V26h9A1,1,0,0,1,10,28Z"/><path class="cls-1" d="M19,26v2H16.47a4.08,4.08,0,0,0-.85-2Z"/><path class="cls-3" d="M16.47,28H15a1,1,0,0,1,0-2h.62A4.08,4.08,0,0,1,16.47,28Z"/><path class="cls-4" d="M18.9,22H1.1A5,5,0,0,1,4,16.4,2,2,0,0,1,6.13,14a4,4,0,0,1,7.74,0A2,2,0,0,1,16,16.4,5,5,0,0,1,18.9,22Z"/><path class="cls-5" d="M16,16.4A2,2,0,0,0,13.87,14a4,4,0,0,0-7.52-.64A4,4,0,0,1,11.87,16,2,2,0,0,1,14,18.4,5,5,0,0,1,16.89,22h2A5,5,0,0,0,16,16.4Z"/><path class="cls-6" d="M14,19a1,1,0,0,0-2,0A1,1,0,0,0,14,19Z"/><path class="cls-6" d="M18,9a1,1,0,0,0-2,0A1,1,0,0,0,18,9Z"/><path class="cls-6" d="M6,5A1,1,0,0,0,4,5,1,1,0,0,0,6,5Z"/><path class="cls-6" d="M10,15a1,1,0,0,0-2,0A1,1,0,0,0,10,15Z"/><path class="cls-6" d="M7,19a1,1,0,0,0-2,0A1,1,0,0,0,7,19Z"/></g></svg>