<svg xmlns="http://www.w3.org/2000/svg" viewBox="0 0 48 48"><defs><style>.cls-1{fill:#6fabe6;}.cls-2{fill:#82bcf4;}.cls-3{fill:#2c435e;}.cls-4{fill:#374f68;}.cls-5{fill:#5b9ad8;}.cls-6{fill:#a07765;}.cls-7{fill:#be927c;}</style></defs><title>Shorts is Drying</title><g id="Shorts_are_Drying" data-name="Shorts are Drying"><rect class="cls-1" x="11" y="14" width="26" height="4"/><rect class="cls-2" x="16" y="14" width="21" height="4"/><path class="cls-1" d="M40,42H27L24,31,21,42H8l2.5-20A4,4,0,0,0,15,18H33a4,4,0,0,0,4.5,4Z"/><path class="cls-1" d="M40,42H27c-.81-3-2.13-7.8-3-11-.82,3-2.17,8-3,11H8c.48-3.92,0-.4,2.5-20A4,4,0,0,0,15,18H33a4,4,0,0,0,4.5,4C40,42,40,42,40,42Z"/><path class="cls-2" d="M39.75,40H26.45C24,30.9,24.37,32.36,24,31c-.34,1.27,0-.15-2.45,9A5.54,5.54,0,0,1,16,34.45V18H33a4,4,0,0,0,4.5,4Z"/><path class="cls-3" d="M37.5,22a4,4,0,0,1-4.37-3h4Z"/><path class="cls-4" d="M37.5,22A4,4,0,0,1,34,18h3Z"/><path class="cls-3" d="M37.13,19h-4A3.66,3.66,0,0,1,33,18h4Z"/><path class="cls-1" d="M33.13,19H14.87A3.66,3.66,0,0,0,15,18H33A3.66,3.66,0,0,0,33.13,19Z"/><path class="cls-1" d="M25,25v6a1,1,0,0,1-.74,1L24,31l-.26,1A1,1,0,0,1,23,31V25A1,1,0,0,1,25,25Z"/><path class="cls-5" d="M15,39H8.37l.25-2H15A1,1,0,0,1,15,39Z"/><path class="cls-1" d="M39.63,39H33a1,1,0,0,1,0-2h6.38Z"/><path class="cls-1" d="M22.35,37.07,21.82,39H18a1,1,0,0,1,0-2C22.4,37,22.14,37,22.35,37.07Z"/><path class="cls-1" d="M30,39H26.18l-.53-1.93c.22-.1,0-.07,4.35-.07A1,1,0,0,1,30,39Z"/><path class="cls-6" d="M47,11H35v4a1,1,0,0,1-2,0V11H15v4a1,1,0,0,1-2,0V11H1A1,1,0,0,1,1,9H13V8a1,1,0,0,1,2,0V9H33V8a1,1,0,0,1,2,0V9H47A1,1,0,0,1,47,11Z"/><path class="cls-3" d="M14.87,19a4,4,0,0,1-4.37,3l.37-3Z"/><path class="cls-4" d="M14,18a4,4,0,0,1-3.5,4l.5-4Z"/><path class="cls-3" d="M15,18a3.66,3.66,0,0,1-.13,1h-4L11,18Z"/><path class="cls-4" d="M29,22c-.57,0-.35.06-5.71-5.29a1,1,0,0,1,1.42-1.42l5,5A1,1,0,0,1,29,22Z"/><path class="cls-1" d="M28.5,21.87a1,1,0,0,1-1.21-.16L23.5,17.92l.5-.5C28.67,22.09,28.31,21.75,28.5,21.87Z"/><path class="cls-4" d="M19,22a1,1,0,0,1-.71-1.71l5-5a1,1,0,0,1,1.42,1.42C19.47,21.94,19.59,22,19,22Z"/><path class="cls-7" d="M48,10H18V9H33V8a1,1,0,0,1,2,0V9H47A1,1,0,0,1,48,10Z"/></g></svg>