<svg xmlns="http://www.w3.org/2000/svg" viewBox="0 0 48 48"><defs><style>.cls-1{fill:#fc6;}.cls-2{fill:#ef6833;}.cls-3{fill:#f8834b;}.cls-4{fill:#ffba55;}.cls-5{fill:#ffde76;}.cls-6{fill:#a07765;}.cls-7{fill:#be927c;}</style></defs><title>T-Shirt is Drying</title><g id="T-Shirt_is_Drying" data-name="T-Shirt is Drying"><path class="cls-1" d="M38,9V47H10V9l7-3A7,7,0,0,0,31,6Z"/><path class="cls-2" d="M31,6A7,7,0,1,1,17,6Z"/><path class="cls-3" d="M28,6a7,7,0,0,1-5.5,6.84A7,7,0,0,1,17,6Z"/><path class="cls-4" d="M10,9V30c-2.57-2-.88-.69-9-7Z"/><polygon class="cls-1" points="8 12.11 8 28.44 1 23 8 12.11"/><path class="cls-1" d="M47,23l-9,7V9C38.09,9.14,46.91,22.87,47,23Z"/><path class="cls-5" d="M46,21.37l-2.72,2.12A2,2,0,0,1,40,21.91v-9.8Z"/><path class="cls-5" d="M38,9V43H28A10,10,0,0,1,18,33V9.6A7,7,0,0,0,31,6Z"/><path class="cls-6" d="M47,4H35V9a1,1,0,0,1-2,0V4H15V9a1,1,0,0,1-2,0V4H1A1,1,0,0,1,1,2H13V1a1,1,0,0,1,2,0V2H33V1a1,1,0,0,1,2,0V2H47A1,1,0,0,1,47,4Z"/><path class="cls-7" d="M48,3H18V2H33V1a1,1,0,0,1,2,0V2H47A1,1,0,0,1,48,3Z"/></g></svg>