<svg id="T-Shirt_Stain" data-name="T-Shirt Stain" xmlns="http://www.w3.org/2000/svg" viewBox="0 0 48 48"><defs><style>.cls-1{fill:#9dcc6b;}.cls-2{fill:#6fabe6;}.cls-3{fill:#82bcf4;}.cls-4{fill:#2c435e;}.cls-5{fill:#425b72;}.cls-6{fill:#f26674;}.cls-7{fill:#5b9ad8;}.cls-8{fill:#f8834b;}</style></defs><title>T-Shirt Stain</title><path class="cls-1" d="M17,39.75A3,3,0,0,1,17.23,44H10V35.77a3,3,0,0,1,4.63.78A2,2,0,0,1,18,38,2,2,0,0,1,17,39.75Z"/><path class="cls-2" d="M31,4A7,7,0,0,1,17,4L12,6.16a3,3,0,0,1,0,5.66,3,3,0,0,1-2,3v21a3,3,0,0,1,4.63.78A2,2,0,0,1,18,38a2,2,0,0,1-1,1.75A3,3,0,0,1,17.23,44H38V7Z"/><path class="cls-3" d="M38,7V40H26.58A8.58,8.58,0,0,1,18,31.42V7.6A7,7,0,0,0,31,4Z"/><path class="cls-4" d="M31,4A7,7,0,0,1,17,4Z"/><path class="cls-5" d="M28,4a7,7,0,0,1-5.48,6.84h0A7,7,0,0,1,17,4Z"/><path class="cls-6" d="M12,11.82A3,3,0,0,1,6.17,13L10,7,12,6.16A3,3,0,0,1,14,9,3,3,0,0,1,12,11.82Z"/><path class="cls-2" d="M10,14.82V28L1,21l5.17-8A3,3,0,0,0,10,14.82Z"/><path class="cls-7" d="M10,14.82V28L8,26.44V14.82A2.87,2.87,0,0,0,10,14.82Z"/><path class="cls-2" d="M47,21l-9,7V7Z"/><path class="cls-3" d="M46,19.37l-2.72,2.12A2,2,0,0,1,40,19.91v-9.8Z"/><path class="cls-8" d="M28.22,23A3,3,0,0,1,26,28a3,3,0,0,1-2.33-1.12A2,2,0,0,1,22,23.25a3,3,0,0,1,3.44-4.87A3,3,0,1,1,28.22,23Z"/></svg>