<svg xmlns="http://www.w3.org/2000/svg" viewBox="0 0 48 48"><defs><style>.cls-1{fill:#db5669;}.cls-2{fill:#f26674;}.cls-3{fill:#dad7e5;}.cls-4{fill:#c6c3d8;}.cls-5{fill:#ffde76;}.cls-6{fill:#fc6;}.cls-7{fill:#425b72;}.cls-8{fill:#edebf2;}</style></defs><title>Tumble Dryer</title><g id="Tumble_Dryer" data-name="Tumble Dryer"><rect class="cls-1" x="4" y="9" width="40" height="38"/><path class="cls-2" d="M44,9V45H27a6,6,0,0,1-6-6V9Z"/><rect class="cls-1" x="4" y="9" width="40" height="2"/><path class="cls-3" d="M38,28a14,14,0,0,1-27.42,4H8V24h2.58A14,14,0,0,1,38,28Z"/><path class="cls-4" d="M20,41.42A14,14,0,0,1,10.58,32H8V24h2.58A14,14,0,0,1,20,14.58C33.29,18.54,33.3,37.46,20,41.42Z"/><path class="cls-5" d="M34,28a10,10,0,0,1-12,9.8h0a10,10,0,0,1,0-19.6h0A10,10,0,0,1,34,28Z"/><path class="cls-6" d="M30,28a10,10,0,0,1-8,9.8h0a10,10,0,0,1,0-19.6h0A10,10,0,0,1,30,28Z"/><rect class="cls-4" x="4" y="1" width="40" height="8"/><rect class="cls-3" x="21" y="1" width="23" height="8"/><circle class="cls-7" cx="24" cy="5" r="2"/><path class="cls-7" d="M40,6H30a1,1,0,0,1,0-2H40A1,1,0,0,1,40,6Z"/><path class="cls-7" d="M18,6H8A1,1,0,0,1,8,4H18A1,1,0,0,1,18,6Z"/><path class="cls-8" d="M19.14,31.49s1.06-1.87.15-2.78c-1.62-1.62-.85-4.05-.15-5.22a1,1,0,0,1,1.72,1s-1.06,1.88-.15,2.78c1.62,1.62.85,4.05.15,5.22A1,1,0,0,1,19.14,31.49Z"/><path class="cls-8" d="M27.14,31.49s1.06-1.87.15-2.78c-1.62-1.62-.85-4.05-.15-5.22a1,1,0,0,1,1.72,1s-1.06,1.88-.15,2.78c1.62,1.62.85,4.05.15,5.22A1,1,0,0,1,27.14,31.49Z"/><path class="cls-8" d="M23.14,29.49s1.06-1.87.15-2.78c-1.62-1.62-.85-4.05-.15-5.22a1,1,0,0,1,1.72,1s-1.06,1.88-.15,2.78c1.62,1.62.85,4.05.15,5.22A1,1,0,0,1,23.14,29.49Z"/></g></svg>