<svg xmlns="http://www.w3.org/2000/svg" viewBox="0 0 48 48"><defs><style>.cls-1{fill:#edebf2;}.cls-2{fill:#fff;}.cls-3{fill:#c6c3d8;}.cls-4{fill:#dad7e5;}.cls-5{fill:#a07765;}.cls-6{fill:#be927c;}</style></defs><title>Underwear is Drying</title><g id="Underwear_is_Drying" data-name="Underwear is Drying"><rect class="cls-1" x="7" y="14" width="34" height="5"/><rect class="cls-2" x="7" y="14" width="34" height="4"/><path class="cls-1" d="M30.33,39.13c-2.11,1.1-3.25.87-9.09.87a7.78,7.78,0,0,1-3.57-.87c1.9-2.75,3-7.09,1.58-10.65-.36-.85-.25.62-.25-9.48H29v8.93C27.26,31.41,28.19,36,30.33,39.13Z"/><path class="cls-1" d="M30.33,39.13c-2.11,1.1-3.25.87-9.09.87a7.78,7.78,0,0,1-3.57-.87c1.9-2.75,3-7.09,1.58-10.65-.36-.85-.25.62-.25-9.48H29v8.93C27.26,31.41,28.19,36,30.33,39.13Z"/><path class="cls-1" d="M30.33,39.13c-2.11,1.1-3.49.87-8.09.87a7.78,7.78,0,0,1-3.57-.87c1.9-2.75,3-7.09,1.58-10.65-.36-.85-.25.62-.25-9.48h9v8.93C27.26,31.41,28.19,36,30.33,39.13Z"/><path class="cls-2" d="M29.33,39.13c-2.12,1.1-3.73.87-7.09.87a7.78,7.78,0,0,1-3.57-.87c1.9-2.75,3-7.09,1.58-10.65-.36-.85-.25.62-.25-9.48h8v8.93C26.26,31.41,27.19,36,29.33,39.13Z"/><path class="cls-3" d="M17.67,39.13a7.73,7.73,0,0,1-3.55-3.8C8.18,21.71,8.68,23,8.87,23A9.55,9.55,0,0,1,19,27.93C20.73,31.39,19.83,36,17.67,39.13Z"/><path class="cls-4" d="M17,38.7C14.5,37.11,14.54,36.3,8.74,23c.15,0,.64-.09,1.18-.11a9.31,9.31,0,0,1,8.33,5.59C19.64,31.86,18.68,35.94,17,38.7Z"/><path class="cls-1" d="M19,19v8.93A9.58,9.58,0,0,0,8.87,23c-.19,0,.05.41-1.87-4Z"/><path class="cls-2" d="M19,19v7.37c-2.29-2.87-5.64-3.74-9.3-3.47L8,19Z"/><path class="cls-1" d="M41,19c-1.93,4.44-1.68,4-1.87,4a9.63,9.63,0,0,0-2.73-.06,9.3,9.3,0,0,0-7.4,5V19Z"/><path class="cls-2" d="M40,19l-1.7,3.9c-4.4-.33-7.47,1.17-9.3,3.47V19Z"/><path class="cls-3" d="M39.26,23c-5.76,13.21-5.74,14.47-8.93,16.13-4.8-6.94-1.6-15.39,6.07-16.19A12.09,12.09,0,0,1,39.26,23Z"/><path class="cls-4" d="M39.26,23c-5.71,13.09-5.69,14.06-8.21,15.7-1.94-3.09-2.72-7.43-1.05-10.77A9.17,9.17,0,0,1,39.13,23Z"/><path class="cls-5" d="M47,11H35v4a1,1,0,0,1-2,0V11H15v4a1,1,0,0,1-2,0V11H1A1,1,0,0,1,1,9H13V8a1,1,0,0,1,2,0V9H33c0-1-.13-1.77.77-2L34,7a1,1,0,0,1,1,1V9H47A1,1,0,0,1,47,11Z"/><path class="cls-6" d="M48,10H18V9H33c0-1-.13-1.77.77-2L34,7a1,1,0,0,1,1,1V9H47A1,1,0,0,1,48,10Z"/></g></svg>