<svg xmlns="http://www.w3.org/2000/svg" viewBox="0 0 48 48"><defs><style>.cls-1{fill:#9fdbf3;}.cls-2{fill:#b2e5fb;}.cls-3{fill:#dad7e5;}.cls-4{fill:#edebf2;}.cls-5{fill:#6fabe6;}.cls-6{fill:#5b9ad8;}</style></defs><title>Washing Powder</title><g id="Washing_Powder" data-name="Washing Powder"><rect class="cls-1" x="2" y="19" width="32" height="28"/><path class="cls-2" d="M34,19V45H19.32A2.32,2.32,0,0,1,17,42.68V19Z"/><rect class="cls-3" x="6" y="23" width="24" height="20"/><rect class="cls-4" x="17" y="23" width="13" height="20"/><path class="cls-5" d="M46,19V47c-5.9-2.94-4.82-2.41-6-3l-6,3V19Z"/><polygon class="cls-5" points="46 19 34 19 40 9 46 19"/><path class="cls-6" d="M41,38c0,6.4,0,6.14-.11,6.45L40,44l-.89.45C39,44.13,39,44.55,39,38A1,1,0,0,1,41,38Z"/><path class="cls-3" d="M8,1V9L2,19H34L40,9V1ZM31.69,7.71C31.3,8.13,32.22,8,17,8a1,1,0,0,1-.69-1.71C16.7,5.87,15.78,6,31,6A1,1,0,0,1,31.69,7.71Z"/><path class="cls-4" d="M40,1V9L34,19H17c6.93-11.54,6-9.65,6-11,8.61,0,8.31.11,8.69-.29A1,1,0,0,0,31,6H23V1Z"/><path class="cls-1" d="M20.83,36.83a4,4,0,0,1-5.66-5.66L18,28.34l2.83,2.83A4,4,0,0,1,20.83,36.83Z"/><path class="cls-2" d="M19,37.87a4,4,0,0,1-1.83-6.7L19,29.34l1.83,1.83A4,4,0,0,1,19,37.87Z"/><circle class="cls-1" cx="11" cy="28" r="2"/><path class="cls-2" d="M26.5,37.5H26V37a1,1,0,0,0-2,0v.5h-.5a1,1,0,0,0,0,2H24V40a1,1,0,0,0,2,0v-.5h.5A1,1,0,0,0,26.5,37.5Z"/></g></svg>