<svg xmlns="http://www.w3.org/2000/svg" viewBox="0 0 48 48"><defs><style>.cls-1{fill:#5b9ad8;}.cls-2{fill:#6fabe6;}.cls-3{fill:#dad7e5;}.cls-4{fill:#c6c3d8;}.cls-5{fill:#425b72;}.cls-6{fill:#b2e5fb;}.cls-7{fill:#9fdbf3;}.cls-8{fill:#edebf2;}</style></defs><title>Washer</title><g id="Washer"><rect class="cls-1" x="4" y="9" width="40" height="38"/><path class="cls-2" d="M44,9V44H26a6,6,0,0,1-6-6V9Z"/><path class="cls-3" d="M38,28a14,14,0,0,1-27.42,4H8V24h2.58A14,14,0,0,1,38,28Z"/><path class="cls-3" d="M38,28a14,14,0,0,1-27.42,4H8V24h2.58A14,14,0,0,1,38,28Z"/><path class="cls-4" d="M31,28A14,14,0,0,1,20.5,41.56,14,14,0,0,1,10.58,32H8V24h2.58a14,14,0,0,1,9.92-9.56A14,14,0,0,1,31,28Z"/><rect class="cls-4" x="16" y="1" width="28" height="8"/><rect class="cls-3" x="20" y="1" width="24" height="8"/><circle class="cls-5" cx="24" cy="5" r="2"/><path class="cls-5" d="M40,6H30a1,1,0,0,1,0-2H40A1,1,0,0,1,40,6Z"/><rect class="cls-3" x="4" y="1" width="12" height="8"/><path class="cls-6" d="M34,28a10,10,0,0,1-12.5,9.68c-10-2.57-10-16.8,0-19.36A10,10,0,0,1,34,28Z"/><path class="cls-7" d="M21.5,37.68c-10-2.57-10-16.8,0-19.36C31.47,20.89,31.46,35.12,21.5,37.68Z"/><path class="cls-8" d="M24,35a1,1,0,0,1,0-2,5,5,0,0,0,5-5,1,1,0,0,1,1-1C32.56,27,30.35,35,24,35Z"/><rect class="cls-1" x="4" y="9" width="40" height="2"/></g></svg>